<?xml version="1.0" encoding="utf-8" standalone="no"?>
<!DOCTYPE svg PUBLIC "-//W3C//DTD SVG 1.1//EN"
  "http://www.w3.org/Graphics/SVG/1.1/DTD/svg11.dtd">
<!-- Created with matplotlib (http://matplotlib.org/) -->
<svg height="432pt" version="1.1" viewBox="0 0 864 432" width="864pt" xmlns="http://www.w3.org/2000/svg" xmlns:xlink="http://www.w3.org/1999/xlink">
 <defs>
  <style type="text/css">
*{stroke-linecap:butt;stroke-linejoin:round;}
  </style>
 </defs>
 <g id="figure_1">
  <g id="patch_1">
   <path d="M 0 432 
L 864 432 
L 864 0 
L 0 0 
z
" style="fill:#ffffff;"/>
  </g>
  <g id="axes_1">
   <g id="patch_2">
    <path d="M 108 378 
L 777.6 378 
L 777.6 51.84 
L 108 51.84 
z
" style="fill:#ffffff;"/>
   </g>
   <g id="matplotlib.axis_1">
    <g id="xtick_1">
     <g id="line2d_1">
      <path clip-path="url(#pb3fdf71f6a)" d="M 111.96996 378 
L 111.96996 51.84 
" style="fill:none;stroke:#b0b0b0;stroke-linecap:square;stroke-width:0.8;"/>
     </g>
     <g id="line2d_2">
      <defs>
       <path d="M 0 0 
L 0 3.5 
" id="mc3029ed8b5" style="stroke:#000000;stroke-width:0.8;"/>
      </defs>
      <g>
       <use style="stroke:#000000;stroke-width:0.8;" x="111.96996" xlink:href="#mc3029ed8b5" y="378"/>
      </g>
     </g>
     <g id="text_1">
      <!-- 0 -->
      <defs>
       <path d="M 31.78125 66.40625 
Q 24.171875 66.40625 20.328125 58.90625 
Q 16.5 51.421875 16.5 36.375 
Q 16.5 21.390625 20.328125 13.890625 
Q 24.171875 6.390625 31.78125 6.390625 
Q 39.453125 6.390625 43.28125 13.890625 
Q 47.125 21.390625 47.125 36.375 
Q 47.125 51.421875 43.28125 58.90625 
Q 39.453125 66.40625 31.78125 66.40625 
M 31.78125 74.21875 
Q 44.046875 74.21875 50.515625 64.515625 
Q 56.984375 54.828125 56.984375 36.375 
Q 56.984375 17.96875 50.515625 8.265625 
Q 44.046875 -1.421875 31.78125 -1.421875 
Q 19.53125 -1.421875 13.0625 8.265625 
Q 6.59375 17.96875 6.59375 36.375 
Q 6.59375 54.828125 13.0625 64.515625 
Q 19.53125 74.21875 31.78125 74.21875 
" id="DejaVuSans-30"/>
      </defs>
      <g transform="translate(108.78871 392.598437)scale(0.1 -0.1)">
       <use xlink:href="#DejaVuSans-30"/>
      </g>
     </g>
    </g>
    <g id="xtick_2">
     <g id="line2d_3">
      <path clip-path="url(#pb3fdf71f6a)" d="M 244.301976 378 
L 244.301976 51.84 
" style="fill:none;stroke:#b0b0b0;stroke-linecap:square;stroke-width:0.8;"/>
     </g>
     <g id="line2d_4">
      <g>
       <use style="stroke:#000000;stroke-width:0.8;" x="244.301976" xlink:href="#mc3029ed8b5" y="378"/>
      </g>
     </g>
     <g id="text_2">
      <!-- 5 -->
      <defs>
       <path d="M 10.796875 72.90625 
L 49.515625 72.90625 
L 49.515625 64.59375 
L 19.828125 64.59375 
L 19.828125 46.734375 
Q 21.96875 47.46875 24.109375 47.828125 
Q 26.265625 48.1875 28.421875 48.1875 
Q 40.625 48.1875 47.75 41.5 
Q 54.890625 34.8125 54.890625 23.390625 
Q 54.890625 11.625 47.5625 5.09375 
Q 40.234375 -1.421875 26.90625 -1.421875 
Q 22.3125 -1.421875 17.546875 -0.640625 
Q 12.796875 0.140625 7.71875 1.703125 
L 7.71875 11.625 
Q 12.109375 9.234375 16.796875 8.0625 
Q 21.484375 6.890625 26.703125 6.890625 
Q 35.15625 6.890625 40.078125 11.328125 
Q 45.015625 15.765625 45.015625 23.390625 
Q 45.015625 31 40.078125 35.4375 
Q 35.15625 39.890625 26.703125 39.890625 
Q 22.75 39.890625 18.8125 39.015625 
Q 14.890625 38.140625 10.796875 36.28125 
z
" id="DejaVuSans-35"/>
      </defs>
      <g transform="translate(241.120726 392.598437)scale(0.1 -0.1)">
       <use xlink:href="#DejaVuSans-35"/>
      </g>
     </g>
    </g>
    <g id="xtick_3">
     <g id="line2d_5">
      <path clip-path="url(#pb3fdf71f6a)" d="M 376.633992 378 
L 376.633992 51.84 
" style="fill:none;stroke:#b0b0b0;stroke-linecap:square;stroke-width:0.8;"/>
     </g>
     <g id="line2d_6">
      <g>
       <use style="stroke:#000000;stroke-width:0.8;" x="376.633992" xlink:href="#mc3029ed8b5" y="378"/>
      </g>
     </g>
     <g id="text_3">
      <!-- 10 -->
      <defs>
       <path d="M 12.40625 8.296875 
L 28.515625 8.296875 
L 28.515625 63.921875 
L 10.984375 60.40625 
L 10.984375 69.390625 
L 28.421875 72.90625 
L 38.28125 72.90625 
L 38.28125 8.296875 
L 54.390625 8.296875 
L 54.390625 0 
L 12.40625 0 
z
" id="DejaVuSans-31"/>
      </defs>
      <g transform="translate(370.271492 392.598437)scale(0.1 -0.1)">
       <use xlink:href="#DejaVuSans-31"/>
       <use x="63.623047" xlink:href="#DejaVuSans-30"/>
      </g>
     </g>
    </g>
    <g id="xtick_4">
     <g id="line2d_7">
      <path clip-path="url(#pb3fdf71f6a)" d="M 508.966008 378 
L 508.966008 51.84 
" style="fill:none;stroke:#b0b0b0;stroke-linecap:square;stroke-width:0.8;"/>
     </g>
     <g id="line2d_8">
      <g>
       <use style="stroke:#000000;stroke-width:0.8;" x="508.966008" xlink:href="#mc3029ed8b5" y="378"/>
      </g>
     </g>
     <g id="text_4">
      <!-- 15 -->
      <g transform="translate(502.603508 392.598437)scale(0.1 -0.1)">
       <use xlink:href="#DejaVuSans-31"/>
       <use x="63.623047" xlink:href="#DejaVuSans-35"/>
      </g>
     </g>
    </g>
    <g id="xtick_5">
     <g id="line2d_9">
      <path clip-path="url(#pb3fdf71f6a)" d="M 641.298024 378 
L 641.298024 51.84 
" style="fill:none;stroke:#b0b0b0;stroke-linecap:square;stroke-width:0.8;"/>
     </g>
     <g id="line2d_10">
      <g>
       <use style="stroke:#000000;stroke-width:0.8;" x="641.298024" xlink:href="#mc3029ed8b5" y="378"/>
      </g>
     </g>
     <g id="text_5">
      <!-- 20 -->
      <defs>
       <path d="M 19.1875 8.296875 
L 53.609375 8.296875 
L 53.609375 0 
L 7.328125 0 
L 7.328125 8.296875 
Q 12.9375 14.109375 22.625 23.890625 
Q 32.328125 33.6875 34.8125 36.53125 
Q 39.546875 41.84375 41.421875 45.53125 
Q 43.3125 49.21875 43.3125 52.78125 
Q 43.3125 58.59375 39.234375 62.25 
Q 35.15625 65.921875 28.609375 65.921875 
Q 23.96875 65.921875 18.8125 64.3125 
Q 13.671875 62.703125 7.8125 59.421875 
L 7.8125 69.390625 
Q 13.765625 71.78125 18.9375 73 
Q 24.125 74.21875 28.421875 74.21875 
Q 39.75 74.21875 46.484375 68.546875 
Q 53.21875 62.890625 53.21875 53.421875 
Q 53.21875 48.921875 51.53125 44.890625 
Q 49.859375 40.875 45.40625 35.40625 
Q 44.1875 33.984375 37.640625 27.21875 
Q 31.109375 20.453125 19.1875 8.296875 
" id="DejaVuSans-32"/>
      </defs>
      <g transform="translate(634.935524 392.598437)scale(0.1 -0.1)">
       <use xlink:href="#DejaVuSans-32"/>
       <use x="63.623047" xlink:href="#DejaVuSans-30"/>
      </g>
     </g>
    </g>
    <g id="xtick_6">
     <g id="line2d_11">
      <path clip-path="url(#pb3fdf71f6a)" d="M 773.63004 378 
L 773.63004 51.84 
" style="fill:none;stroke:#b0b0b0;stroke-linecap:square;stroke-width:0.8;"/>
     </g>
     <g id="line2d_12">
      <g>
       <use style="stroke:#000000;stroke-width:0.8;" x="773.63004" xlink:href="#mc3029ed8b5" y="378"/>
      </g>
     </g>
     <g id="text_6">
      <!-- 25 -->
      <g transform="translate(767.26754 392.598437)scale(0.1 -0.1)">
       <use xlink:href="#DejaVuSans-32"/>
       <use x="63.623047" xlink:href="#DejaVuSans-35"/>
      </g>
     </g>
    </g>
    <g id="text_7">
     <!-- Epoch number -->
     <defs>
      <path d="M 9.8125 72.90625 
L 55.90625 72.90625 
L 55.90625 64.59375 
L 19.671875 64.59375 
L 19.671875 43.015625 
L 54.390625 43.015625 
L 54.390625 34.71875 
L 19.671875 34.71875 
L 19.671875 8.296875 
L 56.78125 8.296875 
L 56.78125 0 
L 9.8125 0 
z
" id="DejaVuSans-45"/>
      <path d="M 18.109375 8.203125 
L 18.109375 -20.796875 
L 9.078125 -20.796875 
L 9.078125 54.6875 
L 18.109375 54.6875 
L 18.109375 46.390625 
Q 20.953125 51.265625 25.265625 53.625 
Q 29.59375 56 35.59375 56 
Q 45.5625 56 51.78125 48.09375 
Q 58.015625 40.1875 58.015625 27.296875 
Q 58.015625 14.40625 51.78125 6.484375 
Q 45.5625 -1.421875 35.59375 -1.421875 
Q 29.59375 -1.421875 25.265625 0.953125 
Q 20.953125 3.328125 18.109375 8.203125 
M 48.6875 27.296875 
Q 48.6875 37.203125 44.609375 42.84375 
Q 40.53125 48.484375 33.40625 48.484375 
Q 26.265625 48.484375 22.1875 42.84375 
Q 18.109375 37.203125 18.109375 27.296875 
Q 18.109375 17.390625 22.1875 11.75 
Q 26.265625 6.109375 33.40625 6.109375 
Q 40.53125 6.109375 44.609375 11.75 
Q 48.6875 17.390625 48.6875 27.296875 
" id="DejaVuSans-70"/>
      <path d="M 30.609375 48.390625 
Q 23.390625 48.390625 19.1875 42.75 
Q 14.984375 37.109375 14.984375 27.296875 
Q 14.984375 17.484375 19.15625 11.84375 
Q 23.34375 6.203125 30.609375 6.203125 
Q 37.796875 6.203125 41.984375 11.859375 
Q 46.1875 17.53125 46.1875 27.296875 
Q 46.1875 37.015625 41.984375 42.703125 
Q 37.796875 48.390625 30.609375 48.390625 
M 30.609375 56 
Q 42.328125 56 49.015625 48.375 
Q 55.71875 40.765625 55.71875 27.296875 
Q 55.71875 13.875 49.015625 6.21875 
Q 42.328125 -1.421875 30.609375 -1.421875 
Q 18.84375 -1.421875 12.171875 6.21875 
Q 5.515625 13.875 5.515625 27.296875 
Q 5.515625 40.765625 12.171875 48.375 
Q 18.84375 56 30.609375 56 
" id="DejaVuSans-6f"/>
      <path d="M 48.78125 52.59375 
L 48.78125 44.1875 
Q 44.96875 46.296875 41.140625 47.34375 
Q 37.3125 48.390625 33.40625 48.390625 
Q 24.65625 48.390625 19.8125 42.84375 
Q 14.984375 37.3125 14.984375 27.296875 
Q 14.984375 17.28125 19.8125 11.734375 
Q 24.65625 6.203125 33.40625 6.203125 
Q 37.3125 6.203125 41.140625 7.25 
Q 44.96875 8.296875 48.78125 10.40625 
L 48.78125 2.09375 
Q 45.015625 0.34375 40.984375 -0.53125 
Q 36.96875 -1.421875 32.421875 -1.421875 
Q 20.0625 -1.421875 12.78125 6.34375 
Q 5.515625 14.109375 5.515625 27.296875 
Q 5.515625 40.671875 12.859375 48.328125 
Q 20.21875 56 33.015625 56 
Q 37.15625 56 41.109375 55.140625 
Q 45.0625 54.296875 48.78125 52.59375 
" id="DejaVuSans-63"/>
      <path d="M 54.890625 33.015625 
L 54.890625 0 
L 45.90625 0 
L 45.90625 32.71875 
Q 45.90625 40.484375 42.875 44.328125 
Q 39.84375 48.1875 33.796875 48.1875 
Q 26.515625 48.1875 22.3125 43.546875 
Q 18.109375 38.921875 18.109375 30.90625 
L 18.109375 0 
L 9.078125 0 
L 9.078125 75.984375 
L 18.109375 75.984375 
L 18.109375 46.1875 
Q 21.34375 51.125 25.703125 53.5625 
Q 30.078125 56 35.796875 56 
Q 45.21875 56 50.046875 50.171875 
Q 54.890625 44.34375 54.890625 33.015625 
" id="DejaVuSans-68"/>
      <path id="DejaVuSans-20"/>
      <path d="M 54.890625 33.015625 
L 54.890625 0 
L 45.90625 0 
L 45.90625 32.71875 
Q 45.90625 40.484375 42.875 44.328125 
Q 39.84375 48.1875 33.796875 48.1875 
Q 26.515625 48.1875 22.3125 43.546875 
Q 18.109375 38.921875 18.109375 30.90625 
L 18.109375 0 
L 9.078125 0 
L 9.078125 54.6875 
L 18.109375 54.6875 
L 18.109375 46.1875 
Q 21.34375 51.125 25.703125 53.5625 
Q 30.078125 56 35.796875 56 
Q 45.21875 56 50.046875 50.171875 
Q 54.890625 44.34375 54.890625 33.015625 
" id="DejaVuSans-6e"/>
      <path d="M 8.5 21.578125 
L 8.5 54.6875 
L 17.484375 54.6875 
L 17.484375 21.921875 
Q 17.484375 14.15625 20.5 10.265625 
Q 23.53125 6.390625 29.59375 6.390625 
Q 36.859375 6.390625 41.078125 11.03125 
Q 45.3125 15.671875 45.3125 23.6875 
L 45.3125 54.6875 
L 54.296875 54.6875 
L 54.296875 0 
L 45.3125 0 
L 45.3125 8.40625 
Q 42.046875 3.421875 37.71875 1 
Q 33.40625 -1.421875 27.6875 -1.421875 
Q 18.265625 -1.421875 13.375 4.4375 
Q 8.5 10.296875 8.5 21.578125 
M 31.109375 56 
z
" id="DejaVuSans-75"/>
      <path d="M 52 44.1875 
Q 55.375 50.25 60.0625 53.125 
Q 64.75 56 71.09375 56 
Q 79.640625 56 84.28125 50.015625 
Q 88.921875 44.046875 88.921875 33.015625 
L 88.921875 0 
L 79.890625 0 
L 79.890625 32.71875 
Q 79.890625 40.578125 77.09375 44.375 
Q 74.3125 48.1875 68.609375 48.1875 
Q 61.625 48.1875 57.5625 43.546875 
Q 53.515625 38.921875 53.515625 30.90625 
L 53.515625 0 
L 44.484375 0 
L 44.484375 32.71875 
Q 44.484375 40.625 41.703125 44.40625 
Q 38.921875 48.1875 33.109375 48.1875 
Q 26.21875 48.1875 22.15625 43.53125 
Q 18.109375 38.875 18.109375 30.90625 
L 18.109375 0 
L 9.078125 0 
L 9.078125 54.6875 
L 18.109375 54.6875 
L 18.109375 46.1875 
Q 21.1875 51.21875 25.484375 53.609375 
Q 29.78125 56 35.6875 56 
Q 41.65625 56 45.828125 52.96875 
Q 50 49.953125 52 44.1875 
" id="DejaVuSans-6d"/>
      <path d="M 48.6875 27.296875 
Q 48.6875 37.203125 44.609375 42.84375 
Q 40.53125 48.484375 33.40625 48.484375 
Q 26.265625 48.484375 22.1875 42.84375 
Q 18.109375 37.203125 18.109375 27.296875 
Q 18.109375 17.390625 22.1875 11.75 
Q 26.265625 6.109375 33.40625 6.109375 
Q 40.53125 6.109375 44.609375 11.75 
Q 48.6875 17.390625 48.6875 27.296875 
M 18.109375 46.390625 
Q 20.953125 51.265625 25.265625 53.625 
Q 29.59375 56 35.59375 56 
Q 45.5625 56 51.78125 48.09375 
Q 58.015625 40.1875 58.015625 27.296875 
Q 58.015625 14.40625 51.78125 6.484375 
Q 45.5625 -1.421875 35.59375 -1.421875 
Q 29.59375 -1.421875 25.265625 0.953125 
Q 20.953125 3.328125 18.109375 8.203125 
L 18.109375 0 
L 9.078125 0 
L 9.078125 75.984375 
L 18.109375 75.984375 
z
" id="DejaVuSans-62"/>
      <path d="M 56.203125 29.59375 
L 56.203125 25.203125 
L 14.890625 25.203125 
Q 15.484375 15.921875 20.484375 11.0625 
Q 25.484375 6.203125 34.421875 6.203125 
Q 39.59375 6.203125 44.453125 7.46875 
Q 49.3125 8.734375 54.109375 11.28125 
L 54.109375 2.78125 
Q 49.265625 0.734375 44.1875 -0.34375 
Q 39.109375 -1.421875 33.890625 -1.421875 
Q 20.796875 -1.421875 13.15625 6.1875 
Q 5.515625 13.8125 5.515625 26.8125 
Q 5.515625 40.234375 12.765625 48.109375 
Q 20.015625 56 32.328125 56 
Q 43.359375 56 49.78125 48.890625 
Q 56.203125 41.796875 56.203125 29.59375 
M 47.21875 32.234375 
Q 47.125 39.59375 43.09375 43.984375 
Q 39.0625 48.390625 32.421875 48.390625 
Q 24.90625 48.390625 20.390625 44.140625 
Q 15.875 39.890625 15.1875 32.171875 
z
" id="DejaVuSans-65"/>
      <path d="M 41.109375 46.296875 
Q 39.59375 47.171875 37.8125 47.578125 
Q 36.03125 48 33.890625 48 
Q 26.265625 48 22.1875 43.046875 
Q 18.109375 38.09375 18.109375 28.8125 
L 18.109375 0 
L 9.078125 0 
L 9.078125 54.6875 
L 18.109375 54.6875 
L 18.109375 46.1875 
Q 20.953125 51.171875 25.484375 53.578125 
Q 30.03125 56 36.53125 56 
Q 37.453125 56 38.578125 55.875 
Q 39.703125 55.765625 41.0625 55.515625 
z
" id="DejaVuSans-72"/>
     </defs>
     <g transform="translate(406.385938 406.276563)scale(0.1 -0.1)">
      <use xlink:href="#DejaVuSans-45"/>
      <use x="63.183594" xlink:href="#DejaVuSans-70"/>
      <use x="126.660156" xlink:href="#DejaVuSans-6f"/>
      <use x="187.841797" xlink:href="#DejaVuSans-63"/>
      <use x="242.822266" xlink:href="#DejaVuSans-68"/>
      <use x="306.201172" xlink:href="#DejaVuSans-20"/>
      <use x="337.988281" xlink:href="#DejaVuSans-6e"/>
      <use x="401.367188" xlink:href="#DejaVuSans-75"/>
      <use x="464.746094" xlink:href="#DejaVuSans-6d"/>
      <use x="562.158203" xlink:href="#DejaVuSans-62"/>
      <use x="625.634766" xlink:href="#DejaVuSans-65"/>
      <use x="687.158203" xlink:href="#DejaVuSans-72"/>
     </g>
    </g>
   </g>
   <g id="matplotlib.axis_2">
    <g id="ytick_1">
     <g id="line2d_13">
      <path clip-path="url(#pb3fdf71f6a)" d="M 108 331.314428 
L 777.6 331.314428 
" style="fill:none;stroke:#b0b0b0;stroke-linecap:square;stroke-width:0.8;"/>
     </g>
     <g id="line2d_14">
      <defs>
       <path d="M 0 0 
L -3.5 0 
" id="m9b8aeee0ad" style="stroke:#000000;stroke-width:0.8;"/>
      </defs>
      <g>
       <use style="stroke:#000000;stroke-width:0.8;" x="108" xlink:href="#m9b8aeee0ad" y="331.314428"/>
      </g>
     </g>
     <g id="text_8">
      <!-- 0.3 -->
      <defs>
       <path d="M 10.6875 12.40625 
L 21 12.40625 
L 21 0 
L 10.6875 0 
z
" id="DejaVuSans-2e"/>
       <path d="M 40.578125 39.3125 
Q 47.65625 37.796875 51.625 33 
Q 55.609375 28.21875 55.609375 21.1875 
Q 55.609375 10.40625 48.1875 4.484375 
Q 40.765625 -1.421875 27.09375 -1.421875 
Q 22.515625 -1.421875 17.65625 -0.515625 
Q 12.796875 0.390625 7.625 2.203125 
L 7.625 11.71875 
Q 11.71875 9.328125 16.59375 8.109375 
Q 21.484375 6.890625 26.8125 6.890625 
Q 36.078125 6.890625 40.9375 10.546875 
Q 45.796875 14.203125 45.796875 21.1875 
Q 45.796875 27.640625 41.28125 31.265625 
Q 36.765625 34.90625 28.71875 34.90625 
L 20.21875 34.90625 
L 20.21875 43.015625 
L 29.109375 43.015625 
Q 36.375 43.015625 40.234375 45.921875 
Q 44.09375 48.828125 44.09375 54.296875 
Q 44.09375 59.90625 40.109375 62.90625 
Q 36.140625 65.921875 28.71875 65.921875 
Q 24.65625 65.921875 20.015625 65.03125 
Q 15.375 64.15625 9.8125 62.3125 
L 9.8125 71.09375 
Q 15.4375 72.65625 20.34375 73.4375 
Q 25.25 74.21875 29.59375 74.21875 
Q 40.828125 74.21875 47.359375 69.109375 
Q 53.90625 64.015625 53.90625 55.328125 
Q 53.90625 49.265625 50.4375 45.09375 
Q 46.96875 40.921875 40.578125 39.3125 
" id="DejaVuSans-33"/>
      </defs>
      <g transform="translate(85.096875 335.113647)scale(0.1 -0.1)">
       <use xlink:href="#DejaVuSans-30"/>
       <use x="63.623047" xlink:href="#DejaVuSans-2e"/>
       <use x="95.410156" xlink:href="#DejaVuSans-33"/>
      </g>
     </g>
    </g>
    <g id="ytick_2">
     <g id="line2d_15">
      <path clip-path="url(#pb3fdf71f6a)" d="M 108 261.292207 
L 777.6 261.292207 
" style="fill:none;stroke:#b0b0b0;stroke-linecap:square;stroke-width:0.8;"/>
     </g>
     <g id="line2d_16">
      <g>
       <use style="stroke:#000000;stroke-width:0.8;" x="108" xlink:href="#m9b8aeee0ad" y="261.292207"/>
      </g>
     </g>
     <g id="text_9">
      <!-- 0.4 -->
      <defs>
       <path d="M 37.796875 64.3125 
L 12.890625 25.390625 
L 37.796875 25.390625 
z
M 35.203125 72.90625 
L 47.609375 72.90625 
L 47.609375 25.390625 
L 58.015625 25.390625 
L 58.015625 17.1875 
L 47.609375 17.1875 
L 47.609375 0 
L 37.796875 0 
L 37.796875 17.1875 
L 4.890625 17.1875 
L 4.890625 26.703125 
z
" id="DejaVuSans-34"/>
      </defs>
      <g transform="translate(85.096875 265.091426)scale(0.1 -0.1)">
       <use xlink:href="#DejaVuSans-30"/>
       <use x="63.623047" xlink:href="#DejaVuSans-2e"/>
       <use x="95.410156" xlink:href="#DejaVuSans-34"/>
      </g>
     </g>
    </g>
    <g id="ytick_3">
     <g id="line2d_17">
      <path clip-path="url(#pb3fdf71f6a)" d="M 108 191.269986 
L 777.6 191.269986 
" style="fill:none;stroke:#b0b0b0;stroke-linecap:square;stroke-width:0.8;"/>
     </g>
     <g id="line2d_18">
      <g>
       <use style="stroke:#000000;stroke-width:0.8;" x="108" xlink:href="#m9b8aeee0ad" y="191.269986"/>
      </g>
     </g>
     <g id="text_10">
      <!-- 0.5 -->
      <g transform="translate(85.096875 195.069205)scale(0.1 -0.1)">
       <use xlink:href="#DejaVuSans-30"/>
       <use x="63.623047" xlink:href="#DejaVuSans-2e"/>
       <use x="95.410156" xlink:href="#DejaVuSans-35"/>
      </g>
     </g>
    </g>
    <g id="ytick_4">
     <g id="line2d_19">
      <path clip-path="url(#pb3fdf71f6a)" d="M 108 121.247765 
L 777.6 121.247765 
" style="fill:none;stroke:#b0b0b0;stroke-linecap:square;stroke-width:0.8;"/>
     </g>
     <g id="line2d_20">
      <g>
       <use style="stroke:#000000;stroke-width:0.8;" x="108" xlink:href="#m9b8aeee0ad" y="121.247765"/>
      </g>
     </g>
     <g id="text_11">
      <!-- 0.6 -->
      <defs>
       <path d="M 33.015625 40.375 
Q 26.375 40.375 22.484375 35.828125 
Q 18.609375 31.296875 18.609375 23.390625 
Q 18.609375 15.53125 22.484375 10.953125 
Q 26.375 6.390625 33.015625 6.390625 
Q 39.65625 6.390625 43.53125 10.953125 
Q 47.40625 15.53125 47.40625 23.390625 
Q 47.40625 31.296875 43.53125 35.828125 
Q 39.65625 40.375 33.015625 40.375 
M 52.59375 71.296875 
L 52.59375 62.3125 
Q 48.875 64.0625 45.09375 64.984375 
Q 41.3125 65.921875 37.59375 65.921875 
Q 27.828125 65.921875 22.671875 59.328125 
Q 17.53125 52.734375 16.796875 39.40625 
Q 19.671875 43.65625 24.015625 45.921875 
Q 28.375 48.1875 33.59375 48.1875 
Q 44.578125 48.1875 50.953125 41.515625 
Q 57.328125 34.859375 57.328125 23.390625 
Q 57.328125 12.15625 50.6875 5.359375 
Q 44.046875 -1.421875 33.015625 -1.421875 
Q 20.359375 -1.421875 13.671875 8.265625 
Q 6.984375 17.96875 6.984375 36.375 
Q 6.984375 53.65625 15.1875 63.9375 
Q 23.390625 74.21875 37.203125 74.21875 
Q 40.921875 74.21875 44.703125 73.484375 
Q 48.484375 72.75 52.59375 71.296875 
" id="DejaVuSans-36"/>
      </defs>
      <g transform="translate(85.096875 125.046984)scale(0.1 -0.1)">
       <use xlink:href="#DejaVuSans-30"/>
       <use x="63.623047" xlink:href="#DejaVuSans-2e"/>
       <use x="95.410156" xlink:href="#DejaVuSans-36"/>
      </g>
     </g>
    </g>
    <g id="text_12">
     <!-- Training Accuracy -->
     <defs>
      <path d="M -0.296875 72.90625 
L 61.375 72.90625 
L 61.375 64.59375 
L 35.5 64.59375 
L 35.5 0 
L 25.59375 0 
L 25.59375 64.59375 
L -0.296875 64.59375 
z
" id="DejaVuSans-54"/>
      <path d="M 34.28125 27.484375 
Q 23.390625 27.484375 19.1875 25 
Q 14.984375 22.515625 14.984375 16.5 
Q 14.984375 11.71875 18.140625 8.90625 
Q 21.296875 6.109375 26.703125 6.109375 
Q 34.1875 6.109375 38.703125 11.40625 
Q 43.21875 16.703125 43.21875 25.484375 
L 43.21875 27.484375 
z
M 52.203125 31.203125 
L 52.203125 0 
L 43.21875 0 
L 43.21875 8.296875 
Q 40.140625 3.328125 35.546875 0.953125 
Q 30.953125 -1.421875 24.3125 -1.421875 
Q 15.921875 -1.421875 10.953125 3.296875 
Q 6 8.015625 6 15.921875 
Q 6 25.140625 12.171875 29.828125 
Q 18.359375 34.515625 30.609375 34.515625 
L 43.21875 34.515625 
L 43.21875 35.40625 
Q 43.21875 41.609375 39.140625 45 
Q 35.0625 48.390625 27.6875 48.390625 
Q 23 48.390625 18.546875 47.265625 
Q 14.109375 46.140625 10.015625 43.890625 
L 10.015625 52.203125 
Q 14.9375 54.109375 19.578125 55.046875 
Q 24.21875 56 28.609375 56 
Q 40.484375 56 46.34375 49.84375 
Q 52.203125 43.703125 52.203125 31.203125 
" id="DejaVuSans-61"/>
      <path d="M 9.421875 54.6875 
L 18.40625 54.6875 
L 18.40625 0 
L 9.421875 0 
z
M 9.421875 75.984375 
L 18.40625 75.984375 
L 18.40625 64.59375 
L 9.421875 64.59375 
z
" id="DejaVuSans-69"/>
      <path d="M 45.40625 27.984375 
Q 45.40625 37.75 41.375 43.109375 
Q 37.359375 48.484375 30.078125 48.484375 
Q 22.859375 48.484375 18.828125 43.109375 
Q 14.796875 37.75 14.796875 27.984375 
Q 14.796875 18.265625 18.828125 12.890625 
Q 22.859375 7.515625 30.078125 7.515625 
Q 37.359375 7.515625 41.375 12.890625 
Q 45.40625 18.265625 45.40625 27.984375 
M 54.390625 6.78125 
Q 54.390625 -7.171875 48.1875 -13.984375 
Q 42 -20.796875 29.203125 -20.796875 
Q 24.46875 -20.796875 20.265625 -20.09375 
Q 16.0625 -19.390625 12.109375 -17.921875 
L 12.109375 -9.1875 
Q 16.0625 -11.328125 19.921875 -12.34375 
Q 23.78125 -13.375 27.78125 -13.375 
Q 36.625 -13.375 41.015625 -8.765625 
Q 45.40625 -4.15625 45.40625 5.171875 
L 45.40625 9.625 
Q 42.625 4.78125 38.28125 2.390625 
Q 33.9375 0 27.875 0 
Q 17.828125 0 11.671875 7.65625 
Q 5.515625 15.328125 5.515625 27.984375 
Q 5.515625 40.671875 11.671875 48.328125 
Q 17.828125 56 27.875 56 
Q 33.9375 56 38.28125 53.609375 
Q 42.625 51.21875 45.40625 46.390625 
L 45.40625 54.6875 
L 54.390625 54.6875 
z
" id="DejaVuSans-67"/>
      <path d="M 34.1875 63.1875 
L 20.796875 26.90625 
L 47.609375 26.90625 
z
M 28.609375 72.90625 
L 39.796875 72.90625 
L 67.578125 0 
L 57.328125 0 
L 50.6875 18.703125 
L 17.828125 18.703125 
L 11.1875 0 
L 0.78125 0 
z
" id="DejaVuSans-41"/>
      <path d="M 32.171875 -5.078125 
Q 28.375 -14.84375 24.75 -17.8125 
Q 21.140625 -20.796875 15.09375 -20.796875 
L 7.90625 -20.796875 
L 7.90625 -13.28125 
L 13.1875 -13.28125 
Q 16.890625 -13.28125 18.9375 -11.515625 
Q 21 -9.765625 23.484375 -3.21875 
L 25.09375 0.875 
L 2.984375 54.6875 
L 12.5 54.6875 
L 29.59375 11.921875 
L 46.6875 54.6875 
L 56.203125 54.6875 
z
" id="DejaVuSans-79"/>
     </defs>
     <g transform="translate(79.017187 259.87625)rotate(-90)scale(0.1 -0.1)">
      <use xlink:href="#DejaVuSans-54"/>
      <use x="60.865234" xlink:href="#DejaVuSans-72"/>
      <use x="101.978516" xlink:href="#DejaVuSans-61"/>
      <use x="163.257812" xlink:href="#DejaVuSans-69"/>
      <use x="191.041016" xlink:href="#DejaVuSans-6e"/>
      <use x="254.419922" xlink:href="#DejaVuSans-69"/>
      <use x="282.203125" xlink:href="#DejaVuSans-6e"/>
      <use x="345.582031" xlink:href="#DejaVuSans-67"/>
      <use x="409.058594" xlink:href="#DejaVuSans-20"/>
      <use x="440.845703" xlink:href="#DejaVuSans-41"/>
      <use x="509.238281" xlink:href="#DejaVuSans-63"/>
      <use x="564.21875" xlink:href="#DejaVuSans-63"/>
      <use x="619.199219" xlink:href="#DejaVuSans-75"/>
      <use x="682.578125" xlink:href="#DejaVuSans-72"/>
      <use x="723.691406" xlink:href="#DejaVuSans-61"/>
      <use x="784.970703" xlink:href="#DejaVuSans-63"/>
      <use x="839.951172" xlink:href="#DejaVuSans-79"/>
     </g>
    </g>
   </g>
   <g id="line2d_21">
    <path clip-path="url(#pb3fdf71f6a)" d="M 138.436364 177.668181 
L 164.902767 162.946009 
L 191.36917 153.843121 
L 217.835573 140.591416 
L 244.301976 134.411955 
L 270.768379 128.197482 
L 297.234783 121.475349 
L 323.701186 117.921722 
L 350.167589 113.737893 
L 376.633992 109.50155 
L 403.100395 104.004805 
L 429.566798 101.431488 
L 456.033202 99.383338 
L 482.499605 98.105433 
L 508.966008 96.950066 
L 535.432411 94.954433 
L 561.898814 91.663389 
L 588.365217 90.543034 
L 614.831621 88.442366 
L 641.298024 88.057243 
L 667.764427 86.131633 
L 694.23083 84.521121 
L 720.697233 84.065977 
L 747.163636 81.895289 
" style="fill:none;stroke:#d3d3d3;stroke-linecap:square;stroke-width:1.5;"/>
   </g>
   <g id="line2d_22">
    <path clip-path="url(#pb3fdf71f6a)" d="M 138.436364 164.889126 
L 164.902767 147.943749 
L 191.36917 136.407588 
L 217.835573 126.499443 
L 244.301976 121.387821 
L 270.768379 117.309027 
L 297.234783 114.298071 
L 323.701186 108.766316 
L 350.167589 107.243333 
L 376.633992 107.103288 
L 403.100395 103.059505 
L 429.566798 101.869127 
L 456.033202 101.834116 
L 482.499605 98.875677 
L 508.966008 96.407393 
L 535.432411 96.354877 
L 561.898814 94.919422 
L 588.365217 96.232338 
L 614.831621 92.713721 
L 641.298024 92.20606 
L 667.764427 92.99381 
L 694.23083 90.805616 
L 720.697233 90.805617 
L 747.163636 90.473011 
" style="fill:none;stroke:#d3d3d3;stroke-linecap:square;stroke-width:1.5;"/>
   </g>
   <g id="line2d_23">
    <path clip-path="url(#pb3fdf71f6a)" d="M 138.436364 179.016109 
L 164.902767 164.609038 
L 191.36917 151.987533 
L 217.835573 142.341971 
L 244.301976 130.070577 
L 270.768379 125.361582 
L 297.234783 117.431565 
L 323.701186 110.9195 
L 350.167589 106.105472 
L 376.633992 103.269571 
L 403.100395 100.923827 
L 429.566798 96.967572 
L 456.033202 93.553989 
L 482.499605 90.490516 
L 508.966008 85.781521 
L 535.432411 85.27386 
L 561.898814 84.48611 
L 588.365217 83.663349 
L 614.831621 78.30665 
L 641.298024 78.219122 
L 667.764427 77.256316 
L 694.23083 75.470749 
L 720.697233 73.352577 
L 747.163636 74.227855 
" style="fill:none;stroke:#1f77b4;stroke-linecap:square;stroke-width:1.5;"/>
   </g>
   <g id="line2d_24">
    <path clip-path="url(#pb3fdf71f6a)" d="M 138.436364 161.493049 
L 164.902767 148.048782 
L 191.36917 137.230349 
L 217.835573 127.287194 
L 244.301976 119.479716 
L 270.768379 112.249922 
L 297.234783 105.877899 
L 323.701186 98.9457 
L 350.167589 98.052916 
L 376.633992 95.497104 
L 403.100395 91.313277 
L 429.566798 87.041921 
L 456.033202 87.146954 
L 482.499605 83.225711 
L 508.966008 79.689588 
L 535.432411 78.866827 
L 561.898814 76.993733 
L 588.365217 75.50576 
L 614.831621 73.527633 
L 641.298024 73.002466 
L 667.764427 71.444472 
L 694.23083 67.978372 
L 720.697233 68.836143 
L 747.163636 66.665455 
" style="fill:none;stroke:#d3d3d3;stroke-linecap:square;stroke-width:1.5;"/>
   </g>
   <g id="line2d_25">
    <path clip-path="url(#pb3fdf71f6a)" d="M 138.436364 224.320485 
L 164.902767 212.906863 
L 191.36917 200.075293 
L 217.835573 189.939576 
L 244.301976 183.497531 
L 270.768379 176.722881 
L 297.234783 170.070771 
L 323.701186 163.611221 
L 350.167589 158.254521 
L 376.633992 152.897821 
L 403.100395 149.256665 
L 429.566798 144.617693 
L 456.033202 142.009366 
L 482.499605 139.94371 
L 508.966008 134.201887 
L 535.432411 129.58042 
L 561.898814 126.867061 
L 588.365217 125.13401 
L 614.831621 121.090226 
L 641.298024 117.781676 
L 667.764427 116.643816 
L 694.23083 114.350587 
L 720.697233 112.284932 
L 747.163636 108.363689 
" style="fill:none;stroke:#d3d3d3;stroke-linecap:square;stroke-width:1.5;"/>
   </g>
   <g id="line2d_26">
    <path clip-path="url(#pb3fdf71f6a)" d="M 138.436364 247.165234 
L 164.902767 232.670634 
L 191.36917 222.972558 
L 217.835573 213.151941 
L 244.301976 203.891503 
L 270.768379 195.086208 
L 297.234783 188.451604 
L 323.701186 179.348715 
L 350.167589 176.37277 
L 376.633992 168.14516 
L 403.100395 163.173583 
L 429.566798 160.845343 
L 456.033202 154.455814 
L 482.499605 147.208516 
L 508.966008 142.394487 
L 535.432411 137.843045 
L 561.898814 134.867099 
L 588.365217 130.875832 
L 614.831621 124.538822 
L 641.298024 122.770761 
L 667.764427 118.271832 
L 694.23083 115.821055 
L 720.697233 112.109877 
L 747.163636 108.818831 
" style="fill:none;stroke:#d3d3d3;stroke-linecap:square;stroke-width:1.5;"/>
   </g>
   <g id="line2d_27">
    <path clip-path="url(#pb3fdf71f6a)" d="M 138.436364 195.873959 
L 164.902767 182.919848 
L 191.36917 170.298343 
L 217.835573 156.766548 
L 244.301976 151.794971 
L 270.768379 141.974354 
L 297.234783 135.479794 
L 323.701186 130.525722 
L 350.167589 126.744522 
L 376.633992 121.282788 
L 403.100395 118.306844 
L 429.566798 111.74226 
L 456.033202 110.446849 
L 482.499605 106.420572 
L 508.966008 104.670016 
L 535.432411 103.024493 
L 561.898814 100.363648 
L 588.365217 97.56276 
L 614.831621 94.744366 
L 641.298024 92.0135 
L 667.764427 91.453322 
L 694.23083 88.267311 
L 720.697233 86.306689 
L 747.163636 88.144771 
" style="fill:none;stroke:#ff7f0e;stroke-linecap:square;stroke-width:1.5;"/>
   </g>
   <g id="line2d_28">
    <path clip-path="url(#pb3fdf71f6a)" d="M 138.436364 363.174545 
L 164.902767 332.277241 
L 191.36917 318.85048 
L 217.835573 310.517836 
L 244.301976 304.653475 
L 270.768379 299.856953 
L 297.234783 297.896332 
L 323.701186 295.795665 
L 350.167589 292.732193 
L 376.633992 290.281416 
L 403.100395 289.546182 
L 429.566798 287.865649 
L 456.033202 286.080082 
L 482.499605 284.382043 
L 508.966008 283.17416 
L 535.432411 282.421421 
L 561.898814 280.705877 
L 588.365217 277.799955 
L 614.831621 276.522049 
L 641.298024 274.246327 
L 667.764427 273.686149 
L 694.23083 271.287888 
L 720.697233 269.782411 
L 747.163636 268.416977 
" style="fill:none;stroke:#d3d3d3;stroke-linecap:square;stroke-width:1.5;"/>
   </g>
   <g id="line2d_29">
    <path clip-path="url(#pb3fdf71f6a)" d="M 138.436364 244.119268 
L 164.902767 232.775668 
L 191.36917 222.219818 
L 217.835573 211.593946 
L 244.301976 201.545758 
L 270.768379 194.175921 
L 297.234783 184.950492 
L 323.701186 180.644126 
L 350.167589 171.103598 
L 376.633992 163.576211 
L 403.100395 159.532426 
L 429.566798 152.267621 
L 456.033202 147.996267 
L 482.499605 140.976539 
L 508.966008 137.983087 
L 535.432411 132.293783 
L 561.898814 129.930533 
L 588.365217 123.5235 
L 614.831621 120.705105 
L 641.298024 116.486266 
L 667.764427 112.039854 
L 694.23083 109.921683 
L 720.697233 105.702843 
L 747.163636 102.989482 
" style="fill:none;stroke:#d3d3d3;stroke-linecap:square;stroke-width:1.5;"/>
   </g>
   <g id="line2d_30">
    <path clip-path="url(#pb3fdf71f6a)" d="M 138.436364 176.96796 
L 164.902767 161.195454 
L 191.36917 148.293859 
L 217.835573 134.604516 
L 244.301976 129.685453 
L 270.768379 120.214949 
L 297.234783 116.433749 
L 323.701186 110.096739 
L 350.167589 105.440261 
L 376.633992 102.201734 
L 403.100395 97.75532 
L 429.566798 95.969755 
L 456.033202 91.715904 
L 482.499605 90.438 
L 508.966008 86.026599 
L 535.432411 85.781521 
L 561.898814 84.48611 
L 588.365217 82.40295 
L 614.831621 79.759611 
L 641.298024 80.897473 
L 667.764427 75.330705 
L 694.23083 75.575784 
L 720.697233 73.807722 
L 747.163636 71.689549 
" style="fill:none;stroke:#d3d3d3;stroke-linecap:square;stroke-width:1.5;"/>
   </g>
   <g id="line2d_31">
    <path clip-path="url(#pb3fdf71f6a)" d="M 138.436364 175.514999 
L 164.902767 163.41866 
L 191.36917 148.626467 
L 217.835573 138.718321 
L 244.301976 132.958994 
L 270.768379 122.368131 
L 297.234783 117.431566 
L 323.701186 113.405289 
L 350.167589 107.015761 
L 376.633992 106.315539 
L 403.100395 102.13171 
L 429.566798 95.812205 
L 456.033202 93.186372 
L 482.499605 93.256394 
L 508.966008 90.1229 
L 535.432411 88.127266 
L 561.898814 84.941255 
L 588.365217 82.963127 
L 614.831621 83.383261 
L 641.298024 79.006872 
L 667.764427 78.411682 
L 694.23083 76.958722 
L 720.697233 75.348211 
L 747.163636 75.225672 
" style="fill:none;stroke:#2ca02c;stroke-linecap:square;stroke-width:1.5;"/>
   </g>
   <g id="line2d_32">
    <path clip-path="url(#pb3fdf71f6a)" d="M 138.436364 189.046793 
L 164.902767 173.22177 
L 191.36917 159.409887 
L 217.835573 150.306999 
L 244.301976 141.851815 
L 270.768379 133.32661 
L 297.234783 128.337527 
L 323.701186 124.416283 
L 350.167589 116.556287 
L 376.633992 114.333082 
L 403.100395 109.308989 
L 429.566798 106.788188 
L 456.033202 103.794738 
L 482.499605 101.238927 
L 508.966008 96.494921 
L 535.432411 93.273899 
L 561.898814 91.173232 
L 588.365217 89.877823 
L 614.831621 87.917199 
L 641.298024 86.184149 
L 667.764427 82.40295 
L 694.23083 81.755243 
L 720.697233 83.22571 
L 747.163636 78.709278 
" style="fill:none;stroke:#d3d3d3;stroke-linecap:square;stroke-width:1.5;"/>
   </g>
   <g id="line2d_33">
    <path clip-path="url(#pb3fdf71f6a)" d="M 138.436364 175.70756 
L 164.902767 161.615587 
L 191.36917 149.309183 
L 217.835573 136.845228 
L 244.301976 126.797038 
L 270.768379 120.53005 
L 297.234783 115.225865 
L 323.701186 110.814466 
L 350.167589 106.508099 
L 376.633992 102.359283 
L 403.100395 98.490555 
L 429.566798 92.923788 
L 456.033202 92.801249 
L 482.499605 89.317644 
L 508.966008 86.236667 
L 535.432411 84.503617 
L 561.898814 83.400766 
L 588.365217 83.925933 
L 614.831621 78.586738 
L 641.298024 77.956538 
L 667.764427 72.284738 
L 694.23083 73.912755 
L 720.697233 74.840549 
L 747.163636 72.424782 
" style="fill:none;stroke:#d3d3d3;stroke-linecap:square;stroke-width:1.5;"/>
   </g>
   <g id="line2d_34">
    <path clip-path="url(#pb3fdf71f6a)" d="M 138.436364 229.029479 
L 164.902767 215.620224 
L 191.36917 201.913375 
L 217.835573 192.827992 
L 244.301976 182.63976 
L 270.768379 174.272104 
L 297.234783 166.097009 
L 323.701186 158.604633 
L 350.167589 153.860627 
L 376.633992 147.94375 
L 403.100395 143.234755 
L 429.566798 136.197521 
L 456.033202 131.383493 
L 482.499605 129.195299 
L 508.966008 124.958955 
L 535.432411 121.195261 
L 561.898814 117.046445 
L 588.365217 114.7007 
L 614.831621 113.177715 
L 641.298024 105.772866 
L 667.764427 106.525605 
L 694.23083 100.818793 
L 720.697233 99.768461 
L 747.163636 95.829711 
" style="fill:none;stroke:#d62728;stroke-linecap:square;stroke-width:1.5;"/>
   </g>
   <g id="line2d_35">
    <path clip-path="url(#pb3fdf71f6a)" d="M 138.436364 256.810794 
L 164.902767 245.642251 
L 191.36917 236.574373 
L 217.835573 226.176075 
L 244.301976 220.644319 
L 270.768379 212.731808 
L 297.234783 205.782103 
L 323.701186 200.758009 
L 350.167589 197.95712 
L 376.633992 193.213115 
L 403.100395 187.313742 
L 429.566798 183.795126 
L 456.033202 179.33121 
L 482.499605 177.037982 
L 508.966008 172.801638 
L 535.432411 169.720659 
L 561.898814 166.097009 
L 588.365217 163.313626 
L 614.831621 160.61777 
L 641.298024 155.38361 
L 667.764427 154.59586 
L 694.23083 150.306999 
L 720.697233 150.359515 
L 747.163636 146.053149 
" style="fill:none;stroke:#d3d3d3;stroke-linecap:square;stroke-width:1.5;"/>
   </g>
   <g id="line2d_36">
    <path clip-path="url(#pb3fdf71f6a)" d="M 138.436364 249.563495 
L 164.902767 236.416823 
L 191.36917 224.373002 
L 217.835573 215.602719 
L 244.301976 203.173775 
L 270.768379 197.291908 
L 297.234783 191.007414 
L 323.701186 183.112409 
L 350.167589 177.020476 
L 376.633992 169.458076 
L 403.100395 163.121066 
L 429.566798 157.606815 
L 456.033202 151.602411 
L 482.499605 144.915287 
L 508.966008 140.608921 
L 535.432411 135.759883 
L 561.898814 130.875831 
L 588.365217 124.731383 
L 614.831621 119.199626 
L 641.298024 114.525643 
L 667.764427 109.869166 
L 694.23083 104.197366 
L 720.697233 98.753139 
L 747.163636 94.831893 
" style="fill:none;stroke:#d3d3d3;stroke-linecap:square;stroke-width:1.5;"/>
   </g>
   <g id="line2d_37">
    <path clip-path="url(#pb3fdf71f6a)" d="M 138.436364 179.313703 
L 164.902767 160.092604 
L 191.36917 146.980943 
L 217.835573 135.96995 
L 244.301976 130.823315 
L 270.768379 121.860471 
L 297.234783 117.956733 
L 323.701186 110.656916 
L 350.167589 106.122977 
L 376.633992 102.201733 
L 403.100395 98.525566 
L 429.566798 97.230154 
L 456.033202 94.289222 
L 482.499605 92.311094 
L 508.966008 89.667755 
L 535.432411 87.287 
L 561.898814 86.289183 
L 588.365217 83.365755 
L 614.831621 83.278227 
L 641.298024 79.146916 
L 667.764427 78.219121 
L 694.23083 77.291326 
L 720.697233 75.82086 
L 747.163636 75.295693 
" style="fill:none;stroke:#d3d3d3;stroke-linecap:square;stroke-width:1.5;"/>
   </g>
   <g id="line2d_38">
    <path clip-path="url(#pb3fdf71f6a)" d="M 138.436364 174.219587 
L 164.902767 158.412071 
L 191.36917 146.210699 
L 217.835573 137.160327 
L 244.301976 129.807994 
L 270.768379 120.985194 
L 297.234783 113.685377 
L 323.701186 108.346183 
L 350.167589 103.829749 
L 376.633992 103.129527 
L 403.100395 98.718127 
L 429.566798 93.028822 
L 456.033202 90.945659 
L 482.499605 89.020049 
L 508.966008 84.030966 
L 535.432411 84.801211 
L 561.898814 81.335111 
L 588.365217 78.359167 
L 614.831621 76.836183 
L 641.298024 75.243177 
L 667.764427 72.529816 
L 694.23083 72.372266 
L 720.697233 72.739883 
L 747.163636 70.726744 
" style="fill:none;stroke:#9467bd;stroke-linecap:square;stroke-width:1.5;"/>
   </g>
   <g id="line2d_39">
    <path clip-path="url(#pb3fdf71f6a)" d="M 138.436364 175.427471 
L 164.902767 163.506188 
L 191.36917 149.256666 
L 217.835573 139.243488 
L 244.301976 128.547594 
L 270.768379 122.420648 
L 297.234783 117.904216 
L 323.701186 111.164576 
L 350.167589 108.153622 
L 376.633992 102.13171 
L 403.100395 100.258616 
L 429.566798 96.739999 
L 456.033202 94.534299 
L 482.499605 90.508022 
L 508.966008 89.8078 
L 535.432411 84.451099 
L 561.898814 83.120678 
L 588.365217 83.365754 
L 614.831621 79.339478 
L 641.298024 78.114089 
L 667.764427 77.86901 
L 694.23083 76.065938 
L 720.697233 76.45106 
L 747.163636 72.722378 
" style="fill:none;stroke:#8c564b;stroke-linecap:square;stroke-width:1.5;"/>
   </g>
   <g id="line2d_40">
    <path clip-path="url(#pb3fdf71f6a)" d="M 138.436364 234.998872 
L 164.902767 219.471446 
L 191.36917 204.88932 
L 217.835573 197.151864 
L 244.301976 189.641981 
L 270.768379 179.96141 
L 297.234783 171.016071 
L 323.701186 167.619992 
L 350.167589 162.63091 
L 376.633992 154.508332 
L 403.100395 149.694305 
L 429.566798 146.245709 
L 456.033202 141.396671 
L 482.499605 136.670172 
L 508.966008 134.254405 
L 535.432411 129.965545 
L 561.898814 126.149332 
L 588.365217 123.103365 
L 614.831621 119.479715 
L 641.298024 118.20181 
L 667.764427 117.274016 
L 694.23083 114.805734 
L 720.697233 108.818833 
L 747.163636 109.711616 
" style="fill:none;stroke:#e377c2;stroke-linecap:square;stroke-width:1.5;"/>
   </g>
   <g id="patch_3">
    <path d="M 108 378 
L 108 51.84 
" style="fill:none;stroke:#000000;stroke-linecap:square;stroke-linejoin:miter;stroke-width:0.8;"/>
   </g>
   <g id="patch_4">
    <path d="M 777.6 378 
L 777.6 51.84 
" style="fill:none;stroke:#000000;stroke-linecap:square;stroke-linejoin:miter;stroke-width:0.8;"/>
   </g>
   <g id="patch_5">
    <path d="M 108 378 
L 777.6 378 
" style="fill:none;stroke:#000000;stroke-linecap:square;stroke-linejoin:miter;stroke-width:0.8;"/>
   </g>
   <g id="patch_6">
    <path d="M 108 51.84 
L 777.6 51.84 
" style="fill:none;stroke:#000000;stroke-linecap:square;stroke-linejoin:miter;stroke-width:0.8;"/>
   </g>
   <g id="text_13">
    <!-- Training Accuracy over 25 epochs -->
    <defs>
     <path d="M 2.984375 54.6875 
L 12.5 54.6875 
L 29.59375 8.796875 
L 46.6875 54.6875 
L 56.203125 54.6875 
L 35.6875 0 
L 23.484375 0 
z
" id="DejaVuSans-76"/>
     <path d="M 44.28125 53.078125 
L 44.28125 44.578125 
Q 40.484375 46.53125 36.375 47.5 
Q 32.28125 48.484375 27.875 48.484375 
Q 21.1875 48.484375 17.84375 46.4375 
Q 14.5 44.390625 14.5 40.28125 
Q 14.5 37.15625 16.890625 35.375 
Q 19.28125 33.59375 26.515625 31.984375 
L 29.59375 31.296875 
Q 39.15625 29.25 43.1875 25.515625 
Q 47.21875 21.78125 47.21875 15.09375 
Q 47.21875 7.46875 41.1875 3.015625 
Q 35.15625 -1.421875 24.609375 -1.421875 
Q 20.21875 -1.421875 15.453125 -0.5625 
Q 10.6875 0.296875 5.421875 2 
L 5.421875 11.28125 
Q 10.40625 8.6875 15.234375 7.390625 
Q 20.0625 6.109375 24.8125 6.109375 
Q 31.15625 6.109375 34.5625 8.28125 
Q 37.984375 10.453125 37.984375 14.40625 
Q 37.984375 18.0625 35.515625 20.015625 
Q 33.0625 21.96875 24.703125 23.78125 
L 21.578125 24.515625 
Q 13.234375 26.265625 9.515625 29.90625 
Q 5.8125 33.546875 5.8125 39.890625 
Q 5.8125 47.609375 11.28125 51.796875 
Q 16.75 56 26.8125 56 
Q 31.78125 56 36.171875 55.265625 
Q 40.578125 54.546875 44.28125 53.078125 
" id="DejaVuSans-73"/>
    </defs>
    <g transform="translate(340.716563 45.84)scale(0.12 -0.12)">
     <use xlink:href="#DejaVuSans-54"/>
     <use x="60.865234" xlink:href="#DejaVuSans-72"/>
     <use x="101.978516" xlink:href="#DejaVuSans-61"/>
     <use x="163.257812" xlink:href="#DejaVuSans-69"/>
     <use x="191.041016" xlink:href="#DejaVuSans-6e"/>
     <use x="254.419922" xlink:href="#DejaVuSans-69"/>
     <use x="282.203125" xlink:href="#DejaVuSans-6e"/>
     <use x="345.582031" xlink:href="#DejaVuSans-67"/>
     <use x="409.058594" xlink:href="#DejaVuSans-20"/>
     <use x="440.845703" xlink:href="#DejaVuSans-41"/>
     <use x="509.238281" xlink:href="#DejaVuSans-63"/>
     <use x="564.21875" xlink:href="#DejaVuSans-63"/>
     <use x="619.199219" xlink:href="#DejaVuSans-75"/>
     <use x="682.578125" xlink:href="#DejaVuSans-72"/>
     <use x="723.691406" xlink:href="#DejaVuSans-61"/>
     <use x="784.970703" xlink:href="#DejaVuSans-63"/>
     <use x="839.951172" xlink:href="#DejaVuSans-79"/>
     <use x="899.130859" xlink:href="#DejaVuSans-20"/>
     <use x="930.917969" xlink:href="#DejaVuSans-6f"/>
     <use x="992.099609" xlink:href="#DejaVuSans-76"/>
     <use x="1051.279297" xlink:href="#DejaVuSans-65"/>
     <use x="1112.802734" xlink:href="#DejaVuSans-72"/>
     <use x="1153.916016" xlink:href="#DejaVuSans-20"/>
     <use x="1185.703125" xlink:href="#DejaVuSans-32"/>
     <use x="1249.326172" xlink:href="#DejaVuSans-35"/>
     <use x="1312.949219" xlink:href="#DejaVuSans-20"/>
     <use x="1344.736328" xlink:href="#DejaVuSans-65"/>
     <use x="1406.259766" xlink:href="#DejaVuSans-70"/>
     <use x="1469.736328" xlink:href="#DejaVuSans-6f"/>
     <use x="1530.917969" xlink:href="#DejaVuSans-63"/>
     <use x="1585.898438" xlink:href="#DejaVuSans-68"/>
     <use x="1649.277344" xlink:href="#DejaVuSans-73"/>
    </g>
   </g>
   <g id="legend_1">
    <g id="patch_7">
     <path d="M 587.004688 267.793437 
L 770.6 267.793437 
Q 772.6 267.793437 772.6 265.793437 
L 772.6 164.046562 
Q 772.6 162.046562 770.6 162.046562 
L 587.004688 162.046562 
Q 585.004688 162.046562 585.004688 164.046562 
L 585.004688 265.793437 
Q 585.004688 267.793437 587.004688 267.793437 
z
" style="fill:#ffffff;opacity:0.8;stroke:#cccccc;stroke-linejoin:miter;"/>
    </g>
    <g id="line2d_41">
     <path d="M 589.004688 170.145 
L 609.004688 170.145 
" style="fill:none;stroke:#1f77b4;stroke-linecap:square;stroke-width:1.5;"/>
    </g>
    <g id="line2d_42"/>
    <g id="text_14">
     <!-- state size: 363, num steps: 4 -->
     <defs>
      <path d="M 18.3125 70.21875 
L 18.3125 54.6875 
L 36.8125 54.6875 
L 36.8125 47.703125 
L 18.3125 47.703125 
L 18.3125 18.015625 
Q 18.3125 11.328125 20.140625 9.421875 
Q 21.96875 7.515625 27.59375 7.515625 
L 36.8125 7.515625 
L 36.8125 0 
L 27.59375 0 
Q 17.1875 0 13.234375 3.875 
Q 9.28125 7.765625 9.28125 18.015625 
L 9.28125 47.703125 
L 2.6875 47.703125 
L 2.6875 54.6875 
L 9.28125 54.6875 
L 9.28125 70.21875 
z
" id="DejaVuSans-74"/>
      <path d="M 5.515625 54.6875 
L 48.1875 54.6875 
L 48.1875 46.484375 
L 14.40625 7.171875 
L 48.1875 7.171875 
L 48.1875 0 
L 4.296875 0 
L 4.296875 8.203125 
L 38.09375 47.515625 
L 5.515625 47.515625 
z
" id="DejaVuSans-7a"/>
      <path d="M 11.71875 12.40625 
L 22.015625 12.40625 
L 22.015625 0 
L 11.71875 0 
z
M 11.71875 51.703125 
L 22.015625 51.703125 
L 22.015625 39.3125 
L 11.71875 39.3125 
z
" id="DejaVuSans-3a"/>
      <path d="M 11.71875 12.40625 
L 22.015625 12.40625 
L 22.015625 4 
L 14.015625 -11.625 
L 7.71875 -11.625 
L 11.71875 4 
z
" id="DejaVuSans-2c"/>
     </defs>
     <g transform="translate(617.004688 173.645)scale(0.1 -0.1)">
      <use xlink:href="#DejaVuSans-73"/>
      <use x="52.099609" xlink:href="#DejaVuSans-74"/>
      <use x="91.308594" xlink:href="#DejaVuSans-61"/>
      <use x="152.587891" xlink:href="#DejaVuSans-74"/>
      <use x="191.796875" xlink:href="#DejaVuSans-65"/>
      <use x="253.320312" xlink:href="#DejaVuSans-20"/>
      <use x="285.107422" xlink:href="#DejaVuSans-73"/>
      <use x="337.207031" xlink:href="#DejaVuSans-69"/>
      <use x="364.990234" xlink:href="#DejaVuSans-7a"/>
      <use x="417.480469" xlink:href="#DejaVuSans-65"/>
      <use x="479.003906" xlink:href="#DejaVuSans-3a"/>
      <use x="512.695312" xlink:href="#DejaVuSans-20"/>
      <use x="544.482422" xlink:href="#DejaVuSans-33"/>
      <use x="608.105469" xlink:href="#DejaVuSans-36"/>
      <use x="671.728516" xlink:href="#DejaVuSans-33"/>
      <use x="735.351562" xlink:href="#DejaVuSans-2c"/>
      <use x="767.138672" xlink:href="#DejaVuSans-20"/>
      <use x="798.925781" xlink:href="#DejaVuSans-6e"/>
      <use x="862.304688" xlink:href="#DejaVuSans-75"/>
      <use x="925.683594" xlink:href="#DejaVuSans-6d"/>
      <use x="1023.095703" xlink:href="#DejaVuSans-20"/>
      <use x="1054.882812" xlink:href="#DejaVuSans-73"/>
      <use x="1106.982422" xlink:href="#DejaVuSans-74"/>
      <use x="1146.191406" xlink:href="#DejaVuSans-65"/>
      <use x="1207.714844" xlink:href="#DejaVuSans-70"/>
      <use x="1271.191406" xlink:href="#DejaVuSans-73"/>
      <use x="1323.291016" xlink:href="#DejaVuSans-3a"/>
      <use x="1356.982422" xlink:href="#DejaVuSans-20"/>
      <use x="1388.769531" xlink:href="#DejaVuSans-34"/>
     </g>
    </g>
    <g id="line2d_43">
     <path d="M 589.004688 184.823125 
L 609.004688 184.823125 
" style="fill:none;stroke:#ff7f0e;stroke-linecap:square;stroke-width:1.5;"/>
    </g>
    <g id="line2d_44"/>
    <g id="text_15">
     <!-- state size: 325, num steps: 6 -->
     <g transform="translate(617.004688 188.323125)scale(0.1 -0.1)">
      <use xlink:href="#DejaVuSans-73"/>
      <use x="52.099609" xlink:href="#DejaVuSans-74"/>
      <use x="91.308594" xlink:href="#DejaVuSans-61"/>
      <use x="152.587891" xlink:href="#DejaVuSans-74"/>
      <use x="191.796875" xlink:href="#DejaVuSans-65"/>
      <use x="253.320312" xlink:href="#DejaVuSans-20"/>
      <use x="285.107422" xlink:href="#DejaVuSans-73"/>
      <use x="337.207031" xlink:href="#DejaVuSans-69"/>
      <use x="364.990234" xlink:href="#DejaVuSans-7a"/>
      <use x="417.480469" xlink:href="#DejaVuSans-65"/>
      <use x="479.003906" xlink:href="#DejaVuSans-3a"/>
      <use x="512.695312" xlink:href="#DejaVuSans-20"/>
      <use x="544.482422" xlink:href="#DejaVuSans-33"/>
      <use x="608.105469" xlink:href="#DejaVuSans-32"/>
      <use x="671.728516" xlink:href="#DejaVuSans-35"/>
      <use x="735.351562" xlink:href="#DejaVuSans-2c"/>
      <use x="767.138672" xlink:href="#DejaVuSans-20"/>
      <use x="798.925781" xlink:href="#DejaVuSans-6e"/>
      <use x="862.304688" xlink:href="#DejaVuSans-75"/>
      <use x="925.683594" xlink:href="#DejaVuSans-6d"/>
      <use x="1023.095703" xlink:href="#DejaVuSans-20"/>
      <use x="1054.882812" xlink:href="#DejaVuSans-73"/>
      <use x="1106.982422" xlink:href="#DejaVuSans-74"/>
      <use x="1146.191406" xlink:href="#DejaVuSans-65"/>
      <use x="1207.714844" xlink:href="#DejaVuSans-70"/>
      <use x="1271.191406" xlink:href="#DejaVuSans-73"/>
      <use x="1323.291016" xlink:href="#DejaVuSans-3a"/>
      <use x="1356.982422" xlink:href="#DejaVuSans-20"/>
      <use x="1388.769531" xlink:href="#DejaVuSans-36"/>
     </g>
    </g>
    <g id="line2d_45">
     <path d="M 589.004688 199.50125 
L 609.004688 199.50125 
" style="fill:none;stroke:#2ca02c;stroke-linecap:square;stroke-width:1.5;"/>
    </g>
    <g id="line2d_46"/>
    <g id="text_16">
     <!-- state size: 321, num steps: 4 -->
     <g transform="translate(617.004688 203.00125)scale(0.1 -0.1)">
      <use xlink:href="#DejaVuSans-73"/>
      <use x="52.099609" xlink:href="#DejaVuSans-74"/>
      <use x="91.308594" xlink:href="#DejaVuSans-61"/>
      <use x="152.587891" xlink:href="#DejaVuSans-74"/>
      <use x="191.796875" xlink:href="#DejaVuSans-65"/>
      <use x="253.320312" xlink:href="#DejaVuSans-20"/>
      <use x="285.107422" xlink:href="#DejaVuSans-73"/>
      <use x="337.207031" xlink:href="#DejaVuSans-69"/>
      <use x="364.990234" xlink:href="#DejaVuSans-7a"/>
      <use x="417.480469" xlink:href="#DejaVuSans-65"/>
      <use x="479.003906" xlink:href="#DejaVuSans-3a"/>
      <use x="512.695312" xlink:href="#DejaVuSans-20"/>
      <use x="544.482422" xlink:href="#DejaVuSans-33"/>
      <use x="608.105469" xlink:href="#DejaVuSans-32"/>
      <use x="671.728516" xlink:href="#DejaVuSans-31"/>
      <use x="735.351562" xlink:href="#DejaVuSans-2c"/>
      <use x="767.138672" xlink:href="#DejaVuSans-20"/>
      <use x="798.925781" xlink:href="#DejaVuSans-6e"/>
      <use x="862.304688" xlink:href="#DejaVuSans-75"/>
      <use x="925.683594" xlink:href="#DejaVuSans-6d"/>
      <use x="1023.095703" xlink:href="#DejaVuSans-20"/>
      <use x="1054.882812" xlink:href="#DejaVuSans-73"/>
      <use x="1106.982422" xlink:href="#DejaVuSans-74"/>
      <use x="1146.191406" xlink:href="#DejaVuSans-65"/>
      <use x="1207.714844" xlink:href="#DejaVuSans-70"/>
      <use x="1271.191406" xlink:href="#DejaVuSans-73"/>
      <use x="1323.291016" xlink:href="#DejaVuSans-3a"/>
      <use x="1356.982422" xlink:href="#DejaVuSans-20"/>
      <use x="1388.769531" xlink:href="#DejaVuSans-34"/>
     </g>
    </g>
    <g id="line2d_47">
     <path d="M 589.004688 214.179375 
L 609.004688 214.179375 
" style="fill:none;stroke:#d62728;stroke-linecap:square;stroke-width:1.5;"/>
    </g>
    <g id="line2d_48"/>
    <g id="text_17">
     <!-- state size: 500, num steps: 12 -->
     <g transform="translate(617.004688 217.679375)scale(0.1 -0.1)">
      <use xlink:href="#DejaVuSans-73"/>
      <use x="52.099609" xlink:href="#DejaVuSans-74"/>
      <use x="91.308594" xlink:href="#DejaVuSans-61"/>
      <use x="152.587891" xlink:href="#DejaVuSans-74"/>
      <use x="191.796875" xlink:href="#DejaVuSans-65"/>
      <use x="253.320312" xlink:href="#DejaVuSans-20"/>
      <use x="285.107422" xlink:href="#DejaVuSans-73"/>
      <use x="337.207031" xlink:href="#DejaVuSans-69"/>
      <use x="364.990234" xlink:href="#DejaVuSans-7a"/>
      <use x="417.480469" xlink:href="#DejaVuSans-65"/>
      <use x="479.003906" xlink:href="#DejaVuSans-3a"/>
      <use x="512.695312" xlink:href="#DejaVuSans-20"/>
      <use x="544.482422" xlink:href="#DejaVuSans-35"/>
      <use x="608.105469" xlink:href="#DejaVuSans-30"/>
      <use x="671.728516" xlink:href="#DejaVuSans-30"/>
      <use x="735.351562" xlink:href="#DejaVuSans-2c"/>
      <use x="767.138672" xlink:href="#DejaVuSans-20"/>
      <use x="798.925781" xlink:href="#DejaVuSans-6e"/>
      <use x="862.304688" xlink:href="#DejaVuSans-75"/>
      <use x="925.683594" xlink:href="#DejaVuSans-6d"/>
      <use x="1023.095703" xlink:href="#DejaVuSans-20"/>
      <use x="1054.882812" xlink:href="#DejaVuSans-73"/>
      <use x="1106.982422" xlink:href="#DejaVuSans-74"/>
      <use x="1146.191406" xlink:href="#DejaVuSans-65"/>
      <use x="1207.714844" xlink:href="#DejaVuSans-70"/>
      <use x="1271.191406" xlink:href="#DejaVuSans-73"/>
      <use x="1323.291016" xlink:href="#DejaVuSans-3a"/>
      <use x="1356.982422" xlink:href="#DejaVuSans-20"/>
      <use x="1388.769531" xlink:href="#DejaVuSans-31"/>
      <use x="1452.392578" xlink:href="#DejaVuSans-32"/>
     </g>
    </g>
    <g id="line2d_49">
     <path d="M 589.004688 228.8575 
L 609.004688 228.8575 
" style="fill:none;stroke:#9467bd;stroke-linecap:square;stroke-width:1.5;"/>
    </g>
    <g id="line2d_50"/>
    <g id="text_18">
     <!-- state size: 340, num steps: 4 -->
     <g transform="translate(617.004688 232.3575)scale(0.1 -0.1)">
      <use xlink:href="#DejaVuSans-73"/>
      <use x="52.099609" xlink:href="#DejaVuSans-74"/>
      <use x="91.308594" xlink:href="#DejaVuSans-61"/>
      <use x="152.587891" xlink:href="#DejaVuSans-74"/>
      <use x="191.796875" xlink:href="#DejaVuSans-65"/>
      <use x="253.320312" xlink:href="#DejaVuSans-20"/>
      <use x="285.107422" xlink:href="#DejaVuSans-73"/>
      <use x="337.207031" xlink:href="#DejaVuSans-69"/>
      <use x="364.990234" xlink:href="#DejaVuSans-7a"/>
      <use x="417.480469" xlink:href="#DejaVuSans-65"/>
      <use x="479.003906" xlink:href="#DejaVuSans-3a"/>
      <use x="512.695312" xlink:href="#DejaVuSans-20"/>
      <use x="544.482422" xlink:href="#DejaVuSans-33"/>
      <use x="608.105469" xlink:href="#DejaVuSans-34"/>
      <use x="671.728516" xlink:href="#DejaVuSans-30"/>
      <use x="735.351562" xlink:href="#DejaVuSans-2c"/>
      <use x="767.138672" xlink:href="#DejaVuSans-20"/>
      <use x="798.925781" xlink:href="#DejaVuSans-6e"/>
      <use x="862.304688" xlink:href="#DejaVuSans-75"/>
      <use x="925.683594" xlink:href="#DejaVuSans-6d"/>
      <use x="1023.095703" xlink:href="#DejaVuSans-20"/>
      <use x="1054.882812" xlink:href="#DejaVuSans-73"/>
      <use x="1106.982422" xlink:href="#DejaVuSans-74"/>
      <use x="1146.191406" xlink:href="#DejaVuSans-65"/>
      <use x="1207.714844" xlink:href="#DejaVuSans-70"/>
      <use x="1271.191406" xlink:href="#DejaVuSans-73"/>
      <use x="1323.291016" xlink:href="#DejaVuSans-3a"/>
      <use x="1356.982422" xlink:href="#DejaVuSans-20"/>
      <use x="1388.769531" xlink:href="#DejaVuSans-34"/>
     </g>
    </g>
    <g id="line2d_51">
     <path d="M 589.004688 243.535625 
L 609.004688 243.535625 
" style="fill:none;stroke:#8c564b;stroke-linecap:square;stroke-width:1.5;"/>
    </g>
    <g id="line2d_52"/>
    <g id="text_19">
     <!-- state size: 322, num steps: 4 -->
     <g transform="translate(617.004688 247.035625)scale(0.1 -0.1)">
      <use xlink:href="#DejaVuSans-73"/>
      <use x="52.099609" xlink:href="#DejaVuSans-74"/>
      <use x="91.308594" xlink:href="#DejaVuSans-61"/>
      <use x="152.587891" xlink:href="#DejaVuSans-74"/>
      <use x="191.796875" xlink:href="#DejaVuSans-65"/>
      <use x="253.320312" xlink:href="#DejaVuSans-20"/>
      <use x="285.107422" xlink:href="#DejaVuSans-73"/>
      <use x="337.207031" xlink:href="#DejaVuSans-69"/>
      <use x="364.990234" xlink:href="#DejaVuSans-7a"/>
      <use x="417.480469" xlink:href="#DejaVuSans-65"/>
      <use x="479.003906" xlink:href="#DejaVuSans-3a"/>
      <use x="512.695312" xlink:href="#DejaVuSans-20"/>
      <use x="544.482422" xlink:href="#DejaVuSans-33"/>
      <use x="608.105469" xlink:href="#DejaVuSans-32"/>
      <use x="671.728516" xlink:href="#DejaVuSans-32"/>
      <use x="735.351562" xlink:href="#DejaVuSans-2c"/>
      <use x="767.138672" xlink:href="#DejaVuSans-20"/>
      <use x="798.925781" xlink:href="#DejaVuSans-6e"/>
      <use x="862.304688" xlink:href="#DejaVuSans-75"/>
      <use x="925.683594" xlink:href="#DejaVuSans-6d"/>
      <use x="1023.095703" xlink:href="#DejaVuSans-20"/>
      <use x="1054.882812" xlink:href="#DejaVuSans-73"/>
      <use x="1106.982422" xlink:href="#DejaVuSans-74"/>
      <use x="1146.191406" xlink:href="#DejaVuSans-65"/>
      <use x="1207.714844" xlink:href="#DejaVuSans-70"/>
      <use x="1271.191406" xlink:href="#DejaVuSans-73"/>
      <use x="1323.291016" xlink:href="#DejaVuSans-3a"/>
      <use x="1356.982422" xlink:href="#DejaVuSans-20"/>
      <use x="1388.769531" xlink:href="#DejaVuSans-34"/>
     </g>
    </g>
    <g id="line2d_53">
     <path d="M 589.004688 258.21375 
L 609.004688 258.21375 
" style="fill:none;stroke:#e377c2;stroke-linecap:square;stroke-width:1.5;"/>
    </g>
    <g id="line2d_54"/>
    <g id="text_20">
     <!-- state size: 349, num steps: 15 -->
     <defs>
      <path d="M 10.984375 1.515625 
L 10.984375 10.5 
Q 14.703125 8.734375 18.5 7.8125 
Q 22.3125 6.890625 25.984375 6.890625 
Q 35.75 6.890625 40.890625 13.453125 
Q 46.046875 20.015625 46.78125 33.40625 
Q 43.953125 29.203125 39.59375 26.953125 
Q 35.25 24.703125 29.984375 24.703125 
Q 19.046875 24.703125 12.671875 31.3125 
Q 6.296875 37.9375 6.296875 49.421875 
Q 6.296875 60.640625 12.9375 67.421875 
Q 19.578125 74.21875 30.609375 74.21875 
Q 43.265625 74.21875 49.921875 64.515625 
Q 56.59375 54.828125 56.59375 36.375 
Q 56.59375 19.140625 48.40625 8.859375 
Q 40.234375 -1.421875 26.421875 -1.421875 
Q 22.703125 -1.421875 18.890625 -0.6875 
Q 15.09375 0.046875 10.984375 1.515625 
M 30.609375 32.421875 
Q 37.25 32.421875 41.125 36.953125 
Q 45.015625 41.5 45.015625 49.421875 
Q 45.015625 57.28125 41.125 61.84375 
Q 37.25 66.40625 30.609375 66.40625 
Q 23.96875 66.40625 20.09375 61.84375 
Q 16.21875 57.28125 16.21875 49.421875 
Q 16.21875 41.5 20.09375 36.953125 
Q 23.96875 32.421875 30.609375 32.421875 
" id="DejaVuSans-39"/>
     </defs>
     <g transform="translate(617.004688 261.71375)scale(0.1 -0.1)">
      <use xlink:href="#DejaVuSans-73"/>
      <use x="52.099609" xlink:href="#DejaVuSans-74"/>
      <use x="91.308594" xlink:href="#DejaVuSans-61"/>
      <use x="152.587891" xlink:href="#DejaVuSans-74"/>
      <use x="191.796875" xlink:href="#DejaVuSans-65"/>
      <use x="253.320312" xlink:href="#DejaVuSans-20"/>
      <use x="285.107422" xlink:href="#DejaVuSans-73"/>
      <use x="337.207031" xlink:href="#DejaVuSans-69"/>
      <use x="364.990234" xlink:href="#DejaVuSans-7a"/>
      <use x="417.480469" xlink:href="#DejaVuSans-65"/>
      <use x="479.003906" xlink:href="#DejaVuSans-3a"/>
      <use x="512.695312" xlink:href="#DejaVuSans-20"/>
      <use x="544.482422" xlink:href="#DejaVuSans-33"/>
      <use x="608.105469" xlink:href="#DejaVuSans-34"/>
      <use x="671.728516" xlink:href="#DejaVuSans-39"/>
      <use x="735.351562" xlink:href="#DejaVuSans-2c"/>
      <use x="767.138672" xlink:href="#DejaVuSans-20"/>
      <use x="798.925781" xlink:href="#DejaVuSans-6e"/>
      <use x="862.304688" xlink:href="#DejaVuSans-75"/>
      <use x="925.683594" xlink:href="#DejaVuSans-6d"/>
      <use x="1023.095703" xlink:href="#DejaVuSans-20"/>
      <use x="1054.882812" xlink:href="#DejaVuSans-73"/>
      <use x="1106.982422" xlink:href="#DejaVuSans-74"/>
      <use x="1146.191406" xlink:href="#DejaVuSans-65"/>
      <use x="1207.714844" xlink:href="#DejaVuSans-70"/>
      <use x="1271.191406" xlink:href="#DejaVuSans-73"/>
      <use x="1323.291016" xlink:href="#DejaVuSans-3a"/>
      <use x="1356.982422" xlink:href="#DejaVuSans-20"/>
      <use x="1388.769531" xlink:href="#DejaVuSans-31"/>
      <use x="1452.392578" xlink:href="#DejaVuSans-35"/>
     </g>
    </g>
   </g>
  </g>
 </g>
 <defs>
  <clipPath id="pb3fdf71f6a">
   <rect height="326.16" width="669.6" x="108" y="51.84"/>
  </clipPath>
 </defs>
</svg>
