<?xml version="1.0" encoding="utf-8" standalone="no"?>
<!DOCTYPE svg PUBLIC "-//W3C//DTD SVG 1.1//EN"
  "http://www.w3.org/Graphics/SVG/1.1/DTD/svg11.dtd">
<!-- Created with matplotlib (http://matplotlib.org/) -->
<svg height="432pt" version="1.1" viewBox="0 0 864 432" width="864pt" xmlns="http://www.w3.org/2000/svg" xmlns:xlink="http://www.w3.org/1999/xlink">
 <defs>
  <style type="text/css">
*{stroke-linecap:butt;stroke-linejoin:round;}
  </style>
 </defs>
 <g id="figure_1">
  <g id="patch_1">
   <path d="M 0 432 
L 864 432 
L 864 0 
L 0 0 
z
" style="fill:#ffffff;"/>
  </g>
  <g id="axes_1">
   <g id="patch_2">
    <path d="M 108 378 
L 777.6 378 
L 777.6 51.84 
L 108 51.84 
z
" style="fill:#ffffff;"/>
   </g>
   <g id="matplotlib.axis_1">
    <g id="xtick_1">
     <g id="line2d_1">
      <path clip-path="url(#p1d41e2d096)" d="M 119.990083 378 
L 119.990083 51.84 
" style="fill:none;stroke:#b0b0b0;stroke-linecap:square;stroke-width:0.8;"/>
     </g>
     <g id="line2d_2">
      <defs>
       <path d="M 0 0 
L 0 3.5 
" id="mf6609a1f6f" style="stroke:#000000;stroke-width:0.8;"/>
      </defs>
      <g>
       <use style="stroke:#000000;stroke-width:0.8;" x="119.990083" xlink:href="#mf6609a1f6f" y="378"/>
      </g>
     </g>
     <g id="text_1">
      <!-- 0 -->
      <defs>
       <path d="M 31.78125 66.40625 
Q 24.171875 66.40625 20.328125 58.90625 
Q 16.5 51.421875 16.5 36.375 
Q 16.5 21.390625 20.328125 13.890625 
Q 24.171875 6.390625 31.78125 6.390625 
Q 39.453125 6.390625 43.28125 13.890625 
Q 47.125 21.390625 47.125 36.375 
Q 47.125 51.421875 43.28125 58.90625 
Q 39.453125 66.40625 31.78125 66.40625 
M 31.78125 74.21875 
Q 44.046875 74.21875 50.515625 64.515625 
Q 56.984375 54.828125 56.984375 36.375 
Q 56.984375 17.96875 50.515625 8.265625 
Q 44.046875 -1.421875 31.78125 -1.421875 
Q 19.53125 -1.421875 13.0625 8.265625 
Q 6.59375 17.96875 6.59375 36.375 
Q 6.59375 54.828125 13.0625 64.515625 
Q 19.53125 74.21875 31.78125 74.21875 
" id="DejaVuSans-30"/>
      </defs>
      <g transform="translate(116.808833 392.598437)scale(0.1 -0.1)">
       <use xlink:href="#DejaVuSans-30"/>
      </g>
     </g>
    </g>
    <g id="xtick_2">
     <g id="line2d_3">
      <path clip-path="url(#p1d41e2d096)" d="M 212.221488 378 
L 212.221488 51.84 
" style="fill:none;stroke:#b0b0b0;stroke-linecap:square;stroke-width:0.8;"/>
     </g>
     <g id="line2d_4">
      <g>
       <use style="stroke:#000000;stroke-width:0.8;" x="212.221488" xlink:href="#mf6609a1f6f" y="378"/>
      </g>
     </g>
     <g id="text_2">
      <!-- 5 -->
      <defs>
       <path d="M 10.796875 72.90625 
L 49.515625 72.90625 
L 49.515625 64.59375 
L 19.828125 64.59375 
L 19.828125 46.734375 
Q 21.96875 47.46875 24.109375 47.828125 
Q 26.265625 48.1875 28.421875 48.1875 
Q 40.625 48.1875 47.75 41.5 
Q 54.890625 34.8125 54.890625 23.390625 
Q 54.890625 11.625 47.5625 5.09375 
Q 40.234375 -1.421875 26.90625 -1.421875 
Q 22.3125 -1.421875 17.546875 -0.640625 
Q 12.796875 0.140625 7.71875 1.703125 
L 7.71875 11.625 
Q 12.109375 9.234375 16.796875 8.0625 
Q 21.484375 6.890625 26.703125 6.890625 
Q 35.15625 6.890625 40.078125 11.328125 
Q 45.015625 15.765625 45.015625 23.390625 
Q 45.015625 31 40.078125 35.4375 
Q 35.15625 39.890625 26.703125 39.890625 
Q 22.75 39.890625 18.8125 39.015625 
Q 14.890625 38.140625 10.796875 36.28125 
z
" id="DejaVuSans-35"/>
      </defs>
      <g transform="translate(209.040238 392.598437)scale(0.1 -0.1)">
       <use xlink:href="#DejaVuSans-35"/>
      </g>
     </g>
    </g>
    <g id="xtick_3">
     <g id="line2d_5">
      <path clip-path="url(#p1d41e2d096)" d="M 304.452893 378 
L 304.452893 51.84 
" style="fill:none;stroke:#b0b0b0;stroke-linecap:square;stroke-width:0.8;"/>
     </g>
     <g id="line2d_6">
      <g>
       <use style="stroke:#000000;stroke-width:0.8;" x="304.452893" xlink:href="#mf6609a1f6f" y="378"/>
      </g>
     </g>
     <g id="text_3">
      <!-- 10 -->
      <defs>
       <path d="M 12.40625 8.296875 
L 28.515625 8.296875 
L 28.515625 63.921875 
L 10.984375 60.40625 
L 10.984375 69.390625 
L 28.421875 72.90625 
L 38.28125 72.90625 
L 38.28125 8.296875 
L 54.390625 8.296875 
L 54.390625 0 
L 12.40625 0 
z
" id="DejaVuSans-31"/>
      </defs>
      <g transform="translate(298.090393 392.598437)scale(0.1 -0.1)">
       <use xlink:href="#DejaVuSans-31"/>
       <use x="63.623047" xlink:href="#DejaVuSans-30"/>
      </g>
     </g>
    </g>
    <g id="xtick_4">
     <g id="line2d_7">
      <path clip-path="url(#p1d41e2d096)" d="M 396.684298 378 
L 396.684298 51.84 
" style="fill:none;stroke:#b0b0b0;stroke-linecap:square;stroke-width:0.8;"/>
     </g>
     <g id="line2d_8">
      <g>
       <use style="stroke:#000000;stroke-width:0.8;" x="396.684298" xlink:href="#mf6609a1f6f" y="378"/>
      </g>
     </g>
     <g id="text_4">
      <!-- 15 -->
      <g transform="translate(390.321798 392.598437)scale(0.1 -0.1)">
       <use xlink:href="#DejaVuSans-31"/>
       <use x="63.623047" xlink:href="#DejaVuSans-35"/>
      </g>
     </g>
    </g>
    <g id="xtick_5">
     <g id="line2d_9">
      <path clip-path="url(#p1d41e2d096)" d="M 488.915702 378 
L 488.915702 51.84 
" style="fill:none;stroke:#b0b0b0;stroke-linecap:square;stroke-width:0.8;"/>
     </g>
     <g id="line2d_10">
      <g>
       <use style="stroke:#000000;stroke-width:0.8;" x="488.915702" xlink:href="#mf6609a1f6f" y="378"/>
      </g>
     </g>
     <g id="text_5">
      <!-- 20 -->
      <defs>
       <path d="M 19.1875 8.296875 
L 53.609375 8.296875 
L 53.609375 0 
L 7.328125 0 
L 7.328125 8.296875 
Q 12.9375 14.109375 22.625 23.890625 
Q 32.328125 33.6875 34.8125 36.53125 
Q 39.546875 41.84375 41.421875 45.53125 
Q 43.3125 49.21875 43.3125 52.78125 
Q 43.3125 58.59375 39.234375 62.25 
Q 35.15625 65.921875 28.609375 65.921875 
Q 23.96875 65.921875 18.8125 64.3125 
Q 13.671875 62.703125 7.8125 59.421875 
L 7.8125 69.390625 
Q 13.765625 71.78125 18.9375 73 
Q 24.125 74.21875 28.421875 74.21875 
Q 39.75 74.21875 46.484375 68.546875 
Q 53.21875 62.890625 53.21875 53.421875 
Q 53.21875 48.921875 51.53125 44.890625 
Q 49.859375 40.875 45.40625 35.40625 
Q 44.1875 33.984375 37.640625 27.21875 
Q 31.109375 20.453125 19.1875 8.296875 
" id="DejaVuSans-32"/>
      </defs>
      <g transform="translate(482.553202 392.598437)scale(0.1 -0.1)">
       <use xlink:href="#DejaVuSans-32"/>
       <use x="63.623047" xlink:href="#DejaVuSans-30"/>
      </g>
     </g>
    </g>
    <g id="xtick_6">
     <g id="line2d_11">
      <path clip-path="url(#p1d41e2d096)" d="M 581.147107 378 
L 581.147107 51.84 
" style="fill:none;stroke:#b0b0b0;stroke-linecap:square;stroke-width:0.8;"/>
     </g>
     <g id="line2d_12">
      <g>
       <use style="stroke:#000000;stroke-width:0.8;" x="581.147107" xlink:href="#mf6609a1f6f" y="378"/>
      </g>
     </g>
     <g id="text_6">
      <!-- 25 -->
      <g transform="translate(574.784607 392.598437)scale(0.1 -0.1)">
       <use xlink:href="#DejaVuSans-32"/>
       <use x="63.623047" xlink:href="#DejaVuSans-35"/>
      </g>
     </g>
    </g>
    <g id="xtick_7">
     <g id="line2d_13">
      <path clip-path="url(#p1d41e2d096)" d="M 673.378512 378 
L 673.378512 51.84 
" style="fill:none;stroke:#b0b0b0;stroke-linecap:square;stroke-width:0.8;"/>
     </g>
     <g id="line2d_14">
      <g>
       <use style="stroke:#000000;stroke-width:0.8;" x="673.378512" xlink:href="#mf6609a1f6f" y="378"/>
      </g>
     </g>
     <g id="text_7">
      <!-- 30 -->
      <defs>
       <path d="M 40.578125 39.3125 
Q 47.65625 37.796875 51.625 33 
Q 55.609375 28.21875 55.609375 21.1875 
Q 55.609375 10.40625 48.1875 4.484375 
Q 40.765625 -1.421875 27.09375 -1.421875 
Q 22.515625 -1.421875 17.65625 -0.515625 
Q 12.796875 0.390625 7.625 2.203125 
L 7.625 11.71875 
Q 11.71875 9.328125 16.59375 8.109375 
Q 21.484375 6.890625 26.8125 6.890625 
Q 36.078125 6.890625 40.9375 10.546875 
Q 45.796875 14.203125 45.796875 21.1875 
Q 45.796875 27.640625 41.28125 31.265625 
Q 36.765625 34.90625 28.71875 34.90625 
L 20.21875 34.90625 
L 20.21875 43.015625 
L 29.109375 43.015625 
Q 36.375 43.015625 40.234375 45.921875 
Q 44.09375 48.828125 44.09375 54.296875 
Q 44.09375 59.90625 40.109375 62.90625 
Q 36.140625 65.921875 28.71875 65.921875 
Q 24.65625 65.921875 20.015625 65.03125 
Q 15.375 64.15625 9.8125 62.3125 
L 9.8125 71.09375 
Q 15.4375 72.65625 20.34375 73.4375 
Q 25.25 74.21875 29.59375 74.21875 
Q 40.828125 74.21875 47.359375 69.109375 
Q 53.90625 64.015625 53.90625 55.328125 
Q 53.90625 49.265625 50.4375 45.09375 
Q 46.96875 40.921875 40.578125 39.3125 
" id="DejaVuSans-33"/>
      </defs>
      <g transform="translate(667.016012 392.598437)scale(0.1 -0.1)">
       <use xlink:href="#DejaVuSans-33"/>
       <use x="63.623047" xlink:href="#DejaVuSans-30"/>
      </g>
     </g>
    </g>
    <g id="xtick_8">
     <g id="line2d_15">
      <path clip-path="url(#p1d41e2d096)" d="M 765.609917 378 
L 765.609917 51.84 
" style="fill:none;stroke:#b0b0b0;stroke-linecap:square;stroke-width:0.8;"/>
     </g>
     <g id="line2d_16">
      <g>
       <use style="stroke:#000000;stroke-width:0.8;" x="765.609917" xlink:href="#mf6609a1f6f" y="378"/>
      </g>
     </g>
     <g id="text_8">
      <!-- 35 -->
      <g transform="translate(759.247417 392.598437)scale(0.1 -0.1)">
       <use xlink:href="#DejaVuSans-33"/>
       <use x="63.623047" xlink:href="#DejaVuSans-35"/>
      </g>
     </g>
    </g>
    <g id="text_9">
     <!-- Epoch number -->
     <defs>
      <path d="M 9.8125 72.90625 
L 55.90625 72.90625 
L 55.90625 64.59375 
L 19.671875 64.59375 
L 19.671875 43.015625 
L 54.390625 43.015625 
L 54.390625 34.71875 
L 19.671875 34.71875 
L 19.671875 8.296875 
L 56.78125 8.296875 
L 56.78125 0 
L 9.8125 0 
z
" id="DejaVuSans-45"/>
      <path d="M 18.109375 8.203125 
L 18.109375 -20.796875 
L 9.078125 -20.796875 
L 9.078125 54.6875 
L 18.109375 54.6875 
L 18.109375 46.390625 
Q 20.953125 51.265625 25.265625 53.625 
Q 29.59375 56 35.59375 56 
Q 45.5625 56 51.78125 48.09375 
Q 58.015625 40.1875 58.015625 27.296875 
Q 58.015625 14.40625 51.78125 6.484375 
Q 45.5625 -1.421875 35.59375 -1.421875 
Q 29.59375 -1.421875 25.265625 0.953125 
Q 20.953125 3.328125 18.109375 8.203125 
M 48.6875 27.296875 
Q 48.6875 37.203125 44.609375 42.84375 
Q 40.53125 48.484375 33.40625 48.484375 
Q 26.265625 48.484375 22.1875 42.84375 
Q 18.109375 37.203125 18.109375 27.296875 
Q 18.109375 17.390625 22.1875 11.75 
Q 26.265625 6.109375 33.40625 6.109375 
Q 40.53125 6.109375 44.609375 11.75 
Q 48.6875 17.390625 48.6875 27.296875 
" id="DejaVuSans-70"/>
      <path d="M 30.609375 48.390625 
Q 23.390625 48.390625 19.1875 42.75 
Q 14.984375 37.109375 14.984375 27.296875 
Q 14.984375 17.484375 19.15625 11.84375 
Q 23.34375 6.203125 30.609375 6.203125 
Q 37.796875 6.203125 41.984375 11.859375 
Q 46.1875 17.53125 46.1875 27.296875 
Q 46.1875 37.015625 41.984375 42.703125 
Q 37.796875 48.390625 30.609375 48.390625 
M 30.609375 56 
Q 42.328125 56 49.015625 48.375 
Q 55.71875 40.765625 55.71875 27.296875 
Q 55.71875 13.875 49.015625 6.21875 
Q 42.328125 -1.421875 30.609375 -1.421875 
Q 18.84375 -1.421875 12.171875 6.21875 
Q 5.515625 13.875 5.515625 27.296875 
Q 5.515625 40.765625 12.171875 48.375 
Q 18.84375 56 30.609375 56 
" id="DejaVuSans-6f"/>
      <path d="M 48.78125 52.59375 
L 48.78125 44.1875 
Q 44.96875 46.296875 41.140625 47.34375 
Q 37.3125 48.390625 33.40625 48.390625 
Q 24.65625 48.390625 19.8125 42.84375 
Q 14.984375 37.3125 14.984375 27.296875 
Q 14.984375 17.28125 19.8125 11.734375 
Q 24.65625 6.203125 33.40625 6.203125 
Q 37.3125 6.203125 41.140625 7.25 
Q 44.96875 8.296875 48.78125 10.40625 
L 48.78125 2.09375 
Q 45.015625 0.34375 40.984375 -0.53125 
Q 36.96875 -1.421875 32.421875 -1.421875 
Q 20.0625 -1.421875 12.78125 6.34375 
Q 5.515625 14.109375 5.515625 27.296875 
Q 5.515625 40.671875 12.859375 48.328125 
Q 20.21875 56 33.015625 56 
Q 37.15625 56 41.109375 55.140625 
Q 45.0625 54.296875 48.78125 52.59375 
" id="DejaVuSans-63"/>
      <path d="M 54.890625 33.015625 
L 54.890625 0 
L 45.90625 0 
L 45.90625 32.71875 
Q 45.90625 40.484375 42.875 44.328125 
Q 39.84375 48.1875 33.796875 48.1875 
Q 26.515625 48.1875 22.3125 43.546875 
Q 18.109375 38.921875 18.109375 30.90625 
L 18.109375 0 
L 9.078125 0 
L 9.078125 75.984375 
L 18.109375 75.984375 
L 18.109375 46.1875 
Q 21.34375 51.125 25.703125 53.5625 
Q 30.078125 56 35.796875 56 
Q 45.21875 56 50.046875 50.171875 
Q 54.890625 44.34375 54.890625 33.015625 
" id="DejaVuSans-68"/>
      <path id="DejaVuSans-20"/>
      <path d="M 54.890625 33.015625 
L 54.890625 0 
L 45.90625 0 
L 45.90625 32.71875 
Q 45.90625 40.484375 42.875 44.328125 
Q 39.84375 48.1875 33.796875 48.1875 
Q 26.515625 48.1875 22.3125 43.546875 
Q 18.109375 38.921875 18.109375 30.90625 
L 18.109375 0 
L 9.078125 0 
L 9.078125 54.6875 
L 18.109375 54.6875 
L 18.109375 46.1875 
Q 21.34375 51.125 25.703125 53.5625 
Q 30.078125 56 35.796875 56 
Q 45.21875 56 50.046875 50.171875 
Q 54.890625 44.34375 54.890625 33.015625 
" id="DejaVuSans-6e"/>
      <path d="M 8.5 21.578125 
L 8.5 54.6875 
L 17.484375 54.6875 
L 17.484375 21.921875 
Q 17.484375 14.15625 20.5 10.265625 
Q 23.53125 6.390625 29.59375 6.390625 
Q 36.859375 6.390625 41.078125 11.03125 
Q 45.3125 15.671875 45.3125 23.6875 
L 45.3125 54.6875 
L 54.296875 54.6875 
L 54.296875 0 
L 45.3125 0 
L 45.3125 8.40625 
Q 42.046875 3.421875 37.71875 1 
Q 33.40625 -1.421875 27.6875 -1.421875 
Q 18.265625 -1.421875 13.375 4.4375 
Q 8.5 10.296875 8.5 21.578125 
M 31.109375 56 
z
" id="DejaVuSans-75"/>
      <path d="M 52 44.1875 
Q 55.375 50.25 60.0625 53.125 
Q 64.75 56 71.09375 56 
Q 79.640625 56 84.28125 50.015625 
Q 88.921875 44.046875 88.921875 33.015625 
L 88.921875 0 
L 79.890625 0 
L 79.890625 32.71875 
Q 79.890625 40.578125 77.09375 44.375 
Q 74.3125 48.1875 68.609375 48.1875 
Q 61.625 48.1875 57.5625 43.546875 
Q 53.515625 38.921875 53.515625 30.90625 
L 53.515625 0 
L 44.484375 0 
L 44.484375 32.71875 
Q 44.484375 40.625 41.703125 44.40625 
Q 38.921875 48.1875 33.109375 48.1875 
Q 26.21875 48.1875 22.15625 43.53125 
Q 18.109375 38.875 18.109375 30.90625 
L 18.109375 0 
L 9.078125 0 
L 9.078125 54.6875 
L 18.109375 54.6875 
L 18.109375 46.1875 
Q 21.1875 51.21875 25.484375 53.609375 
Q 29.78125 56 35.6875 56 
Q 41.65625 56 45.828125 52.96875 
Q 50 49.953125 52 44.1875 
" id="DejaVuSans-6d"/>
      <path d="M 48.6875 27.296875 
Q 48.6875 37.203125 44.609375 42.84375 
Q 40.53125 48.484375 33.40625 48.484375 
Q 26.265625 48.484375 22.1875 42.84375 
Q 18.109375 37.203125 18.109375 27.296875 
Q 18.109375 17.390625 22.1875 11.75 
Q 26.265625 6.109375 33.40625 6.109375 
Q 40.53125 6.109375 44.609375 11.75 
Q 48.6875 17.390625 48.6875 27.296875 
M 18.109375 46.390625 
Q 20.953125 51.265625 25.265625 53.625 
Q 29.59375 56 35.59375 56 
Q 45.5625 56 51.78125 48.09375 
Q 58.015625 40.1875 58.015625 27.296875 
Q 58.015625 14.40625 51.78125 6.484375 
Q 45.5625 -1.421875 35.59375 -1.421875 
Q 29.59375 -1.421875 25.265625 0.953125 
Q 20.953125 3.328125 18.109375 8.203125 
L 18.109375 0 
L 9.078125 0 
L 9.078125 75.984375 
L 18.109375 75.984375 
z
" id="DejaVuSans-62"/>
      <path d="M 56.203125 29.59375 
L 56.203125 25.203125 
L 14.890625 25.203125 
Q 15.484375 15.921875 20.484375 11.0625 
Q 25.484375 6.203125 34.421875 6.203125 
Q 39.59375 6.203125 44.453125 7.46875 
Q 49.3125 8.734375 54.109375 11.28125 
L 54.109375 2.78125 
Q 49.265625 0.734375 44.1875 -0.34375 
Q 39.109375 -1.421875 33.890625 -1.421875 
Q 20.796875 -1.421875 13.15625 6.1875 
Q 5.515625 13.8125 5.515625 26.8125 
Q 5.515625 40.234375 12.765625 48.109375 
Q 20.015625 56 32.328125 56 
Q 43.359375 56 49.78125 48.890625 
Q 56.203125 41.796875 56.203125 29.59375 
M 47.21875 32.234375 
Q 47.125 39.59375 43.09375 43.984375 
Q 39.0625 48.390625 32.421875 48.390625 
Q 24.90625 48.390625 20.390625 44.140625 
Q 15.875 39.890625 15.1875 32.171875 
z
" id="DejaVuSans-65"/>
      <path d="M 41.109375 46.296875 
Q 39.59375 47.171875 37.8125 47.578125 
Q 36.03125 48 33.890625 48 
Q 26.265625 48 22.1875 43.046875 
Q 18.109375 38.09375 18.109375 28.8125 
L 18.109375 0 
L 9.078125 0 
L 9.078125 54.6875 
L 18.109375 54.6875 
L 18.109375 46.1875 
Q 20.953125 51.171875 25.484375 53.578125 
Q 30.03125 56 36.53125 56 
Q 37.453125 56 38.578125 55.875 
Q 39.703125 55.765625 41.0625 55.515625 
z
" id="DejaVuSans-72"/>
     </defs>
     <g transform="translate(406.385938 406.276563)scale(0.1 -0.1)">
      <use xlink:href="#DejaVuSans-45"/>
      <use x="63.183594" xlink:href="#DejaVuSans-70"/>
      <use x="126.660156" xlink:href="#DejaVuSans-6f"/>
      <use x="187.841797" xlink:href="#DejaVuSans-63"/>
      <use x="242.822266" xlink:href="#DejaVuSans-68"/>
      <use x="306.201172" xlink:href="#DejaVuSans-20"/>
      <use x="337.988281" xlink:href="#DejaVuSans-6e"/>
      <use x="401.367188" xlink:href="#DejaVuSans-75"/>
      <use x="464.746094" xlink:href="#DejaVuSans-6d"/>
      <use x="562.158203" xlink:href="#DejaVuSans-62"/>
      <use x="625.634766" xlink:href="#DejaVuSans-65"/>
      <use x="687.158203" xlink:href="#DejaVuSans-72"/>
     </g>
    </g>
   </g>
   <g id="matplotlib.axis_2">
    <g id="ytick_1">
     <g id="line2d_17">
      <path clip-path="url(#p1d41e2d096)" d="M 108 351.95224 
L 777.6 351.95224 
" style="fill:none;stroke:#b0b0b0;stroke-linecap:square;stroke-width:0.8;"/>
     </g>
     <g id="line2d_18">
      <defs>
       <path d="M 0 0 
L -3.5 0 
" id="mba232b74ee" style="stroke:#000000;stroke-width:0.8;"/>
      </defs>
      <g>
       <use style="stroke:#000000;stroke-width:0.8;" x="108" xlink:href="#mba232b74ee" y="351.95224"/>
      </g>
     </g>
     <g id="text_10">
      <!-- 0.200 -->
      <defs>
       <path d="M 10.6875 12.40625 
L 21 12.40625 
L 21 0 
L 10.6875 0 
z
" id="DejaVuSans-2e"/>
      </defs>
      <g transform="translate(72.371875 355.751458)scale(0.1 -0.1)">
       <use xlink:href="#DejaVuSans-30"/>
       <use x="63.623047" xlink:href="#DejaVuSans-2e"/>
       <use x="95.410156" xlink:href="#DejaVuSans-32"/>
       <use x="159.033203" xlink:href="#DejaVuSans-30"/>
       <use x="222.65625" xlink:href="#DejaVuSans-30"/>
      </g>
     </g>
    </g>
    <g id="ytick_2">
     <g id="line2d_19">
      <path clip-path="url(#p1d41e2d096)" d="M 108 311.87261 
L 777.6 311.87261 
" style="fill:none;stroke:#b0b0b0;stroke-linecap:square;stroke-width:0.8;"/>
     </g>
     <g id="line2d_20">
      <g>
       <use style="stroke:#000000;stroke-width:0.8;" x="108" xlink:href="#mba232b74ee" y="311.87261"/>
      </g>
     </g>
     <g id="text_11">
      <!-- 0.225 -->
      <g transform="translate(72.371875 315.671829)scale(0.1 -0.1)">
       <use xlink:href="#DejaVuSans-30"/>
       <use x="63.623047" xlink:href="#DejaVuSans-2e"/>
       <use x="95.410156" xlink:href="#DejaVuSans-32"/>
       <use x="159.033203" xlink:href="#DejaVuSans-32"/>
       <use x="222.65625" xlink:href="#DejaVuSans-35"/>
      </g>
     </g>
    </g>
    <g id="ytick_3">
     <g id="line2d_21">
      <path clip-path="url(#p1d41e2d096)" d="M 108 271.79298 
L 777.6 271.79298 
" style="fill:none;stroke:#b0b0b0;stroke-linecap:square;stroke-width:0.8;"/>
     </g>
     <g id="line2d_22">
      <g>
       <use style="stroke:#000000;stroke-width:0.8;" x="108" xlink:href="#mba232b74ee" y="271.79298"/>
      </g>
     </g>
     <g id="text_12">
      <!-- 0.250 -->
      <g transform="translate(72.371875 275.592199)scale(0.1 -0.1)">
       <use xlink:href="#DejaVuSans-30"/>
       <use x="63.623047" xlink:href="#DejaVuSans-2e"/>
       <use x="95.410156" xlink:href="#DejaVuSans-32"/>
       <use x="159.033203" xlink:href="#DejaVuSans-35"/>
       <use x="222.65625" xlink:href="#DejaVuSans-30"/>
      </g>
     </g>
    </g>
    <g id="ytick_4">
     <g id="line2d_23">
      <path clip-path="url(#p1d41e2d096)" d="M 108 231.71335 
L 777.6 231.71335 
" style="fill:none;stroke:#b0b0b0;stroke-linecap:square;stroke-width:0.8;"/>
     </g>
     <g id="line2d_24">
      <g>
       <use style="stroke:#000000;stroke-width:0.8;" x="108" xlink:href="#mba232b74ee" y="231.71335"/>
      </g>
     </g>
     <g id="text_13">
      <!-- 0.275 -->
      <defs>
       <path d="M 8.203125 72.90625 
L 55.078125 72.90625 
L 55.078125 68.703125 
L 28.609375 0 
L 18.3125 0 
L 43.21875 64.59375 
L 8.203125 64.59375 
z
" id="DejaVuSans-37"/>
      </defs>
      <g transform="translate(72.371875 235.512569)scale(0.1 -0.1)">
       <use xlink:href="#DejaVuSans-30"/>
       <use x="63.623047" xlink:href="#DejaVuSans-2e"/>
       <use x="95.410156" xlink:href="#DejaVuSans-32"/>
       <use x="159.033203" xlink:href="#DejaVuSans-37"/>
       <use x="222.65625" xlink:href="#DejaVuSans-35"/>
      </g>
     </g>
    </g>
    <g id="ytick_5">
     <g id="line2d_25">
      <path clip-path="url(#p1d41e2d096)" d="M 108 191.63372 
L 777.6 191.63372 
" style="fill:none;stroke:#b0b0b0;stroke-linecap:square;stroke-width:0.8;"/>
     </g>
     <g id="line2d_26">
      <g>
       <use style="stroke:#000000;stroke-width:0.8;" x="108" xlink:href="#mba232b74ee" y="191.63372"/>
      </g>
     </g>
     <g id="text_14">
      <!-- 0.300 -->
      <g transform="translate(72.371875 195.432939)scale(0.1 -0.1)">
       <use xlink:href="#DejaVuSans-30"/>
       <use x="63.623047" xlink:href="#DejaVuSans-2e"/>
       <use x="95.410156" xlink:href="#DejaVuSans-33"/>
       <use x="159.033203" xlink:href="#DejaVuSans-30"/>
       <use x="222.65625" xlink:href="#DejaVuSans-30"/>
      </g>
     </g>
    </g>
    <g id="ytick_6">
     <g id="line2d_27">
      <path clip-path="url(#p1d41e2d096)" d="M 108 151.554091 
L 777.6 151.554091 
" style="fill:none;stroke:#b0b0b0;stroke-linecap:square;stroke-width:0.8;"/>
     </g>
     <g id="line2d_28">
      <g>
       <use style="stroke:#000000;stroke-width:0.8;" x="108" xlink:href="#mba232b74ee" y="151.554091"/>
      </g>
     </g>
     <g id="text_15">
      <!-- 0.325 -->
      <g transform="translate(72.371875 155.353309)scale(0.1 -0.1)">
       <use xlink:href="#DejaVuSans-30"/>
       <use x="63.623047" xlink:href="#DejaVuSans-2e"/>
       <use x="95.410156" xlink:href="#DejaVuSans-33"/>
       <use x="159.033203" xlink:href="#DejaVuSans-32"/>
       <use x="222.65625" xlink:href="#DejaVuSans-35"/>
      </g>
     </g>
    </g>
    <g id="ytick_7">
     <g id="line2d_29">
      <path clip-path="url(#p1d41e2d096)" d="M 108 111.474461 
L 777.6 111.474461 
" style="fill:none;stroke:#b0b0b0;stroke-linecap:square;stroke-width:0.8;"/>
     </g>
     <g id="line2d_30">
      <g>
       <use style="stroke:#000000;stroke-width:0.8;" x="108" xlink:href="#mba232b74ee" y="111.474461"/>
      </g>
     </g>
     <g id="text_16">
      <!-- 0.350 -->
      <g transform="translate(72.371875 115.27368)scale(0.1 -0.1)">
       <use xlink:href="#DejaVuSans-30"/>
       <use x="63.623047" xlink:href="#DejaVuSans-2e"/>
       <use x="95.410156" xlink:href="#DejaVuSans-33"/>
       <use x="159.033203" xlink:href="#DejaVuSans-35"/>
       <use x="222.65625" xlink:href="#DejaVuSans-30"/>
      </g>
     </g>
    </g>
    <g id="ytick_8">
     <g id="line2d_31">
      <path clip-path="url(#p1d41e2d096)" d="M 108 71.394831 
L 777.6 71.394831 
" style="fill:none;stroke:#b0b0b0;stroke-linecap:square;stroke-width:0.8;"/>
     </g>
     <g id="line2d_32">
      <g>
       <use style="stroke:#000000;stroke-width:0.8;" x="108" xlink:href="#mba232b74ee" y="71.394831"/>
      </g>
     </g>
     <g id="text_17">
      <!-- 0.375 -->
      <g transform="translate(72.371875 75.19405)scale(0.1 -0.1)">
       <use xlink:href="#DejaVuSans-30"/>
       <use x="63.623047" xlink:href="#DejaVuSans-2e"/>
       <use x="95.410156" xlink:href="#DejaVuSans-33"/>
       <use x="159.033203" xlink:href="#DejaVuSans-37"/>
       <use x="222.65625" xlink:href="#DejaVuSans-35"/>
      </g>
     </g>
    </g>
    <g id="text_18">
     <!-- Training Accuracy -->
     <defs>
      <path d="M -0.296875 72.90625 
L 61.375 72.90625 
L 61.375 64.59375 
L 35.5 64.59375 
L 35.5 0 
L 25.59375 0 
L 25.59375 64.59375 
L -0.296875 64.59375 
z
" id="DejaVuSans-54"/>
      <path d="M 34.28125 27.484375 
Q 23.390625 27.484375 19.1875 25 
Q 14.984375 22.515625 14.984375 16.5 
Q 14.984375 11.71875 18.140625 8.90625 
Q 21.296875 6.109375 26.703125 6.109375 
Q 34.1875 6.109375 38.703125 11.40625 
Q 43.21875 16.703125 43.21875 25.484375 
L 43.21875 27.484375 
z
M 52.203125 31.203125 
L 52.203125 0 
L 43.21875 0 
L 43.21875 8.296875 
Q 40.140625 3.328125 35.546875 0.953125 
Q 30.953125 -1.421875 24.3125 -1.421875 
Q 15.921875 -1.421875 10.953125 3.296875 
Q 6 8.015625 6 15.921875 
Q 6 25.140625 12.171875 29.828125 
Q 18.359375 34.515625 30.609375 34.515625 
L 43.21875 34.515625 
L 43.21875 35.40625 
Q 43.21875 41.609375 39.140625 45 
Q 35.0625 48.390625 27.6875 48.390625 
Q 23 48.390625 18.546875 47.265625 
Q 14.109375 46.140625 10.015625 43.890625 
L 10.015625 52.203125 
Q 14.9375 54.109375 19.578125 55.046875 
Q 24.21875 56 28.609375 56 
Q 40.484375 56 46.34375 49.84375 
Q 52.203125 43.703125 52.203125 31.203125 
" id="DejaVuSans-61"/>
      <path d="M 9.421875 54.6875 
L 18.40625 54.6875 
L 18.40625 0 
L 9.421875 0 
z
M 9.421875 75.984375 
L 18.40625 75.984375 
L 18.40625 64.59375 
L 9.421875 64.59375 
z
" id="DejaVuSans-69"/>
      <path d="M 45.40625 27.984375 
Q 45.40625 37.75 41.375 43.109375 
Q 37.359375 48.484375 30.078125 48.484375 
Q 22.859375 48.484375 18.828125 43.109375 
Q 14.796875 37.75 14.796875 27.984375 
Q 14.796875 18.265625 18.828125 12.890625 
Q 22.859375 7.515625 30.078125 7.515625 
Q 37.359375 7.515625 41.375 12.890625 
Q 45.40625 18.265625 45.40625 27.984375 
M 54.390625 6.78125 
Q 54.390625 -7.171875 48.1875 -13.984375 
Q 42 -20.796875 29.203125 -20.796875 
Q 24.46875 -20.796875 20.265625 -20.09375 
Q 16.0625 -19.390625 12.109375 -17.921875 
L 12.109375 -9.1875 
Q 16.0625 -11.328125 19.921875 -12.34375 
Q 23.78125 -13.375 27.78125 -13.375 
Q 36.625 -13.375 41.015625 -8.765625 
Q 45.40625 -4.15625 45.40625 5.171875 
L 45.40625 9.625 
Q 42.625 4.78125 38.28125 2.390625 
Q 33.9375 0 27.875 0 
Q 17.828125 0 11.671875 7.65625 
Q 5.515625 15.328125 5.515625 27.984375 
Q 5.515625 40.671875 11.671875 48.328125 
Q 17.828125 56 27.875 56 
Q 33.9375 56 38.28125 53.609375 
Q 42.625 51.21875 45.40625 46.390625 
L 45.40625 54.6875 
L 54.390625 54.6875 
z
" id="DejaVuSans-67"/>
      <path d="M 34.1875 63.1875 
L 20.796875 26.90625 
L 47.609375 26.90625 
z
M 28.609375 72.90625 
L 39.796875 72.90625 
L 67.578125 0 
L 57.328125 0 
L 50.6875 18.703125 
L 17.828125 18.703125 
L 11.1875 0 
L 0.78125 0 
z
" id="DejaVuSans-41"/>
      <path d="M 32.171875 -5.078125 
Q 28.375 -14.84375 24.75 -17.8125 
Q 21.140625 -20.796875 15.09375 -20.796875 
L 7.90625 -20.796875 
L 7.90625 -13.28125 
L 13.1875 -13.28125 
Q 16.890625 -13.28125 18.9375 -11.515625 
Q 21 -9.765625 23.484375 -3.21875 
L 25.09375 0.875 
L 2.984375 54.6875 
L 12.5 54.6875 
L 29.59375 11.921875 
L 46.6875 54.6875 
L 56.203125 54.6875 
z
" id="DejaVuSans-79"/>
     </defs>
     <g transform="translate(66.292187 259.87625)rotate(-90)scale(0.1 -0.1)">
      <use xlink:href="#DejaVuSans-54"/>
      <use x="60.865234" xlink:href="#DejaVuSans-72"/>
      <use x="101.978516" xlink:href="#DejaVuSans-61"/>
      <use x="163.257812" xlink:href="#DejaVuSans-69"/>
      <use x="191.041016" xlink:href="#DejaVuSans-6e"/>
      <use x="254.419922" xlink:href="#DejaVuSans-69"/>
      <use x="282.203125" xlink:href="#DejaVuSans-6e"/>
      <use x="345.582031" xlink:href="#DejaVuSans-67"/>
      <use x="409.058594" xlink:href="#DejaVuSans-20"/>
      <use x="440.845703" xlink:href="#DejaVuSans-41"/>
      <use x="509.238281" xlink:href="#DejaVuSans-63"/>
      <use x="564.21875" xlink:href="#DejaVuSans-63"/>
      <use x="619.199219" xlink:href="#DejaVuSans-75"/>
      <use x="682.578125" xlink:href="#DejaVuSans-72"/>
      <use x="723.691406" xlink:href="#DejaVuSans-61"/>
      <use x="784.970703" xlink:href="#DejaVuSans-63"/>
      <use x="839.951172" xlink:href="#DejaVuSans-79"/>
     </g>
    </g>
   </g>
   <g id="line2d_33">
    <path clip-path="url(#p1d41e2d096)" d="M 138.436364 89.270365 
L 156.882645 86.063995 
L 175.328926 81.895713 
L 193.775207 81.414758 
L 212.221488 77.446875 
L 230.667769 72.877797 
L 249.11405 76.444883 
L 267.560331 77.046078 
L 286.006612 75.162337 
L 304.452893 70.5131 
L 322.899174 74.120265 
L 341.345455 71.915885 
L 359.791736 75.402815 
L 378.238017 71.314692 
L 396.684298 71.434931 
L 415.130579 71.314693 
L 433.57686 74.60122 
L 452.02314 73.318674 
L 470.469421 72.396841 
L 488.915702 72.59724 
L 507.361983 72.356763 
L 525.808264 69.551189 
L 544.254545 71.515092 
L 562.700826 70.713496 
L 581.147107 70.432939 
L 599.593388 71.875806 
L 618.039669 72.436922 
L 636.48595 71.394851 
L 654.932231 71.835727 
L 673.378512 67.707526 
L 691.824793 70.232541 
L 710.271074 69.671427 
L 728.717355 72.356761 
L 747.163636 66.665455 
" style="fill:none;stroke:#d3d3d3;stroke-linecap:square;stroke-width:1.5;"/>
   </g>
   <g id="line2d_34">
    <path clip-path="url(#p1d41e2d096)" d="M 138.436364 101.334332 
L 156.882645 89.110047 
L 175.328926 84.300492 
L 193.775207 80.893723 
L 212.221488 81.655236 
L 230.667769 79.13022 
L 249.11405 76.364726 
L 267.560331 78.328626 
L 286.006612 73.438912 
L 304.452893 75.683373 
L 322.899174 74.400823 
L 341.345455 75.282574 
L 359.791736 73.919867 
L 378.238017 72.356763 
L 396.684298 72.116287 
L 415.130579 77.607193 
L 433.57686 76.965918 
L 452.02314 70.673418 
L 470.469421 69.831746 
L 488.915702 74.400823 
L 507.361983 74.200426 
L 525.808264 71.635328 
L 544.254545 69.911905 
L 562.700826 73.59923 
L 581.147107 73.839708 
L 599.593388 71.074214 
L 618.039669 70.47302 
L 636.48595 74.641301 
L 654.932231 70.192462 
L 673.378512 72.957956 
L 691.824793 72.196445 
L 710.271074 67.948002 
L 728.717355 69.551188 
L 747.163636 73.679389 
" style="fill:none;stroke:#1f77b4;stroke-linecap:square;stroke-width:1.5;"/>
   </g>
   <g id="line2d_35">
    <path clip-path="url(#p1d41e2d096)" d="M 138.436364 105.141898 
L 156.882645 95.121991 
L 175.328926 89.751322 
L 193.775207 81.815555 
L 212.221488 83.138182 
L 230.667769 81.134202 
L 249.11405 81.935794 
L 267.560331 78.769503 
L 286.006612 81.454838 
L 304.452893 79.00998 
L 322.899174 80.372687 
L 341.345455 78.769503 
L 359.791736 78.12823 
L 378.238017 76.925839 
L 396.684298 75.202417 
L 415.130579 74.76154 
L 433.57686 77.807592 
L 452.02314 77.607194 
L 470.469421 76.164327 
L 488.915702 73.398833 
L 507.361983 74.000027 
L 525.808264 71.354772 
L 544.254545 74.240505 
L 562.700826 72.877797 
L 581.147107 71.715486 
L 599.593388 72.356763 
L 618.039669 75.002018 
L 636.48595 73.078196 
L 654.932231 72.59724 
L 673.378512 71.475011 
L 691.824793 71.074213 
L 710.271074 72.55716 
L 728.717355 69.871825 
L 747.163636 70.673417 
" style="fill:none;stroke:#ff7f0e;stroke-linecap:square;stroke-width:1.5;"/>
   </g>
   <g id="line2d_36">
    <path clip-path="url(#p1d41e2d096)" d="M 138.436364 133.357956 
L 156.882645 113.438381 
L 175.328926 103.81927 
L 193.775207 96.043823 
L 212.221488 89.310444 
L 230.667769 89.991799 
L 249.11405 83.33858 
L 267.560331 82.817546 
L 286.006612 78.328626 
L 304.452893 82.416748 
L 322.899174 78.609184 
L 341.345455 80.452847 
L 359.791736 75.402814 
L 378.238017 76.88576 
L 396.684298 77.246477 
L 415.130579 71.114293 
L 433.57686 78.809583 
L 452.02314 75.242496 
L 470.469421 74.120265 
L 488.915702 74.681382 
L 507.361983 73.038115 
L 525.808264 74.881779 
L 544.254545 74.360744 
L 562.700826 72.998037 
L 581.147107 72.51708 
L 599.593388 72.036126 
L 618.039669 71.795647 
L 636.48595 75.402814 
L 654.932231 71.795649 
L 673.378512 75.202417 
L 691.824793 69.871825 
L 710.271074 71.595248 
L 728.717355 69.35079 
L 747.163636 72.236523 
" style="fill:none;stroke:#2ca02c;stroke-linecap:square;stroke-width:1.5;"/>
   </g>
   <g id="line2d_37">
    <path clip-path="url(#p1d41e2d096)" d="M 138.436364 147.465986 
L 156.882645 110.031613 
L 175.328926 94.16008 
L 193.775207 87.546942 
L 212.221488 83.979855 
L 230.667769 80.573087 
L 249.11405 77.326636 
L 267.560331 76.885761 
L 286.006612 80.252449 
L 304.452893 76.404805 
L 322.899174 75.963928 
L 341.345455 76.725441 
L 359.791736 74.360744 
L 378.238017 74.601222 
L 396.684298 75.643291 
L 415.130579 76.925841 
L 433.57686 77.005998 
L 452.02314 74.160345 
L 470.469421 77.727433 
L 488.915702 77.246476 
L 507.361983 75.202415 
L 525.808264 75.002018 
L 544.254545 74.000026 
L 562.700826 72.517081 
L 581.147107 75.402813 
L 599.593388 71.194454 
L 618.039669 71.034134 
L 636.48595 71.715487 
L 654.932231 71.475011 
L 673.378512 69.871824 
L 691.824793 74.801619 
L 710.271074 71.835726 
L 728.717355 71.43493 
L 747.163636 71.234532 
" style="fill:none;stroke:#d62728;stroke-linecap:square;stroke-width:1.5;"/>
   </g>
   <g id="line2d_38">
    <path clip-path="url(#p1d41e2d096)" d="M 138.436364 153.678328 
L 156.882645 125.382111 
L 175.328926 106.865322 
L 193.775207 97.566847 
L 212.221488 97.326371 
L 230.667769 92.757293 
L 249.11405 89.95172 
L 267.560331 87.947737 
L 286.006612 85.863597 
L 304.452893 83.859615 
L 322.899174 80.653244 
L 341.345455 77.005999 
L 359.791736 74.721459 
L 378.238017 75.723451 
L 396.684298 74.120265 
L 415.130579 72.637319 
L 433.57686 72.797639 
L 452.02314 70.633338 
L 470.469421 73.799629 
L 488.915702 70.312702 
L 507.361983 73.478992 
L 525.808264 72.677401 
L 544.254545 70.593259 
L 562.700826 71.194453 
L 581.147107 71.675408 
L 599.593388 70.953976 
L 618.039669 69.992064 
L 636.48595 70.673418 
L 654.932231 71.274612 
L 673.378512 72.637319 
L 691.824793 72.116284 
L 710.271074 67.547207 
L 728.717355 70.192462 
L 747.163636 73.438911 
" style="fill:none;stroke:#9467bd;stroke-linecap:square;stroke-width:1.5;"/>
   </g>
   <g id="line2d_39">
    <path clip-path="url(#p1d41e2d096)" d="M 138.436364 159.329556 
L 156.882645 117.286026 
L 175.328926 101.454572 
L 193.775207 97.967646 
L 212.221488 96.885494 
L 230.667769 95.202151 
L 249.11405 92.957692 
L 267.560331 94.641035 
L 286.006612 89.711241 
L 304.452893 90.472754 
L 322.899174 92.356497 
L 341.345455 91.675143 
L 359.791736 88.188216 
L 378.238017 86.344552 
L 396.684298 84.019934 
L 415.130579 79.771494 
L 433.57686 80.653245 
L 452.02314 80.412767 
L 470.469421 79.09014 
L 488.915702 76.004009 
L 507.361983 76.805602 
L 525.808264 76.685361 
L 544.254545 74.200425 
L 562.700826 73.759548 
L 581.147107 73.118275 
L 599.593388 72.436922 
L 618.039669 70.553179 
L 636.48595 72.59724 
L 654.932231 69.591267 
L 673.378512 69.871826 
L 691.824793 71.074213 
L 710.271074 67.948002 
L 728.717355 69.631348 
L 747.163636 67.346808 
" style="fill:none;stroke:#8c564b;stroke-linecap:square;stroke-width:1.5;"/>
   </g>
   <g id="line2d_40">
    <path clip-path="url(#p1d41e2d096)" d="M 138.436364 166.263332 
L 156.882645 135.482177 
L 175.328926 114.881248 
L 193.775207 105.783172 
L 212.221488 100.372423 
L 230.667769 97.32637 
L 249.11405 99.73115 
L 267.560331 96.645017 
L 286.006612 96.204141 
L 304.452893 93.118009 
L 322.899174 94.200159 
L 341.345455 92.436656 
L 359.791736 88.869568 
L 378.238017 90.312436 
L 396.684298 91.033869 
L 415.130579 87.466781 
L 433.57686 85.262403 
L 452.02314 85.783439 
L 470.469421 85.983837 
L 488.915702 83.138183 
L 507.361983 84.340572 
L 525.808264 82.176271 
L 544.254545 83.579059 
L 562.700826 83.699297 
L 581.147107 77.767514 
L 599.593388 79.25046 
L 618.039669 79.050061 
L 636.48595 78.569105 
L 654.932231 78.08815 
L 673.378512 80.693325 
L 691.824793 81.695316 
L 710.271074 79.250458 
L 728.717355 74.360742 
L 747.163636 74.801619 
" style="fill:none;stroke:#d3d3d3;stroke-linecap:square;stroke-width:1.5;"/>
   </g>
   <g id="line2d_41">
    <path clip-path="url(#p1d41e2d096)" d="M 138.436364 203.377067 
L 156.882645 170.391535 
L 175.328926 156.924779 
L 193.775207 145.181446 
L 212.221488 130.392064 
L 230.667769 119.730883 
L 249.11405 115.282045 
L 267.560331 114.360213 
L 286.006612 111.714957 
L 304.452893 112.51655 
L 322.899174 106.384367 
L 341.345455 106.985562 
L 359.791736 104.701022 
L 378.238017 100.532742 
L 396.684298 100.773219 
L 415.130579 101.895449 
L 433.57686 99.650988 
L 452.02314 97.566849 
L 470.469421 96.003743 
L 488.915702 96.444619 
L 507.361983 97.767246 
L 525.808264 97.246212 
L 544.254545 90.232275 
L 562.700826 91.594983 
L 581.147107 89.831479 
L 599.593388 87.74734 
L 618.039669 87.627101 
L 636.48595 82.21635 
L 654.932231 83.819535 
L 673.378512 81.855634 
L 691.824793 78.529025 
L 710.271074 79.490936 
L 728.717355 76.044088 
L 747.163636 76.92584 
" style="fill:none;stroke:#e377c2;stroke-linecap:square;stroke-width:1.5;"/>
   </g>
   <g id="line2d_42">
    <path clip-path="url(#p1d41e2d096)" d="M 138.436364 229.388747 
L 156.882645 198.807991 
L 175.328926 172.676072 
L 193.775207 154.199365 
L 212.221488 142.456034 
L 230.667769 132.035329 
L 249.11405 124.620597 
L 267.560331 119.971362 
L 286.006612 115.923318 
L 304.452893 115.161807 
L 322.899174 109.270101 
L 341.345455 105.222057 
L 359.791736 104.179988 
L 378.238017 105.181979 
L 396.684298 104.580784 
L 415.130579 104.701022 
L 433.57686 104.179986 
L 452.02314 101.654971 
L 470.469421 100.051787 
L 488.915702 98.52876 
L 507.361983 100.011704 
L 525.808264 100.893458 
L 544.254545 97.32637 
L 562.700826 98.929557 
L 581.147107 97.967645 
L 599.593388 96.965652 
L 618.039669 98.4486 
L 636.48595 94.200161 
L 654.932231 92.316418 
L 673.378512 92.95769 
L 691.824793 93.919602 
L 710.271074 91.915621 
L 728.717355 92.276338 
L 747.163636 87.466783 
" style="fill:none;stroke:#d3d3d3;stroke-linecap:square;stroke-width:1.5;"/>
   </g>
   <g id="line2d_43">
    <path clip-path="url(#p1d41e2d096)" d="M 138.436364 235.761407 
L 156.882645 192.836125 
L 175.328926 177.565788 
L 193.775207 170.632012 
L 212.221488 162.21529 
L 230.667769 155.842628 
L 249.11405 152.556099 
L 267.560331 147.906862 
L 286.006612 143.618341 
L 304.452893 139.890937 
L 322.899174 135.562336 
L 341.345455 129.550392 
L 359.791736 128.428163 
L 378.238017 124.179721 
L 396.684298 122.696776 
L 415.130579 117.045549 
L 433.57686 114.52053 
L 452.02314 114.520533 
L 470.469421 112.035595 
L 488.915702 112.075675 
L 507.361983 109.871295 
L 525.808264 109.670897 
L 544.254545 113.157824 
L 562.700826 112.035594 
L 581.147107 113.759019 
L 599.593388 111.073684 
L 618.039669 111.594721 
L 636.48595 113.197906 
L 654.932231 111.514559 
L 673.378512 109.31018 
L 691.824793 110.712968 
L 710.271074 108.308189 
L 728.717355 108.909383 
L 747.163636 110.913365 
" style="fill:none;stroke:#d3d3d3;stroke-linecap:square;stroke-width:1.5;"/>
   </g>
   <g id="line2d_44">
    <path clip-path="url(#p1d41e2d096)" d="M 138.436364 295.079258 
L 156.882645 235.801488 
L 175.328926 212.675543 
L 193.775207 192.154773 
L 212.221488 182.655899 
L 230.667769 168.587952 
L 249.11405 158.808521 
L 267.560331 152.876736 
L 286.006612 147.706465 
L 304.452893 140.772688 
L 322.899174 134.840903 
L 341.345455 130.83294 
L 359.791736 127.78689 
L 378.238017 125.822988 
L 396.684298 124.139643 
L 415.130579 124.259881 
L 433.57686 121.293989 
L 452.02314 123.458288 
L 470.469421 118.288016 
L 488.915702 117.486423 
L 507.361983 115.923319 
L 525.808264 113.638781 
L 544.254545 113.518541 
L 562.700826 113.55862 
L 581.147107 113.358222 
L 599.593388 109.751056 
L 618.039669 109.270101 
L 636.48595 108.789147 
L 654.932231 108.829225 
L 673.378512 109.831216 
L 691.824793 109.871295 
L 710.271074 106.584765 
L 728.717355 107.626836 
L 747.163636 107.346278 
" style="fill:none;stroke:#d3d3d3;stroke-linecap:square;stroke-width:1.5;"/>
   </g>
   <g id="line2d_45">
    <path clip-path="url(#p1d41e2d096)" d="M 138.436364 310.950791 
L 156.882645 249.628958 
L 175.328926 215.320798 
L 193.775207 195.361143 
L 212.221488 183.938449 
L 230.667769 182.816219 
L 249.11405 177.766186 
L 267.560331 173.838381 
L 286.006612 173.277268 
L 304.452893 170.351455 
L 322.899174 171.674083 
L 341.345455 168.227234 
L 359.791736 167.024846 
L 378.238017 163.417678 
L 396.684298 162.896644 
L 415.130579 161.373617 
L 433.57686 159.008918 
L 452.02314 161.614096 
L 470.469421 158.888681 
L 488.915702 157.004939 
L 507.361983 157.445814 
L 525.808264 156.564062 
L 544.254545 154.60016 
L 562.700826 154.199363 
L 581.147107 152.235463 
L 599.593388 153.678328 
L 618.039669 153.357691 
L 636.48595 152.676338 
L 654.932231 150.992994 
L 673.378512 151.554108 
L 691.824793 147.14535 
L 710.271074 146.94495 
L 728.717355 145.782642 
L 747.163636 146.103278 
" style="fill:none;stroke:#d3d3d3;stroke-linecap:square;stroke-width:1.5;"/>
   </g>
   <g id="line2d_46">
    <path clip-path="url(#p1d41e2d096)" d="M 138.436364 363.174545 
L 156.882645 296.963001 
L 175.328926 249.548801 
L 193.775207 220.170432 
L 212.221488 202.535397 
L 230.667769 193.918275 
L 249.11405 183.858289 
L 267.560331 179.529689 
L 286.006612 176.483638 
L 304.452893 173.597904 
L 322.899174 169.589943 
L 341.345455 166.543889 
L 359.791736 162.375608 
L 378.238017 159.369636 
L 396.684298 157.966849 
L 415.130579 152.195382 
L 433.57686 151.994984 
L 452.02314 149.991004 
L 470.469421 148.387818 
L 488.915702 146.143358 
L 507.361983 145.582245 
L 525.808264 143.698499 
L 544.254545 141.534202 
L 562.700826 136.925043 
L 581.147107 139.570301 
L 599.593388 138.007195 
L 618.039669 136.764725 
L 636.48595 135.882975 
L 654.932231 132.716682 
L 673.378512 132.636523 
L 691.824793 129.510313 
L 710.271074 128.628562 
L 728.717355 126.223784 
L 747.163636 125.542429 
" style="fill:none;stroke:#d3d3d3;stroke-linecap:square;stroke-width:1.5;"/>
   </g>
   <g id="patch_3">
    <path d="M 108 378 
L 108 51.84 
" style="fill:none;stroke:#000000;stroke-linecap:square;stroke-linejoin:miter;stroke-width:0.8;"/>
   </g>
   <g id="patch_4">
    <path d="M 777.6 378 
L 777.6 51.84 
" style="fill:none;stroke:#000000;stroke-linecap:square;stroke-linejoin:miter;stroke-width:0.8;"/>
   </g>
   <g id="patch_5">
    <path d="M 108 378 
L 777.6 378 
" style="fill:none;stroke:#000000;stroke-linecap:square;stroke-linejoin:miter;stroke-width:0.8;"/>
   </g>
   <g id="patch_6">
    <path d="M 108 51.84 
L 777.6 51.84 
" style="fill:none;stroke:#000000;stroke-linecap:square;stroke-linejoin:miter;stroke-width:0.8;"/>
   </g>
   <g id="text_19">
    <!-- Training Accuracy over 35 epochs -->
    <defs>
     <path d="M 2.984375 54.6875 
L 12.5 54.6875 
L 29.59375 8.796875 
L 46.6875 54.6875 
L 56.203125 54.6875 
L 35.6875 0 
L 23.484375 0 
z
" id="DejaVuSans-76"/>
     <path d="M 44.28125 53.078125 
L 44.28125 44.578125 
Q 40.484375 46.53125 36.375 47.5 
Q 32.28125 48.484375 27.875 48.484375 
Q 21.1875 48.484375 17.84375 46.4375 
Q 14.5 44.390625 14.5 40.28125 
Q 14.5 37.15625 16.890625 35.375 
Q 19.28125 33.59375 26.515625 31.984375 
L 29.59375 31.296875 
Q 39.15625 29.25 43.1875 25.515625 
Q 47.21875 21.78125 47.21875 15.09375 
Q 47.21875 7.46875 41.1875 3.015625 
Q 35.15625 -1.421875 24.609375 -1.421875 
Q 20.21875 -1.421875 15.453125 -0.5625 
Q 10.6875 0.296875 5.421875 2 
L 5.421875 11.28125 
Q 10.40625 8.6875 15.234375 7.390625 
Q 20.0625 6.109375 24.8125 6.109375 
Q 31.15625 6.109375 34.5625 8.28125 
Q 37.984375 10.453125 37.984375 14.40625 
Q 37.984375 18.0625 35.515625 20.015625 
Q 33.0625 21.96875 24.703125 23.78125 
L 21.578125 24.515625 
Q 13.234375 26.265625 9.515625 29.90625 
Q 5.8125 33.546875 5.8125 39.890625 
Q 5.8125 47.609375 11.28125 51.796875 
Q 16.75 56 26.8125 56 
Q 31.78125 56 36.171875 55.265625 
Q 40.578125 54.546875 44.28125 53.078125 
" id="DejaVuSans-73"/>
    </defs>
    <g transform="translate(340.716563 45.84)scale(0.12 -0.12)">
     <use xlink:href="#DejaVuSans-54"/>
     <use x="60.865234" xlink:href="#DejaVuSans-72"/>
     <use x="101.978516" xlink:href="#DejaVuSans-61"/>
     <use x="163.257812" xlink:href="#DejaVuSans-69"/>
     <use x="191.041016" xlink:href="#DejaVuSans-6e"/>
     <use x="254.419922" xlink:href="#DejaVuSans-69"/>
     <use x="282.203125" xlink:href="#DejaVuSans-6e"/>
     <use x="345.582031" xlink:href="#DejaVuSans-67"/>
     <use x="409.058594" xlink:href="#DejaVuSans-20"/>
     <use x="440.845703" xlink:href="#DejaVuSans-41"/>
     <use x="509.238281" xlink:href="#DejaVuSans-63"/>
     <use x="564.21875" xlink:href="#DejaVuSans-63"/>
     <use x="619.199219" xlink:href="#DejaVuSans-75"/>
     <use x="682.578125" xlink:href="#DejaVuSans-72"/>
     <use x="723.691406" xlink:href="#DejaVuSans-61"/>
     <use x="784.970703" xlink:href="#DejaVuSans-63"/>
     <use x="839.951172" xlink:href="#DejaVuSans-79"/>
     <use x="899.130859" xlink:href="#DejaVuSans-20"/>
     <use x="930.917969" xlink:href="#DejaVuSans-6f"/>
     <use x="992.099609" xlink:href="#DejaVuSans-76"/>
     <use x="1051.279297" xlink:href="#DejaVuSans-65"/>
     <use x="1112.802734" xlink:href="#DejaVuSans-72"/>
     <use x="1153.916016" xlink:href="#DejaVuSans-20"/>
     <use x="1185.703125" xlink:href="#DejaVuSans-33"/>
     <use x="1249.326172" xlink:href="#DejaVuSans-35"/>
     <use x="1312.949219" xlink:href="#DejaVuSans-20"/>
     <use x="1344.736328" xlink:href="#DejaVuSans-65"/>
     <use x="1406.259766" xlink:href="#DejaVuSans-70"/>
     <use x="1469.736328" xlink:href="#DejaVuSans-6f"/>
     <use x="1530.917969" xlink:href="#DejaVuSans-63"/>
     <use x="1585.898438" xlink:href="#DejaVuSans-68"/>
     <use x="1649.277344" xlink:href="#DejaVuSans-73"/>
    </g>
   </g>
   <g id="legend_1">
    <g id="patch_7">
     <path d="M 670.2625 373 
L 770.6 373 
Q 772.6 373 772.6 371 
L 772.6 269.253125 
Q 772.6 267.253125 770.6 267.253125 
L 670.2625 267.253125 
Q 668.2625 267.253125 668.2625 269.253125 
L 668.2625 371 
Q 668.2625 373 670.2625 373 
z
" style="fill:#ffffff;opacity:0.8;stroke:#cccccc;stroke-linejoin:miter;"/>
    </g>
    <g id="line2d_47">
     <path d="M 672.2625 275.351562 
L 692.2625 275.351562 
" style="fill:none;stroke:#1f77b4;stroke-linecap:square;stroke-width:1.5;"/>
    </g>
    <g id="line2d_48"/>
    <g id="text_20">
     <!-- num steps 3 -->
     <defs>
      <path d="M 18.3125 70.21875 
L 18.3125 54.6875 
L 36.8125 54.6875 
L 36.8125 47.703125 
L 18.3125 47.703125 
L 18.3125 18.015625 
Q 18.3125 11.328125 20.140625 9.421875 
Q 21.96875 7.515625 27.59375 7.515625 
L 36.8125 7.515625 
L 36.8125 0 
L 27.59375 0 
Q 17.1875 0 13.234375 3.875 
Q 9.28125 7.765625 9.28125 18.015625 
L 9.28125 47.703125 
L 2.6875 47.703125 
L 2.6875 54.6875 
L 9.28125 54.6875 
L 9.28125 70.21875 
z
" id="DejaVuSans-74"/>
     </defs>
     <g transform="translate(700.2625 278.851562)scale(0.1 -0.1)">
      <use xlink:href="#DejaVuSans-6e"/>
      <use x="63.378906" xlink:href="#DejaVuSans-75"/>
      <use x="126.757812" xlink:href="#DejaVuSans-6d"/>
      <use x="224.169922" xlink:href="#DejaVuSans-20"/>
      <use x="255.957031" xlink:href="#DejaVuSans-73"/>
      <use x="308.056641" xlink:href="#DejaVuSans-74"/>
      <use x="347.265625" xlink:href="#DejaVuSans-65"/>
      <use x="408.789062" xlink:href="#DejaVuSans-70"/>
      <use x="472.265625" xlink:href="#DejaVuSans-73"/>
      <use x="524.365234" xlink:href="#DejaVuSans-20"/>
      <use x="556.152344" xlink:href="#DejaVuSans-33"/>
     </g>
    </g>
    <g id="line2d_49">
     <path d="M 672.2625 290.029688 
L 692.2625 290.029688 
" style="fill:none;stroke:#ff7f0e;stroke-linecap:square;stroke-width:1.5;"/>
    </g>
    <g id="line2d_50"/>
    <g id="text_21">
     <!-- num steps 4 -->
     <defs>
      <path d="M 37.796875 64.3125 
L 12.890625 25.390625 
L 37.796875 25.390625 
z
M 35.203125 72.90625 
L 47.609375 72.90625 
L 47.609375 25.390625 
L 58.015625 25.390625 
L 58.015625 17.1875 
L 47.609375 17.1875 
L 47.609375 0 
L 37.796875 0 
L 37.796875 17.1875 
L 4.890625 17.1875 
L 4.890625 26.703125 
z
" id="DejaVuSans-34"/>
     </defs>
     <g transform="translate(700.2625 293.529688)scale(0.1 -0.1)">
      <use xlink:href="#DejaVuSans-6e"/>
      <use x="63.378906" xlink:href="#DejaVuSans-75"/>
      <use x="126.757812" xlink:href="#DejaVuSans-6d"/>
      <use x="224.169922" xlink:href="#DejaVuSans-20"/>
      <use x="255.957031" xlink:href="#DejaVuSans-73"/>
      <use x="308.056641" xlink:href="#DejaVuSans-74"/>
      <use x="347.265625" xlink:href="#DejaVuSans-65"/>
      <use x="408.789062" xlink:href="#DejaVuSans-70"/>
      <use x="472.265625" xlink:href="#DejaVuSans-73"/>
      <use x="524.365234" xlink:href="#DejaVuSans-20"/>
      <use x="556.152344" xlink:href="#DejaVuSans-34"/>
     </g>
    </g>
    <g id="line2d_51">
     <path d="M 672.2625 304.707812 
L 692.2625 304.707812 
" style="fill:none;stroke:#2ca02c;stroke-linecap:square;stroke-width:1.5;"/>
    </g>
    <g id="line2d_52"/>
    <g id="text_22">
     <!-- num steps 5 -->
     <g transform="translate(700.2625 308.207812)scale(0.1 -0.1)">
      <use xlink:href="#DejaVuSans-6e"/>
      <use x="63.378906" xlink:href="#DejaVuSans-75"/>
      <use x="126.757812" xlink:href="#DejaVuSans-6d"/>
      <use x="224.169922" xlink:href="#DejaVuSans-20"/>
      <use x="255.957031" xlink:href="#DejaVuSans-73"/>
      <use x="308.056641" xlink:href="#DejaVuSans-74"/>
      <use x="347.265625" xlink:href="#DejaVuSans-65"/>
      <use x="408.789062" xlink:href="#DejaVuSans-70"/>
      <use x="472.265625" xlink:href="#DejaVuSans-73"/>
      <use x="524.365234" xlink:href="#DejaVuSans-20"/>
      <use x="556.152344" xlink:href="#DejaVuSans-35"/>
     </g>
    </g>
    <g id="line2d_53">
     <path d="M 672.2625 319.385938 
L 692.2625 319.385938 
" style="fill:none;stroke:#d62728;stroke-linecap:square;stroke-width:1.5;"/>
    </g>
    <g id="line2d_54"/>
    <g id="text_23">
     <!-- num steps 6 -->
     <defs>
      <path d="M 33.015625 40.375 
Q 26.375 40.375 22.484375 35.828125 
Q 18.609375 31.296875 18.609375 23.390625 
Q 18.609375 15.53125 22.484375 10.953125 
Q 26.375 6.390625 33.015625 6.390625 
Q 39.65625 6.390625 43.53125 10.953125 
Q 47.40625 15.53125 47.40625 23.390625 
Q 47.40625 31.296875 43.53125 35.828125 
Q 39.65625 40.375 33.015625 40.375 
M 52.59375 71.296875 
L 52.59375 62.3125 
Q 48.875 64.0625 45.09375 64.984375 
Q 41.3125 65.921875 37.59375 65.921875 
Q 27.828125 65.921875 22.671875 59.328125 
Q 17.53125 52.734375 16.796875 39.40625 
Q 19.671875 43.65625 24.015625 45.921875 
Q 28.375 48.1875 33.59375 48.1875 
Q 44.578125 48.1875 50.953125 41.515625 
Q 57.328125 34.859375 57.328125 23.390625 
Q 57.328125 12.15625 50.6875 5.359375 
Q 44.046875 -1.421875 33.015625 -1.421875 
Q 20.359375 -1.421875 13.671875 8.265625 
Q 6.984375 17.96875 6.984375 36.375 
Q 6.984375 53.65625 15.1875 63.9375 
Q 23.390625 74.21875 37.203125 74.21875 
Q 40.921875 74.21875 44.703125 73.484375 
Q 48.484375 72.75 52.59375 71.296875 
" id="DejaVuSans-36"/>
     </defs>
     <g transform="translate(700.2625 322.885938)scale(0.1 -0.1)">
      <use xlink:href="#DejaVuSans-6e"/>
      <use x="63.378906" xlink:href="#DejaVuSans-75"/>
      <use x="126.757812" xlink:href="#DejaVuSans-6d"/>
      <use x="224.169922" xlink:href="#DejaVuSans-20"/>
      <use x="255.957031" xlink:href="#DejaVuSans-73"/>
      <use x="308.056641" xlink:href="#DejaVuSans-74"/>
      <use x="347.265625" xlink:href="#DejaVuSans-65"/>
      <use x="408.789062" xlink:href="#DejaVuSans-70"/>
      <use x="472.265625" xlink:href="#DejaVuSans-73"/>
      <use x="524.365234" xlink:href="#DejaVuSans-20"/>
      <use x="556.152344" xlink:href="#DejaVuSans-36"/>
     </g>
    </g>
    <g id="line2d_55">
     <path d="M 672.2625 334.064062 
L 692.2625 334.064062 
" style="fill:none;stroke:#9467bd;stroke-linecap:square;stroke-width:1.5;"/>
    </g>
    <g id="line2d_56"/>
    <g id="text_24">
     <!-- num steps 8 -->
     <defs>
      <path d="M 31.78125 34.625 
Q 24.75 34.625 20.71875 30.859375 
Q 16.703125 27.09375 16.703125 20.515625 
Q 16.703125 13.921875 20.71875 10.15625 
Q 24.75 6.390625 31.78125 6.390625 
Q 38.8125 6.390625 42.859375 10.171875 
Q 46.921875 13.96875 46.921875 20.515625 
Q 46.921875 27.09375 42.890625 30.859375 
Q 38.875 34.625 31.78125 34.625 
M 21.921875 38.8125 
Q 15.578125 40.375 12.03125 44.71875 
Q 8.5 49.078125 8.5 55.328125 
Q 8.5 64.0625 14.71875 69.140625 
Q 20.953125 74.21875 31.78125 74.21875 
Q 42.671875 74.21875 48.875 69.140625 
Q 55.078125 64.0625 55.078125 55.328125 
Q 55.078125 49.078125 51.53125 44.71875 
Q 48 40.375 41.703125 38.8125 
Q 48.828125 37.15625 52.796875 32.3125 
Q 56.78125 27.484375 56.78125 20.515625 
Q 56.78125 9.90625 50.3125 4.234375 
Q 43.84375 -1.421875 31.78125 -1.421875 
Q 19.734375 -1.421875 13.25 4.234375 
Q 6.78125 9.90625 6.78125 20.515625 
Q 6.78125 27.484375 10.78125 32.3125 
Q 14.796875 37.15625 21.921875 38.8125 
M 18.3125 54.390625 
Q 18.3125 48.734375 21.84375 45.5625 
Q 25.390625 42.390625 31.78125 42.390625 
Q 38.140625 42.390625 41.71875 45.5625 
Q 45.3125 48.734375 45.3125 54.390625 
Q 45.3125 60.0625 41.71875 63.234375 
Q 38.140625 66.40625 31.78125 66.40625 
Q 25.390625 66.40625 21.84375 63.234375 
Q 18.3125 60.0625 18.3125 54.390625 
" id="DejaVuSans-38"/>
     </defs>
     <g transform="translate(700.2625 337.564062)scale(0.1 -0.1)">
      <use xlink:href="#DejaVuSans-6e"/>
      <use x="63.378906" xlink:href="#DejaVuSans-75"/>
      <use x="126.757812" xlink:href="#DejaVuSans-6d"/>
      <use x="224.169922" xlink:href="#DejaVuSans-20"/>
      <use x="255.957031" xlink:href="#DejaVuSans-73"/>
      <use x="308.056641" xlink:href="#DejaVuSans-74"/>
      <use x="347.265625" xlink:href="#DejaVuSans-65"/>
      <use x="408.789062" xlink:href="#DejaVuSans-70"/>
      <use x="472.265625" xlink:href="#DejaVuSans-73"/>
      <use x="524.365234" xlink:href="#DejaVuSans-20"/>
      <use x="556.152344" xlink:href="#DejaVuSans-38"/>
     </g>
    </g>
    <g id="line2d_57">
     <path d="M 672.2625 348.742188 
L 692.2625 348.742188 
" style="fill:none;stroke:#8c564b;stroke-linecap:square;stroke-width:1.5;"/>
    </g>
    <g id="line2d_58"/>
    <g id="text_25">
     <!-- num steps 10 -->
     <g transform="translate(700.2625 352.242188)scale(0.1 -0.1)">
      <use xlink:href="#DejaVuSans-6e"/>
      <use x="63.378906" xlink:href="#DejaVuSans-75"/>
      <use x="126.757812" xlink:href="#DejaVuSans-6d"/>
      <use x="224.169922" xlink:href="#DejaVuSans-20"/>
      <use x="255.957031" xlink:href="#DejaVuSans-73"/>
      <use x="308.056641" xlink:href="#DejaVuSans-74"/>
      <use x="347.265625" xlink:href="#DejaVuSans-65"/>
      <use x="408.789062" xlink:href="#DejaVuSans-70"/>
      <use x="472.265625" xlink:href="#DejaVuSans-73"/>
      <use x="524.365234" xlink:href="#DejaVuSans-20"/>
      <use x="556.152344" xlink:href="#DejaVuSans-31"/>
      <use x="619.775391" xlink:href="#DejaVuSans-30"/>
     </g>
    </g>
    <g id="line2d_59">
     <path d="M 672.2625 363.420313 
L 692.2625 363.420313 
" style="fill:none;stroke:#e377c2;stroke-linecap:square;stroke-width:1.5;"/>
    </g>
    <g id="line2d_60"/>
    <g id="text_26">
     <!-- num steps 15 -->
     <g transform="translate(700.2625 366.920313)scale(0.1 -0.1)">
      <use xlink:href="#DejaVuSans-6e"/>
      <use x="63.378906" xlink:href="#DejaVuSans-75"/>
      <use x="126.757812" xlink:href="#DejaVuSans-6d"/>
      <use x="224.169922" xlink:href="#DejaVuSans-20"/>
      <use x="255.957031" xlink:href="#DejaVuSans-73"/>
      <use x="308.056641" xlink:href="#DejaVuSans-74"/>
      <use x="347.265625" xlink:href="#DejaVuSans-65"/>
      <use x="408.789062" xlink:href="#DejaVuSans-70"/>
      <use x="472.265625" xlink:href="#DejaVuSans-73"/>
      <use x="524.365234" xlink:href="#DejaVuSans-20"/>
      <use x="556.152344" xlink:href="#DejaVuSans-31"/>
      <use x="619.775391" xlink:href="#DejaVuSans-35"/>
     </g>
    </g>
   </g>
  </g>
 </g>
 <defs>
  <clipPath id="p1d41e2d096">
   <rect height="326.16" width="669.6" x="108" y="51.84"/>
  </clipPath>
 </defs>
</svg>
