<?xml version="1.0" encoding="utf-8" standalone="no"?>
<!DOCTYPE svg PUBLIC "-//W3C//DTD SVG 1.1//EN"
  "http://www.w3.org/Graphics/SVG/1.1/DTD/svg11.dtd">
<!-- Created with matplotlib (http://matplotlib.org/) -->
<svg height="432pt" version="1.1" viewBox="0 0 864 432" width="864pt" xmlns="http://www.w3.org/2000/svg" xmlns:xlink="http://www.w3.org/1999/xlink">
 <defs>
  <style type="text/css">
*{stroke-linecap:butt;stroke-linejoin:round;}
  </style>
 </defs>
 <g id="figure_1">
  <g id="patch_1">
   <path d="M 0 432 
L 864 432 
L 864 0 
L 0 0 
z
" style="fill:#ffffff;"/>
  </g>
  <g id="axes_1">
   <g id="patch_2">
    <path d="M 108 378 
L 777.6 378 
L 777.6 51.84 
L 108 51.84 
z
" style="fill:#ffffff;"/>
   </g>
   <g id="matplotlib.axis_1">
    <g id="xtick_1">
     <g id="line2d_1">
      <path clip-path="url(#pc15f92ffb1)" d="M 111.96996 378 
L 111.96996 51.84 
" style="fill:none;stroke:#b0b0b0;stroke-linecap:square;stroke-width:0.8;"/>
     </g>
     <g id="line2d_2">
      <defs>
       <path d="M 0 0 
L 0 3.5 
" id="m08463bc9fe" style="stroke:#000000;stroke-width:0.8;"/>
      </defs>
      <g>
       <use style="stroke:#000000;stroke-width:0.8;" x="111.96996" xlink:href="#m08463bc9fe" y="378"/>
      </g>
     </g>
     <g id="text_1">
      <!-- 0 -->
      <defs>
       <path d="M 31.78125 66.40625 
Q 24.171875 66.40625 20.328125 58.90625 
Q 16.5 51.421875 16.5 36.375 
Q 16.5 21.390625 20.328125 13.890625 
Q 24.171875 6.390625 31.78125 6.390625 
Q 39.453125 6.390625 43.28125 13.890625 
Q 47.125 21.390625 47.125 36.375 
Q 47.125 51.421875 43.28125 58.90625 
Q 39.453125 66.40625 31.78125 66.40625 
M 31.78125 74.21875 
Q 44.046875 74.21875 50.515625 64.515625 
Q 56.984375 54.828125 56.984375 36.375 
Q 56.984375 17.96875 50.515625 8.265625 
Q 44.046875 -1.421875 31.78125 -1.421875 
Q 19.53125 -1.421875 13.0625 8.265625 
Q 6.59375 17.96875 6.59375 36.375 
Q 6.59375 54.828125 13.0625 64.515625 
Q 19.53125 74.21875 31.78125 74.21875 
" id="DejaVuSans-30"/>
      </defs>
      <g transform="translate(108.78871 392.598437)scale(0.1 -0.1)">
       <use xlink:href="#DejaVuSans-30"/>
      </g>
     </g>
    </g>
    <g id="xtick_2">
     <g id="line2d_3">
      <path clip-path="url(#pc15f92ffb1)" d="M 244.301976 378 
L 244.301976 51.84 
" style="fill:none;stroke:#b0b0b0;stroke-linecap:square;stroke-width:0.8;"/>
     </g>
     <g id="line2d_4">
      <g>
       <use style="stroke:#000000;stroke-width:0.8;" x="244.301976" xlink:href="#m08463bc9fe" y="378"/>
      </g>
     </g>
     <g id="text_2">
      <!-- 5 -->
      <defs>
       <path d="M 10.796875 72.90625 
L 49.515625 72.90625 
L 49.515625 64.59375 
L 19.828125 64.59375 
L 19.828125 46.734375 
Q 21.96875 47.46875 24.109375 47.828125 
Q 26.265625 48.1875 28.421875 48.1875 
Q 40.625 48.1875 47.75 41.5 
Q 54.890625 34.8125 54.890625 23.390625 
Q 54.890625 11.625 47.5625 5.09375 
Q 40.234375 -1.421875 26.90625 -1.421875 
Q 22.3125 -1.421875 17.546875 -0.640625 
Q 12.796875 0.140625 7.71875 1.703125 
L 7.71875 11.625 
Q 12.109375 9.234375 16.796875 8.0625 
Q 21.484375 6.890625 26.703125 6.890625 
Q 35.15625 6.890625 40.078125 11.328125 
Q 45.015625 15.765625 45.015625 23.390625 
Q 45.015625 31 40.078125 35.4375 
Q 35.15625 39.890625 26.703125 39.890625 
Q 22.75 39.890625 18.8125 39.015625 
Q 14.890625 38.140625 10.796875 36.28125 
z
" id="DejaVuSans-35"/>
      </defs>
      <g transform="translate(241.120726 392.598437)scale(0.1 -0.1)">
       <use xlink:href="#DejaVuSans-35"/>
      </g>
     </g>
    </g>
    <g id="xtick_3">
     <g id="line2d_5">
      <path clip-path="url(#pc15f92ffb1)" d="M 376.633992 378 
L 376.633992 51.84 
" style="fill:none;stroke:#b0b0b0;stroke-linecap:square;stroke-width:0.8;"/>
     </g>
     <g id="line2d_6">
      <g>
       <use style="stroke:#000000;stroke-width:0.8;" x="376.633992" xlink:href="#m08463bc9fe" y="378"/>
      </g>
     </g>
     <g id="text_3">
      <!-- 10 -->
      <defs>
       <path d="M 12.40625 8.296875 
L 28.515625 8.296875 
L 28.515625 63.921875 
L 10.984375 60.40625 
L 10.984375 69.390625 
L 28.421875 72.90625 
L 38.28125 72.90625 
L 38.28125 8.296875 
L 54.390625 8.296875 
L 54.390625 0 
L 12.40625 0 
z
" id="DejaVuSans-31"/>
      </defs>
      <g transform="translate(370.271492 392.598437)scale(0.1 -0.1)">
       <use xlink:href="#DejaVuSans-31"/>
       <use x="63.623047" xlink:href="#DejaVuSans-30"/>
      </g>
     </g>
    </g>
    <g id="xtick_4">
     <g id="line2d_7">
      <path clip-path="url(#pc15f92ffb1)" d="M 508.966008 378 
L 508.966008 51.84 
" style="fill:none;stroke:#b0b0b0;stroke-linecap:square;stroke-width:0.8;"/>
     </g>
     <g id="line2d_8">
      <g>
       <use style="stroke:#000000;stroke-width:0.8;" x="508.966008" xlink:href="#m08463bc9fe" y="378"/>
      </g>
     </g>
     <g id="text_4">
      <!-- 15 -->
      <g transform="translate(502.603508 392.598437)scale(0.1 -0.1)">
       <use xlink:href="#DejaVuSans-31"/>
       <use x="63.623047" xlink:href="#DejaVuSans-35"/>
      </g>
     </g>
    </g>
    <g id="xtick_5">
     <g id="line2d_9">
      <path clip-path="url(#pc15f92ffb1)" d="M 641.298024 378 
L 641.298024 51.84 
" style="fill:none;stroke:#b0b0b0;stroke-linecap:square;stroke-width:0.8;"/>
     </g>
     <g id="line2d_10">
      <g>
       <use style="stroke:#000000;stroke-width:0.8;" x="641.298024" xlink:href="#m08463bc9fe" y="378"/>
      </g>
     </g>
     <g id="text_5">
      <!-- 20 -->
      <defs>
       <path d="M 19.1875 8.296875 
L 53.609375 8.296875 
L 53.609375 0 
L 7.328125 0 
L 7.328125 8.296875 
Q 12.9375 14.109375 22.625 23.890625 
Q 32.328125 33.6875 34.8125 36.53125 
Q 39.546875 41.84375 41.421875 45.53125 
Q 43.3125 49.21875 43.3125 52.78125 
Q 43.3125 58.59375 39.234375 62.25 
Q 35.15625 65.921875 28.609375 65.921875 
Q 23.96875 65.921875 18.8125 64.3125 
Q 13.671875 62.703125 7.8125 59.421875 
L 7.8125 69.390625 
Q 13.765625 71.78125 18.9375 73 
Q 24.125 74.21875 28.421875 74.21875 
Q 39.75 74.21875 46.484375 68.546875 
Q 53.21875 62.890625 53.21875 53.421875 
Q 53.21875 48.921875 51.53125 44.890625 
Q 49.859375 40.875 45.40625 35.40625 
Q 44.1875 33.984375 37.640625 27.21875 
Q 31.109375 20.453125 19.1875 8.296875 
" id="DejaVuSans-32"/>
      </defs>
      <g transform="translate(634.935524 392.598437)scale(0.1 -0.1)">
       <use xlink:href="#DejaVuSans-32"/>
       <use x="63.623047" xlink:href="#DejaVuSans-30"/>
      </g>
     </g>
    </g>
    <g id="xtick_6">
     <g id="line2d_11">
      <path clip-path="url(#pc15f92ffb1)" d="M 773.63004 378 
L 773.63004 51.84 
" style="fill:none;stroke:#b0b0b0;stroke-linecap:square;stroke-width:0.8;"/>
     </g>
     <g id="line2d_12">
      <g>
       <use style="stroke:#000000;stroke-width:0.8;" x="773.63004" xlink:href="#m08463bc9fe" y="378"/>
      </g>
     </g>
     <g id="text_6">
      <!-- 25 -->
      <g transform="translate(767.26754 392.598437)scale(0.1 -0.1)">
       <use xlink:href="#DejaVuSans-32"/>
       <use x="63.623047" xlink:href="#DejaVuSans-35"/>
      </g>
     </g>
    </g>
    <g id="text_7">
     <!-- Epoch number -->
     <defs>
      <path d="M 9.8125 72.90625 
L 55.90625 72.90625 
L 55.90625 64.59375 
L 19.671875 64.59375 
L 19.671875 43.015625 
L 54.390625 43.015625 
L 54.390625 34.71875 
L 19.671875 34.71875 
L 19.671875 8.296875 
L 56.78125 8.296875 
L 56.78125 0 
L 9.8125 0 
z
" id="DejaVuSans-45"/>
      <path d="M 18.109375 8.203125 
L 18.109375 -20.796875 
L 9.078125 -20.796875 
L 9.078125 54.6875 
L 18.109375 54.6875 
L 18.109375 46.390625 
Q 20.953125 51.265625 25.265625 53.625 
Q 29.59375 56 35.59375 56 
Q 45.5625 56 51.78125 48.09375 
Q 58.015625 40.1875 58.015625 27.296875 
Q 58.015625 14.40625 51.78125 6.484375 
Q 45.5625 -1.421875 35.59375 -1.421875 
Q 29.59375 -1.421875 25.265625 0.953125 
Q 20.953125 3.328125 18.109375 8.203125 
M 48.6875 27.296875 
Q 48.6875 37.203125 44.609375 42.84375 
Q 40.53125 48.484375 33.40625 48.484375 
Q 26.265625 48.484375 22.1875 42.84375 
Q 18.109375 37.203125 18.109375 27.296875 
Q 18.109375 17.390625 22.1875 11.75 
Q 26.265625 6.109375 33.40625 6.109375 
Q 40.53125 6.109375 44.609375 11.75 
Q 48.6875 17.390625 48.6875 27.296875 
" id="DejaVuSans-70"/>
      <path d="M 30.609375 48.390625 
Q 23.390625 48.390625 19.1875 42.75 
Q 14.984375 37.109375 14.984375 27.296875 
Q 14.984375 17.484375 19.15625 11.84375 
Q 23.34375 6.203125 30.609375 6.203125 
Q 37.796875 6.203125 41.984375 11.859375 
Q 46.1875 17.53125 46.1875 27.296875 
Q 46.1875 37.015625 41.984375 42.703125 
Q 37.796875 48.390625 30.609375 48.390625 
M 30.609375 56 
Q 42.328125 56 49.015625 48.375 
Q 55.71875 40.765625 55.71875 27.296875 
Q 55.71875 13.875 49.015625 6.21875 
Q 42.328125 -1.421875 30.609375 -1.421875 
Q 18.84375 -1.421875 12.171875 6.21875 
Q 5.515625 13.875 5.515625 27.296875 
Q 5.515625 40.765625 12.171875 48.375 
Q 18.84375 56 30.609375 56 
" id="DejaVuSans-6f"/>
      <path d="M 48.78125 52.59375 
L 48.78125 44.1875 
Q 44.96875 46.296875 41.140625 47.34375 
Q 37.3125 48.390625 33.40625 48.390625 
Q 24.65625 48.390625 19.8125 42.84375 
Q 14.984375 37.3125 14.984375 27.296875 
Q 14.984375 17.28125 19.8125 11.734375 
Q 24.65625 6.203125 33.40625 6.203125 
Q 37.3125 6.203125 41.140625 7.25 
Q 44.96875 8.296875 48.78125 10.40625 
L 48.78125 2.09375 
Q 45.015625 0.34375 40.984375 -0.53125 
Q 36.96875 -1.421875 32.421875 -1.421875 
Q 20.0625 -1.421875 12.78125 6.34375 
Q 5.515625 14.109375 5.515625 27.296875 
Q 5.515625 40.671875 12.859375 48.328125 
Q 20.21875 56 33.015625 56 
Q 37.15625 56 41.109375 55.140625 
Q 45.0625 54.296875 48.78125 52.59375 
" id="DejaVuSans-63"/>
      <path d="M 54.890625 33.015625 
L 54.890625 0 
L 45.90625 0 
L 45.90625 32.71875 
Q 45.90625 40.484375 42.875 44.328125 
Q 39.84375 48.1875 33.796875 48.1875 
Q 26.515625 48.1875 22.3125 43.546875 
Q 18.109375 38.921875 18.109375 30.90625 
L 18.109375 0 
L 9.078125 0 
L 9.078125 75.984375 
L 18.109375 75.984375 
L 18.109375 46.1875 
Q 21.34375 51.125 25.703125 53.5625 
Q 30.078125 56 35.796875 56 
Q 45.21875 56 50.046875 50.171875 
Q 54.890625 44.34375 54.890625 33.015625 
" id="DejaVuSans-68"/>
      <path id="DejaVuSans-20"/>
      <path d="M 54.890625 33.015625 
L 54.890625 0 
L 45.90625 0 
L 45.90625 32.71875 
Q 45.90625 40.484375 42.875 44.328125 
Q 39.84375 48.1875 33.796875 48.1875 
Q 26.515625 48.1875 22.3125 43.546875 
Q 18.109375 38.921875 18.109375 30.90625 
L 18.109375 0 
L 9.078125 0 
L 9.078125 54.6875 
L 18.109375 54.6875 
L 18.109375 46.1875 
Q 21.34375 51.125 25.703125 53.5625 
Q 30.078125 56 35.796875 56 
Q 45.21875 56 50.046875 50.171875 
Q 54.890625 44.34375 54.890625 33.015625 
" id="DejaVuSans-6e"/>
      <path d="M 8.5 21.578125 
L 8.5 54.6875 
L 17.484375 54.6875 
L 17.484375 21.921875 
Q 17.484375 14.15625 20.5 10.265625 
Q 23.53125 6.390625 29.59375 6.390625 
Q 36.859375 6.390625 41.078125 11.03125 
Q 45.3125 15.671875 45.3125 23.6875 
L 45.3125 54.6875 
L 54.296875 54.6875 
L 54.296875 0 
L 45.3125 0 
L 45.3125 8.40625 
Q 42.046875 3.421875 37.71875 1 
Q 33.40625 -1.421875 27.6875 -1.421875 
Q 18.265625 -1.421875 13.375 4.4375 
Q 8.5 10.296875 8.5 21.578125 
M 31.109375 56 
z
" id="DejaVuSans-75"/>
      <path d="M 52 44.1875 
Q 55.375 50.25 60.0625 53.125 
Q 64.75 56 71.09375 56 
Q 79.640625 56 84.28125 50.015625 
Q 88.921875 44.046875 88.921875 33.015625 
L 88.921875 0 
L 79.890625 0 
L 79.890625 32.71875 
Q 79.890625 40.578125 77.09375 44.375 
Q 74.3125 48.1875 68.609375 48.1875 
Q 61.625 48.1875 57.5625 43.546875 
Q 53.515625 38.921875 53.515625 30.90625 
L 53.515625 0 
L 44.484375 0 
L 44.484375 32.71875 
Q 44.484375 40.625 41.703125 44.40625 
Q 38.921875 48.1875 33.109375 48.1875 
Q 26.21875 48.1875 22.15625 43.53125 
Q 18.109375 38.875 18.109375 30.90625 
L 18.109375 0 
L 9.078125 0 
L 9.078125 54.6875 
L 18.109375 54.6875 
L 18.109375 46.1875 
Q 21.1875 51.21875 25.484375 53.609375 
Q 29.78125 56 35.6875 56 
Q 41.65625 56 45.828125 52.96875 
Q 50 49.953125 52 44.1875 
" id="DejaVuSans-6d"/>
      <path d="M 48.6875 27.296875 
Q 48.6875 37.203125 44.609375 42.84375 
Q 40.53125 48.484375 33.40625 48.484375 
Q 26.265625 48.484375 22.1875 42.84375 
Q 18.109375 37.203125 18.109375 27.296875 
Q 18.109375 17.390625 22.1875 11.75 
Q 26.265625 6.109375 33.40625 6.109375 
Q 40.53125 6.109375 44.609375 11.75 
Q 48.6875 17.390625 48.6875 27.296875 
M 18.109375 46.390625 
Q 20.953125 51.265625 25.265625 53.625 
Q 29.59375 56 35.59375 56 
Q 45.5625 56 51.78125 48.09375 
Q 58.015625 40.1875 58.015625 27.296875 
Q 58.015625 14.40625 51.78125 6.484375 
Q 45.5625 -1.421875 35.59375 -1.421875 
Q 29.59375 -1.421875 25.265625 0.953125 
Q 20.953125 3.328125 18.109375 8.203125 
L 18.109375 0 
L 9.078125 0 
L 9.078125 75.984375 
L 18.109375 75.984375 
z
" id="DejaVuSans-62"/>
      <path d="M 56.203125 29.59375 
L 56.203125 25.203125 
L 14.890625 25.203125 
Q 15.484375 15.921875 20.484375 11.0625 
Q 25.484375 6.203125 34.421875 6.203125 
Q 39.59375 6.203125 44.453125 7.46875 
Q 49.3125 8.734375 54.109375 11.28125 
L 54.109375 2.78125 
Q 49.265625 0.734375 44.1875 -0.34375 
Q 39.109375 -1.421875 33.890625 -1.421875 
Q 20.796875 -1.421875 13.15625 6.1875 
Q 5.515625 13.8125 5.515625 26.8125 
Q 5.515625 40.234375 12.765625 48.109375 
Q 20.015625 56 32.328125 56 
Q 43.359375 56 49.78125 48.890625 
Q 56.203125 41.796875 56.203125 29.59375 
M 47.21875 32.234375 
Q 47.125 39.59375 43.09375 43.984375 
Q 39.0625 48.390625 32.421875 48.390625 
Q 24.90625 48.390625 20.390625 44.140625 
Q 15.875 39.890625 15.1875 32.171875 
z
" id="DejaVuSans-65"/>
      <path d="M 41.109375 46.296875 
Q 39.59375 47.171875 37.8125 47.578125 
Q 36.03125 48 33.890625 48 
Q 26.265625 48 22.1875 43.046875 
Q 18.109375 38.09375 18.109375 28.8125 
L 18.109375 0 
L 9.078125 0 
L 9.078125 54.6875 
L 18.109375 54.6875 
L 18.109375 46.1875 
Q 20.953125 51.171875 25.484375 53.578125 
Q 30.03125 56 36.53125 56 
Q 37.453125 56 38.578125 55.875 
Q 39.703125 55.765625 41.0625 55.515625 
z
" id="DejaVuSans-72"/>
     </defs>
     <g transform="translate(406.385938 406.276563)scale(0.1 -0.1)">
      <use xlink:href="#DejaVuSans-45"/>
      <use x="63.183594" xlink:href="#DejaVuSans-70"/>
      <use x="126.660156" xlink:href="#DejaVuSans-6f"/>
      <use x="187.841797" xlink:href="#DejaVuSans-63"/>
      <use x="242.822266" xlink:href="#DejaVuSans-68"/>
      <use x="306.201172" xlink:href="#DejaVuSans-20"/>
      <use x="337.988281" xlink:href="#DejaVuSans-6e"/>
      <use x="401.367188" xlink:href="#DejaVuSans-75"/>
      <use x="464.746094" xlink:href="#DejaVuSans-6d"/>
      <use x="562.158203" xlink:href="#DejaVuSans-62"/>
      <use x="625.634766" xlink:href="#DejaVuSans-65"/>
      <use x="687.158203" xlink:href="#DejaVuSans-72"/>
     </g>
    </g>
   </g>
   <g id="matplotlib.axis_2">
    <g id="ytick_1">
     <g id="line2d_13">
      <path clip-path="url(#pc15f92ffb1)" d="M 108 347.735492 
L 777.6 347.735492 
" style="fill:none;stroke:#b0b0b0;stroke-linecap:square;stroke-width:0.8;"/>
     </g>
     <g id="line2d_14">
      <defs>
       <path d="M 0 0 
L -3.5 0 
" id="m8d377fd9e0" style="stroke:#000000;stroke-width:0.8;"/>
      </defs>
      <g>
       <use style="stroke:#000000;stroke-width:0.8;" x="108" xlink:href="#m8d377fd9e0" y="347.735492"/>
      </g>
     </g>
     <g id="text_8">
      <!-- 1.0 -->
      <defs>
       <path d="M 10.6875 12.40625 
L 21 12.40625 
L 21 0 
L 10.6875 0 
z
" id="DejaVuSans-2e"/>
      </defs>
      <g transform="translate(85.096875 351.534711)scale(0.1 -0.1)">
       <use xlink:href="#DejaVuSans-31"/>
       <use x="63.623047" xlink:href="#DejaVuSans-2e"/>
       <use x="95.410156" xlink:href="#DejaVuSans-30"/>
      </g>
     </g>
    </g>
    <g id="ytick_2">
     <g id="line2d_15">
      <path clip-path="url(#pc15f92ffb1)" d="M 108 294.253967 
L 777.6 294.253967 
" style="fill:none;stroke:#b0b0b0;stroke-linecap:square;stroke-width:0.8;"/>
     </g>
     <g id="line2d_16">
      <g>
       <use style="stroke:#000000;stroke-width:0.8;" x="108" xlink:href="#m8d377fd9e0" y="294.253967"/>
      </g>
     </g>
     <g id="text_9">
      <!-- 1.2 -->
      <g transform="translate(85.096875 298.053186)scale(0.1 -0.1)">
       <use xlink:href="#DejaVuSans-31"/>
       <use x="63.623047" xlink:href="#DejaVuSans-2e"/>
       <use x="95.410156" xlink:href="#DejaVuSans-32"/>
      </g>
     </g>
    </g>
    <g id="ytick_3">
     <g id="line2d_17">
      <path clip-path="url(#pc15f92ffb1)" d="M 108 240.772441 
L 777.6 240.772441 
" style="fill:none;stroke:#b0b0b0;stroke-linecap:square;stroke-width:0.8;"/>
     </g>
     <g id="line2d_18">
      <g>
       <use style="stroke:#000000;stroke-width:0.8;" x="108" xlink:href="#m8d377fd9e0" y="240.772441"/>
      </g>
     </g>
     <g id="text_10">
      <!-- 1.4 -->
      <defs>
       <path d="M 37.796875 64.3125 
L 12.890625 25.390625 
L 37.796875 25.390625 
z
M 35.203125 72.90625 
L 47.609375 72.90625 
L 47.609375 25.390625 
L 58.015625 25.390625 
L 58.015625 17.1875 
L 47.609375 17.1875 
L 47.609375 0 
L 37.796875 0 
L 37.796875 17.1875 
L 4.890625 17.1875 
L 4.890625 26.703125 
z
" id="DejaVuSans-34"/>
      </defs>
      <g transform="translate(85.096875 244.57166)scale(0.1 -0.1)">
       <use xlink:href="#DejaVuSans-31"/>
       <use x="63.623047" xlink:href="#DejaVuSans-2e"/>
       <use x="95.410156" xlink:href="#DejaVuSans-34"/>
      </g>
     </g>
    </g>
    <g id="ytick_4">
     <g id="line2d_19">
      <path clip-path="url(#pc15f92ffb1)" d="M 108 187.290916 
L 777.6 187.290916 
" style="fill:none;stroke:#b0b0b0;stroke-linecap:square;stroke-width:0.8;"/>
     </g>
     <g id="line2d_20">
      <g>
       <use style="stroke:#000000;stroke-width:0.8;" x="108" xlink:href="#m8d377fd9e0" y="187.290916"/>
      </g>
     </g>
     <g id="text_11">
      <!-- 1.6 -->
      <defs>
       <path d="M 33.015625 40.375 
Q 26.375 40.375 22.484375 35.828125 
Q 18.609375 31.296875 18.609375 23.390625 
Q 18.609375 15.53125 22.484375 10.953125 
Q 26.375 6.390625 33.015625 6.390625 
Q 39.65625 6.390625 43.53125 10.953125 
Q 47.40625 15.53125 47.40625 23.390625 
Q 47.40625 31.296875 43.53125 35.828125 
Q 39.65625 40.375 33.015625 40.375 
M 52.59375 71.296875 
L 52.59375 62.3125 
Q 48.875 64.0625 45.09375 64.984375 
Q 41.3125 65.921875 37.59375 65.921875 
Q 27.828125 65.921875 22.671875 59.328125 
Q 17.53125 52.734375 16.796875 39.40625 
Q 19.671875 43.65625 24.015625 45.921875 
Q 28.375 48.1875 33.59375 48.1875 
Q 44.578125 48.1875 50.953125 41.515625 
Q 57.328125 34.859375 57.328125 23.390625 
Q 57.328125 12.15625 50.6875 5.359375 
Q 44.046875 -1.421875 33.015625 -1.421875 
Q 20.359375 -1.421875 13.671875 8.265625 
Q 6.984375 17.96875 6.984375 36.375 
Q 6.984375 53.65625 15.1875 63.9375 
Q 23.390625 74.21875 37.203125 74.21875 
Q 40.921875 74.21875 44.703125 73.484375 
Q 48.484375 72.75 52.59375 71.296875 
" id="DejaVuSans-36"/>
      </defs>
      <g transform="translate(85.096875 191.090135)scale(0.1 -0.1)">
       <use xlink:href="#DejaVuSans-31"/>
       <use x="63.623047" xlink:href="#DejaVuSans-2e"/>
       <use x="95.410156" xlink:href="#DejaVuSans-36"/>
      </g>
     </g>
    </g>
    <g id="ytick_5">
     <g id="line2d_21">
      <path clip-path="url(#pc15f92ffb1)" d="M 108 133.80939 
L 777.6 133.80939 
" style="fill:none;stroke:#b0b0b0;stroke-linecap:square;stroke-width:0.8;"/>
     </g>
     <g id="line2d_22">
      <g>
       <use style="stroke:#000000;stroke-width:0.8;" x="108" xlink:href="#m8d377fd9e0" y="133.80939"/>
      </g>
     </g>
     <g id="text_12">
      <!-- 1.8 -->
      <defs>
       <path d="M 31.78125 34.625 
Q 24.75 34.625 20.71875 30.859375 
Q 16.703125 27.09375 16.703125 20.515625 
Q 16.703125 13.921875 20.71875 10.15625 
Q 24.75 6.390625 31.78125 6.390625 
Q 38.8125 6.390625 42.859375 10.171875 
Q 46.921875 13.96875 46.921875 20.515625 
Q 46.921875 27.09375 42.890625 30.859375 
Q 38.875 34.625 31.78125 34.625 
M 21.921875 38.8125 
Q 15.578125 40.375 12.03125 44.71875 
Q 8.5 49.078125 8.5 55.328125 
Q 8.5 64.0625 14.71875 69.140625 
Q 20.953125 74.21875 31.78125 74.21875 
Q 42.671875 74.21875 48.875 69.140625 
Q 55.078125 64.0625 55.078125 55.328125 
Q 55.078125 49.078125 51.53125 44.71875 
Q 48 40.375 41.703125 38.8125 
Q 48.828125 37.15625 52.796875 32.3125 
Q 56.78125 27.484375 56.78125 20.515625 
Q 56.78125 9.90625 50.3125 4.234375 
Q 43.84375 -1.421875 31.78125 -1.421875 
Q 19.734375 -1.421875 13.25 4.234375 
Q 6.78125 9.90625 6.78125 20.515625 
Q 6.78125 27.484375 10.78125 32.3125 
Q 14.796875 37.15625 21.921875 38.8125 
M 18.3125 54.390625 
Q 18.3125 48.734375 21.84375 45.5625 
Q 25.390625 42.390625 31.78125 42.390625 
Q 38.140625 42.390625 41.71875 45.5625 
Q 45.3125 48.734375 45.3125 54.390625 
Q 45.3125 60.0625 41.71875 63.234375 
Q 38.140625 66.40625 31.78125 66.40625 
Q 25.390625 66.40625 21.84375 63.234375 
Q 18.3125 60.0625 18.3125 54.390625 
" id="DejaVuSans-38"/>
      </defs>
      <g transform="translate(85.096875 137.608609)scale(0.1 -0.1)">
       <use xlink:href="#DejaVuSans-31"/>
       <use x="63.623047" xlink:href="#DejaVuSans-2e"/>
       <use x="95.410156" xlink:href="#DejaVuSans-38"/>
      </g>
     </g>
    </g>
    <g id="ytick_6">
     <g id="line2d_23">
      <path clip-path="url(#pc15f92ffb1)" d="M 108 80.327865 
L 777.6 80.327865 
" style="fill:none;stroke:#b0b0b0;stroke-linecap:square;stroke-width:0.8;"/>
     </g>
     <g id="line2d_24">
      <g>
       <use style="stroke:#000000;stroke-width:0.8;" x="108" xlink:href="#m8d377fd9e0" y="80.327865"/>
      </g>
     </g>
     <g id="text_13">
      <!-- 2.0 -->
      <g transform="translate(85.096875 84.127084)scale(0.1 -0.1)">
       <use xlink:href="#DejaVuSans-32"/>
       <use x="63.623047" xlink:href="#DejaVuSans-2e"/>
       <use x="95.410156" xlink:href="#DejaVuSans-30"/>
      </g>
     </g>
    </g>
    <g id="text_14">
     <!-- Training Error -->
     <defs>
      <path d="M -0.296875 72.90625 
L 61.375 72.90625 
L 61.375 64.59375 
L 35.5 64.59375 
L 35.5 0 
L 25.59375 0 
L 25.59375 64.59375 
L -0.296875 64.59375 
z
" id="DejaVuSans-54"/>
      <path d="M 34.28125 27.484375 
Q 23.390625 27.484375 19.1875 25 
Q 14.984375 22.515625 14.984375 16.5 
Q 14.984375 11.71875 18.140625 8.90625 
Q 21.296875 6.109375 26.703125 6.109375 
Q 34.1875 6.109375 38.703125 11.40625 
Q 43.21875 16.703125 43.21875 25.484375 
L 43.21875 27.484375 
z
M 52.203125 31.203125 
L 52.203125 0 
L 43.21875 0 
L 43.21875 8.296875 
Q 40.140625 3.328125 35.546875 0.953125 
Q 30.953125 -1.421875 24.3125 -1.421875 
Q 15.921875 -1.421875 10.953125 3.296875 
Q 6 8.015625 6 15.921875 
Q 6 25.140625 12.171875 29.828125 
Q 18.359375 34.515625 30.609375 34.515625 
L 43.21875 34.515625 
L 43.21875 35.40625 
Q 43.21875 41.609375 39.140625 45 
Q 35.0625 48.390625 27.6875 48.390625 
Q 23 48.390625 18.546875 47.265625 
Q 14.109375 46.140625 10.015625 43.890625 
L 10.015625 52.203125 
Q 14.9375 54.109375 19.578125 55.046875 
Q 24.21875 56 28.609375 56 
Q 40.484375 56 46.34375 49.84375 
Q 52.203125 43.703125 52.203125 31.203125 
" id="DejaVuSans-61"/>
      <path d="M 9.421875 54.6875 
L 18.40625 54.6875 
L 18.40625 0 
L 9.421875 0 
z
M 9.421875 75.984375 
L 18.40625 75.984375 
L 18.40625 64.59375 
L 9.421875 64.59375 
z
" id="DejaVuSans-69"/>
      <path d="M 45.40625 27.984375 
Q 45.40625 37.75 41.375 43.109375 
Q 37.359375 48.484375 30.078125 48.484375 
Q 22.859375 48.484375 18.828125 43.109375 
Q 14.796875 37.75 14.796875 27.984375 
Q 14.796875 18.265625 18.828125 12.890625 
Q 22.859375 7.515625 30.078125 7.515625 
Q 37.359375 7.515625 41.375 12.890625 
Q 45.40625 18.265625 45.40625 27.984375 
M 54.390625 6.78125 
Q 54.390625 -7.171875 48.1875 -13.984375 
Q 42 -20.796875 29.203125 -20.796875 
Q 24.46875 -20.796875 20.265625 -20.09375 
Q 16.0625 -19.390625 12.109375 -17.921875 
L 12.109375 -9.1875 
Q 16.0625 -11.328125 19.921875 -12.34375 
Q 23.78125 -13.375 27.78125 -13.375 
Q 36.625 -13.375 41.015625 -8.765625 
Q 45.40625 -4.15625 45.40625 5.171875 
L 45.40625 9.625 
Q 42.625 4.78125 38.28125 2.390625 
Q 33.9375 0 27.875 0 
Q 17.828125 0 11.671875 7.65625 
Q 5.515625 15.328125 5.515625 27.984375 
Q 5.515625 40.671875 11.671875 48.328125 
Q 17.828125 56 27.875 56 
Q 33.9375 56 38.28125 53.609375 
Q 42.625 51.21875 45.40625 46.390625 
L 45.40625 54.6875 
L 54.390625 54.6875 
z
" id="DejaVuSans-67"/>
     </defs>
     <g transform="translate(79.017187 249.344219)rotate(-90)scale(0.1 -0.1)">
      <use xlink:href="#DejaVuSans-54"/>
      <use x="60.865234" xlink:href="#DejaVuSans-72"/>
      <use x="101.978516" xlink:href="#DejaVuSans-61"/>
      <use x="163.257812" xlink:href="#DejaVuSans-69"/>
      <use x="191.041016" xlink:href="#DejaVuSans-6e"/>
      <use x="254.419922" xlink:href="#DejaVuSans-69"/>
      <use x="282.203125" xlink:href="#DejaVuSans-6e"/>
      <use x="345.582031" xlink:href="#DejaVuSans-67"/>
      <use x="409.058594" xlink:href="#DejaVuSans-20"/>
      <use x="440.845703" xlink:href="#DejaVuSans-45"/>
      <use x="504.029297" xlink:href="#DejaVuSans-72"/>
      <use x="545.126953" xlink:href="#DejaVuSans-72"/>
      <use x="586.208984" xlink:href="#DejaVuSans-6f"/>
      <use x="647.390625" xlink:href="#DejaVuSans-72"/>
     </g>
    </g>
   </g>
   <g id="line2d_25">
    <path clip-path="url(#pc15f92ffb1)" d="M 138.436364 248.233099 
L 164.902767 262.834081 
L 191.36917 273.350877 
L 217.835573 284.768845 
L 244.301976 291.431736 
L 270.768379 298.363231 
L 297.234783 304.081839 
L 323.701186 308.455787 
L 350.167589 313.550659 
L 376.633992 317.369452 
L 403.100395 322.483449 
L 429.566798 324.967247 
L 456.033202 326.748722 
L 482.499605 329.718459 
L 508.966008 330.835836 
L 535.432411 333.62539 
L 561.898814 336.306844 
L 588.365217 337.844209 
L 614.831621 338.741737 
L 641.298024 341.575014 
L 667.764427 341.497122 
L 694.23083 342.479094 
L 720.697233 344.47481 
L 747.163636 346.515053 
" style="fill:none;stroke:#d3d3d3;stroke-linecap:square;stroke-width:1.5;"/>
   </g>
   <g id="line2d_26">
    <path clip-path="url(#pc15f92ffb1)" d="M 138.436364 263.808523 
L 164.902767 281.188054 
L 191.36917 292.616794 
L 217.835573 301.875836 
L 244.301976 306.768136 
L 270.768379 312.313938 
L 297.234783 315.094047 
L 323.701186 318.736 
L 350.167589 321.053838 
L 376.633992 322.401224 
L 403.100395 325.472289 
L 429.566798 326.845448 
L 456.033202 328.256817 
L 482.499605 328.998634 
L 508.966008 332.918885 
L 535.432411 333.056978 
L 561.898814 334.033008 
L 588.365217 334.108922 
L 614.831621 335.511172 
L 641.298024 336.498801 
L 667.764427 337.170591 
L 694.23083 338.467589 
L 720.697233 338.188448 
L 747.163636 338.594049 
" style="fill:none;stroke:#d3d3d3;stroke-linecap:square;stroke-width:1.5;"/>
   </g>
   <g id="line2d_27">
    <path clip-path="url(#pc15f92ffb1)" d="M 138.436364 246.940234 
L 164.902767 262.601978 
L 191.36917 275.129564 
L 217.835573 286.943093 
L 244.301976 295.500889 
L 270.768379 303.847848 
L 297.234783 309.826269 
L 323.701186 316.098543 
L 350.167589 320.932477 
L 376.633992 323.295558 
L 403.100395 328.274434 
L 429.566798 331.857759 
L 456.033202 334.579373 
L 482.499605 336.509712 
L 508.966008 340.684214 
L 535.432411 342.133268 
L 561.898814 344.087268 
L 588.365217 345.66835 
L 614.831621 349.211756 
L 641.298024 350.335008 
L 667.764427 351.924447 
L 694.23083 354.054032 
L 720.697233 354.901349 
L 747.163636 357.089223 
" style="fill:none;stroke:#1f77b4;stroke-linecap:square;stroke-width:1.5;"/>
   </g>
   <g id="line2d_28">
    <path clip-path="url(#pc15f92ffb1)" d="M 138.436364 264.068481 
L 164.902767 278.332451 
L 191.36917 289.796533 
L 217.835573 299.858347 
L 244.301976 308.769222 
L 270.768379 317.183171 
L 297.234783 321.271244 
L 323.701186 326.769283 
L 350.167589 330.525783 
L 376.633992 334.018769 
L 403.100395 336.310852 
L 429.566798 340.42095 
L 456.033202 342.510379 
L 482.499605 345.809755 
L 508.966008 347.228774 
L 535.432411 349.985347 
L 561.898814 352.177592 
L 588.365217 353.851358 
L 614.831621 356.27809 
L 641.298024 357.624733 
L 667.764427 358.733402 
L 694.23083 361.836676 
L 720.697233 362.265572 
L 747.163636 363.174545 
" style="fill:none;stroke:#d3d3d3;stroke-linecap:square;stroke-width:1.5;"/>
   </g>
   <g id="line2d_29">
    <path clip-path="url(#pc15f92ffb1)" d="M 138.436364 199.344385 
L 164.902767 214.166888 
L 191.36917 225.865007 
L 217.835573 235.151105 
L 244.301976 243.190387 
L 270.768379 250.57277 
L 297.234783 257.094581 
L 323.701186 263.719468 
L 350.167589 267.856467 
L 376.633992 273.603472 
L 403.100395 277.474563 
L 429.566798 281.762315 
L 456.033202 286.630272 
L 482.499605 288.486202 
L 508.966008 292.441067 
L 535.432411 296.140581 
L 561.898814 299.228235 
L 588.365217 301.643072 
L 614.831621 305.501123 
L 641.298024 307.65226 
L 667.764427 310.429868 
L 694.23083 312.00359 
L 720.697233 314.340505 
L 747.163636 317.682498 
" style="fill:none;stroke:#d3d3d3;stroke-linecap:square;stroke-width:1.5;"/>
   </g>
   <g id="line2d_30">
    <path clip-path="url(#pc15f92ffb1)" d="M 138.436364 178.567169 
L 164.902767 192.055658 
L 191.36917 202.923986 
L 217.835573 213.229324 
L 244.301976 221.285564 
L 270.768379 229.67201 
L 297.234783 237.622474 
L 323.701186 244.35044 
L 350.167589 249.911515 
L 376.633992 257.479173 
L 403.100395 261.347334 
L 429.566798 266.500889 
L 456.033202 272.973726 
L 482.499605 279.279852 
L 508.966008 284.514808 
L 535.432411 288.503086 
L 561.898814 292.469649 
L 588.365217 297.451806 
L 614.831621 301.870916 
L 641.298024 304.878791 
L 667.764427 309.628545 
L 694.23083 311.859813 
L 720.697233 317.626086 
L 747.163636 320.012064 
" style="fill:none;stroke:#d3d3d3;stroke-linecap:square;stroke-width:1.5;"/>
   </g>
   <g id="line2d_31">
    <path clip-path="url(#pc15f92ffb1)" d="M 138.436364 228.352895 
L 164.902767 244.051486 
L 191.36917 254.451203 
L 217.835573 267.693142 
L 244.301976 276.685509 
L 270.768379 284.225158 
L 297.234783 290.492817 
L 323.701186 296.625303 
L 350.167589 301.360124 
L 376.633992 305.586792 
L 403.100395 308.470005 
L 429.566798 313.561372 
L 456.033202 316.650636 
L 482.499605 319.938556 
L 508.966008 322.600907 
L 535.432411 324.817727 
L 561.898814 327.348894 
L 588.365217 331.021794 
L 614.831621 332.044976 
L 641.298024 335.653206 
L 667.764427 336.411339 
L 694.23083 339.09977 
L 720.697233 341.014464 
L 747.163636 340.883995 
" style="fill:none;stroke:#ff7f0e;stroke-linecap:square;stroke-width:1.5;"/>
   </g>
   <g id="line2d_32">
    <path clip-path="url(#pc15f92ffb1)" d="M 138.436364 66.665455 
L 164.902767 98.359328 
L 191.36917 112.968697 
L 217.835573 121.200823 
L 244.301976 126.713114 
L 270.768379 130.552357 
L 297.234783 132.764102 
L 323.701186 135.329716 
L 350.167589 137.881855 
L 376.633992 139.374295 
L 403.100395 141.267171 
L 429.566798 142.783604 
L 456.033202 144.158788 
L 482.499605 145.54383 
L 508.966008 147.208326 
L 535.432411 147.729301 
L 561.898814 149.521979 
L 588.365217 150.603575 
L 614.831621 151.702447 
L 641.298024 153.201298 
L 667.764427 153.934351 
L 694.23083 155.80174 
L 720.697233 157.001236 
L 747.163636 158.694608 
" style="fill:none;stroke:#d3d3d3;stroke-linecap:square;stroke-width:1.5;"/>
   </g>
   <g id="line2d_33">
    <path clip-path="url(#pc15f92ffb1)" d="M 138.436364 181.188693 
L 164.902767 193.319315 
L 191.36917 204.29007 
L 217.835573 214.708392 
L 244.301976 224.601649 
L 270.768379 232.009841 
L 297.234783 240.682509 
L 323.701186 248.700406 
L 350.167589 255.298858 
L 376.633992 262.736963 
L 403.100395 267.439104 
L 429.566798 273.770925 
L 456.033202 279.555938 
L 482.499605 284.59925 
L 508.966008 289.214673 
L 535.432411 294.429727 
L 561.898814 298.737112 
L 588.365217 302.39732 
L 614.831621 306.270142 
L 641.298024 311.80048 
L 667.764427 314.11292 
L 694.23083 318.234443 
L 720.697233 322.47877 
L 747.163636 326.710708 
" style="fill:none;stroke:#d3d3d3;stroke-linecap:square;stroke-width:1.5;"/>
   </g>
   <g id="line2d_34">
    <path clip-path="url(#pc15f92ffb1)" d="M 138.436364 249.979015 
L 164.902767 263.884822 
L 191.36917 277.31555 
L 217.835573 290.259313 
L 244.301976 298.678664 
L 270.768379 306.434394 
L 297.234783 310.886095 
L 323.701186 317.139673 
L 350.167589 321.254883 
L 376.633992 325.364234 
L 403.100395 328.937554 
L 429.566798 332.966892 
L 456.033202 335.043123 
L 482.499605 338.72008 
L 508.966008 341.210088 
L 535.432411 343.287231 
L 561.898814 345.31885 
L 588.365217 346.670341 
L 614.831621 349.077409 
L 641.298024 349.492191 
L 667.764427 352.398512 
L 694.23083 353.092875 
L 720.697233 354.506865 
L 747.163636 356.631222 
" style="fill:none;stroke:#d3d3d3;stroke-linecap:square;stroke-width:1.5;"/>
   </g>
   <g id="line2d_35">
    <path clip-path="url(#pc15f92ffb1)" d="M 138.436364 249.943152 
L 164.902767 264.031293 
L 191.36917 277.394992 
L 217.835573 288.037826 
L 244.301976 295.800389 
L 270.768379 304.450402 
L 297.234783 309.641383 
L 323.701186 314.220813 
L 350.167589 319.382859 
L 376.633992 323.255995 
L 403.100395 327.289007 
L 429.566798 331.186049 
L 456.033202 334.91903 
L 482.499605 335.869823 
L 508.966008 338.458216 
L 535.432411 341.165489 
L 561.898814 344.748176 
L 588.365217 346.630796 
L 614.831621 347.365843 
L 641.298024 349.816026 
L 667.764427 351.692994 
L 694.23083 353.073124 
L 720.697233 355.542746 
L 747.163636 355.415529 
" style="fill:none;stroke:#2ca02c;stroke-linecap:square;stroke-width:1.5;"/>
   </g>
   <g id="line2d_36">
    <path clip-path="url(#pc15f92ffb1)" d="M 138.436364 239.159881 
L 164.902767 253.893492 
L 191.36917 266.527329 
L 217.835573 275.779433 
L 244.301976 284.75679 
L 270.768379 293.344947 
L 297.234783 299.914605 
L 323.701186 304.467067 
L 350.167589 309.961081 
L 376.633992 313.764762 
L 403.100395 318.495259 
L 429.566798 322.849613 
L 456.033202 326.526291 
L 482.499605 327.482213 
L 508.966008 333.365946 
L 535.432411 333.976763 
L 561.898814 337.217667 
L 588.365217 340.03855 
L 614.831621 340.488396 
L 641.298024 343.175583 
L 667.764427 344.962455 
L 694.23083 346.91886 
L 720.697233 346.879019 
L 747.163636 350.378548 
" style="fill:none;stroke:#d3d3d3;stroke-linecap:square;stroke-width:1.5;"/>
   </g>
   <g id="line2d_37">
    <path clip-path="url(#pc15f92ffb1)" d="M 138.436364 250.035969 
L 164.902767 264.61816 
L 191.36917 277.826663 
L 217.835573 289.784936 
L 244.301976 298.625379 
L 270.768379 305.243881 
L 297.234783 311.643625 
L 323.701186 315.596204 
L 350.167589 321.190281 
L 376.633992 325.587011 
L 403.100395 329.685064 
L 429.566798 333.30788 
L 456.033202 334.11008 
L 482.499605 337.551452 
L 508.966008 341.143166 
L 535.432411 343.96804 
L 561.898814 346.120648 
L 588.365217 347.374156 
L 614.831621 350.015596 
L 641.298024 351.041603 
L 667.764427 353.643712 
L 694.23083 354.932789 
L 720.697233 355.935381 
L 747.163636 357.624566 
" style="fill:none;stroke:#d3d3d3;stroke-linecap:square;stroke-width:1.5;"/>
   </g>
   <g id="line2d_38">
    <path clip-path="url(#pc15f92ffb1)" d="M 138.436364 197.645334 
L 164.902767 211.20041 
L 191.36917 225.255298 
L 217.835573 234.611094 
L 244.301976 243.722975 
L 270.768379 252.741542 
L 297.234783 260.090856 
L 323.701186 267.209871 
L 350.167589 274.069661 
L 376.633992 280.338655 
L 403.100395 284.905229 
L 429.566798 290.193722 
L 456.033202 295.914653 
L 482.499605 297.070502 
L 508.966008 303.137538 
L 535.432411 306.439067 
L 561.898814 311.576809 
L 588.365217 314.728839 
L 614.831621 316.943551 
L 641.298024 320.990024 
L 667.764427 323.447599 
L 694.23083 327.454433 
L 720.697233 330.567174 
L 747.163636 332.687473 
" style="fill:none;stroke:#d62728;stroke-linecap:square;stroke-width:1.5;"/>
   </g>
   <g id="line2d_39">
    <path clip-path="url(#pc15f92ffb1)" d="M 138.436364 165.311261 
L 164.902767 177.642309 
L 191.36917 187.314392 
L 217.835573 196.236213 
L 244.301976 203.610759 
L 270.768379 211.061737 
L 297.234783 217.401382 
L 323.701186 223.642247 
L 350.167589 228.384543 
L 376.633992 232.628714 
L 403.100395 237.950187 
L 429.566798 242.341515 
L 456.033202 245.442714 
L 482.499605 249.250633 
L 508.966008 252.833769 
L 535.432411 256.456256 
L 561.898814 259.585466 
L 588.365217 263.34536 
L 614.831621 265.903409 
L 641.298024 268.446588 
L 667.764427 271.045938 
L 694.23083 275.36262 
L 720.697233 277.342856 
L 747.163636 280.40158 
" style="fill:none;stroke:#d3d3d3;stroke-linecap:square;stroke-width:1.5;"/>
   </g>
   <g id="line2d_40">
    <path clip-path="url(#pc15f92ffb1)" d="M 138.436364 174.770985 
L 164.902767 188.965871 
L 191.36917 201.654279 
L 217.835573 210.237892 
L 244.301976 222.239442 
L 270.768379 229.141061 
L 297.234783 235.076746 
L 323.701186 243.907795 
L 350.167589 250.500279 
L 376.633992 256.146001 
L 403.100395 262.040913 
L 429.566798 269.664522 
L 456.033202 274.664989 
L 482.499605 281.873919 
L 508.966008 286.469748 
L 535.432411 291.690626 
L 561.898814 298.560174 
L 588.365217 303.657542 
L 614.831621 310.91286 
L 641.298024 315.105659 
L 667.764427 319.346237 
L 694.23083 325.303231 
L 720.697233 330.565796 
L 747.163636 334.99179 
" style="fill:none;stroke:#d3d3d3;stroke-linecap:square;stroke-width:1.5;"/>
   </g>
   <g id="line2d_41">
    <path clip-path="url(#pc15f92ffb1)" d="M 138.436364 247.363476 
L 164.902767 264.417864 
L 191.36917 278.967558 
L 217.835573 288.668817 
L 244.301976 296.943581 
L 270.768379 304.954349 
L 297.234783 309.295543 
L 323.701186 315.390051 
L 350.167589 319.494138 
L 376.633992 324.174751 
L 403.100395 327.367005 
L 429.566798 328.70765 
L 456.033202 333.206868 
L 482.499605 335.988552 
L 508.966008 339.436937 
L 535.432411 340.740327 
L 561.898814 342.413078 
L 588.365217 344.401029 
L 614.831621 345.953454 
L 641.298024 349.133205 
L 667.764427 351.114816 
L 694.23083 350.818335 
L 720.697233 353.91006 
L 747.163636 353.49669 
" style="fill:none;stroke:#d3d3d3;stroke-linecap:square;stroke-width:1.5;"/>
   </g>
   <g id="line2d_42">
    <path clip-path="url(#pc15f92ffb1)" d="M 138.436364 252.160887 
L 164.902767 267.063617 
L 191.36917 280.196988 
L 217.835573 289.663635 
L 244.301976 298.394623 
L 270.768379 306.192454 
L 297.234783 312.528821 
L 323.701186 317.719569 
L 350.167589 321.324158 
L 376.633992 325.600399 
L 403.100395 329.291402 
L 429.566798 333.354543 
L 456.033202 335.925897 
L 482.499605 340.135886 
L 508.966008 342.854742 
L 535.432411 343.977524 
L 561.898814 346.219795 
L 588.365217 348.894654 
L 614.831621 351.431831 
L 641.298024 352.696441 
L 667.764427 353.74662 
L 694.23083 356.17834 
L 720.697233 357.06389 
L 747.163636 357.297793 
" style="fill:none;stroke:#9467bd;stroke-linecap:square;stroke-width:1.5;"/>
   </g>
   <g id="line2d_43">
    <path clip-path="url(#pc15f92ffb1)" d="M 138.436364 250.26614 
L 164.902767 263.867782 
L 191.36917 276.458939 
L 217.835573 287.118439 
L 244.301976 297.808968 
L 270.768379 304.073526 
L 297.234783 309.745752 
L 323.701186 315.894705 
L 350.167589 319.748487 
L 376.633992 324.37854 
L 403.100395 327.461461 
L 429.566798 330.26719 
L 456.033202 334.560694 
L 482.499605 337.873207 
L 508.966008 338.823188 
L 535.432411 343.197625 
L 561.898814 345.638599 
L 588.365217 346.188817 
L 614.831621 347.661101 
L 641.298024 351.254137 
L 667.764427 350.309097 
L 694.23083 353.637071 
L 720.697233 353.897864 
L 747.163636 356.332253 
" style="fill:none;stroke:#8c564b;stroke-linecap:square;stroke-width:1.5;"/>
   </g>
   <g id="line2d_44">
    <path clip-path="url(#pc15f92ffb1)" d="M 138.436364 190.917677 
L 164.902767 206.614508 
L 191.36917 218.48247 
L 217.835573 228.520081 
L 244.301976 236.459539 
L 270.768379 245.57554 
L 297.234783 251.287915 
L 323.701186 258.023569 
L 350.167589 264.216364 
L 376.633992 269.70867 
L 403.100395 275.567651 
L 429.566798 279.165402 
L 456.033202 283.717734 
L 482.499605 289.225593 
L 508.966008 291.912143 
L 535.432411 295.716754 
L 561.898814 298.698684 
L 588.365217 301.951021 
L 614.831621 305.160381 
L 641.298024 307.190917 
L 667.764427 310.602376 
L 694.23083 312.696573 
L 720.697233 316.199815 
L 747.163636 317.169406 
" style="fill:none;stroke:#e377c2;stroke-linecap:square;stroke-width:1.5;"/>
   </g>
   <g id="patch_3">
    <path d="M 108 378 
L 108 51.84 
" style="fill:none;stroke:#000000;stroke-linecap:square;stroke-linejoin:miter;stroke-width:0.8;"/>
   </g>
   <g id="patch_4">
    <path d="M 777.6 378 
L 777.6 51.84 
" style="fill:none;stroke:#000000;stroke-linecap:square;stroke-linejoin:miter;stroke-width:0.8;"/>
   </g>
   <g id="patch_5">
    <path d="M 108 378 
L 777.6 378 
" style="fill:none;stroke:#000000;stroke-linecap:square;stroke-linejoin:miter;stroke-width:0.8;"/>
   </g>
   <g id="patch_6">
    <path d="M 108 51.84 
L 777.6 51.84 
" style="fill:none;stroke:#000000;stroke-linecap:square;stroke-linejoin:miter;stroke-width:0.8;"/>
   </g>
   <g id="text_15">
    <!-- Training Error over 25 epochs -->
    <defs>
     <path d="M 2.984375 54.6875 
L 12.5 54.6875 
L 29.59375 8.796875 
L 46.6875 54.6875 
L 56.203125 54.6875 
L 35.6875 0 
L 23.484375 0 
z
" id="DejaVuSans-76"/>
     <path d="M 44.28125 53.078125 
L 44.28125 44.578125 
Q 40.484375 46.53125 36.375 47.5 
Q 32.28125 48.484375 27.875 48.484375 
Q 21.1875 48.484375 17.84375 46.4375 
Q 14.5 44.390625 14.5 40.28125 
Q 14.5 37.15625 16.890625 35.375 
Q 19.28125 33.59375 26.515625 31.984375 
L 29.59375 31.296875 
Q 39.15625 29.25 43.1875 25.515625 
Q 47.21875 21.78125 47.21875 15.09375 
Q 47.21875 7.46875 41.1875 3.015625 
Q 35.15625 -1.421875 24.609375 -1.421875 
Q 20.21875 -1.421875 15.453125 -0.5625 
Q 10.6875 0.296875 5.421875 2 
L 5.421875 11.28125 
Q 10.40625 8.6875 15.234375 7.390625 
Q 20.0625 6.109375 24.8125 6.109375 
Q 31.15625 6.109375 34.5625 8.28125 
Q 37.984375 10.453125 37.984375 14.40625 
Q 37.984375 18.0625 35.515625 20.015625 
Q 33.0625 21.96875 24.703125 23.78125 
L 21.578125 24.515625 
Q 13.234375 26.265625 9.515625 29.90625 
Q 5.8125 33.546875 5.8125 39.890625 
Q 5.8125 47.609375 11.28125 51.796875 
Q 16.75 56 26.8125 56 
Q 31.78125 56 36.171875 55.265625 
Q 40.578125 54.546875 44.28125 53.078125 
" id="DejaVuSans-73"/>
    </defs>
    <g transform="translate(353.355 45.84)scale(0.12 -0.12)">
     <use xlink:href="#DejaVuSans-54"/>
     <use x="60.865234" xlink:href="#DejaVuSans-72"/>
     <use x="101.978516" xlink:href="#DejaVuSans-61"/>
     <use x="163.257812" xlink:href="#DejaVuSans-69"/>
     <use x="191.041016" xlink:href="#DejaVuSans-6e"/>
     <use x="254.419922" xlink:href="#DejaVuSans-69"/>
     <use x="282.203125" xlink:href="#DejaVuSans-6e"/>
     <use x="345.582031" xlink:href="#DejaVuSans-67"/>
     <use x="409.058594" xlink:href="#DejaVuSans-20"/>
     <use x="440.845703" xlink:href="#DejaVuSans-45"/>
     <use x="504.029297" xlink:href="#DejaVuSans-72"/>
     <use x="545.126953" xlink:href="#DejaVuSans-72"/>
     <use x="586.208984" xlink:href="#DejaVuSans-6f"/>
     <use x="647.390625" xlink:href="#DejaVuSans-72"/>
     <use x="688.503906" xlink:href="#DejaVuSans-20"/>
     <use x="720.291016" xlink:href="#DejaVuSans-6f"/>
     <use x="781.472656" xlink:href="#DejaVuSans-76"/>
     <use x="840.652344" xlink:href="#DejaVuSans-65"/>
     <use x="902.175781" xlink:href="#DejaVuSans-72"/>
     <use x="943.289062" xlink:href="#DejaVuSans-20"/>
     <use x="975.076172" xlink:href="#DejaVuSans-32"/>
     <use x="1038.699219" xlink:href="#DejaVuSans-35"/>
     <use x="1102.322266" xlink:href="#DejaVuSans-20"/>
     <use x="1134.109375" xlink:href="#DejaVuSans-65"/>
     <use x="1195.632812" xlink:href="#DejaVuSans-70"/>
     <use x="1259.109375" xlink:href="#DejaVuSans-6f"/>
     <use x="1320.291016" xlink:href="#DejaVuSans-63"/>
     <use x="1375.271484" xlink:href="#DejaVuSans-68"/>
     <use x="1438.650391" xlink:href="#DejaVuSans-73"/>
    </g>
   </g>
   <g id="legend_1">
    <g id="patch_7">
     <path d="M 587.004688 267.793437 
L 770.6 267.793437 
Q 772.6 267.793437 772.6 265.793437 
L 772.6 164.046562 
Q 772.6 162.046562 770.6 162.046562 
L 587.004688 162.046562 
Q 585.004688 162.046562 585.004688 164.046562 
L 585.004688 265.793437 
Q 585.004688 267.793437 587.004688 267.793437 
z
" style="fill:#ffffff;opacity:0.8;stroke:#cccccc;stroke-linejoin:miter;"/>
    </g>
    <g id="line2d_45">
     <path d="M 589.004688 170.145 
L 609.004688 170.145 
" style="fill:none;stroke:#1f77b4;stroke-linecap:square;stroke-width:1.5;"/>
    </g>
    <g id="line2d_46"/>
    <g id="text_16">
     <!-- state size: 363, num steps: 4 -->
     <defs>
      <path d="M 18.3125 70.21875 
L 18.3125 54.6875 
L 36.8125 54.6875 
L 36.8125 47.703125 
L 18.3125 47.703125 
L 18.3125 18.015625 
Q 18.3125 11.328125 20.140625 9.421875 
Q 21.96875 7.515625 27.59375 7.515625 
L 36.8125 7.515625 
L 36.8125 0 
L 27.59375 0 
Q 17.1875 0 13.234375 3.875 
Q 9.28125 7.765625 9.28125 18.015625 
L 9.28125 47.703125 
L 2.6875 47.703125 
L 2.6875 54.6875 
L 9.28125 54.6875 
L 9.28125 70.21875 
z
" id="DejaVuSans-74"/>
      <path d="M 5.515625 54.6875 
L 48.1875 54.6875 
L 48.1875 46.484375 
L 14.40625 7.171875 
L 48.1875 7.171875 
L 48.1875 0 
L 4.296875 0 
L 4.296875 8.203125 
L 38.09375 47.515625 
L 5.515625 47.515625 
z
" id="DejaVuSans-7a"/>
      <path d="M 11.71875 12.40625 
L 22.015625 12.40625 
L 22.015625 0 
L 11.71875 0 
z
M 11.71875 51.703125 
L 22.015625 51.703125 
L 22.015625 39.3125 
L 11.71875 39.3125 
z
" id="DejaVuSans-3a"/>
      <path d="M 40.578125 39.3125 
Q 47.65625 37.796875 51.625 33 
Q 55.609375 28.21875 55.609375 21.1875 
Q 55.609375 10.40625 48.1875 4.484375 
Q 40.765625 -1.421875 27.09375 -1.421875 
Q 22.515625 -1.421875 17.65625 -0.515625 
Q 12.796875 0.390625 7.625 2.203125 
L 7.625 11.71875 
Q 11.71875 9.328125 16.59375 8.109375 
Q 21.484375 6.890625 26.8125 6.890625 
Q 36.078125 6.890625 40.9375 10.546875 
Q 45.796875 14.203125 45.796875 21.1875 
Q 45.796875 27.640625 41.28125 31.265625 
Q 36.765625 34.90625 28.71875 34.90625 
L 20.21875 34.90625 
L 20.21875 43.015625 
L 29.109375 43.015625 
Q 36.375 43.015625 40.234375 45.921875 
Q 44.09375 48.828125 44.09375 54.296875 
Q 44.09375 59.90625 40.109375 62.90625 
Q 36.140625 65.921875 28.71875 65.921875 
Q 24.65625 65.921875 20.015625 65.03125 
Q 15.375 64.15625 9.8125 62.3125 
L 9.8125 71.09375 
Q 15.4375 72.65625 20.34375 73.4375 
Q 25.25 74.21875 29.59375 74.21875 
Q 40.828125 74.21875 47.359375 69.109375 
Q 53.90625 64.015625 53.90625 55.328125 
Q 53.90625 49.265625 50.4375 45.09375 
Q 46.96875 40.921875 40.578125 39.3125 
" id="DejaVuSans-33"/>
      <path d="M 11.71875 12.40625 
L 22.015625 12.40625 
L 22.015625 4 
L 14.015625 -11.625 
L 7.71875 -11.625 
L 11.71875 4 
z
" id="DejaVuSans-2c"/>
     </defs>
     <g transform="translate(617.004688 173.645)scale(0.1 -0.1)">
      <use xlink:href="#DejaVuSans-73"/>
      <use x="52.099609" xlink:href="#DejaVuSans-74"/>
      <use x="91.308594" xlink:href="#DejaVuSans-61"/>
      <use x="152.587891" xlink:href="#DejaVuSans-74"/>
      <use x="191.796875" xlink:href="#DejaVuSans-65"/>
      <use x="253.320312" xlink:href="#DejaVuSans-20"/>
      <use x="285.107422" xlink:href="#DejaVuSans-73"/>
      <use x="337.207031" xlink:href="#DejaVuSans-69"/>
      <use x="364.990234" xlink:href="#DejaVuSans-7a"/>
      <use x="417.480469" xlink:href="#DejaVuSans-65"/>
      <use x="479.003906" xlink:href="#DejaVuSans-3a"/>
      <use x="512.695312" xlink:href="#DejaVuSans-20"/>
      <use x="544.482422" xlink:href="#DejaVuSans-33"/>
      <use x="608.105469" xlink:href="#DejaVuSans-36"/>
      <use x="671.728516" xlink:href="#DejaVuSans-33"/>
      <use x="735.351562" xlink:href="#DejaVuSans-2c"/>
      <use x="767.138672" xlink:href="#DejaVuSans-20"/>
      <use x="798.925781" xlink:href="#DejaVuSans-6e"/>
      <use x="862.304688" xlink:href="#DejaVuSans-75"/>
      <use x="925.683594" xlink:href="#DejaVuSans-6d"/>
      <use x="1023.095703" xlink:href="#DejaVuSans-20"/>
      <use x="1054.882812" xlink:href="#DejaVuSans-73"/>
      <use x="1106.982422" xlink:href="#DejaVuSans-74"/>
      <use x="1146.191406" xlink:href="#DejaVuSans-65"/>
      <use x="1207.714844" xlink:href="#DejaVuSans-70"/>
      <use x="1271.191406" xlink:href="#DejaVuSans-73"/>
      <use x="1323.291016" xlink:href="#DejaVuSans-3a"/>
      <use x="1356.982422" xlink:href="#DejaVuSans-20"/>
      <use x="1388.769531" xlink:href="#DejaVuSans-34"/>
     </g>
    </g>
    <g id="line2d_47">
     <path d="M 589.004688 184.823125 
L 609.004688 184.823125 
" style="fill:none;stroke:#ff7f0e;stroke-linecap:square;stroke-width:1.5;"/>
    </g>
    <g id="line2d_48"/>
    <g id="text_17">
     <!-- state size: 325, num steps: 6 -->
     <g transform="translate(617.004688 188.323125)scale(0.1 -0.1)">
      <use xlink:href="#DejaVuSans-73"/>
      <use x="52.099609" xlink:href="#DejaVuSans-74"/>
      <use x="91.308594" xlink:href="#DejaVuSans-61"/>
      <use x="152.587891" xlink:href="#DejaVuSans-74"/>
      <use x="191.796875" xlink:href="#DejaVuSans-65"/>
      <use x="253.320312" xlink:href="#DejaVuSans-20"/>
      <use x="285.107422" xlink:href="#DejaVuSans-73"/>
      <use x="337.207031" xlink:href="#DejaVuSans-69"/>
      <use x="364.990234" xlink:href="#DejaVuSans-7a"/>
      <use x="417.480469" xlink:href="#DejaVuSans-65"/>
      <use x="479.003906" xlink:href="#DejaVuSans-3a"/>
      <use x="512.695312" xlink:href="#DejaVuSans-20"/>
      <use x="544.482422" xlink:href="#DejaVuSans-33"/>
      <use x="608.105469" xlink:href="#DejaVuSans-32"/>
      <use x="671.728516" xlink:href="#DejaVuSans-35"/>
      <use x="735.351562" xlink:href="#DejaVuSans-2c"/>
      <use x="767.138672" xlink:href="#DejaVuSans-20"/>
      <use x="798.925781" xlink:href="#DejaVuSans-6e"/>
      <use x="862.304688" xlink:href="#DejaVuSans-75"/>
      <use x="925.683594" xlink:href="#DejaVuSans-6d"/>
      <use x="1023.095703" xlink:href="#DejaVuSans-20"/>
      <use x="1054.882812" xlink:href="#DejaVuSans-73"/>
      <use x="1106.982422" xlink:href="#DejaVuSans-74"/>
      <use x="1146.191406" xlink:href="#DejaVuSans-65"/>
      <use x="1207.714844" xlink:href="#DejaVuSans-70"/>
      <use x="1271.191406" xlink:href="#DejaVuSans-73"/>
      <use x="1323.291016" xlink:href="#DejaVuSans-3a"/>
      <use x="1356.982422" xlink:href="#DejaVuSans-20"/>
      <use x="1388.769531" xlink:href="#DejaVuSans-36"/>
     </g>
    </g>
    <g id="line2d_49">
     <path d="M 589.004688 199.50125 
L 609.004688 199.50125 
" style="fill:none;stroke:#2ca02c;stroke-linecap:square;stroke-width:1.5;"/>
    </g>
    <g id="line2d_50"/>
    <g id="text_18">
     <!-- state size: 321, num steps: 4 -->
     <g transform="translate(617.004688 203.00125)scale(0.1 -0.1)">
      <use xlink:href="#DejaVuSans-73"/>
      <use x="52.099609" xlink:href="#DejaVuSans-74"/>
      <use x="91.308594" xlink:href="#DejaVuSans-61"/>
      <use x="152.587891" xlink:href="#DejaVuSans-74"/>
      <use x="191.796875" xlink:href="#DejaVuSans-65"/>
      <use x="253.320312" xlink:href="#DejaVuSans-20"/>
      <use x="285.107422" xlink:href="#DejaVuSans-73"/>
      <use x="337.207031" xlink:href="#DejaVuSans-69"/>
      <use x="364.990234" xlink:href="#DejaVuSans-7a"/>
      <use x="417.480469" xlink:href="#DejaVuSans-65"/>
      <use x="479.003906" xlink:href="#DejaVuSans-3a"/>
      <use x="512.695312" xlink:href="#DejaVuSans-20"/>
      <use x="544.482422" xlink:href="#DejaVuSans-33"/>
      <use x="608.105469" xlink:href="#DejaVuSans-32"/>
      <use x="671.728516" xlink:href="#DejaVuSans-31"/>
      <use x="735.351562" xlink:href="#DejaVuSans-2c"/>
      <use x="767.138672" xlink:href="#DejaVuSans-20"/>
      <use x="798.925781" xlink:href="#DejaVuSans-6e"/>
      <use x="862.304688" xlink:href="#DejaVuSans-75"/>
      <use x="925.683594" xlink:href="#DejaVuSans-6d"/>
      <use x="1023.095703" xlink:href="#DejaVuSans-20"/>
      <use x="1054.882812" xlink:href="#DejaVuSans-73"/>
      <use x="1106.982422" xlink:href="#DejaVuSans-74"/>
      <use x="1146.191406" xlink:href="#DejaVuSans-65"/>
      <use x="1207.714844" xlink:href="#DejaVuSans-70"/>
      <use x="1271.191406" xlink:href="#DejaVuSans-73"/>
      <use x="1323.291016" xlink:href="#DejaVuSans-3a"/>
      <use x="1356.982422" xlink:href="#DejaVuSans-20"/>
      <use x="1388.769531" xlink:href="#DejaVuSans-34"/>
     </g>
    </g>
    <g id="line2d_51">
     <path d="M 589.004688 214.179375 
L 609.004688 214.179375 
" style="fill:none;stroke:#d62728;stroke-linecap:square;stroke-width:1.5;"/>
    </g>
    <g id="line2d_52"/>
    <g id="text_19">
     <!-- state size: 500, num steps: 12 -->
     <g transform="translate(617.004688 217.679375)scale(0.1 -0.1)">
      <use xlink:href="#DejaVuSans-73"/>
      <use x="52.099609" xlink:href="#DejaVuSans-74"/>
      <use x="91.308594" xlink:href="#DejaVuSans-61"/>
      <use x="152.587891" xlink:href="#DejaVuSans-74"/>
      <use x="191.796875" xlink:href="#DejaVuSans-65"/>
      <use x="253.320312" xlink:href="#DejaVuSans-20"/>
      <use x="285.107422" xlink:href="#DejaVuSans-73"/>
      <use x="337.207031" xlink:href="#DejaVuSans-69"/>
      <use x="364.990234" xlink:href="#DejaVuSans-7a"/>
      <use x="417.480469" xlink:href="#DejaVuSans-65"/>
      <use x="479.003906" xlink:href="#DejaVuSans-3a"/>
      <use x="512.695312" xlink:href="#DejaVuSans-20"/>
      <use x="544.482422" xlink:href="#DejaVuSans-35"/>
      <use x="608.105469" xlink:href="#DejaVuSans-30"/>
      <use x="671.728516" xlink:href="#DejaVuSans-30"/>
      <use x="735.351562" xlink:href="#DejaVuSans-2c"/>
      <use x="767.138672" xlink:href="#DejaVuSans-20"/>
      <use x="798.925781" xlink:href="#DejaVuSans-6e"/>
      <use x="862.304688" xlink:href="#DejaVuSans-75"/>
      <use x="925.683594" xlink:href="#DejaVuSans-6d"/>
      <use x="1023.095703" xlink:href="#DejaVuSans-20"/>
      <use x="1054.882812" xlink:href="#DejaVuSans-73"/>
      <use x="1106.982422" xlink:href="#DejaVuSans-74"/>
      <use x="1146.191406" xlink:href="#DejaVuSans-65"/>
      <use x="1207.714844" xlink:href="#DejaVuSans-70"/>
      <use x="1271.191406" xlink:href="#DejaVuSans-73"/>
      <use x="1323.291016" xlink:href="#DejaVuSans-3a"/>
      <use x="1356.982422" xlink:href="#DejaVuSans-20"/>
      <use x="1388.769531" xlink:href="#DejaVuSans-31"/>
      <use x="1452.392578" xlink:href="#DejaVuSans-32"/>
     </g>
    </g>
    <g id="line2d_53">
     <path d="M 589.004688 228.8575 
L 609.004688 228.8575 
" style="fill:none;stroke:#9467bd;stroke-linecap:square;stroke-width:1.5;"/>
    </g>
    <g id="line2d_54"/>
    <g id="text_20">
     <!-- state size: 340, num steps: 4 -->
     <g transform="translate(617.004688 232.3575)scale(0.1 -0.1)">
      <use xlink:href="#DejaVuSans-73"/>
      <use x="52.099609" xlink:href="#DejaVuSans-74"/>
      <use x="91.308594" xlink:href="#DejaVuSans-61"/>
      <use x="152.587891" xlink:href="#DejaVuSans-74"/>
      <use x="191.796875" xlink:href="#DejaVuSans-65"/>
      <use x="253.320312" xlink:href="#DejaVuSans-20"/>
      <use x="285.107422" xlink:href="#DejaVuSans-73"/>
      <use x="337.207031" xlink:href="#DejaVuSans-69"/>
      <use x="364.990234" xlink:href="#DejaVuSans-7a"/>
      <use x="417.480469" xlink:href="#DejaVuSans-65"/>
      <use x="479.003906" xlink:href="#DejaVuSans-3a"/>
      <use x="512.695312" xlink:href="#DejaVuSans-20"/>
      <use x="544.482422" xlink:href="#DejaVuSans-33"/>
      <use x="608.105469" xlink:href="#DejaVuSans-34"/>
      <use x="671.728516" xlink:href="#DejaVuSans-30"/>
      <use x="735.351562" xlink:href="#DejaVuSans-2c"/>
      <use x="767.138672" xlink:href="#DejaVuSans-20"/>
      <use x="798.925781" xlink:href="#DejaVuSans-6e"/>
      <use x="862.304688" xlink:href="#DejaVuSans-75"/>
      <use x="925.683594" xlink:href="#DejaVuSans-6d"/>
      <use x="1023.095703" xlink:href="#DejaVuSans-20"/>
      <use x="1054.882812" xlink:href="#DejaVuSans-73"/>
      <use x="1106.982422" xlink:href="#DejaVuSans-74"/>
      <use x="1146.191406" xlink:href="#DejaVuSans-65"/>
      <use x="1207.714844" xlink:href="#DejaVuSans-70"/>
      <use x="1271.191406" xlink:href="#DejaVuSans-73"/>
      <use x="1323.291016" xlink:href="#DejaVuSans-3a"/>
      <use x="1356.982422" xlink:href="#DejaVuSans-20"/>
      <use x="1388.769531" xlink:href="#DejaVuSans-34"/>
     </g>
    </g>
    <g id="line2d_55">
     <path d="M 589.004688 243.535625 
L 609.004688 243.535625 
" style="fill:none;stroke:#8c564b;stroke-linecap:square;stroke-width:1.5;"/>
    </g>
    <g id="line2d_56"/>
    <g id="text_21">
     <!-- state size: 322, num steps: 4 -->
     <g transform="translate(617.004688 247.035625)scale(0.1 -0.1)">
      <use xlink:href="#DejaVuSans-73"/>
      <use x="52.099609" xlink:href="#DejaVuSans-74"/>
      <use x="91.308594" xlink:href="#DejaVuSans-61"/>
      <use x="152.587891" xlink:href="#DejaVuSans-74"/>
      <use x="191.796875" xlink:href="#DejaVuSans-65"/>
      <use x="253.320312" xlink:href="#DejaVuSans-20"/>
      <use x="285.107422" xlink:href="#DejaVuSans-73"/>
      <use x="337.207031" xlink:href="#DejaVuSans-69"/>
      <use x="364.990234" xlink:href="#DejaVuSans-7a"/>
      <use x="417.480469" xlink:href="#DejaVuSans-65"/>
      <use x="479.003906" xlink:href="#DejaVuSans-3a"/>
      <use x="512.695312" xlink:href="#DejaVuSans-20"/>
      <use x="544.482422" xlink:href="#DejaVuSans-33"/>
      <use x="608.105469" xlink:href="#DejaVuSans-32"/>
      <use x="671.728516" xlink:href="#DejaVuSans-32"/>
      <use x="735.351562" xlink:href="#DejaVuSans-2c"/>
      <use x="767.138672" xlink:href="#DejaVuSans-20"/>
      <use x="798.925781" xlink:href="#DejaVuSans-6e"/>
      <use x="862.304688" xlink:href="#DejaVuSans-75"/>
      <use x="925.683594" xlink:href="#DejaVuSans-6d"/>
      <use x="1023.095703" xlink:href="#DejaVuSans-20"/>
      <use x="1054.882812" xlink:href="#DejaVuSans-73"/>
      <use x="1106.982422" xlink:href="#DejaVuSans-74"/>
      <use x="1146.191406" xlink:href="#DejaVuSans-65"/>
      <use x="1207.714844" xlink:href="#DejaVuSans-70"/>
      <use x="1271.191406" xlink:href="#DejaVuSans-73"/>
      <use x="1323.291016" xlink:href="#DejaVuSans-3a"/>
      <use x="1356.982422" xlink:href="#DejaVuSans-20"/>
      <use x="1388.769531" xlink:href="#DejaVuSans-34"/>
     </g>
    </g>
    <g id="line2d_57">
     <path d="M 589.004688 258.21375 
L 609.004688 258.21375 
" style="fill:none;stroke:#e377c2;stroke-linecap:square;stroke-width:1.5;"/>
    </g>
    <g id="line2d_58"/>
    <g id="text_22">
     <!-- state size: 349, num steps: 15 -->
     <defs>
      <path d="M 10.984375 1.515625 
L 10.984375 10.5 
Q 14.703125 8.734375 18.5 7.8125 
Q 22.3125 6.890625 25.984375 6.890625 
Q 35.75 6.890625 40.890625 13.453125 
Q 46.046875 20.015625 46.78125 33.40625 
Q 43.953125 29.203125 39.59375 26.953125 
Q 35.25 24.703125 29.984375 24.703125 
Q 19.046875 24.703125 12.671875 31.3125 
Q 6.296875 37.9375 6.296875 49.421875 
Q 6.296875 60.640625 12.9375 67.421875 
Q 19.578125 74.21875 30.609375 74.21875 
Q 43.265625 74.21875 49.921875 64.515625 
Q 56.59375 54.828125 56.59375 36.375 
Q 56.59375 19.140625 48.40625 8.859375 
Q 40.234375 -1.421875 26.421875 -1.421875 
Q 22.703125 -1.421875 18.890625 -0.6875 
Q 15.09375 0.046875 10.984375 1.515625 
M 30.609375 32.421875 
Q 37.25 32.421875 41.125 36.953125 
Q 45.015625 41.5 45.015625 49.421875 
Q 45.015625 57.28125 41.125 61.84375 
Q 37.25 66.40625 30.609375 66.40625 
Q 23.96875 66.40625 20.09375 61.84375 
Q 16.21875 57.28125 16.21875 49.421875 
Q 16.21875 41.5 20.09375 36.953125 
Q 23.96875 32.421875 30.609375 32.421875 
" id="DejaVuSans-39"/>
     </defs>
     <g transform="translate(617.004688 261.71375)scale(0.1 -0.1)">
      <use xlink:href="#DejaVuSans-73"/>
      <use x="52.099609" xlink:href="#DejaVuSans-74"/>
      <use x="91.308594" xlink:href="#DejaVuSans-61"/>
      <use x="152.587891" xlink:href="#DejaVuSans-74"/>
      <use x="191.796875" xlink:href="#DejaVuSans-65"/>
      <use x="253.320312" xlink:href="#DejaVuSans-20"/>
      <use x="285.107422" xlink:href="#DejaVuSans-73"/>
      <use x="337.207031" xlink:href="#DejaVuSans-69"/>
      <use x="364.990234" xlink:href="#DejaVuSans-7a"/>
      <use x="417.480469" xlink:href="#DejaVuSans-65"/>
      <use x="479.003906" xlink:href="#DejaVuSans-3a"/>
      <use x="512.695312" xlink:href="#DejaVuSans-20"/>
      <use x="544.482422" xlink:href="#DejaVuSans-33"/>
      <use x="608.105469" xlink:href="#DejaVuSans-34"/>
      <use x="671.728516" xlink:href="#DejaVuSans-39"/>
      <use x="735.351562" xlink:href="#DejaVuSans-2c"/>
      <use x="767.138672" xlink:href="#DejaVuSans-20"/>
      <use x="798.925781" xlink:href="#DejaVuSans-6e"/>
      <use x="862.304688" xlink:href="#DejaVuSans-75"/>
      <use x="925.683594" xlink:href="#DejaVuSans-6d"/>
      <use x="1023.095703" xlink:href="#DejaVuSans-20"/>
      <use x="1054.882812" xlink:href="#DejaVuSans-73"/>
      <use x="1106.982422" xlink:href="#DejaVuSans-74"/>
      <use x="1146.191406" xlink:href="#DejaVuSans-65"/>
      <use x="1207.714844" xlink:href="#DejaVuSans-70"/>
      <use x="1271.191406" xlink:href="#DejaVuSans-73"/>
      <use x="1323.291016" xlink:href="#DejaVuSans-3a"/>
      <use x="1356.982422" xlink:href="#DejaVuSans-20"/>
      <use x="1388.769531" xlink:href="#DejaVuSans-31"/>
      <use x="1452.392578" xlink:href="#DejaVuSans-35"/>
     </g>
    </g>
   </g>
  </g>
 </g>
 <defs>
  <clipPath id="pc15f92ffb1">
   <rect height="326.16" width="669.6" x="108" y="51.84"/>
  </clipPath>
 </defs>
</svg>
