<?xml version="1.0" encoding="utf-8" standalone="no"?>
<!DOCTYPE svg PUBLIC "-//W3C//DTD SVG 1.1//EN"
  "http://www.w3.org/Graphics/SVG/1.1/DTD/svg11.dtd">
<!-- Created with matplotlib (http://matplotlib.org/) -->
<svg height="288pt" version="1.1" viewBox="0 0 576 288" width="576pt" xmlns="http://www.w3.org/2000/svg" xmlns:xlink="http://www.w3.org/1999/xlink">
 <defs>
  <style type="text/css">
*{stroke-linecap:butt;stroke-linejoin:round;}
  </style>
 </defs>
 <g id="figure_1">
  <g id="patch_1">
   <path d="M 0 288 
L 576 288 
L 576 0 
L 0 0 
z
" style="fill:#ffffff;"/>
  </g>
  <g id="axes_1">
   <g id="patch_2">
    <path d="M 72 252 
L 518.4 252 
L 518.4 34.56 
L 72 34.56 
z
" style="fill:#ffffff;"/>
   </g>
   <g id="matplotlib.axis_1">
    <g id="xtick_1">
     <g id="line2d_1">
      <defs>
       <path d="M 0 0 
L 0 3.5 
" id="m26b82f57af" style="stroke:#000000;stroke-width:0.8;"/>
      </defs>
      <g>
       <use style="stroke:#000000;stroke-width:0.8;" x="91.710339" xlink:href="#m26b82f57af" y="252"/>
      </g>
     </g>
     <g id="text_1">
      <!-- 0 -->
      <defs>
       <path d="M 31.78125 66.40625 
Q 24.171875 66.40625 20.328125 58.90625 
Q 16.5 51.421875 16.5 36.375 
Q 16.5 21.390625 20.328125 13.890625 
Q 24.171875 6.390625 31.78125 6.390625 
Q 39.453125 6.390625 43.28125 13.890625 
Q 47.125 21.390625 47.125 36.375 
Q 47.125 51.421875 43.28125 58.90625 
Q 39.453125 66.40625 31.78125 66.40625 
M 31.78125 74.21875 
Q 44.046875 74.21875 50.515625 64.515625 
Q 56.984375 54.828125 56.984375 36.375 
Q 56.984375 17.96875 50.515625 8.265625 
Q 44.046875 -1.421875 31.78125 -1.421875 
Q 19.53125 -1.421875 13.0625 8.265625 
Q 6.59375 17.96875 6.59375 36.375 
Q 6.59375 54.828125 13.0625 64.515625 
Q 19.53125 74.21875 31.78125 74.21875 
" id="DejaVuSans-30"/>
      </defs>
      <g transform="translate(88.529089 266.598437)scale(0.1 -0.1)">
       <use xlink:href="#DejaVuSans-30"/>
      </g>
     </g>
    </g>
    <g id="xtick_2">
     <g id="line2d_2">
      <g>
       <use style="stroke:#000000;stroke-width:0.8;" x="149.767304" xlink:href="#m26b82f57af" y="252"/>
      </g>
     </g>
     <g id="text_2">
      <!-- 100 -->
      <defs>
       <path d="M 12.40625 8.296875 
L 28.515625 8.296875 
L 28.515625 63.921875 
L 10.984375 60.40625 
L 10.984375 69.390625 
L 28.421875 72.90625 
L 38.28125 72.90625 
L 38.28125 8.296875 
L 54.390625 8.296875 
L 54.390625 0 
L 12.40625 0 
z
" id="DejaVuSans-31"/>
      </defs>
      <g transform="translate(140.223554 266.598437)scale(0.1 -0.1)">
       <use xlink:href="#DejaVuSans-31"/>
       <use x="63.623047" xlink:href="#DejaVuSans-30"/>
       <use x="127.246094" xlink:href="#DejaVuSans-30"/>
      </g>
     </g>
    </g>
    <g id="xtick_3">
     <g id="line2d_3">
      <g>
       <use style="stroke:#000000;stroke-width:0.8;" x="207.824268" xlink:href="#m26b82f57af" y="252"/>
      </g>
     </g>
     <g id="text_3">
      <!-- 200 -->
      <defs>
       <path d="M 19.1875 8.296875 
L 53.609375 8.296875 
L 53.609375 0 
L 7.328125 0 
L 7.328125 8.296875 
Q 12.9375 14.109375 22.625 23.890625 
Q 32.328125 33.6875 34.8125 36.53125 
Q 39.546875 41.84375 41.421875 45.53125 
Q 43.3125 49.21875 43.3125 52.78125 
Q 43.3125 58.59375 39.234375 62.25 
Q 35.15625 65.921875 28.609375 65.921875 
Q 23.96875 65.921875 18.8125 64.3125 
Q 13.671875 62.703125 7.8125 59.421875 
L 7.8125 69.390625 
Q 13.765625 71.78125 18.9375 73 
Q 24.125 74.21875 28.421875 74.21875 
Q 39.75 74.21875 46.484375 68.546875 
Q 53.21875 62.890625 53.21875 53.421875 
Q 53.21875 48.921875 51.53125 44.890625 
Q 49.859375 40.875 45.40625 35.40625 
Q 44.1875 33.984375 37.640625 27.21875 
Q 31.109375 20.453125 19.1875 8.296875 
" id="DejaVuSans-32"/>
      </defs>
      <g transform="translate(198.280518 266.598437)scale(0.1 -0.1)">
       <use xlink:href="#DejaVuSans-32"/>
       <use x="63.623047" xlink:href="#DejaVuSans-30"/>
       <use x="127.246094" xlink:href="#DejaVuSans-30"/>
      </g>
     </g>
    </g>
    <g id="xtick_4">
     <g id="line2d_4">
      <g>
       <use style="stroke:#000000;stroke-width:0.8;" x="265.881233" xlink:href="#m26b82f57af" y="252"/>
      </g>
     </g>
     <g id="text_4">
      <!-- 300 -->
      <defs>
       <path d="M 40.578125 39.3125 
Q 47.65625 37.796875 51.625 33 
Q 55.609375 28.21875 55.609375 21.1875 
Q 55.609375 10.40625 48.1875 4.484375 
Q 40.765625 -1.421875 27.09375 -1.421875 
Q 22.515625 -1.421875 17.65625 -0.515625 
Q 12.796875 0.390625 7.625 2.203125 
L 7.625 11.71875 
Q 11.71875 9.328125 16.59375 8.109375 
Q 21.484375 6.890625 26.8125 6.890625 
Q 36.078125 6.890625 40.9375 10.546875 
Q 45.796875 14.203125 45.796875 21.1875 
Q 45.796875 27.640625 41.28125 31.265625 
Q 36.765625 34.90625 28.71875 34.90625 
L 20.21875 34.90625 
L 20.21875 43.015625 
L 29.109375 43.015625 
Q 36.375 43.015625 40.234375 45.921875 
Q 44.09375 48.828125 44.09375 54.296875 
Q 44.09375 59.90625 40.109375 62.90625 
Q 36.140625 65.921875 28.71875 65.921875 
Q 24.65625 65.921875 20.015625 65.03125 
Q 15.375 64.15625 9.8125 62.3125 
L 9.8125 71.09375 
Q 15.4375 72.65625 20.34375 73.4375 
Q 25.25 74.21875 29.59375 74.21875 
Q 40.828125 74.21875 47.359375 69.109375 
Q 53.90625 64.015625 53.90625 55.328125 
Q 53.90625 49.265625 50.4375 45.09375 
Q 46.96875 40.921875 40.578125 39.3125 
" id="DejaVuSans-33"/>
      </defs>
      <g transform="translate(256.337483 266.598437)scale(0.1 -0.1)">
       <use xlink:href="#DejaVuSans-33"/>
       <use x="63.623047" xlink:href="#DejaVuSans-30"/>
       <use x="127.246094" xlink:href="#DejaVuSans-30"/>
      </g>
     </g>
    </g>
    <g id="xtick_5">
     <g id="line2d_5">
      <g>
       <use style="stroke:#000000;stroke-width:0.8;" x="323.938197" xlink:href="#m26b82f57af" y="252"/>
      </g>
     </g>
     <g id="text_5">
      <!-- 400 -->
      <defs>
       <path d="M 37.796875 64.3125 
L 12.890625 25.390625 
L 37.796875 25.390625 
z
M 35.203125 72.90625 
L 47.609375 72.90625 
L 47.609375 25.390625 
L 58.015625 25.390625 
L 58.015625 17.1875 
L 47.609375 17.1875 
L 47.609375 0 
L 37.796875 0 
L 37.796875 17.1875 
L 4.890625 17.1875 
L 4.890625 26.703125 
z
" id="DejaVuSans-34"/>
      </defs>
      <g transform="translate(314.394447 266.598437)scale(0.1 -0.1)">
       <use xlink:href="#DejaVuSans-34"/>
       <use x="63.623047" xlink:href="#DejaVuSans-30"/>
       <use x="127.246094" xlink:href="#DejaVuSans-30"/>
      </g>
     </g>
    </g>
    <g id="xtick_6">
     <g id="line2d_6">
      <g>
       <use style="stroke:#000000;stroke-width:0.8;" x="381.995162" xlink:href="#m26b82f57af" y="252"/>
      </g>
     </g>
     <g id="text_6">
      <!-- 500 -->
      <defs>
       <path d="M 10.796875 72.90625 
L 49.515625 72.90625 
L 49.515625 64.59375 
L 19.828125 64.59375 
L 19.828125 46.734375 
Q 21.96875 47.46875 24.109375 47.828125 
Q 26.265625 48.1875 28.421875 48.1875 
Q 40.625 48.1875 47.75 41.5 
Q 54.890625 34.8125 54.890625 23.390625 
Q 54.890625 11.625 47.5625 5.09375 
Q 40.234375 -1.421875 26.90625 -1.421875 
Q 22.3125 -1.421875 17.546875 -0.640625 
Q 12.796875 0.140625 7.71875 1.703125 
L 7.71875 11.625 
Q 12.109375 9.234375 16.796875 8.0625 
Q 21.484375 6.890625 26.703125 6.890625 
Q 35.15625 6.890625 40.078125 11.328125 
Q 45.015625 15.765625 45.015625 23.390625 
Q 45.015625 31 40.078125 35.4375 
Q 35.15625 39.890625 26.703125 39.890625 
Q 22.75 39.890625 18.8125 39.015625 
Q 14.890625 38.140625 10.796875 36.28125 
z
" id="DejaVuSans-35"/>
      </defs>
      <g transform="translate(372.451412 266.598437)scale(0.1 -0.1)">
       <use xlink:href="#DejaVuSans-35"/>
       <use x="63.623047" xlink:href="#DejaVuSans-30"/>
       <use x="127.246094" xlink:href="#DejaVuSans-30"/>
      </g>
     </g>
    </g>
    <g id="xtick_7">
     <g id="line2d_7">
      <g>
       <use style="stroke:#000000;stroke-width:0.8;" x="440.052126" xlink:href="#m26b82f57af" y="252"/>
      </g>
     </g>
     <g id="text_7">
      <!-- 600 -->
      <defs>
       <path d="M 33.015625 40.375 
Q 26.375 40.375 22.484375 35.828125 
Q 18.609375 31.296875 18.609375 23.390625 
Q 18.609375 15.53125 22.484375 10.953125 
Q 26.375 6.390625 33.015625 6.390625 
Q 39.65625 6.390625 43.53125 10.953125 
Q 47.40625 15.53125 47.40625 23.390625 
Q 47.40625 31.296875 43.53125 35.828125 
Q 39.65625 40.375 33.015625 40.375 
M 52.59375 71.296875 
L 52.59375 62.3125 
Q 48.875 64.0625 45.09375 64.984375 
Q 41.3125 65.921875 37.59375 65.921875 
Q 27.828125 65.921875 22.671875 59.328125 
Q 17.53125 52.734375 16.796875 39.40625 
Q 19.671875 43.65625 24.015625 45.921875 
Q 28.375 48.1875 33.59375 48.1875 
Q 44.578125 48.1875 50.953125 41.515625 
Q 57.328125 34.859375 57.328125 23.390625 
Q 57.328125 12.15625 50.6875 5.359375 
Q 44.046875 -1.421875 33.015625 -1.421875 
Q 20.359375 -1.421875 13.671875 8.265625 
Q 6.984375 17.96875 6.984375 36.375 
Q 6.984375 53.65625 15.1875 63.9375 
Q 23.390625 74.21875 37.203125 74.21875 
Q 40.921875 74.21875 44.703125 73.484375 
Q 48.484375 72.75 52.59375 71.296875 
" id="DejaVuSans-36"/>
      </defs>
      <g transform="translate(430.508376 266.598437)scale(0.1 -0.1)">
       <use xlink:href="#DejaVuSans-36"/>
       <use x="63.623047" xlink:href="#DejaVuSans-30"/>
       <use x="127.246094" xlink:href="#DejaVuSans-30"/>
      </g>
     </g>
    </g>
    <g id="xtick_8">
     <g id="line2d_8">
      <g>
       <use style="stroke:#000000;stroke-width:0.8;" x="498.109091" xlink:href="#m26b82f57af" y="252"/>
      </g>
     </g>
     <g id="text_8">
      <!-- 700 -->
      <defs>
       <path d="M 8.203125 72.90625 
L 55.078125 72.90625 
L 55.078125 68.703125 
L 28.609375 0 
L 18.3125 0 
L 43.21875 64.59375 
L 8.203125 64.59375 
z
" id="DejaVuSans-37"/>
      </defs>
      <g transform="translate(488.565341 266.598437)scale(0.1 -0.1)">
       <use xlink:href="#DejaVuSans-37"/>
       <use x="63.623047" xlink:href="#DejaVuSans-30"/>
       <use x="127.246094" xlink:href="#DejaVuSans-30"/>
      </g>
     </g>
    </g>
    <g id="text_9">
     <!-- Epoch number -->
     <defs>
      <path d="M 9.8125 72.90625 
L 55.90625 72.90625 
L 55.90625 64.59375 
L 19.671875 64.59375 
L 19.671875 43.015625 
L 54.390625 43.015625 
L 54.390625 34.71875 
L 19.671875 34.71875 
L 19.671875 8.296875 
L 56.78125 8.296875 
L 56.78125 0 
L 9.8125 0 
z
" id="DejaVuSans-45"/>
      <path d="M 18.109375 8.203125 
L 18.109375 -20.796875 
L 9.078125 -20.796875 
L 9.078125 54.6875 
L 18.109375 54.6875 
L 18.109375 46.390625 
Q 20.953125 51.265625 25.265625 53.625 
Q 29.59375 56 35.59375 56 
Q 45.5625 56 51.78125 48.09375 
Q 58.015625 40.1875 58.015625 27.296875 
Q 58.015625 14.40625 51.78125 6.484375 
Q 45.5625 -1.421875 35.59375 -1.421875 
Q 29.59375 -1.421875 25.265625 0.953125 
Q 20.953125 3.328125 18.109375 8.203125 
M 48.6875 27.296875 
Q 48.6875 37.203125 44.609375 42.84375 
Q 40.53125 48.484375 33.40625 48.484375 
Q 26.265625 48.484375 22.1875 42.84375 
Q 18.109375 37.203125 18.109375 27.296875 
Q 18.109375 17.390625 22.1875 11.75 
Q 26.265625 6.109375 33.40625 6.109375 
Q 40.53125 6.109375 44.609375 11.75 
Q 48.6875 17.390625 48.6875 27.296875 
" id="DejaVuSans-70"/>
      <path d="M 30.609375 48.390625 
Q 23.390625 48.390625 19.1875 42.75 
Q 14.984375 37.109375 14.984375 27.296875 
Q 14.984375 17.484375 19.15625 11.84375 
Q 23.34375 6.203125 30.609375 6.203125 
Q 37.796875 6.203125 41.984375 11.859375 
Q 46.1875 17.53125 46.1875 27.296875 
Q 46.1875 37.015625 41.984375 42.703125 
Q 37.796875 48.390625 30.609375 48.390625 
M 30.609375 56 
Q 42.328125 56 49.015625 48.375 
Q 55.71875 40.765625 55.71875 27.296875 
Q 55.71875 13.875 49.015625 6.21875 
Q 42.328125 -1.421875 30.609375 -1.421875 
Q 18.84375 -1.421875 12.171875 6.21875 
Q 5.515625 13.875 5.515625 27.296875 
Q 5.515625 40.765625 12.171875 48.375 
Q 18.84375 56 30.609375 56 
" id="DejaVuSans-6f"/>
      <path d="M 48.78125 52.59375 
L 48.78125 44.1875 
Q 44.96875 46.296875 41.140625 47.34375 
Q 37.3125 48.390625 33.40625 48.390625 
Q 24.65625 48.390625 19.8125 42.84375 
Q 14.984375 37.3125 14.984375 27.296875 
Q 14.984375 17.28125 19.8125 11.734375 
Q 24.65625 6.203125 33.40625 6.203125 
Q 37.3125 6.203125 41.140625 7.25 
Q 44.96875 8.296875 48.78125 10.40625 
L 48.78125 2.09375 
Q 45.015625 0.34375 40.984375 -0.53125 
Q 36.96875 -1.421875 32.421875 -1.421875 
Q 20.0625 -1.421875 12.78125 6.34375 
Q 5.515625 14.109375 5.515625 27.296875 
Q 5.515625 40.671875 12.859375 48.328125 
Q 20.21875 56 33.015625 56 
Q 37.15625 56 41.109375 55.140625 
Q 45.0625 54.296875 48.78125 52.59375 
" id="DejaVuSans-63"/>
      <path d="M 54.890625 33.015625 
L 54.890625 0 
L 45.90625 0 
L 45.90625 32.71875 
Q 45.90625 40.484375 42.875 44.328125 
Q 39.84375 48.1875 33.796875 48.1875 
Q 26.515625 48.1875 22.3125 43.546875 
Q 18.109375 38.921875 18.109375 30.90625 
L 18.109375 0 
L 9.078125 0 
L 9.078125 75.984375 
L 18.109375 75.984375 
L 18.109375 46.1875 
Q 21.34375 51.125 25.703125 53.5625 
Q 30.078125 56 35.796875 56 
Q 45.21875 56 50.046875 50.171875 
Q 54.890625 44.34375 54.890625 33.015625 
" id="DejaVuSans-68"/>
      <path id="DejaVuSans-20"/>
      <path d="M 54.890625 33.015625 
L 54.890625 0 
L 45.90625 0 
L 45.90625 32.71875 
Q 45.90625 40.484375 42.875 44.328125 
Q 39.84375 48.1875 33.796875 48.1875 
Q 26.515625 48.1875 22.3125 43.546875 
Q 18.109375 38.921875 18.109375 30.90625 
L 18.109375 0 
L 9.078125 0 
L 9.078125 54.6875 
L 18.109375 54.6875 
L 18.109375 46.1875 
Q 21.34375 51.125 25.703125 53.5625 
Q 30.078125 56 35.796875 56 
Q 45.21875 56 50.046875 50.171875 
Q 54.890625 44.34375 54.890625 33.015625 
" id="DejaVuSans-6e"/>
      <path d="M 8.5 21.578125 
L 8.5 54.6875 
L 17.484375 54.6875 
L 17.484375 21.921875 
Q 17.484375 14.15625 20.5 10.265625 
Q 23.53125 6.390625 29.59375 6.390625 
Q 36.859375 6.390625 41.078125 11.03125 
Q 45.3125 15.671875 45.3125 23.6875 
L 45.3125 54.6875 
L 54.296875 54.6875 
L 54.296875 0 
L 45.3125 0 
L 45.3125 8.40625 
Q 42.046875 3.421875 37.71875 1 
Q 33.40625 -1.421875 27.6875 -1.421875 
Q 18.265625 -1.421875 13.375 4.4375 
Q 8.5 10.296875 8.5 21.578125 
M 31.109375 56 
z
" id="DejaVuSans-75"/>
      <path d="M 52 44.1875 
Q 55.375 50.25 60.0625 53.125 
Q 64.75 56 71.09375 56 
Q 79.640625 56 84.28125 50.015625 
Q 88.921875 44.046875 88.921875 33.015625 
L 88.921875 0 
L 79.890625 0 
L 79.890625 32.71875 
Q 79.890625 40.578125 77.09375 44.375 
Q 74.3125 48.1875 68.609375 48.1875 
Q 61.625 48.1875 57.5625 43.546875 
Q 53.515625 38.921875 53.515625 30.90625 
L 53.515625 0 
L 44.484375 0 
L 44.484375 32.71875 
Q 44.484375 40.625 41.703125 44.40625 
Q 38.921875 48.1875 33.109375 48.1875 
Q 26.21875 48.1875 22.15625 43.53125 
Q 18.109375 38.875 18.109375 30.90625 
L 18.109375 0 
L 9.078125 0 
L 9.078125 54.6875 
L 18.109375 54.6875 
L 18.109375 46.1875 
Q 21.1875 51.21875 25.484375 53.609375 
Q 29.78125 56 35.6875 56 
Q 41.65625 56 45.828125 52.96875 
Q 50 49.953125 52 44.1875 
" id="DejaVuSans-6d"/>
      <path d="M 48.6875 27.296875 
Q 48.6875 37.203125 44.609375 42.84375 
Q 40.53125 48.484375 33.40625 48.484375 
Q 26.265625 48.484375 22.1875 42.84375 
Q 18.109375 37.203125 18.109375 27.296875 
Q 18.109375 17.390625 22.1875 11.75 
Q 26.265625 6.109375 33.40625 6.109375 
Q 40.53125 6.109375 44.609375 11.75 
Q 48.6875 17.390625 48.6875 27.296875 
M 18.109375 46.390625 
Q 20.953125 51.265625 25.265625 53.625 
Q 29.59375 56 35.59375 56 
Q 45.5625 56 51.78125 48.09375 
Q 58.015625 40.1875 58.015625 27.296875 
Q 58.015625 14.40625 51.78125 6.484375 
Q 45.5625 -1.421875 35.59375 -1.421875 
Q 29.59375 -1.421875 25.265625 0.953125 
Q 20.953125 3.328125 18.109375 8.203125 
L 18.109375 0 
L 9.078125 0 
L 9.078125 75.984375 
L 18.109375 75.984375 
z
" id="DejaVuSans-62"/>
      <path d="M 56.203125 29.59375 
L 56.203125 25.203125 
L 14.890625 25.203125 
Q 15.484375 15.921875 20.484375 11.0625 
Q 25.484375 6.203125 34.421875 6.203125 
Q 39.59375 6.203125 44.453125 7.46875 
Q 49.3125 8.734375 54.109375 11.28125 
L 54.109375 2.78125 
Q 49.265625 0.734375 44.1875 -0.34375 
Q 39.109375 -1.421875 33.890625 -1.421875 
Q 20.796875 -1.421875 13.15625 6.1875 
Q 5.515625 13.8125 5.515625 26.8125 
Q 5.515625 40.234375 12.765625 48.109375 
Q 20.015625 56 32.328125 56 
Q 43.359375 56 49.78125 48.890625 
Q 56.203125 41.796875 56.203125 29.59375 
M 47.21875 32.234375 
Q 47.125 39.59375 43.09375 43.984375 
Q 39.0625 48.390625 32.421875 48.390625 
Q 24.90625 48.390625 20.390625 44.140625 
Q 15.875 39.890625 15.1875 32.171875 
z
" id="DejaVuSans-65"/>
      <path d="M 41.109375 46.296875 
Q 39.59375 47.171875 37.8125 47.578125 
Q 36.03125 48 33.890625 48 
Q 26.265625 48 22.1875 43.046875 
Q 18.109375 38.09375 18.109375 28.8125 
L 18.109375 0 
L 9.078125 0 
L 9.078125 54.6875 
L 18.109375 54.6875 
L 18.109375 46.1875 
Q 20.953125 51.171875 25.484375 53.578125 
Q 30.03125 56 36.53125 56 
Q 37.453125 56 38.578125 55.875 
Q 39.703125 55.765625 41.0625 55.515625 
z
" id="DejaVuSans-72"/>
     </defs>
     <g transform="translate(258.785937 280.276563)scale(0.1 -0.1)">
      <use xlink:href="#DejaVuSans-45"/>
      <use x="63.183594" xlink:href="#DejaVuSans-70"/>
      <use x="126.660156" xlink:href="#DejaVuSans-6f"/>
      <use x="187.841797" xlink:href="#DejaVuSans-63"/>
      <use x="242.822266" xlink:href="#DejaVuSans-68"/>
      <use x="306.201172" xlink:href="#DejaVuSans-20"/>
      <use x="337.988281" xlink:href="#DejaVuSans-6e"/>
      <use x="401.367188" xlink:href="#DejaVuSans-75"/>
      <use x="464.746094" xlink:href="#DejaVuSans-6d"/>
      <use x="562.158203" xlink:href="#DejaVuSans-62"/>
      <use x="625.634766" xlink:href="#DejaVuSans-65"/>
      <use x="687.158203" xlink:href="#DejaVuSans-72"/>
     </g>
    </g>
   </g>
   <g id="matplotlib.axis_2">
    <g id="ytick_1">
     <g id="line2d_9">
      <defs>
       <path d="M 0 0 
L -3.5 0 
" id="ma2a8a94e82" style="stroke:#000000;stroke-width:0.8;"/>
      </defs>
      <g>
       <use style="stroke:#000000;stroke-width:0.8;" x="72" xlink:href="#ma2a8a94e82" y="242.378079"/>
      </g>
     </g>
     <g id="text_10">
      <!-- 0 -->
      <g transform="translate(58.6375 246.177298)scale(0.1 -0.1)">
       <use xlink:href="#DejaVuSans-30"/>
      </g>
     </g>
    </g>
    <g id="ytick_2">
     <g id="line2d_10">
      <g>
       <use style="stroke:#000000;stroke-width:0.8;" x="72" xlink:href="#ma2a8a94e82" y="204.429216"/>
      </g>
     </g>
     <g id="text_11">
      <!-- 2 -->
      <g transform="translate(58.6375 208.228435)scale(0.1 -0.1)">
       <use xlink:href="#DejaVuSans-32"/>
      </g>
     </g>
    </g>
    <g id="ytick_3">
     <g id="line2d_11">
      <g>
       <use style="stroke:#000000;stroke-width:0.8;" x="72" xlink:href="#ma2a8a94e82" y="166.480353"/>
      </g>
     </g>
     <g id="text_12">
      <!-- 4 -->
      <g transform="translate(58.6375 170.279572)scale(0.1 -0.1)">
       <use xlink:href="#DejaVuSans-34"/>
      </g>
     </g>
    </g>
    <g id="ytick_4">
     <g id="line2d_12">
      <g>
       <use style="stroke:#000000;stroke-width:0.8;" x="72" xlink:href="#ma2a8a94e82" y="128.531491"/>
      </g>
     </g>
     <g id="text_13">
      <!-- 6 -->
      <g transform="translate(58.6375 132.33071)scale(0.1 -0.1)">
       <use xlink:href="#DejaVuSans-36"/>
      </g>
     </g>
    </g>
    <g id="ytick_5">
     <g id="line2d_13">
      <g>
       <use style="stroke:#000000;stroke-width:0.8;" x="72" xlink:href="#ma2a8a94e82" y="90.582628"/>
      </g>
     </g>
     <g id="text_14">
      <!-- 8 -->
      <defs>
       <path d="M 31.78125 34.625 
Q 24.75 34.625 20.71875 30.859375 
Q 16.703125 27.09375 16.703125 20.515625 
Q 16.703125 13.921875 20.71875 10.15625 
Q 24.75 6.390625 31.78125 6.390625 
Q 38.8125 6.390625 42.859375 10.171875 
Q 46.921875 13.96875 46.921875 20.515625 
Q 46.921875 27.09375 42.890625 30.859375 
Q 38.875 34.625 31.78125 34.625 
M 21.921875 38.8125 
Q 15.578125 40.375 12.03125 44.71875 
Q 8.5 49.078125 8.5 55.328125 
Q 8.5 64.0625 14.71875 69.140625 
Q 20.953125 74.21875 31.78125 74.21875 
Q 42.671875 74.21875 48.875 69.140625 
Q 55.078125 64.0625 55.078125 55.328125 
Q 55.078125 49.078125 51.53125 44.71875 
Q 48 40.375 41.703125 38.8125 
Q 48.828125 37.15625 52.796875 32.3125 
Q 56.78125 27.484375 56.78125 20.515625 
Q 56.78125 9.90625 50.3125 4.234375 
Q 43.84375 -1.421875 31.78125 -1.421875 
Q 19.734375 -1.421875 13.25 4.234375 
Q 6.78125 9.90625 6.78125 20.515625 
Q 6.78125 27.484375 10.78125 32.3125 
Q 14.796875 37.15625 21.921875 38.8125 
M 18.3125 54.390625 
Q 18.3125 48.734375 21.84375 45.5625 
Q 25.390625 42.390625 31.78125 42.390625 
Q 38.140625 42.390625 41.71875 45.5625 
Q 45.3125 48.734375 45.3125 54.390625 
Q 45.3125 60.0625 41.71875 63.234375 
Q 38.140625 66.40625 31.78125 66.40625 
Q 25.390625 66.40625 21.84375 63.234375 
Q 18.3125 60.0625 18.3125 54.390625 
" id="DejaVuSans-38"/>
      </defs>
      <g transform="translate(58.6375 94.381847)scale(0.1 -0.1)">
       <use xlink:href="#DejaVuSans-38"/>
      </g>
     </g>
    </g>
    <g id="ytick_6">
     <g id="line2d_14">
      <g>
       <use style="stroke:#000000;stroke-width:0.8;" x="72" xlink:href="#ma2a8a94e82" y="52.633766"/>
      </g>
     </g>
     <g id="text_15">
      <!-- 10 -->
      <g transform="translate(52.275 56.432984)scale(0.1 -0.1)">
       <use xlink:href="#DejaVuSans-31"/>
       <use x="63.623047" xlink:href="#DejaVuSans-30"/>
      </g>
     </g>
    </g>
   </g>
   <g id="line2d_15">
    <path clip-path="url(#p18587a3f8c)" d="M 92.290909 241.108907 
L 110.288568 241.45365 
L 197.954584 242.061923 
L 211.888256 242.116364 
L 212.468826 241.581159 
L 213.629965 241.790202 
L 214.210535 241.292236 
L 215.371674 241.517367 
L 215.952243 241.02342 
L 217.113383 241.252828 
L 217.693952 240.796201 
L 218.274522 240.939587 
L 218.855092 240.533981 
L 220.016231 240.781373 
L 220.596801 240.347438 
L 221.17737 240.460313 
L 221.75794 240.111481 
L 223.499649 240.463441 
L 224.080218 240.05337 
L 225.821927 240.362994 
L 228.724776 240.623358 
L 229.305345 240.235725 
L 229.885915 240.326602 
L 230.466485 240.002582 
L 231.047054 240.119631 
L 231.627624 239.787694 
L 232.788763 240.021766 
L 233.369333 239.68903 
L 233.949902 239.80521 
L 234.530472 239.496339 
L 235.111042 239.604459 
L 235.691611 239.329099 
L 236.272181 239.445224 
L 236.852751 239.17375 
L 237.43332 239.324019 
L 238.01389 239.022401 
L 238.59446 239.121324 
L 239.175029 238.896102 
L 239.755599 238.994703 
L 240.336169 238.756982 
L 240.916738 238.856311 
L 241.497308 238.571692 
L 242.077877 238.734998 
L 242.658447 238.48704 
L 243.819586 238.748613 
L 244.400156 238.476307 
L 244.980726 238.565176 
L 245.561295 238.348628 
L 246.722435 238.620843 
L 247.303004 238.309621 
L 248.464144 238.553042 
L 249.044713 238.328769 
L 249.625283 238.444578 
L 250.205853 238.230902 
L 251.366992 238.423193 
L 251.947561 238.186166 
L 253.108701 238.385345 
L 253.68927 238.162126 
L 255.430979 238.515145 
L 256.011549 238.231739 
L 256.592119 238.270421 
L 257.172688 238.040233 
L 257.753258 238.102816 
L 258.333828 238.284891 
L 258.914397 238.059206 
L 259.494967 238.068281 
L 260.075536 237.853095 
L 261.817245 238.213496 
L 262.397815 237.968926 
L 262.978385 238.037731 
L 263.558954 237.796016 
L 264.139524 237.80032 
L 264.720094 237.988674 
L 265.300663 237.734741 
L 265.881233 237.82649 
L 266.461803 237.511411 
L 267.622942 237.778048 
L 268.203512 237.558816 
L 268.784081 237.553737 
L 269.364651 237.775871 
L 269.94522 237.515443 
L 270.52579 237.490452 
L 271.10636 237.682256 
L 271.686929 237.393174 
L 272.267499 237.442366 
L 272.848069 237.632639 
L 273.428638 237.355222 
L 274.009208 237.350407 
L 274.589778 237.131291 
L 275.170347 237.17422 
L 275.750917 237.347699 
L 276.331487 237.126483 
L 276.912056 237.080762 
L 277.492626 236.90102 
L 278.073195 236.910678 
L 278.653765 236.686139 
L 280.395474 237.017575 
L 280.976044 236.836187 
L 281.556613 236.806966 
L 282.717753 237.095162 
L 283.298322 236.82228 
L 283.878892 236.792742 
L 284.459462 236.95156 
L 285.040031 236.632095 
L 285.620601 236.632136 
L 286.201171 236.837213 
L 286.78174 236.550852 
L 287.942879 236.70177 
L 288.523449 236.822742 
L 289.104019 236.548236 
L 289.684588 236.49695 
L 290.265158 236.614922 
L 291.426297 236.336788 
L 292.006867 236.152182 
L 293.168006 236.361242 
L 293.748576 236.019125 
L 294.329146 236.002149 
L 295.490285 236.328636 
L 296.070854 236.034375 
L 297.231994 236.134181 
L 297.812563 236.368671 
L 298.393133 235.923543 
L 298.973703 235.985023 
L 299.554272 235.674845 
L 300.134842 235.691693 
L 300.715412 235.931421 
L 301.295981 235.572254 
L 303.03769 235.930336 
L 303.61826 235.638501 
L 304.198829 235.558407 
L 304.779399 235.293293 
L 305.359969 235.250681 
L 305.940538 235.486483 
L 306.521108 235.136385 
L 307.101678 235.215747 
L 307.682247 234.946678 
L 308.262817 234.929278 
L 308.843387 235.218843 
L 309.423956 234.938356 
L 310.004526 234.880646 
L 311.165665 235.24361 
L 311.746235 235.32222 
L 312.326805 234.927696 
L 312.907374 234.878412 
L 313.487944 234.618277 
L 314.068513 234.593782 
L 314.649083 234.770711 
L 315.229653 234.53794 
L 315.810222 234.517444 
L 316.390792 234.378533 
L 316.971362 234.378924 
L 317.551931 234.059855 
L 319.29364 234.48774 
L 319.87421 234.092767 
L 321.035349 234.324512 
L 321.615919 234.033971 
L 322.196488 233.963027 
L 322.777058 233.7648 
L 323.938197 233.842112 
L 324.518767 234.061021 
L 325.099337 234.14428 
L 325.679906 233.870299 
L 329.163324 233.083061 
L 330.324464 233.322161 
L 330.905033 233.007839 
L 332.646742 233.314817 
L 333.227312 232.936183 
L 333.807881 232.96463 
L 334.388451 233.188287 
L 334.969021 232.774625 
L 335.54959 232.802522 
L 336.13016 233.07404 
L 336.71073 232.669829 
L 337.871869 232.854716 
L 338.452439 232.518519 
L 339.033008 232.523965 
L 340.194147 232.721195 
L 341.355287 232.303611 
L 341.935856 232.568334 
L 343.096996 232.23391 
L 343.677565 232.458219 
L 344.258135 232.094707 
L 345.419274 232.230237 
L 345.999844 231.987775 
L 347.741553 231.749553 
L 348.322123 231.506808 
L 348.902692 231.662219 
L 349.483262 231.466115 
L 350.063831 231.499587 
L 350.644401 231.095109 
L 351.80554 231.246509 
L 352.96668 231.013964 
L 354.127819 231.331973 
L 354.708389 231.070646 
L 355.288958 231.10835 
L 355.869528 230.774106 
L 356.450098 230.843951 
L 357.030667 231.066501 
L 357.611237 230.582803 
L 358.191806 230.751381 
L 358.772376 230.748365 
L 359.352946 230.57692 
L 359.933515 230.668644 
L 360.514085 230.621015 
L 361.094655 230.701102 
L 361.675224 230.375476 
L 362.836364 230.507867 
L 363.416933 230.236807 
L 363.997503 230.300019 
L 364.578073 230.053003 
L 365.158642 230.030092 
L 365.739212 230.264768 
L 366.319782 230.349255 
L 366.900351 229.94177 
L 368.06149 229.923808 
L 369.803199 229.660872 
L 370.383769 229.74236 
L 370.964339 229.488843 
L 371.544908 229.421601 
L 372.125478 229.223557 
L 372.706048 229.171468 
L 373.867187 229.540635 
L 374.447757 229.183225 
L 375.028326 229.146762 
L 375.608896 229.235738 
L 376.770035 228.968809 
L 378.511744 229.29171 
L 379.092314 229.042797 
L 380.253453 228.860525 
L 380.834023 228.666209 
L 381.414592 228.920944 
L 382.575732 228.947726 
L 383.156301 228.687564 
L 384.31744 228.836079 
L 384.89801 228.587079 
L 386.059149 228.67212 
L 386.639719 228.244914 
L 387.220289 228.256595 
L 387.800858 228.459001 
L 388.381428 228.175122 
L 388.961998 228.167619 
L 389.542567 228.363939 
L 390.123137 228.331733 
L 390.703707 228.028724 
L 391.284276 228.144641 
L 391.864846 228.107392 
L 392.445416 228.298074 
L 393.025985 227.935474 
L 393.606555 228.014637 
L 394.767694 227.686441 
L 395.348264 227.85617 
L 395.928833 227.900496 
L 396.509403 227.622539 
L 397.089973 227.761453 
L 397.670542 227.689914 
L 398.251112 227.853078 
L 398.831682 227.457789 
L 399.412251 227.613233 
L 399.992821 227.612499 
L 400.573391 227.316077 
L 401.15396 227.366469 
L 402.315099 227.178457 
L 402.895669 227.33671 
L 404.056808 227.304943 
L 404.637378 227.182482 
L 405.217948 226.819881 
L 405.798517 226.766773 
L 406.959657 227.144069 
L 407.540226 226.816127 
L 408.701366 226.794052 
L 409.281935 226.853638 
L 410.443075 226.568025 
L 411.023644 226.738919 
L 411.604214 226.50503 
L 412.184783 226.476794 
L 413.345923 226.802265 
L 413.926492 226.307576 
L 415.668201 226.38285 
L 416.248771 226.53171 
L 417.99048 226.168719 
L 418.57105 226.430465 
L 419.151619 226.039075 
L 420.312758 226.085795 
L 420.893328 226.18302 
L 421.473898 226.020016 
L 422.635037 225.930021 
L 423.215607 225.776339 
L 423.796176 225.778496 
L 424.376746 225.593883 
L 424.957316 225.564126 
L 425.537885 225.705111 
L 426.118455 225.403437 
L 426.699025 225.309296 
L 427.279594 225.547613 
L 427.860164 225.49712 
L 428.440734 225.33368 
L 429.601873 225.244059 
L 430.182442 225.612409 
L 430.763012 225.162892 
L 431.343582 225.095539 
L 431.924151 225.295237 
L 432.504721 225.363696 
L 433.085291 225.290452 
L 433.66586 224.850235 
L 434.24643 225.061847 
L 435.407569 224.808368 
L 436.568709 225.057414 
L 437.149278 224.834775 
L 437.729848 224.824077 
L 438.310417 224.633113 
L 438.890987 224.93104 
L 439.471557 224.664965 
L 441.213266 224.494774 
L 441.793835 224.333334 
L 442.954975 224.541037 
L 443.535544 224.15231 
L 444.116114 224.303939 
L 445.277253 224.059651 
L 447.018962 224.188218 
L 447.599532 223.881352 
L 448.180101 223.991027 
L 448.760671 223.978124 
L 449.92181 224.140296 
L 450.50238 223.90125 
L 451.663519 223.910054 
L 452.244089 223.654166 
L 452.824659 223.687334 
L 453.985798 223.496095 
L 454.566368 223.535459 
L 455.146937 223.432471 
L 455.727507 223.518898 
L 457.469216 223.021117 
L 458.630355 223.242623 
L 459.210925 223.214934 
L 459.791494 223.041633 
L 460.952634 223.028725 
L 461.533203 223.254809 
L 462.694343 222.946493 
L 463.274912 222.974952 
L 463.855482 222.780457 
L 464.436052 222.912805 
L 466.17776 222.517949 
L 466.75833 222.647671 
L 467.3389 222.476502 
L 467.919469 222.437421 
L 468.500039 222.568823 
L 469.661178 222.172829 
L 470.241748 222.361304 
L 470.822318 222.362703 
L 471.402887 222.197585 
L 473.725166 222.301403 
L 474.305735 221.97545 
L 474.886305 222.108266 
L 476.047444 221.782144 
L 476.628014 222.070944 
L 477.208584 221.829196 
L 477.789153 221.787026 
L 478.369723 221.879277 
L 480.111432 221.635846 
L 480.692002 221.478424 
L 481.272571 221.798427 
L 481.853141 221.526077 
L 482.43371 221.603429 
L 483.01428 221.183784 
L 483.59485 221.225116 
L 484.175419 221.498314 
L 485.336559 221.271391 
L 485.917128 221.471097 
L 487.078268 221.079234 
L 487.658837 221.179512 
L 488.239407 220.931068 
L 488.819977 221.20784 
L 490.561686 220.772573 
L 491.142255 220.703258 
L 491.722825 220.776548 
L 492.883964 220.715781 
L 494.045103 220.627131 
L 494.625673 220.720187 
L 495.206243 220.582765 
L 495.786812 220.701644 
L 496.367382 220.490463 
L 496.947952 220.582667 
L 497.528521 220.321368 
L 498.109091 220.660273 
L 498.109091 220.660273 
" style="fill:none;stroke:#1f77b4;stroke-linecap:square;stroke-width:1.5;"/>
   </g>
   <g id="line2d_16">
    <path clip-path="url(#p18587a3f8c)" d="M 92.290909 44.443636 
L 92.871479 44.774746 
L 93.452048 45.029527 
L 94.613188 45.383679 
L 96.354897 45.706558 
L 98.096606 46.470745 
L 99.257745 47.057404 
L 100.418884 47.908028 
L 106.80515 54.012437 
L 108.546859 55.903525 
L 110.869138 58.385855 
L 114.933125 63.163392 
L 118.416543 67.325174 
L 119.577682 69.036987 
L 121.899961 71.868553 
L 125.383379 76.237083 
L 126.544518 77.628061 
L 127.705657 78.962539 
L 128.866797 80.184917 
L 131.769645 83.826493 
L 134.091924 86.870608 
L 137.575341 91.066995 
L 139.89762 94.083361 
L 146.283886 101.246969 
L 150.347874 105.860877 
L 152.670152 108.052856 
L 154.992431 110.715812 
L 156.73414 112.357793 
L 160.217558 116.12174 
L 163.120406 118.980714 
L 164.862115 120.595058 
L 166.603824 121.936611 
L 167.764963 123.25649 
L 171.82895 127.146026 
L 177.634647 132.195234 
L 178.795786 133.307868 
L 179.376356 133.798151 
L 179.956925 134.101576 
L 185.762622 138.564773 
L 186.923761 139.573626 
L 188.084901 140.406024 
L 189.24604 140.976092 
L 190.407179 141.921771 
L 191.568318 142.841022 
L 192.729458 143.867558 
L 193.890597 144.28057 
L 194.471167 144.425196 
L 195.051736 144.684434 
L 196.212876 145.728339 
L 197.374015 146.755739 
L 198.535154 147.549941 
L 200.857433 148.589599 
L 202.018572 149.355879 
L 203.179711 149.916287 
L 207.824268 153.078855 
L 209.565977 153.703116 
L 211.307686 154.929893 
L 211.888256 154.902508 
L 212.468826 157.867191 
L 213.049395 159.72568 
L 213.629965 159.125673 
L 214.210535 160.896121 
L 214.791104 161.755584 
L 215.371674 161.109867 
L 215.952243 162.995765 
L 216.532813 163.859115 
L 217.113383 163.049505 
L 217.693952 166.181225 
L 218.274522 165.089663 
L 218.855092 166.693409 
L 219.435661 167.001188 
L 220.016231 166.832471 
L 220.596801 169.283733 
L 221.17737 168.904798 
L 221.75794 170.906747 
L 222.919079 171.513408 
L 223.499649 171.393343 
L 224.080218 173.398572 
L 225.241358 173.909539 
L 225.821927 174.488211 
L 226.402497 174.644314 
L 226.983067 175.139301 
L 227.563636 175.293858 
L 228.144206 176.287447 
L 228.724776 175.933465 
L 229.305345 178.438754 
L 229.885915 178.188807 
L 230.466485 180.541073 
L 231.047054 180.361389 
L 231.627624 181.013676 
L 232.208194 181.091769 
L 232.788763 180.498141 
L 233.369333 182.759528 
L 233.949902 182.436702 
L 234.530472 183.385541 
L 235.111042 183.104406 
L 235.691611 184.082206 
L 236.272181 183.929071 
L 236.852751 185.735536 
L 237.43332 185.391956 
L 238.01389 187.838235 
L 238.59446 185.836053 
L 239.175029 187.895039 
L 239.755599 187.14137 
L 240.336169 188.251512 
L 240.916738 187.441811 
L 241.497308 189.129053 
L 242.077877 188.26447 
L 242.658447 189.45505 
L 243.239017 189.497866 
L 243.819586 189.355317 
L 244.400156 190.525298 
L 244.980726 190.420281 
L 245.561295 189.770795 
L 246.141865 190.0455 
L 247.303004 189.944332 
L 247.883574 191.12391 
L 248.464144 190.517309 
L 249.044713 191.561343 
L 249.625283 191.068016 
L 250.205853 191.639361 
L 250.786422 191.888872 
L 251.366992 191.591899 
L 251.947561 191.739847 
L 252.528131 192.322766 
L 253.108701 191.92816 
L 254.26984 192.517577 
L 254.85041 192.524087 
L 255.430979 191.693781 
L 256.011549 192.730722 
L 256.592119 191.647222 
L 257.753258 192.6771 
L 258.333828 191.792939 
L 258.914397 192.641113 
L 259.494967 192.45234 
L 260.656106 193.064351 
L 261.236676 193.885081 
L 261.817245 192.561056 
L 262.397815 193.765036 
L 262.978385 192.93093 
L 263.558954 193.407572 
L 264.139524 194.079566 
L 264.720094 193.475686 
L 265.300663 193.519729 
L 265.881233 192.896255 
L 266.461803 193.521506 
L 267.042372 193.972706 
L 267.622942 193.327613 
L 268.203512 194.368639 
L 268.784081 194.726314 
L 269.364651 193.558289 
L 269.94522 191.932475 
L 270.52579 193.50103 
L 271.10636 193.479526 
L 271.686929 192.300211 
L 272.267499 193.25349 
L 272.848069 192.560635 
L 273.428638 193.279779 
L 274.009208 192.76983 
L 274.589778 193.605231 
L 275.170347 194.092148 
L 275.750917 193.359062 
L 276.912056 193.300292 
L 277.492626 193.61195 
L 278.073195 193.281652 
L 278.653765 193.781558 
L 279.814904 194.329495 
L 280.395474 194.31525 
L 280.976044 192.309487 
L 281.556613 192.999456 
L 282.137183 193.961343 
L 283.298322 192.538522 
L 283.878892 193.479633 
L 284.459462 192.509346 
L 285.040031 191.901899 
L 285.620601 193.022258 
L 286.201171 192.925369 
L 286.78174 192.035412 
L 287.36231 192.557384 
L 287.942879 192.76068 
L 288.523449 191.576821 
L 289.104019 192.439107 
L 289.684588 192.618729 
L 290.265158 191.800527 
L 290.845728 192.819627 
L 291.426297 191.787226 
L 292.587437 192.756599 
L 293.748576 192.169591 
L 294.329146 192.239398 
L 294.909715 193.106724 
L 295.490285 191.514251 
L 296.070854 191.164271 
L 297.231994 192.005748 
L 297.812563 191.969457 
L 298.973703 191.504817 
L 299.554272 191.834769 
L 300.134842 191.94855 
L 300.715412 191.921406 
L 301.295981 190.653022 
L 301.876551 191.665121 
L 302.457121 192.0383 
L 303.03769 190.496496 
L 303.61826 192.187534 
L 304.198829 191.295849 
L 304.779399 191.70633 
L 305.359969 192.96493 
L 305.940538 191.726843 
L 306.521108 192.123309 
L 307.101678 192.069199 
L 307.682247 191.441358 
L 308.262817 191.560598 
L 308.843387 191.530665 
L 309.423956 191.230473 
L 310.004526 191.598373 
L 310.585096 191.644472 
L 311.165665 191.871803 
L 311.746235 190.703441 
L 312.326805 191.157257 
L 312.907374 190.433189 
L 313.487944 190.73132 
L 314.068513 191.850121 
L 314.649083 190.583522 
L 315.229653 191.766017 
L 315.810222 191.334136 
L 316.390792 190.511601 
L 316.971362 190.271931 
L 317.551931 190.190761 
L 318.132501 190.467346 
L 318.713071 191.436809 
L 319.29364 190.256931 
L 319.87421 191.501996 
L 320.45478 191.692584 
L 321.035349 191.457138 
L 321.615919 191.048282 
L 322.196488 189.967126 
L 322.777058 190.693527 
L 323.357628 191.046675 
L 324.518767 191.260967 
L 325.099337 190.623062 
L 325.679906 190.672541 
L 326.260476 190.115024 
L 326.841046 190.607499 
L 327.421615 189.638163 
L 328.002185 191.060272 
L 328.582755 190.658636 
L 329.163324 191.317764 
L 329.743894 191.427066 
L 330.905033 189.89381 
L 331.485603 191.307627 
L 332.066172 191.654782 
L 332.646742 191.175663 
L 333.227312 191.163957 
L 333.807881 191.689431 
L 334.388451 190.93331 
L 334.969021 190.500492 
L 335.54959 191.075372 
L 336.13016 190.233932 
L 336.71073 189.832265 
L 337.291299 190.820028 
L 337.871869 190.286635 
L 339.033008 191.213444 
L 339.613578 191.293454 
L 340.194147 190.836302 
L 340.774717 189.945889 
L 341.355287 190.299992 
L 341.935856 189.932733 
L 343.096996 190.819289 
L 344.258135 190.207782 
L 344.838705 190.565468 
L 345.419274 190.337618 
L 345.999844 190.694757 
L 346.580414 190.597075 
L 347.160983 190.683851 
L 347.741553 190.394483 
L 348.322123 190.779871 
L 348.902692 190.719978 
L 349.483262 191.443071 
L 350.063831 191.36065 
L 350.644401 189.721414 
L 351.224971 191.171473 
L 352.38611 191.160578 
L 353.547249 191.531706 
L 354.127819 190.631744 
L 355.288958 190.268967 
L 355.869528 190.369628 
L 356.450098 191.67127 
L 357.030667 190.372101 
L 357.611237 191.025943 
L 358.191806 191.384089 
L 358.772376 190.638566 
L 359.352946 190.284987 
L 359.933515 191.423142 
L 360.514085 191.647642 
L 361.675224 191.112676 
L 362.255794 191.139196 
L 362.836364 189.88915 
L 363.416933 191.480447 
L 363.997503 191.392409 
L 364.578073 190.961617 
L 365.158642 191.025551 
L 365.739212 191.865134 
L 366.319782 191.501981 
L 366.900351 190.813146 
L 367.480921 191.155655 
L 368.06149 191.028266 
L 369.22263 190.375881 
L 369.803199 190.939172 
L 370.383769 190.731165 
L 371.544908 190.620182 
L 372.125478 190.442871 
L 372.706048 191.20022 
L 373.286617 191.362663 
L 373.867187 190.568455 
L 375.028326 191.475836 
L 376.189465 190.726805 
L 376.770035 190.848793 
L 377.350605 191.252454 
L 377.931174 191.260736 
L 378.511744 190.819585 
L 379.092314 190.545642 
L 379.672883 190.518334 
L 380.253453 190.210662 
L 381.414592 190.883304 
L 381.995162 191.066839 
L 383.156301 190.199899 
L 383.736871 190.884372 
L 384.31744 190.83382 
L 384.89801 190.321663 
L 385.47858 190.81347 
L 386.059149 190.492773 
L 386.639719 190.362414 
L 387.220289 190.900462 
L 387.800858 190.405412 
L 388.381428 190.960544 
L 389.542567 191.380985 
L 390.703707 190.720863 
L 391.284276 191.006038 
L 391.864846 191.686909 
L 392.445416 191.470082 
L 393.606555 190.733196 
L 394.187124 189.96194 
L 395.348264 191.187824 
L 395.928833 191.170464 
L 396.509403 190.250821 
L 397.089973 190.737524 
L 397.670542 190.931964 
L 398.831682 190.540331 
L 399.412251 191.071976 
L 399.992821 190.378387 
L 400.573391 190.637834 
L 401.15396 190.173644 
L 401.73453 189.971134 
L 402.315099 190.871561 
L 402.895669 190.98798 
L 403.476239 190.953375 
L 404.056808 191.106083 
L 404.637378 190.226546 
L 405.217948 191.006825 
L 405.798517 191.500473 
L 406.379087 191.80484 
L 406.959657 191.791524 
L 407.540226 190.610673 
L 408.701366 191.372612 
L 409.862505 191.302166 
L 410.443075 191.594643 
L 411.604214 191.425789 
L 412.765353 191.79177 
L 413.345923 191.205167 
L 413.926492 190.871926 
L 414.507062 191.078771 
L 415.087632 191.151127 
L 416.248771 191.650361 
L 417.40991 191.207794 
L 417.99048 191.567217 
L 418.57105 190.742236 
L 419.151619 190.750222 
L 419.732189 191.41635 
L 420.312758 191.75606 
L 421.473898 190.963578 
L 422.054467 191.135591 
L 422.635037 190.668703 
L 424.376746 190.415158 
L 424.957316 191.18887 
L 425.537885 191.092879 
L 426.118455 190.557253 
L 426.699025 190.864241 
L 427.279594 191.455776 
L 427.860164 190.58419 
L 428.440734 190.657904 
L 429.021303 191.175134 
L 429.601873 191.427409 
L 430.182442 190.989624 
L 430.763012 190.412237 
L 431.343582 190.750066 
L 431.924151 190.838805 
L 432.504721 191.126923 
L 433.085291 190.935281 
L 433.66586 190.963047 
L 434.827 190.518358 
L 435.407569 190.851662 
L 435.988139 191.320268 
L 436.568709 191.322778 
L 437.149278 190.981763 
L 438.890987 191.617934 
L 439.471557 191.265468 
L 440.052126 191.621236 
L 440.632696 191.533334 
L 441.213266 190.992716 
L 442.374405 191.701543 
L 443.535544 191.04273 
L 444.116114 191.186679 
L 445.277253 190.525804 
L 445.857823 190.915423 
L 446.438393 191.007695 
L 447.018962 190.290883 
L 447.599532 190.473167 
L 448.760671 191.208841 
L 449.341241 191.317284 
L 449.92181 191.028618 
L 450.50238 191.402815 
L 451.08295 191.564129 
L 451.663519 191.171414 
L 452.244089 190.573833 
L 452.824659 190.411429 
L 453.985798 191.479855 
L 454.566368 191.36445 
L 455.146937 190.51097 
L 455.727507 191.015432 
L 456.308076 190.904002 
L 456.888646 190.275825 
L 457.469216 191.814539 
L 458.049785 191.90114 
L 458.630355 191.538572 
L 459.210925 190.131825 
L 460.372064 190.999869 
L 460.952634 191.137473 
L 461.533203 190.94247 
L 462.113773 189.297332 
L 462.694343 191.489637 
L 463.274912 190.84628 
L 463.855482 190.500267 
L 464.436052 190.541219 
L 465.016621 190.031135 
L 465.597191 190.400952 
L 466.17776 190.940446 
L 466.75833 190.097856 
L 467.3389 189.756526 
L 467.919469 190.683485 
L 468.500039 190.638714 
L 469.080609 189.644323 
L 470.241748 190.851082 
L 470.822318 190.52653 
L 471.402887 189.798787 
L 471.983457 190.178362 
L 472.564027 190.264023 
L 473.144596 190.611984 
L 473.725166 189.968109 
L 474.305735 190.390157 
L 474.886305 189.513387 
L 475.466875 189.294742 
L 476.047444 190.193184 
L 476.628014 190.426813 
L 477.208584 190.138383 
L 477.789153 189.43163 
L 478.369723 189.775276 
L 478.950293 190.31969 
L 479.530862 189.955735 
L 480.111432 188.437229 
L 480.692002 189.658924 
L 481.272571 188.93952 
L 481.853141 188.668372 
L 482.43371 188.596418 
L 483.01428 188.122073 
L 483.59485 188.738432 
L 484.755989 189.31051 
L 485.336559 189.678856 
L 485.917128 189.322555 
L 486.497698 188.202734 
L 487.078268 188.01216 
L 487.658837 186.61597 
L 488.239407 188.214625 
L 488.819977 188.094009 
L 489.400546 187.818416 
L 489.981116 187.768887 
L 490.561686 187.250144 
L 491.142255 187.493553 
L 491.722825 188.180559 
L 492.303394 188.077035 
L 492.883964 186.031174 
L 494.045103 187.491876 
L 494.625673 187.498602 
L 495.206243 188.05499 
L 495.786812 187.464341 
L 496.367382 186.674678 
L 496.947952 186.831011 
L 497.528521 187.569429 
L 498.109091 185.94129 
L 498.109091 185.94129 
" style="fill:none;stroke:#ff7f0e;stroke-linecap:square;stroke-width:1.5;"/>
   </g>
   <g id="patch_3">
    <path d="M 72 252 
L 72 34.56 
" style="fill:none;stroke:#000000;stroke-linecap:square;stroke-linejoin:miter;stroke-width:0.8;"/>
   </g>
   <g id="patch_4">
    <path d="M 518.4 252 
L 518.4 34.56 
" style="fill:none;stroke:#000000;stroke-linecap:square;stroke-linejoin:miter;stroke-width:0.8;"/>
   </g>
   <g id="patch_5">
    <path d="M 72 252 
L 518.4 252 
" style="fill:none;stroke:#000000;stroke-linecap:square;stroke-linejoin:miter;stroke-width:0.8;"/>
   </g>
   <g id="patch_6">
    <path d="M 72 34.56 
L 518.4 34.56 
" style="fill:none;stroke:#000000;stroke-linecap:square;stroke-linejoin:miter;stroke-width:0.8;"/>
   </g>
   <g id="legend_1">
    <g id="patch_7">
     <path d="M 423.045312 71.91625 
L 511.4 71.91625 
Q 513.4 71.91625 513.4 69.91625 
L 513.4 41.56 
Q 513.4 39.56 511.4 39.56 
L 423.045312 39.56 
Q 421.045312 39.56 421.045312 41.56 
L 421.045312 69.91625 
Q 421.045312 71.91625 423.045312 71.91625 
z
" style="fill:#ffffff;opacity:0.8;stroke:#cccccc;stroke-linejoin:miter;"/>
    </g>
    <g id="line2d_17">
     <path d="M 425.045312 47.658437 
L 445.045312 47.658437 
" style="fill:none;stroke:#1f77b4;stroke-linecap:square;stroke-width:1.5;"/>
    </g>
    <g id="line2d_18"/>
    <g id="text_16">
     <!-- error(train) -->
     <defs>
      <path d="M 31 75.875 
Q 24.46875 64.65625 21.28125 53.65625 
Q 18.109375 42.671875 18.109375 31.390625 
Q 18.109375 20.125 21.3125 9.0625 
Q 24.515625 -2 31 -13.1875 
L 23.1875 -13.1875 
Q 15.875 -1.703125 12.234375 9.375 
Q 8.59375 20.453125 8.59375 31.390625 
Q 8.59375 42.28125 12.203125 53.3125 
Q 15.828125 64.359375 23.1875 75.875 
z
" id="DejaVuSans-28"/>
      <path d="M 18.3125 70.21875 
L 18.3125 54.6875 
L 36.8125 54.6875 
L 36.8125 47.703125 
L 18.3125 47.703125 
L 18.3125 18.015625 
Q 18.3125 11.328125 20.140625 9.421875 
Q 21.96875 7.515625 27.59375 7.515625 
L 36.8125 7.515625 
L 36.8125 0 
L 27.59375 0 
Q 17.1875 0 13.234375 3.875 
Q 9.28125 7.765625 9.28125 18.015625 
L 9.28125 47.703125 
L 2.6875 47.703125 
L 2.6875 54.6875 
L 9.28125 54.6875 
L 9.28125 70.21875 
z
" id="DejaVuSans-74"/>
      <path d="M 34.28125 27.484375 
Q 23.390625 27.484375 19.1875 25 
Q 14.984375 22.515625 14.984375 16.5 
Q 14.984375 11.71875 18.140625 8.90625 
Q 21.296875 6.109375 26.703125 6.109375 
Q 34.1875 6.109375 38.703125 11.40625 
Q 43.21875 16.703125 43.21875 25.484375 
L 43.21875 27.484375 
z
M 52.203125 31.203125 
L 52.203125 0 
L 43.21875 0 
L 43.21875 8.296875 
Q 40.140625 3.328125 35.546875 0.953125 
Q 30.953125 -1.421875 24.3125 -1.421875 
Q 15.921875 -1.421875 10.953125 3.296875 
Q 6 8.015625 6 15.921875 
Q 6 25.140625 12.171875 29.828125 
Q 18.359375 34.515625 30.609375 34.515625 
L 43.21875 34.515625 
L 43.21875 35.40625 
Q 43.21875 41.609375 39.140625 45 
Q 35.0625 48.390625 27.6875 48.390625 
Q 23 48.390625 18.546875 47.265625 
Q 14.109375 46.140625 10.015625 43.890625 
L 10.015625 52.203125 
Q 14.9375 54.109375 19.578125 55.046875 
Q 24.21875 56 28.609375 56 
Q 40.484375 56 46.34375 49.84375 
Q 52.203125 43.703125 52.203125 31.203125 
" id="DejaVuSans-61"/>
      <path d="M 9.421875 54.6875 
L 18.40625 54.6875 
L 18.40625 0 
L 9.421875 0 
z
M 9.421875 75.984375 
L 18.40625 75.984375 
L 18.40625 64.59375 
L 9.421875 64.59375 
z
" id="DejaVuSans-69"/>
      <path d="M 8.015625 75.875 
L 15.828125 75.875 
Q 23.140625 64.359375 26.78125 53.3125 
Q 30.421875 42.28125 30.421875 31.390625 
Q 30.421875 20.453125 26.78125 9.375 
Q 23.140625 -1.703125 15.828125 -13.1875 
L 8.015625 -13.1875 
Q 14.5 -2 17.703125 9.0625 
Q 20.90625 20.125 20.90625 31.390625 
Q 20.90625 42.671875 17.703125 53.65625 
Q 14.5 64.65625 8.015625 75.875 
" id="DejaVuSans-29"/>
     </defs>
     <g transform="translate(453.045312 51.158437)scale(0.1 -0.1)">
      <use xlink:href="#DejaVuSans-65"/>
      <use x="61.523438" xlink:href="#DejaVuSans-72"/>
      <use x="102.621094" xlink:href="#DejaVuSans-72"/>
      <use x="143.703125" xlink:href="#DejaVuSans-6f"/>
      <use x="204.884766" xlink:href="#DejaVuSans-72"/>
      <use x="245.998047" xlink:href="#DejaVuSans-28"/>
      <use x="285.011719" xlink:href="#DejaVuSans-74"/>
      <use x="324.220703" xlink:href="#DejaVuSans-72"/>
      <use x="365.333984" xlink:href="#DejaVuSans-61"/>
      <use x="426.613281" xlink:href="#DejaVuSans-69"/>
      <use x="454.396484" xlink:href="#DejaVuSans-6e"/>
      <use x="517.775391" xlink:href="#DejaVuSans-29"/>
     </g>
    </g>
    <g id="line2d_19">
     <path d="M 425.045312 62.336562 
L 445.045312 62.336562 
" style="fill:none;stroke:#ff7f0e;stroke-linecap:square;stroke-width:1.5;"/>
    </g>
    <g id="line2d_20"/>
    <g id="text_17">
     <!-- error(valid) -->
     <defs>
      <path d="M 2.984375 54.6875 
L 12.5 54.6875 
L 29.59375 8.796875 
L 46.6875 54.6875 
L 56.203125 54.6875 
L 35.6875 0 
L 23.484375 0 
z
" id="DejaVuSans-76"/>
      <path d="M 9.421875 75.984375 
L 18.40625 75.984375 
L 18.40625 0 
L 9.421875 0 
z
" id="DejaVuSans-6c"/>
      <path d="M 45.40625 46.390625 
L 45.40625 75.984375 
L 54.390625 75.984375 
L 54.390625 0 
L 45.40625 0 
L 45.40625 8.203125 
Q 42.578125 3.328125 38.25 0.953125 
Q 33.9375 -1.421875 27.875 -1.421875 
Q 17.96875 -1.421875 11.734375 6.484375 
Q 5.515625 14.40625 5.515625 27.296875 
Q 5.515625 40.1875 11.734375 48.09375 
Q 17.96875 56 27.875 56 
Q 33.9375 56 38.25 53.625 
Q 42.578125 51.265625 45.40625 46.390625 
M 14.796875 27.296875 
Q 14.796875 17.390625 18.875 11.75 
Q 22.953125 6.109375 30.078125 6.109375 
Q 37.203125 6.109375 41.296875 11.75 
Q 45.40625 17.390625 45.40625 27.296875 
Q 45.40625 37.203125 41.296875 42.84375 
Q 37.203125 48.484375 30.078125 48.484375 
Q 22.953125 48.484375 18.875 42.84375 
Q 14.796875 37.203125 14.796875 27.296875 
" id="DejaVuSans-64"/>
     </defs>
     <g transform="translate(453.045312 65.836562)scale(0.1 -0.1)">
      <use xlink:href="#DejaVuSans-65"/>
      <use x="61.523438" xlink:href="#DejaVuSans-72"/>
      <use x="102.621094" xlink:href="#DejaVuSans-72"/>
      <use x="143.703125" xlink:href="#DejaVuSans-6f"/>
      <use x="204.884766" xlink:href="#DejaVuSans-72"/>
      <use x="245.998047" xlink:href="#DejaVuSans-28"/>
      <use x="285.011719" xlink:href="#DejaVuSans-76"/>
      <use x="344.191406" xlink:href="#DejaVuSans-61"/>
      <use x="405.470703" xlink:href="#DejaVuSans-6c"/>
      <use x="433.253906" xlink:href="#DejaVuSans-69"/>
      <use x="461.037109" xlink:href="#DejaVuSans-64"/>
      <use x="524.513672" xlink:href="#DejaVuSans-29"/>
     </g>
    </g>
   </g>
  </g>
 </g>
 <defs>
  <clipPath id="p18587a3f8c">
   <rect height="217.44" width="446.4" x="72" y="34.56"/>
  </clipPath>
 </defs>
</svg>
