<?xml version="1.0" encoding="utf-8" standalone="no"?>
<!DOCTYPE svg PUBLIC "-//W3C//DTD SVG 1.1//EN"
  "http://www.w3.org/Graphics/SVG/1.1/DTD/svg11.dtd">
<!-- Created with matplotlib (http://matplotlib.org/) -->
<svg height="432pt" version="1.1" viewBox="0 0 864 432" width="864pt" xmlns="http://www.w3.org/2000/svg" xmlns:xlink="http://www.w3.org/1999/xlink">
 <defs>
  <style type="text/css">
*{stroke-linecap:butt;stroke-linejoin:round;}
  </style>
 </defs>
 <g id="figure_1">
  <g id="patch_1">
   <path d="M 0 432 
L 864 432 
L 864 0 
L 0 0 
z
" style="fill:#ffffff;"/>
  </g>
  <g id="axes_1">
   <g id="patch_2">
    <path d="M 108 378 
L 777.6 378 
L 777.6 51.84 
L 108 51.84 
z
" style="fill:#ffffff;"/>
   </g>
   <g id="matplotlib.axis_1">
    <g id="xtick_1">
     <g id="line2d_1">
      <path clip-path="url(#pdf04b98831)" d="M 116.696104 378 
L 116.696104 51.84 
" style="fill:none;stroke:#b0b0b0;stroke-linecap:square;stroke-width:0.8;"/>
     </g>
     <g id="line2d_2">
      <defs>
       <path d="M 0 0 
L 0 3.5 
" id="m215ce18537" style="stroke:#000000;stroke-width:0.8;"/>
      </defs>
      <g>
       <use style="stroke:#000000;stroke-width:0.8;" x="116.696104" xlink:href="#m215ce18537" y="378"/>
      </g>
     </g>
     <g id="text_1">
      <!-- 0 -->
      <defs>
       <path d="M 31.78125 66.40625 
Q 24.171875 66.40625 20.328125 58.90625 
Q 16.5 51.421875 16.5 36.375 
Q 16.5 21.390625 20.328125 13.890625 
Q 24.171875 6.390625 31.78125 6.390625 
Q 39.453125 6.390625 43.28125 13.890625 
Q 47.125 21.390625 47.125 36.375 
Q 47.125 51.421875 43.28125 58.90625 
Q 39.453125 66.40625 31.78125 66.40625 
M 31.78125 74.21875 
Q 44.046875 74.21875 50.515625 64.515625 
Q 56.984375 54.828125 56.984375 36.375 
Q 56.984375 17.96875 50.515625 8.265625 
Q 44.046875 -1.421875 31.78125 -1.421875 
Q 19.53125 -1.421875 13.0625 8.265625 
Q 6.59375 17.96875 6.59375 36.375 
Q 6.59375 54.828125 13.0625 64.515625 
Q 19.53125 74.21875 31.78125 74.21875 
" id="DejaVuSans-30"/>
      </defs>
      <g transform="translate(113.514854 392.598437)scale(0.1 -0.1)">
       <use xlink:href="#DejaVuSans-30"/>
      </g>
     </g>
    </g>
    <g id="xtick_2">
     <g id="line2d_3">
      <path clip-path="url(#pdf04b98831)" d="M 225.397403 378 
L 225.397403 51.84 
" style="fill:none;stroke:#b0b0b0;stroke-linecap:square;stroke-width:0.8;"/>
     </g>
     <g id="line2d_4">
      <g>
       <use style="stroke:#000000;stroke-width:0.8;" x="225.397403" xlink:href="#m215ce18537" y="378"/>
      </g>
     </g>
     <g id="text_2">
      <!-- 5 -->
      <defs>
       <path d="M 10.796875 72.90625 
L 49.515625 72.90625 
L 49.515625 64.59375 
L 19.828125 64.59375 
L 19.828125 46.734375 
Q 21.96875 47.46875 24.109375 47.828125 
Q 26.265625 48.1875 28.421875 48.1875 
Q 40.625 48.1875 47.75 41.5 
Q 54.890625 34.8125 54.890625 23.390625 
Q 54.890625 11.625 47.5625 5.09375 
Q 40.234375 -1.421875 26.90625 -1.421875 
Q 22.3125 -1.421875 17.546875 -0.640625 
Q 12.796875 0.140625 7.71875 1.703125 
L 7.71875 11.625 
Q 12.109375 9.234375 16.796875 8.0625 
Q 21.484375 6.890625 26.703125 6.890625 
Q 35.15625 6.890625 40.078125 11.328125 
Q 45.015625 15.765625 45.015625 23.390625 
Q 45.015625 31 40.078125 35.4375 
Q 35.15625 39.890625 26.703125 39.890625 
Q 22.75 39.890625 18.8125 39.015625 
Q 14.890625 38.140625 10.796875 36.28125 
z
" id="DejaVuSans-35"/>
      </defs>
      <g transform="translate(222.216153 392.598437)scale(0.1 -0.1)">
       <use xlink:href="#DejaVuSans-35"/>
      </g>
     </g>
    </g>
    <g id="xtick_3">
     <g id="line2d_5">
      <path clip-path="url(#pdf04b98831)" d="M 334.098701 378 
L 334.098701 51.84 
" style="fill:none;stroke:#b0b0b0;stroke-linecap:square;stroke-width:0.8;"/>
     </g>
     <g id="line2d_6">
      <g>
       <use style="stroke:#000000;stroke-width:0.8;" x="334.098701" xlink:href="#m215ce18537" y="378"/>
      </g>
     </g>
     <g id="text_3">
      <!-- 10 -->
      <defs>
       <path d="M 12.40625 8.296875 
L 28.515625 8.296875 
L 28.515625 63.921875 
L 10.984375 60.40625 
L 10.984375 69.390625 
L 28.421875 72.90625 
L 38.28125 72.90625 
L 38.28125 8.296875 
L 54.390625 8.296875 
L 54.390625 0 
L 12.40625 0 
z
" id="DejaVuSans-31"/>
      </defs>
      <g transform="translate(327.736201 392.598437)scale(0.1 -0.1)">
       <use xlink:href="#DejaVuSans-31"/>
       <use x="63.623047" xlink:href="#DejaVuSans-30"/>
      </g>
     </g>
    </g>
    <g id="xtick_4">
     <g id="line2d_7">
      <path clip-path="url(#pdf04b98831)" d="M 442.8 378 
L 442.8 51.84 
" style="fill:none;stroke:#b0b0b0;stroke-linecap:square;stroke-width:0.8;"/>
     </g>
     <g id="line2d_8">
      <g>
       <use style="stroke:#000000;stroke-width:0.8;" x="442.8" xlink:href="#m215ce18537" y="378"/>
      </g>
     </g>
     <g id="text_4">
      <!-- 15 -->
      <g transform="translate(436.4375 392.598437)scale(0.1 -0.1)">
       <use xlink:href="#DejaVuSans-31"/>
       <use x="63.623047" xlink:href="#DejaVuSans-35"/>
      </g>
     </g>
    </g>
    <g id="xtick_5">
     <g id="line2d_9">
      <path clip-path="url(#pdf04b98831)" d="M 551.501299 378 
L 551.501299 51.84 
" style="fill:none;stroke:#b0b0b0;stroke-linecap:square;stroke-width:0.8;"/>
     </g>
     <g id="line2d_10">
      <g>
       <use style="stroke:#000000;stroke-width:0.8;" x="551.501299" xlink:href="#m215ce18537" y="378"/>
      </g>
     </g>
     <g id="text_5">
      <!-- 20 -->
      <defs>
       <path d="M 19.1875 8.296875 
L 53.609375 8.296875 
L 53.609375 0 
L 7.328125 0 
L 7.328125 8.296875 
Q 12.9375 14.109375 22.625 23.890625 
Q 32.328125 33.6875 34.8125 36.53125 
Q 39.546875 41.84375 41.421875 45.53125 
Q 43.3125 49.21875 43.3125 52.78125 
Q 43.3125 58.59375 39.234375 62.25 
Q 35.15625 65.921875 28.609375 65.921875 
Q 23.96875 65.921875 18.8125 64.3125 
Q 13.671875 62.703125 7.8125 59.421875 
L 7.8125 69.390625 
Q 13.765625 71.78125 18.9375 73 
Q 24.125 74.21875 28.421875 74.21875 
Q 39.75 74.21875 46.484375 68.546875 
Q 53.21875 62.890625 53.21875 53.421875 
Q 53.21875 48.921875 51.53125 44.890625 
Q 49.859375 40.875 45.40625 35.40625 
Q 44.1875 33.984375 37.640625 27.21875 
Q 31.109375 20.453125 19.1875 8.296875 
" id="DejaVuSans-32"/>
      </defs>
      <g transform="translate(545.138799 392.598437)scale(0.1 -0.1)">
       <use xlink:href="#DejaVuSans-32"/>
       <use x="63.623047" xlink:href="#DejaVuSans-30"/>
      </g>
     </g>
    </g>
    <g id="xtick_6">
     <g id="line2d_11">
      <path clip-path="url(#pdf04b98831)" d="M 660.202597 378 
L 660.202597 51.84 
" style="fill:none;stroke:#b0b0b0;stroke-linecap:square;stroke-width:0.8;"/>
     </g>
     <g id="line2d_12">
      <g>
       <use style="stroke:#000000;stroke-width:0.8;" x="660.202597" xlink:href="#m215ce18537" y="378"/>
      </g>
     </g>
     <g id="text_6">
      <!-- 25 -->
      <g transform="translate(653.840097 392.598437)scale(0.1 -0.1)">
       <use xlink:href="#DejaVuSans-32"/>
       <use x="63.623047" xlink:href="#DejaVuSans-35"/>
      </g>
     </g>
    </g>
    <g id="xtick_7">
     <g id="line2d_13">
      <path clip-path="url(#pdf04b98831)" d="M 768.903896 378 
L 768.903896 51.84 
" style="fill:none;stroke:#b0b0b0;stroke-linecap:square;stroke-width:0.8;"/>
     </g>
     <g id="line2d_14">
      <g>
       <use style="stroke:#000000;stroke-width:0.8;" x="768.903896" xlink:href="#m215ce18537" y="378"/>
      </g>
     </g>
     <g id="text_7">
      <!-- 30 -->
      <defs>
       <path d="M 40.578125 39.3125 
Q 47.65625 37.796875 51.625 33 
Q 55.609375 28.21875 55.609375 21.1875 
Q 55.609375 10.40625 48.1875 4.484375 
Q 40.765625 -1.421875 27.09375 -1.421875 
Q 22.515625 -1.421875 17.65625 -0.515625 
Q 12.796875 0.390625 7.625 2.203125 
L 7.625 11.71875 
Q 11.71875 9.328125 16.59375 8.109375 
Q 21.484375 6.890625 26.8125 6.890625 
Q 36.078125 6.890625 40.9375 10.546875 
Q 45.796875 14.203125 45.796875 21.1875 
Q 45.796875 27.640625 41.28125 31.265625 
Q 36.765625 34.90625 28.71875 34.90625 
L 20.21875 34.90625 
L 20.21875 43.015625 
L 29.109375 43.015625 
Q 36.375 43.015625 40.234375 45.921875 
Q 44.09375 48.828125 44.09375 54.296875 
Q 44.09375 59.90625 40.109375 62.90625 
Q 36.140625 65.921875 28.71875 65.921875 
Q 24.65625 65.921875 20.015625 65.03125 
Q 15.375 64.15625 9.8125 62.3125 
L 9.8125 71.09375 
Q 15.4375 72.65625 20.34375 73.4375 
Q 25.25 74.21875 29.59375 74.21875 
Q 40.828125 74.21875 47.359375 69.109375 
Q 53.90625 64.015625 53.90625 55.328125 
Q 53.90625 49.265625 50.4375 45.09375 
Q 46.96875 40.921875 40.578125 39.3125 
" id="DejaVuSans-33"/>
      </defs>
      <g transform="translate(762.541396 392.598437)scale(0.1 -0.1)">
       <use xlink:href="#DejaVuSans-33"/>
       <use x="63.623047" xlink:href="#DejaVuSans-30"/>
      </g>
     </g>
    </g>
    <g id="text_8">
     <!-- Epoch number -->
     <defs>
      <path d="M 9.8125 72.90625 
L 55.90625 72.90625 
L 55.90625 64.59375 
L 19.671875 64.59375 
L 19.671875 43.015625 
L 54.390625 43.015625 
L 54.390625 34.71875 
L 19.671875 34.71875 
L 19.671875 8.296875 
L 56.78125 8.296875 
L 56.78125 0 
L 9.8125 0 
z
" id="DejaVuSans-45"/>
      <path d="M 18.109375 8.203125 
L 18.109375 -20.796875 
L 9.078125 -20.796875 
L 9.078125 54.6875 
L 18.109375 54.6875 
L 18.109375 46.390625 
Q 20.953125 51.265625 25.265625 53.625 
Q 29.59375 56 35.59375 56 
Q 45.5625 56 51.78125 48.09375 
Q 58.015625 40.1875 58.015625 27.296875 
Q 58.015625 14.40625 51.78125 6.484375 
Q 45.5625 -1.421875 35.59375 -1.421875 
Q 29.59375 -1.421875 25.265625 0.953125 
Q 20.953125 3.328125 18.109375 8.203125 
M 48.6875 27.296875 
Q 48.6875 37.203125 44.609375 42.84375 
Q 40.53125 48.484375 33.40625 48.484375 
Q 26.265625 48.484375 22.1875 42.84375 
Q 18.109375 37.203125 18.109375 27.296875 
Q 18.109375 17.390625 22.1875 11.75 
Q 26.265625 6.109375 33.40625 6.109375 
Q 40.53125 6.109375 44.609375 11.75 
Q 48.6875 17.390625 48.6875 27.296875 
" id="DejaVuSans-70"/>
      <path d="M 30.609375 48.390625 
Q 23.390625 48.390625 19.1875 42.75 
Q 14.984375 37.109375 14.984375 27.296875 
Q 14.984375 17.484375 19.15625 11.84375 
Q 23.34375 6.203125 30.609375 6.203125 
Q 37.796875 6.203125 41.984375 11.859375 
Q 46.1875 17.53125 46.1875 27.296875 
Q 46.1875 37.015625 41.984375 42.703125 
Q 37.796875 48.390625 30.609375 48.390625 
M 30.609375 56 
Q 42.328125 56 49.015625 48.375 
Q 55.71875 40.765625 55.71875 27.296875 
Q 55.71875 13.875 49.015625 6.21875 
Q 42.328125 -1.421875 30.609375 -1.421875 
Q 18.84375 -1.421875 12.171875 6.21875 
Q 5.515625 13.875 5.515625 27.296875 
Q 5.515625 40.765625 12.171875 48.375 
Q 18.84375 56 30.609375 56 
" id="DejaVuSans-6f"/>
      <path d="M 48.78125 52.59375 
L 48.78125 44.1875 
Q 44.96875 46.296875 41.140625 47.34375 
Q 37.3125 48.390625 33.40625 48.390625 
Q 24.65625 48.390625 19.8125 42.84375 
Q 14.984375 37.3125 14.984375 27.296875 
Q 14.984375 17.28125 19.8125 11.734375 
Q 24.65625 6.203125 33.40625 6.203125 
Q 37.3125 6.203125 41.140625 7.25 
Q 44.96875 8.296875 48.78125 10.40625 
L 48.78125 2.09375 
Q 45.015625 0.34375 40.984375 -0.53125 
Q 36.96875 -1.421875 32.421875 -1.421875 
Q 20.0625 -1.421875 12.78125 6.34375 
Q 5.515625 14.109375 5.515625 27.296875 
Q 5.515625 40.671875 12.859375 48.328125 
Q 20.21875 56 33.015625 56 
Q 37.15625 56 41.109375 55.140625 
Q 45.0625 54.296875 48.78125 52.59375 
" id="DejaVuSans-63"/>
      <path d="M 54.890625 33.015625 
L 54.890625 0 
L 45.90625 0 
L 45.90625 32.71875 
Q 45.90625 40.484375 42.875 44.328125 
Q 39.84375 48.1875 33.796875 48.1875 
Q 26.515625 48.1875 22.3125 43.546875 
Q 18.109375 38.921875 18.109375 30.90625 
L 18.109375 0 
L 9.078125 0 
L 9.078125 75.984375 
L 18.109375 75.984375 
L 18.109375 46.1875 
Q 21.34375 51.125 25.703125 53.5625 
Q 30.078125 56 35.796875 56 
Q 45.21875 56 50.046875 50.171875 
Q 54.890625 44.34375 54.890625 33.015625 
" id="DejaVuSans-68"/>
      <path id="DejaVuSans-20"/>
      <path d="M 54.890625 33.015625 
L 54.890625 0 
L 45.90625 0 
L 45.90625 32.71875 
Q 45.90625 40.484375 42.875 44.328125 
Q 39.84375 48.1875 33.796875 48.1875 
Q 26.515625 48.1875 22.3125 43.546875 
Q 18.109375 38.921875 18.109375 30.90625 
L 18.109375 0 
L 9.078125 0 
L 9.078125 54.6875 
L 18.109375 54.6875 
L 18.109375 46.1875 
Q 21.34375 51.125 25.703125 53.5625 
Q 30.078125 56 35.796875 56 
Q 45.21875 56 50.046875 50.171875 
Q 54.890625 44.34375 54.890625 33.015625 
" id="DejaVuSans-6e"/>
      <path d="M 8.5 21.578125 
L 8.5 54.6875 
L 17.484375 54.6875 
L 17.484375 21.921875 
Q 17.484375 14.15625 20.5 10.265625 
Q 23.53125 6.390625 29.59375 6.390625 
Q 36.859375 6.390625 41.078125 11.03125 
Q 45.3125 15.671875 45.3125 23.6875 
L 45.3125 54.6875 
L 54.296875 54.6875 
L 54.296875 0 
L 45.3125 0 
L 45.3125 8.40625 
Q 42.046875 3.421875 37.71875 1 
Q 33.40625 -1.421875 27.6875 -1.421875 
Q 18.265625 -1.421875 13.375 4.4375 
Q 8.5 10.296875 8.5 21.578125 
M 31.109375 56 
z
" id="DejaVuSans-75"/>
      <path d="M 52 44.1875 
Q 55.375 50.25 60.0625 53.125 
Q 64.75 56 71.09375 56 
Q 79.640625 56 84.28125 50.015625 
Q 88.921875 44.046875 88.921875 33.015625 
L 88.921875 0 
L 79.890625 0 
L 79.890625 32.71875 
Q 79.890625 40.578125 77.09375 44.375 
Q 74.3125 48.1875 68.609375 48.1875 
Q 61.625 48.1875 57.5625 43.546875 
Q 53.515625 38.921875 53.515625 30.90625 
L 53.515625 0 
L 44.484375 0 
L 44.484375 32.71875 
Q 44.484375 40.625 41.703125 44.40625 
Q 38.921875 48.1875 33.109375 48.1875 
Q 26.21875 48.1875 22.15625 43.53125 
Q 18.109375 38.875 18.109375 30.90625 
L 18.109375 0 
L 9.078125 0 
L 9.078125 54.6875 
L 18.109375 54.6875 
L 18.109375 46.1875 
Q 21.1875 51.21875 25.484375 53.609375 
Q 29.78125 56 35.6875 56 
Q 41.65625 56 45.828125 52.96875 
Q 50 49.953125 52 44.1875 
" id="DejaVuSans-6d"/>
      <path d="M 48.6875 27.296875 
Q 48.6875 37.203125 44.609375 42.84375 
Q 40.53125 48.484375 33.40625 48.484375 
Q 26.265625 48.484375 22.1875 42.84375 
Q 18.109375 37.203125 18.109375 27.296875 
Q 18.109375 17.390625 22.1875 11.75 
Q 26.265625 6.109375 33.40625 6.109375 
Q 40.53125 6.109375 44.609375 11.75 
Q 48.6875 17.390625 48.6875 27.296875 
M 18.109375 46.390625 
Q 20.953125 51.265625 25.265625 53.625 
Q 29.59375 56 35.59375 56 
Q 45.5625 56 51.78125 48.09375 
Q 58.015625 40.1875 58.015625 27.296875 
Q 58.015625 14.40625 51.78125 6.484375 
Q 45.5625 -1.421875 35.59375 -1.421875 
Q 29.59375 -1.421875 25.265625 0.953125 
Q 20.953125 3.328125 18.109375 8.203125 
L 18.109375 0 
L 9.078125 0 
L 9.078125 75.984375 
L 18.109375 75.984375 
z
" id="DejaVuSans-62"/>
      <path d="M 56.203125 29.59375 
L 56.203125 25.203125 
L 14.890625 25.203125 
Q 15.484375 15.921875 20.484375 11.0625 
Q 25.484375 6.203125 34.421875 6.203125 
Q 39.59375 6.203125 44.453125 7.46875 
Q 49.3125 8.734375 54.109375 11.28125 
L 54.109375 2.78125 
Q 49.265625 0.734375 44.1875 -0.34375 
Q 39.109375 -1.421875 33.890625 -1.421875 
Q 20.796875 -1.421875 13.15625 6.1875 
Q 5.515625 13.8125 5.515625 26.8125 
Q 5.515625 40.234375 12.765625 48.109375 
Q 20.015625 56 32.328125 56 
Q 43.359375 56 49.78125 48.890625 
Q 56.203125 41.796875 56.203125 29.59375 
M 47.21875 32.234375 
Q 47.125 39.59375 43.09375 43.984375 
Q 39.0625 48.390625 32.421875 48.390625 
Q 24.90625 48.390625 20.390625 44.140625 
Q 15.875 39.890625 15.1875 32.171875 
z
" id="DejaVuSans-65"/>
      <path d="M 41.109375 46.296875 
Q 39.59375 47.171875 37.8125 47.578125 
Q 36.03125 48 33.890625 48 
Q 26.265625 48 22.1875 43.046875 
Q 18.109375 38.09375 18.109375 28.8125 
L 18.109375 0 
L 9.078125 0 
L 9.078125 54.6875 
L 18.109375 54.6875 
L 18.109375 46.1875 
Q 20.953125 51.171875 25.484375 53.578125 
Q 30.03125 56 36.53125 56 
Q 37.453125 56 38.578125 55.875 
Q 39.703125 55.765625 41.0625 55.515625 
z
" id="DejaVuSans-72"/>
     </defs>
     <g transform="translate(406.385938 406.276563)scale(0.1 -0.1)">
      <use xlink:href="#DejaVuSans-45"/>
      <use x="63.183594" xlink:href="#DejaVuSans-70"/>
      <use x="126.660156" xlink:href="#DejaVuSans-6f"/>
      <use x="187.841797" xlink:href="#DejaVuSans-63"/>
      <use x="242.822266" xlink:href="#DejaVuSans-68"/>
      <use x="306.201172" xlink:href="#DejaVuSans-20"/>
      <use x="337.988281" xlink:href="#DejaVuSans-6e"/>
      <use x="401.367188" xlink:href="#DejaVuSans-75"/>
      <use x="464.746094" xlink:href="#DejaVuSans-6d"/>
      <use x="562.158203" xlink:href="#DejaVuSans-62"/>
      <use x="625.634766" xlink:href="#DejaVuSans-65"/>
      <use x="687.158203" xlink:href="#DejaVuSans-72"/>
     </g>
    </g>
   </g>
   <g id="matplotlib.axis_2">
    <g id="ytick_1">
     <g id="line2d_15">
      <path clip-path="url(#pdf04b98831)" d="M 108 346.508849 
L 777.6 346.508849 
" style="fill:none;stroke:#b0b0b0;stroke-linecap:square;stroke-width:0.8;"/>
     </g>
     <g id="line2d_16">
      <defs>
       <path d="M 0 0 
L -3.5 0 
" id="m3036c387c0" style="stroke:#000000;stroke-width:0.8;"/>
      </defs>
      <g>
       <use style="stroke:#000000;stroke-width:0.8;" x="108" xlink:href="#m3036c387c0" y="346.508849"/>
      </g>
     </g>
     <g id="text_9">
      <!-- 0.25 -->
      <defs>
       <path d="M 10.6875 12.40625 
L 21 12.40625 
L 21 0 
L 10.6875 0 
z
" id="DejaVuSans-2e"/>
      </defs>
      <g transform="translate(78.734375 350.308067)scale(0.1 -0.1)">
       <use xlink:href="#DejaVuSans-30"/>
       <use x="63.623047" xlink:href="#DejaVuSans-2e"/>
       <use x="95.410156" xlink:href="#DejaVuSans-32"/>
       <use x="159.033203" xlink:href="#DejaVuSans-35"/>
      </g>
     </g>
    </g>
    <g id="ytick_2">
     <g id="line2d_17">
      <path clip-path="url(#pdf04b98831)" d="M 108 305.315902 
L 777.6 305.315902 
" style="fill:none;stroke:#b0b0b0;stroke-linecap:square;stroke-width:0.8;"/>
     </g>
     <g id="line2d_18">
      <g>
       <use style="stroke:#000000;stroke-width:0.8;" x="108" xlink:href="#m3036c387c0" y="305.315902"/>
      </g>
     </g>
     <g id="text_10">
      <!-- 0.50 -->
      <g transform="translate(78.734375 309.115121)scale(0.1 -0.1)">
       <use xlink:href="#DejaVuSans-30"/>
       <use x="63.623047" xlink:href="#DejaVuSans-2e"/>
       <use x="95.410156" xlink:href="#DejaVuSans-35"/>
       <use x="159.033203" xlink:href="#DejaVuSans-30"/>
      </g>
     </g>
    </g>
    <g id="ytick_3">
     <g id="line2d_19">
      <path clip-path="url(#pdf04b98831)" d="M 108 264.122956 
L 777.6 264.122956 
" style="fill:none;stroke:#b0b0b0;stroke-linecap:square;stroke-width:0.8;"/>
     </g>
     <g id="line2d_20">
      <g>
       <use style="stroke:#000000;stroke-width:0.8;" x="108" xlink:href="#m3036c387c0" y="264.122956"/>
      </g>
     </g>
     <g id="text_11">
      <!-- 0.75 -->
      <defs>
       <path d="M 8.203125 72.90625 
L 55.078125 72.90625 
L 55.078125 68.703125 
L 28.609375 0 
L 18.3125 0 
L 43.21875 64.59375 
L 8.203125 64.59375 
z
" id="DejaVuSans-37"/>
      </defs>
      <g transform="translate(78.734375 267.922174)scale(0.1 -0.1)">
       <use xlink:href="#DejaVuSans-30"/>
       <use x="63.623047" xlink:href="#DejaVuSans-2e"/>
       <use x="95.410156" xlink:href="#DejaVuSans-37"/>
       <use x="159.033203" xlink:href="#DejaVuSans-35"/>
      </g>
     </g>
    </g>
    <g id="ytick_4">
     <g id="line2d_21">
      <path clip-path="url(#pdf04b98831)" d="M 108 222.930009 
L 777.6 222.930009 
" style="fill:none;stroke:#b0b0b0;stroke-linecap:square;stroke-width:0.8;"/>
     </g>
     <g id="line2d_22">
      <g>
       <use style="stroke:#000000;stroke-width:0.8;" x="108" xlink:href="#m3036c387c0" y="222.930009"/>
      </g>
     </g>
     <g id="text_12">
      <!-- 1.00 -->
      <g transform="translate(78.734375 226.729228)scale(0.1 -0.1)">
       <use xlink:href="#DejaVuSans-31"/>
       <use x="63.623047" xlink:href="#DejaVuSans-2e"/>
       <use x="95.410156" xlink:href="#DejaVuSans-30"/>
       <use x="159.033203" xlink:href="#DejaVuSans-30"/>
      </g>
     </g>
    </g>
    <g id="ytick_5">
     <g id="line2d_23">
      <path clip-path="url(#pdf04b98831)" d="M 108 181.737063 
L 777.6 181.737063 
" style="fill:none;stroke:#b0b0b0;stroke-linecap:square;stroke-width:0.8;"/>
     </g>
     <g id="line2d_24">
      <g>
       <use style="stroke:#000000;stroke-width:0.8;" x="108" xlink:href="#m3036c387c0" y="181.737063"/>
      </g>
     </g>
     <g id="text_13">
      <!-- 1.25 -->
      <g transform="translate(78.734375 185.536281)scale(0.1 -0.1)">
       <use xlink:href="#DejaVuSans-31"/>
       <use x="63.623047" xlink:href="#DejaVuSans-2e"/>
       <use x="95.410156" xlink:href="#DejaVuSans-32"/>
       <use x="159.033203" xlink:href="#DejaVuSans-35"/>
      </g>
     </g>
    </g>
    <g id="ytick_6">
     <g id="line2d_25">
      <path clip-path="url(#pdf04b98831)" d="M 108 140.544116 
L 777.6 140.544116 
" style="fill:none;stroke:#b0b0b0;stroke-linecap:square;stroke-width:0.8;"/>
     </g>
     <g id="line2d_26">
      <g>
       <use style="stroke:#000000;stroke-width:0.8;" x="108" xlink:href="#m3036c387c0" y="140.544116"/>
      </g>
     </g>
     <g id="text_14">
      <!-- 1.50 -->
      <g transform="translate(78.734375 144.343335)scale(0.1 -0.1)">
       <use xlink:href="#DejaVuSans-31"/>
       <use x="63.623047" xlink:href="#DejaVuSans-2e"/>
       <use x="95.410156" xlink:href="#DejaVuSans-35"/>
       <use x="159.033203" xlink:href="#DejaVuSans-30"/>
      </g>
     </g>
    </g>
    <g id="ytick_7">
     <g id="line2d_27">
      <path clip-path="url(#pdf04b98831)" d="M 108 99.35117 
L 777.6 99.35117 
" style="fill:none;stroke:#b0b0b0;stroke-linecap:square;stroke-width:0.8;"/>
     </g>
     <g id="line2d_28">
      <g>
       <use style="stroke:#000000;stroke-width:0.8;" x="108" xlink:href="#m3036c387c0" y="99.35117"/>
      </g>
     </g>
     <g id="text_15">
      <!-- 1.75 -->
      <g transform="translate(78.734375 103.150388)scale(0.1 -0.1)">
       <use xlink:href="#DejaVuSans-31"/>
       <use x="63.623047" xlink:href="#DejaVuSans-2e"/>
       <use x="95.410156" xlink:href="#DejaVuSans-37"/>
       <use x="159.033203" xlink:href="#DejaVuSans-35"/>
      </g>
     </g>
    </g>
    <g id="ytick_8">
     <g id="line2d_29">
      <path clip-path="url(#pdf04b98831)" d="M 108 58.158223 
L 777.6 58.158223 
" style="fill:none;stroke:#b0b0b0;stroke-linecap:square;stroke-width:0.8;"/>
     </g>
     <g id="line2d_30">
      <g>
       <use style="stroke:#000000;stroke-width:0.8;" x="108" xlink:href="#m3036c387c0" y="58.158223"/>
      </g>
     </g>
     <g id="text_16">
      <!-- 2.00 -->
      <g transform="translate(78.734375 61.957442)scale(0.1 -0.1)">
       <use xlink:href="#DejaVuSans-32"/>
       <use x="63.623047" xlink:href="#DejaVuSans-2e"/>
       <use x="95.410156" xlink:href="#DejaVuSans-30"/>
       <use x="159.033203" xlink:href="#DejaVuSans-30"/>
      </g>
     </g>
    </g>
    <g id="text_17">
     <!-- Training Error -->
     <defs>
      <path d="M -0.296875 72.90625 
L 61.375 72.90625 
L 61.375 64.59375 
L 35.5 64.59375 
L 35.5 0 
L 25.59375 0 
L 25.59375 64.59375 
L -0.296875 64.59375 
z
" id="DejaVuSans-54"/>
      <path d="M 34.28125 27.484375 
Q 23.390625 27.484375 19.1875 25 
Q 14.984375 22.515625 14.984375 16.5 
Q 14.984375 11.71875 18.140625 8.90625 
Q 21.296875 6.109375 26.703125 6.109375 
Q 34.1875 6.109375 38.703125 11.40625 
Q 43.21875 16.703125 43.21875 25.484375 
L 43.21875 27.484375 
z
M 52.203125 31.203125 
L 52.203125 0 
L 43.21875 0 
L 43.21875 8.296875 
Q 40.140625 3.328125 35.546875 0.953125 
Q 30.953125 -1.421875 24.3125 -1.421875 
Q 15.921875 -1.421875 10.953125 3.296875 
Q 6 8.015625 6 15.921875 
Q 6 25.140625 12.171875 29.828125 
Q 18.359375 34.515625 30.609375 34.515625 
L 43.21875 34.515625 
L 43.21875 35.40625 
Q 43.21875 41.609375 39.140625 45 
Q 35.0625 48.390625 27.6875 48.390625 
Q 23 48.390625 18.546875 47.265625 
Q 14.109375 46.140625 10.015625 43.890625 
L 10.015625 52.203125 
Q 14.9375 54.109375 19.578125 55.046875 
Q 24.21875 56 28.609375 56 
Q 40.484375 56 46.34375 49.84375 
Q 52.203125 43.703125 52.203125 31.203125 
" id="DejaVuSans-61"/>
      <path d="M 9.421875 54.6875 
L 18.40625 54.6875 
L 18.40625 0 
L 9.421875 0 
z
M 9.421875 75.984375 
L 18.40625 75.984375 
L 18.40625 64.59375 
L 9.421875 64.59375 
z
" id="DejaVuSans-69"/>
      <path d="M 45.40625 27.984375 
Q 45.40625 37.75 41.375 43.109375 
Q 37.359375 48.484375 30.078125 48.484375 
Q 22.859375 48.484375 18.828125 43.109375 
Q 14.796875 37.75 14.796875 27.984375 
Q 14.796875 18.265625 18.828125 12.890625 
Q 22.859375 7.515625 30.078125 7.515625 
Q 37.359375 7.515625 41.375 12.890625 
Q 45.40625 18.265625 45.40625 27.984375 
M 54.390625 6.78125 
Q 54.390625 -7.171875 48.1875 -13.984375 
Q 42 -20.796875 29.203125 -20.796875 
Q 24.46875 -20.796875 20.265625 -20.09375 
Q 16.0625 -19.390625 12.109375 -17.921875 
L 12.109375 -9.1875 
Q 16.0625 -11.328125 19.921875 -12.34375 
Q 23.78125 -13.375 27.78125 -13.375 
Q 36.625 -13.375 41.015625 -8.765625 
Q 45.40625 -4.15625 45.40625 5.171875 
L 45.40625 9.625 
Q 42.625 4.78125 38.28125 2.390625 
Q 33.9375 0 27.875 0 
Q 17.828125 0 11.671875 7.65625 
Q 5.515625 15.328125 5.515625 27.984375 
Q 5.515625 40.671875 11.671875 48.328125 
Q 17.828125 56 27.875 56 
Q 33.9375 56 38.28125 53.609375 
Q 42.625 51.21875 45.40625 46.390625 
L 45.40625 54.6875 
L 54.390625 54.6875 
z
" id="DejaVuSans-67"/>
     </defs>
     <g transform="translate(72.654687 249.344219)rotate(-90)scale(0.1 -0.1)">
      <use xlink:href="#DejaVuSans-54"/>
      <use x="60.865234" xlink:href="#DejaVuSans-72"/>
      <use x="101.978516" xlink:href="#DejaVuSans-61"/>
      <use x="163.257812" xlink:href="#DejaVuSans-69"/>
      <use x="191.041016" xlink:href="#DejaVuSans-6e"/>
      <use x="254.419922" xlink:href="#DejaVuSans-69"/>
      <use x="282.203125" xlink:href="#DejaVuSans-6e"/>
      <use x="345.582031" xlink:href="#DejaVuSans-67"/>
      <use x="409.058594" xlink:href="#DejaVuSans-20"/>
      <use x="440.845703" xlink:href="#DejaVuSans-45"/>
      <use x="504.029297" xlink:href="#DejaVuSans-72"/>
      <use x="545.126953" xlink:href="#DejaVuSans-72"/>
      <use x="586.208984" xlink:href="#DejaVuSans-6f"/>
      <use x="647.390625" xlink:href="#DejaVuSans-72"/>
     </g>
    </g>
   </g>
   <g id="line2d_31">
    <path clip-path="url(#pdf04b98831)" d="M 138.436364 111.984804 
L 160.176623 117.822311 
L 181.916883 122.612001 
L 203.657143 127.057585 
L 225.397403 130.303628 
L 247.137662 132.829527 
L 268.877922 135.845376 
L 290.618182 138.796149 
L 312.358442 140.782082 
L 334.098701 143.363854 
L 355.838961 145.315471 
L 377.579221 147.763316 
L 399.319481 149.994817 
L 421.05974 152.610297 
L 442.8 154.52166 
L 464.54026 156.581476 
L 486.280519 158.615172 
L 508.020779 160.333829 
L 529.761039 163.052193 
L 551.501299 164.593687 
L 573.241558 166.564446 
L 594.981818 168.436597 
L 616.722078 170.593435 
L 638.462338 172.56984 
L 660.202597 173.93918 
L 681.942857 176.062662 
L 703.683117 177.81992 
L 725.423377 179.727767 
L 747.163636 181.920746 
" style="fill:none;stroke:#d3d3d3;stroke-linecap:square;stroke-width:1.5;"/>
   </g>
   <g id="line2d_32">
    <path clip-path="url(#pdf04b98831)" d="M 138.436364 112.210511 
L 160.176623 119.219051 
L 181.916883 124.34031 
L 203.657143 128.121203 
L 225.397403 131.30438 
L 247.137662 134.530168 
L 268.877922 137.313259 
L 290.618182 139.830087 
L 312.358442 142.460787 
L 334.098701 144.462577 
L 355.838961 147.253851 
L 377.579221 148.972377 
L 399.319481 151.853358 
L 421.05974 153.288322 
L 442.8 155.506314 
L 464.54026 157.990883 
L 486.280519 158.57336 
L 508.020779 161.26612 
L 529.761039 162.991648 
L 551.501299 164.906064 
L 573.241558 165.802537 
L 594.981818 167.696955 
L 616.722078 169.656902 
L 638.462338 171.291003 
L 660.202597 173.124424 
L 681.942857 174.87057 
L 703.683117 176.794531 
L 725.423377 178.157219 
L 747.163636 180.099768 
" style="fill:none;stroke:#1f77b4;stroke-linecap:square;stroke-width:1.5;"/>
   </g>
   <g id="line2d_33">
    <path clip-path="url(#pdf04b98831)" d="M 138.436364 112.26935 
L 160.176623 118.635043 
L 181.916883 124.095463 
L 203.657143 128.145963 
L 225.397403 131.551655 
L 247.137662 135.190586 
L 268.877922 138.085049 
L 290.618182 140.634326 
L 312.358442 143.645114 
L 334.098701 145.984869 
L 355.838961 148.859647 
L 377.579221 151.453874 
L 399.319481 154.153468 
L 421.05974 156.94143 
L 442.8 158.827948 
L 464.54026 161.031668 
L 486.280519 162.870567 
L 508.020779 164.635242 
L 529.761039 167.240809 
L 551.501299 169.662521 
L 573.241558 171.509379 
L 594.981818 173.88548 
L 616.722078 175.778236 
L 638.462338 177.863577 
L 660.202597 179.702515 
L 681.942857 181.588306 
L 703.683117 183.413439 
L 725.423377 185.830382 
L 747.163636 187.502358 
" style="fill:none;stroke:#d3d3d3;stroke-linecap:square;stroke-width:1.5;"/>
   </g>
   <g id="line2d_34">
    <path clip-path="url(#pdf04b98831)" d="M 138.436364 107.65536 
L 160.176623 115.251689 
L 181.916883 121.429014 
L 203.657143 124.608599 
L 225.397403 128.260453 
L 247.137662 130.545038 
L 268.877922 133.715396 
L 290.618182 135.284161 
L 312.358442 137.702671 
L 334.098701 139.75946 
L 355.838961 141.990509 
L 377.579221 143.449304 
L 399.319481 145.231953 
L 421.05974 147.132052 
L 442.8 148.634778 
L 464.54026 149.592821 
L 486.280519 151.355043 
L 508.020779 152.860337 
L 529.761039 154.381217 
L 551.501299 156.188969 
L 573.241558 156.815695 
L 594.981818 158.765061 
L 616.722078 159.615193 
L 638.462338 160.450424 
L 660.202597 161.144967 
L 681.942857 162.794913 
L 703.683117 163.554026 
L 725.423377 165.277534 
L 747.163636 166.492753 
" style="fill:none;stroke:#d3d3d3;stroke-linecap:square;stroke-width:1.5;"/>
   </g>
   <g id="line2d_35">
    <path clip-path="url(#pdf04b98831)" d="M 138.436364 73.393015 
L 160.176623 75.320708 
L 181.916883 77.271073 
L 203.657143 79.427985 
L 225.397403 81.620881 
L 247.137662 84.180844 
L 268.877922 86.570159 
L 290.618182 89.196707 
L 312.358442 92.000023 
L 334.098701 94.263726 
L 355.838961 96.921212 
L 377.579221 99.42819 
L 399.319481 102.07926 
L 421.05974 104.840801 
L 442.8 107.656204 
L 464.54026 110.554244 
L 486.280519 113.325662 
L 508.020779 116.304663 
L 529.761039 119.155459 
L 551.501299 121.870587 
L 573.241558 124.781981 
L 594.981818 127.64287 
L 616.722078 130.5179 
L 638.462338 133.365829 
L 660.202597 136.257772 
L 681.942857 139.053544 
L 703.683117 142.049189 
L 725.423377 145.138804 
L 747.163636 148.138622 
" style="fill:none;stroke:#d3d3d3;stroke-linecap:square;stroke-width:1.5;"/>
   </g>
   <g id="line2d_36">
    <path clip-path="url(#pdf04b98831)" d="M 138.436364 112.012334 
L 160.176623 118.600158 
L 181.916883 122.985038 
L 203.657143 127.101199 
L 225.397403 130.633135 
L 247.137662 133.985156 
L 268.877922 137.16577 
L 290.618182 139.806247 
L 312.358442 141.80902 
L 334.098701 144.45989 
L 355.838961 146.961315 
L 377.579221 149.373238 
L 399.319481 151.643213 
L 421.05974 153.351161 
L 442.8 156.746376 
L 464.54026 157.899853 
L 486.280519 159.121811 
L 508.020779 161.151055 
L 529.761039 163.686479 
L 551.501299 164.450167 
L 573.241558 167.27015 
L 594.981818 168.718715 
L 616.722078 170.865653 
L 638.462338 171.915776 
L 660.202597 173.822246 
L 681.942857 174.500709 
L 703.683117 177.615141 
L 725.423377 177.689466 
L 747.163636 179.753922 
" style="fill:none;stroke:#ff7f0e;stroke-linecap:square;stroke-width:1.5;"/>
   </g>
   <g id="line2d_37">
    <path clip-path="url(#pdf04b98831)" d="M 138.436364 106.38972 
L 160.176623 113.341795 
L 181.916883 118.354029 
L 203.657143 122.091434 
L 225.397403 125.583062 
L 247.137662 128.21442 
L 268.877922 130.636194 
L 290.618182 132.834146 
L 312.358442 135.253788 
L 334.098701 136.765054 
L 355.838961 138.692268 
L 377.579221 140.422384 
L 399.319481 142.03534 
L 421.05974 143.375546 
L 442.8 145.156438 
L 464.54026 146.399747 
L 486.280519 147.681358 
L 508.020779 148.831878 
L 529.761039 150.515058 
L 551.501299 151.773179 
L 573.241558 152.648288 
L 594.981818 153.67101 
L 616.722078 154.762617 
L 638.462338 155.809941 
L 660.202597 156.732929 
L 681.942857 158.182972 
L 703.683117 159.025267 
L 725.423377 160.10378 
L 747.163636 160.495918 
" style="fill:none;stroke:#d3d3d3;stroke-linecap:square;stroke-width:1.5;"/>
   </g>
   <g id="line2d_38">
    <path clip-path="url(#pdf04b98831)" d="M 138.436364 113.172508 
L 160.176623 120.050479 
L 181.916883 124.878315 
L 203.657143 130.136473 
L 225.397403 133.80384 
L 247.137662 137.30453 
L 268.877922 140.99785 
L 290.618182 143.831587 
L 312.358442 146.36814 
L 334.098701 150.907877 
L 355.838961 153.551003 
L 377.579221 156.321795 
L 399.319481 159.515412 
L 421.05974 163.593458 
L 442.8 166.460568 
L 464.54026 168.325299 
L 486.280519 172.511959 
L 508.020779 175.688745 
L 529.761039 178.239584 
L 551.501299 182.410018 
L 573.241558 186.036172 
L 594.981818 189.471928 
L 616.722078 192.826224 
L 638.462338 196.522456 
L 660.202597 200.437294 
L 681.942857 204.934608 
L 703.683117 210.095224 
L 725.423377 214.259065 
L 747.163636 219.062403 
" style="fill:none;stroke:#d3d3d3;stroke-linecap:square;stroke-width:1.5;"/>
   </g>
   <g id="line2d_39">
    <path clip-path="url(#pdf04b98831)" d="M 138.436364 111.862995 
L 160.176623 119.741976 
L 181.916883 125.044278 
L 203.657143 128.224279 
L 225.397403 132.081617 
L 247.137662 135.63286 
L 268.877922 138.545839 
L 290.618182 141.244511 
L 312.358442 143.538725 
L 334.098701 145.941355 
L 355.838961 148.058208 
L 377.579221 150.562103 
L 399.319481 152.479132 
L 421.05974 154.872353 
L 442.8 156.508353 
L 464.54026 158.23541 
L 486.280519 160.26855 
L 508.020779 162.074878 
L 529.761039 163.704066 
L 551.501299 166.22961 
L 573.241558 168.047188 
L 594.981818 169.431011 
L 616.722078 171.124331 
L 638.462338 172.543739 
L 660.202597 174.506945 
L 681.942857 176.085877 
L 703.683117 177.962286 
L 725.423377 179.264588 
L 747.163636 180.609563 
" style="fill:none;stroke:#d3d3d3;stroke-linecap:square;stroke-width:1.5;"/>
   </g>
   <g id="line2d_40">
    <path clip-path="url(#pdf04b98831)" d="M 138.436364 97.275135 
L 160.176623 105.036972 
L 181.916883 109.378606 
L 203.657143 112.550333 
L 225.397403 115.274042 
L 247.137662 117.997054 
L 268.877922 120.478724 
L 290.618182 122.907686 
L 312.358442 124.684034 
L 334.098701 126.663209 
L 355.838961 128.281153 
L 377.579221 129.626933 
L 399.319481 131.166278 
L 421.05974 132.617331 
L 442.8 133.794086 
L 464.54026 135.017796 
L 486.280519 136.119072 
L 508.020779 137.264325 
L 529.761039 138.442158 
L 551.501299 139.49288 
L 573.241558 140.650394 
L 594.981818 141.705217 
L 616.722078 142.698718 
L 638.462338 143.326092 
L 660.202597 144.509364 
L 681.942857 145.332597 
L 703.683117 146.223883 
L 725.423377 146.858971 
L 747.163636 147.801412 
" style="fill:none;stroke:#d3d3d3;stroke-linecap:square;stroke-width:1.5;"/>
   </g>
   <g id="line2d_41">
    <path clip-path="url(#pdf04b98831)" d="M 138.436364 111.731823 
L 160.176623 118.216415 
L 181.916883 123.15864 
L 203.657143 127.904405 
L 225.397403 131.637818 
L 247.137662 135.200877 
L 268.877922 139.259209 
L 290.618182 141.747062 
L 312.358442 145.551992 
L 334.098701 148.664317 
L 355.838961 151.844574 
L 377.579221 154.619483 
L 399.319481 158.107727 
L 421.05974 160.592163 
L 442.8 163.999219 
L 464.54026 166.534124 
L 486.280519 169.424317 
L 508.020779 171.976691 
L 529.761039 174.673441 
L 551.501299 177.595249 
L 573.241558 180.94367 
L 594.981818 183.578478 
L 616.722078 186.858861 
L 638.462338 189.532052 
L 660.202597 193.187308 
L 681.942857 196.262586 
L 703.683117 199.186583 
L 725.423377 202.126428 
L 747.163636 205.941533 
" style="fill:none;stroke:#d3d3d3;stroke-linecap:square;stroke-width:1.5;"/>
   </g>
   <g id="line2d_42">
    <path clip-path="url(#pdf04b98831)" d="M 138.436364 112.045708 
L 160.176623 119.002442 
L 181.916883 123.865115 
L 203.657143 128.932886 
L 225.397403 131.944329 
L 247.137662 135.736431 
L 268.877922 140.196524 
L 290.618182 144.255687 
L 312.358442 147.193766 
L 334.098701 151.244196 
L 355.838961 155.197107 
L 377.579221 160.403858 
L 399.319481 163.704379 
L 421.05974 168.162785 
L 442.8 171.959318 
L 464.54026 176.896604 
L 486.280519 181.803367 
L 508.020779 186.423133 
L 529.761039 191.088237 
L 551.501299 197.222487 
L 573.241558 202.396022 
L 594.981818 209.232848 
L 616.722078 215.434765 
L 638.462338 222.927253 
L 660.202597 229.310718 
L 681.942857 236.86184 
L 703.683117 244.756189 
L 725.423377 252.023251 
L 747.163636 260.000678 
" style="fill:none;stroke:#d3d3d3;stroke-linecap:square;stroke-width:1.5;"/>
   </g>
   <g id="line2d_43">
    <path clip-path="url(#pdf04b98831)" d="M 138.436364 74.50684 
L 160.176623 80.000214 
L 181.916883 82.570308 
L 203.657143 84.302323 
L 225.397403 85.808465 
L 247.137662 87.22627 
L 268.877922 88.401853 
L 290.618182 89.575541 
L 312.358442 90.685738 
L 334.098701 91.646844 
L 355.838961 92.629316 
L 377.579221 93.614601 
L 399.319481 94.550725 
L 421.05974 95.390622 
L 442.8 96.260886 
L 464.54026 97.053407 
L 486.280519 97.886502 
L 508.020779 98.66581 
L 529.761039 99.366554 
L 551.501299 100.102019 
L 573.241558 100.812218 
L 594.981818 101.494103 
L 616.722078 102.17323 
L 638.462338 102.813734 
L 660.202597 103.388502 
L 681.942857 104.020629 
L 703.683117 104.535007 
L 725.423377 105.225641 
L 747.163636 105.714838 
" style="fill:none;stroke:#d3d3d3;stroke-linecap:square;stroke-width:1.5;"/>
   </g>
   <g id="line2d_44">
    <path clip-path="url(#pdf04b98831)" d="M 138.436364 82.114729 
L 160.176623 88.429621 
L 181.916883 94.330814 
L 203.657143 98.725836 
L 225.397403 103.227538 
L 247.137662 108.069935 
L 268.877922 113.204849 
L 290.618182 119.333959 
L 312.358442 125.044459 
L 334.098701 131.046471 
L 355.838961 137.445915 
L 377.579221 144.572109 
L 399.319481 151.767541 
L 421.05974 159.247639 
L 442.8 167.159517 
L 464.54026 175.484443 
L 486.280519 184.415862 
L 508.020779 194.097099 
L 529.761039 203.891315 
L 551.501299 214.326279 
L 573.241558 224.607139 
L 594.981818 235.676199 
L 616.722078 246.505729 
L 638.462338 257.719891 
L 660.202597 268.89667 
L 681.942857 279.885735 
L 703.683117 290.793589 
L 725.423377 301.329419 
L 747.163636 311.335183 
" style="fill:none;stroke:#d3d3d3;stroke-linecap:square;stroke-width:1.5;"/>
   </g>
   <g id="line2d_45">
    <path clip-path="url(#pdf04b98831)" d="M 138.436364 111.757921 
L 160.176623 118.180917 
L 181.916883 122.646512 
L 203.657143 127.076657 
L 225.397403 130.02799 
L 247.137662 133.56294 
L 268.877922 136.334686 
L 290.618182 139.05488 
L 312.358442 141.032696 
L 334.098701 144.019516 
L 355.838961 145.991423 
L 377.579221 148.355547 
L 399.319481 149.4337 
L 421.05974 152.570032 
L 442.8 154.560863 
L 464.54026 156.687236 
L 486.280519 158.258157 
L 508.020779 160.291937 
L 529.761039 161.653874 
L 551.501299 163.976604 
L 573.241558 165.613578 
L 594.981818 167.275323 
L 616.722078 168.772917 
L 638.462338 171.105773 
L 660.202597 172.185016 
L 681.942857 174.158277 
L 703.683117 175.600442 
L 725.423377 177.501482 
L 747.163636 178.527372 
" style="fill:none;stroke:#d3d3d3;stroke-linecap:square;stroke-width:1.5;"/>
   </g>
   <g id="line2d_46">
    <path clip-path="url(#pdf04b98831)" d="M 138.436364 112.407597 
L 160.176623 118.92005 
L 181.916883 123.329917 
L 203.657143 127.727785 
L 225.397403 131.040322 
L 247.137662 134.190948 
L 268.877922 136.630751 
L 290.618182 139.730401 
L 312.358442 142.472782 
L 334.098701 145.219197 
L 355.838961 147.61627 
L 377.579221 149.664944 
L 399.319481 151.641498 
L 421.05974 154.662677 
L 442.8 156.513062 
L 464.54026 158.676693 
L 486.280519 160.790284 
L 508.020779 163.028701 
L 529.761039 163.771225 
L 551.501299 167.058596 
L 573.241558 168.715019 
L 594.981818 170.186386 
L 616.722078 172.674655 
L 638.462338 174.566237 
L 660.202597 175.922687 
L 681.942857 177.465428 
L 703.683117 179.499948 
L 725.423377 181.412443 
L 747.163636 182.793618 
" style="fill:none;stroke:#2ca02c;stroke-linecap:square;stroke-width:1.5;"/>
   </g>
   <g id="line2d_47">
    <path clip-path="url(#pdf04b98831)" d="M 138.436364 112.256439 
L 160.176623 118.788086 
L 181.916883 123.462925 
L 203.657143 127.441126 
L 225.397403 131.073974 
L 247.137662 133.791938 
L 268.877922 136.196661 
L 290.618182 138.583413 
L 312.358442 140.940015 
L 334.098701 142.782699 
L 355.838961 144.659509 
L 377.579221 147.346732 
L 399.319481 148.815313 
L 421.05974 150.067016 
L 442.8 152.035427 
L 464.54026 153.417988 
L 486.280519 155.160862 
L 508.020779 156.884268 
L 529.761039 158.109446 
L 551.501299 160.359417 
L 573.241558 160.917838 
L 594.981818 163.080014 
L 616.722078 164.81399 
L 638.462338 165.518615 
L 660.202597 166.971338 
L 681.942857 168.145267 
L 703.683117 169.492254 
L 725.423377 171.143289 
L 747.163636 171.445532 
" style="fill:none;stroke:#d3d3d3;stroke-linecap:square;stroke-width:1.5;"/>
   </g>
   <g id="line2d_48">
    <path clip-path="url(#pdf04b98831)" d="M 138.436364 84.983402 
L 160.176623 88.758451 
L 181.916883 92.182285 
L 203.657143 95.598111 
L 225.397403 98.859691 
L 247.137662 101.930057 
L 268.877922 104.562559 
L 290.618182 107.442102 
L 312.358442 109.718343 
L 334.098701 112.191858 
L 355.838961 114.424954 
L 377.579221 116.998808 
L 399.319481 119.235848 
L 421.05974 121.796834 
L 442.8 124.261329 
L 464.54026 126.479258 
L 486.280519 129.038829 
L 508.020779 131.565862 
L 529.761039 133.904379 
L 551.501299 136.194734 
L 573.241558 138.61892 
L 594.981818 140.992154 
L 616.722078 143.459328 
L 638.462338 145.813217 
L 660.202597 148.36509 
L 681.942857 150.725865 
L 703.683117 153.100447 
L 725.423377 155.50575 
L 747.163636 158.192699 
" style="fill:none;stroke:#d3d3d3;stroke-linecap:square;stroke-width:1.5;"/>
   </g>
   <g id="line2d_49">
    <path clip-path="url(#pdf04b98831)" d="M 138.436364 76.458998 
L 160.176623 80.963066 
L 181.916883 86.018769 
L 203.657143 90.362435 
L 225.397403 94.00462 
L 247.137662 97.925188 
L 268.877922 101.468393 
L 290.618182 105.467264 
L 312.358442 110.255926 
L 334.098701 114.97375 
L 355.838961 120.070372 
L 377.579221 125.205739 
L 399.319481 130.728585 
L 421.05974 136.30891 
L 442.8 141.905351 
L 464.54026 147.983384 
L 486.280519 153.935387 
L 508.020779 160.474505 
L 529.761039 167.058715 
L 551.501299 174.056619 
L 573.241558 180.88671 
L 594.981818 188.436379 
L 616.722078 195.907792 
L 638.462338 203.775091 
L 660.202597 211.948411 
L 681.942857 219.900357 
L 703.683117 228.296923 
L 725.423377 236.715152 
L 747.163636 245.363426 
" style="fill:none;stroke:#d3d3d3;stroke-linecap:square;stroke-width:1.5;"/>
   </g>
   <g id="line2d_50">
    <path clip-path="url(#pdf04b98831)" d="M 138.436364 111.930874 
L 160.176623 118.096739 
L 181.916883 123.252138 
L 203.657143 127.726564 
L 225.397403 130.706376 
L 247.137662 133.713217 
L 268.877922 136.611455 
L 290.618182 139.662409 
L 312.358442 142.217192 
L 334.098701 144.333602 
L 355.838961 146.914832 
L 377.579221 149.526318 
L 399.319481 151.286895 
L 421.05974 153.396523 
L 442.8 155.953398 
L 464.54026 157.61616 
L 486.280519 159.416961 
L 508.020779 161.83885 
L 529.761039 163.414613 
L 551.501299 165.291277 
L 573.241558 167.477157 
L 594.981818 168.556856 
L 616.722078 170.696651 
L 638.462338 172.957136 
L 660.202597 174.482057 
L 681.942857 176.430144 
L 703.683117 177.708839 
L 725.423377 179.040149 
L 747.163636 180.838069 
" style="fill:none;stroke:#d62728;stroke-linecap:square;stroke-width:1.5;"/>
   </g>
   <g id="line2d_51">
    <path clip-path="url(#pdf04b98831)" d="M 138.436364 107.45331 
L 160.176623 114.643736 
L 181.916883 120.587627 
L 203.657143 127.075489 
L 225.397403 133.216808 
L 247.137662 139.125248 
L 268.877922 146.369441 
L 290.618182 154.466558 
L 312.358442 163.336712 
L 334.098701 173.224039 
L 355.838961 184.400609 
L 377.579221 196.550052 
L 399.319481 210.353106 
L 421.05974 225.283657 
L 442.8 242.475735 
L 464.54026 258.099769 
L 486.280519 276.103162 
L 508.020779 292.867628 
L 529.761039 307.767908 
L 551.501299 320.929645 
L 573.241558 331.527454 
L 594.981818 340.277883 
L 616.722078 345.321272 
L 638.462338 352.305615 
L 660.202597 354.222351 
L 681.942857 357.691921 
L 703.683117 358.067596 
L 725.423377 363.174545 
L 747.163636 357.659994 
" style="fill:none;stroke:#d3d3d3;stroke-linecap:square;stroke-width:1.5;"/>
   </g>
   <g id="line2d_52">
    <path clip-path="url(#pdf04b98831)" d="M 138.436364 111.665881 
L 160.176623 118.551934 
L 181.916883 122.953995 
L 203.657143 126.880384 
L 225.397403 130.479524 
L 247.137662 133.209922 
L 268.877922 136.05877 
L 290.618182 138.429235 
L 312.358442 141.275094 
L 334.098701 143.109763 
L 355.838961 145.281015 
L 377.579221 147.93765 
L 399.319481 148.773563 
L 421.05974 151.578738 
L 442.8 153.378208 
L 464.54026 155.305661 
L 486.280519 156.582986 
L 508.020779 158.902903 
L 529.761039 159.953424 
L 551.501299 161.362681 
L 573.241558 163.324366 
L 594.981818 164.430733 
L 616.722078 166.372569 
L 638.462338 167.416503 
L 660.202597 169.335821 
L 681.942857 170.259086 
L 703.683117 172.271007 
L 725.423377 173.189648 
L 747.163636 173.890527 
" style="fill:none;stroke:#9467bd;stroke-linecap:square;stroke-width:1.5;"/>
   </g>
   <g id="line2d_53">
    <path clip-path="url(#pdf04b98831)" d="M 138.436364 66.665455 
L 160.176623 67.661351 
L 181.916883 68.461446 
L 203.657143 69.011627 
L 225.397403 69.96807 
L 247.137662 70.805152 
L 268.877922 71.658682 
L 290.618182 73.051519 
L 312.358442 74.1294 
L 334.098701 75.464995 
L 355.838961 76.675296 
L 377.579221 78.45166 
L 399.319481 79.517381 
L 421.05974 81.064124 
L 442.8 82.593397 
L 464.54026 84.060924 
L 486.280519 85.551135 
L 508.020779 87.098309 
L 529.761039 88.630701 
L 551.501299 90.283443 
L 573.241558 91.724842 
L 594.981818 93.24261 
L 616.722078 94.992083 
L 638.462338 96.426223 
L 660.202597 97.951479 
L 681.942857 99.448165 
L 703.683117 101.156443 
L 725.423377 102.587685 
L 747.163636 104.329238 
" style="fill:none;stroke:#d3d3d3;stroke-linecap:square;stroke-width:1.5;"/>
   </g>
   <g id="line2d_54">
    <path clip-path="url(#pdf04b98831)" d="M 138.436364 112.697291 
L 160.176623 119.251327 
L 181.916883 123.616137 
L 203.657143 128.107445 
L 225.397403 131.320005 
L 247.137662 134.090783 
L 268.877922 136.694948 
L 290.618182 139.714731 
L 312.358442 142.36844 
L 334.098701 144.666657 
L 355.838961 147.690122 
L 377.579221 149.09378 
L 399.319481 151.158101 
L 421.05974 154.941108 
L 442.8 156.693943 
L 464.54026 158.592045 
L 486.280519 161.417603 
L 508.020779 163.093165 
L 529.761039 164.870883 
L 551.501299 166.902913 
L 573.241558 168.632954 
L 594.981818 171.408709 
L 616.722078 172.800675 
L 638.462338 174.512935 
L 660.202597 176.34473 
L 681.942857 178.532925 
L 703.683117 180.385127 
L 725.423377 181.419288 
L 747.163636 183.540801 
" style="fill:none;stroke:#8c564b;stroke-linecap:square;stroke-width:1.5;"/>
   </g>
   <g id="line2d_55">
    <path clip-path="url(#pdf04b98831)" d="M 138.436364 105.353612 
L 160.176623 112.067125 
L 181.916883 116.713191 
L 203.657143 120.602894 
L 225.397403 123.75038 
L 247.137662 126.885564 
L 268.877922 130.108905 
L 290.618182 132.39304 
L 312.358442 135.531319 
L 334.098701 138.24927 
L 355.838961 141.247574 
L 377.579221 144.260605 
L 399.319481 146.65989 
L 421.05974 148.813667 
L 442.8 151.407981 
L 464.54026 154.468069 
L 486.280519 156.629756 
L 508.020779 159.400917 
L 529.761039 161.887641 
L 551.501299 164.488135 
L 573.241558 166.795822 
L 594.981818 169.334502 
L 616.722078 172.20533 
L 638.462338 174.317423 
L 660.202597 177.137321 
L 681.942857 180.060084 
L 703.683117 182.064099 
L 725.423377 185.012857 
L 747.163636 187.874542 
" style="fill:none;stroke:#d3d3d3;stroke-linecap:square;stroke-width:1.5;"/>
   </g>
   <g id="line2d_56">
    <path clip-path="url(#pdf04b98831)" d="M 138.436364 101.856872 
L 160.176623 108.1409 
L 181.916883 113.223498 
L 203.657143 117.001446 
L 225.397403 120.369407 
L 247.137662 123.520514 
L 268.877922 126.225158 
L 290.618182 128.926774 
L 312.358442 131.508875 
L 334.098701 134.013894 
L 355.838961 136.514482 
L 377.579221 139.610277 
L 399.319481 141.770959 
L 421.05974 144.52902 
L 442.8 147.106297 
L 464.54026 149.819032 
L 486.280519 152.468064 
L 508.020779 154.762513 
L 529.761039 157.424987 
L 551.501299 160.187606 
L 573.241558 162.636947 
L 594.981818 165.305715 
L 616.722078 167.723778 
L 638.462338 170.468371 
L 660.202597 173.382266 
L 681.942857 176.15402 
L 703.683117 178.766275 
L 725.423377 181.95665 
L 747.163636 184.703056 
" style="fill:none;stroke:#d3d3d3;stroke-linecap:square;stroke-width:1.5;"/>
   </g>
   <g id="line2d_57">
    <path clip-path="url(#pdf04b98831)" d="M 138.436364 112.269499 
L 160.176623 119.134978 
L 181.916883 123.776283 
L 203.657143 128.53082 
L 225.397403 131.387192 
L 247.137662 134.586676 
L 268.877922 137.308513 
L 290.618182 140.122194 
L 312.358442 142.195167 
L 334.098701 144.214663 
L 355.838961 146.99288 
L 377.579221 148.390731 
L 399.319481 150.410811 
L 421.05974 152.762561 
L 442.8 154.259582 
L 464.54026 156.423547 
L 486.280519 158.793121 
L 508.020779 160.277956 
L 529.761039 162.325614 
L 551.501299 163.916189 
L 573.241558 165.366762 
L 594.981818 167.161108 
L 616.722078 169.266411 
L 638.462338 170.146488 
L 660.202597 171.973442 
L 681.942857 172.826645 
L 703.683117 174.222163 
L 725.423377 176.570068 
L 747.163636 177.383925 
" style="fill:none;stroke:#e377c2;stroke-linecap:square;stroke-width:1.5;"/>
   </g>
   <g id="line2d_58">
    <path clip-path="url(#pdf04b98831)" d="M 138.436364 109.827164 
L 160.176623 117.579431 
L 181.916883 124.002114 
L 203.657143 129.293477 
L 225.397403 134.698826 
L 247.137662 140.855102 
L 268.877922 146.237127 
L 290.618182 152.808208 
L 312.358442 159.697038 
L 334.098701 167.723223 
L 355.838961 175.566471 
L 377.579221 183.810326 
L 399.319481 193.936483 
L 421.05974 205.10916 
L 442.8 216.204546 
L 464.54026 229.122782 
L 486.280519 242.715633 
L 508.020779 256.258749 
L 529.761039 269.986097 
L 551.501299 283.616033 
L 573.241558 295.77738 
L 594.981818 309.644644 
L 616.722078 320.756353 
L 638.462338 329.637162 
L 660.202597 337.807942 
L 681.942857 344.22712 
L 703.683117 350.021888 
L 725.423377 354.239589 
L 747.163636 358.524437 
" style="fill:none;stroke:#d3d3d3;stroke-linecap:square;stroke-width:1.5;"/>
   </g>
   <g id="line2d_59">
    <path clip-path="url(#pdf04b98831)" d="M 138.436364 111.476185 
L 160.176623 118.609504 
L 181.916883 124.210829 
L 203.657143 128.59717 
L 225.397403 133.176751 
L 247.137662 136.812466 
L 268.877922 141.133034 
L 290.618182 144.976207 
L 312.358442 148.371179 
L 334.098701 153.312698 
L 355.838961 156.958516 
L 377.579221 161.057311 
L 399.319481 165.164708 
L 421.05974 170.300029 
L 442.8 175.075028 
L 464.54026 179.897241 
L 486.280519 185.520615 
L 508.020779 190.323117 
L 529.761039 196.651925 
L 551.501299 203.160573 
L 573.241558 209.212646 
L 594.981818 215.562877 
L 616.722078 223.305785 
L 638.462338 230.922802 
L 660.202597 238.631287 
L 681.942857 246.581899 
L 703.683117 254.883782 
L 725.423377 263.072891 
L 747.163636 271.619209 
" style="fill:none;stroke:#d3d3d3;stroke-linecap:square;stroke-width:1.5;"/>
   </g>
   <g id="patch_3">
    <path d="M 108 378 
L 108 51.84 
" style="fill:none;stroke:#000000;stroke-linecap:square;stroke-linejoin:miter;stroke-width:0.8;"/>
   </g>
   <g id="patch_4">
    <path d="M 777.6 378 
L 777.6 51.84 
" style="fill:none;stroke:#000000;stroke-linecap:square;stroke-linejoin:miter;stroke-width:0.8;"/>
   </g>
   <g id="patch_5">
    <path d="M 108 378 
L 777.6 378 
" style="fill:none;stroke:#000000;stroke-linecap:square;stroke-linejoin:miter;stroke-width:0.8;"/>
   </g>
   <g id="patch_6">
    <path d="M 108 51.84 
L 777.6 51.84 
" style="fill:none;stroke:#000000;stroke-linecap:square;stroke-linejoin:miter;stroke-width:0.8;"/>
   </g>
   <g id="text_18">
    <!-- Training Error over 30 epochs -->
    <defs>
     <path d="M 2.984375 54.6875 
L 12.5 54.6875 
L 29.59375 8.796875 
L 46.6875 54.6875 
L 56.203125 54.6875 
L 35.6875 0 
L 23.484375 0 
z
" id="DejaVuSans-76"/>
     <path d="M 44.28125 53.078125 
L 44.28125 44.578125 
Q 40.484375 46.53125 36.375 47.5 
Q 32.28125 48.484375 27.875 48.484375 
Q 21.1875 48.484375 17.84375 46.4375 
Q 14.5 44.390625 14.5 40.28125 
Q 14.5 37.15625 16.890625 35.375 
Q 19.28125 33.59375 26.515625 31.984375 
L 29.59375 31.296875 
Q 39.15625 29.25 43.1875 25.515625 
Q 47.21875 21.78125 47.21875 15.09375 
Q 47.21875 7.46875 41.1875 3.015625 
Q 35.15625 -1.421875 24.609375 -1.421875 
Q 20.21875 -1.421875 15.453125 -0.5625 
Q 10.6875 0.296875 5.421875 2 
L 5.421875 11.28125 
Q 10.40625 8.6875 15.234375 7.390625 
Q 20.0625 6.109375 24.8125 6.109375 
Q 31.15625 6.109375 34.5625 8.28125 
Q 37.984375 10.453125 37.984375 14.40625 
Q 37.984375 18.0625 35.515625 20.015625 
Q 33.0625 21.96875 24.703125 23.78125 
L 21.578125 24.515625 
Q 13.234375 26.265625 9.515625 29.90625 
Q 5.8125 33.546875 5.8125 39.890625 
Q 5.8125 47.609375 11.28125 51.796875 
Q 16.75 56 26.8125 56 
Q 31.78125 56 36.171875 55.265625 
Q 40.578125 54.546875 44.28125 53.078125 
" id="DejaVuSans-73"/>
    </defs>
    <g transform="translate(353.355 45.84)scale(0.12 -0.12)">
     <use xlink:href="#DejaVuSans-54"/>
     <use x="60.865234" xlink:href="#DejaVuSans-72"/>
     <use x="101.978516" xlink:href="#DejaVuSans-61"/>
     <use x="163.257812" xlink:href="#DejaVuSans-69"/>
     <use x="191.041016" xlink:href="#DejaVuSans-6e"/>
     <use x="254.419922" xlink:href="#DejaVuSans-69"/>
     <use x="282.203125" xlink:href="#DejaVuSans-6e"/>
     <use x="345.582031" xlink:href="#DejaVuSans-67"/>
     <use x="409.058594" xlink:href="#DejaVuSans-20"/>
     <use x="440.845703" xlink:href="#DejaVuSans-45"/>
     <use x="504.029297" xlink:href="#DejaVuSans-72"/>
     <use x="545.126953" xlink:href="#DejaVuSans-72"/>
     <use x="586.208984" xlink:href="#DejaVuSans-6f"/>
     <use x="647.390625" xlink:href="#DejaVuSans-72"/>
     <use x="688.503906" xlink:href="#DejaVuSans-20"/>
     <use x="720.291016" xlink:href="#DejaVuSans-6f"/>
     <use x="781.472656" xlink:href="#DejaVuSans-76"/>
     <use x="840.652344" xlink:href="#DejaVuSans-65"/>
     <use x="902.175781" xlink:href="#DejaVuSans-72"/>
     <use x="943.289062" xlink:href="#DejaVuSans-20"/>
     <use x="975.076172" xlink:href="#DejaVuSans-33"/>
     <use x="1038.699219" xlink:href="#DejaVuSans-30"/>
     <use x="1102.322266" xlink:href="#DejaVuSans-20"/>
     <use x="1134.109375" xlink:href="#DejaVuSans-65"/>
     <use x="1195.632812" xlink:href="#DejaVuSans-70"/>
     <use x="1259.109375" xlink:href="#DejaVuSans-6f"/>
     <use x="1320.291016" xlink:href="#DejaVuSans-63"/>
     <use x="1375.271484" xlink:href="#DejaVuSans-68"/>
     <use x="1438.650391" xlink:href="#DejaVuSans-73"/>
    </g>
   </g>
   <g id="legend_1">
    <g id="patch_7">
     <path d="M 115 373 
L 298.595312 373 
Q 300.595312 373 300.595312 371 
L 300.595312 269.253125 
Q 300.595312 267.253125 298.595312 267.253125 
L 115 267.253125 
Q 113 267.253125 113 269.253125 
L 113 371 
Q 113 373 115 373 
z
" style="fill:#ffffff;opacity:0.8;stroke:#cccccc;stroke-linejoin:miter;"/>
    </g>
    <g id="line2d_60">
     <path d="M 117 275.351562 
L 137 275.351562 
" style="fill:none;stroke:#1f77b4;stroke-linecap:square;stroke-width:1.5;"/>
    </g>
    <g id="line2d_61"/>
    <g id="text_19">
     <!-- state size: 358, num steps: 60 -->
     <defs>
      <path d="M 18.3125 70.21875 
L 18.3125 54.6875 
L 36.8125 54.6875 
L 36.8125 47.703125 
L 18.3125 47.703125 
L 18.3125 18.015625 
Q 18.3125 11.328125 20.140625 9.421875 
Q 21.96875 7.515625 27.59375 7.515625 
L 36.8125 7.515625 
L 36.8125 0 
L 27.59375 0 
Q 17.1875 0 13.234375 3.875 
Q 9.28125 7.765625 9.28125 18.015625 
L 9.28125 47.703125 
L 2.6875 47.703125 
L 2.6875 54.6875 
L 9.28125 54.6875 
L 9.28125 70.21875 
z
" id="DejaVuSans-74"/>
      <path d="M 5.515625 54.6875 
L 48.1875 54.6875 
L 48.1875 46.484375 
L 14.40625 7.171875 
L 48.1875 7.171875 
L 48.1875 0 
L 4.296875 0 
L 4.296875 8.203125 
L 38.09375 47.515625 
L 5.515625 47.515625 
z
" id="DejaVuSans-7a"/>
      <path d="M 11.71875 12.40625 
L 22.015625 12.40625 
L 22.015625 0 
L 11.71875 0 
z
M 11.71875 51.703125 
L 22.015625 51.703125 
L 22.015625 39.3125 
L 11.71875 39.3125 
z
" id="DejaVuSans-3a"/>
      <path d="M 31.78125 34.625 
Q 24.75 34.625 20.71875 30.859375 
Q 16.703125 27.09375 16.703125 20.515625 
Q 16.703125 13.921875 20.71875 10.15625 
Q 24.75 6.390625 31.78125 6.390625 
Q 38.8125 6.390625 42.859375 10.171875 
Q 46.921875 13.96875 46.921875 20.515625 
Q 46.921875 27.09375 42.890625 30.859375 
Q 38.875 34.625 31.78125 34.625 
M 21.921875 38.8125 
Q 15.578125 40.375 12.03125 44.71875 
Q 8.5 49.078125 8.5 55.328125 
Q 8.5 64.0625 14.71875 69.140625 
Q 20.953125 74.21875 31.78125 74.21875 
Q 42.671875 74.21875 48.875 69.140625 
Q 55.078125 64.0625 55.078125 55.328125 
Q 55.078125 49.078125 51.53125 44.71875 
Q 48 40.375 41.703125 38.8125 
Q 48.828125 37.15625 52.796875 32.3125 
Q 56.78125 27.484375 56.78125 20.515625 
Q 56.78125 9.90625 50.3125 4.234375 
Q 43.84375 -1.421875 31.78125 -1.421875 
Q 19.734375 -1.421875 13.25 4.234375 
Q 6.78125 9.90625 6.78125 20.515625 
Q 6.78125 27.484375 10.78125 32.3125 
Q 14.796875 37.15625 21.921875 38.8125 
M 18.3125 54.390625 
Q 18.3125 48.734375 21.84375 45.5625 
Q 25.390625 42.390625 31.78125 42.390625 
Q 38.140625 42.390625 41.71875 45.5625 
Q 45.3125 48.734375 45.3125 54.390625 
Q 45.3125 60.0625 41.71875 63.234375 
Q 38.140625 66.40625 31.78125 66.40625 
Q 25.390625 66.40625 21.84375 63.234375 
Q 18.3125 60.0625 18.3125 54.390625 
" id="DejaVuSans-38"/>
      <path d="M 11.71875 12.40625 
L 22.015625 12.40625 
L 22.015625 4 
L 14.015625 -11.625 
L 7.71875 -11.625 
L 11.71875 4 
z
" id="DejaVuSans-2c"/>
      <path d="M 33.015625 40.375 
Q 26.375 40.375 22.484375 35.828125 
Q 18.609375 31.296875 18.609375 23.390625 
Q 18.609375 15.53125 22.484375 10.953125 
Q 26.375 6.390625 33.015625 6.390625 
Q 39.65625 6.390625 43.53125 10.953125 
Q 47.40625 15.53125 47.40625 23.390625 
Q 47.40625 31.296875 43.53125 35.828125 
Q 39.65625 40.375 33.015625 40.375 
M 52.59375 71.296875 
L 52.59375 62.3125 
Q 48.875 64.0625 45.09375 64.984375 
Q 41.3125 65.921875 37.59375 65.921875 
Q 27.828125 65.921875 22.671875 59.328125 
Q 17.53125 52.734375 16.796875 39.40625 
Q 19.671875 43.65625 24.015625 45.921875 
Q 28.375 48.1875 33.59375 48.1875 
Q 44.578125 48.1875 50.953125 41.515625 
Q 57.328125 34.859375 57.328125 23.390625 
Q 57.328125 12.15625 50.6875 5.359375 
Q 44.046875 -1.421875 33.015625 -1.421875 
Q 20.359375 -1.421875 13.671875 8.265625 
Q 6.984375 17.96875 6.984375 36.375 
Q 6.984375 53.65625 15.1875 63.9375 
Q 23.390625 74.21875 37.203125 74.21875 
Q 40.921875 74.21875 44.703125 73.484375 
Q 48.484375 72.75 52.59375 71.296875 
" id="DejaVuSans-36"/>
     </defs>
     <g transform="translate(145 278.851562)scale(0.1 -0.1)">
      <use xlink:href="#DejaVuSans-73"/>
      <use x="52.099609" xlink:href="#DejaVuSans-74"/>
      <use x="91.308594" xlink:href="#DejaVuSans-61"/>
      <use x="152.587891" xlink:href="#DejaVuSans-74"/>
      <use x="191.796875" xlink:href="#DejaVuSans-65"/>
      <use x="253.320312" xlink:href="#DejaVuSans-20"/>
      <use x="285.107422" xlink:href="#DejaVuSans-73"/>
      <use x="337.207031" xlink:href="#DejaVuSans-69"/>
      <use x="364.990234" xlink:href="#DejaVuSans-7a"/>
      <use x="417.480469" xlink:href="#DejaVuSans-65"/>
      <use x="479.003906" xlink:href="#DejaVuSans-3a"/>
      <use x="512.695312" xlink:href="#DejaVuSans-20"/>
      <use x="544.482422" xlink:href="#DejaVuSans-33"/>
      <use x="608.105469" xlink:href="#DejaVuSans-35"/>
      <use x="671.728516" xlink:href="#DejaVuSans-38"/>
      <use x="735.351562" xlink:href="#DejaVuSans-2c"/>
      <use x="767.138672" xlink:href="#DejaVuSans-20"/>
      <use x="798.925781" xlink:href="#DejaVuSans-6e"/>
      <use x="862.304688" xlink:href="#DejaVuSans-75"/>
      <use x="925.683594" xlink:href="#DejaVuSans-6d"/>
      <use x="1023.095703" xlink:href="#DejaVuSans-20"/>
      <use x="1054.882812" xlink:href="#DejaVuSans-73"/>
      <use x="1106.982422" xlink:href="#DejaVuSans-74"/>
      <use x="1146.191406" xlink:href="#DejaVuSans-65"/>
      <use x="1207.714844" xlink:href="#DejaVuSans-70"/>
      <use x="1271.191406" xlink:href="#DejaVuSans-73"/>
      <use x="1323.291016" xlink:href="#DejaVuSans-3a"/>
      <use x="1356.982422" xlink:href="#DejaVuSans-20"/>
      <use x="1388.769531" xlink:href="#DejaVuSans-36"/>
      <use x="1452.392578" xlink:href="#DejaVuSans-30"/>
     </g>
    </g>
    <g id="line2d_62">
     <path d="M 117 290.029688 
L 137 290.029688 
" style="fill:none;stroke:#ff7f0e;stroke-linecap:square;stroke-width:1.5;"/>
    </g>
    <g id="line2d_63"/>
    <g id="text_20">
     <!-- state size: 342, num steps: 60 -->
     <defs>
      <path d="M 37.796875 64.3125 
L 12.890625 25.390625 
L 37.796875 25.390625 
z
M 35.203125 72.90625 
L 47.609375 72.90625 
L 47.609375 25.390625 
L 58.015625 25.390625 
L 58.015625 17.1875 
L 47.609375 17.1875 
L 47.609375 0 
L 37.796875 0 
L 37.796875 17.1875 
L 4.890625 17.1875 
L 4.890625 26.703125 
z
" id="DejaVuSans-34"/>
     </defs>
     <g transform="translate(145 293.529688)scale(0.1 -0.1)">
      <use xlink:href="#DejaVuSans-73"/>
      <use x="52.099609" xlink:href="#DejaVuSans-74"/>
      <use x="91.308594" xlink:href="#DejaVuSans-61"/>
      <use x="152.587891" xlink:href="#DejaVuSans-74"/>
      <use x="191.796875" xlink:href="#DejaVuSans-65"/>
      <use x="253.320312" xlink:href="#DejaVuSans-20"/>
      <use x="285.107422" xlink:href="#DejaVuSans-73"/>
      <use x="337.207031" xlink:href="#DejaVuSans-69"/>
      <use x="364.990234" xlink:href="#DejaVuSans-7a"/>
      <use x="417.480469" xlink:href="#DejaVuSans-65"/>
      <use x="479.003906" xlink:href="#DejaVuSans-3a"/>
      <use x="512.695312" xlink:href="#DejaVuSans-20"/>
      <use x="544.482422" xlink:href="#DejaVuSans-33"/>
      <use x="608.105469" xlink:href="#DejaVuSans-34"/>
      <use x="671.728516" xlink:href="#DejaVuSans-32"/>
      <use x="735.351562" xlink:href="#DejaVuSans-2c"/>
      <use x="767.138672" xlink:href="#DejaVuSans-20"/>
      <use x="798.925781" xlink:href="#DejaVuSans-6e"/>
      <use x="862.304688" xlink:href="#DejaVuSans-75"/>
      <use x="925.683594" xlink:href="#DejaVuSans-6d"/>
      <use x="1023.095703" xlink:href="#DejaVuSans-20"/>
      <use x="1054.882812" xlink:href="#DejaVuSans-73"/>
      <use x="1106.982422" xlink:href="#DejaVuSans-74"/>
      <use x="1146.191406" xlink:href="#DejaVuSans-65"/>
      <use x="1207.714844" xlink:href="#DejaVuSans-70"/>
      <use x="1271.191406" xlink:href="#DejaVuSans-73"/>
      <use x="1323.291016" xlink:href="#DejaVuSans-3a"/>
      <use x="1356.982422" xlink:href="#DejaVuSans-20"/>
      <use x="1388.769531" xlink:href="#DejaVuSans-36"/>
      <use x="1452.392578" xlink:href="#DejaVuSans-30"/>
     </g>
    </g>
    <g id="line2d_64">
     <path d="M 117 304.707812 
L 137 304.707812 
" style="fill:none;stroke:#2ca02c;stroke-linecap:square;stroke-width:1.5;"/>
    </g>
    <g id="line2d_65"/>
    <g id="text_21">
     <!-- state size: 359, num steps: 60 -->
     <defs>
      <path d="M 10.984375 1.515625 
L 10.984375 10.5 
Q 14.703125 8.734375 18.5 7.8125 
Q 22.3125 6.890625 25.984375 6.890625 
Q 35.75 6.890625 40.890625 13.453125 
Q 46.046875 20.015625 46.78125 33.40625 
Q 43.953125 29.203125 39.59375 26.953125 
Q 35.25 24.703125 29.984375 24.703125 
Q 19.046875 24.703125 12.671875 31.3125 
Q 6.296875 37.9375 6.296875 49.421875 
Q 6.296875 60.640625 12.9375 67.421875 
Q 19.578125 74.21875 30.609375 74.21875 
Q 43.265625 74.21875 49.921875 64.515625 
Q 56.59375 54.828125 56.59375 36.375 
Q 56.59375 19.140625 48.40625 8.859375 
Q 40.234375 -1.421875 26.421875 -1.421875 
Q 22.703125 -1.421875 18.890625 -0.6875 
Q 15.09375 0.046875 10.984375 1.515625 
M 30.609375 32.421875 
Q 37.25 32.421875 41.125 36.953125 
Q 45.015625 41.5 45.015625 49.421875 
Q 45.015625 57.28125 41.125 61.84375 
Q 37.25 66.40625 30.609375 66.40625 
Q 23.96875 66.40625 20.09375 61.84375 
Q 16.21875 57.28125 16.21875 49.421875 
Q 16.21875 41.5 20.09375 36.953125 
Q 23.96875 32.421875 30.609375 32.421875 
" id="DejaVuSans-39"/>
     </defs>
     <g transform="translate(145 308.207812)scale(0.1 -0.1)">
      <use xlink:href="#DejaVuSans-73"/>
      <use x="52.099609" xlink:href="#DejaVuSans-74"/>
      <use x="91.308594" xlink:href="#DejaVuSans-61"/>
      <use x="152.587891" xlink:href="#DejaVuSans-74"/>
      <use x="191.796875" xlink:href="#DejaVuSans-65"/>
      <use x="253.320312" xlink:href="#DejaVuSans-20"/>
      <use x="285.107422" xlink:href="#DejaVuSans-73"/>
      <use x="337.207031" xlink:href="#DejaVuSans-69"/>
      <use x="364.990234" xlink:href="#DejaVuSans-7a"/>
      <use x="417.480469" xlink:href="#DejaVuSans-65"/>
      <use x="479.003906" xlink:href="#DejaVuSans-3a"/>
      <use x="512.695312" xlink:href="#DejaVuSans-20"/>
      <use x="544.482422" xlink:href="#DejaVuSans-33"/>
      <use x="608.105469" xlink:href="#DejaVuSans-35"/>
      <use x="671.728516" xlink:href="#DejaVuSans-39"/>
      <use x="735.351562" xlink:href="#DejaVuSans-2c"/>
      <use x="767.138672" xlink:href="#DejaVuSans-20"/>
      <use x="798.925781" xlink:href="#DejaVuSans-6e"/>
      <use x="862.304688" xlink:href="#DejaVuSans-75"/>
      <use x="925.683594" xlink:href="#DejaVuSans-6d"/>
      <use x="1023.095703" xlink:href="#DejaVuSans-20"/>
      <use x="1054.882812" xlink:href="#DejaVuSans-73"/>
      <use x="1106.982422" xlink:href="#DejaVuSans-74"/>
      <use x="1146.191406" xlink:href="#DejaVuSans-65"/>
      <use x="1207.714844" xlink:href="#DejaVuSans-70"/>
      <use x="1271.191406" xlink:href="#DejaVuSans-73"/>
      <use x="1323.291016" xlink:href="#DejaVuSans-3a"/>
      <use x="1356.982422" xlink:href="#DejaVuSans-20"/>
      <use x="1388.769531" xlink:href="#DejaVuSans-36"/>
      <use x="1452.392578" xlink:href="#DejaVuSans-30"/>
     </g>
    </g>
    <g id="line2d_66">
     <path d="M 117 319.385938 
L 137 319.385938 
" style="fill:none;stroke:#d62728;stroke-linecap:square;stroke-width:1.5;"/>
    </g>
    <g id="line2d_67"/>
    <g id="text_22">
     <!-- state size: 350, num steps: 60 -->
     <g transform="translate(145 322.885938)scale(0.1 -0.1)">
      <use xlink:href="#DejaVuSans-73"/>
      <use x="52.099609" xlink:href="#DejaVuSans-74"/>
      <use x="91.308594" xlink:href="#DejaVuSans-61"/>
      <use x="152.587891" xlink:href="#DejaVuSans-74"/>
      <use x="191.796875" xlink:href="#DejaVuSans-65"/>
      <use x="253.320312" xlink:href="#DejaVuSans-20"/>
      <use x="285.107422" xlink:href="#DejaVuSans-73"/>
      <use x="337.207031" xlink:href="#DejaVuSans-69"/>
      <use x="364.990234" xlink:href="#DejaVuSans-7a"/>
      <use x="417.480469" xlink:href="#DejaVuSans-65"/>
      <use x="479.003906" xlink:href="#DejaVuSans-3a"/>
      <use x="512.695312" xlink:href="#DejaVuSans-20"/>
      <use x="544.482422" xlink:href="#DejaVuSans-33"/>
      <use x="608.105469" xlink:href="#DejaVuSans-35"/>
      <use x="671.728516" xlink:href="#DejaVuSans-30"/>
      <use x="735.351562" xlink:href="#DejaVuSans-2c"/>
      <use x="767.138672" xlink:href="#DejaVuSans-20"/>
      <use x="798.925781" xlink:href="#DejaVuSans-6e"/>
      <use x="862.304688" xlink:href="#DejaVuSans-75"/>
      <use x="925.683594" xlink:href="#DejaVuSans-6d"/>
      <use x="1023.095703" xlink:href="#DejaVuSans-20"/>
      <use x="1054.882812" xlink:href="#DejaVuSans-73"/>
      <use x="1106.982422" xlink:href="#DejaVuSans-74"/>
      <use x="1146.191406" xlink:href="#DejaVuSans-65"/>
      <use x="1207.714844" xlink:href="#DejaVuSans-70"/>
      <use x="1271.191406" xlink:href="#DejaVuSans-73"/>
      <use x="1323.291016" xlink:href="#DejaVuSans-3a"/>
      <use x="1356.982422" xlink:href="#DejaVuSans-20"/>
      <use x="1388.769531" xlink:href="#DejaVuSans-36"/>
      <use x="1452.392578" xlink:href="#DejaVuSans-30"/>
     </g>
    </g>
    <g id="line2d_68">
     <path d="M 117 334.064062 
L 137 334.064062 
" style="fill:none;stroke:#9467bd;stroke-linecap:square;stroke-width:1.5;"/>
    </g>
    <g id="line2d_69"/>
    <g id="text_23">
     <!-- state size: 288, num steps: 60 -->
     <g transform="translate(145 337.564062)scale(0.1 -0.1)">
      <use xlink:href="#DejaVuSans-73"/>
      <use x="52.099609" xlink:href="#DejaVuSans-74"/>
      <use x="91.308594" xlink:href="#DejaVuSans-61"/>
      <use x="152.587891" xlink:href="#DejaVuSans-74"/>
      <use x="191.796875" xlink:href="#DejaVuSans-65"/>
      <use x="253.320312" xlink:href="#DejaVuSans-20"/>
      <use x="285.107422" xlink:href="#DejaVuSans-73"/>
      <use x="337.207031" xlink:href="#DejaVuSans-69"/>
      <use x="364.990234" xlink:href="#DejaVuSans-7a"/>
      <use x="417.480469" xlink:href="#DejaVuSans-65"/>
      <use x="479.003906" xlink:href="#DejaVuSans-3a"/>
      <use x="512.695312" xlink:href="#DejaVuSans-20"/>
      <use x="544.482422" xlink:href="#DejaVuSans-32"/>
      <use x="608.105469" xlink:href="#DejaVuSans-38"/>
      <use x="671.728516" xlink:href="#DejaVuSans-38"/>
      <use x="735.351562" xlink:href="#DejaVuSans-2c"/>
      <use x="767.138672" xlink:href="#DejaVuSans-20"/>
      <use x="798.925781" xlink:href="#DejaVuSans-6e"/>
      <use x="862.304688" xlink:href="#DejaVuSans-75"/>
      <use x="925.683594" xlink:href="#DejaVuSans-6d"/>
      <use x="1023.095703" xlink:href="#DejaVuSans-20"/>
      <use x="1054.882812" xlink:href="#DejaVuSans-73"/>
      <use x="1106.982422" xlink:href="#DejaVuSans-74"/>
      <use x="1146.191406" xlink:href="#DejaVuSans-65"/>
      <use x="1207.714844" xlink:href="#DejaVuSans-70"/>
      <use x="1271.191406" xlink:href="#DejaVuSans-73"/>
      <use x="1323.291016" xlink:href="#DejaVuSans-3a"/>
      <use x="1356.982422" xlink:href="#DejaVuSans-20"/>
      <use x="1388.769531" xlink:href="#DejaVuSans-36"/>
      <use x="1452.392578" xlink:href="#DejaVuSans-30"/>
     </g>
    </g>
    <g id="line2d_70">
     <path d="M 117 348.742188 
L 137 348.742188 
" style="fill:none;stroke:#8c564b;stroke-linecap:square;stroke-width:1.5;"/>
    </g>
    <g id="line2d_71"/>
    <g id="text_24">
     <!-- state size: 361, num steps: 60 -->
     <g transform="translate(145 352.242188)scale(0.1 -0.1)">
      <use xlink:href="#DejaVuSans-73"/>
      <use x="52.099609" xlink:href="#DejaVuSans-74"/>
      <use x="91.308594" xlink:href="#DejaVuSans-61"/>
      <use x="152.587891" xlink:href="#DejaVuSans-74"/>
      <use x="191.796875" xlink:href="#DejaVuSans-65"/>
      <use x="253.320312" xlink:href="#DejaVuSans-20"/>
      <use x="285.107422" xlink:href="#DejaVuSans-73"/>
      <use x="337.207031" xlink:href="#DejaVuSans-69"/>
      <use x="364.990234" xlink:href="#DejaVuSans-7a"/>
      <use x="417.480469" xlink:href="#DejaVuSans-65"/>
      <use x="479.003906" xlink:href="#DejaVuSans-3a"/>
      <use x="512.695312" xlink:href="#DejaVuSans-20"/>
      <use x="544.482422" xlink:href="#DejaVuSans-33"/>
      <use x="608.105469" xlink:href="#DejaVuSans-36"/>
      <use x="671.728516" xlink:href="#DejaVuSans-31"/>
      <use x="735.351562" xlink:href="#DejaVuSans-2c"/>
      <use x="767.138672" xlink:href="#DejaVuSans-20"/>
      <use x="798.925781" xlink:href="#DejaVuSans-6e"/>
      <use x="862.304688" xlink:href="#DejaVuSans-75"/>
      <use x="925.683594" xlink:href="#DejaVuSans-6d"/>
      <use x="1023.095703" xlink:href="#DejaVuSans-20"/>
      <use x="1054.882812" xlink:href="#DejaVuSans-73"/>
      <use x="1106.982422" xlink:href="#DejaVuSans-74"/>
      <use x="1146.191406" xlink:href="#DejaVuSans-65"/>
      <use x="1207.714844" xlink:href="#DejaVuSans-70"/>
      <use x="1271.191406" xlink:href="#DejaVuSans-73"/>
      <use x="1323.291016" xlink:href="#DejaVuSans-3a"/>
      <use x="1356.982422" xlink:href="#DejaVuSans-20"/>
      <use x="1388.769531" xlink:href="#DejaVuSans-36"/>
      <use x="1452.392578" xlink:href="#DejaVuSans-30"/>
     </g>
    </g>
    <g id="line2d_72">
     <path d="M 117 363.420313 
L 137 363.420313 
" style="fill:none;stroke:#e377c2;stroke-linecap:square;stroke-width:1.5;"/>
    </g>
    <g id="line2d_73"/>
    <g id="text_25">
     <!-- state size: 328, num steps: 60 -->
     <g transform="translate(145 366.920313)scale(0.1 -0.1)">
      <use xlink:href="#DejaVuSans-73"/>
      <use x="52.099609" xlink:href="#DejaVuSans-74"/>
      <use x="91.308594" xlink:href="#DejaVuSans-61"/>
      <use x="152.587891" xlink:href="#DejaVuSans-74"/>
      <use x="191.796875" xlink:href="#DejaVuSans-65"/>
      <use x="253.320312" xlink:href="#DejaVuSans-20"/>
      <use x="285.107422" xlink:href="#DejaVuSans-73"/>
      <use x="337.207031" xlink:href="#DejaVuSans-69"/>
      <use x="364.990234" xlink:href="#DejaVuSans-7a"/>
      <use x="417.480469" xlink:href="#DejaVuSans-65"/>
      <use x="479.003906" xlink:href="#DejaVuSans-3a"/>
      <use x="512.695312" xlink:href="#DejaVuSans-20"/>
      <use x="544.482422" xlink:href="#DejaVuSans-33"/>
      <use x="608.105469" xlink:href="#DejaVuSans-32"/>
      <use x="671.728516" xlink:href="#DejaVuSans-38"/>
      <use x="735.351562" xlink:href="#DejaVuSans-2c"/>
      <use x="767.138672" xlink:href="#DejaVuSans-20"/>
      <use x="798.925781" xlink:href="#DejaVuSans-6e"/>
      <use x="862.304688" xlink:href="#DejaVuSans-75"/>
      <use x="925.683594" xlink:href="#DejaVuSans-6d"/>
      <use x="1023.095703" xlink:href="#DejaVuSans-20"/>
      <use x="1054.882812" xlink:href="#DejaVuSans-73"/>
      <use x="1106.982422" xlink:href="#DejaVuSans-74"/>
      <use x="1146.191406" xlink:href="#DejaVuSans-65"/>
      <use x="1207.714844" xlink:href="#DejaVuSans-70"/>
      <use x="1271.191406" xlink:href="#DejaVuSans-73"/>
      <use x="1323.291016" xlink:href="#DejaVuSans-3a"/>
      <use x="1356.982422" xlink:href="#DejaVuSans-20"/>
      <use x="1388.769531" xlink:href="#DejaVuSans-36"/>
      <use x="1452.392578" xlink:href="#DejaVuSans-30"/>
     </g>
    </g>
   </g>
  </g>
 </g>
 <defs>
  <clipPath id="pdf04b98831">
   <rect height="326.16" width="669.6" x="108" y="51.84"/>
  </clipPath>
 </defs>
</svg>
