<?xml version="1.0" encoding="utf-8" standalone="no"?>
<!DOCTYPE svg PUBLIC "-//W3C//DTD SVG 1.1//EN"
  "http://www.w3.org/Graphics/SVG/1.1/DTD/svg11.dtd">
<!-- Created with matplotlib (http://matplotlib.org/) -->
<svg height="432pt" version="1.1" viewBox="0 0 864 432" width="864pt" xmlns="http://www.w3.org/2000/svg" xmlns:xlink="http://www.w3.org/1999/xlink">
 <defs>
  <style type="text/css">
*{stroke-linecap:butt;stroke-linejoin:round;}
  </style>
 </defs>
 <g id="figure_1">
  <g id="patch_1">
   <path d="M 0 432 
L 864 432 
L 864 0 
L 0 0 
z
" style="fill:#ffffff;"/>
  </g>
  <g id="axes_1">
   <g id="patch_2">
    <path d="M 108 378 
L 777.6 378 
L 777.6 51.84 
L 108 51.84 
z
" style="fill:#ffffff;"/>
   </g>
   <g id="matplotlib.axis_1">
    <g id="xtick_1">
     <g id="line2d_1">
      <path clip-path="url(#p8f7d41d6fd)" d="M 116.696104 378 
L 116.696104 51.84 
" style="fill:none;stroke:#b0b0b0;stroke-linecap:square;stroke-width:0.8;"/>
     </g>
     <g id="line2d_2">
      <defs>
       <path d="M 0 0 
L 0 3.5 
" id="m7ea57e9e0e" style="stroke:#000000;stroke-width:0.8;"/>
      </defs>
      <g>
       <use style="stroke:#000000;stroke-width:0.8;" x="116.696104" xlink:href="#m7ea57e9e0e" y="378"/>
      </g>
     </g>
     <g id="text_1">
      <!-- 0 -->
      <defs>
       <path d="M 31.78125 66.40625 
Q 24.171875 66.40625 20.328125 58.90625 
Q 16.5 51.421875 16.5 36.375 
Q 16.5 21.390625 20.328125 13.890625 
Q 24.171875 6.390625 31.78125 6.390625 
Q 39.453125 6.390625 43.28125 13.890625 
Q 47.125 21.390625 47.125 36.375 
Q 47.125 51.421875 43.28125 58.90625 
Q 39.453125 66.40625 31.78125 66.40625 
M 31.78125 74.21875 
Q 44.046875 74.21875 50.515625 64.515625 
Q 56.984375 54.828125 56.984375 36.375 
Q 56.984375 17.96875 50.515625 8.265625 
Q 44.046875 -1.421875 31.78125 -1.421875 
Q 19.53125 -1.421875 13.0625 8.265625 
Q 6.59375 17.96875 6.59375 36.375 
Q 6.59375 54.828125 13.0625 64.515625 
Q 19.53125 74.21875 31.78125 74.21875 
" id="DejaVuSans-30"/>
      </defs>
      <g transform="translate(113.514854 392.598437)scale(0.1 -0.1)">
       <use xlink:href="#DejaVuSans-30"/>
      </g>
     </g>
    </g>
    <g id="xtick_2">
     <g id="line2d_3">
      <path clip-path="url(#p8f7d41d6fd)" d="M 225.397403 378 
L 225.397403 51.84 
" style="fill:none;stroke:#b0b0b0;stroke-linecap:square;stroke-width:0.8;"/>
     </g>
     <g id="line2d_4">
      <g>
       <use style="stroke:#000000;stroke-width:0.8;" x="225.397403" xlink:href="#m7ea57e9e0e" y="378"/>
      </g>
     </g>
     <g id="text_2">
      <!-- 5 -->
      <defs>
       <path d="M 10.796875 72.90625 
L 49.515625 72.90625 
L 49.515625 64.59375 
L 19.828125 64.59375 
L 19.828125 46.734375 
Q 21.96875 47.46875 24.109375 47.828125 
Q 26.265625 48.1875 28.421875 48.1875 
Q 40.625 48.1875 47.75 41.5 
Q 54.890625 34.8125 54.890625 23.390625 
Q 54.890625 11.625 47.5625 5.09375 
Q 40.234375 -1.421875 26.90625 -1.421875 
Q 22.3125 -1.421875 17.546875 -0.640625 
Q 12.796875 0.140625 7.71875 1.703125 
L 7.71875 11.625 
Q 12.109375 9.234375 16.796875 8.0625 
Q 21.484375 6.890625 26.703125 6.890625 
Q 35.15625 6.890625 40.078125 11.328125 
Q 45.015625 15.765625 45.015625 23.390625 
Q 45.015625 31 40.078125 35.4375 
Q 35.15625 39.890625 26.703125 39.890625 
Q 22.75 39.890625 18.8125 39.015625 
Q 14.890625 38.140625 10.796875 36.28125 
z
" id="DejaVuSans-35"/>
      </defs>
      <g transform="translate(222.216153 392.598437)scale(0.1 -0.1)">
       <use xlink:href="#DejaVuSans-35"/>
      </g>
     </g>
    </g>
    <g id="xtick_3">
     <g id="line2d_5">
      <path clip-path="url(#p8f7d41d6fd)" d="M 334.098701 378 
L 334.098701 51.84 
" style="fill:none;stroke:#b0b0b0;stroke-linecap:square;stroke-width:0.8;"/>
     </g>
     <g id="line2d_6">
      <g>
       <use style="stroke:#000000;stroke-width:0.8;" x="334.098701" xlink:href="#m7ea57e9e0e" y="378"/>
      </g>
     </g>
     <g id="text_3">
      <!-- 10 -->
      <defs>
       <path d="M 12.40625 8.296875 
L 28.515625 8.296875 
L 28.515625 63.921875 
L 10.984375 60.40625 
L 10.984375 69.390625 
L 28.421875 72.90625 
L 38.28125 72.90625 
L 38.28125 8.296875 
L 54.390625 8.296875 
L 54.390625 0 
L 12.40625 0 
z
" id="DejaVuSans-31"/>
      </defs>
      <g transform="translate(327.736201 392.598437)scale(0.1 -0.1)">
       <use xlink:href="#DejaVuSans-31"/>
       <use x="63.623047" xlink:href="#DejaVuSans-30"/>
      </g>
     </g>
    </g>
    <g id="xtick_4">
     <g id="line2d_7">
      <path clip-path="url(#p8f7d41d6fd)" d="M 442.8 378 
L 442.8 51.84 
" style="fill:none;stroke:#b0b0b0;stroke-linecap:square;stroke-width:0.8;"/>
     </g>
     <g id="line2d_8">
      <g>
       <use style="stroke:#000000;stroke-width:0.8;" x="442.8" xlink:href="#m7ea57e9e0e" y="378"/>
      </g>
     </g>
     <g id="text_4">
      <!-- 15 -->
      <g transform="translate(436.4375 392.598437)scale(0.1 -0.1)">
       <use xlink:href="#DejaVuSans-31"/>
       <use x="63.623047" xlink:href="#DejaVuSans-35"/>
      </g>
     </g>
    </g>
    <g id="xtick_5">
     <g id="line2d_9">
      <path clip-path="url(#p8f7d41d6fd)" d="M 551.501299 378 
L 551.501299 51.84 
" style="fill:none;stroke:#b0b0b0;stroke-linecap:square;stroke-width:0.8;"/>
     </g>
     <g id="line2d_10">
      <g>
       <use style="stroke:#000000;stroke-width:0.8;" x="551.501299" xlink:href="#m7ea57e9e0e" y="378"/>
      </g>
     </g>
     <g id="text_5">
      <!-- 20 -->
      <defs>
       <path d="M 19.1875 8.296875 
L 53.609375 8.296875 
L 53.609375 0 
L 7.328125 0 
L 7.328125 8.296875 
Q 12.9375 14.109375 22.625 23.890625 
Q 32.328125 33.6875 34.8125 36.53125 
Q 39.546875 41.84375 41.421875 45.53125 
Q 43.3125 49.21875 43.3125 52.78125 
Q 43.3125 58.59375 39.234375 62.25 
Q 35.15625 65.921875 28.609375 65.921875 
Q 23.96875 65.921875 18.8125 64.3125 
Q 13.671875 62.703125 7.8125 59.421875 
L 7.8125 69.390625 
Q 13.765625 71.78125 18.9375 73 
Q 24.125 74.21875 28.421875 74.21875 
Q 39.75 74.21875 46.484375 68.546875 
Q 53.21875 62.890625 53.21875 53.421875 
Q 53.21875 48.921875 51.53125 44.890625 
Q 49.859375 40.875 45.40625 35.40625 
Q 44.1875 33.984375 37.640625 27.21875 
Q 31.109375 20.453125 19.1875 8.296875 
" id="DejaVuSans-32"/>
      </defs>
      <g transform="translate(545.138799 392.598437)scale(0.1 -0.1)">
       <use xlink:href="#DejaVuSans-32"/>
       <use x="63.623047" xlink:href="#DejaVuSans-30"/>
      </g>
     </g>
    </g>
    <g id="xtick_6">
     <g id="line2d_11">
      <path clip-path="url(#p8f7d41d6fd)" d="M 660.202597 378 
L 660.202597 51.84 
" style="fill:none;stroke:#b0b0b0;stroke-linecap:square;stroke-width:0.8;"/>
     </g>
     <g id="line2d_12">
      <g>
       <use style="stroke:#000000;stroke-width:0.8;" x="660.202597" xlink:href="#m7ea57e9e0e" y="378"/>
      </g>
     </g>
     <g id="text_6">
      <!-- 25 -->
      <g transform="translate(653.840097 392.598437)scale(0.1 -0.1)">
       <use xlink:href="#DejaVuSans-32"/>
       <use x="63.623047" xlink:href="#DejaVuSans-35"/>
      </g>
     </g>
    </g>
    <g id="xtick_7">
     <g id="line2d_13">
      <path clip-path="url(#p8f7d41d6fd)" d="M 768.903896 378 
L 768.903896 51.84 
" style="fill:none;stroke:#b0b0b0;stroke-linecap:square;stroke-width:0.8;"/>
     </g>
     <g id="line2d_14">
      <g>
       <use style="stroke:#000000;stroke-width:0.8;" x="768.903896" xlink:href="#m7ea57e9e0e" y="378"/>
      </g>
     </g>
     <g id="text_7">
      <!-- 30 -->
      <defs>
       <path d="M 40.578125 39.3125 
Q 47.65625 37.796875 51.625 33 
Q 55.609375 28.21875 55.609375 21.1875 
Q 55.609375 10.40625 48.1875 4.484375 
Q 40.765625 -1.421875 27.09375 -1.421875 
Q 22.515625 -1.421875 17.65625 -0.515625 
Q 12.796875 0.390625 7.625 2.203125 
L 7.625 11.71875 
Q 11.71875 9.328125 16.59375 8.109375 
Q 21.484375 6.890625 26.8125 6.890625 
Q 36.078125 6.890625 40.9375 10.546875 
Q 45.796875 14.203125 45.796875 21.1875 
Q 45.796875 27.640625 41.28125 31.265625 
Q 36.765625 34.90625 28.71875 34.90625 
L 20.21875 34.90625 
L 20.21875 43.015625 
L 29.109375 43.015625 
Q 36.375 43.015625 40.234375 45.921875 
Q 44.09375 48.828125 44.09375 54.296875 
Q 44.09375 59.90625 40.109375 62.90625 
Q 36.140625 65.921875 28.71875 65.921875 
Q 24.65625 65.921875 20.015625 65.03125 
Q 15.375 64.15625 9.8125 62.3125 
L 9.8125 71.09375 
Q 15.4375 72.65625 20.34375 73.4375 
Q 25.25 74.21875 29.59375 74.21875 
Q 40.828125 74.21875 47.359375 69.109375 
Q 53.90625 64.015625 53.90625 55.328125 
Q 53.90625 49.265625 50.4375 45.09375 
Q 46.96875 40.921875 40.578125 39.3125 
" id="DejaVuSans-33"/>
      </defs>
      <g transform="translate(762.541396 392.598437)scale(0.1 -0.1)">
       <use xlink:href="#DejaVuSans-33"/>
       <use x="63.623047" xlink:href="#DejaVuSans-30"/>
      </g>
     </g>
    </g>
    <g id="text_8">
     <!-- Epoch number -->
     <defs>
      <path d="M 9.8125 72.90625 
L 55.90625 72.90625 
L 55.90625 64.59375 
L 19.671875 64.59375 
L 19.671875 43.015625 
L 54.390625 43.015625 
L 54.390625 34.71875 
L 19.671875 34.71875 
L 19.671875 8.296875 
L 56.78125 8.296875 
L 56.78125 0 
L 9.8125 0 
z
" id="DejaVuSans-45"/>
      <path d="M 18.109375 8.203125 
L 18.109375 -20.796875 
L 9.078125 -20.796875 
L 9.078125 54.6875 
L 18.109375 54.6875 
L 18.109375 46.390625 
Q 20.953125 51.265625 25.265625 53.625 
Q 29.59375 56 35.59375 56 
Q 45.5625 56 51.78125 48.09375 
Q 58.015625 40.1875 58.015625 27.296875 
Q 58.015625 14.40625 51.78125 6.484375 
Q 45.5625 -1.421875 35.59375 -1.421875 
Q 29.59375 -1.421875 25.265625 0.953125 
Q 20.953125 3.328125 18.109375 8.203125 
M 48.6875 27.296875 
Q 48.6875 37.203125 44.609375 42.84375 
Q 40.53125 48.484375 33.40625 48.484375 
Q 26.265625 48.484375 22.1875 42.84375 
Q 18.109375 37.203125 18.109375 27.296875 
Q 18.109375 17.390625 22.1875 11.75 
Q 26.265625 6.109375 33.40625 6.109375 
Q 40.53125 6.109375 44.609375 11.75 
Q 48.6875 17.390625 48.6875 27.296875 
" id="DejaVuSans-70"/>
      <path d="M 30.609375 48.390625 
Q 23.390625 48.390625 19.1875 42.75 
Q 14.984375 37.109375 14.984375 27.296875 
Q 14.984375 17.484375 19.15625 11.84375 
Q 23.34375 6.203125 30.609375 6.203125 
Q 37.796875 6.203125 41.984375 11.859375 
Q 46.1875 17.53125 46.1875 27.296875 
Q 46.1875 37.015625 41.984375 42.703125 
Q 37.796875 48.390625 30.609375 48.390625 
M 30.609375 56 
Q 42.328125 56 49.015625 48.375 
Q 55.71875 40.765625 55.71875 27.296875 
Q 55.71875 13.875 49.015625 6.21875 
Q 42.328125 -1.421875 30.609375 -1.421875 
Q 18.84375 -1.421875 12.171875 6.21875 
Q 5.515625 13.875 5.515625 27.296875 
Q 5.515625 40.765625 12.171875 48.375 
Q 18.84375 56 30.609375 56 
" id="DejaVuSans-6f"/>
      <path d="M 48.78125 52.59375 
L 48.78125 44.1875 
Q 44.96875 46.296875 41.140625 47.34375 
Q 37.3125 48.390625 33.40625 48.390625 
Q 24.65625 48.390625 19.8125 42.84375 
Q 14.984375 37.3125 14.984375 27.296875 
Q 14.984375 17.28125 19.8125 11.734375 
Q 24.65625 6.203125 33.40625 6.203125 
Q 37.3125 6.203125 41.140625 7.25 
Q 44.96875 8.296875 48.78125 10.40625 
L 48.78125 2.09375 
Q 45.015625 0.34375 40.984375 -0.53125 
Q 36.96875 -1.421875 32.421875 -1.421875 
Q 20.0625 -1.421875 12.78125 6.34375 
Q 5.515625 14.109375 5.515625 27.296875 
Q 5.515625 40.671875 12.859375 48.328125 
Q 20.21875 56 33.015625 56 
Q 37.15625 56 41.109375 55.140625 
Q 45.0625 54.296875 48.78125 52.59375 
" id="DejaVuSans-63"/>
      <path d="M 54.890625 33.015625 
L 54.890625 0 
L 45.90625 0 
L 45.90625 32.71875 
Q 45.90625 40.484375 42.875 44.328125 
Q 39.84375 48.1875 33.796875 48.1875 
Q 26.515625 48.1875 22.3125 43.546875 
Q 18.109375 38.921875 18.109375 30.90625 
L 18.109375 0 
L 9.078125 0 
L 9.078125 75.984375 
L 18.109375 75.984375 
L 18.109375 46.1875 
Q 21.34375 51.125 25.703125 53.5625 
Q 30.078125 56 35.796875 56 
Q 45.21875 56 50.046875 50.171875 
Q 54.890625 44.34375 54.890625 33.015625 
" id="DejaVuSans-68"/>
      <path id="DejaVuSans-20"/>
      <path d="M 54.890625 33.015625 
L 54.890625 0 
L 45.90625 0 
L 45.90625 32.71875 
Q 45.90625 40.484375 42.875 44.328125 
Q 39.84375 48.1875 33.796875 48.1875 
Q 26.515625 48.1875 22.3125 43.546875 
Q 18.109375 38.921875 18.109375 30.90625 
L 18.109375 0 
L 9.078125 0 
L 9.078125 54.6875 
L 18.109375 54.6875 
L 18.109375 46.1875 
Q 21.34375 51.125 25.703125 53.5625 
Q 30.078125 56 35.796875 56 
Q 45.21875 56 50.046875 50.171875 
Q 54.890625 44.34375 54.890625 33.015625 
" id="DejaVuSans-6e"/>
      <path d="M 8.5 21.578125 
L 8.5 54.6875 
L 17.484375 54.6875 
L 17.484375 21.921875 
Q 17.484375 14.15625 20.5 10.265625 
Q 23.53125 6.390625 29.59375 6.390625 
Q 36.859375 6.390625 41.078125 11.03125 
Q 45.3125 15.671875 45.3125 23.6875 
L 45.3125 54.6875 
L 54.296875 54.6875 
L 54.296875 0 
L 45.3125 0 
L 45.3125 8.40625 
Q 42.046875 3.421875 37.71875 1 
Q 33.40625 -1.421875 27.6875 -1.421875 
Q 18.265625 -1.421875 13.375 4.4375 
Q 8.5 10.296875 8.5 21.578125 
M 31.109375 56 
z
" id="DejaVuSans-75"/>
      <path d="M 52 44.1875 
Q 55.375 50.25 60.0625 53.125 
Q 64.75 56 71.09375 56 
Q 79.640625 56 84.28125 50.015625 
Q 88.921875 44.046875 88.921875 33.015625 
L 88.921875 0 
L 79.890625 0 
L 79.890625 32.71875 
Q 79.890625 40.578125 77.09375 44.375 
Q 74.3125 48.1875 68.609375 48.1875 
Q 61.625 48.1875 57.5625 43.546875 
Q 53.515625 38.921875 53.515625 30.90625 
L 53.515625 0 
L 44.484375 0 
L 44.484375 32.71875 
Q 44.484375 40.625 41.703125 44.40625 
Q 38.921875 48.1875 33.109375 48.1875 
Q 26.21875 48.1875 22.15625 43.53125 
Q 18.109375 38.875 18.109375 30.90625 
L 18.109375 0 
L 9.078125 0 
L 9.078125 54.6875 
L 18.109375 54.6875 
L 18.109375 46.1875 
Q 21.1875 51.21875 25.484375 53.609375 
Q 29.78125 56 35.6875 56 
Q 41.65625 56 45.828125 52.96875 
Q 50 49.953125 52 44.1875 
" id="DejaVuSans-6d"/>
      <path d="M 48.6875 27.296875 
Q 48.6875 37.203125 44.609375 42.84375 
Q 40.53125 48.484375 33.40625 48.484375 
Q 26.265625 48.484375 22.1875 42.84375 
Q 18.109375 37.203125 18.109375 27.296875 
Q 18.109375 17.390625 22.1875 11.75 
Q 26.265625 6.109375 33.40625 6.109375 
Q 40.53125 6.109375 44.609375 11.75 
Q 48.6875 17.390625 48.6875 27.296875 
M 18.109375 46.390625 
Q 20.953125 51.265625 25.265625 53.625 
Q 29.59375 56 35.59375 56 
Q 45.5625 56 51.78125 48.09375 
Q 58.015625 40.1875 58.015625 27.296875 
Q 58.015625 14.40625 51.78125 6.484375 
Q 45.5625 -1.421875 35.59375 -1.421875 
Q 29.59375 -1.421875 25.265625 0.953125 
Q 20.953125 3.328125 18.109375 8.203125 
L 18.109375 0 
L 9.078125 0 
L 9.078125 75.984375 
L 18.109375 75.984375 
z
" id="DejaVuSans-62"/>
      <path d="M 56.203125 29.59375 
L 56.203125 25.203125 
L 14.890625 25.203125 
Q 15.484375 15.921875 20.484375 11.0625 
Q 25.484375 6.203125 34.421875 6.203125 
Q 39.59375 6.203125 44.453125 7.46875 
Q 49.3125 8.734375 54.109375 11.28125 
L 54.109375 2.78125 
Q 49.265625 0.734375 44.1875 -0.34375 
Q 39.109375 -1.421875 33.890625 -1.421875 
Q 20.796875 -1.421875 13.15625 6.1875 
Q 5.515625 13.8125 5.515625 26.8125 
Q 5.515625 40.234375 12.765625 48.109375 
Q 20.015625 56 32.328125 56 
Q 43.359375 56 49.78125 48.890625 
Q 56.203125 41.796875 56.203125 29.59375 
M 47.21875 32.234375 
Q 47.125 39.59375 43.09375 43.984375 
Q 39.0625 48.390625 32.421875 48.390625 
Q 24.90625 48.390625 20.390625 44.140625 
Q 15.875 39.890625 15.1875 32.171875 
z
" id="DejaVuSans-65"/>
      <path d="M 41.109375 46.296875 
Q 39.59375 47.171875 37.8125 47.578125 
Q 36.03125 48 33.890625 48 
Q 26.265625 48 22.1875 43.046875 
Q 18.109375 38.09375 18.109375 28.8125 
L 18.109375 0 
L 9.078125 0 
L 9.078125 54.6875 
L 18.109375 54.6875 
L 18.109375 46.1875 
Q 20.953125 51.171875 25.484375 53.578125 
Q 30.03125 56 36.53125 56 
Q 37.453125 56 38.578125 55.875 
Q 39.703125 55.765625 41.0625 55.515625 
z
" id="DejaVuSans-72"/>
     </defs>
     <g transform="translate(406.385938 406.276563)scale(0.1 -0.1)">
      <use xlink:href="#DejaVuSans-45"/>
      <use x="63.183594" xlink:href="#DejaVuSans-70"/>
      <use x="126.660156" xlink:href="#DejaVuSans-6f"/>
      <use x="187.841797" xlink:href="#DejaVuSans-63"/>
      <use x="242.822266" xlink:href="#DejaVuSans-68"/>
      <use x="306.201172" xlink:href="#DejaVuSans-20"/>
      <use x="337.988281" xlink:href="#DejaVuSans-6e"/>
      <use x="401.367188" xlink:href="#DejaVuSans-75"/>
      <use x="464.746094" xlink:href="#DejaVuSans-6d"/>
      <use x="562.158203" xlink:href="#DejaVuSans-62"/>
      <use x="625.634766" xlink:href="#DejaVuSans-65"/>
      <use x="687.158203" xlink:href="#DejaVuSans-72"/>
     </g>
    </g>
   </g>
   <g id="matplotlib.axis_2">
    <g id="ytick_1">
     <g id="line2d_15">
      <path clip-path="url(#p8f7d41d6fd)" d="M 108 364.530476 
L 777.6 364.530476 
" style="fill:none;stroke:#b0b0b0;stroke-linecap:square;stroke-width:0.8;"/>
     </g>
     <g id="line2d_16">
      <defs>
       <path d="M 0 0 
L -3.5 0 
" id="mf2229bb3a6" style="stroke:#000000;stroke-width:0.8;"/>
      </defs>
      <g>
       <use style="stroke:#000000;stroke-width:0.8;" x="108" xlink:href="#mf2229bb3a6" y="364.530476"/>
      </g>
     </g>
     <g id="text_9">
      <!-- 0.3 -->
      <defs>
       <path d="M 10.6875 12.40625 
L 21 12.40625 
L 21 0 
L 10.6875 0 
z
" id="DejaVuSans-2e"/>
      </defs>
      <g transform="translate(85.096875 368.329695)scale(0.1 -0.1)">
       <use xlink:href="#DejaVuSans-30"/>
       <use x="63.623047" xlink:href="#DejaVuSans-2e"/>
       <use x="95.410156" xlink:href="#DejaVuSans-33"/>
      </g>
     </g>
    </g>
    <g id="ytick_2">
     <g id="line2d_17">
      <path clip-path="url(#p8f7d41d6fd)" d="M 108 319.332643 
L 777.6 319.332643 
" style="fill:none;stroke:#b0b0b0;stroke-linecap:square;stroke-width:0.8;"/>
     </g>
     <g id="line2d_18">
      <g>
       <use style="stroke:#000000;stroke-width:0.8;" x="108" xlink:href="#mf2229bb3a6" y="319.332643"/>
      </g>
     </g>
     <g id="text_10">
      <!-- 0.4 -->
      <defs>
       <path d="M 37.796875 64.3125 
L 12.890625 25.390625 
L 37.796875 25.390625 
z
M 35.203125 72.90625 
L 47.609375 72.90625 
L 47.609375 25.390625 
L 58.015625 25.390625 
L 58.015625 17.1875 
L 47.609375 17.1875 
L 47.609375 0 
L 37.796875 0 
L 37.796875 17.1875 
L 4.890625 17.1875 
L 4.890625 26.703125 
z
" id="DejaVuSans-34"/>
      </defs>
      <g transform="translate(85.096875 323.131861)scale(0.1 -0.1)">
       <use xlink:href="#DejaVuSans-30"/>
       <use x="63.623047" xlink:href="#DejaVuSans-2e"/>
       <use x="95.410156" xlink:href="#DejaVuSans-34"/>
      </g>
     </g>
    </g>
    <g id="ytick_3">
     <g id="line2d_19">
      <path clip-path="url(#p8f7d41d6fd)" d="M 108 274.134809 
L 777.6 274.134809 
" style="fill:none;stroke:#b0b0b0;stroke-linecap:square;stroke-width:0.8;"/>
     </g>
     <g id="line2d_20">
      <g>
       <use style="stroke:#000000;stroke-width:0.8;" x="108" xlink:href="#mf2229bb3a6" y="274.134809"/>
      </g>
     </g>
     <g id="text_11">
      <!-- 0.5 -->
      <g transform="translate(85.096875 277.934028)scale(0.1 -0.1)">
       <use xlink:href="#DejaVuSans-30"/>
       <use x="63.623047" xlink:href="#DejaVuSans-2e"/>
       <use x="95.410156" xlink:href="#DejaVuSans-35"/>
      </g>
     </g>
    </g>
    <g id="ytick_4">
     <g id="line2d_21">
      <path clip-path="url(#p8f7d41d6fd)" d="M 108 228.936976 
L 777.6 228.936976 
" style="fill:none;stroke:#b0b0b0;stroke-linecap:square;stroke-width:0.8;"/>
     </g>
     <g id="line2d_22">
      <g>
       <use style="stroke:#000000;stroke-width:0.8;" x="108" xlink:href="#mf2229bb3a6" y="228.936976"/>
      </g>
     </g>
     <g id="text_12">
      <!-- 0.6 -->
      <defs>
       <path d="M 33.015625 40.375 
Q 26.375 40.375 22.484375 35.828125 
Q 18.609375 31.296875 18.609375 23.390625 
Q 18.609375 15.53125 22.484375 10.953125 
Q 26.375 6.390625 33.015625 6.390625 
Q 39.65625 6.390625 43.53125 10.953125 
Q 47.40625 15.53125 47.40625 23.390625 
Q 47.40625 31.296875 43.53125 35.828125 
Q 39.65625 40.375 33.015625 40.375 
M 52.59375 71.296875 
L 52.59375 62.3125 
Q 48.875 64.0625 45.09375 64.984375 
Q 41.3125 65.921875 37.59375 65.921875 
Q 27.828125 65.921875 22.671875 59.328125 
Q 17.53125 52.734375 16.796875 39.40625 
Q 19.671875 43.65625 24.015625 45.921875 
Q 28.375 48.1875 33.59375 48.1875 
Q 44.578125 48.1875 50.953125 41.515625 
Q 57.328125 34.859375 57.328125 23.390625 
Q 57.328125 12.15625 50.6875 5.359375 
Q 44.046875 -1.421875 33.015625 -1.421875 
Q 20.359375 -1.421875 13.671875 8.265625 
Q 6.984375 17.96875 6.984375 36.375 
Q 6.984375 53.65625 15.1875 63.9375 
Q 23.390625 74.21875 37.203125 74.21875 
Q 40.921875 74.21875 44.703125 73.484375 
Q 48.484375 72.75 52.59375 71.296875 
" id="DejaVuSans-36"/>
      </defs>
      <g transform="translate(85.096875 232.736195)scale(0.1 -0.1)">
       <use xlink:href="#DejaVuSans-30"/>
       <use x="63.623047" xlink:href="#DejaVuSans-2e"/>
       <use x="95.410156" xlink:href="#DejaVuSans-36"/>
      </g>
     </g>
    </g>
    <g id="ytick_5">
     <g id="line2d_23">
      <path clip-path="url(#p8f7d41d6fd)" d="M 108 183.739143 
L 777.6 183.739143 
" style="fill:none;stroke:#b0b0b0;stroke-linecap:square;stroke-width:0.8;"/>
     </g>
     <g id="line2d_24">
      <g>
       <use style="stroke:#000000;stroke-width:0.8;" x="108" xlink:href="#mf2229bb3a6" y="183.739143"/>
      </g>
     </g>
     <g id="text_13">
      <!-- 0.7 -->
      <defs>
       <path d="M 8.203125 72.90625 
L 55.078125 72.90625 
L 55.078125 68.703125 
L 28.609375 0 
L 18.3125 0 
L 43.21875 64.59375 
L 8.203125 64.59375 
z
" id="DejaVuSans-37"/>
      </defs>
      <g transform="translate(85.096875 187.538361)scale(0.1 -0.1)">
       <use xlink:href="#DejaVuSans-30"/>
       <use x="63.623047" xlink:href="#DejaVuSans-2e"/>
       <use x="95.410156" xlink:href="#DejaVuSans-37"/>
      </g>
     </g>
    </g>
    <g id="ytick_6">
     <g id="line2d_25">
      <path clip-path="url(#p8f7d41d6fd)" d="M 108 138.541309 
L 777.6 138.541309 
" style="fill:none;stroke:#b0b0b0;stroke-linecap:square;stroke-width:0.8;"/>
     </g>
     <g id="line2d_26">
      <g>
       <use style="stroke:#000000;stroke-width:0.8;" x="108" xlink:href="#mf2229bb3a6" y="138.541309"/>
      </g>
     </g>
     <g id="text_14">
      <!-- 0.8 -->
      <defs>
       <path d="M 31.78125 34.625 
Q 24.75 34.625 20.71875 30.859375 
Q 16.703125 27.09375 16.703125 20.515625 
Q 16.703125 13.921875 20.71875 10.15625 
Q 24.75 6.390625 31.78125 6.390625 
Q 38.8125 6.390625 42.859375 10.171875 
Q 46.921875 13.96875 46.921875 20.515625 
Q 46.921875 27.09375 42.890625 30.859375 
Q 38.875 34.625 31.78125 34.625 
M 21.921875 38.8125 
Q 15.578125 40.375 12.03125 44.71875 
Q 8.5 49.078125 8.5 55.328125 
Q 8.5 64.0625 14.71875 69.140625 
Q 20.953125 74.21875 31.78125 74.21875 
Q 42.671875 74.21875 48.875 69.140625 
Q 55.078125 64.0625 55.078125 55.328125 
Q 55.078125 49.078125 51.53125 44.71875 
Q 48 40.375 41.703125 38.8125 
Q 48.828125 37.15625 52.796875 32.3125 
Q 56.78125 27.484375 56.78125 20.515625 
Q 56.78125 9.90625 50.3125 4.234375 
Q 43.84375 -1.421875 31.78125 -1.421875 
Q 19.734375 -1.421875 13.25 4.234375 
Q 6.78125 9.90625 6.78125 20.515625 
Q 6.78125 27.484375 10.78125 32.3125 
Q 14.796875 37.15625 21.921875 38.8125 
M 18.3125 54.390625 
Q 18.3125 48.734375 21.84375 45.5625 
Q 25.390625 42.390625 31.78125 42.390625 
Q 38.140625 42.390625 41.71875 45.5625 
Q 45.3125 48.734375 45.3125 54.390625 
Q 45.3125 60.0625 41.71875 63.234375 
Q 38.140625 66.40625 31.78125 66.40625 
Q 25.390625 66.40625 21.84375 63.234375 
Q 18.3125 60.0625 18.3125 54.390625 
" id="DejaVuSans-38"/>
      </defs>
      <g transform="translate(85.096875 142.340528)scale(0.1 -0.1)">
       <use xlink:href="#DejaVuSans-30"/>
       <use x="63.623047" xlink:href="#DejaVuSans-2e"/>
       <use x="95.410156" xlink:href="#DejaVuSans-38"/>
      </g>
     </g>
    </g>
    <g id="ytick_7">
     <g id="line2d_27">
      <path clip-path="url(#p8f7d41d6fd)" d="M 108 93.343476 
L 777.6 93.343476 
" style="fill:none;stroke:#b0b0b0;stroke-linecap:square;stroke-width:0.8;"/>
     </g>
     <g id="line2d_28">
      <g>
       <use style="stroke:#000000;stroke-width:0.8;" x="108" xlink:href="#mf2229bb3a6" y="93.343476"/>
      </g>
     </g>
     <g id="text_15">
      <!-- 0.9 -->
      <defs>
       <path d="M 10.984375 1.515625 
L 10.984375 10.5 
Q 14.703125 8.734375 18.5 7.8125 
Q 22.3125 6.890625 25.984375 6.890625 
Q 35.75 6.890625 40.890625 13.453125 
Q 46.046875 20.015625 46.78125 33.40625 
Q 43.953125 29.203125 39.59375 26.953125 
Q 35.25 24.703125 29.984375 24.703125 
Q 19.046875 24.703125 12.671875 31.3125 
Q 6.296875 37.9375 6.296875 49.421875 
Q 6.296875 60.640625 12.9375 67.421875 
Q 19.578125 74.21875 30.609375 74.21875 
Q 43.265625 74.21875 49.921875 64.515625 
Q 56.59375 54.828125 56.59375 36.375 
Q 56.59375 19.140625 48.40625 8.859375 
Q 40.234375 -1.421875 26.421875 -1.421875 
Q 22.703125 -1.421875 18.890625 -0.6875 
Q 15.09375 0.046875 10.984375 1.515625 
M 30.609375 32.421875 
Q 37.25 32.421875 41.125 36.953125 
Q 45.015625 41.5 45.015625 49.421875 
Q 45.015625 57.28125 41.125 61.84375 
Q 37.25 66.40625 30.609375 66.40625 
Q 23.96875 66.40625 20.09375 61.84375 
Q 16.21875 57.28125 16.21875 49.421875 
Q 16.21875 41.5 20.09375 36.953125 
Q 23.96875 32.421875 30.609375 32.421875 
" id="DejaVuSans-39"/>
      </defs>
      <g transform="translate(85.096875 97.142695)scale(0.1 -0.1)">
       <use xlink:href="#DejaVuSans-30"/>
       <use x="63.623047" xlink:href="#DejaVuSans-2e"/>
       <use x="95.410156" xlink:href="#DejaVuSans-39"/>
      </g>
     </g>
    </g>
    <g id="text_16">
     <!-- Training Accuracy -->
     <defs>
      <path d="M -0.296875 72.90625 
L 61.375 72.90625 
L 61.375 64.59375 
L 35.5 64.59375 
L 35.5 0 
L 25.59375 0 
L 25.59375 64.59375 
L -0.296875 64.59375 
z
" id="DejaVuSans-54"/>
      <path d="M 34.28125 27.484375 
Q 23.390625 27.484375 19.1875 25 
Q 14.984375 22.515625 14.984375 16.5 
Q 14.984375 11.71875 18.140625 8.90625 
Q 21.296875 6.109375 26.703125 6.109375 
Q 34.1875 6.109375 38.703125 11.40625 
Q 43.21875 16.703125 43.21875 25.484375 
L 43.21875 27.484375 
z
M 52.203125 31.203125 
L 52.203125 0 
L 43.21875 0 
L 43.21875 8.296875 
Q 40.140625 3.328125 35.546875 0.953125 
Q 30.953125 -1.421875 24.3125 -1.421875 
Q 15.921875 -1.421875 10.953125 3.296875 
Q 6 8.015625 6 15.921875 
Q 6 25.140625 12.171875 29.828125 
Q 18.359375 34.515625 30.609375 34.515625 
L 43.21875 34.515625 
L 43.21875 35.40625 
Q 43.21875 41.609375 39.140625 45 
Q 35.0625 48.390625 27.6875 48.390625 
Q 23 48.390625 18.546875 47.265625 
Q 14.109375 46.140625 10.015625 43.890625 
L 10.015625 52.203125 
Q 14.9375 54.109375 19.578125 55.046875 
Q 24.21875 56 28.609375 56 
Q 40.484375 56 46.34375 49.84375 
Q 52.203125 43.703125 52.203125 31.203125 
" id="DejaVuSans-61"/>
      <path d="M 9.421875 54.6875 
L 18.40625 54.6875 
L 18.40625 0 
L 9.421875 0 
z
M 9.421875 75.984375 
L 18.40625 75.984375 
L 18.40625 64.59375 
L 9.421875 64.59375 
z
" id="DejaVuSans-69"/>
      <path d="M 45.40625 27.984375 
Q 45.40625 37.75 41.375 43.109375 
Q 37.359375 48.484375 30.078125 48.484375 
Q 22.859375 48.484375 18.828125 43.109375 
Q 14.796875 37.75 14.796875 27.984375 
Q 14.796875 18.265625 18.828125 12.890625 
Q 22.859375 7.515625 30.078125 7.515625 
Q 37.359375 7.515625 41.375 12.890625 
Q 45.40625 18.265625 45.40625 27.984375 
M 54.390625 6.78125 
Q 54.390625 -7.171875 48.1875 -13.984375 
Q 42 -20.796875 29.203125 -20.796875 
Q 24.46875 -20.796875 20.265625 -20.09375 
Q 16.0625 -19.390625 12.109375 -17.921875 
L 12.109375 -9.1875 
Q 16.0625 -11.328125 19.921875 -12.34375 
Q 23.78125 -13.375 27.78125 -13.375 
Q 36.625 -13.375 41.015625 -8.765625 
Q 45.40625 -4.15625 45.40625 5.171875 
L 45.40625 9.625 
Q 42.625 4.78125 38.28125 2.390625 
Q 33.9375 0 27.875 0 
Q 17.828125 0 11.671875 7.65625 
Q 5.515625 15.328125 5.515625 27.984375 
Q 5.515625 40.671875 11.671875 48.328125 
Q 17.828125 56 27.875 56 
Q 33.9375 56 38.28125 53.609375 
Q 42.625 51.21875 45.40625 46.390625 
L 45.40625 54.6875 
L 54.390625 54.6875 
z
" id="DejaVuSans-67"/>
      <path d="M 34.1875 63.1875 
L 20.796875 26.90625 
L 47.609375 26.90625 
z
M 28.609375 72.90625 
L 39.796875 72.90625 
L 67.578125 0 
L 57.328125 0 
L 50.6875 18.703125 
L 17.828125 18.703125 
L 11.1875 0 
L 0.78125 0 
z
" id="DejaVuSans-41"/>
      <path d="M 32.171875 -5.078125 
Q 28.375 -14.84375 24.75 -17.8125 
Q 21.140625 -20.796875 15.09375 -20.796875 
L 7.90625 -20.796875 
L 7.90625 -13.28125 
L 13.1875 -13.28125 
Q 16.890625 -13.28125 18.9375 -11.515625 
Q 21 -9.765625 23.484375 -3.21875 
L 25.09375 0.875 
L 2.984375 54.6875 
L 12.5 54.6875 
L 29.59375 11.921875 
L 46.6875 54.6875 
L 56.203125 54.6875 
z
" id="DejaVuSans-79"/>
     </defs>
     <g transform="translate(79.017187 259.87625)rotate(-90)scale(0.1 -0.1)">
      <use xlink:href="#DejaVuSans-54"/>
      <use x="60.865234" xlink:href="#DejaVuSans-72"/>
      <use x="101.978516" xlink:href="#DejaVuSans-61"/>
      <use x="163.257812" xlink:href="#DejaVuSans-69"/>
      <use x="191.041016" xlink:href="#DejaVuSans-6e"/>
      <use x="254.419922" xlink:href="#DejaVuSans-69"/>
      <use x="282.203125" xlink:href="#DejaVuSans-6e"/>
      <use x="345.582031" xlink:href="#DejaVuSans-67"/>
      <use x="409.058594" xlink:href="#DejaVuSans-20"/>
      <use x="440.845703" xlink:href="#DejaVuSans-41"/>
      <use x="509.238281" xlink:href="#DejaVuSans-63"/>
      <use x="564.21875" xlink:href="#DejaVuSans-63"/>
      <use x="619.199219" xlink:href="#DejaVuSans-75"/>
      <use x="682.578125" xlink:href="#DejaVuSans-72"/>
      <use x="723.691406" xlink:href="#DejaVuSans-61"/>
      <use x="784.970703" xlink:href="#DejaVuSans-63"/>
      <use x="839.951172" xlink:href="#DejaVuSans-79"/>
     </g>
    </g>
   </g>
   <g id="line2d_29">
    <path clip-path="url(#p8f7d41d6fd)" d="M 138.436364 314.643374 
L 160.176623 309.151837 
L 181.916883 304.948439 
L 203.657143 302.575552 
L 225.397403 297.954075 
L 247.137662 295.502091 
L 268.877922 292.756324 
L 290.618182 290.315641 
L 312.358442 288.112246 
L 334.098701 284.620714 
L 355.838961 282.914496 
L 377.579221 279.852342 
L 399.319481 277.60375 
L 421.05974 275.400356 
L 442.8 273.886229 
L 464.54026 272.146112 
L 486.280519 270.428595 
L 508.020779 268.338195 
L 529.761039 265.30994 
L 551.501299 265.547229 
L 573.241558 261.852306 
L 594.981818 260.30428 
L 616.722078 258.247778 
L 638.462338 257.321223 
L 660.202597 254.824043 
L 681.942857 252.586751 
L 703.683117 250.29296 
L 725.423377 249.501998 
L 747.163636 246.654535 
" style="fill:none;stroke:#d3d3d3;stroke-linecap:square;stroke-width:1.5;"/>
   </g>
   <g id="line2d_30">
    <path clip-path="url(#p8f7d41d6fd)" d="M 138.436364 315.875014 
L 160.176623 308.067089 
L 181.916883 302.41736 
L 203.657143 299.253512 
L 225.397403 295.468194 
L 247.137662 292.937115 
L 268.877922 289.0953 
L 290.618182 287.490776 
L 312.358442 284.564217 
L 334.098701 282.677207 
L 355.838961 280.711101 
L 377.579221 279.343867 
L 399.319481 274.982276 
L 421.05974 274.372106 
L 442.8 271.841027 
L 464.54026 269.682831 
L 486.280519 267.999211 
L 508.020779 265.94271 
L 529.761039 264.620673 
L 551.501299 262.744963 
L 573.241558 261.377728 
L 594.981818 259.513319 
L 616.722078 257.050037 
L 638.462338 256.575458 
L 660.202597 254.970936 
L 681.942857 252.292964 
L 703.683117 250.383356 
L 725.423377 249.400303 
L 747.163636 247.343802 
" style="fill:none;stroke:#1f77b4;stroke-linecap:square;stroke-width:1.5;"/>
   </g>
   <g id="line2d_31">
    <path clip-path="url(#p8f7d41d6fd)" d="M 138.436364 314.982357 
L 160.176623 308.439971 
L 181.916883 302.722446 
L 203.657143 299.08402 
L 225.397403 295.626386 
L 247.137662 293.773275 
L 268.877922 288.891909 
L 290.618182 287.163092 
L 312.358442 284.394725 
L 334.098701 282.937095 
L 355.838961 279.773246 
L 377.579221 277.920136 
L 399.319481 273.524646 
L 421.05974 271.682835 
L 442.8 269.987916 
L 464.54026 266.846666 
L 486.280519 265.51333 
L 508.020779 264.982256 
L 529.761039 261.954002 
L 551.501299 259.027441 
L 573.241558 257.411619 
L 594.981818 254.824043 
L 616.722078 253.106525 
L 638.462338 250.541548 
L 660.202597 249.490699 
L 681.942857 247.17431 
L 703.683117 244.643231 
L 725.423377 242.123451 
L 747.163636 240.304239 
" style="fill:none;stroke:#d3d3d3;stroke-linecap:square;stroke-width:1.5;"/>
   </g>
   <g id="line2d_32">
    <path clip-path="url(#p8f7d41d6fd)" d="M 138.436364 322.21401 
L 160.176623 312.281787 
L 181.916883 307.174433 
L 203.657143 303.163124 
L 225.397403 300.293062 
L 247.137662 297.874978 
L 268.877922 295.151809 
L 290.618182 293.615083 
L 312.358442 291.332591 
L 334.098701 289.355187 
L 355.838961 286.191338 
L 377.579221 285.53597 
L 399.319481 282.349524 
L 421.05974 281.36647 
L 442.8 279.434263 
L 464.54026 278.722397 
L 486.280519 278.191323 
L 508.020779 275.603746 
L 529.761039 273.739335 
L 551.501299 272.134814 
L 573.241558 271.716733 
L 594.981818 270.462493 
L 616.722078 268.564184 
L 638.462338 267.728023 
L 660.202597 267.716725 
L 681.942857 265.908812 
L 703.683117 264.564176 
L 725.423377 263.592423 
L 747.163636 261.852306 
" style="fill:none;stroke:#d3d3d3;stroke-linecap:square;stroke-width:1.5;"/>
   </g>
   <g id="line2d_33">
    <path clip-path="url(#p8f7d41d6fd)" d="M 138.436364 354.417466 
L 160.176623 353.637803 
L 181.916883 350.779041 
L 203.657143 348.101069 
L 225.397403 346.146262 
L 247.137662 345.061514 
L 268.877922 342.225351 
L 290.618182 339.875063 
L 312.358442 337.603872 
L 334.098701 334.31573 
L 355.838961 331.694256 
L 377.579221 329.490861 
L 399.319481 326.971082 
L 421.05974 323.750737 
L 442.8 320.76768 
L 464.54026 318.04451 
L 486.280519 316.496485 
L 508.020779 311.321333 
L 529.761039 308.620763 
L 551.501299 305.829797 
L 573.241558 301.886285 
L 594.981818 298.959726 
L 616.722078 295.445595 
L 638.462338 292.677227 
L 660.202597 289.174395 
L 681.942857 286.270435 
L 703.683117 282.541614 
L 725.423377 279.784546 
L 747.163636 275.456854 
" style="fill:none;stroke:#d3d3d3;stroke-linecap:square;stroke-width:1.5;"/>
   </g>
   <g id="line2d_34">
    <path clip-path="url(#p8f7d41d6fd)" d="M 138.436364 315.897614 
L 160.176623 307.999292 
L 181.916883 304.439963 
L 203.657143 300.12357 
L 225.397403 296.247857 
L 247.137662 292.575532 
L 268.877922 290.349539 
L 290.618182 288.598123 
L 312.358442 285.083992 
L 334.098701 282.326924 
L 355.838961 281.16308 
L 377.579221 278.485109 
L 399.319481 275.502051 
L 421.05974 274.123517 
L 442.8 270.417295 
L 464.54026 269.422943 
L 486.280519 268.349494 
L 508.020779 266.112202 
L 529.761039 263.841011 
L 551.501299 263.038749 
L 573.241558 260.609366 
L 594.981818 258.937045 
L 616.722078 256.688453 
L 638.462338 255.117829 
L 660.202597 253.84099 
L 681.942857 252.80144 
L 703.683117 249.24211 
L 725.423377 250.315559 
L 747.163636 247.456796 
" style="fill:none;stroke:#ff7f0e;stroke-linecap:square;stroke-width:1.5;"/>
   </g>
   <g id="line2d_35">
    <path clip-path="url(#p8f7d41d6fd)" d="M 138.436364 322.485197 
L 160.176623 314.835465 
L 181.916883 310.530371 
L 203.657143 306.858047 
L 225.397403 303.25352 
L 247.137662 299.818485 
L 268.877922 297.784582 
L 290.618182 295.038815 
L 312.358442 292.711126 
L 334.098701 291.874966 
L 355.838961 289.219593 
L 377.579221 286.925803 
L 399.319481 287.61507 
L 421.05974 285.818457 
L 442.8 283.151784 
L 464.54026 281.411668 
L 486.280519 281.15178 
L 508.020779 280.394717 
L 529.761039 278.180023 
L 551.501299 276.722392 
L 573.241558 275.920131 
L 594.981818 274.982277 
L 616.722078 273.581144 
L 638.462338 272.157412 
L 660.202597 271.739332 
L 681.942857 270.485092 
L 703.683117 269.682831 
L 725.423377 268.044409 
L 747.163636 268.213901 
" style="fill:none;stroke:#d3d3d3;stroke-linecap:square;stroke-width:1.5;"/>
   </g>
   <g id="line2d_36">
    <path clip-path="url(#p8f7d41d6fd)" d="M 138.436364 315.117951 
L 160.176623 308.519068 
L 181.916883 302.496456 
L 203.657143 298.620742 
L 225.397403 294.598135 
L 247.137662 289.942759 
L 268.877922 287.62637 
L 290.618182 283.705458 
L 312.358442 280.428615 
L 334.098701 277.151773 
L 355.838961 274.28171 
L 377.579221 270.3156 
L 399.319481 266.643277 
L 421.05974 263.739315 
L 442.8 261.117841 
L 464.54026 259.343827 
L 486.280519 254.507659 
L 508.020779 252.259066 
L 529.761039 249.309907 
L 551.501299 244.564135 
L 573.241558 240.315538 
L 594.981818 236.654513 
L 616.722078 234.134734 
L 638.462338 230.021732 
L 660.202597 226.778787 
L 681.942857 222.564089 
L 703.683117 216.609275 
L 725.423377 211.8861 
L 747.163636 206.677051 
" style="fill:none;stroke:#d3d3d3;stroke-linecap:square;stroke-width:1.5;"/>
   </g>
   <g id="line2d_37">
    <path clip-path="url(#p8f7d41d6fd)" d="M 138.436364 315.355239 
L 160.176623 306.733753 
L 181.916883 302.089676 
L 203.657143 298.24786 
L 225.397403 294.372146 
L 247.137662 292.033158 
L 268.877922 289.242193 
L 290.618182 286.451226 
L 312.358442 284.067041 
L 334.098701 281.400368 
L 355.838961 279.242172 
L 377.579221 276.5529 
L 399.319481 274.824084 
L 421.05974 271.965321 
L 442.8 270.259103 
L 464.54026 268.835372 
L 486.280519 267.095255 
L 508.020779 265.897512 
L 529.761039 262.846658 
L 551.501299 262.417279 
L 573.241558 259.490719 
L 594.981818 257.886197 
L 616.722078 256.394667 
L 638.462338 255.208224 
L 660.202597 252.869237 
L 681.942857 251.773189 
L 703.683117 249.366405 
L 725.423377 247.739283 
L 747.163636 246.643235 
" style="fill:none;stroke:#d3d3d3;stroke-linecap:square;stroke-width:1.5;"/>
   </g>
   <g id="line2d_38">
    <path clip-path="url(#p8f7d41d6fd)" d="M 138.436364 333.253581 
L 160.176623 325.129271 
L 181.916883 320.688584 
L 203.657143 317.479537 
L 225.397403 313.445631 
L 247.137662 309.852403 
L 268.877922 307.671608 
L 290.618182 305.32132 
L 312.358442 303.784594 
L 334.098701 302.360863 
L 355.838961 300.903233 
L 377.579221 299.219614 
L 399.319481 296.57554 
L 421.05974 296.338252 
L 442.8 294.903221 
L 464.54026 292.993613 
L 486.280519 292.247848 
L 508.020779 290.643325 
L 529.761039 290.100951 
L 551.501299 289.886262 
L 573.241558 288.982304 
L 594.981818 287.558573 
L 616.722078 285.976649 
L 638.462338 285.264783 
L 660.202597 284.519019 
L 681.942857 283.942747 
L 703.683117 282.778902 
L 725.423377 282.293026 
L 747.163636 281.490765 
" style="fill:none;stroke:#d3d3d3;stroke-linecap:square;stroke-width:1.5;"/>
   </g>
   <g id="line2d_39">
    <path clip-path="url(#p8f7d41d6fd)" d="M 138.436364 315.886314 
L 160.176623 309.084041 
L 181.916883 305.377818 
L 203.657143 300.790238 
L 225.397403 295.547289 
L 247.137662 292.21395 
L 268.877922 288.835411 
L 290.618182 286.236537 
L 312.358442 282.891897 
L 334.098701 278.564204 
L 355.838961 275.784538 
L 377.579221 273.479448 
L 399.319481 270.575488 
L 421.05974 267.479436 
L 442.8 264.033102 
L 464.54026 261.592419 
L 486.280519 258.993543 
L 508.020779 255.445514 
L 529.761039 253.807092 
L 551.501299 250.134768 
L 573.241558 246.270354 
L 594.981818 244.191252 
L 616.722078 241.309891 
L 638.462338 239.275989 
L 660.202597 234.665808 
L 681.942857 230.812694 
L 703.683117 229.174272 
L 725.423377 225.25336 
L 747.163636 221.626234 
" style="fill:none;stroke:#d3d3d3;stroke-linecap:square;stroke-width:1.5;"/>
   </g>
   <g id="line2d_40">
    <path clip-path="url(#p8f7d41d6fd)" d="M 138.436364 314.711171 
L 160.176623 309.197035 
L 181.916883 302.858039 
L 203.657143 299.061421 
L 225.397403 294.564237 
L 247.137662 291.1744 
L 268.877922 288.270439 
L 290.618182 282.699806 
L 312.358442 280.259123 
L 334.098701 277.468158 
L 355.838961 273.117865 
L 377.579221 267.38904 
L 399.319481 264.767566 
L 421.05974 259.547217 
L 442.8 255.581107 
L 464.54026 251.581098 
L 486.280519 245.965267 
L 508.020779 241.32119 
L 529.761039 236.665813 
L 551.501299 229.953935 
L 573.241558 224.451099 
L 594.981818 217.14035 
L 616.722078 210.631861 
L 638.462338 202.993428 
L 660.202597 197.151607 
L 681.942857 189.784361 
L 703.683117 180.902985 
L 725.423377 173.806926 
L 747.163636 166.620472 
" style="fill:none;stroke:#d3d3d3;stroke-linecap:square;stroke-width:1.5;"/>
   </g>
   <g id="line2d_41">
    <path clip-path="url(#p8f7d41d6fd)" d="M 138.436364 353.818594 
L 160.176623 347.818583 
L 181.916883 345.615188 
L 203.657143 343.637783 
L 225.397403 341.81857 
L 247.137662 340.914614 
L 268.877922 339.569978 
L 290.618182 338.880711 
L 312.358442 337.795963 
L 334.098701 336.971103 
L 355.838961 335.615168 
L 377.579221 334.575617 
L 399.319481 333.942848 
L 421.05974 333.829853 
L 442.8 332.530415 
L 464.54026 330.903293 
L 486.280519 330.869396 
L 508.020779 330.270524 
L 529.761039 329.061482 
L 551.501299 328.519108 
L 573.241558 328.247922 
L 594.981818 327.875039 
L 616.722078 327.24227 
L 638.462338 326.564302 
L 660.202597 326.81289 
L 681.942857 326.39481 
L 703.683117 325.163169 
L 725.423377 323.988025 
L 747.163636 323.456951 
" style="fill:none;stroke:#d3d3d3;stroke-linecap:square;stroke-width:1.5;"/>
   </g>
   <g id="line2d_42">
    <path clip-path="url(#p8f7d41d6fd)" d="M 138.436364 346.801631 
L 160.176623 341.468287 
L 181.916883 336.530424 
L 203.657143 331.581261 
L 225.397403 327.42306 
L 247.137662 320.903273 
L 268.877922 316.067105 
L 290.618182 310.54167 
L 312.358442 303.05013 
L 334.098701 298.021871 
L 355.838961 288.925807 
L 377.579221 281.219577 
L 399.319481 273.185662 
L 421.05974 265.196945 
L 442.8 257.106533 
L 464.54026 246.055663 
L 486.280519 236.428524 
L 508.020779 224.790083 
L 529.761039 213.558421 
L 551.501299 200.699637 
L 573.241558 190.62052 
L 594.981818 178.168518 
L 616.722078 165.479224 
L 638.462338 152.304057 
L 660.202597 140.360529 
L 681.942857 127.524343 
L 703.683117 116.315279 
L 725.423377 104.337851 
L 747.163636 95.637268 
" style="fill:none;stroke:#d3d3d3;stroke-linecap:square;stroke-width:1.5;"/>
   </g>
   <g id="line2d_43">
    <path clip-path="url(#p8f7d41d6fd)" d="M 138.436364 316.281795 
L 160.176623 309.581216 
L 181.916883 305.603808 
L 203.657143 300.406057 
L 225.397403 299.253512 
L 247.137662 294.259151 
L 268.877922 291.016207 
L 290.618182 288.383433 
L 312.358442 286.688515 
L 334.098701 283.671559 
L 355.838961 282.315624 
L 377.579221 280.11223 
L 399.319481 278.620702 
L 421.05974 275.818436 
L 442.8 274.146116 
L 464.54026 271.626337 
L 486.280519 270.180006 
L 508.020779 268.507687 
L 529.761039 265.716721 
L 551.501299 264.948358 
L 573.241558 263.942706 
L 594.981818 261.174339 
L 616.722078 259.456821 
L 638.462338 257.287325 
L 660.202597 255.897492 
L 681.942857 254.722347 
L 703.683117 252.79014 
L 725.423377 251.660194 
L 747.163636 249.400303 
" style="fill:none;stroke:#d3d3d3;stroke-linecap:square;stroke-width:1.5;"/>
   </g>
   <g id="line2d_44">
    <path clip-path="url(#p8f7d41d6fd)" d="M 138.436364 314.891961 
L 160.176623 308.25918 
L 181.916883 303.999285 
L 203.657143 299.411704 
L 225.397403 294.790226 
L 247.137662 293.287398 
L 268.877922 290.33824 
L 290.618182 287.490776 
L 312.358442 286.699814 
L 334.098701 281.852347 
L 355.838961 279.784546 
L 377.579221 278.519007 
L 399.319481 274.733688 
L 421.05974 272.281706 
L 442.8 268.903167 
L 464.54026 268.078308 
L 486.280519 266.518982 
L 508.020779 263.298637 
L 529.761039 263.490728 
L 551.501299 259.343827 
L 573.241558 259.626313 
L 594.981818 257.117833 
L 616.722078 253.264717 
L 638.462338 252.360761 
L 660.202597 251.12912 
L 681.942857 249.739287 
L 703.683117 247.852277 
L 725.423377 246.654534 
L 747.163636 244.372043 
" style="fill:none;stroke:#2ca02c;stroke-linecap:square;stroke-width:1.5;"/>
   </g>
   <g id="line2d_45">
    <path clip-path="url(#p8f7d41d6fd)" d="M 138.436364 316.349592 
L 160.176623 309.072741 
L 181.916883 304.801546 
L 203.657143 299.08402 
L 225.397403 297.174411 
L 247.137662 293.976665 
L 268.877922 290.654625 
L 290.618182 288.846711 
L 312.358442 287.41168 
L 334.098701 285.490772 
L 355.838961 283.117886 
L 377.579221 280.575507 
L 399.319481 279.50206 
L 421.05974 278.473809 
L 442.8 275.468153 
L 464.54026 274.134817 
L 486.280519 272.473797 
L 508.020779 271.004867 
L 529.761039 268.869269 
L 551.501299 267.739323 
L 573.241558 267.050057 
L 594.981818 264.69977 
L 616.722078 261.33253 
L 638.462338 260.857953 
L 660.202597 261.377728 
L 681.942857 259.68281 
L 703.683117 258.259078 
L 725.423377 256.507662 
L 747.163636 257.140432 
" style="fill:none;stroke:#d3d3d3;stroke-linecap:square;stroke-width:1.5;"/>
   </g>
   <g id="line2d_46">
    <path clip-path="url(#p8f7d41d6fd)" d="M 138.436364 342.733827 
L 160.176623 339.445684 
L 181.916883 336.259236 
L 203.657143 333.389174 
L 225.397403 329.965439 
L 247.137662 327.818542 
L 268.877922 324.71119 
L 290.618182 320.75638 
L 312.358442 318.643381 
L 334.098701 316.519083 
L 355.838961 314.29309 
L 377.579221 311.863707 
L 399.319481 309.140537 
L 421.05974 305.96539 
L 442.8 303.615103 
L 464.54026 300.451255 
L 486.280519 297.728085 
L 508.020779 295.197007 
L 529.761039 292.812821 
L 551.501299 289.942758 
L 573.241558 287.761963 
L 594.981818 285.400377 
L 616.722078 282.112235 
L 638.462338 280.767599 
L 660.202597 276.281714 
L 681.942857 274.631994 
L 703.683117 272.259107 
L 725.423377 269.976616 
L 747.163636 266.462485 
" style="fill:none;stroke:#d3d3d3;stroke-linecap:square;stroke-width:1.5;"/>
   </g>
   <g id="line2d_47">
    <path clip-path="url(#p8f7d41d6fd)" d="M 138.436364 351.490906 
L 160.176623 347.739486 
L 181.916883 344.846825 
L 203.657143 339.005005 
L 225.397403 336.055846 
L 247.137662 332.349624 
L 268.877922 329.287471 
L 290.618182 324.598196 
L 312.358442 318.417392 
L 334.098701 314.858064 
L 355.838961 308.609463 
L 377.579221 302.598151 
L 399.319481 298.202662 
L 421.05974 291.558581 
L 442.8 284.891901 
L 464.54026 275.95403 
L 486.280519 269.581135 
L 508.020779 263.196941 
L 529.761039 254.654551 
L 551.501299 246.292952 
L 573.241558 239.151695 
L 594.981818 228.880486 
L 616.722078 221.501939 
L 638.462338 211.965197 
L 660.202597 201.468 
L 681.942857 192.733518 
L 703.683117 182.134627 
L 725.423377 172.450991 
L 747.163636 162.835152 
" style="fill:none;stroke:#d3d3d3;stroke-linecap:square;stroke-width:1.5;"/>
   </g>
   <g id="line2d_48">
    <path clip-path="url(#p8f7d41d6fd)" d="M 138.436364 316.055806 
L 160.176623 309.242233 
L 181.916883 304.315669 
L 203.657143 300.417356 
L 225.397403 297.456898 
L 247.137662 293.999264 
L 268.877922 290.812817 
L 290.618182 287.140493 
L 312.358442 284.9032 
L 334.098701 282.338223 
L 355.838961 281.332572 
L 377.579221 278.213922 
L 399.319481 276.5755 
L 421.05974 275.151768 
L 442.8 272.665888 
L 464.54026 270.462493 
L 486.280519 268.089606 
L 508.020779 265.965309 
L 529.761039 264.0557 
L 551.501299 262.790161 
L 573.241558 259.648912 
L 594.981818 259.637613 
L 616.722078 257.750603 
L 638.462338 253.953984 
L 660.202597 253.897488 
L 681.942857 252.349461 
L 703.683117 247.908774 
L 725.423377 247.705384 
L 747.163636 247.332502 
" style="fill:none;stroke:#d62728;stroke-linecap:square;stroke-width:1.5;"/>
   </g>
   <g id="line2d_49">
    <path clip-path="url(#p8f7d41d6fd)" d="M 138.436364 320.56429 
L 160.176623 312.372183 
L 181.916883 307.807202 
L 203.657143 301.230917 
L 225.397403 293.739377 
L 247.137662 289.27609 
L 268.877922 280.824096 
L 290.618182 272.869278 
L 312.358442 263.389033 
L 334.098701 252.16867 
L 355.838961 242.733622 
L 377.579221 229.874838 
L 399.319481 213.953902 
L 421.05974 200.123365 
L 442.8 182.044231 
L 464.54026 167.321037 
L 486.280519 147.298396 
L 508.020779 131.049775 
L 529.761039 116.236183 
L 551.501299 103.12881 
L 573.241558 94.394328 
L 594.981818 85.840636 
L 616.722078 81.59204 
L 638.462338 74.846263 
L 660.202597 74.416883 
L 681.942857 71.298233 
L 703.683117 71.512921 
L 725.423377 66.665455 
L 747.163636 72.891456 
" style="fill:none;stroke:#d3d3d3;stroke-linecap:square;stroke-width:1.5;"/>
   </g>
   <g id="line2d_50">
    <path clip-path="url(#p8f7d41d6fd)" d="M 138.436364 315.852416 
L 160.176623 308.067089 
L 181.916883 303.649001 
L 203.657143 300.225266 
L 225.397403 295.965369 
L 247.137662 294.609435 
L 268.877922 290.643324 
L 290.618182 288.891909 
L 312.358442 285.185687 
L 334.098701 283.852351 
L 355.838961 282.270427 
L 377.579221 279.366466 
L 399.319481 278.089627 
L 421.05974 275.129169 
L 442.8 275.038774 
L 464.54026 271.038765 
L 486.280519 270.53029 
L 508.020779 268.677179 
L 529.761039 268.394692 
L 551.501299 266.56418 
L 573.241558 264.372085 
L 594.981818 263.02745 
L 616.722078 260.869253 
L 638.462338 259.931398 
L 660.202597 258.383373 
L 681.942857 257.276026 
L 703.683117 255.445513 
L 725.423377 254.631952 
L 747.163636 253.106525 
" style="fill:none;stroke:#9467bd;stroke-linecap:square;stroke-width:1.5;"/>
   </g>
   <g id="line2d_51">
    <path clip-path="url(#p8f7d41d6fd)" d="M 138.436364 363.174545 
L 160.176623 362.078498 
L 181.916883 361.061547 
L 203.657143 360.270586 
L 225.397403 358.632163 
L 247.137662 358.417474 
L 268.877922 356.609561 
L 290.618182 355.671706 
L 312.358442 355.129332 
L 334.098701 353.344017 
L 355.838961 352.010681 
L 377.579221 351.298815 
L 399.319481 350.598249 
L 421.05974 348.383555 
L 442.8 347.581294 
L 464.54026 345.58129 
L 486.280519 343.513489 
L 508.020779 342.812923 
L 529.761039 341.705576 
L 551.501299 340.15755 
L 573.241558 339.016304 
L 594.981818 337.0276 
L 616.722078 336.338333 
L 638.462338 333.716859 
L 660.202597 331.649058 
L 681.942857 330.191428 
L 703.683117 328.462611 
L 725.423377 327.197071 
L 747.163636 324.745089 
" style="fill:none;stroke:#d3d3d3;stroke-linecap:square;stroke-width:1.5;"/>
   </g>
   <g id="line2d_52">
    <path clip-path="url(#p8f7d41d6fd)" d="M 138.436364 313.264839 
L 160.176623 306.993641 
L 181.916883 303.321317 
L 203.657143 298.46255 
L 225.397403 295.95407 
L 247.137662 293.276099 
L 268.877922 289.750667 
L 290.618182 286.643317 
L 312.358442 284.530319 
L 334.098701 282.168732 
L 355.838961 279.332568 
L 377.579221 277.671547 
L 399.319481 276.586799 
L 421.05974 272.711086 
L 442.8 270.824076 
L 464.54026 269.185655 
L 486.280519 265.954009 
L 508.020779 264.564175 
L 529.761039 263.253439 
L 551.501299 261.106541 
L 573.241558 258.247779 
L 594.981818 256.417267 
L 616.722078 254.756246 
L 638.462338 253.389013 
L 660.202597 251.535901 
L 681.942857 249.366405 
L 703.683117 247.987871 
L 725.423377 245.999166 
L 747.163636 244.292948 
" style="fill:none;stroke:#8c564b;stroke-linecap:square;stroke-width:1.5;"/>
   </g>
   <g id="line2d_53">
    <path clip-path="url(#p8f7d41d6fd)" d="M 138.436364 321.931524 
L 160.176623 316.202698 
L 181.916883 311.739413 
L 203.657143 308.281779 
L 225.397403 305.095332 
L 247.137662 302.281767 
L 268.877922 298.191363 
L 290.618182 297.20831 
L 312.358442 293.45689 
L 334.098701 289.897561 
L 355.838961 287.592471 
L 377.579221 284.688511 
L 399.319481 281.479465 
L 421.05974 281.016187 
L 442.8 277.434259 
L 464.54026 275.264763 
L 486.280519 272.677187 
L 508.020779 268.756275 
L 529.761039 266.259094 
L 551.501299 264.948357 
L 573.241558 262.473776 
L 594.981818 259.208233 
L 616.722078 256.021785 
L 638.462338 253.502007 
L 660.202597 250.259062 
L 681.942857 246.857925 
L 703.683117 245.50199 
L 725.423377 242.247746 
L 747.163636 239.705367 
" style="fill:none;stroke:#d3d3d3;stroke-linecap:square;stroke-width:1.5;"/>
   </g>
   <g id="line2d_54">
    <path clip-path="url(#p8f7d41d6fd)" d="M 138.436364 326.338313 
L 160.176623 320.869375 
L 181.916883 316.089704 
L 203.657143 312.84676 
L 225.397403 308.86935 
L 247.137662 305.784599 
L 268.877922 303.920188 
L 290.618182 300.394758 
L 312.358442 298.100967 
L 334.098701 295.818477 
L 355.838961 292.756324 
L 377.579221 289.242193 
L 399.319481 287.524675 
L 421.05974 284.846703 
L 442.8 281.389069 
L 464.54026 278.112226 
L 486.280519 276.236516 
L 508.020779 273.422951 
L 529.761039 271.942722 
L 551.501299 268.338195 
L 573.241558 265.569828 
L 594.981818 262.677167 
L 616.722078 260.778857 
L 638.462338 257.434218 
L 660.202597 255.117829 
L 681.942857 251.97658 
L 703.683117 247.874876 
L 725.423377 244.609332 
L 747.163636 241.626276 
" style="fill:none;stroke:#d3d3d3;stroke-linecap:square;stroke-width:1.5;"/>
   </g>
   <g id="line2d_55">
    <path clip-path="url(#p8f7d41d6fd)" d="M 138.436364 316.360891 
L 160.176623 308.564265 
L 181.916883 304.439963 
L 203.657143 299.004924 
L 225.397403 294.869322 
L 247.137662 294.293049 
L 268.877922 289.637674 
L 290.618182 287.886257 
L 312.358442 284.835404 
L 334.098701 282.552913 
L 355.838961 279.298669 
L 377.579221 279.253471 
L 399.319481 277.535953 
L 421.05974 274.462502 
L 442.8 273.061368 
L 464.54026 270.462493 
L 486.280519 267.82972 
L 508.020779 267.795821 
L 529.761039 265.682823 
L 551.501299 263.332535 
L 573.241558 262.078295 
L 594.981818 260.439874 
L 616.722078 258.202582 
L 638.462338 258.055688 
L 660.202597 255.761898 
L 681.942857 254.06698 
L 703.683117 253.061328 
L 725.423377 250.733639 
L 747.163636 249.920078 
" style="fill:none;stroke:#e377c2;stroke-linecap:square;stroke-width:1.5;"/>
   </g>
   <g id="line2d_56">
    <path clip-path="url(#p8f7d41d6fd)" d="M 138.436364 318.304398 
L 160.176623 311.705514 
L 181.916883 303.795894 
L 203.657143 298.372154 
L 225.397403 293.027511 
L 247.137662 286.812809 
L 268.877922 281.592459 
L 290.618182 273.897528 
L 312.358442 267.445537 
L 334.098701 260.372077 
L 355.838961 251.355109 
L 377.579221 241.694072 
L 399.319481 231.30987 
L 421.05974 220.812673 
L 442.8 210.179883 
L 464.54026 195.174202 
L 486.280519 182.846493 
L 508.020779 169.524431 
L 529.761039 156.134573 
L 551.501299 140.936801 
L 573.241558 128.981974 
L 594.981818 114.575163 
L 616.722078 103.332201 
L 638.462338 95.332182 
L 660.202597 88.055331 
L 681.942857 82.01012 
L 703.683117 76.95926 
L 725.423377 73.094847 
L 747.163636 69.004443 
" style="fill:none;stroke:#d3d3d3;stroke-linecap:square;stroke-width:1.5;"/>
   </g>
   <g id="line2d_57">
    <path clip-path="url(#p8f7d41d6fd)" d="M 138.436364 315.219646 
L 160.176623 311.084044 
L 181.916883 303.863691 
L 203.657143 298.575545 
L 225.397403 295.197006 
L 247.137662 290.462534 
L 268.877922 285.773259 
L 290.618182 283.016191 
L 312.358442 278.688498 
L 334.098701 273.750635 
L 355.838961 269.976617 
L 377.579221 266.236495 
L 399.319481 261.626317 
L 421.05974 256.473764 
L 442.8 252.507654 
L 464.54026 246.033064 
L 486.280519 240.767517 
L 508.020779 235.592365 
L 529.761039 229.705347 
L 551.501299 223.185559 
L 573.241558 216.586675 
L 594.981818 209.931295 
L 616.722078 202.112069 
L 638.462338 194.066855 
L 660.202597 185.727855 
L 681.942857 178.688292 
L 703.683117 170.224998 
L 725.423377 160.326672 
L 747.163636 153.07242 
" style="fill:none;stroke:#d3d3d3;stroke-linecap:square;stroke-width:1.5;"/>
   </g>
   <g id="patch_3">
    <path d="M 108 378 
L 108 51.84 
" style="fill:none;stroke:#000000;stroke-linecap:square;stroke-linejoin:miter;stroke-width:0.8;"/>
   </g>
   <g id="patch_4">
    <path d="M 777.6 378 
L 777.6 51.84 
" style="fill:none;stroke:#000000;stroke-linecap:square;stroke-linejoin:miter;stroke-width:0.8;"/>
   </g>
   <g id="patch_5">
    <path d="M 108 378 
L 777.6 378 
" style="fill:none;stroke:#000000;stroke-linecap:square;stroke-linejoin:miter;stroke-width:0.8;"/>
   </g>
   <g id="patch_6">
    <path d="M 108 51.84 
L 777.6 51.84 
" style="fill:none;stroke:#000000;stroke-linecap:square;stroke-linejoin:miter;stroke-width:0.8;"/>
   </g>
   <g id="text_17">
    <!-- Training Accuracy over 30 epochs -->
    <defs>
     <path d="M 2.984375 54.6875 
L 12.5 54.6875 
L 29.59375 8.796875 
L 46.6875 54.6875 
L 56.203125 54.6875 
L 35.6875 0 
L 23.484375 0 
z
" id="DejaVuSans-76"/>
     <path d="M 44.28125 53.078125 
L 44.28125 44.578125 
Q 40.484375 46.53125 36.375 47.5 
Q 32.28125 48.484375 27.875 48.484375 
Q 21.1875 48.484375 17.84375 46.4375 
Q 14.5 44.390625 14.5 40.28125 
Q 14.5 37.15625 16.890625 35.375 
Q 19.28125 33.59375 26.515625 31.984375 
L 29.59375 31.296875 
Q 39.15625 29.25 43.1875 25.515625 
Q 47.21875 21.78125 47.21875 15.09375 
Q 47.21875 7.46875 41.1875 3.015625 
Q 35.15625 -1.421875 24.609375 -1.421875 
Q 20.21875 -1.421875 15.453125 -0.5625 
Q 10.6875 0.296875 5.421875 2 
L 5.421875 11.28125 
Q 10.40625 8.6875 15.234375 7.390625 
Q 20.0625 6.109375 24.8125 6.109375 
Q 31.15625 6.109375 34.5625 8.28125 
Q 37.984375 10.453125 37.984375 14.40625 
Q 37.984375 18.0625 35.515625 20.015625 
Q 33.0625 21.96875 24.703125 23.78125 
L 21.578125 24.515625 
Q 13.234375 26.265625 9.515625 29.90625 
Q 5.8125 33.546875 5.8125 39.890625 
Q 5.8125 47.609375 11.28125 51.796875 
Q 16.75 56 26.8125 56 
Q 31.78125 56 36.171875 55.265625 
Q 40.578125 54.546875 44.28125 53.078125 
" id="DejaVuSans-73"/>
    </defs>
    <g transform="translate(340.716563 45.84)scale(0.12 -0.12)">
     <use xlink:href="#DejaVuSans-54"/>
     <use x="60.865234" xlink:href="#DejaVuSans-72"/>
     <use x="101.978516" xlink:href="#DejaVuSans-61"/>
     <use x="163.257812" xlink:href="#DejaVuSans-69"/>
     <use x="191.041016" xlink:href="#DejaVuSans-6e"/>
     <use x="254.419922" xlink:href="#DejaVuSans-69"/>
     <use x="282.203125" xlink:href="#DejaVuSans-6e"/>
     <use x="345.582031" xlink:href="#DejaVuSans-67"/>
     <use x="409.058594" xlink:href="#DejaVuSans-20"/>
     <use x="440.845703" xlink:href="#DejaVuSans-41"/>
     <use x="509.238281" xlink:href="#DejaVuSans-63"/>
     <use x="564.21875" xlink:href="#DejaVuSans-63"/>
     <use x="619.199219" xlink:href="#DejaVuSans-75"/>
     <use x="682.578125" xlink:href="#DejaVuSans-72"/>
     <use x="723.691406" xlink:href="#DejaVuSans-61"/>
     <use x="784.970703" xlink:href="#DejaVuSans-63"/>
     <use x="839.951172" xlink:href="#DejaVuSans-79"/>
     <use x="899.130859" xlink:href="#DejaVuSans-20"/>
     <use x="930.917969" xlink:href="#DejaVuSans-6f"/>
     <use x="992.099609" xlink:href="#DejaVuSans-76"/>
     <use x="1051.279297" xlink:href="#DejaVuSans-65"/>
     <use x="1112.802734" xlink:href="#DejaVuSans-72"/>
     <use x="1153.916016" xlink:href="#DejaVuSans-20"/>
     <use x="1185.703125" xlink:href="#DejaVuSans-33"/>
     <use x="1249.326172" xlink:href="#DejaVuSans-30"/>
     <use x="1312.949219" xlink:href="#DejaVuSans-20"/>
     <use x="1344.736328" xlink:href="#DejaVuSans-65"/>
     <use x="1406.259766" xlink:href="#DejaVuSans-70"/>
     <use x="1469.736328" xlink:href="#DejaVuSans-6f"/>
     <use x="1530.917969" xlink:href="#DejaVuSans-63"/>
     <use x="1585.898438" xlink:href="#DejaVuSans-68"/>
     <use x="1649.277344" xlink:href="#DejaVuSans-73"/>
    </g>
   </g>
   <g id="legend_1">
    <g id="patch_7">
     <path d="M 115 162.586875 
L 298.595312 162.586875 
Q 300.595312 162.586875 300.595312 160.586875 
L 300.595312 58.84 
Q 300.595312 56.84 298.595312 56.84 
L 115 56.84 
Q 113 56.84 113 58.84 
L 113 160.586875 
Q 113 162.586875 115 162.586875 
z
" style="fill:#ffffff;opacity:0.8;stroke:#cccccc;stroke-linejoin:miter;"/>
    </g>
    <g id="line2d_58">
     <path d="M 117 64.938437 
L 137 64.938437 
" style="fill:none;stroke:#1f77b4;stroke-linecap:square;stroke-width:1.5;"/>
    </g>
    <g id="line2d_59"/>
    <g id="text_18">
     <!-- state size: 358, num steps: 60 -->
     <defs>
      <path d="M 18.3125 70.21875 
L 18.3125 54.6875 
L 36.8125 54.6875 
L 36.8125 47.703125 
L 18.3125 47.703125 
L 18.3125 18.015625 
Q 18.3125 11.328125 20.140625 9.421875 
Q 21.96875 7.515625 27.59375 7.515625 
L 36.8125 7.515625 
L 36.8125 0 
L 27.59375 0 
Q 17.1875 0 13.234375 3.875 
Q 9.28125 7.765625 9.28125 18.015625 
L 9.28125 47.703125 
L 2.6875 47.703125 
L 2.6875 54.6875 
L 9.28125 54.6875 
L 9.28125 70.21875 
z
" id="DejaVuSans-74"/>
      <path d="M 5.515625 54.6875 
L 48.1875 54.6875 
L 48.1875 46.484375 
L 14.40625 7.171875 
L 48.1875 7.171875 
L 48.1875 0 
L 4.296875 0 
L 4.296875 8.203125 
L 38.09375 47.515625 
L 5.515625 47.515625 
z
" id="DejaVuSans-7a"/>
      <path d="M 11.71875 12.40625 
L 22.015625 12.40625 
L 22.015625 0 
L 11.71875 0 
z
M 11.71875 51.703125 
L 22.015625 51.703125 
L 22.015625 39.3125 
L 11.71875 39.3125 
z
" id="DejaVuSans-3a"/>
      <path d="M 11.71875 12.40625 
L 22.015625 12.40625 
L 22.015625 4 
L 14.015625 -11.625 
L 7.71875 -11.625 
L 11.71875 4 
z
" id="DejaVuSans-2c"/>
     </defs>
     <g transform="translate(145 68.438437)scale(0.1 -0.1)">
      <use xlink:href="#DejaVuSans-73"/>
      <use x="52.099609" xlink:href="#DejaVuSans-74"/>
      <use x="91.308594" xlink:href="#DejaVuSans-61"/>
      <use x="152.587891" xlink:href="#DejaVuSans-74"/>
      <use x="191.796875" xlink:href="#DejaVuSans-65"/>
      <use x="253.320312" xlink:href="#DejaVuSans-20"/>
      <use x="285.107422" xlink:href="#DejaVuSans-73"/>
      <use x="337.207031" xlink:href="#DejaVuSans-69"/>
      <use x="364.990234" xlink:href="#DejaVuSans-7a"/>
      <use x="417.480469" xlink:href="#DejaVuSans-65"/>
      <use x="479.003906" xlink:href="#DejaVuSans-3a"/>
      <use x="512.695312" xlink:href="#DejaVuSans-20"/>
      <use x="544.482422" xlink:href="#DejaVuSans-33"/>
      <use x="608.105469" xlink:href="#DejaVuSans-35"/>
      <use x="671.728516" xlink:href="#DejaVuSans-38"/>
      <use x="735.351562" xlink:href="#DejaVuSans-2c"/>
      <use x="767.138672" xlink:href="#DejaVuSans-20"/>
      <use x="798.925781" xlink:href="#DejaVuSans-6e"/>
      <use x="862.304688" xlink:href="#DejaVuSans-75"/>
      <use x="925.683594" xlink:href="#DejaVuSans-6d"/>
      <use x="1023.095703" xlink:href="#DejaVuSans-20"/>
      <use x="1054.882812" xlink:href="#DejaVuSans-73"/>
      <use x="1106.982422" xlink:href="#DejaVuSans-74"/>
      <use x="1146.191406" xlink:href="#DejaVuSans-65"/>
      <use x="1207.714844" xlink:href="#DejaVuSans-70"/>
      <use x="1271.191406" xlink:href="#DejaVuSans-73"/>
      <use x="1323.291016" xlink:href="#DejaVuSans-3a"/>
      <use x="1356.982422" xlink:href="#DejaVuSans-20"/>
      <use x="1388.769531" xlink:href="#DejaVuSans-36"/>
      <use x="1452.392578" xlink:href="#DejaVuSans-30"/>
     </g>
    </g>
    <g id="line2d_60">
     <path d="M 117 79.616562 
L 137 79.616562 
" style="fill:none;stroke:#ff7f0e;stroke-linecap:square;stroke-width:1.5;"/>
    </g>
    <g id="line2d_61"/>
    <g id="text_19">
     <!-- state size: 342, num steps: 60 -->
     <g transform="translate(145 83.116562)scale(0.1 -0.1)">
      <use xlink:href="#DejaVuSans-73"/>
      <use x="52.099609" xlink:href="#DejaVuSans-74"/>
      <use x="91.308594" xlink:href="#DejaVuSans-61"/>
      <use x="152.587891" xlink:href="#DejaVuSans-74"/>
      <use x="191.796875" xlink:href="#DejaVuSans-65"/>
      <use x="253.320312" xlink:href="#DejaVuSans-20"/>
      <use x="285.107422" xlink:href="#DejaVuSans-73"/>
      <use x="337.207031" xlink:href="#DejaVuSans-69"/>
      <use x="364.990234" xlink:href="#DejaVuSans-7a"/>
      <use x="417.480469" xlink:href="#DejaVuSans-65"/>
      <use x="479.003906" xlink:href="#DejaVuSans-3a"/>
      <use x="512.695312" xlink:href="#DejaVuSans-20"/>
      <use x="544.482422" xlink:href="#DejaVuSans-33"/>
      <use x="608.105469" xlink:href="#DejaVuSans-34"/>
      <use x="671.728516" xlink:href="#DejaVuSans-32"/>
      <use x="735.351562" xlink:href="#DejaVuSans-2c"/>
      <use x="767.138672" xlink:href="#DejaVuSans-20"/>
      <use x="798.925781" xlink:href="#DejaVuSans-6e"/>
      <use x="862.304688" xlink:href="#DejaVuSans-75"/>
      <use x="925.683594" xlink:href="#DejaVuSans-6d"/>
      <use x="1023.095703" xlink:href="#DejaVuSans-20"/>
      <use x="1054.882812" xlink:href="#DejaVuSans-73"/>
      <use x="1106.982422" xlink:href="#DejaVuSans-74"/>
      <use x="1146.191406" xlink:href="#DejaVuSans-65"/>
      <use x="1207.714844" xlink:href="#DejaVuSans-70"/>
      <use x="1271.191406" xlink:href="#DejaVuSans-73"/>
      <use x="1323.291016" xlink:href="#DejaVuSans-3a"/>
      <use x="1356.982422" xlink:href="#DejaVuSans-20"/>
      <use x="1388.769531" xlink:href="#DejaVuSans-36"/>
      <use x="1452.392578" xlink:href="#DejaVuSans-30"/>
     </g>
    </g>
    <g id="line2d_62">
     <path d="M 117 94.294687 
L 137 94.294687 
" style="fill:none;stroke:#2ca02c;stroke-linecap:square;stroke-width:1.5;"/>
    </g>
    <g id="line2d_63"/>
    <g id="text_20">
     <!-- state size: 359, num steps: 60 -->
     <g transform="translate(145 97.794687)scale(0.1 -0.1)">
      <use xlink:href="#DejaVuSans-73"/>
      <use x="52.099609" xlink:href="#DejaVuSans-74"/>
      <use x="91.308594" xlink:href="#DejaVuSans-61"/>
      <use x="152.587891" xlink:href="#DejaVuSans-74"/>
      <use x="191.796875" xlink:href="#DejaVuSans-65"/>
      <use x="253.320312" xlink:href="#DejaVuSans-20"/>
      <use x="285.107422" xlink:href="#DejaVuSans-73"/>
      <use x="337.207031" xlink:href="#DejaVuSans-69"/>
      <use x="364.990234" xlink:href="#DejaVuSans-7a"/>
      <use x="417.480469" xlink:href="#DejaVuSans-65"/>
      <use x="479.003906" xlink:href="#DejaVuSans-3a"/>
      <use x="512.695312" xlink:href="#DejaVuSans-20"/>
      <use x="544.482422" xlink:href="#DejaVuSans-33"/>
      <use x="608.105469" xlink:href="#DejaVuSans-35"/>
      <use x="671.728516" xlink:href="#DejaVuSans-39"/>
      <use x="735.351562" xlink:href="#DejaVuSans-2c"/>
      <use x="767.138672" xlink:href="#DejaVuSans-20"/>
      <use x="798.925781" xlink:href="#DejaVuSans-6e"/>
      <use x="862.304688" xlink:href="#DejaVuSans-75"/>
      <use x="925.683594" xlink:href="#DejaVuSans-6d"/>
      <use x="1023.095703" xlink:href="#DejaVuSans-20"/>
      <use x="1054.882812" xlink:href="#DejaVuSans-73"/>
      <use x="1106.982422" xlink:href="#DejaVuSans-74"/>
      <use x="1146.191406" xlink:href="#DejaVuSans-65"/>
      <use x="1207.714844" xlink:href="#DejaVuSans-70"/>
      <use x="1271.191406" xlink:href="#DejaVuSans-73"/>
      <use x="1323.291016" xlink:href="#DejaVuSans-3a"/>
      <use x="1356.982422" xlink:href="#DejaVuSans-20"/>
      <use x="1388.769531" xlink:href="#DejaVuSans-36"/>
      <use x="1452.392578" xlink:href="#DejaVuSans-30"/>
     </g>
    </g>
    <g id="line2d_64">
     <path d="M 117 108.972812 
L 137 108.972812 
" style="fill:none;stroke:#d62728;stroke-linecap:square;stroke-width:1.5;"/>
    </g>
    <g id="line2d_65"/>
    <g id="text_21">
     <!-- state size: 350, num steps: 60 -->
     <g transform="translate(145 112.472812)scale(0.1 -0.1)">
      <use xlink:href="#DejaVuSans-73"/>
      <use x="52.099609" xlink:href="#DejaVuSans-74"/>
      <use x="91.308594" xlink:href="#DejaVuSans-61"/>
      <use x="152.587891" xlink:href="#DejaVuSans-74"/>
      <use x="191.796875" xlink:href="#DejaVuSans-65"/>
      <use x="253.320312" xlink:href="#DejaVuSans-20"/>
      <use x="285.107422" xlink:href="#DejaVuSans-73"/>
      <use x="337.207031" xlink:href="#DejaVuSans-69"/>
      <use x="364.990234" xlink:href="#DejaVuSans-7a"/>
      <use x="417.480469" xlink:href="#DejaVuSans-65"/>
      <use x="479.003906" xlink:href="#DejaVuSans-3a"/>
      <use x="512.695312" xlink:href="#DejaVuSans-20"/>
      <use x="544.482422" xlink:href="#DejaVuSans-33"/>
      <use x="608.105469" xlink:href="#DejaVuSans-35"/>
      <use x="671.728516" xlink:href="#DejaVuSans-30"/>
      <use x="735.351562" xlink:href="#DejaVuSans-2c"/>
      <use x="767.138672" xlink:href="#DejaVuSans-20"/>
      <use x="798.925781" xlink:href="#DejaVuSans-6e"/>
      <use x="862.304688" xlink:href="#DejaVuSans-75"/>
      <use x="925.683594" xlink:href="#DejaVuSans-6d"/>
      <use x="1023.095703" xlink:href="#DejaVuSans-20"/>
      <use x="1054.882812" xlink:href="#DejaVuSans-73"/>
      <use x="1106.982422" xlink:href="#DejaVuSans-74"/>
      <use x="1146.191406" xlink:href="#DejaVuSans-65"/>
      <use x="1207.714844" xlink:href="#DejaVuSans-70"/>
      <use x="1271.191406" xlink:href="#DejaVuSans-73"/>
      <use x="1323.291016" xlink:href="#DejaVuSans-3a"/>
      <use x="1356.982422" xlink:href="#DejaVuSans-20"/>
      <use x="1388.769531" xlink:href="#DejaVuSans-36"/>
      <use x="1452.392578" xlink:href="#DejaVuSans-30"/>
     </g>
    </g>
    <g id="line2d_66">
     <path d="M 117 123.650937 
L 137 123.650937 
" style="fill:none;stroke:#9467bd;stroke-linecap:square;stroke-width:1.5;"/>
    </g>
    <g id="line2d_67"/>
    <g id="text_22">
     <!-- state size: 288, num steps: 60 -->
     <g transform="translate(145 127.150937)scale(0.1 -0.1)">
      <use xlink:href="#DejaVuSans-73"/>
      <use x="52.099609" xlink:href="#DejaVuSans-74"/>
      <use x="91.308594" xlink:href="#DejaVuSans-61"/>
      <use x="152.587891" xlink:href="#DejaVuSans-74"/>
      <use x="191.796875" xlink:href="#DejaVuSans-65"/>
      <use x="253.320312" xlink:href="#DejaVuSans-20"/>
      <use x="285.107422" xlink:href="#DejaVuSans-73"/>
      <use x="337.207031" xlink:href="#DejaVuSans-69"/>
      <use x="364.990234" xlink:href="#DejaVuSans-7a"/>
      <use x="417.480469" xlink:href="#DejaVuSans-65"/>
      <use x="479.003906" xlink:href="#DejaVuSans-3a"/>
      <use x="512.695312" xlink:href="#DejaVuSans-20"/>
      <use x="544.482422" xlink:href="#DejaVuSans-32"/>
      <use x="608.105469" xlink:href="#DejaVuSans-38"/>
      <use x="671.728516" xlink:href="#DejaVuSans-38"/>
      <use x="735.351562" xlink:href="#DejaVuSans-2c"/>
      <use x="767.138672" xlink:href="#DejaVuSans-20"/>
      <use x="798.925781" xlink:href="#DejaVuSans-6e"/>
      <use x="862.304688" xlink:href="#DejaVuSans-75"/>
      <use x="925.683594" xlink:href="#DejaVuSans-6d"/>
      <use x="1023.095703" xlink:href="#DejaVuSans-20"/>
      <use x="1054.882812" xlink:href="#DejaVuSans-73"/>
      <use x="1106.982422" xlink:href="#DejaVuSans-74"/>
      <use x="1146.191406" xlink:href="#DejaVuSans-65"/>
      <use x="1207.714844" xlink:href="#DejaVuSans-70"/>
      <use x="1271.191406" xlink:href="#DejaVuSans-73"/>
      <use x="1323.291016" xlink:href="#DejaVuSans-3a"/>
      <use x="1356.982422" xlink:href="#DejaVuSans-20"/>
      <use x="1388.769531" xlink:href="#DejaVuSans-36"/>
      <use x="1452.392578" xlink:href="#DejaVuSans-30"/>
     </g>
    </g>
    <g id="line2d_68">
     <path d="M 117 138.329062 
L 137 138.329062 
" style="fill:none;stroke:#8c564b;stroke-linecap:square;stroke-width:1.5;"/>
    </g>
    <g id="line2d_69"/>
    <g id="text_23">
     <!-- state size: 361, num steps: 60 -->
     <g transform="translate(145 141.829062)scale(0.1 -0.1)">
      <use xlink:href="#DejaVuSans-73"/>
      <use x="52.099609" xlink:href="#DejaVuSans-74"/>
      <use x="91.308594" xlink:href="#DejaVuSans-61"/>
      <use x="152.587891" xlink:href="#DejaVuSans-74"/>
      <use x="191.796875" xlink:href="#DejaVuSans-65"/>
      <use x="253.320312" xlink:href="#DejaVuSans-20"/>
      <use x="285.107422" xlink:href="#DejaVuSans-73"/>
      <use x="337.207031" xlink:href="#DejaVuSans-69"/>
      <use x="364.990234" xlink:href="#DejaVuSans-7a"/>
      <use x="417.480469" xlink:href="#DejaVuSans-65"/>
      <use x="479.003906" xlink:href="#DejaVuSans-3a"/>
      <use x="512.695312" xlink:href="#DejaVuSans-20"/>
      <use x="544.482422" xlink:href="#DejaVuSans-33"/>
      <use x="608.105469" xlink:href="#DejaVuSans-36"/>
      <use x="671.728516" xlink:href="#DejaVuSans-31"/>
      <use x="735.351562" xlink:href="#DejaVuSans-2c"/>
      <use x="767.138672" xlink:href="#DejaVuSans-20"/>
      <use x="798.925781" xlink:href="#DejaVuSans-6e"/>
      <use x="862.304688" xlink:href="#DejaVuSans-75"/>
      <use x="925.683594" xlink:href="#DejaVuSans-6d"/>
      <use x="1023.095703" xlink:href="#DejaVuSans-20"/>
      <use x="1054.882812" xlink:href="#DejaVuSans-73"/>
      <use x="1106.982422" xlink:href="#DejaVuSans-74"/>
      <use x="1146.191406" xlink:href="#DejaVuSans-65"/>
      <use x="1207.714844" xlink:href="#DejaVuSans-70"/>
      <use x="1271.191406" xlink:href="#DejaVuSans-73"/>
      <use x="1323.291016" xlink:href="#DejaVuSans-3a"/>
      <use x="1356.982422" xlink:href="#DejaVuSans-20"/>
      <use x="1388.769531" xlink:href="#DejaVuSans-36"/>
      <use x="1452.392578" xlink:href="#DejaVuSans-30"/>
     </g>
    </g>
    <g id="line2d_70">
     <path d="M 117 153.007187 
L 137 153.007187 
" style="fill:none;stroke:#e377c2;stroke-linecap:square;stroke-width:1.5;"/>
    </g>
    <g id="line2d_71"/>
    <g id="text_24">
     <!-- state size: 328, num steps: 60 -->
     <g transform="translate(145 156.507187)scale(0.1 -0.1)">
      <use xlink:href="#DejaVuSans-73"/>
      <use x="52.099609" xlink:href="#DejaVuSans-74"/>
      <use x="91.308594" xlink:href="#DejaVuSans-61"/>
      <use x="152.587891" xlink:href="#DejaVuSans-74"/>
      <use x="191.796875" xlink:href="#DejaVuSans-65"/>
      <use x="253.320312" xlink:href="#DejaVuSans-20"/>
      <use x="285.107422" xlink:href="#DejaVuSans-73"/>
      <use x="337.207031" xlink:href="#DejaVuSans-69"/>
      <use x="364.990234" xlink:href="#DejaVuSans-7a"/>
      <use x="417.480469" xlink:href="#DejaVuSans-65"/>
      <use x="479.003906" xlink:href="#DejaVuSans-3a"/>
      <use x="512.695312" xlink:href="#DejaVuSans-20"/>
      <use x="544.482422" xlink:href="#DejaVuSans-33"/>
      <use x="608.105469" xlink:href="#DejaVuSans-32"/>
      <use x="671.728516" xlink:href="#DejaVuSans-38"/>
      <use x="735.351562" xlink:href="#DejaVuSans-2c"/>
      <use x="767.138672" xlink:href="#DejaVuSans-20"/>
      <use x="798.925781" xlink:href="#DejaVuSans-6e"/>
      <use x="862.304688" xlink:href="#DejaVuSans-75"/>
      <use x="925.683594" xlink:href="#DejaVuSans-6d"/>
      <use x="1023.095703" xlink:href="#DejaVuSans-20"/>
      <use x="1054.882812" xlink:href="#DejaVuSans-73"/>
      <use x="1106.982422" xlink:href="#DejaVuSans-74"/>
      <use x="1146.191406" xlink:href="#DejaVuSans-65"/>
      <use x="1207.714844" xlink:href="#DejaVuSans-70"/>
      <use x="1271.191406" xlink:href="#DejaVuSans-73"/>
      <use x="1323.291016" xlink:href="#DejaVuSans-3a"/>
      <use x="1356.982422" xlink:href="#DejaVuSans-20"/>
      <use x="1388.769531" xlink:href="#DejaVuSans-36"/>
      <use x="1452.392578" xlink:href="#DejaVuSans-30"/>
     </g>
    </g>
   </g>
  </g>
 </g>
 <defs>
  <clipPath id="p8f7d41d6fd">
   <rect height="326.16" width="669.6" x="108" y="51.84"/>
  </clipPath>
 </defs>
</svg>
