<?xml version="1.0" encoding="utf-8" standalone="no"?>
<!DOCTYPE svg PUBLIC "-//W3C//DTD SVG 1.1//EN"
  "http://www.w3.org/Graphics/SVG/1.1/DTD/svg11.dtd">
<!-- Created with matplotlib (http://matplotlib.org/) -->
<svg height="432pt" version="1.1" viewBox="0 0 864 432" width="864pt" xmlns="http://www.w3.org/2000/svg" xmlns:xlink="http://www.w3.org/1999/xlink">
 <defs>
  <style type="text/css">
*{stroke-linecap:butt;stroke-linejoin:round;}
  </style>
 </defs>
 <g id="figure_1">
  <g id="patch_1">
   <path d="M 0 432 
L 864 432 
L 864 0 
L 0 0 
z
" style="fill:#ffffff;"/>
  </g>
  <g id="axes_1">
   <g id="patch_2">
    <path d="M 108 378 
L 777.6 378 
L 777.6 51.84 
L 108 51.84 
z
" style="fill:#ffffff;"/>
   </g>
   <g id="matplotlib.axis_1">
    <g id="xtick_1">
     <g id="line2d_1">
      <path clip-path="url(#p729decfa53)" d="M 119.990083 378 
L 119.990083 51.84 
" style="fill:none;stroke:#b0b0b0;stroke-linecap:square;stroke-width:0.8;"/>
     </g>
     <g id="line2d_2">
      <defs>
       <path d="M 0 0 
L 0 3.5 
" id="m7fa42721dc" style="stroke:#000000;stroke-width:0.8;"/>
      </defs>
      <g>
       <use style="stroke:#000000;stroke-width:0.8;" x="119.990083" xlink:href="#m7fa42721dc" y="378"/>
      </g>
     </g>
     <g id="text_1">
      <!-- 0 -->
      <defs>
       <path d="M 31.78125 66.40625 
Q 24.171875 66.40625 20.328125 58.90625 
Q 16.5 51.421875 16.5 36.375 
Q 16.5 21.390625 20.328125 13.890625 
Q 24.171875 6.390625 31.78125 6.390625 
Q 39.453125 6.390625 43.28125 13.890625 
Q 47.125 21.390625 47.125 36.375 
Q 47.125 51.421875 43.28125 58.90625 
Q 39.453125 66.40625 31.78125 66.40625 
M 31.78125 74.21875 
Q 44.046875 74.21875 50.515625 64.515625 
Q 56.984375 54.828125 56.984375 36.375 
Q 56.984375 17.96875 50.515625 8.265625 
Q 44.046875 -1.421875 31.78125 -1.421875 
Q 19.53125 -1.421875 13.0625 8.265625 
Q 6.59375 17.96875 6.59375 36.375 
Q 6.59375 54.828125 13.0625 64.515625 
Q 19.53125 74.21875 31.78125 74.21875 
" id="DejaVuSans-30"/>
      </defs>
      <g transform="translate(116.808833 392.598437)scale(0.1 -0.1)">
       <use xlink:href="#DejaVuSans-30"/>
      </g>
     </g>
    </g>
    <g id="xtick_2">
     <g id="line2d_3">
      <path clip-path="url(#p729decfa53)" d="M 212.221488 378 
L 212.221488 51.84 
" style="fill:none;stroke:#b0b0b0;stroke-linecap:square;stroke-width:0.8;"/>
     </g>
     <g id="line2d_4">
      <g>
       <use style="stroke:#000000;stroke-width:0.8;" x="212.221488" xlink:href="#m7fa42721dc" y="378"/>
      </g>
     </g>
     <g id="text_2">
      <!-- 5 -->
      <defs>
       <path d="M 10.796875 72.90625 
L 49.515625 72.90625 
L 49.515625 64.59375 
L 19.828125 64.59375 
L 19.828125 46.734375 
Q 21.96875 47.46875 24.109375 47.828125 
Q 26.265625 48.1875 28.421875 48.1875 
Q 40.625 48.1875 47.75 41.5 
Q 54.890625 34.8125 54.890625 23.390625 
Q 54.890625 11.625 47.5625 5.09375 
Q 40.234375 -1.421875 26.90625 -1.421875 
Q 22.3125 -1.421875 17.546875 -0.640625 
Q 12.796875 0.140625 7.71875 1.703125 
L 7.71875 11.625 
Q 12.109375 9.234375 16.796875 8.0625 
Q 21.484375 6.890625 26.703125 6.890625 
Q 35.15625 6.890625 40.078125 11.328125 
Q 45.015625 15.765625 45.015625 23.390625 
Q 45.015625 31 40.078125 35.4375 
Q 35.15625 39.890625 26.703125 39.890625 
Q 22.75 39.890625 18.8125 39.015625 
Q 14.890625 38.140625 10.796875 36.28125 
z
" id="DejaVuSans-35"/>
      </defs>
      <g transform="translate(209.040238 392.598437)scale(0.1 -0.1)">
       <use xlink:href="#DejaVuSans-35"/>
      </g>
     </g>
    </g>
    <g id="xtick_3">
     <g id="line2d_5">
      <path clip-path="url(#p729decfa53)" d="M 304.452893 378 
L 304.452893 51.84 
" style="fill:none;stroke:#b0b0b0;stroke-linecap:square;stroke-width:0.8;"/>
     </g>
     <g id="line2d_6">
      <g>
       <use style="stroke:#000000;stroke-width:0.8;" x="304.452893" xlink:href="#m7fa42721dc" y="378"/>
      </g>
     </g>
     <g id="text_3">
      <!-- 10 -->
      <defs>
       <path d="M 12.40625 8.296875 
L 28.515625 8.296875 
L 28.515625 63.921875 
L 10.984375 60.40625 
L 10.984375 69.390625 
L 28.421875 72.90625 
L 38.28125 72.90625 
L 38.28125 8.296875 
L 54.390625 8.296875 
L 54.390625 0 
L 12.40625 0 
z
" id="DejaVuSans-31"/>
      </defs>
      <g transform="translate(298.090393 392.598437)scale(0.1 -0.1)">
       <use xlink:href="#DejaVuSans-31"/>
       <use x="63.623047" xlink:href="#DejaVuSans-30"/>
      </g>
     </g>
    </g>
    <g id="xtick_4">
     <g id="line2d_7">
      <path clip-path="url(#p729decfa53)" d="M 396.684298 378 
L 396.684298 51.84 
" style="fill:none;stroke:#b0b0b0;stroke-linecap:square;stroke-width:0.8;"/>
     </g>
     <g id="line2d_8">
      <g>
       <use style="stroke:#000000;stroke-width:0.8;" x="396.684298" xlink:href="#m7fa42721dc" y="378"/>
      </g>
     </g>
     <g id="text_4">
      <!-- 15 -->
      <g transform="translate(390.321798 392.598437)scale(0.1 -0.1)">
       <use xlink:href="#DejaVuSans-31"/>
       <use x="63.623047" xlink:href="#DejaVuSans-35"/>
      </g>
     </g>
    </g>
    <g id="xtick_5">
     <g id="line2d_9">
      <path clip-path="url(#p729decfa53)" d="M 488.915702 378 
L 488.915702 51.84 
" style="fill:none;stroke:#b0b0b0;stroke-linecap:square;stroke-width:0.8;"/>
     </g>
     <g id="line2d_10">
      <g>
       <use style="stroke:#000000;stroke-width:0.8;" x="488.915702" xlink:href="#m7fa42721dc" y="378"/>
      </g>
     </g>
     <g id="text_5">
      <!-- 20 -->
      <defs>
       <path d="M 19.1875 8.296875 
L 53.609375 8.296875 
L 53.609375 0 
L 7.328125 0 
L 7.328125 8.296875 
Q 12.9375 14.109375 22.625 23.890625 
Q 32.328125 33.6875 34.8125 36.53125 
Q 39.546875 41.84375 41.421875 45.53125 
Q 43.3125 49.21875 43.3125 52.78125 
Q 43.3125 58.59375 39.234375 62.25 
Q 35.15625 65.921875 28.609375 65.921875 
Q 23.96875 65.921875 18.8125 64.3125 
Q 13.671875 62.703125 7.8125 59.421875 
L 7.8125 69.390625 
Q 13.765625 71.78125 18.9375 73 
Q 24.125 74.21875 28.421875 74.21875 
Q 39.75 74.21875 46.484375 68.546875 
Q 53.21875 62.890625 53.21875 53.421875 
Q 53.21875 48.921875 51.53125 44.890625 
Q 49.859375 40.875 45.40625 35.40625 
Q 44.1875 33.984375 37.640625 27.21875 
Q 31.109375 20.453125 19.1875 8.296875 
" id="DejaVuSans-32"/>
      </defs>
      <g transform="translate(482.553202 392.598437)scale(0.1 -0.1)">
       <use xlink:href="#DejaVuSans-32"/>
       <use x="63.623047" xlink:href="#DejaVuSans-30"/>
      </g>
     </g>
    </g>
    <g id="xtick_6">
     <g id="line2d_11">
      <path clip-path="url(#p729decfa53)" d="M 581.147107 378 
L 581.147107 51.84 
" style="fill:none;stroke:#b0b0b0;stroke-linecap:square;stroke-width:0.8;"/>
     </g>
     <g id="line2d_12">
      <g>
       <use style="stroke:#000000;stroke-width:0.8;" x="581.147107" xlink:href="#m7fa42721dc" y="378"/>
      </g>
     </g>
     <g id="text_6">
      <!-- 25 -->
      <g transform="translate(574.784607 392.598437)scale(0.1 -0.1)">
       <use xlink:href="#DejaVuSans-32"/>
       <use x="63.623047" xlink:href="#DejaVuSans-35"/>
      </g>
     </g>
    </g>
    <g id="xtick_7">
     <g id="line2d_13">
      <path clip-path="url(#p729decfa53)" d="M 673.378512 378 
L 673.378512 51.84 
" style="fill:none;stroke:#b0b0b0;stroke-linecap:square;stroke-width:0.8;"/>
     </g>
     <g id="line2d_14">
      <g>
       <use style="stroke:#000000;stroke-width:0.8;" x="673.378512" xlink:href="#m7fa42721dc" y="378"/>
      </g>
     </g>
     <g id="text_7">
      <!-- 30 -->
      <defs>
       <path d="M 40.578125 39.3125 
Q 47.65625 37.796875 51.625 33 
Q 55.609375 28.21875 55.609375 21.1875 
Q 55.609375 10.40625 48.1875 4.484375 
Q 40.765625 -1.421875 27.09375 -1.421875 
Q 22.515625 -1.421875 17.65625 -0.515625 
Q 12.796875 0.390625 7.625 2.203125 
L 7.625 11.71875 
Q 11.71875 9.328125 16.59375 8.109375 
Q 21.484375 6.890625 26.8125 6.890625 
Q 36.078125 6.890625 40.9375 10.546875 
Q 45.796875 14.203125 45.796875 21.1875 
Q 45.796875 27.640625 41.28125 31.265625 
Q 36.765625 34.90625 28.71875 34.90625 
L 20.21875 34.90625 
L 20.21875 43.015625 
L 29.109375 43.015625 
Q 36.375 43.015625 40.234375 45.921875 
Q 44.09375 48.828125 44.09375 54.296875 
Q 44.09375 59.90625 40.109375 62.90625 
Q 36.140625 65.921875 28.71875 65.921875 
Q 24.65625 65.921875 20.015625 65.03125 
Q 15.375 64.15625 9.8125 62.3125 
L 9.8125 71.09375 
Q 15.4375 72.65625 20.34375 73.4375 
Q 25.25 74.21875 29.59375 74.21875 
Q 40.828125 74.21875 47.359375 69.109375 
Q 53.90625 64.015625 53.90625 55.328125 
Q 53.90625 49.265625 50.4375 45.09375 
Q 46.96875 40.921875 40.578125 39.3125 
" id="DejaVuSans-33"/>
      </defs>
      <g transform="translate(667.016012 392.598437)scale(0.1 -0.1)">
       <use xlink:href="#DejaVuSans-33"/>
       <use x="63.623047" xlink:href="#DejaVuSans-30"/>
      </g>
     </g>
    </g>
    <g id="xtick_8">
     <g id="line2d_15">
      <path clip-path="url(#p729decfa53)" d="M 765.609917 378 
L 765.609917 51.84 
" style="fill:none;stroke:#b0b0b0;stroke-linecap:square;stroke-width:0.8;"/>
     </g>
     <g id="line2d_16">
      <g>
       <use style="stroke:#000000;stroke-width:0.8;" x="765.609917" xlink:href="#m7fa42721dc" y="378"/>
      </g>
     </g>
     <g id="text_8">
      <!-- 35 -->
      <g transform="translate(759.247417 392.598437)scale(0.1 -0.1)">
       <use xlink:href="#DejaVuSans-33"/>
       <use x="63.623047" xlink:href="#DejaVuSans-35"/>
      </g>
     </g>
    </g>
    <g id="text_9">
     <!-- Epoch number -->
     <defs>
      <path d="M 9.8125 72.90625 
L 55.90625 72.90625 
L 55.90625 64.59375 
L 19.671875 64.59375 
L 19.671875 43.015625 
L 54.390625 43.015625 
L 54.390625 34.71875 
L 19.671875 34.71875 
L 19.671875 8.296875 
L 56.78125 8.296875 
L 56.78125 0 
L 9.8125 0 
z
" id="DejaVuSans-45"/>
      <path d="M 18.109375 8.203125 
L 18.109375 -20.796875 
L 9.078125 -20.796875 
L 9.078125 54.6875 
L 18.109375 54.6875 
L 18.109375 46.390625 
Q 20.953125 51.265625 25.265625 53.625 
Q 29.59375 56 35.59375 56 
Q 45.5625 56 51.78125 48.09375 
Q 58.015625 40.1875 58.015625 27.296875 
Q 58.015625 14.40625 51.78125 6.484375 
Q 45.5625 -1.421875 35.59375 -1.421875 
Q 29.59375 -1.421875 25.265625 0.953125 
Q 20.953125 3.328125 18.109375 8.203125 
M 48.6875 27.296875 
Q 48.6875 37.203125 44.609375 42.84375 
Q 40.53125 48.484375 33.40625 48.484375 
Q 26.265625 48.484375 22.1875 42.84375 
Q 18.109375 37.203125 18.109375 27.296875 
Q 18.109375 17.390625 22.1875 11.75 
Q 26.265625 6.109375 33.40625 6.109375 
Q 40.53125 6.109375 44.609375 11.75 
Q 48.6875 17.390625 48.6875 27.296875 
" id="DejaVuSans-70"/>
      <path d="M 30.609375 48.390625 
Q 23.390625 48.390625 19.1875 42.75 
Q 14.984375 37.109375 14.984375 27.296875 
Q 14.984375 17.484375 19.15625 11.84375 
Q 23.34375 6.203125 30.609375 6.203125 
Q 37.796875 6.203125 41.984375 11.859375 
Q 46.1875 17.53125 46.1875 27.296875 
Q 46.1875 37.015625 41.984375 42.703125 
Q 37.796875 48.390625 30.609375 48.390625 
M 30.609375 56 
Q 42.328125 56 49.015625 48.375 
Q 55.71875 40.765625 55.71875 27.296875 
Q 55.71875 13.875 49.015625 6.21875 
Q 42.328125 -1.421875 30.609375 -1.421875 
Q 18.84375 -1.421875 12.171875 6.21875 
Q 5.515625 13.875 5.515625 27.296875 
Q 5.515625 40.765625 12.171875 48.375 
Q 18.84375 56 30.609375 56 
" id="DejaVuSans-6f"/>
      <path d="M 48.78125 52.59375 
L 48.78125 44.1875 
Q 44.96875 46.296875 41.140625 47.34375 
Q 37.3125 48.390625 33.40625 48.390625 
Q 24.65625 48.390625 19.8125 42.84375 
Q 14.984375 37.3125 14.984375 27.296875 
Q 14.984375 17.28125 19.8125 11.734375 
Q 24.65625 6.203125 33.40625 6.203125 
Q 37.3125 6.203125 41.140625 7.25 
Q 44.96875 8.296875 48.78125 10.40625 
L 48.78125 2.09375 
Q 45.015625 0.34375 40.984375 -0.53125 
Q 36.96875 -1.421875 32.421875 -1.421875 
Q 20.0625 -1.421875 12.78125 6.34375 
Q 5.515625 14.109375 5.515625 27.296875 
Q 5.515625 40.671875 12.859375 48.328125 
Q 20.21875 56 33.015625 56 
Q 37.15625 56 41.109375 55.140625 
Q 45.0625 54.296875 48.78125 52.59375 
" id="DejaVuSans-63"/>
      <path d="M 54.890625 33.015625 
L 54.890625 0 
L 45.90625 0 
L 45.90625 32.71875 
Q 45.90625 40.484375 42.875 44.328125 
Q 39.84375 48.1875 33.796875 48.1875 
Q 26.515625 48.1875 22.3125 43.546875 
Q 18.109375 38.921875 18.109375 30.90625 
L 18.109375 0 
L 9.078125 0 
L 9.078125 75.984375 
L 18.109375 75.984375 
L 18.109375 46.1875 
Q 21.34375 51.125 25.703125 53.5625 
Q 30.078125 56 35.796875 56 
Q 45.21875 56 50.046875 50.171875 
Q 54.890625 44.34375 54.890625 33.015625 
" id="DejaVuSans-68"/>
      <path id="DejaVuSans-20"/>
      <path d="M 54.890625 33.015625 
L 54.890625 0 
L 45.90625 0 
L 45.90625 32.71875 
Q 45.90625 40.484375 42.875 44.328125 
Q 39.84375 48.1875 33.796875 48.1875 
Q 26.515625 48.1875 22.3125 43.546875 
Q 18.109375 38.921875 18.109375 30.90625 
L 18.109375 0 
L 9.078125 0 
L 9.078125 54.6875 
L 18.109375 54.6875 
L 18.109375 46.1875 
Q 21.34375 51.125 25.703125 53.5625 
Q 30.078125 56 35.796875 56 
Q 45.21875 56 50.046875 50.171875 
Q 54.890625 44.34375 54.890625 33.015625 
" id="DejaVuSans-6e"/>
      <path d="M 8.5 21.578125 
L 8.5 54.6875 
L 17.484375 54.6875 
L 17.484375 21.921875 
Q 17.484375 14.15625 20.5 10.265625 
Q 23.53125 6.390625 29.59375 6.390625 
Q 36.859375 6.390625 41.078125 11.03125 
Q 45.3125 15.671875 45.3125 23.6875 
L 45.3125 54.6875 
L 54.296875 54.6875 
L 54.296875 0 
L 45.3125 0 
L 45.3125 8.40625 
Q 42.046875 3.421875 37.71875 1 
Q 33.40625 -1.421875 27.6875 -1.421875 
Q 18.265625 -1.421875 13.375 4.4375 
Q 8.5 10.296875 8.5 21.578125 
M 31.109375 56 
z
" id="DejaVuSans-75"/>
      <path d="M 52 44.1875 
Q 55.375 50.25 60.0625 53.125 
Q 64.75 56 71.09375 56 
Q 79.640625 56 84.28125 50.015625 
Q 88.921875 44.046875 88.921875 33.015625 
L 88.921875 0 
L 79.890625 0 
L 79.890625 32.71875 
Q 79.890625 40.578125 77.09375 44.375 
Q 74.3125 48.1875 68.609375 48.1875 
Q 61.625 48.1875 57.5625 43.546875 
Q 53.515625 38.921875 53.515625 30.90625 
L 53.515625 0 
L 44.484375 0 
L 44.484375 32.71875 
Q 44.484375 40.625 41.703125 44.40625 
Q 38.921875 48.1875 33.109375 48.1875 
Q 26.21875 48.1875 22.15625 43.53125 
Q 18.109375 38.875 18.109375 30.90625 
L 18.109375 0 
L 9.078125 0 
L 9.078125 54.6875 
L 18.109375 54.6875 
L 18.109375 46.1875 
Q 21.1875 51.21875 25.484375 53.609375 
Q 29.78125 56 35.6875 56 
Q 41.65625 56 45.828125 52.96875 
Q 50 49.953125 52 44.1875 
" id="DejaVuSans-6d"/>
      <path d="M 48.6875 27.296875 
Q 48.6875 37.203125 44.609375 42.84375 
Q 40.53125 48.484375 33.40625 48.484375 
Q 26.265625 48.484375 22.1875 42.84375 
Q 18.109375 37.203125 18.109375 27.296875 
Q 18.109375 17.390625 22.1875 11.75 
Q 26.265625 6.109375 33.40625 6.109375 
Q 40.53125 6.109375 44.609375 11.75 
Q 48.6875 17.390625 48.6875 27.296875 
M 18.109375 46.390625 
Q 20.953125 51.265625 25.265625 53.625 
Q 29.59375 56 35.59375 56 
Q 45.5625 56 51.78125 48.09375 
Q 58.015625 40.1875 58.015625 27.296875 
Q 58.015625 14.40625 51.78125 6.484375 
Q 45.5625 -1.421875 35.59375 -1.421875 
Q 29.59375 -1.421875 25.265625 0.953125 
Q 20.953125 3.328125 18.109375 8.203125 
L 18.109375 0 
L 9.078125 0 
L 9.078125 75.984375 
L 18.109375 75.984375 
z
" id="DejaVuSans-62"/>
      <path d="M 56.203125 29.59375 
L 56.203125 25.203125 
L 14.890625 25.203125 
Q 15.484375 15.921875 20.484375 11.0625 
Q 25.484375 6.203125 34.421875 6.203125 
Q 39.59375 6.203125 44.453125 7.46875 
Q 49.3125 8.734375 54.109375 11.28125 
L 54.109375 2.78125 
Q 49.265625 0.734375 44.1875 -0.34375 
Q 39.109375 -1.421875 33.890625 -1.421875 
Q 20.796875 -1.421875 13.15625 6.1875 
Q 5.515625 13.8125 5.515625 26.8125 
Q 5.515625 40.234375 12.765625 48.109375 
Q 20.015625 56 32.328125 56 
Q 43.359375 56 49.78125 48.890625 
Q 56.203125 41.796875 56.203125 29.59375 
M 47.21875 32.234375 
Q 47.125 39.59375 43.09375 43.984375 
Q 39.0625 48.390625 32.421875 48.390625 
Q 24.90625 48.390625 20.390625 44.140625 
Q 15.875 39.890625 15.1875 32.171875 
z
" id="DejaVuSans-65"/>
      <path d="M 41.109375 46.296875 
Q 39.59375 47.171875 37.8125 47.578125 
Q 36.03125 48 33.890625 48 
Q 26.265625 48 22.1875 43.046875 
Q 18.109375 38.09375 18.109375 28.8125 
L 18.109375 0 
L 9.078125 0 
L 9.078125 54.6875 
L 18.109375 54.6875 
L 18.109375 46.1875 
Q 20.953125 51.171875 25.484375 53.578125 
Q 30.03125 56 36.53125 56 
Q 37.453125 56 38.578125 55.875 
Q 39.703125 55.765625 41.0625 55.515625 
z
" id="DejaVuSans-72"/>
     </defs>
     <g transform="translate(406.385938 406.276563)scale(0.1 -0.1)">
      <use xlink:href="#DejaVuSans-45"/>
      <use x="63.183594" xlink:href="#DejaVuSans-70"/>
      <use x="126.660156" xlink:href="#DejaVuSans-6f"/>
      <use x="187.841797" xlink:href="#DejaVuSans-63"/>
      <use x="242.822266" xlink:href="#DejaVuSans-68"/>
      <use x="306.201172" xlink:href="#DejaVuSans-20"/>
      <use x="337.988281" xlink:href="#DejaVuSans-6e"/>
      <use x="401.367188" xlink:href="#DejaVuSans-75"/>
      <use x="464.746094" xlink:href="#DejaVuSans-6d"/>
      <use x="562.158203" xlink:href="#DejaVuSans-62"/>
      <use x="625.634766" xlink:href="#DejaVuSans-65"/>
      <use x="687.158203" xlink:href="#DejaVuSans-72"/>
     </g>
    </g>
   </g>
   <g id="matplotlib.axis_2">
    <g id="ytick_1">
     <g id="line2d_17">
      <path clip-path="url(#p729decfa53)" d="M 108 362.607592 
L 777.6 362.607592 
" style="fill:none;stroke:#b0b0b0;stroke-linecap:square;stroke-width:0.8;"/>
     </g>
     <g id="line2d_18">
      <defs>
       <path d="M 0 0 
L -3.5 0 
" id="m7355f9ec67" style="stroke:#000000;stroke-width:0.8;"/>
      </defs>
      <g>
       <use style="stroke:#000000;stroke-width:0.8;" x="108" xlink:href="#m7355f9ec67" y="362.607592"/>
      </g>
     </g>
     <g id="text_10">
      <!-- 0.22 -->
      <defs>
       <path d="M 10.6875 12.40625 
L 21 12.40625 
L 21 0 
L 10.6875 0 
z
" id="DejaVuSans-2e"/>
      </defs>
      <g transform="translate(78.734375 366.406811)scale(0.1 -0.1)">
       <use xlink:href="#DejaVuSans-30"/>
       <use x="63.623047" xlink:href="#DejaVuSans-2e"/>
       <use x="95.410156" xlink:href="#DejaVuSans-32"/>
       <use x="159.033203" xlink:href="#DejaVuSans-32"/>
      </g>
     </g>
    </g>
    <g id="ytick_2">
     <g id="line2d_19">
      <path clip-path="url(#p729decfa53)" d="M 108 324.811658 
L 777.6 324.811658 
" style="fill:none;stroke:#b0b0b0;stroke-linecap:square;stroke-width:0.8;"/>
     </g>
     <g id="line2d_20">
      <g>
       <use style="stroke:#000000;stroke-width:0.8;" x="108" xlink:href="#m7355f9ec67" y="324.811658"/>
      </g>
     </g>
     <g id="text_11">
      <!-- 0.24 -->
      <defs>
       <path d="M 37.796875 64.3125 
L 12.890625 25.390625 
L 37.796875 25.390625 
z
M 35.203125 72.90625 
L 47.609375 72.90625 
L 47.609375 25.390625 
L 58.015625 25.390625 
L 58.015625 17.1875 
L 47.609375 17.1875 
L 47.609375 0 
L 37.796875 0 
L 37.796875 17.1875 
L 4.890625 17.1875 
L 4.890625 26.703125 
z
" id="DejaVuSans-34"/>
      </defs>
      <g transform="translate(78.734375 328.610877)scale(0.1 -0.1)">
       <use xlink:href="#DejaVuSans-30"/>
       <use x="63.623047" xlink:href="#DejaVuSans-2e"/>
       <use x="95.410156" xlink:href="#DejaVuSans-32"/>
       <use x="159.033203" xlink:href="#DejaVuSans-34"/>
      </g>
     </g>
    </g>
    <g id="ytick_3">
     <g id="line2d_21">
      <path clip-path="url(#p729decfa53)" d="M 108 287.015724 
L 777.6 287.015724 
" style="fill:none;stroke:#b0b0b0;stroke-linecap:square;stroke-width:0.8;"/>
     </g>
     <g id="line2d_22">
      <g>
       <use style="stroke:#000000;stroke-width:0.8;" x="108" xlink:href="#m7355f9ec67" y="287.015724"/>
      </g>
     </g>
     <g id="text_12">
      <!-- 0.26 -->
      <defs>
       <path d="M 33.015625 40.375 
Q 26.375 40.375 22.484375 35.828125 
Q 18.609375 31.296875 18.609375 23.390625 
Q 18.609375 15.53125 22.484375 10.953125 
Q 26.375 6.390625 33.015625 6.390625 
Q 39.65625 6.390625 43.53125 10.953125 
Q 47.40625 15.53125 47.40625 23.390625 
Q 47.40625 31.296875 43.53125 35.828125 
Q 39.65625 40.375 33.015625 40.375 
M 52.59375 71.296875 
L 52.59375 62.3125 
Q 48.875 64.0625 45.09375 64.984375 
Q 41.3125 65.921875 37.59375 65.921875 
Q 27.828125 65.921875 22.671875 59.328125 
Q 17.53125 52.734375 16.796875 39.40625 
Q 19.671875 43.65625 24.015625 45.921875 
Q 28.375 48.1875 33.59375 48.1875 
Q 44.578125 48.1875 50.953125 41.515625 
Q 57.328125 34.859375 57.328125 23.390625 
Q 57.328125 12.15625 50.6875 5.359375 
Q 44.046875 -1.421875 33.015625 -1.421875 
Q 20.359375 -1.421875 13.671875 8.265625 
Q 6.984375 17.96875 6.984375 36.375 
Q 6.984375 53.65625 15.1875 63.9375 
Q 23.390625 74.21875 37.203125 74.21875 
Q 40.921875 74.21875 44.703125 73.484375 
Q 48.484375 72.75 52.59375 71.296875 
" id="DejaVuSans-36"/>
      </defs>
      <g transform="translate(78.734375 290.814942)scale(0.1 -0.1)">
       <use xlink:href="#DejaVuSans-30"/>
       <use x="63.623047" xlink:href="#DejaVuSans-2e"/>
       <use x="95.410156" xlink:href="#DejaVuSans-32"/>
       <use x="159.033203" xlink:href="#DejaVuSans-36"/>
      </g>
     </g>
    </g>
    <g id="ytick_4">
     <g id="line2d_23">
      <path clip-path="url(#p729decfa53)" d="M 108 249.21979 
L 777.6 249.21979 
" style="fill:none;stroke:#b0b0b0;stroke-linecap:square;stroke-width:0.8;"/>
     </g>
     <g id="line2d_24">
      <g>
       <use style="stroke:#000000;stroke-width:0.8;" x="108" xlink:href="#m7355f9ec67" y="249.21979"/>
      </g>
     </g>
     <g id="text_13">
      <!-- 0.28 -->
      <defs>
       <path d="M 31.78125 34.625 
Q 24.75 34.625 20.71875 30.859375 
Q 16.703125 27.09375 16.703125 20.515625 
Q 16.703125 13.921875 20.71875 10.15625 
Q 24.75 6.390625 31.78125 6.390625 
Q 38.8125 6.390625 42.859375 10.171875 
Q 46.921875 13.96875 46.921875 20.515625 
Q 46.921875 27.09375 42.890625 30.859375 
Q 38.875 34.625 31.78125 34.625 
M 21.921875 38.8125 
Q 15.578125 40.375 12.03125 44.71875 
Q 8.5 49.078125 8.5 55.328125 
Q 8.5 64.0625 14.71875 69.140625 
Q 20.953125 74.21875 31.78125 74.21875 
Q 42.671875 74.21875 48.875 69.140625 
Q 55.078125 64.0625 55.078125 55.328125 
Q 55.078125 49.078125 51.53125 44.71875 
Q 48 40.375 41.703125 38.8125 
Q 48.828125 37.15625 52.796875 32.3125 
Q 56.78125 27.484375 56.78125 20.515625 
Q 56.78125 9.90625 50.3125 4.234375 
Q 43.84375 -1.421875 31.78125 -1.421875 
Q 19.734375 -1.421875 13.25 4.234375 
Q 6.78125 9.90625 6.78125 20.515625 
Q 6.78125 27.484375 10.78125 32.3125 
Q 14.796875 37.15625 21.921875 38.8125 
M 18.3125 54.390625 
Q 18.3125 48.734375 21.84375 45.5625 
Q 25.390625 42.390625 31.78125 42.390625 
Q 38.140625 42.390625 41.71875 45.5625 
Q 45.3125 48.734375 45.3125 54.390625 
Q 45.3125 60.0625 41.71875 63.234375 
Q 38.140625 66.40625 31.78125 66.40625 
Q 25.390625 66.40625 21.84375 63.234375 
Q 18.3125 60.0625 18.3125 54.390625 
" id="DejaVuSans-38"/>
      </defs>
      <g transform="translate(78.734375 253.019008)scale(0.1 -0.1)">
       <use xlink:href="#DejaVuSans-30"/>
       <use x="63.623047" xlink:href="#DejaVuSans-2e"/>
       <use x="95.410156" xlink:href="#DejaVuSans-32"/>
       <use x="159.033203" xlink:href="#DejaVuSans-38"/>
      </g>
     </g>
    </g>
    <g id="ytick_5">
     <g id="line2d_25">
      <path clip-path="url(#p729decfa53)" d="M 108 211.423855 
L 777.6 211.423855 
" style="fill:none;stroke:#b0b0b0;stroke-linecap:square;stroke-width:0.8;"/>
     </g>
     <g id="line2d_26">
      <g>
       <use style="stroke:#000000;stroke-width:0.8;" x="108" xlink:href="#m7355f9ec67" y="211.423855"/>
      </g>
     </g>
     <g id="text_14">
      <!-- 0.30 -->
      <g transform="translate(78.734375 215.223074)scale(0.1 -0.1)">
       <use xlink:href="#DejaVuSans-30"/>
       <use x="63.623047" xlink:href="#DejaVuSans-2e"/>
       <use x="95.410156" xlink:href="#DejaVuSans-33"/>
       <use x="159.033203" xlink:href="#DejaVuSans-30"/>
      </g>
     </g>
    </g>
    <g id="ytick_6">
     <g id="line2d_27">
      <path clip-path="url(#p729decfa53)" d="M 108 173.627921 
L 777.6 173.627921 
" style="fill:none;stroke:#b0b0b0;stroke-linecap:square;stroke-width:0.8;"/>
     </g>
     <g id="line2d_28">
      <g>
       <use style="stroke:#000000;stroke-width:0.8;" x="108" xlink:href="#m7355f9ec67" y="173.627921"/>
      </g>
     </g>
     <g id="text_15">
      <!-- 0.32 -->
      <g transform="translate(78.734375 177.42714)scale(0.1 -0.1)">
       <use xlink:href="#DejaVuSans-30"/>
       <use x="63.623047" xlink:href="#DejaVuSans-2e"/>
       <use x="95.410156" xlink:href="#DejaVuSans-33"/>
       <use x="159.033203" xlink:href="#DejaVuSans-32"/>
      </g>
     </g>
    </g>
    <g id="ytick_7">
     <g id="line2d_29">
      <path clip-path="url(#p729decfa53)" d="M 108 135.831987 
L 777.6 135.831987 
" style="fill:none;stroke:#b0b0b0;stroke-linecap:square;stroke-width:0.8;"/>
     </g>
     <g id="line2d_30">
      <g>
       <use style="stroke:#000000;stroke-width:0.8;" x="108" xlink:href="#m7355f9ec67" y="135.831987"/>
      </g>
     </g>
     <g id="text_16">
      <!-- 0.34 -->
      <g transform="translate(78.734375 139.631206)scale(0.1 -0.1)">
       <use xlink:href="#DejaVuSans-30"/>
       <use x="63.623047" xlink:href="#DejaVuSans-2e"/>
       <use x="95.410156" xlink:href="#DejaVuSans-33"/>
       <use x="159.033203" xlink:href="#DejaVuSans-34"/>
      </g>
     </g>
    </g>
    <g id="ytick_8">
     <g id="line2d_31">
      <path clip-path="url(#p729decfa53)" d="M 108 98.036053 
L 777.6 98.036053 
" style="fill:none;stroke:#b0b0b0;stroke-linecap:square;stroke-width:0.8;"/>
     </g>
     <g id="line2d_32">
      <g>
       <use style="stroke:#000000;stroke-width:0.8;" x="108" xlink:href="#m7355f9ec67" y="98.036053"/>
      </g>
     </g>
     <g id="text_17">
      <!-- 0.36 -->
      <g transform="translate(78.734375 101.835272)scale(0.1 -0.1)">
       <use xlink:href="#DejaVuSans-30"/>
       <use x="63.623047" xlink:href="#DejaVuSans-2e"/>
       <use x="95.410156" xlink:href="#DejaVuSans-33"/>
       <use x="159.033203" xlink:href="#DejaVuSans-36"/>
      </g>
     </g>
    </g>
    <g id="ytick_9">
     <g id="line2d_33">
      <path clip-path="url(#p729decfa53)" d="M 108 60.240119 
L 777.6 60.240119 
" style="fill:none;stroke:#b0b0b0;stroke-linecap:square;stroke-width:0.8;"/>
     </g>
     <g id="line2d_34">
      <g>
       <use style="stroke:#000000;stroke-width:0.8;" x="108" xlink:href="#m7355f9ec67" y="60.240119"/>
      </g>
     </g>
     <g id="text_18">
      <!-- 0.38 -->
      <g transform="translate(78.734375 64.039338)scale(0.1 -0.1)">
       <use xlink:href="#DejaVuSans-30"/>
       <use x="63.623047" xlink:href="#DejaVuSans-2e"/>
       <use x="95.410156" xlink:href="#DejaVuSans-33"/>
       <use x="159.033203" xlink:href="#DejaVuSans-38"/>
      </g>
     </g>
    </g>
    <g id="text_19">
     <!-- Validation Accuracy -->
     <defs>
      <path d="M 28.609375 0 
L 0.78125 72.90625 
L 11.078125 72.90625 
L 34.1875 11.53125 
L 57.328125 72.90625 
L 67.578125 72.90625 
L 39.796875 0 
z
" id="DejaVuSans-56"/>
      <path d="M 34.28125 27.484375 
Q 23.390625 27.484375 19.1875 25 
Q 14.984375 22.515625 14.984375 16.5 
Q 14.984375 11.71875 18.140625 8.90625 
Q 21.296875 6.109375 26.703125 6.109375 
Q 34.1875 6.109375 38.703125 11.40625 
Q 43.21875 16.703125 43.21875 25.484375 
L 43.21875 27.484375 
z
M 52.203125 31.203125 
L 52.203125 0 
L 43.21875 0 
L 43.21875 8.296875 
Q 40.140625 3.328125 35.546875 0.953125 
Q 30.953125 -1.421875 24.3125 -1.421875 
Q 15.921875 -1.421875 10.953125 3.296875 
Q 6 8.015625 6 15.921875 
Q 6 25.140625 12.171875 29.828125 
Q 18.359375 34.515625 30.609375 34.515625 
L 43.21875 34.515625 
L 43.21875 35.40625 
Q 43.21875 41.609375 39.140625 45 
Q 35.0625 48.390625 27.6875 48.390625 
Q 23 48.390625 18.546875 47.265625 
Q 14.109375 46.140625 10.015625 43.890625 
L 10.015625 52.203125 
Q 14.9375 54.109375 19.578125 55.046875 
Q 24.21875 56 28.609375 56 
Q 40.484375 56 46.34375 49.84375 
Q 52.203125 43.703125 52.203125 31.203125 
" id="DejaVuSans-61"/>
      <path d="M 9.421875 75.984375 
L 18.40625 75.984375 
L 18.40625 0 
L 9.421875 0 
z
" id="DejaVuSans-6c"/>
      <path d="M 9.421875 54.6875 
L 18.40625 54.6875 
L 18.40625 0 
L 9.421875 0 
z
M 9.421875 75.984375 
L 18.40625 75.984375 
L 18.40625 64.59375 
L 9.421875 64.59375 
z
" id="DejaVuSans-69"/>
      <path d="M 45.40625 46.390625 
L 45.40625 75.984375 
L 54.390625 75.984375 
L 54.390625 0 
L 45.40625 0 
L 45.40625 8.203125 
Q 42.578125 3.328125 38.25 0.953125 
Q 33.9375 -1.421875 27.875 -1.421875 
Q 17.96875 -1.421875 11.734375 6.484375 
Q 5.515625 14.40625 5.515625 27.296875 
Q 5.515625 40.1875 11.734375 48.09375 
Q 17.96875 56 27.875 56 
Q 33.9375 56 38.25 53.625 
Q 42.578125 51.265625 45.40625 46.390625 
M 14.796875 27.296875 
Q 14.796875 17.390625 18.875 11.75 
Q 22.953125 6.109375 30.078125 6.109375 
Q 37.203125 6.109375 41.296875 11.75 
Q 45.40625 17.390625 45.40625 27.296875 
Q 45.40625 37.203125 41.296875 42.84375 
Q 37.203125 48.484375 30.078125 48.484375 
Q 22.953125 48.484375 18.875 42.84375 
Q 14.796875 37.203125 14.796875 27.296875 
" id="DejaVuSans-64"/>
      <path d="M 18.3125 70.21875 
L 18.3125 54.6875 
L 36.8125 54.6875 
L 36.8125 47.703125 
L 18.3125 47.703125 
L 18.3125 18.015625 
Q 18.3125 11.328125 20.140625 9.421875 
Q 21.96875 7.515625 27.59375 7.515625 
L 36.8125 7.515625 
L 36.8125 0 
L 27.59375 0 
Q 17.1875 0 13.234375 3.875 
Q 9.28125 7.765625 9.28125 18.015625 
L 9.28125 47.703125 
L 2.6875 47.703125 
L 2.6875 54.6875 
L 9.28125 54.6875 
L 9.28125 70.21875 
z
" id="DejaVuSans-74"/>
      <path d="M 34.1875 63.1875 
L 20.796875 26.90625 
L 47.609375 26.90625 
z
M 28.609375 72.90625 
L 39.796875 72.90625 
L 67.578125 0 
L 57.328125 0 
L 50.6875 18.703125 
L 17.828125 18.703125 
L 11.1875 0 
L 0.78125 0 
z
" id="DejaVuSans-41"/>
      <path d="M 32.171875 -5.078125 
Q 28.375 -14.84375 24.75 -17.8125 
Q 21.140625 -20.796875 15.09375 -20.796875 
L 7.90625 -20.796875 
L 7.90625 -13.28125 
L 13.1875 -13.28125 
Q 16.890625 -13.28125 18.9375 -11.515625 
Q 21 -9.765625 23.484375 -3.21875 
L 25.09375 0.875 
L 2.984375 54.6875 
L 12.5 54.6875 
L 29.59375 11.921875 
L 46.6875 54.6875 
L 56.203125 54.6875 
z
" id="DejaVuSans-79"/>
     </defs>
     <g transform="translate(72.654687 264.496562)rotate(-90)scale(0.1 -0.1)">
      <use xlink:href="#DejaVuSans-56"/>
      <use x="68.298828" xlink:href="#DejaVuSans-61"/>
      <use x="129.578125" xlink:href="#DejaVuSans-6c"/>
      <use x="157.361328" xlink:href="#DejaVuSans-69"/>
      <use x="185.144531" xlink:href="#DejaVuSans-64"/>
      <use x="248.621094" xlink:href="#DejaVuSans-61"/>
      <use x="309.900391" xlink:href="#DejaVuSans-74"/>
      <use x="349.109375" xlink:href="#DejaVuSans-69"/>
      <use x="376.892578" xlink:href="#DejaVuSans-6f"/>
      <use x="438.074219" xlink:href="#DejaVuSans-6e"/>
      <use x="501.453125" xlink:href="#DejaVuSans-20"/>
      <use x="533.240234" xlink:href="#DejaVuSans-41"/>
      <use x="601.632812" xlink:href="#DejaVuSans-63"/>
      <use x="656.613281" xlink:href="#DejaVuSans-63"/>
      <use x="711.59375" xlink:href="#DejaVuSans-75"/>
      <use x="774.972656" xlink:href="#DejaVuSans-72"/>
      <use x="816.085938" xlink:href="#DejaVuSans-61"/>
      <use x="877.365234" xlink:href="#DejaVuSans-63"/>
      <use x="932.345703" xlink:href="#DejaVuSans-79"/>
     </g>
    </g>
   </g>
   <g id="line2d_35">
    <path clip-path="url(#p729decfa53)" d="M 138.436364 122.981394 
L 156.882645 106.162197 
L 175.328926 98.980973 
L 193.775207 105.217307 
L 212.221488 106.540159 
L 230.667769 116.934041 
L 249.11405 97.280157 
L 267.560331 96.524239 
L 286.006612 87.07526 
L 304.452893 94.067504 
L 322.899174 98.791992 
L 341.345455 101.626691 
L 359.791736 95.390362 
L 378.238017 97.280158 
L 396.684298 109.374857 
L 415.130579 105.973221 
L 433.57686 96.902198 
L 452.02314 103.516486 
L 470.469421 103.138527 
L 488.915702 92.555665 
L 507.361983 102.19363 
L 525.808264 83.295662 
L 544.254545 95.0124 
L 562.700826 85.374439 
L 581.147107 87.831171 
L 599.593388 98.036078 
L 618.039669 90.287912 
L 636.48595 101.24873 
L 654.932231 90.28791 
L 673.378512 97.847093 
L 691.824793 89.531989 
L 710.271074 112.39853 
L 728.717355 94.067504 
L 747.163636 84.051582 
" style="fill:none;stroke:#d3d3d3;stroke-linecap:square;stroke-width:1.5;"/>
   </g>
   <g id="line2d_36">
    <path clip-path="url(#p729decfa53)" d="M 138.436364 117.689963 
L 156.882645 103.705469 
L 175.328926 95.390359 
L 193.775207 96.713218 
L 212.221488 85.56342 
L 230.667769 88.965054 
L 249.11405 95.768321 
L 267.560331 85.752401 
L 286.006612 91.043828 
L 304.452893 90.476889 
L 322.899174 94.634441 
L 341.345455 89.154032 
L 359.791736 102.193627 
L 378.238017 82.917706 
L 396.684298 94.067504 
L 415.130579 92.933625 
L 433.57686 89.531991 
L 452.02314 80.460966 
L 470.469421 79.89403 
L 488.915702 96.902197 
L 507.361983 92.177702 
L 525.808264 88.965053 
L 544.254545 97.091178 
L 562.700826 96.713218 
L 581.147107 82.161787 
L 599.593388 86.130359 
L 618.039669 88.965053 
L 636.48595 82.161784 
L 654.932231 88.020152 
L 673.378512 81.216884 
L 691.824793 74.980556 
L 710.271074 85.941377 
L 728.717355 94.823419 
L 747.163636 86.508316 
" style="fill:none;stroke:#1f77b4;stroke-linecap:square;stroke-width:1.5;"/>
   </g>
   <g id="line2d_37">
    <path clip-path="url(#p729decfa53)" d="M 138.436364 121.280577 
L 156.882645 112.398529 
L 175.328926 96.524238 
L 193.775207 96.713217 
L 212.221488 96.524238 
L 230.667769 85.18546 
L 249.11405 98.036077 
L 267.560331 97.469135 
L 286.006612 91.610769 
L 304.452893 83.106682 
L 322.899174 86.886276 
L 341.345455 86.508315 
L 359.791736 90.854846 
L 378.238017 97.469136 
L 396.684298 83.673621 
L 415.130579 92.744642 
L 433.57686 89.531988 
L 452.02314 87.642194 
L 470.469421 87.264231 
L 488.915702 91.232811 
L 507.361983 83.484642 
L 525.808264 91.42179 
L 544.254545 83.295663 
L 562.700826 95.768321 
L 581.147107 92.177706 
L 599.593388 89.53199 
L 618.039669 83.295662 
L 636.48595 84.051578 
L 654.932231 74.602598 
L 673.378512 89.909952 
L 691.824793 75.169534 
L 710.271074 78.949129 
L 728.717355 71.956884 
L 747.163636 92.177706 
" style="fill:none;stroke:#ff7f0e;stroke-linecap:square;stroke-width:1.5;"/>
   </g>
   <g id="line2d_38">
    <path clip-path="url(#p729decfa53)" d="M 138.436364 139.989561 
L 156.882645 130.540579 
L 175.328926 132.052415 
L 193.775207 117.123025 
L 212.221488 107.485059 
L 230.667769 92.555665 
L 249.11405 82.539745 
L 267.560331 88.209134 
L 286.006612 89.720974 
L 304.452893 87.453213 
L 322.899174 84.807499 
L 341.345455 85.374435 
L 359.791736 81.027906 
L 378.238017 90.854852 
L 396.684298 83.295663 
L 415.130579 80.271989 
L 433.57686 81.783826 
L 452.02314 79.327092 
L 470.469421 78.19321 
L 488.915702 82.161784 
L 507.361983 83.673624 
L 525.808264 76.870353 
L 544.254545 88.776073 
L 562.700826 81.405865 
L 581.147107 83.862601 
L 599.593388 75.169534 
L 618.039669 81.783826 
L 636.48595 90.098931 
L 654.932231 86.319337 
L 673.378512 77.05933 
L 691.824793 74.980557 
L 710.271074 80.271991 
L 728.717355 79.327091 
L 747.163636 83.48464 
" style="fill:none;stroke:#2ca02c;stroke-linecap:square;stroke-width:1.5;"/>
   </g>
   <g id="line2d_39">
    <path clip-path="url(#p729decfa53)" d="M 138.436364 138.855683 
L 156.882645 122.792411 
L 175.328926 120.902618 
L 193.775207 105.973224 
L 212.221488 103.327507 
L 230.667769 92.93362 
L 249.11405 89.72097 
L 267.560331 91.232805 
L 286.006612 81.972805 
L 304.452893 87.831172 
L 322.899174 80.083007 
L 341.345455 79.138112 
L 359.791736 88.965052 
L 378.238017 81.405864 
L 396.684298 78.57117 
L 415.130579 80.460967 
L 433.57686 80.460964 
L 452.02314 80.271986 
L 470.469421 78.76015 
L 488.915702 84.429538 
L 507.361983 72.145859 
L 525.808264 83.673622 
L 544.254545 80.083008 
L 562.700826 78.760151 
L 581.147107 75.547497 
L 599.593388 72.145863 
L 618.039669 74.035659 
L 636.48595 72.712801 
L 654.932231 74.035657 
L 673.378512 87.264233 
L 691.824793 81.216885 
L 710.271074 76.681375 
L 728.717355 83.862602 
L 747.163636 78.571168 
" style="fill:none;stroke:#d62728;stroke-linecap:square;stroke-width:1.5;"/>
   </g>
   <g id="line2d_40">
    <path clip-path="url(#p729decfa53)" d="M 138.436364 176.273658 
L 156.882645 145.847934 
L 175.328926 116.93404 
L 193.775207 113.154446 
L 212.221488 104.272407 
L 230.667769 103.516486 
L 249.11405 104.650364 
L 267.560331 97.280158 
L 286.006612 94.067504 
L 304.452893 88.398113 
L 322.899174 88.776075 
L 341.345455 87.831174 
L 359.791736 86.130359 
L 378.238017 84.05158 
L 396.684298 82.161782 
L 415.130579 88.587094 
L 433.57686 69.689128 
L 452.02314 69.311167 
L 470.469421 75.358515 
L 488.915702 75.169535 
L 507.361983 69.878107 
L 525.808264 77.248312 
L 544.254545 79.516068 
L 562.700826 74.224642 
L 581.147107 66.665455 
L 599.593388 71.578923 
L 618.039669 71.011984 
L 636.48595 71.956881 
L 654.932231 82.728724 
L 673.378512 70.445046 
L 691.824793 77.059334 
L 710.271074 74.980556 
L 728.717355 76.114435 
L 747.163636 86.886276 
" style="fill:none;stroke:#9467bd;stroke-linecap:square;stroke-width:1.5;"/>
   </g>
   <g id="line2d_41">
    <path clip-path="url(#p729decfa53)" d="M 138.436364 149.249566 
L 156.882645 125.627104 
L 175.328926 117.123021 
L 193.775207 108.051999 
L 212.221488 106.918121 
L 230.667769 103.32751 
L 249.11405 94.25648 
L 267.560331 103.516481 
L 286.006612 96.14628 
L 304.452893 97.847096 
L 322.899174 101.437709 
L 341.345455 99.92587 
L 359.791736 94.256481 
L 378.238017 93.500563 
L 396.684298 84.807498 
L 415.130579 88.77607 
L 433.57686 89.720971 
L 452.02314 85.563418 
L 470.469421 86.508318 
L 488.915702 81.594846 
L 507.361983 80.838926 
L 525.808264 82.350765 
L 544.254545 82.539744 
L 562.700826 72.334841 
L 581.147107 76.114436 
L 599.593388 74.22464 
L 618.039669 74.602599 
L 636.48595 74.413617 
L 654.932231 77.626271 
L 673.378512 69.878108 
L 691.824793 71.767901 
L 710.271074 73.279738 
L 728.717355 67.799332 
L 747.163636 71.767904 
" style="fill:none;stroke:#8c564b;stroke-linecap:square;stroke-width:1.5;"/>
   </g>
   <g id="line2d_42">
    <path clip-path="url(#p729decfa53)" d="M 138.436364 169.659369 
L 156.882645 139.611602 
L 175.328926 117.87894 
L 193.775207 122.225472 
L 212.221488 117.500983 
L 230.667769 110.697714 
L 249.11405 120.335676 
L 267.560331 115.989144 
L 286.006612 116.934038 
L 304.452893 115.800167 
L 322.899174 109.563834 
L 341.345455 106.729142 
L 359.791736 102.193627 
L 378.238017 97.091176 
L 396.684298 91.610768 
L 415.130579 93.878525 
L 433.57686 99.92587 
L 452.02314 95.012401 
L 470.469421 91.232811 
L 488.915702 88.58709 
L 507.361983 87.831174 
L 525.808264 89.531992 
L 544.254545 90.665867 
L 562.700826 90.287911 
L 581.147107 88.77607 
L 599.593388 84.996479 
L 618.039669 88.965051 
L 636.48595 91.42179 
L 654.932231 87.075256 
L 673.378512 83.673619 
L 691.824793 85.563415 
L 710.271074 86.886276 
L 728.717355 88.398113 
L 747.163636 92.177701 
" style="fill:none;stroke:#d3d3d3;stroke-linecap:square;stroke-width:1.5;"/>
   </g>
   <g id="line2d_43">
    <path clip-path="url(#p729decfa53)" d="M 138.436364 213.88061 
L 156.882645 195.549584 
L 175.328926 179.486314 
L 193.775207 161.344266 
L 212.221488 146.225891 
L 230.667769 129.784659 
L 249.11405 119.768738 
L 267.560331 123.548331 
L 286.006612 117.878942 
L 304.452893 120.335677 
L 322.899174 112.587508 
L 341.345455 119.390775 
L 359.791736 116.556082 
L 378.238017 112.209553 
L 396.684298 108.429956 
L 415.130579 109.563835 
L 433.57686 100.681793 
L 452.02314 100.114851 
L 470.469421 99.169956 
L 488.915702 96.713219 
L 507.361983 95.39036 
L 525.808264 96.902198 
L 544.254545 95.012402 
L 562.700826 88.965052 
L 581.147107 89.720969 
L 599.593388 87.642192 
L 618.039669 81.405865 
L 636.48595 76.303413 
L 654.932231 74.6026 
L 673.378512 79.894029 
L 691.824793 75.169535 
L 710.271074 71.389943 
L 728.717355 76.114433 
L 747.163636 75.925456 
" style="fill:none;stroke:#e377c2;stroke-linecap:square;stroke-width:1.5;"/>
   </g>
   <g id="line2d_44">
    <path clip-path="url(#p729decfa53)" d="M 138.436364 242.03858 
L 156.882645 208.022239 
L 175.328926 185.722642 
L 193.775207 168.33651 
L 212.221488 155.863855 
L 230.667769 136.965885 
L 249.11405 134.131191 
L 267.560331 128.461801 
L 286.006612 127.516904 
L 304.452893 119.390779 
L 322.899174 119.390775 
L 341.345455 108.24098 
L 359.791736 107.1071 
L 378.238017 110.697713 
L 396.684298 109.374854 
L 415.130579 106.162201 
L 433.57686 111.075676 
L 452.02314 109.752816 
L 470.469421 105.217303 
L 488.915702 105.973221 
L 507.361983 103.327506 
L 525.808264 104.650364 
L 544.254545 106.918121 
L 562.700826 101.62669 
L 581.147107 100.49281 
L 599.593388 104.272404 
L 618.039669 107.107097 
L 636.48595 101.626689 
L 654.932231 99.92587 
L 673.378512 98.980976 
L 691.824793 95.768318 
L 710.271074 92.555669 
L 728.717355 95.390364 
L 747.163636 89.343011 
" style="fill:none;stroke:#d3d3d3;stroke-linecap:square;stroke-width:1.5;"/>
   </g>
   <g id="line2d_45">
    <path clip-path="url(#p729decfa53)" d="M 138.436364 241.660622 
L 156.882645 218.794081 
L 175.328926 200.085097 
L 193.775207 186.289581 
L 212.221488 181.754069 
L 230.667769 171.927125 
L 249.11405 168.147531 
L 267.560331 160.777323 
L 286.006612 154.352018 
L 304.452893 146.414871 
L 322.899174 140.556505 
L 341.345455 136.965885 
L 359.791736 133.564253 
L 378.238017 126.572004 
L 396.684298 129.028741 
L 415.130579 129.028742 
L 433.57686 127.894863 
L 452.02314 132.430378 
L 470.469421 123.926291 
L 488.915702 123.548331 
L 507.361983 123.170373 
L 525.808264 122.225473 
L 544.254545 126.572004 
L 562.700826 125.816089 
L 581.147107 127.516904 
L 599.593388 118.823837 
L 618.039669 124.115271 
L 636.48595 131.485476 
L 654.932231 124.115268 
L 673.378512 123.548333 
L 691.824793 124.115271 
L 710.271074 122.792415 
L 728.717355 120.902614 
L 747.163636 124.871188 
" style="fill:none;stroke:#d3d3d3;stroke-linecap:square;stroke-width:1.5;"/>
   </g>
   <g id="line2d_46">
    <path clip-path="url(#p729decfa53)" d="M 138.436364 296.842685 
L 156.882645 250.542666 
L 175.328926 232.400617 
L 193.775207 218.038164 
L 212.221488 199.518157 
L 230.667769 189.502234 
L 249.11405 184.399781 
L 267.560331 177.974472 
L 286.006612 168.336512 
L 304.452893 163.801001 
L 322.899174 160.399363 
L 341.345455 157.186713 
L 359.791736 150.383444 
L 378.238017 150.194461 
L 396.684298 148.115689 
L 415.130579 146.603849 
L 433.57686 143.202215 
L 452.02314 136.776907 
L 470.469421 134.50915 
L 488.915702 140.556502 
L 507.361983 136.209969 
L 525.808264 130.162617 
L 544.254545 127.516904 
L 562.700826 132.808336 
L 581.147107 126.194046 
L 599.593388 132.619356 
L 618.039669 120.335678 
L 636.48595 122.036494 
L 654.932231 120.146697 
L 673.378512 126.383028 
L 691.824793 115.422206 
L 710.271074 124.871189 
L 728.717355 122.792411 
L 747.163636 121.280573 
" style="fill:none;stroke:#d3d3d3;stroke-linecap:square;stroke-width:1.5;"/>
   </g>
   <g id="line2d_47">
    <path clip-path="url(#p729decfa53)" d="M 138.436364 313.850855 
L 156.882645 263.393284 
L 175.328926 239.770825 
L 193.775207 211.612852 
L 212.221488 197.628358 
L 230.667769 191.769987 
L 249.11405 192.336933 
L 267.560331 186.100597 
L 286.006612 179.297331 
L 304.452893 178.352433 
L 322.899174 175.328758 
L 341.345455 171.927124 
L 359.791736 174.0059 
L 378.238017 171.171208 
L 396.684298 162.478141 
L 415.130579 163.61202 
L 433.57686 166.068755 
L 452.02314 164.178958 
L 470.469421 161.155287 
L 488.915702 161.722222 
L 507.361983 164.178958 
L 525.808264 163.234059 
L 544.254545 163.04508 
L 562.700826 161.533244 
L 581.147107 162.478142 
L 599.593388 158.887526 
L 618.039669 159.076506 
L 636.48595 154.540998 
L 654.932231 158.509568 
L 673.378512 156.619773 
L 691.824793 153.596098 
L 710.271074 149.816504 
L 728.717355 151.328341 
L 747.163636 149.816502 
" style="fill:none;stroke:#d3d3d3;stroke-linecap:square;stroke-width:1.5;"/>
   </g>
   <g id="line2d_48">
    <path clip-path="url(#p729decfa53)" d="M 138.436364 363.174545 
L 156.882645 305.157787 
L 175.328926 273.220226 
L 193.775207 249.597768 
L 212.221488 231.26674 
L 230.667769 221.628778 
L 249.11405 209.156118 
L 267.560331 208.022241 
L 286.006612 204.242646 
L 304.452893 195.360604 
L 322.899174 195.171623 
L 341.345455 195.927543 
L 359.791736 187.423458 
L 378.238017 180.053251 
L 396.684298 180.620188 
L 415.130579 175.706719 
L 433.57686 172.494067 
L 452.02314 171.927125 
L 470.469421 168.903452 
L 488.915702 166.824672 
L 507.361983 167.958551 
L 525.808264 161.533246 
L 544.254545 156.808754 
L 562.700826 157.186711 
L 581.147107 156.241815 
L 599.593388 157.753648 
L 618.039669 157.375692 
L 636.48595 156.997731 
L 654.932231 155.485891 
L 673.378512 159.26549 
L 691.824793 150.761402 
L 710.271074 150.761404 
L 728.717355 148.493649 
L 747.163636 146.981809 
" style="fill:none;stroke:#d3d3d3;stroke-linecap:square;stroke-width:1.5;"/>
   </g>
   <g id="patch_3">
    <path d="M 108 378 
L 108 51.84 
" style="fill:none;stroke:#000000;stroke-linecap:square;stroke-linejoin:miter;stroke-width:0.8;"/>
   </g>
   <g id="patch_4">
    <path d="M 777.6 378 
L 777.6 51.84 
" style="fill:none;stroke:#000000;stroke-linecap:square;stroke-linejoin:miter;stroke-width:0.8;"/>
   </g>
   <g id="patch_5">
    <path d="M 108 378 
L 777.6 378 
" style="fill:none;stroke:#000000;stroke-linecap:square;stroke-linejoin:miter;stroke-width:0.8;"/>
   </g>
   <g id="patch_6">
    <path d="M 108 51.84 
L 777.6 51.84 
" style="fill:none;stroke:#000000;stroke-linecap:square;stroke-linejoin:miter;stroke-width:0.8;"/>
   </g>
   <g id="text_20">
    <!-- Validation Accuracy over 35 epochs -->
    <defs>
     <path d="M 2.984375 54.6875 
L 12.5 54.6875 
L 29.59375 8.796875 
L 46.6875 54.6875 
L 56.203125 54.6875 
L 35.6875 0 
L 23.484375 0 
z
" id="DejaVuSans-76"/>
     <path d="M 44.28125 53.078125 
L 44.28125 44.578125 
Q 40.484375 46.53125 36.375 47.5 
Q 32.28125 48.484375 27.875 48.484375 
Q 21.1875 48.484375 17.84375 46.4375 
Q 14.5 44.390625 14.5 40.28125 
Q 14.5 37.15625 16.890625 35.375 
Q 19.28125 33.59375 26.515625 31.984375 
L 29.59375 31.296875 
Q 39.15625 29.25 43.1875 25.515625 
Q 47.21875 21.78125 47.21875 15.09375 
Q 47.21875 7.46875 41.1875 3.015625 
Q 35.15625 -1.421875 24.609375 -1.421875 
Q 20.21875 -1.421875 15.453125 -0.5625 
Q 10.6875 0.296875 5.421875 2 
L 5.421875 11.28125 
Q 10.40625 8.6875 15.234375 7.390625 
Q 20.0625 6.109375 24.8125 6.109375 
Q 31.15625 6.109375 34.5625 8.28125 
Q 37.984375 10.453125 37.984375 14.40625 
Q 37.984375 18.0625 35.515625 20.015625 
Q 33.0625 21.96875 24.703125 23.78125 
L 21.578125 24.515625 
Q 13.234375 26.265625 9.515625 29.90625 
Q 5.8125 33.546875 5.8125 39.890625 
Q 5.8125 47.609375 11.28125 51.796875 
Q 16.75 56 26.8125 56 
Q 31.78125 56 36.171875 55.265625 
Q 40.578125 54.546875 44.28125 53.078125 
" id="DejaVuSans-73"/>
    </defs>
    <g transform="translate(335.172188 45.84)scale(0.12 -0.12)">
     <use xlink:href="#DejaVuSans-56"/>
     <use x="68.298828" xlink:href="#DejaVuSans-61"/>
     <use x="129.578125" xlink:href="#DejaVuSans-6c"/>
     <use x="157.361328" xlink:href="#DejaVuSans-69"/>
     <use x="185.144531" xlink:href="#DejaVuSans-64"/>
     <use x="248.621094" xlink:href="#DejaVuSans-61"/>
     <use x="309.900391" xlink:href="#DejaVuSans-74"/>
     <use x="349.109375" xlink:href="#DejaVuSans-69"/>
     <use x="376.892578" xlink:href="#DejaVuSans-6f"/>
     <use x="438.074219" xlink:href="#DejaVuSans-6e"/>
     <use x="501.453125" xlink:href="#DejaVuSans-20"/>
     <use x="533.240234" xlink:href="#DejaVuSans-41"/>
     <use x="601.632812" xlink:href="#DejaVuSans-63"/>
     <use x="656.613281" xlink:href="#DejaVuSans-63"/>
     <use x="711.59375" xlink:href="#DejaVuSans-75"/>
     <use x="774.972656" xlink:href="#DejaVuSans-72"/>
     <use x="816.085938" xlink:href="#DejaVuSans-61"/>
     <use x="877.365234" xlink:href="#DejaVuSans-63"/>
     <use x="932.345703" xlink:href="#DejaVuSans-79"/>
     <use x="991.525391" xlink:href="#DejaVuSans-20"/>
     <use x="1023.3125" xlink:href="#DejaVuSans-6f"/>
     <use x="1084.494141" xlink:href="#DejaVuSans-76"/>
     <use x="1143.673828" xlink:href="#DejaVuSans-65"/>
     <use x="1205.197266" xlink:href="#DejaVuSans-72"/>
     <use x="1246.310547" xlink:href="#DejaVuSans-20"/>
     <use x="1278.097656" xlink:href="#DejaVuSans-33"/>
     <use x="1341.720703" xlink:href="#DejaVuSans-35"/>
     <use x="1405.34375" xlink:href="#DejaVuSans-20"/>
     <use x="1437.130859" xlink:href="#DejaVuSans-65"/>
     <use x="1498.654297" xlink:href="#DejaVuSans-70"/>
     <use x="1562.130859" xlink:href="#DejaVuSans-6f"/>
     <use x="1623.3125" xlink:href="#DejaVuSans-63"/>
     <use x="1678.292969" xlink:href="#DejaVuSans-68"/>
     <use x="1741.671875" xlink:href="#DejaVuSans-73"/>
    </g>
   </g>
   <g id="legend_1">
    <g id="patch_7">
     <path d="M 670.2625 373 
L 770.6 373 
Q 772.6 373 772.6 371 
L 772.6 269.253125 
Q 772.6 267.253125 770.6 267.253125 
L 670.2625 267.253125 
Q 668.2625 267.253125 668.2625 269.253125 
L 668.2625 371 
Q 668.2625 373 670.2625 373 
z
" style="fill:#ffffff;opacity:0.8;stroke:#cccccc;stroke-linejoin:miter;"/>
    </g>
    <g id="line2d_49">
     <path d="M 672.2625 275.351562 
L 692.2625 275.351562 
" style="fill:none;stroke:#1f77b4;stroke-linecap:square;stroke-width:1.5;"/>
    </g>
    <g id="line2d_50"/>
    <g id="text_21">
     <!-- num steps 3 -->
     <g transform="translate(700.2625 278.851562)scale(0.1 -0.1)">
      <use xlink:href="#DejaVuSans-6e"/>
      <use x="63.378906" xlink:href="#DejaVuSans-75"/>
      <use x="126.757812" xlink:href="#DejaVuSans-6d"/>
      <use x="224.169922" xlink:href="#DejaVuSans-20"/>
      <use x="255.957031" xlink:href="#DejaVuSans-73"/>
      <use x="308.056641" xlink:href="#DejaVuSans-74"/>
      <use x="347.265625" xlink:href="#DejaVuSans-65"/>
      <use x="408.789062" xlink:href="#DejaVuSans-70"/>
      <use x="472.265625" xlink:href="#DejaVuSans-73"/>
      <use x="524.365234" xlink:href="#DejaVuSans-20"/>
      <use x="556.152344" xlink:href="#DejaVuSans-33"/>
     </g>
    </g>
    <g id="line2d_51">
     <path d="M 672.2625 290.029688 
L 692.2625 290.029688 
" style="fill:none;stroke:#ff7f0e;stroke-linecap:square;stroke-width:1.5;"/>
    </g>
    <g id="line2d_52"/>
    <g id="text_22">
     <!-- num steps 4 -->
     <g transform="translate(700.2625 293.529688)scale(0.1 -0.1)">
      <use xlink:href="#DejaVuSans-6e"/>
      <use x="63.378906" xlink:href="#DejaVuSans-75"/>
      <use x="126.757812" xlink:href="#DejaVuSans-6d"/>
      <use x="224.169922" xlink:href="#DejaVuSans-20"/>
      <use x="255.957031" xlink:href="#DejaVuSans-73"/>
      <use x="308.056641" xlink:href="#DejaVuSans-74"/>
      <use x="347.265625" xlink:href="#DejaVuSans-65"/>
      <use x="408.789062" xlink:href="#DejaVuSans-70"/>
      <use x="472.265625" xlink:href="#DejaVuSans-73"/>
      <use x="524.365234" xlink:href="#DejaVuSans-20"/>
      <use x="556.152344" xlink:href="#DejaVuSans-34"/>
     </g>
    </g>
    <g id="line2d_53">
     <path d="M 672.2625 304.707812 
L 692.2625 304.707812 
" style="fill:none;stroke:#2ca02c;stroke-linecap:square;stroke-width:1.5;"/>
    </g>
    <g id="line2d_54"/>
    <g id="text_23">
     <!-- num steps 5 -->
     <g transform="translate(700.2625 308.207812)scale(0.1 -0.1)">
      <use xlink:href="#DejaVuSans-6e"/>
      <use x="63.378906" xlink:href="#DejaVuSans-75"/>
      <use x="126.757812" xlink:href="#DejaVuSans-6d"/>
      <use x="224.169922" xlink:href="#DejaVuSans-20"/>
      <use x="255.957031" xlink:href="#DejaVuSans-73"/>
      <use x="308.056641" xlink:href="#DejaVuSans-74"/>
      <use x="347.265625" xlink:href="#DejaVuSans-65"/>
      <use x="408.789062" xlink:href="#DejaVuSans-70"/>
      <use x="472.265625" xlink:href="#DejaVuSans-73"/>
      <use x="524.365234" xlink:href="#DejaVuSans-20"/>
      <use x="556.152344" xlink:href="#DejaVuSans-35"/>
     </g>
    </g>
    <g id="line2d_55">
     <path d="M 672.2625 319.385938 
L 692.2625 319.385938 
" style="fill:none;stroke:#d62728;stroke-linecap:square;stroke-width:1.5;"/>
    </g>
    <g id="line2d_56"/>
    <g id="text_24">
     <!-- num steps 6 -->
     <g transform="translate(700.2625 322.885938)scale(0.1 -0.1)">
      <use xlink:href="#DejaVuSans-6e"/>
      <use x="63.378906" xlink:href="#DejaVuSans-75"/>
      <use x="126.757812" xlink:href="#DejaVuSans-6d"/>
      <use x="224.169922" xlink:href="#DejaVuSans-20"/>
      <use x="255.957031" xlink:href="#DejaVuSans-73"/>
      <use x="308.056641" xlink:href="#DejaVuSans-74"/>
      <use x="347.265625" xlink:href="#DejaVuSans-65"/>
      <use x="408.789062" xlink:href="#DejaVuSans-70"/>
      <use x="472.265625" xlink:href="#DejaVuSans-73"/>
      <use x="524.365234" xlink:href="#DejaVuSans-20"/>
      <use x="556.152344" xlink:href="#DejaVuSans-36"/>
     </g>
    </g>
    <g id="line2d_57">
     <path d="M 672.2625 334.064062 
L 692.2625 334.064062 
" style="fill:none;stroke:#9467bd;stroke-linecap:square;stroke-width:1.5;"/>
    </g>
    <g id="line2d_58"/>
    <g id="text_25">
     <!-- num steps 8 -->
     <g transform="translate(700.2625 337.564062)scale(0.1 -0.1)">
      <use xlink:href="#DejaVuSans-6e"/>
      <use x="63.378906" xlink:href="#DejaVuSans-75"/>
      <use x="126.757812" xlink:href="#DejaVuSans-6d"/>
      <use x="224.169922" xlink:href="#DejaVuSans-20"/>
      <use x="255.957031" xlink:href="#DejaVuSans-73"/>
      <use x="308.056641" xlink:href="#DejaVuSans-74"/>
      <use x="347.265625" xlink:href="#DejaVuSans-65"/>
      <use x="408.789062" xlink:href="#DejaVuSans-70"/>
      <use x="472.265625" xlink:href="#DejaVuSans-73"/>
      <use x="524.365234" xlink:href="#DejaVuSans-20"/>
      <use x="556.152344" xlink:href="#DejaVuSans-38"/>
     </g>
    </g>
    <g id="line2d_59">
     <path d="M 672.2625 348.742188 
L 692.2625 348.742188 
" style="fill:none;stroke:#8c564b;stroke-linecap:square;stroke-width:1.5;"/>
    </g>
    <g id="line2d_60"/>
    <g id="text_26">
     <!-- num steps 10 -->
     <g transform="translate(700.2625 352.242188)scale(0.1 -0.1)">
      <use xlink:href="#DejaVuSans-6e"/>
      <use x="63.378906" xlink:href="#DejaVuSans-75"/>
      <use x="126.757812" xlink:href="#DejaVuSans-6d"/>
      <use x="224.169922" xlink:href="#DejaVuSans-20"/>
      <use x="255.957031" xlink:href="#DejaVuSans-73"/>
      <use x="308.056641" xlink:href="#DejaVuSans-74"/>
      <use x="347.265625" xlink:href="#DejaVuSans-65"/>
      <use x="408.789062" xlink:href="#DejaVuSans-70"/>
      <use x="472.265625" xlink:href="#DejaVuSans-73"/>
      <use x="524.365234" xlink:href="#DejaVuSans-20"/>
      <use x="556.152344" xlink:href="#DejaVuSans-31"/>
      <use x="619.775391" xlink:href="#DejaVuSans-30"/>
     </g>
    </g>
    <g id="line2d_61">
     <path d="M 672.2625 363.420313 
L 692.2625 363.420313 
" style="fill:none;stroke:#e377c2;stroke-linecap:square;stroke-width:1.5;"/>
    </g>
    <g id="line2d_62"/>
    <g id="text_27">
     <!-- num steps 15 -->
     <g transform="translate(700.2625 366.920313)scale(0.1 -0.1)">
      <use xlink:href="#DejaVuSans-6e"/>
      <use x="63.378906" xlink:href="#DejaVuSans-75"/>
      <use x="126.757812" xlink:href="#DejaVuSans-6d"/>
      <use x="224.169922" xlink:href="#DejaVuSans-20"/>
      <use x="255.957031" xlink:href="#DejaVuSans-73"/>
      <use x="308.056641" xlink:href="#DejaVuSans-74"/>
      <use x="347.265625" xlink:href="#DejaVuSans-65"/>
      <use x="408.789062" xlink:href="#DejaVuSans-70"/>
      <use x="472.265625" xlink:href="#DejaVuSans-73"/>
      <use x="524.365234" xlink:href="#DejaVuSans-20"/>
      <use x="556.152344" xlink:href="#DejaVuSans-31"/>
      <use x="619.775391" xlink:href="#DejaVuSans-35"/>
     </g>
    </g>
   </g>
  </g>
 </g>
 <defs>
  <clipPath id="p729decfa53">
   <rect height="326.16" width="669.6" x="108" y="51.84"/>
  </clipPath>
 </defs>
</svg>
