<?xml version="1.0" encoding="utf-8" standalone="no"?>
<!DOCTYPE svg PUBLIC "-//W3C//DTD SVG 1.1//EN"
  "http://www.w3.org/Graphics/SVG/1.1/DTD/svg11.dtd">
<!-- Created with matplotlib (http://matplotlib.org/) -->
<svg height="432pt" version="1.1" viewBox="0 0 864 432" width="864pt" xmlns="http://www.w3.org/2000/svg" xmlns:xlink="http://www.w3.org/1999/xlink">
 <defs>
  <style type="text/css">
*{stroke-linecap:butt;stroke-linejoin:round;}
  </style>
 </defs>
 <g id="figure_1">
  <g id="patch_1">
   <path d="M 0 432 
L 864 432 
L 864 0 
L 0 0 
z
" style="fill:#ffffff;"/>
  </g>
  <g id="axes_1">
   <g id="patch_2">
    <path d="M 108 378 
L 777.6 378 
L 777.6 51.84 
L 108 51.84 
z
" style="fill:#ffffff;"/>
   </g>
   <g id="matplotlib.axis_1">
    <g id="xtick_1">
     <g id="line2d_1">
      <defs>
       <path d="M 0 0 
L 0 3.5 
" id="m18321bc369" style="stroke:#000000;stroke-width:0.8;"/>
      </defs>
      <g>
       <use style="stroke:#000000;stroke-width:0.8;" x="138.436364" xlink:href="#m18321bc369" y="378"/>
      </g>
     </g>
     <g id="text_1">
      <!-- 0 -->
      <defs>
       <path d="M 31.78125 66.40625 
Q 24.171875 66.40625 20.328125 58.90625 
Q 16.5 51.421875 16.5 36.375 
Q 16.5 21.390625 20.328125 13.890625 
Q 24.171875 6.390625 31.78125 6.390625 
Q 39.453125 6.390625 43.28125 13.890625 
Q 47.125 21.390625 47.125 36.375 
Q 47.125 51.421875 43.28125 58.90625 
Q 39.453125 66.40625 31.78125 66.40625 
M 31.78125 74.21875 
Q 44.046875 74.21875 50.515625 64.515625 
Q 56.984375 54.828125 56.984375 36.375 
Q 56.984375 17.96875 50.515625 8.265625 
Q 44.046875 -1.421875 31.78125 -1.421875 
Q 19.53125 -1.421875 13.0625 8.265625 
Q 6.59375 17.96875 6.59375 36.375 
Q 6.59375 54.828125 13.0625 64.515625 
Q 19.53125 74.21875 31.78125 74.21875 
" id="DejaVuSans-30"/>
      </defs>
      <g transform="translate(135.255114 392.598437)scale(0.1 -0.1)">
       <use xlink:href="#DejaVuSans-30"/>
      </g>
     </g>
    </g>
    <g id="xtick_2">
     <g id="line2d_2">
      <g>
       <use style="stroke:#000000;stroke-width:0.8;" x="214.529175" xlink:href="#m18321bc369" y="378"/>
      </g>
     </g>
     <g id="text_2">
      <!-- 5000 -->
      <defs>
       <path d="M 10.796875 72.90625 
L 49.515625 72.90625 
L 49.515625 64.59375 
L 19.828125 64.59375 
L 19.828125 46.734375 
Q 21.96875 47.46875 24.109375 47.828125 
Q 26.265625 48.1875 28.421875 48.1875 
Q 40.625 48.1875 47.75 41.5 
Q 54.890625 34.8125 54.890625 23.390625 
Q 54.890625 11.625 47.5625 5.09375 
Q 40.234375 -1.421875 26.90625 -1.421875 
Q 22.3125 -1.421875 17.546875 -0.640625 
Q 12.796875 0.140625 7.71875 1.703125 
L 7.71875 11.625 
Q 12.109375 9.234375 16.796875 8.0625 
Q 21.484375 6.890625 26.703125 6.890625 
Q 35.15625 6.890625 40.078125 11.328125 
Q 45.015625 15.765625 45.015625 23.390625 
Q 45.015625 31 40.078125 35.4375 
Q 35.15625 39.890625 26.703125 39.890625 
Q 22.75 39.890625 18.8125 39.015625 
Q 14.890625 38.140625 10.796875 36.28125 
z
" id="DejaVuSans-35"/>
      </defs>
      <g transform="translate(201.804175 392.598437)scale(0.1 -0.1)">
       <use xlink:href="#DejaVuSans-35"/>
       <use x="63.623047" xlink:href="#DejaVuSans-30"/>
       <use x="127.246094" xlink:href="#DejaVuSans-30"/>
       <use x="190.869141" xlink:href="#DejaVuSans-30"/>
      </g>
     </g>
    </g>
    <g id="xtick_3">
     <g id="line2d_3">
      <g>
       <use style="stroke:#000000;stroke-width:0.8;" x="290.621986" xlink:href="#m18321bc369" y="378"/>
      </g>
     </g>
     <g id="text_3">
      <!-- 10000 -->
      <defs>
       <path d="M 12.40625 8.296875 
L 28.515625 8.296875 
L 28.515625 63.921875 
L 10.984375 60.40625 
L 10.984375 69.390625 
L 28.421875 72.90625 
L 38.28125 72.90625 
L 38.28125 8.296875 
L 54.390625 8.296875 
L 54.390625 0 
L 12.40625 0 
z
" id="DejaVuSans-31"/>
      </defs>
      <g transform="translate(274.715736 392.598437)scale(0.1 -0.1)">
       <use xlink:href="#DejaVuSans-31"/>
       <use x="63.623047" xlink:href="#DejaVuSans-30"/>
       <use x="127.246094" xlink:href="#DejaVuSans-30"/>
       <use x="190.869141" xlink:href="#DejaVuSans-30"/>
       <use x="254.492188" xlink:href="#DejaVuSans-30"/>
      </g>
     </g>
    </g>
    <g id="xtick_4">
     <g id="line2d_4">
      <g>
       <use style="stroke:#000000;stroke-width:0.8;" x="366.714798" xlink:href="#m18321bc369" y="378"/>
      </g>
     </g>
     <g id="text_4">
      <!-- 15000 -->
      <g transform="translate(350.808548 392.598437)scale(0.1 -0.1)">
       <use xlink:href="#DejaVuSans-31"/>
       <use x="63.623047" xlink:href="#DejaVuSans-35"/>
       <use x="127.246094" xlink:href="#DejaVuSans-30"/>
       <use x="190.869141" xlink:href="#DejaVuSans-30"/>
       <use x="254.492188" xlink:href="#DejaVuSans-30"/>
      </g>
     </g>
    </g>
    <g id="xtick_5">
     <g id="line2d_5">
      <g>
       <use style="stroke:#000000;stroke-width:0.8;" x="442.807609" xlink:href="#m18321bc369" y="378"/>
      </g>
     </g>
     <g id="text_5">
      <!-- 20000 -->
      <defs>
       <path d="M 19.1875 8.296875 
L 53.609375 8.296875 
L 53.609375 0 
L 7.328125 0 
L 7.328125 8.296875 
Q 12.9375 14.109375 22.625 23.890625 
Q 32.328125 33.6875 34.8125 36.53125 
Q 39.546875 41.84375 41.421875 45.53125 
Q 43.3125 49.21875 43.3125 52.78125 
Q 43.3125 58.59375 39.234375 62.25 
Q 35.15625 65.921875 28.609375 65.921875 
Q 23.96875 65.921875 18.8125 64.3125 
Q 13.671875 62.703125 7.8125 59.421875 
L 7.8125 69.390625 
Q 13.765625 71.78125 18.9375 73 
Q 24.125 74.21875 28.421875 74.21875 
Q 39.75 74.21875 46.484375 68.546875 
Q 53.21875 62.890625 53.21875 53.421875 
Q 53.21875 48.921875 51.53125 44.890625 
Q 49.859375 40.875 45.40625 35.40625 
Q 44.1875 33.984375 37.640625 27.21875 
Q 31.109375 20.453125 19.1875 8.296875 
" id="DejaVuSans-32"/>
      </defs>
      <g transform="translate(426.901359 392.598437)scale(0.1 -0.1)">
       <use xlink:href="#DejaVuSans-32"/>
       <use x="63.623047" xlink:href="#DejaVuSans-30"/>
       <use x="127.246094" xlink:href="#DejaVuSans-30"/>
       <use x="190.869141" xlink:href="#DejaVuSans-30"/>
       <use x="254.492188" xlink:href="#DejaVuSans-30"/>
      </g>
     </g>
    </g>
    <g id="xtick_6">
     <g id="line2d_6">
      <g>
       <use style="stroke:#000000;stroke-width:0.8;" x="518.900421" xlink:href="#m18321bc369" y="378"/>
      </g>
     </g>
     <g id="text_6">
      <!-- 25000 -->
      <g transform="translate(502.994171 392.598437)scale(0.1 -0.1)">
       <use xlink:href="#DejaVuSans-32"/>
       <use x="63.623047" xlink:href="#DejaVuSans-35"/>
       <use x="127.246094" xlink:href="#DejaVuSans-30"/>
       <use x="190.869141" xlink:href="#DejaVuSans-30"/>
       <use x="254.492188" xlink:href="#DejaVuSans-30"/>
      </g>
     </g>
    </g>
    <g id="xtick_7">
     <g id="line2d_7">
      <g>
       <use style="stroke:#000000;stroke-width:0.8;" x="594.993232" xlink:href="#m18321bc369" y="378"/>
      </g>
     </g>
     <g id="text_7">
      <!-- 30000 -->
      <defs>
       <path d="M 40.578125 39.3125 
Q 47.65625 37.796875 51.625 33 
Q 55.609375 28.21875 55.609375 21.1875 
Q 55.609375 10.40625 48.1875 4.484375 
Q 40.765625 -1.421875 27.09375 -1.421875 
Q 22.515625 -1.421875 17.65625 -0.515625 
Q 12.796875 0.390625 7.625 2.203125 
L 7.625 11.71875 
Q 11.71875 9.328125 16.59375 8.109375 
Q 21.484375 6.890625 26.8125 6.890625 
Q 36.078125 6.890625 40.9375 10.546875 
Q 45.796875 14.203125 45.796875 21.1875 
Q 45.796875 27.640625 41.28125 31.265625 
Q 36.765625 34.90625 28.71875 34.90625 
L 20.21875 34.90625 
L 20.21875 43.015625 
L 29.109375 43.015625 
Q 36.375 43.015625 40.234375 45.921875 
Q 44.09375 48.828125 44.09375 54.296875 
Q 44.09375 59.90625 40.109375 62.90625 
Q 36.140625 65.921875 28.71875 65.921875 
Q 24.65625 65.921875 20.015625 65.03125 
Q 15.375 64.15625 9.8125 62.3125 
L 9.8125 71.09375 
Q 15.4375 72.65625 20.34375 73.4375 
Q 25.25 74.21875 29.59375 74.21875 
Q 40.828125 74.21875 47.359375 69.109375 
Q 53.90625 64.015625 53.90625 55.328125 
Q 53.90625 49.265625 50.4375 45.09375 
Q 46.96875 40.921875 40.578125 39.3125 
" id="DejaVuSans-33"/>
      </defs>
      <g transform="translate(579.086982 392.598437)scale(0.1 -0.1)">
       <use xlink:href="#DejaVuSans-33"/>
       <use x="63.623047" xlink:href="#DejaVuSans-30"/>
       <use x="127.246094" xlink:href="#DejaVuSans-30"/>
       <use x="190.869141" xlink:href="#DejaVuSans-30"/>
       <use x="254.492188" xlink:href="#DejaVuSans-30"/>
      </g>
     </g>
    </g>
    <g id="xtick_8">
     <g id="line2d_8">
      <g>
       <use style="stroke:#000000;stroke-width:0.8;" x="671.086044" xlink:href="#m18321bc369" y="378"/>
      </g>
     </g>
     <g id="text_8">
      <!-- 35000 -->
      <g transform="translate(655.179794 392.598437)scale(0.1 -0.1)">
       <use xlink:href="#DejaVuSans-33"/>
       <use x="63.623047" xlink:href="#DejaVuSans-35"/>
       <use x="127.246094" xlink:href="#DejaVuSans-30"/>
       <use x="190.869141" xlink:href="#DejaVuSans-30"/>
       <use x="254.492188" xlink:href="#DejaVuSans-30"/>
      </g>
     </g>
    </g>
    <g id="xtick_9">
     <g id="line2d_9">
      <g>
       <use style="stroke:#000000;stroke-width:0.8;" x="747.178855" xlink:href="#m18321bc369" y="378"/>
      </g>
     </g>
     <g id="text_9">
      <!-- 40000 -->
      <defs>
       <path d="M 37.796875 64.3125 
L 12.890625 25.390625 
L 37.796875 25.390625 
z
M 35.203125 72.90625 
L 47.609375 72.90625 
L 47.609375 25.390625 
L 58.015625 25.390625 
L 58.015625 17.1875 
L 47.609375 17.1875 
L 47.609375 0 
L 37.796875 0 
L 37.796875 17.1875 
L 4.890625 17.1875 
L 4.890625 26.703125 
z
" id="DejaVuSans-34"/>
      </defs>
      <g transform="translate(731.272605 392.598437)scale(0.1 -0.1)">
       <use xlink:href="#DejaVuSans-34"/>
       <use x="63.623047" xlink:href="#DejaVuSans-30"/>
       <use x="127.246094" xlink:href="#DejaVuSans-30"/>
       <use x="190.869141" xlink:href="#DejaVuSans-30"/>
       <use x="254.492188" xlink:href="#DejaVuSans-30"/>
      </g>
     </g>
    </g>
    <g id="text_10">
     <!-- easier to more difficult songs -->
     <defs>
      <path d="M 56.203125 29.59375 
L 56.203125 25.203125 
L 14.890625 25.203125 
Q 15.484375 15.921875 20.484375 11.0625 
Q 25.484375 6.203125 34.421875 6.203125 
Q 39.59375 6.203125 44.453125 7.46875 
Q 49.3125 8.734375 54.109375 11.28125 
L 54.109375 2.78125 
Q 49.265625 0.734375 44.1875 -0.34375 
Q 39.109375 -1.421875 33.890625 -1.421875 
Q 20.796875 -1.421875 13.15625 6.1875 
Q 5.515625 13.8125 5.515625 26.8125 
Q 5.515625 40.234375 12.765625 48.109375 
Q 20.015625 56 32.328125 56 
Q 43.359375 56 49.78125 48.890625 
Q 56.203125 41.796875 56.203125 29.59375 
M 47.21875 32.234375 
Q 47.125 39.59375 43.09375 43.984375 
Q 39.0625 48.390625 32.421875 48.390625 
Q 24.90625 48.390625 20.390625 44.140625 
Q 15.875 39.890625 15.1875 32.171875 
z
" id="DejaVuSans-65"/>
      <path d="M 34.28125 27.484375 
Q 23.390625 27.484375 19.1875 25 
Q 14.984375 22.515625 14.984375 16.5 
Q 14.984375 11.71875 18.140625 8.90625 
Q 21.296875 6.109375 26.703125 6.109375 
Q 34.1875 6.109375 38.703125 11.40625 
Q 43.21875 16.703125 43.21875 25.484375 
L 43.21875 27.484375 
z
M 52.203125 31.203125 
L 52.203125 0 
L 43.21875 0 
L 43.21875 8.296875 
Q 40.140625 3.328125 35.546875 0.953125 
Q 30.953125 -1.421875 24.3125 -1.421875 
Q 15.921875 -1.421875 10.953125 3.296875 
Q 6 8.015625 6 15.921875 
Q 6 25.140625 12.171875 29.828125 
Q 18.359375 34.515625 30.609375 34.515625 
L 43.21875 34.515625 
L 43.21875 35.40625 
Q 43.21875 41.609375 39.140625 45 
Q 35.0625 48.390625 27.6875 48.390625 
Q 23 48.390625 18.546875 47.265625 
Q 14.109375 46.140625 10.015625 43.890625 
L 10.015625 52.203125 
Q 14.9375 54.109375 19.578125 55.046875 
Q 24.21875 56 28.609375 56 
Q 40.484375 56 46.34375 49.84375 
Q 52.203125 43.703125 52.203125 31.203125 
" id="DejaVuSans-61"/>
      <path d="M 44.28125 53.078125 
L 44.28125 44.578125 
Q 40.484375 46.53125 36.375 47.5 
Q 32.28125 48.484375 27.875 48.484375 
Q 21.1875 48.484375 17.84375 46.4375 
Q 14.5 44.390625 14.5 40.28125 
Q 14.5 37.15625 16.890625 35.375 
Q 19.28125 33.59375 26.515625 31.984375 
L 29.59375 31.296875 
Q 39.15625 29.25 43.1875 25.515625 
Q 47.21875 21.78125 47.21875 15.09375 
Q 47.21875 7.46875 41.1875 3.015625 
Q 35.15625 -1.421875 24.609375 -1.421875 
Q 20.21875 -1.421875 15.453125 -0.5625 
Q 10.6875 0.296875 5.421875 2 
L 5.421875 11.28125 
Q 10.40625 8.6875 15.234375 7.390625 
Q 20.0625 6.109375 24.8125 6.109375 
Q 31.15625 6.109375 34.5625 8.28125 
Q 37.984375 10.453125 37.984375 14.40625 
Q 37.984375 18.0625 35.515625 20.015625 
Q 33.0625 21.96875 24.703125 23.78125 
L 21.578125 24.515625 
Q 13.234375 26.265625 9.515625 29.90625 
Q 5.8125 33.546875 5.8125 39.890625 
Q 5.8125 47.609375 11.28125 51.796875 
Q 16.75 56 26.8125 56 
Q 31.78125 56 36.171875 55.265625 
Q 40.578125 54.546875 44.28125 53.078125 
" id="DejaVuSans-73"/>
      <path d="M 9.421875 54.6875 
L 18.40625 54.6875 
L 18.40625 0 
L 9.421875 0 
z
M 9.421875 75.984375 
L 18.40625 75.984375 
L 18.40625 64.59375 
L 9.421875 64.59375 
z
" id="DejaVuSans-69"/>
      <path d="M 41.109375 46.296875 
Q 39.59375 47.171875 37.8125 47.578125 
Q 36.03125 48 33.890625 48 
Q 26.265625 48 22.1875 43.046875 
Q 18.109375 38.09375 18.109375 28.8125 
L 18.109375 0 
L 9.078125 0 
L 9.078125 54.6875 
L 18.109375 54.6875 
L 18.109375 46.1875 
Q 20.953125 51.171875 25.484375 53.578125 
Q 30.03125 56 36.53125 56 
Q 37.453125 56 38.578125 55.875 
Q 39.703125 55.765625 41.0625 55.515625 
z
" id="DejaVuSans-72"/>
      <path id="DejaVuSans-20"/>
      <path d="M 18.3125 70.21875 
L 18.3125 54.6875 
L 36.8125 54.6875 
L 36.8125 47.703125 
L 18.3125 47.703125 
L 18.3125 18.015625 
Q 18.3125 11.328125 20.140625 9.421875 
Q 21.96875 7.515625 27.59375 7.515625 
L 36.8125 7.515625 
L 36.8125 0 
L 27.59375 0 
Q 17.1875 0 13.234375 3.875 
Q 9.28125 7.765625 9.28125 18.015625 
L 9.28125 47.703125 
L 2.6875 47.703125 
L 2.6875 54.6875 
L 9.28125 54.6875 
L 9.28125 70.21875 
z
" id="DejaVuSans-74"/>
      <path d="M 30.609375 48.390625 
Q 23.390625 48.390625 19.1875 42.75 
Q 14.984375 37.109375 14.984375 27.296875 
Q 14.984375 17.484375 19.15625 11.84375 
Q 23.34375 6.203125 30.609375 6.203125 
Q 37.796875 6.203125 41.984375 11.859375 
Q 46.1875 17.53125 46.1875 27.296875 
Q 46.1875 37.015625 41.984375 42.703125 
Q 37.796875 48.390625 30.609375 48.390625 
M 30.609375 56 
Q 42.328125 56 49.015625 48.375 
Q 55.71875 40.765625 55.71875 27.296875 
Q 55.71875 13.875 49.015625 6.21875 
Q 42.328125 -1.421875 30.609375 -1.421875 
Q 18.84375 -1.421875 12.171875 6.21875 
Q 5.515625 13.875 5.515625 27.296875 
Q 5.515625 40.765625 12.171875 48.375 
Q 18.84375 56 30.609375 56 
" id="DejaVuSans-6f"/>
      <path d="M 52 44.1875 
Q 55.375 50.25 60.0625 53.125 
Q 64.75 56 71.09375 56 
Q 79.640625 56 84.28125 50.015625 
Q 88.921875 44.046875 88.921875 33.015625 
L 88.921875 0 
L 79.890625 0 
L 79.890625 32.71875 
Q 79.890625 40.578125 77.09375 44.375 
Q 74.3125 48.1875 68.609375 48.1875 
Q 61.625 48.1875 57.5625 43.546875 
Q 53.515625 38.921875 53.515625 30.90625 
L 53.515625 0 
L 44.484375 0 
L 44.484375 32.71875 
Q 44.484375 40.625 41.703125 44.40625 
Q 38.921875 48.1875 33.109375 48.1875 
Q 26.21875 48.1875 22.15625 43.53125 
Q 18.109375 38.875 18.109375 30.90625 
L 18.109375 0 
L 9.078125 0 
L 9.078125 54.6875 
L 18.109375 54.6875 
L 18.109375 46.1875 
Q 21.1875 51.21875 25.484375 53.609375 
Q 29.78125 56 35.6875 56 
Q 41.65625 56 45.828125 52.96875 
Q 50 49.953125 52 44.1875 
" id="DejaVuSans-6d"/>
      <path d="M 45.40625 46.390625 
L 45.40625 75.984375 
L 54.390625 75.984375 
L 54.390625 0 
L 45.40625 0 
L 45.40625 8.203125 
Q 42.578125 3.328125 38.25 0.953125 
Q 33.9375 -1.421875 27.875 -1.421875 
Q 17.96875 -1.421875 11.734375 6.484375 
Q 5.515625 14.40625 5.515625 27.296875 
Q 5.515625 40.1875 11.734375 48.09375 
Q 17.96875 56 27.875 56 
Q 33.9375 56 38.25 53.625 
Q 42.578125 51.265625 45.40625 46.390625 
M 14.796875 27.296875 
Q 14.796875 17.390625 18.875 11.75 
Q 22.953125 6.109375 30.078125 6.109375 
Q 37.203125 6.109375 41.296875 11.75 
Q 45.40625 17.390625 45.40625 27.296875 
Q 45.40625 37.203125 41.296875 42.84375 
Q 37.203125 48.484375 30.078125 48.484375 
Q 22.953125 48.484375 18.875 42.84375 
Q 14.796875 37.203125 14.796875 27.296875 
" id="DejaVuSans-64"/>
      <path d="M 37.109375 75.984375 
L 37.109375 68.5 
L 28.515625 68.5 
Q 23.6875 68.5 21.796875 66.546875 
Q 19.921875 64.59375 19.921875 59.515625 
L 19.921875 54.6875 
L 34.71875 54.6875 
L 34.71875 47.703125 
L 19.921875 47.703125 
L 19.921875 0 
L 10.890625 0 
L 10.890625 47.703125 
L 2.296875 47.703125 
L 2.296875 54.6875 
L 10.890625 54.6875 
L 10.890625 58.5 
Q 10.890625 67.625 15.140625 71.796875 
Q 19.390625 75.984375 28.609375 75.984375 
z
" id="DejaVuSans-66"/>
      <path d="M 48.78125 52.59375 
L 48.78125 44.1875 
Q 44.96875 46.296875 41.140625 47.34375 
Q 37.3125 48.390625 33.40625 48.390625 
Q 24.65625 48.390625 19.8125 42.84375 
Q 14.984375 37.3125 14.984375 27.296875 
Q 14.984375 17.28125 19.8125 11.734375 
Q 24.65625 6.203125 33.40625 6.203125 
Q 37.3125 6.203125 41.140625 7.25 
Q 44.96875 8.296875 48.78125 10.40625 
L 48.78125 2.09375 
Q 45.015625 0.34375 40.984375 -0.53125 
Q 36.96875 -1.421875 32.421875 -1.421875 
Q 20.0625 -1.421875 12.78125 6.34375 
Q 5.515625 14.109375 5.515625 27.296875 
Q 5.515625 40.671875 12.859375 48.328125 
Q 20.21875 56 33.015625 56 
Q 37.15625 56 41.109375 55.140625 
Q 45.0625 54.296875 48.78125 52.59375 
" id="DejaVuSans-63"/>
      <path d="M 8.5 21.578125 
L 8.5 54.6875 
L 17.484375 54.6875 
L 17.484375 21.921875 
Q 17.484375 14.15625 20.5 10.265625 
Q 23.53125 6.390625 29.59375 6.390625 
Q 36.859375 6.390625 41.078125 11.03125 
Q 45.3125 15.671875 45.3125 23.6875 
L 45.3125 54.6875 
L 54.296875 54.6875 
L 54.296875 0 
L 45.3125 0 
L 45.3125 8.40625 
Q 42.046875 3.421875 37.71875 1 
Q 33.40625 -1.421875 27.6875 -1.421875 
Q 18.265625 -1.421875 13.375 4.4375 
Q 8.5 10.296875 8.5 21.578125 
M 31.109375 56 
z
" id="DejaVuSans-75"/>
      <path d="M 9.421875 75.984375 
L 18.40625 75.984375 
L 18.40625 0 
L 9.421875 0 
z
" id="DejaVuSans-6c"/>
      <path d="M 54.890625 33.015625 
L 54.890625 0 
L 45.90625 0 
L 45.90625 32.71875 
Q 45.90625 40.484375 42.875 44.328125 
Q 39.84375 48.1875 33.796875 48.1875 
Q 26.515625 48.1875 22.3125 43.546875 
Q 18.109375 38.921875 18.109375 30.90625 
L 18.109375 0 
L 9.078125 0 
L 9.078125 54.6875 
L 18.109375 54.6875 
L 18.109375 46.1875 
Q 21.34375 51.125 25.703125 53.5625 
Q 30.078125 56 35.796875 56 
Q 45.21875 56 50.046875 50.171875 
Q 54.890625 44.34375 54.890625 33.015625 
" id="DejaVuSans-6e"/>
      <path d="M 45.40625 27.984375 
Q 45.40625 37.75 41.375 43.109375 
Q 37.359375 48.484375 30.078125 48.484375 
Q 22.859375 48.484375 18.828125 43.109375 
Q 14.796875 37.75 14.796875 27.984375 
Q 14.796875 18.265625 18.828125 12.890625 
Q 22.859375 7.515625 30.078125 7.515625 
Q 37.359375 7.515625 41.375 12.890625 
Q 45.40625 18.265625 45.40625 27.984375 
M 54.390625 6.78125 
Q 54.390625 -7.171875 48.1875 -13.984375 
Q 42 -20.796875 29.203125 -20.796875 
Q 24.46875 -20.796875 20.265625 -20.09375 
Q 16.0625 -19.390625 12.109375 -17.921875 
L 12.109375 -9.1875 
Q 16.0625 -11.328125 19.921875 -12.34375 
Q 23.78125 -13.375 27.78125 -13.375 
Q 36.625 -13.375 41.015625 -8.765625 
Q 45.40625 -4.15625 45.40625 5.171875 
L 45.40625 9.625 
Q 42.625 4.78125 38.28125 2.390625 
Q 33.9375 0 27.875 0 
Q 17.828125 0 11.671875 7.65625 
Q 5.515625 15.328125 5.515625 27.984375 
Q 5.515625 40.671875 11.671875 48.328125 
Q 17.828125 56 27.875 56 
Q 33.9375 56 38.28125 53.609375 
Q 42.625 51.21875 45.40625 46.390625 
L 45.40625 54.6875 
L 54.390625 54.6875 
z
" id="DejaVuSans-67"/>
     </defs>
     <g transform="translate(369.746094 406.276563)scale(0.1 -0.1)">
      <use xlink:href="#DejaVuSans-65"/>
      <use x="61.523438" xlink:href="#DejaVuSans-61"/>
      <use x="122.802734" xlink:href="#DejaVuSans-73"/>
      <use x="174.902344" xlink:href="#DejaVuSans-69"/>
      <use x="202.685547" xlink:href="#DejaVuSans-65"/>
      <use x="264.208984" xlink:href="#DejaVuSans-72"/>
      <use x="305.322266" xlink:href="#DejaVuSans-20"/>
      <use x="337.109375" xlink:href="#DejaVuSans-74"/>
      <use x="376.318359" xlink:href="#DejaVuSans-6f"/>
      <use x="437.5" xlink:href="#DejaVuSans-20"/>
      <use x="469.287109" xlink:href="#DejaVuSans-6d"/>
      <use x="566.699219" xlink:href="#DejaVuSans-6f"/>
      <use x="627.880859" xlink:href="#DejaVuSans-72"/>
      <use x="668.962891" xlink:href="#DejaVuSans-65"/>
      <use x="730.486328" xlink:href="#DejaVuSans-20"/>
      <use x="762.273438" xlink:href="#DejaVuSans-64"/>
      <use x="825.75" xlink:href="#DejaVuSans-69"/>
      <use x="853.533203" xlink:href="#DejaVuSans-66"/>
      <use x="888.738281" xlink:href="#DejaVuSans-66"/>
      <use x="923.943359" xlink:href="#DejaVuSans-69"/>
      <use x="951.726562" xlink:href="#DejaVuSans-63"/>
      <use x="1006.707031" xlink:href="#DejaVuSans-75"/>
      <use x="1070.085938" xlink:href="#DejaVuSans-6c"/>
      <use x="1097.869141" xlink:href="#DejaVuSans-74"/>
      <use x="1137.078125" xlink:href="#DejaVuSans-20"/>
      <use x="1168.865234" xlink:href="#DejaVuSans-73"/>
      <use x="1220.964844" xlink:href="#DejaVuSans-6f"/>
      <use x="1282.146484" xlink:href="#DejaVuSans-6e"/>
      <use x="1345.525391" xlink:href="#DejaVuSans-67"/>
      <use x="1409.001953" xlink:href="#DejaVuSans-73"/>
     </g>
    </g>
   </g>
   <g id="matplotlib.axis_2">
    <g id="ytick_1">
     <g id="line2d_10">
      <defs>
       <path d="M 0 0 
L -3.5 0 
" id="m50180fff9a" style="stroke:#000000;stroke-width:0.8;"/>
      </defs>
      <g>
       <use style="stroke:#000000;stroke-width:0.8;" x="108" xlink:href="#m50180fff9a" y="363.180667"/>
      </g>
     </g>
     <g id="text_11">
      <!-- 0 -->
      <g transform="translate(94.6375 366.979886)scale(0.1 -0.1)">
       <use xlink:href="#DejaVuSans-30"/>
      </g>
     </g>
    </g>
    <g id="ytick_2">
     <g id="line2d_11">
      <g>
       <use style="stroke:#000000;stroke-width:0.8;" x="108" xlink:href="#m50180fff9a" y="297.544795"/>
      </g>
     </g>
     <g id="text_12">
      <!-- 2 -->
      <g transform="translate(94.6375 301.344014)scale(0.1 -0.1)">
       <use xlink:href="#DejaVuSans-32"/>
      </g>
     </g>
    </g>
    <g id="ytick_3">
     <g id="line2d_12">
      <g>
       <use style="stroke:#000000;stroke-width:0.8;" x="108" xlink:href="#m50180fff9a" y="231.908923"/>
      </g>
     </g>
     <g id="text_13">
      <!-- 4 -->
      <g transform="translate(94.6375 235.708141)scale(0.1 -0.1)">
       <use xlink:href="#DejaVuSans-34"/>
      </g>
     </g>
    </g>
    <g id="ytick_4">
     <g id="line2d_13">
      <g>
       <use style="stroke:#000000;stroke-width:0.8;" x="108" xlink:href="#m50180fff9a" y="166.27305"/>
      </g>
     </g>
     <g id="text_14">
      <!-- 6 -->
      <defs>
       <path d="M 33.015625 40.375 
Q 26.375 40.375 22.484375 35.828125 
Q 18.609375 31.296875 18.609375 23.390625 
Q 18.609375 15.53125 22.484375 10.953125 
Q 26.375 6.390625 33.015625 6.390625 
Q 39.65625 6.390625 43.53125 10.953125 
Q 47.40625 15.53125 47.40625 23.390625 
Q 47.40625 31.296875 43.53125 35.828125 
Q 39.65625 40.375 33.015625 40.375 
M 52.59375 71.296875 
L 52.59375 62.3125 
Q 48.875 64.0625 45.09375 64.984375 
Q 41.3125 65.921875 37.59375 65.921875 
Q 27.828125 65.921875 22.671875 59.328125 
Q 17.53125 52.734375 16.796875 39.40625 
Q 19.671875 43.65625 24.015625 45.921875 
Q 28.375 48.1875 33.59375 48.1875 
Q 44.578125 48.1875 50.953125 41.515625 
Q 57.328125 34.859375 57.328125 23.390625 
Q 57.328125 12.15625 50.6875 5.359375 
Q 44.046875 -1.421875 33.015625 -1.421875 
Q 20.359375 -1.421875 13.671875 8.265625 
Q 6.984375 17.96875 6.984375 36.375 
Q 6.984375 53.65625 15.1875 63.9375 
Q 23.390625 74.21875 37.203125 74.21875 
Q 40.921875 74.21875 44.703125 73.484375 
Q 48.484375 72.75 52.59375 71.296875 
" id="DejaVuSans-36"/>
      </defs>
      <g transform="translate(94.6375 170.072269)scale(0.1 -0.1)">
       <use xlink:href="#DejaVuSans-36"/>
      </g>
     </g>
    </g>
    <g id="ytick_5">
     <g id="line2d_14">
      <g>
       <use style="stroke:#000000;stroke-width:0.8;" x="108" xlink:href="#m50180fff9a" y="100.637178"/>
      </g>
     </g>
     <g id="text_15">
      <!-- 8 -->
      <defs>
       <path d="M 31.78125 34.625 
Q 24.75 34.625 20.71875 30.859375 
Q 16.703125 27.09375 16.703125 20.515625 
Q 16.703125 13.921875 20.71875 10.15625 
Q 24.75 6.390625 31.78125 6.390625 
Q 38.8125 6.390625 42.859375 10.171875 
Q 46.921875 13.96875 46.921875 20.515625 
Q 46.921875 27.09375 42.890625 30.859375 
Q 38.875 34.625 31.78125 34.625 
M 21.921875 38.8125 
Q 15.578125 40.375 12.03125 44.71875 
Q 8.5 49.078125 8.5 55.328125 
Q 8.5 64.0625 14.71875 69.140625 
Q 20.953125 74.21875 31.78125 74.21875 
Q 42.671875 74.21875 48.875 69.140625 
Q 55.078125 64.0625 55.078125 55.328125 
Q 55.078125 49.078125 51.53125 44.71875 
Q 48 40.375 41.703125 38.8125 
Q 48.828125 37.15625 52.796875 32.3125 
Q 56.78125 27.484375 56.78125 20.515625 
Q 56.78125 9.90625 50.3125 4.234375 
Q 43.84375 -1.421875 31.78125 -1.421875 
Q 19.734375 -1.421875 13.25 4.234375 
Q 6.78125 9.90625 6.78125 20.515625 
Q 6.78125 27.484375 10.78125 32.3125 
Q 14.796875 37.15625 21.921875 38.8125 
M 18.3125 54.390625 
Q 18.3125 48.734375 21.84375 45.5625 
Q 25.390625 42.390625 31.78125 42.390625 
Q 38.140625 42.390625 41.71875 45.5625 
Q 45.3125 48.734375 45.3125 54.390625 
Q 45.3125 60.0625 41.71875 63.234375 
Q 38.140625 66.40625 31.78125 66.40625 
Q 25.390625 66.40625 21.84375 63.234375 
Q 18.3125 60.0625 18.3125 54.390625 
" id="DejaVuSans-38"/>
      </defs>
      <g transform="translate(94.6375 104.436396)scale(0.1 -0.1)">
       <use xlink:href="#DejaVuSans-38"/>
      </g>
     </g>
    </g>
    <g id="text_16">
     <!-- cross entropy -->
     <defs>
      <path d="M 18.109375 8.203125 
L 18.109375 -20.796875 
L 9.078125 -20.796875 
L 9.078125 54.6875 
L 18.109375 54.6875 
L 18.109375 46.390625 
Q 20.953125 51.265625 25.265625 53.625 
Q 29.59375 56 35.59375 56 
Q 45.5625 56 51.78125 48.09375 
Q 58.015625 40.1875 58.015625 27.296875 
Q 58.015625 14.40625 51.78125 6.484375 
Q 45.5625 -1.421875 35.59375 -1.421875 
Q 29.59375 -1.421875 25.265625 0.953125 
Q 20.953125 3.328125 18.109375 8.203125 
M 48.6875 27.296875 
Q 48.6875 37.203125 44.609375 42.84375 
Q 40.53125 48.484375 33.40625 48.484375 
Q 26.265625 48.484375 22.1875 42.84375 
Q 18.109375 37.203125 18.109375 27.296875 
Q 18.109375 17.390625 22.1875 11.75 
Q 26.265625 6.109375 33.40625 6.109375 
Q 40.53125 6.109375 44.609375 11.75 
Q 48.6875 17.390625 48.6875 27.296875 
" id="DejaVuSans-70"/>
      <path d="M 32.171875 -5.078125 
Q 28.375 -14.84375 24.75 -17.8125 
Q 21.140625 -20.796875 15.09375 -20.796875 
L 7.90625 -20.796875 
L 7.90625 -13.28125 
L 13.1875 -13.28125 
Q 16.890625 -13.28125 18.9375 -11.515625 
Q 21 -9.765625 23.484375 -3.21875 
L 25.09375 0.875 
L 2.984375 54.6875 
L 12.5 54.6875 
L 29.59375 11.921875 
L 46.6875 54.6875 
L 56.203125 54.6875 
z
" id="DejaVuSans-79"/>
     </defs>
     <g transform="translate(88.557812 249.033281)rotate(-90)scale(0.1 -0.1)">
      <use xlink:href="#DejaVuSans-63"/>
      <use x="54.980469" xlink:href="#DejaVuSans-72"/>
      <use x="96.0625" xlink:href="#DejaVuSans-6f"/>
      <use x="157.244141" xlink:href="#DejaVuSans-73"/>
      <use x="209.34375" xlink:href="#DejaVuSans-73"/>
      <use x="261.443359" xlink:href="#DejaVuSans-20"/>
      <use x="293.230469" xlink:href="#DejaVuSans-65"/>
      <use x="354.753906" xlink:href="#DejaVuSans-6e"/>
      <use x="418.132812" xlink:href="#DejaVuSans-74"/>
      <use x="457.341797" xlink:href="#DejaVuSans-72"/>
      <use x="498.423828" xlink:href="#DejaVuSans-6f"/>
      <use x="559.605469" xlink:href="#DejaVuSans-70"/>
      <use x="623.082031" xlink:href="#DejaVuSans-79"/>
     </g>
    </g>
   </g>
   <g id="line2d_15">
    <path clip-path="url(#pb493a68cad)" d="M 138.436364 363.174545 
L 138.755953 363.145543 
L 143.245429 363.048728 
L 162.725189 362.743269 
L 170.12141 362.629211 
L 260.245736 360.718308 
L 268.996409 360.470544 
L 273.561978 360.353002 
L 302.842492 359.371725 
L 308.397267 359.173584 
L 312.080159 359.038288 
L 314.545566 358.939467 
L 318.31977 358.801402 
L 319.019824 358.773195 
L 320.75474 358.685374 
L 335.516745 358.091431 
L 339.093107 357.922993 
L 341.558514 357.800113 
L 342.852092 357.74105 
L 345.195751 357.623571 
L 354.935631 357.167862 
L 357.964125 357.00537 
L 360.596936 356.885607 
L 361.433957 356.83619 
L 366.334334 356.579252 
L 366.866983 356.55617 
L 371.478208 356.297063 
L 374.263205 356.135079 
L 376.835142 355.988341 
L 382.587758 355.650134 
L 383.790025 355.568119 
L 413.968434 353.599025 
L 425.12364 352.727463 
L 426.432436 352.611198 
L 429.369619 352.377657 
L 440.05305 351.521456 
L 441.650999 351.412323 
L 443.462007 351.256024 
L 443.949001 351.220869 
L 447.768861 350.857155 
L 448.51457 350.782768 
L 449.884241 350.665144 
L 453.749756 350.322245 
L 457.554396 349.957836 
L 458.437073 349.848149 
L 458.89363 349.798541 
L 474.76659 348.156146 
L 475.390551 348.080615 
L 476.394976 347.96963 
L 476.805877 347.935906 
L 483.532482 347.175868 
L 484.50647 347.034267 
L 486.19573 346.839449 
L 487.458871 346.708418 
L 488.219799 346.61597 
L 489.498158 346.478417 
L 491.430916 346.223954 
L 497.716182 345.493688 
L 497.959679 345.452636 
L 498.431454 345.400073 
L 499.511972 345.284385 
L 500.135933 345.200191 
L 501.155577 345.075139 
L 503.438361 344.755211 
L 503.66664 344.72585 
L 509.404038 344.020114 
L 510.256277 343.903284 
L 510.54543 343.850624 
L 512.812996 343.556518 
L 513.923951 343.419055 
L 514.319633 343.359586 
L 516.130642 343.120137 
L 516.648073 343.059948 
L 518.976514 342.694556 
L 520.467933 342.49483 
L 523.435552 342.041891 
L 524.348666 341.9291 
L 527.179319 341.521533 
L 530.223031 341.05555 
L 531.303549 340.888247 
L 532.094914 340.772371 
L 532.307974 340.732324 
L 536.462642 340.038824 
L 537.482285 339.87857 
L 537.680127 339.848695 
L 538.304088 339.740409 
L 538.821519 339.669551 
L 539.962911 339.515361 
L 542.976186 339.041895 
L 543.858863 338.864482 
L 544.148016 338.806255 
L 545.274189 338.61432 
L 548.287464 338.092223 
L 549.18536 337.953387 
L 549.991943 337.798045 
L 551.08768 337.554579 
L 551.742078 337.433209 
L 552.579099 337.253224 
L 553.233497 337.143115 
L 554.877102 336.851613 
L 555.577156 336.717731 
L 556.672892 336.516174 
L 557.525132 336.3694 
L 558.149093 336.268724 
L 559.853572 335.983988 
L 560.203599 335.910096 
L 569.456485 333.952127 
L 569.882604 333.864775 
L 570.506565 333.745625 
L 570.871811 333.671299 
L 571.404461 333.564989 
L 571.632739 333.528979 
L 573.124158 333.216865 
L 573.474185 333.118448 
L 574.113365 332.995575 
L 574.539484 332.888361 
L 575.102571 332.744934 
L 577.035329 332.319269 
L 578.450655 332.034177 
L 578.861556 331.923962 
L 580.839969 331.545144 
L 580.992155 331.488385 
L 582.011798 331.276598 
L 582.20964 331.210515 
L 582.727071 331.090503 
L 583.335813 330.938962 
L 585.268571 330.513019 
L 585.557723 330.40309 
L 587.810071 329.900575 
L 588.905807 329.651994 
L 589.377583 329.503322 
L 597.093394 327.662443 
L 597.412984 327.579254 
L 605.204887 325.493267 
L 605.448384 325.421251 
L 605.950597 325.296475 
L 606.848492 325.084974 
L 607.335486 324.973312 
L 612.038022 323.604413 
L 613.301163 323.277603 
L 613.499004 323.224894 
L 618.399381 321.791748 
L 618.734189 321.671812 
L 619.35815 321.467352 
L 620.058204 321.299069 
L 620.347357 321.188209 
L 620.819132 320.996742 
L 621.351782 320.809351 
L 621.519186 320.754459 
L 622.127929 320.588538 
L 622.477956 320.466885 
L 622.85842 320.349917 
L 623.878063 320.06892 
L 624.273746 319.958721 
L 624.532461 319.884412 
L 626.510875 319.188424 
L 627.08918 319.040965 
L 627.40877 318.947678 
L 627.72836 318.838497 
L 628.382758 318.662854 
L 628.748003 318.55404 
L 628.9915 318.492677 
L 629.280653 318.386015 
L 629.554587 318.255054 
L 632.796141 317.225355 
L 633.465758 317.065201 
L 633.602725 316.992422 
L 639.811898 315.023422 
L 640.131488 314.887363 
L 640.618482 314.730699 
L 640.861979 314.626686 
L 641.851185 314.317946 
L 642.155557 314.205811 
L 642.505584 314.10049 
L 642.901266 313.941631 
L 643.296949 313.777546 
L 643.662194 313.60787 
L 644.13397 313.470383 
L 644.483997 313.354664 
L 646.112383 312.693459 
L 646.35588 312.58716 
L 646.827655 312.402849 
L 647.284212 312.256047 
L 648.456041 311.782131 
L 648.851724 311.658208 
L 649.049565 311.570523 
L 649.612652 311.318652 
L 649.840931 311.240909 
L 650.540984 310.972668 
L 651.058416 310.790149 
L 651.378005 310.674183 
L 652.017185 310.376316 
L 652.215026 310.247252 
L 652.519398 310.118208 
L 652.671583 310.064912 
L 653.995598 309.55802 
L 654.178221 309.475668 
L 654.513029 309.375977 
L 654.665215 309.312314 
L 657.876331 307.931799 
L 658.21114 307.795408 
L 658.895975 307.464166 
L 659.550373 307.217079 
L 659.717777 307.129649 
L 660.052586 307.005108 
L 660.554798 306.761683 
L 661.117885 306.530397 
L 661.361382 306.422683 
L 664.66381 304.943271 
L 664.937744 304.775802 
L 665.257334 304.531007 
L 665.713891 304.300962 
L 666.413945 303.91453 
L 668.909789 302.793449 
L 669.290253 302.547689 
L 670.188148 302.193231 
L 670.842547 301.852795 
L 671.055606 301.755671 
L 671.238229 301.684039 
L 675.027651 299.901772 
L 675.25593 299.781953 
L 676.062513 299.29459 
L 676.534289 299.052163 
L 676.73213 298.948388 
L 676.914753 298.835736 
L 677.188687 298.631089 
L 677.538714 298.47072 
L 677.766992 298.337075 
L 677.995271 298.187566 
L 678.314861 298.054211 
L 679.319286 297.391789 
L 679.501908 297.272654 
L 680.110651 297.001547 
L 680.278055 296.897279 
L 680.582426 296.756032 
L 680.825923 296.614379 
L 681.358573 296.310918 
L 681.586851 296.207714 
L 681.754256 296.13134 
L 682.302124 295.943577 
L 682.499965 295.835068 
L 682.849992 295.69376 
L 687.506872 292.920587 
L 687.628621 292.850637 
L 687.765588 292.704946 
L 688.024303 292.576477 
L 688.435205 292.32022 
L 688.58739 292.241256 
L 688.754794 292.121723 
L 690.717989 290.993655 
L 690.961486 290.847659 
L 691.144109 290.730622 
L 691.585447 290.442958 
L 691.722414 290.319316 
L 691.844162 290.212826 
L 692.057222 289.985144 
L 692.802932 289.461026 
L 692.955118 289.302136 
L 693.229052 289.118027 
L 693.594297 288.887411 
L 693.716046 288.765514 
L 693.868231 288.67037 
L 694.187821 288.470847 
L 694.568285 288.289689 
L 694.796564 288.162292 
L 695.024842 287.974905 
L 695.283558 287.81711 
L 695.496617 287.589796 
L 695.755333 287.469707 
L 696.257546 287.046688 
L 696.394513 286.92717 
L 697.703309 286.033373 
L 697.946806 285.839124 
L 698.068554 285.677761 
L 698.266396 285.513363 
L 701.462294 283.097014 
L 701.797102 282.913727 
L 701.934069 282.791025 
L 702.147129 282.676061 
L 702.527593 282.245789 
L 702.786309 282.125724 
L 703.014587 281.990268 
L 703.227647 281.85629 
L 703.349396 281.768743 
L 703.608111 281.514333 
L 703.745078 281.379009 
L 703.942919 281.203555 
L 704.856033 280.408822 
L 705.038656 280.251074 
L 705.495213 279.83876 
L 705.830021 279.5591 
L 705.997425 279.392698 
L 706.317015 279.168388 
L 706.453982 279.002487 
L 706.621386 278.829223 
L 706.819228 278.563992 
L 707.017069 278.377513 
L 707.367096 278.064043 
L 707.519282 277.924613 
L 707.686686 277.715028 
L 707.85409 277.593202 
L 708.036713 277.426034 
L 708.401958 277.151788 
L 708.584581 276.960654 
L 708.934608 276.661574 
L 709.984689 275.723795 
L 710.167311 275.515713 
L 710.28906 275.43455 
L 710.441246 275.242344 
L 710.532557 275.135634 
L 711.887009 273.932249 
L 712.130506 273.700654 
L 712.313129 273.5749 
L 712.51097 273.28902 
L 712.647937 273.182272 
L 712.815341 273.076697 
L 713.621925 272.346719 
L 713.819766 272.025785 
L 713.911078 271.9082 
L 714.078482 271.789543 
L 715.067689 270.575101 
L 715.204656 270.427283 
L 715.752524 269.923493 
L 715.904709 269.630633 
L 716.041676 269.491006 
L 716.300392 269.102994 
L 716.422141 268.997826 
L 716.619982 268.718448 
L 717.59397 267.367486 
L 718.385335 266.502858 
L 718.552739 266.327106 
L 719.1767 265.897961 
L 719.268012 265.851508 
L 719.404979 265.593021 
L 719.526727 265.485951 
L 719.694131 265.301499 
L 719.846317 265.136779 
L 719.983284 264.904246 
L 720.044158 264.78314 
L 720.592027 264.260868 
L 720.744212 263.947188 
L 720.835524 263.788423 
L 722.14432 261.990938 
L 722.311724 261.702483 
L 722.555221 261.447142 
L 723.498772 260.475437 
L 723.635739 260.158173 
L 723.818362 259.965614 
L 724.000985 259.681604 
L 724.655383 258.711135 
L 724.822787 258.585217 
L 724.959754 258.473312 
L 725.279344 258.092741 
L 725.431529 257.72551 
L 726.922949 255.445126 
L 727.181664 254.969168 
L 727.288194 254.784504 
L 727.501254 254.477936 
L 727.562128 254.422093 
L 727.699095 254.095166 
L 727.775188 253.985648 
L 727.927374 253.748474 
L 728.033904 253.70224 
L 728.216526 253.245717 
L 728.520898 252.921278 
L 728.551335 252.908055 
L 728.733957 252.328212 
L 729.007892 251.983414 
L 731.960293 246.599604 
L 732.264664 245.925219 
L 732.31032 245.764341 
L 732.447287 245.254065 
L 732.721221 244.615828 
L 733.162559 243.562757 
L 733.345182 243.265734 
L 733.877831 241.929263 
L 733.908269 241.782345 
L 734.273514 240.658549 
L 734.364825 240.529649 
L 734.501793 240.286889 
L 734.577885 240.101787 
L 734.790945 239.673198 
L 735.521436 238.118911 
L 735.68884 237.812014 
L 735.841026 237.331635 
L 736.160616 236.513351 
L 736.343239 236.307757 
L 736.601954 235.517343 
L 736.632391 235.512742 
L 736.784577 234.90315 
L 740.117442 223.10872 
L 740.528343 220.642107 
L 740.741403 220.086308 
L 743.435089 206.778324 
L 743.800334 202.978198 
L 743.84599 202.856043 
L 743.937301 202.159343 
L 744.515607 196.018499 
L 744.713448 192.800227 
L 745.246098 187.016363 
L 745.261316 186.998884 
L 746.189648 171.828143 
L 746.326615 167.886114 
L 746.341834 167.875582 
L 746.554894 161.544308 
L 746.570112 161.442919 
L 746.844047 150.501708 
L 747.011451 142.883085 
L 747.148418 97.356123 
L 747.163636 66.665455 
L 747.163636 66.665455 
" style="fill:none;stroke:#1f77b4;stroke-linecap:square;stroke-width:1.5;"/>
   </g>
   <g id="patch_3">
    <path d="M 108 378 
L 108 51.84 
" style="fill:none;stroke:#000000;stroke-linecap:square;stroke-linejoin:miter;stroke-width:0.8;"/>
   </g>
   <g id="patch_4">
    <path d="M 777.6 378 
L 777.6 51.84 
" style="fill:none;stroke:#000000;stroke-linecap:square;stroke-linejoin:miter;stroke-width:0.8;"/>
   </g>
   <g id="patch_5">
    <path d="M 108 378 
L 777.6 378 
" style="fill:none;stroke:#000000;stroke-linecap:square;stroke-linejoin:miter;stroke-width:0.8;"/>
   </g>
   <g id="patch_6">
    <path d="M 108 51.84 
L 777.6 51.84 
" style="fill:none;stroke:#000000;stroke-linecap:square;stroke-linejoin:miter;stroke-width:0.8;"/>
   </g>
   <g id="text_17">
    <!-- cross entropy of each of the instance of training data of fixed-length of MSD-10 -->
    <defs>
     <path d="M 54.890625 33.015625 
L 54.890625 0 
L 45.90625 0 
L 45.90625 32.71875 
Q 45.90625 40.484375 42.875 44.328125 
Q 39.84375 48.1875 33.796875 48.1875 
Q 26.515625 48.1875 22.3125 43.546875 
Q 18.109375 38.921875 18.109375 30.90625 
L 18.109375 0 
L 9.078125 0 
L 9.078125 75.984375 
L 18.109375 75.984375 
L 18.109375 46.1875 
Q 21.34375 51.125 25.703125 53.5625 
Q 30.078125 56 35.796875 56 
Q 45.21875 56 50.046875 50.171875 
Q 54.890625 44.34375 54.890625 33.015625 
" id="DejaVuSans-68"/>
     <path d="M 54.890625 54.6875 
L 35.109375 28.078125 
L 55.90625 0 
L 45.3125 0 
L 29.390625 21.484375 
L 13.484375 0 
L 2.875 0 
L 24.125 28.609375 
L 4.6875 54.6875 
L 15.28125 54.6875 
L 29.78125 35.203125 
L 44.28125 54.6875 
z
" id="DejaVuSans-78"/>
     <path d="M 4.890625 31.390625 
L 31.203125 31.390625 
L 31.203125 23.390625 
L 4.890625 23.390625 
z
" id="DejaVuSans-2d"/>
     <path d="M 9.8125 72.90625 
L 24.515625 72.90625 
L 43.109375 23.296875 
L 61.8125 72.90625 
L 76.515625 72.90625 
L 76.515625 0 
L 66.890625 0 
L 66.890625 64.015625 
L 48.09375 14.015625 
L 38.1875 14.015625 
L 19.390625 64.015625 
L 19.390625 0 
L 9.8125 0 
z
" id="DejaVuSans-4d"/>
     <path d="M 53.515625 70.515625 
L 53.515625 60.890625 
Q 47.90625 63.578125 42.921875 64.890625 
Q 37.9375 66.21875 33.296875 66.21875 
Q 25.25 66.21875 20.875 63.09375 
Q 16.5 59.96875 16.5 54.203125 
Q 16.5 49.359375 19.40625 46.890625 
Q 22.3125 44.4375 30.421875 42.921875 
L 36.375 41.703125 
Q 47.40625 39.59375 52.65625 34.296875 
Q 57.90625 29 57.90625 20.125 
Q 57.90625 9.515625 50.796875 4.046875 
Q 43.703125 -1.421875 29.984375 -1.421875 
Q 24.8125 -1.421875 18.96875 -0.25 
Q 13.140625 0.921875 6.890625 3.21875 
L 6.890625 13.375 
Q 12.890625 10.015625 18.65625 8.296875 
Q 24.421875 6.59375 29.984375 6.59375 
Q 38.421875 6.59375 43.015625 9.90625 
Q 47.609375 13.234375 47.609375 19.390625 
Q 47.609375 24.75 44.3125 27.78125 
Q 41.015625 30.8125 33.5 32.328125 
L 27.484375 33.5 
Q 16.453125 35.6875 11.515625 40.375 
Q 6.59375 45.0625 6.59375 53.421875 
Q 6.59375 63.09375 13.40625 68.65625 
Q 20.21875 74.21875 32.171875 74.21875 
Q 37.3125 74.21875 42.625 73.28125 
Q 47.953125 72.359375 53.515625 70.515625 
" id="DejaVuSans-53"/>
     <path d="M 19.671875 64.796875 
L 19.671875 8.109375 
L 31.59375 8.109375 
Q 46.6875 8.109375 53.6875 14.9375 
Q 60.6875 21.78125 60.6875 36.53125 
Q 60.6875 51.171875 53.6875 57.984375 
Q 46.6875 64.796875 31.59375 64.796875 
z
M 9.8125 72.90625 
L 30.078125 72.90625 
Q 51.265625 72.90625 61.171875 64.09375 
Q 71.09375 55.28125 71.09375 36.53125 
Q 71.09375 17.671875 61.125 8.828125 
Q 51.171875 0 30.078125 0 
L 9.8125 0 
z
" id="DejaVuSans-44"/>
    </defs>
    <g transform="translate(204.047813 45.84)scale(0.12 -0.12)">
     <use xlink:href="#DejaVuSans-63"/>
     <use x="54.980469" xlink:href="#DejaVuSans-72"/>
     <use x="96.0625" xlink:href="#DejaVuSans-6f"/>
     <use x="157.244141" xlink:href="#DejaVuSans-73"/>
     <use x="209.34375" xlink:href="#DejaVuSans-73"/>
     <use x="261.443359" xlink:href="#DejaVuSans-20"/>
     <use x="293.230469" xlink:href="#DejaVuSans-65"/>
     <use x="354.753906" xlink:href="#DejaVuSans-6e"/>
     <use x="418.132812" xlink:href="#DejaVuSans-74"/>
     <use x="457.341797" xlink:href="#DejaVuSans-72"/>
     <use x="498.423828" xlink:href="#DejaVuSans-6f"/>
     <use x="559.605469" xlink:href="#DejaVuSans-70"/>
     <use x="623.082031" xlink:href="#DejaVuSans-79"/>
     <use x="682.261719" xlink:href="#DejaVuSans-20"/>
     <use x="714.048828" xlink:href="#DejaVuSans-6f"/>
     <use x="775.230469" xlink:href="#DejaVuSans-66"/>
     <use x="810.435547" xlink:href="#DejaVuSans-20"/>
     <use x="842.222656" xlink:href="#DejaVuSans-65"/>
     <use x="903.746094" xlink:href="#DejaVuSans-61"/>
     <use x="965.025391" xlink:href="#DejaVuSans-63"/>
     <use x="1020.005859" xlink:href="#DejaVuSans-68"/>
     <use x="1083.384766" xlink:href="#DejaVuSans-20"/>
     <use x="1115.171875" xlink:href="#DejaVuSans-6f"/>
     <use x="1176.353516" xlink:href="#DejaVuSans-66"/>
     <use x="1211.558594" xlink:href="#DejaVuSans-20"/>
     <use x="1243.345703" xlink:href="#DejaVuSans-74"/>
     <use x="1282.554688" xlink:href="#DejaVuSans-68"/>
     <use x="1345.933594" xlink:href="#DejaVuSans-65"/>
     <use x="1407.457031" xlink:href="#DejaVuSans-20"/>
     <use x="1439.244141" xlink:href="#DejaVuSans-69"/>
     <use x="1467.027344" xlink:href="#DejaVuSans-6e"/>
     <use x="1530.40625" xlink:href="#DejaVuSans-73"/>
     <use x="1582.505859" xlink:href="#DejaVuSans-74"/>
     <use x="1621.714844" xlink:href="#DejaVuSans-61"/>
     <use x="1682.994141" xlink:href="#DejaVuSans-6e"/>
     <use x="1746.373047" xlink:href="#DejaVuSans-63"/>
     <use x="1801.353516" xlink:href="#DejaVuSans-65"/>
     <use x="1862.876953" xlink:href="#DejaVuSans-20"/>
     <use x="1894.664062" xlink:href="#DejaVuSans-6f"/>
     <use x="1955.845703" xlink:href="#DejaVuSans-66"/>
     <use x="1991.050781" xlink:href="#DejaVuSans-20"/>
     <use x="2022.837891" xlink:href="#DejaVuSans-74"/>
     <use x="2062.046875" xlink:href="#DejaVuSans-72"/>
     <use x="2103.160156" xlink:href="#DejaVuSans-61"/>
     <use x="2164.439453" xlink:href="#DejaVuSans-69"/>
     <use x="2192.222656" xlink:href="#DejaVuSans-6e"/>
     <use x="2255.601562" xlink:href="#DejaVuSans-69"/>
     <use x="2283.384766" xlink:href="#DejaVuSans-6e"/>
     <use x="2346.763672" xlink:href="#DejaVuSans-67"/>
     <use x="2410.240234" xlink:href="#DejaVuSans-20"/>
     <use x="2442.027344" xlink:href="#DejaVuSans-64"/>
     <use x="2505.503906" xlink:href="#DejaVuSans-61"/>
     <use x="2566.783203" xlink:href="#DejaVuSans-74"/>
     <use x="2605.992188" xlink:href="#DejaVuSans-61"/>
     <use x="2667.271484" xlink:href="#DejaVuSans-20"/>
     <use x="2699.058594" xlink:href="#DejaVuSans-6f"/>
     <use x="2760.240234" xlink:href="#DejaVuSans-66"/>
     <use x="2795.445312" xlink:href="#DejaVuSans-20"/>
     <use x="2827.232422" xlink:href="#DejaVuSans-66"/>
     <use x="2862.4375" xlink:href="#DejaVuSans-69"/>
     <use x="2890.220703" xlink:href="#DejaVuSans-78"/>
     <use x="2949.353516" xlink:href="#DejaVuSans-65"/>
     <use x="3010.876953" xlink:href="#DejaVuSans-64"/>
     <use x="3074.353516" xlink:href="#DejaVuSans-2d"/>
     <use x="3110.4375" xlink:href="#DejaVuSans-6c"/>
     <use x="3138.220703" xlink:href="#DejaVuSans-65"/>
     <use x="3199.744141" xlink:href="#DejaVuSans-6e"/>
     <use x="3263.123047" xlink:href="#DejaVuSans-67"/>
     <use x="3326.599609" xlink:href="#DejaVuSans-74"/>
     <use x="3365.808594" xlink:href="#DejaVuSans-68"/>
     <use x="3429.1875" xlink:href="#DejaVuSans-20"/>
     <use x="3460.974609" xlink:href="#DejaVuSans-6f"/>
     <use x="3522.15625" xlink:href="#DejaVuSans-66"/>
     <use x="3557.361328" xlink:href="#DejaVuSans-20"/>
     <use x="3589.148438" xlink:href="#DejaVuSans-4d"/>
     <use x="3675.427734" xlink:href="#DejaVuSans-53"/>
     <use x="3738.904297" xlink:href="#DejaVuSans-44"/>
     <use x="3815.90625" xlink:href="#DejaVuSans-2d"/>
     <use x="3851.990234" xlink:href="#DejaVuSans-31"/>
     <use x="3915.613281" xlink:href="#DejaVuSans-30"/>
    </g>
   </g>
  </g>
 </g>
 <defs>
  <clipPath id="pb493a68cad">
   <rect height="326.16" width="669.6" x="108" y="51.84"/>
  </clipPath>
 </defs>
</svg>
