<?xml version="1.0" encoding="utf-8" standalone="no"?>
<!DOCTYPE svg PUBLIC "-//W3C//DTD SVG 1.1//EN"
  "http://www.w3.org/Graphics/SVG/1.1/DTD/svg11.dtd">
<!-- Created with matplotlib (http://matplotlib.org/) -->
<svg height="432pt" version="1.1" viewBox="0 0 864 432" width="864pt" xmlns="http://www.w3.org/2000/svg" xmlns:xlink="http://www.w3.org/1999/xlink">
 <defs>
  <style type="text/css">
*{stroke-linecap:butt;stroke-linejoin:round;}
  </style>
 </defs>
 <g id="figure_1">
  <g id="patch_1">
   <path d="M 0 432 
L 864 432 
L 864 0 
L 0 0 
z
" style="fill:#ffffff;"/>
  </g>
  <g id="axes_1">
   <g id="patch_2">
    <path d="M 108 378 
L 777.6 378 
L 777.6 51.84 
L 108 51.84 
z
" style="fill:#ffffff;"/>
   </g>
   <g id="matplotlib.axis_1">
    <g id="xtick_1">
     <g id="line2d_1">
      <path clip-path="url(#p8a9cd2d005)" d="M 189.163636 378 
L 189.163636 51.84 
" style="fill:none;stroke:#b0b0b0;stroke-linecap:square;stroke-width:0.8;"/>
     </g>
     <g id="line2d_2">
      <defs>
       <path d="M 0 0 
L 0 3.5 
" id="m216c31e56c" style="stroke:#000000;stroke-width:0.8;"/>
      </defs>
      <g>
       <use style="stroke:#000000;stroke-width:0.8;" x="189.163636" xlink:href="#m216c31e56c" y="378"/>
      </g>
     </g>
     <g id="text_1">
      <!-- 2.5 -->
      <defs>
       <path d="M 19.1875 8.296875 
L 53.609375 8.296875 
L 53.609375 0 
L 7.328125 0 
L 7.328125 8.296875 
Q 12.9375 14.109375 22.625 23.890625 
Q 32.328125 33.6875 34.8125 36.53125 
Q 39.546875 41.84375 41.421875 45.53125 
Q 43.3125 49.21875 43.3125 52.78125 
Q 43.3125 58.59375 39.234375 62.25 
Q 35.15625 65.921875 28.609375 65.921875 
Q 23.96875 65.921875 18.8125 64.3125 
Q 13.671875 62.703125 7.8125 59.421875 
L 7.8125 69.390625 
Q 13.765625 71.78125 18.9375 73 
Q 24.125 74.21875 28.421875 74.21875 
Q 39.75 74.21875 46.484375 68.546875 
Q 53.21875 62.890625 53.21875 53.421875 
Q 53.21875 48.921875 51.53125 44.890625 
Q 49.859375 40.875 45.40625 35.40625 
Q 44.1875 33.984375 37.640625 27.21875 
Q 31.109375 20.453125 19.1875 8.296875 
" id="DejaVuSans-32"/>
       <path d="M 10.6875 12.40625 
L 21 12.40625 
L 21 0 
L 10.6875 0 
z
" id="DejaVuSans-2e"/>
       <path d="M 10.796875 72.90625 
L 49.515625 72.90625 
L 49.515625 64.59375 
L 19.828125 64.59375 
L 19.828125 46.734375 
Q 21.96875 47.46875 24.109375 47.828125 
Q 26.265625 48.1875 28.421875 48.1875 
Q 40.625 48.1875 47.75 41.5 
Q 54.890625 34.8125 54.890625 23.390625 
Q 54.890625 11.625 47.5625 5.09375 
Q 40.234375 -1.421875 26.90625 -1.421875 
Q 22.3125 -1.421875 17.546875 -0.640625 
Q 12.796875 0.140625 7.71875 1.703125 
L 7.71875 11.625 
Q 12.109375 9.234375 16.796875 8.0625 
Q 21.484375 6.890625 26.703125 6.890625 
Q 35.15625 6.890625 40.078125 11.328125 
Q 45.015625 15.765625 45.015625 23.390625 
Q 45.015625 31 40.078125 35.4375 
Q 35.15625 39.890625 26.703125 39.890625 
Q 22.75 39.890625 18.8125 39.015625 
Q 14.890625 38.140625 10.796875 36.28125 
z
" id="DejaVuSans-35"/>
      </defs>
      <g transform="translate(181.212074 392.598437)scale(0.1 -0.1)">
       <use xlink:href="#DejaVuSans-32"/>
       <use x="63.623047" xlink:href="#DejaVuSans-2e"/>
       <use x="95.410156" xlink:href="#DejaVuSans-35"/>
      </g>
     </g>
    </g>
    <g id="xtick_2">
     <g id="line2d_3">
      <path clip-path="url(#p8a9cd2d005)" d="M 273.709091 378 
L 273.709091 51.84 
" style="fill:none;stroke:#b0b0b0;stroke-linecap:square;stroke-width:0.8;"/>
     </g>
     <g id="line2d_4">
      <g>
       <use style="stroke:#000000;stroke-width:0.8;" x="273.709091" xlink:href="#m216c31e56c" y="378"/>
      </g>
     </g>
     <g id="text_2">
      <!-- 5.0 -->
      <defs>
       <path d="M 31.78125 66.40625 
Q 24.171875 66.40625 20.328125 58.90625 
Q 16.5 51.421875 16.5 36.375 
Q 16.5 21.390625 20.328125 13.890625 
Q 24.171875 6.390625 31.78125 6.390625 
Q 39.453125 6.390625 43.28125 13.890625 
Q 47.125 21.390625 47.125 36.375 
Q 47.125 51.421875 43.28125 58.90625 
Q 39.453125 66.40625 31.78125 66.40625 
M 31.78125 74.21875 
Q 44.046875 74.21875 50.515625 64.515625 
Q 56.984375 54.828125 56.984375 36.375 
Q 56.984375 17.96875 50.515625 8.265625 
Q 44.046875 -1.421875 31.78125 -1.421875 
Q 19.53125 -1.421875 13.0625 8.265625 
Q 6.59375 17.96875 6.59375 36.375 
Q 6.59375 54.828125 13.0625 64.515625 
Q 19.53125 74.21875 31.78125 74.21875 
" id="DejaVuSans-30"/>
      </defs>
      <g transform="translate(265.757528 392.598437)scale(0.1 -0.1)">
       <use xlink:href="#DejaVuSans-35"/>
       <use x="63.623047" xlink:href="#DejaVuSans-2e"/>
       <use x="95.410156" xlink:href="#DejaVuSans-30"/>
      </g>
     </g>
    </g>
    <g id="xtick_3">
     <g id="line2d_5">
      <path clip-path="url(#p8a9cd2d005)" d="M 358.254545 378 
L 358.254545 51.84 
" style="fill:none;stroke:#b0b0b0;stroke-linecap:square;stroke-width:0.8;"/>
     </g>
     <g id="line2d_6">
      <g>
       <use style="stroke:#000000;stroke-width:0.8;" x="358.254545" xlink:href="#m216c31e56c" y="378"/>
      </g>
     </g>
     <g id="text_3">
      <!-- 7.5 -->
      <defs>
       <path d="M 8.203125 72.90625 
L 55.078125 72.90625 
L 55.078125 68.703125 
L 28.609375 0 
L 18.3125 0 
L 43.21875 64.59375 
L 8.203125 64.59375 
z
" id="DejaVuSans-37"/>
      </defs>
      <g transform="translate(350.302983 392.598437)scale(0.1 -0.1)">
       <use xlink:href="#DejaVuSans-37"/>
       <use x="63.623047" xlink:href="#DejaVuSans-2e"/>
       <use x="95.410156" xlink:href="#DejaVuSans-35"/>
      </g>
     </g>
    </g>
    <g id="xtick_4">
     <g id="line2d_7">
      <path clip-path="url(#p8a9cd2d005)" d="M 442.8 378 
L 442.8 51.84 
" style="fill:none;stroke:#b0b0b0;stroke-linecap:square;stroke-width:0.8;"/>
     </g>
     <g id="line2d_8">
      <g>
       <use style="stroke:#000000;stroke-width:0.8;" x="442.8" xlink:href="#m216c31e56c" y="378"/>
      </g>
     </g>
     <g id="text_4">
      <!-- 10.0 -->
      <defs>
       <path d="M 12.40625 8.296875 
L 28.515625 8.296875 
L 28.515625 63.921875 
L 10.984375 60.40625 
L 10.984375 69.390625 
L 28.421875 72.90625 
L 38.28125 72.90625 
L 38.28125 8.296875 
L 54.390625 8.296875 
L 54.390625 0 
L 12.40625 0 
z
" id="DejaVuSans-31"/>
      </defs>
      <g transform="translate(431.667188 392.598437)scale(0.1 -0.1)">
       <use xlink:href="#DejaVuSans-31"/>
       <use x="63.623047" xlink:href="#DejaVuSans-30"/>
       <use x="127.246094" xlink:href="#DejaVuSans-2e"/>
       <use x="159.033203" xlink:href="#DejaVuSans-30"/>
      </g>
     </g>
    </g>
    <g id="xtick_5">
     <g id="line2d_9">
      <path clip-path="url(#p8a9cd2d005)" d="M 527.345455 378 
L 527.345455 51.84 
" style="fill:none;stroke:#b0b0b0;stroke-linecap:square;stroke-width:0.8;"/>
     </g>
     <g id="line2d_10">
      <g>
       <use style="stroke:#000000;stroke-width:0.8;" x="527.345455" xlink:href="#m216c31e56c" y="378"/>
      </g>
     </g>
     <g id="text_5">
      <!-- 12.5 -->
      <g transform="translate(516.212642 392.598437)scale(0.1 -0.1)">
       <use xlink:href="#DejaVuSans-31"/>
       <use x="63.623047" xlink:href="#DejaVuSans-32"/>
       <use x="127.246094" xlink:href="#DejaVuSans-2e"/>
       <use x="159.033203" xlink:href="#DejaVuSans-35"/>
      </g>
     </g>
    </g>
    <g id="xtick_6">
     <g id="line2d_11">
      <path clip-path="url(#p8a9cd2d005)" d="M 611.890909 378 
L 611.890909 51.84 
" style="fill:none;stroke:#b0b0b0;stroke-linecap:square;stroke-width:0.8;"/>
     </g>
     <g id="line2d_12">
      <g>
       <use style="stroke:#000000;stroke-width:0.8;" x="611.890909" xlink:href="#m216c31e56c" y="378"/>
      </g>
     </g>
     <g id="text_6">
      <!-- 15.0 -->
      <g transform="translate(600.758097 392.598437)scale(0.1 -0.1)">
       <use xlink:href="#DejaVuSans-31"/>
       <use x="63.623047" xlink:href="#DejaVuSans-35"/>
       <use x="127.246094" xlink:href="#DejaVuSans-2e"/>
       <use x="159.033203" xlink:href="#DejaVuSans-30"/>
      </g>
     </g>
    </g>
    <g id="xtick_7">
     <g id="line2d_13">
      <path clip-path="url(#p8a9cd2d005)" d="M 696.436364 378 
L 696.436364 51.84 
" style="fill:none;stroke:#b0b0b0;stroke-linecap:square;stroke-width:0.8;"/>
     </g>
     <g id="line2d_14">
      <g>
       <use style="stroke:#000000;stroke-width:0.8;" x="696.436364" xlink:href="#m216c31e56c" y="378"/>
      </g>
     </g>
     <g id="text_7">
      <!-- 17.5 -->
      <g transform="translate(685.303551 392.598437)scale(0.1 -0.1)">
       <use xlink:href="#DejaVuSans-31"/>
       <use x="63.623047" xlink:href="#DejaVuSans-37"/>
       <use x="127.246094" xlink:href="#DejaVuSans-2e"/>
       <use x="159.033203" xlink:href="#DejaVuSans-35"/>
      </g>
     </g>
    </g>
    <g id="text_8">
     <!-- Epoch number -->
     <defs>
      <path d="M 9.8125 72.90625 
L 55.90625 72.90625 
L 55.90625 64.59375 
L 19.671875 64.59375 
L 19.671875 43.015625 
L 54.390625 43.015625 
L 54.390625 34.71875 
L 19.671875 34.71875 
L 19.671875 8.296875 
L 56.78125 8.296875 
L 56.78125 0 
L 9.8125 0 
z
" id="DejaVuSans-45"/>
      <path d="M 18.109375 8.203125 
L 18.109375 -20.796875 
L 9.078125 -20.796875 
L 9.078125 54.6875 
L 18.109375 54.6875 
L 18.109375 46.390625 
Q 20.953125 51.265625 25.265625 53.625 
Q 29.59375 56 35.59375 56 
Q 45.5625 56 51.78125 48.09375 
Q 58.015625 40.1875 58.015625 27.296875 
Q 58.015625 14.40625 51.78125 6.484375 
Q 45.5625 -1.421875 35.59375 -1.421875 
Q 29.59375 -1.421875 25.265625 0.953125 
Q 20.953125 3.328125 18.109375 8.203125 
M 48.6875 27.296875 
Q 48.6875 37.203125 44.609375 42.84375 
Q 40.53125 48.484375 33.40625 48.484375 
Q 26.265625 48.484375 22.1875 42.84375 
Q 18.109375 37.203125 18.109375 27.296875 
Q 18.109375 17.390625 22.1875 11.75 
Q 26.265625 6.109375 33.40625 6.109375 
Q 40.53125 6.109375 44.609375 11.75 
Q 48.6875 17.390625 48.6875 27.296875 
" id="DejaVuSans-70"/>
      <path d="M 30.609375 48.390625 
Q 23.390625 48.390625 19.1875 42.75 
Q 14.984375 37.109375 14.984375 27.296875 
Q 14.984375 17.484375 19.15625 11.84375 
Q 23.34375 6.203125 30.609375 6.203125 
Q 37.796875 6.203125 41.984375 11.859375 
Q 46.1875 17.53125 46.1875 27.296875 
Q 46.1875 37.015625 41.984375 42.703125 
Q 37.796875 48.390625 30.609375 48.390625 
M 30.609375 56 
Q 42.328125 56 49.015625 48.375 
Q 55.71875 40.765625 55.71875 27.296875 
Q 55.71875 13.875 49.015625 6.21875 
Q 42.328125 -1.421875 30.609375 -1.421875 
Q 18.84375 -1.421875 12.171875 6.21875 
Q 5.515625 13.875 5.515625 27.296875 
Q 5.515625 40.765625 12.171875 48.375 
Q 18.84375 56 30.609375 56 
" id="DejaVuSans-6f"/>
      <path d="M 48.78125 52.59375 
L 48.78125 44.1875 
Q 44.96875 46.296875 41.140625 47.34375 
Q 37.3125 48.390625 33.40625 48.390625 
Q 24.65625 48.390625 19.8125 42.84375 
Q 14.984375 37.3125 14.984375 27.296875 
Q 14.984375 17.28125 19.8125 11.734375 
Q 24.65625 6.203125 33.40625 6.203125 
Q 37.3125 6.203125 41.140625 7.25 
Q 44.96875 8.296875 48.78125 10.40625 
L 48.78125 2.09375 
Q 45.015625 0.34375 40.984375 -0.53125 
Q 36.96875 -1.421875 32.421875 -1.421875 
Q 20.0625 -1.421875 12.78125 6.34375 
Q 5.515625 14.109375 5.515625 27.296875 
Q 5.515625 40.671875 12.859375 48.328125 
Q 20.21875 56 33.015625 56 
Q 37.15625 56 41.109375 55.140625 
Q 45.0625 54.296875 48.78125 52.59375 
" id="DejaVuSans-63"/>
      <path d="M 54.890625 33.015625 
L 54.890625 0 
L 45.90625 0 
L 45.90625 32.71875 
Q 45.90625 40.484375 42.875 44.328125 
Q 39.84375 48.1875 33.796875 48.1875 
Q 26.515625 48.1875 22.3125 43.546875 
Q 18.109375 38.921875 18.109375 30.90625 
L 18.109375 0 
L 9.078125 0 
L 9.078125 75.984375 
L 18.109375 75.984375 
L 18.109375 46.1875 
Q 21.34375 51.125 25.703125 53.5625 
Q 30.078125 56 35.796875 56 
Q 45.21875 56 50.046875 50.171875 
Q 54.890625 44.34375 54.890625 33.015625 
" id="DejaVuSans-68"/>
      <path id="DejaVuSans-20"/>
      <path d="M 54.890625 33.015625 
L 54.890625 0 
L 45.90625 0 
L 45.90625 32.71875 
Q 45.90625 40.484375 42.875 44.328125 
Q 39.84375 48.1875 33.796875 48.1875 
Q 26.515625 48.1875 22.3125 43.546875 
Q 18.109375 38.921875 18.109375 30.90625 
L 18.109375 0 
L 9.078125 0 
L 9.078125 54.6875 
L 18.109375 54.6875 
L 18.109375 46.1875 
Q 21.34375 51.125 25.703125 53.5625 
Q 30.078125 56 35.796875 56 
Q 45.21875 56 50.046875 50.171875 
Q 54.890625 44.34375 54.890625 33.015625 
" id="DejaVuSans-6e"/>
      <path d="M 8.5 21.578125 
L 8.5 54.6875 
L 17.484375 54.6875 
L 17.484375 21.921875 
Q 17.484375 14.15625 20.5 10.265625 
Q 23.53125 6.390625 29.59375 6.390625 
Q 36.859375 6.390625 41.078125 11.03125 
Q 45.3125 15.671875 45.3125 23.6875 
L 45.3125 54.6875 
L 54.296875 54.6875 
L 54.296875 0 
L 45.3125 0 
L 45.3125 8.40625 
Q 42.046875 3.421875 37.71875 1 
Q 33.40625 -1.421875 27.6875 -1.421875 
Q 18.265625 -1.421875 13.375 4.4375 
Q 8.5 10.296875 8.5 21.578125 
M 31.109375 56 
z
" id="DejaVuSans-75"/>
      <path d="M 52 44.1875 
Q 55.375 50.25 60.0625 53.125 
Q 64.75 56 71.09375 56 
Q 79.640625 56 84.28125 50.015625 
Q 88.921875 44.046875 88.921875 33.015625 
L 88.921875 0 
L 79.890625 0 
L 79.890625 32.71875 
Q 79.890625 40.578125 77.09375 44.375 
Q 74.3125 48.1875 68.609375 48.1875 
Q 61.625 48.1875 57.5625 43.546875 
Q 53.515625 38.921875 53.515625 30.90625 
L 53.515625 0 
L 44.484375 0 
L 44.484375 32.71875 
Q 44.484375 40.625 41.703125 44.40625 
Q 38.921875 48.1875 33.109375 48.1875 
Q 26.21875 48.1875 22.15625 43.53125 
Q 18.109375 38.875 18.109375 30.90625 
L 18.109375 0 
L 9.078125 0 
L 9.078125 54.6875 
L 18.109375 54.6875 
L 18.109375 46.1875 
Q 21.1875 51.21875 25.484375 53.609375 
Q 29.78125 56 35.6875 56 
Q 41.65625 56 45.828125 52.96875 
Q 50 49.953125 52 44.1875 
" id="DejaVuSans-6d"/>
      <path d="M 48.6875 27.296875 
Q 48.6875 37.203125 44.609375 42.84375 
Q 40.53125 48.484375 33.40625 48.484375 
Q 26.265625 48.484375 22.1875 42.84375 
Q 18.109375 37.203125 18.109375 27.296875 
Q 18.109375 17.390625 22.1875 11.75 
Q 26.265625 6.109375 33.40625 6.109375 
Q 40.53125 6.109375 44.609375 11.75 
Q 48.6875 17.390625 48.6875 27.296875 
M 18.109375 46.390625 
Q 20.953125 51.265625 25.265625 53.625 
Q 29.59375 56 35.59375 56 
Q 45.5625 56 51.78125 48.09375 
Q 58.015625 40.1875 58.015625 27.296875 
Q 58.015625 14.40625 51.78125 6.484375 
Q 45.5625 -1.421875 35.59375 -1.421875 
Q 29.59375 -1.421875 25.265625 0.953125 
Q 20.953125 3.328125 18.109375 8.203125 
L 18.109375 0 
L 9.078125 0 
L 9.078125 75.984375 
L 18.109375 75.984375 
z
" id="DejaVuSans-62"/>
      <path d="M 56.203125 29.59375 
L 56.203125 25.203125 
L 14.890625 25.203125 
Q 15.484375 15.921875 20.484375 11.0625 
Q 25.484375 6.203125 34.421875 6.203125 
Q 39.59375 6.203125 44.453125 7.46875 
Q 49.3125 8.734375 54.109375 11.28125 
L 54.109375 2.78125 
Q 49.265625 0.734375 44.1875 -0.34375 
Q 39.109375 -1.421875 33.890625 -1.421875 
Q 20.796875 -1.421875 13.15625 6.1875 
Q 5.515625 13.8125 5.515625 26.8125 
Q 5.515625 40.234375 12.765625 48.109375 
Q 20.015625 56 32.328125 56 
Q 43.359375 56 49.78125 48.890625 
Q 56.203125 41.796875 56.203125 29.59375 
M 47.21875 32.234375 
Q 47.125 39.59375 43.09375 43.984375 
Q 39.0625 48.390625 32.421875 48.390625 
Q 24.90625 48.390625 20.390625 44.140625 
Q 15.875 39.890625 15.1875 32.171875 
z
" id="DejaVuSans-65"/>
      <path d="M 41.109375 46.296875 
Q 39.59375 47.171875 37.8125 47.578125 
Q 36.03125 48 33.890625 48 
Q 26.265625 48 22.1875 43.046875 
Q 18.109375 38.09375 18.109375 28.8125 
L 18.109375 0 
L 9.078125 0 
L 9.078125 54.6875 
L 18.109375 54.6875 
L 18.109375 46.1875 
Q 20.953125 51.171875 25.484375 53.578125 
Q 30.03125 56 36.53125 56 
Q 37.453125 56 38.578125 55.875 
Q 39.703125 55.765625 41.0625 55.515625 
z
" id="DejaVuSans-72"/>
     </defs>
     <g transform="translate(406.385938 406.276563)scale(0.1 -0.1)">
      <use xlink:href="#DejaVuSans-45"/>
      <use x="63.183594" xlink:href="#DejaVuSans-70"/>
      <use x="126.660156" xlink:href="#DejaVuSans-6f"/>
      <use x="187.841797" xlink:href="#DejaVuSans-63"/>
      <use x="242.822266" xlink:href="#DejaVuSans-68"/>
      <use x="306.201172" xlink:href="#DejaVuSans-20"/>
      <use x="337.988281" xlink:href="#DejaVuSans-6e"/>
      <use x="401.367188" xlink:href="#DejaVuSans-75"/>
      <use x="464.746094" xlink:href="#DejaVuSans-6d"/>
      <use x="562.158203" xlink:href="#DejaVuSans-62"/>
      <use x="625.634766" xlink:href="#DejaVuSans-65"/>
      <use x="687.158203" xlink:href="#DejaVuSans-72"/>
     </g>
    </g>
   </g>
   <g id="matplotlib.axis_2">
    <g id="ytick_1">
     <g id="line2d_15">
      <path clip-path="url(#p8a9cd2d005)" d="M 108 363.178192 
L 777.6 363.178192 
" style="fill:none;stroke:#b0b0b0;stroke-linecap:square;stroke-width:0.8;"/>
     </g>
     <g id="line2d_16">
      <defs>
       <path d="M 0 0 
L -3.5 0 
" id="mff6df6c1f8" style="stroke:#000000;stroke-width:0.8;"/>
      </defs>
      <g>
       <use style="stroke:#000000;stroke-width:0.8;" x="108" xlink:href="#mff6df6c1f8" y="363.178192"/>
      </g>
     </g>
     <g id="text_9">
      <!-- 2 -->
      <g transform="translate(94.6375 366.97741)scale(0.1 -0.1)">
       <use xlink:href="#DejaVuSans-32"/>
      </g>
     </g>
    </g>
    <g id="ytick_2">
     <g id="line2d_17">
      <path clip-path="url(#p8a9cd2d005)" d="M 108 322.821149 
L 777.6 322.821149 
" style="fill:none;stroke:#b0b0b0;stroke-linecap:square;stroke-width:0.8;"/>
     </g>
     <g id="line2d_18">
      <g>
       <use style="stroke:#000000;stroke-width:0.8;" x="108" xlink:href="#mff6df6c1f8" y="322.821149"/>
      </g>
     </g>
     <g id="text_10">
      <!-- 4 -->
      <defs>
       <path d="M 37.796875 64.3125 
L 12.890625 25.390625 
L 37.796875 25.390625 
z
M 35.203125 72.90625 
L 47.609375 72.90625 
L 47.609375 25.390625 
L 58.015625 25.390625 
L 58.015625 17.1875 
L 47.609375 17.1875 
L 47.609375 0 
L 37.796875 0 
L 37.796875 17.1875 
L 4.890625 17.1875 
L 4.890625 26.703125 
z
" id="DejaVuSans-34"/>
      </defs>
      <g transform="translate(94.6375 326.620368)scale(0.1 -0.1)">
       <use xlink:href="#DejaVuSans-34"/>
      </g>
     </g>
    </g>
    <g id="ytick_3">
     <g id="line2d_19">
      <path clip-path="url(#p8a9cd2d005)" d="M 108 282.464106 
L 777.6 282.464106 
" style="fill:none;stroke:#b0b0b0;stroke-linecap:square;stroke-width:0.8;"/>
     </g>
     <g id="line2d_20">
      <g>
       <use style="stroke:#000000;stroke-width:0.8;" x="108" xlink:href="#mff6df6c1f8" y="282.464106"/>
      </g>
     </g>
     <g id="text_11">
      <!-- 6 -->
      <defs>
       <path d="M 33.015625 40.375 
Q 26.375 40.375 22.484375 35.828125 
Q 18.609375 31.296875 18.609375 23.390625 
Q 18.609375 15.53125 22.484375 10.953125 
Q 26.375 6.390625 33.015625 6.390625 
Q 39.65625 6.390625 43.53125 10.953125 
Q 47.40625 15.53125 47.40625 23.390625 
Q 47.40625 31.296875 43.53125 35.828125 
Q 39.65625 40.375 33.015625 40.375 
M 52.59375 71.296875 
L 52.59375 62.3125 
Q 48.875 64.0625 45.09375 64.984375 
Q 41.3125 65.921875 37.59375 65.921875 
Q 27.828125 65.921875 22.671875 59.328125 
Q 17.53125 52.734375 16.796875 39.40625 
Q 19.671875 43.65625 24.015625 45.921875 
Q 28.375 48.1875 33.59375 48.1875 
Q 44.578125 48.1875 50.953125 41.515625 
Q 57.328125 34.859375 57.328125 23.390625 
Q 57.328125 12.15625 50.6875 5.359375 
Q 44.046875 -1.421875 33.015625 -1.421875 
Q 20.359375 -1.421875 13.671875 8.265625 
Q 6.984375 17.96875 6.984375 36.375 
Q 6.984375 53.65625 15.1875 63.9375 
Q 23.390625 74.21875 37.203125 74.21875 
Q 40.921875 74.21875 44.703125 73.484375 
Q 48.484375 72.75 52.59375 71.296875 
" id="DejaVuSans-36"/>
      </defs>
      <g transform="translate(94.6375 286.263325)scale(0.1 -0.1)">
       <use xlink:href="#DejaVuSans-36"/>
      </g>
     </g>
    </g>
    <g id="ytick_4">
     <g id="line2d_21">
      <path clip-path="url(#p8a9cd2d005)" d="M 108 242.107063 
L 777.6 242.107063 
" style="fill:none;stroke:#b0b0b0;stroke-linecap:square;stroke-width:0.8;"/>
     </g>
     <g id="line2d_22">
      <g>
       <use style="stroke:#000000;stroke-width:0.8;" x="108" xlink:href="#mff6df6c1f8" y="242.107063"/>
      </g>
     </g>
     <g id="text_12">
      <!-- 8 -->
      <defs>
       <path d="M 31.78125 34.625 
Q 24.75 34.625 20.71875 30.859375 
Q 16.703125 27.09375 16.703125 20.515625 
Q 16.703125 13.921875 20.71875 10.15625 
Q 24.75 6.390625 31.78125 6.390625 
Q 38.8125 6.390625 42.859375 10.171875 
Q 46.921875 13.96875 46.921875 20.515625 
Q 46.921875 27.09375 42.890625 30.859375 
Q 38.875 34.625 31.78125 34.625 
M 21.921875 38.8125 
Q 15.578125 40.375 12.03125 44.71875 
Q 8.5 49.078125 8.5 55.328125 
Q 8.5 64.0625 14.71875 69.140625 
Q 20.953125 74.21875 31.78125 74.21875 
Q 42.671875 74.21875 48.875 69.140625 
Q 55.078125 64.0625 55.078125 55.328125 
Q 55.078125 49.078125 51.53125 44.71875 
Q 48 40.375 41.703125 38.8125 
Q 48.828125 37.15625 52.796875 32.3125 
Q 56.78125 27.484375 56.78125 20.515625 
Q 56.78125 9.90625 50.3125 4.234375 
Q 43.84375 -1.421875 31.78125 -1.421875 
Q 19.734375 -1.421875 13.25 4.234375 
Q 6.78125 9.90625 6.78125 20.515625 
Q 6.78125 27.484375 10.78125 32.3125 
Q 14.796875 37.15625 21.921875 38.8125 
M 18.3125 54.390625 
Q 18.3125 48.734375 21.84375 45.5625 
Q 25.390625 42.390625 31.78125 42.390625 
Q 38.140625 42.390625 41.71875 45.5625 
Q 45.3125 48.734375 45.3125 54.390625 
Q 45.3125 60.0625 41.71875 63.234375 
Q 38.140625 66.40625 31.78125 66.40625 
Q 25.390625 66.40625 21.84375 63.234375 
Q 18.3125 60.0625 18.3125 54.390625 
" id="DejaVuSans-38"/>
      </defs>
      <g transform="translate(94.6375 245.906282)scale(0.1 -0.1)">
       <use xlink:href="#DejaVuSans-38"/>
      </g>
     </g>
    </g>
    <g id="ytick_5">
     <g id="line2d_23">
      <path clip-path="url(#p8a9cd2d005)" d="M 108 201.75002 
L 777.6 201.75002 
" style="fill:none;stroke:#b0b0b0;stroke-linecap:square;stroke-width:0.8;"/>
     </g>
     <g id="line2d_24">
      <g>
       <use style="stroke:#000000;stroke-width:0.8;" x="108" xlink:href="#mff6df6c1f8" y="201.75002"/>
      </g>
     </g>
     <g id="text_13">
      <!-- 10 -->
      <g transform="translate(88.275 205.549239)scale(0.1 -0.1)">
       <use xlink:href="#DejaVuSans-31"/>
       <use x="63.623047" xlink:href="#DejaVuSans-30"/>
      </g>
     </g>
    </g>
    <g id="ytick_6">
     <g id="line2d_25">
      <path clip-path="url(#p8a9cd2d005)" d="M 108 161.392978 
L 777.6 161.392978 
" style="fill:none;stroke:#b0b0b0;stroke-linecap:square;stroke-width:0.8;"/>
     </g>
     <g id="line2d_26">
      <g>
       <use style="stroke:#000000;stroke-width:0.8;" x="108" xlink:href="#mff6df6c1f8" y="161.392978"/>
      </g>
     </g>
     <g id="text_14">
      <!-- 12 -->
      <g transform="translate(88.275 165.192196)scale(0.1 -0.1)">
       <use xlink:href="#DejaVuSans-31"/>
       <use x="63.623047" xlink:href="#DejaVuSans-32"/>
      </g>
     </g>
    </g>
    <g id="ytick_7">
     <g id="line2d_27">
      <path clip-path="url(#p8a9cd2d005)" d="M 108 121.035935 
L 777.6 121.035935 
" style="fill:none;stroke:#b0b0b0;stroke-linecap:square;stroke-width:0.8;"/>
     </g>
     <g id="line2d_28">
      <g>
       <use style="stroke:#000000;stroke-width:0.8;" x="108" xlink:href="#mff6df6c1f8" y="121.035935"/>
      </g>
     </g>
     <g id="text_15">
      <!-- 14 -->
      <g transform="translate(88.275 124.835153)scale(0.1 -0.1)">
       <use xlink:href="#DejaVuSans-31"/>
       <use x="63.623047" xlink:href="#DejaVuSans-34"/>
      </g>
     </g>
    </g>
    <g id="ytick_8">
     <g id="line2d_29">
      <path clip-path="url(#p8a9cd2d005)" d="M 108 80.678892 
L 777.6 80.678892 
" style="fill:none;stroke:#b0b0b0;stroke-linecap:square;stroke-width:0.8;"/>
     </g>
     <g id="line2d_30">
      <g>
       <use style="stroke:#000000;stroke-width:0.8;" x="108" xlink:href="#mff6df6c1f8" y="80.678892"/>
      </g>
     </g>
     <g id="text_16">
      <!-- 16 -->
      <g transform="translate(88.275 84.478111)scale(0.1 -0.1)">
       <use xlink:href="#DejaVuSans-31"/>
       <use x="63.623047" xlink:href="#DejaVuSans-36"/>
      </g>
     </g>
    </g>
    <g id="text_17">
     <!-- Training Error -->
     <defs>
      <path d="M -0.296875 72.90625 
L 61.375 72.90625 
L 61.375 64.59375 
L 35.5 64.59375 
L 35.5 0 
L 25.59375 0 
L 25.59375 64.59375 
L -0.296875 64.59375 
z
" id="DejaVuSans-54"/>
      <path d="M 34.28125 27.484375 
Q 23.390625 27.484375 19.1875 25 
Q 14.984375 22.515625 14.984375 16.5 
Q 14.984375 11.71875 18.140625 8.90625 
Q 21.296875 6.109375 26.703125 6.109375 
Q 34.1875 6.109375 38.703125 11.40625 
Q 43.21875 16.703125 43.21875 25.484375 
L 43.21875 27.484375 
z
M 52.203125 31.203125 
L 52.203125 0 
L 43.21875 0 
L 43.21875 8.296875 
Q 40.140625 3.328125 35.546875 0.953125 
Q 30.953125 -1.421875 24.3125 -1.421875 
Q 15.921875 -1.421875 10.953125 3.296875 
Q 6 8.015625 6 15.921875 
Q 6 25.140625 12.171875 29.828125 
Q 18.359375 34.515625 30.609375 34.515625 
L 43.21875 34.515625 
L 43.21875 35.40625 
Q 43.21875 41.609375 39.140625 45 
Q 35.0625 48.390625 27.6875 48.390625 
Q 23 48.390625 18.546875 47.265625 
Q 14.109375 46.140625 10.015625 43.890625 
L 10.015625 52.203125 
Q 14.9375 54.109375 19.578125 55.046875 
Q 24.21875 56 28.609375 56 
Q 40.484375 56 46.34375 49.84375 
Q 52.203125 43.703125 52.203125 31.203125 
" id="DejaVuSans-61"/>
      <path d="M 9.421875 54.6875 
L 18.40625 54.6875 
L 18.40625 0 
L 9.421875 0 
z
M 9.421875 75.984375 
L 18.40625 75.984375 
L 18.40625 64.59375 
L 9.421875 64.59375 
z
" id="DejaVuSans-69"/>
      <path d="M 45.40625 27.984375 
Q 45.40625 37.75 41.375 43.109375 
Q 37.359375 48.484375 30.078125 48.484375 
Q 22.859375 48.484375 18.828125 43.109375 
Q 14.796875 37.75 14.796875 27.984375 
Q 14.796875 18.265625 18.828125 12.890625 
Q 22.859375 7.515625 30.078125 7.515625 
Q 37.359375 7.515625 41.375 12.890625 
Q 45.40625 18.265625 45.40625 27.984375 
M 54.390625 6.78125 
Q 54.390625 -7.171875 48.1875 -13.984375 
Q 42 -20.796875 29.203125 -20.796875 
Q 24.46875 -20.796875 20.265625 -20.09375 
Q 16.0625 -19.390625 12.109375 -17.921875 
L 12.109375 -9.1875 
Q 16.0625 -11.328125 19.921875 -12.34375 
Q 23.78125 -13.375 27.78125 -13.375 
Q 36.625 -13.375 41.015625 -8.765625 
Q 45.40625 -4.15625 45.40625 5.171875 
L 45.40625 9.625 
Q 42.625 4.78125 38.28125 2.390625 
Q 33.9375 0 27.875 0 
Q 17.828125 0 11.671875 7.65625 
Q 5.515625 15.328125 5.515625 27.984375 
Q 5.515625 40.671875 11.671875 48.328125 
Q 17.828125 56 27.875 56 
Q 33.9375 56 38.28125 53.609375 
Q 42.625 51.21875 45.40625 46.390625 
L 45.40625 54.6875 
L 54.390625 54.6875 
z
" id="DejaVuSans-67"/>
     </defs>
     <g transform="translate(82.195312 249.344219)rotate(-90)scale(0.1 -0.1)">
      <use xlink:href="#DejaVuSans-54"/>
      <use x="60.865234" xlink:href="#DejaVuSans-72"/>
      <use x="101.978516" xlink:href="#DejaVuSans-61"/>
      <use x="163.257812" xlink:href="#DejaVuSans-69"/>
      <use x="191.041016" xlink:href="#DejaVuSans-6e"/>
      <use x="254.419922" xlink:href="#DejaVuSans-69"/>
      <use x="282.203125" xlink:href="#DejaVuSans-6e"/>
      <use x="345.582031" xlink:href="#DejaVuSans-67"/>
      <use x="409.058594" xlink:href="#DejaVuSans-20"/>
      <use x="440.845703" xlink:href="#DejaVuSans-45"/>
      <use x="504.029297" xlink:href="#DejaVuSans-72"/>
      <use x="545.126953" xlink:href="#DejaVuSans-72"/>
      <use x="586.208984" xlink:href="#DejaVuSans-6f"/>
      <use x="647.390625" xlink:href="#DejaVuSans-72"/>
     </g>
    </g>
   </g>
   <g id="line2d_31">
    <path clip-path="url(#p8a9cd2d005)" d="M 138.436364 211.082784 
L 172.254545 225.986008 
L 206.072727 239.925006 
L 239.890909 252.462039 
L 273.709091 263.571774 
L 307.527273 273.664101 
L 341.345455 282.823615 
L 375.163636 291.060987 
L 408.981818 298.491757 
L 442.8 305.55765 
L 476.618182 311.870423 
L 510.436364 317.817727 
L 544.254545 323.185339 
L 578.072727 328.207531 
L 611.890909 332.55921 
L 645.709091 336.916679 
L 679.527273 340.708487 
L 713.345455 344.151111 
L 747.163636 347.285996 
" style="fill:none;stroke:#1f77b4;stroke-linecap:square;stroke-width:1.5;"/>
   </g>
   <g id="line2d_32">
    <path clip-path="url(#p8a9cd2d005)" d="M 138.436364 184.271006 
L 172.254545 223.649676 
L 206.072727 231.395039 
L 239.890909 238.567583 
L 273.709091 245.78462 
L 307.527273 253.139212 
L 341.345455 260.308309 
L 375.163636 267.444429 
L 408.981818 273.958849 
L 442.8 280.12488 
L 476.618182 285.858166 
L 510.436364 291.275214 
L 544.254545 296.45069 
L 578.072727 301.216956 
L 611.890909 305.681213 
L 645.709091 310.074029 
L 679.527273 313.929349 
L 713.345455 317.826636 
L 747.163636 321.26329 
" style="fill:none;stroke:#d3d3d3;stroke-linecap:square;stroke-width:1.5;"/>
   </g>
   <g id="line2d_33">
    <path clip-path="url(#p8a9cd2d005)" d="M 138.436364 66.665455 
L 172.254545 213.792541 
L 206.072727 229.832205 
L 239.890909 237.830842 
L 273.709091 245.412338 
L 307.527273 252.909387 
L 341.345455 260.134154 
L 375.163636 267.083285 
L 408.981818 273.598304 
L 442.8 279.213653 
L 476.618182 284.970797 
L 510.436364 289.987097 
L 544.254545 294.911343 
L 578.072727 299.252546 
L 611.890909 303.281155 
L 645.709091 307.050713 
L 679.527273 310.508331 
L 713.345455 313.692323 
L 747.163636 316.432467 
" style="fill:none;stroke:#d3d3d3;stroke-linecap:square;stroke-width:1.5;"/>
   </g>
   <g id="line2d_34">
    <path clip-path="url(#p8a9cd2d005)" d="M 138.436364 203.297685 
L 172.254545 221.298806 
L 206.072727 237.046251 
L 239.890909 250.498188 
L 273.709091 262.304639 
L 307.527273 272.521468 
L 341.345455 281.782397 
L 375.163636 289.897809 
L 408.981818 297.291536 
L 442.8 304.196305 
L 476.618182 310.526933 
L 510.436364 316.16888 
L 544.254545 321.277325 
L 578.072727 326.116699 
L 611.890909 330.464775 
L 645.709091 334.470327 
L 679.527273 338.105065 
L 713.345455 341.230318 
L 747.163636 344.281094 
" style="fill:none;stroke:#d3d3d3;stroke-linecap:square;stroke-width:1.5;"/>
   </g>
   <g id="line2d_35">
    <path clip-path="url(#p8a9cd2d005)" d="M 138.436364 185.894354 
L 172.254545 210.965376 
L 206.072727 216.788081 
L 239.890909 222.137566 
L 273.709091 227.742325 
L 307.527273 233.711583 
L 341.345455 239.699631 
L 375.163636 245.774784 
L 408.981818 251.755102 
L 442.8 257.439717 
L 476.618182 262.899618 
L 510.436364 267.973357 
L 544.254545 272.636665 
L 578.072727 277.529836 
L 611.890909 281.716936 
L 645.709091 285.244321 
L 679.527273 288.537162 
L 713.345455 291.665443 
L 747.163636 294.666196 
" style="fill:none;stroke:#d3d3d3;stroke-linecap:square;stroke-width:1.5;"/>
   </g>
   <g id="line2d_36">
    <path clip-path="url(#p8a9cd2d005)" d="M 138.436364 206.551321 
L 172.254545 233.731539 
L 206.072727 247.511889 
L 239.890909 258.54407 
L 273.709091 268.130573 
L 307.527273 276.81233 
L 341.345455 284.41785 
L 375.163636 291.814894 
L 408.981818 298.551409 
L 442.8 304.668422 
L 476.618182 310.483291 
L 510.436364 315.743561 
L 544.254545 320.652306 
L 578.072727 325.111442 
L 611.890909 329.29887 
L 645.709091 332.839475 
L 679.527273 336.332718 
L 713.345455 339.442702 
L 747.163636 342.248273 
" style="fill:none;stroke:#d3d3d3;stroke-linecap:square;stroke-width:1.5;"/>
   </g>
   <g id="line2d_37">
    <path clip-path="url(#p8a9cd2d005)" d="M 138.436364 213.115263 
L 172.254545 226.73624 
L 206.072727 239.239243 
L 239.890909 250.715596 
L 273.709091 261.361471 
L 307.527273 271.011339 
L 341.345455 279.714177 
L 375.163636 287.930459 
L 408.981818 295.503618 
L 442.8 302.275206 
L 476.618182 308.607788 
L 510.436364 314.292919 
L 544.254545 319.481168 
L 578.072727 324.270068 
L 611.890909 328.73658 
L 645.709091 332.698812 
L 679.527273 336.513566 
L 713.345455 339.777794 
L 747.163636 342.852516 
" style="fill:none;stroke:#d3d3d3;stroke-linecap:square;stroke-width:1.5;"/>
   </g>
   <g id="line2d_38">
    <path clip-path="url(#p8a9cd2d005)" d="M 138.436364 213.717721 
L 172.254545 230.067347 
L 206.072727 244.321017 
L 239.890909 256.886757 
L 273.709091 268.08945 
L 307.527273 278.383612 
L 341.345455 287.820215 
L 375.163636 296.476531 
L 408.981818 304.766626 
L 442.8 312.561048 
L 476.618182 319.791446 
L 510.436364 327.002185 
L 544.254545 333.49699 
L 578.072727 339.71538 
L 611.890909 345.384368 
L 645.709091 350.595185 
L 679.527273 355.209776 
L 713.345455 359.415341 
L 747.163636 363.174545 
" style="fill:none;stroke:#ff7f0e;stroke-linecap:square;stroke-width:1.5;"/>
   </g>
   <g id="line2d_39">
    <path clip-path="url(#p8a9cd2d005)" d="M 138.436364 205.258391 
L 172.254545 223.004197 
L 206.072727 238.743237 
L 239.890909 252.286493 
L 273.709091 264.072771 
L 307.527273 274.474924 
L 341.345455 283.616954 
L 375.163636 291.841736 
L 408.981818 299.488442 
L 442.8 306.13809 
L 476.618182 312.605125 
L 510.436364 318.318995 
L 544.254545 323.597601 
L 578.072727 328.445841 
L 611.890909 333.092921 
L 645.709091 337.09609 
L 679.527273 340.864028 
L 713.345455 344.366003 
L 747.163636 347.617184 
" style="fill:none;stroke:#2ca02c;stroke-linecap:square;stroke-width:1.5;"/>
   </g>
   <g id="line2d_40">
    <path clip-path="url(#p8a9cd2d005)" d="M 138.436364 164.837102 
L 172.254545 212.329154 
L 206.072727 219.037231 
L 239.890909 225.129632 
L 273.709091 231.02954 
L 307.527273 237.399668 
L 341.345455 243.802413 
L 375.163636 250.087424 
L 408.981818 256.04452 
L 442.8 261.874948 
L 476.618182 267.209386 
L 510.436364 272.405914 
L 544.254545 277.096644 
L 578.072727 281.7033 
L 611.890909 285.80061 
L 645.709091 289.523827 
L 679.527273 292.797817 
L 713.345455 295.721933 
L 747.163636 298.726735 
" style="fill:none;stroke:#d3d3d3;stroke-linecap:square;stroke-width:1.5;"/>
   </g>
   <g id="line2d_41">
    <path clip-path="url(#p8a9cd2d005)" d="M 138.436364 188.205493 
L 172.254545 214.724167 
L 206.072727 221.347461 
L 239.890909 227.914933 
L 273.709091 234.382818 
L 307.527273 241.174397 
L 341.345455 247.714566 
L 375.163636 254.104957 
L 408.981818 260.336006 
L 442.8 266.383365 
L 476.618182 272.032313 
L 510.436364 277.238681 
L 544.254545 282.078803 
L 578.072727 286.44485 
L 611.890909 291.018153 
L 645.709091 294.514782 
L 679.527273 298.135658 
L 713.345455 301.289212 
L 747.163636 304.324399 
" style="fill:none;stroke:#d3d3d3;stroke-linecap:square;stroke-width:1.5;"/>
   </g>
   <g id="line2d_42">
    <path clip-path="url(#p8a9cd2d005)" d="M 138.436364 189.82748 
L 172.254545 220.754535 
L 206.072727 240.864373 
L 239.890909 255.271813 
L 273.709091 266.673651 
L 307.527273 276.414514 
L 341.345455 284.972225 
L 375.163636 292.551022 
L 408.981818 299.586711 
L 442.8 306.092884 
L 476.618182 311.877331 
L 510.436364 317.453813 
L 544.254545 322.43649 
L 578.072727 327.316628 
L 611.890909 331.510784 
L 645.709091 335.510862 
L 679.527273 339.084803 
L 713.345455 342.247851 
L 747.163636 345.332984 
" style="fill:none;stroke:#d62728;stroke-linecap:square;stroke-width:1.5;"/>
   </g>
   <g id="line2d_43">
    <path clip-path="url(#p8a9cd2d005)" d="M 138.436364 209.550672 
L 172.254545 223.949519 
L 206.072727 236.883637 
L 239.890909 248.605003 
L 273.709091 259.310079 
L 307.527273 268.941498 
L 341.345455 277.856251 
L 375.163636 286.196818 
L 408.981818 293.719821 
L 442.8 300.334133 
L 476.618182 306.766357 
L 510.436364 312.529119 
L 544.254545 317.659903 
L 578.072727 322.345037 
L 611.890909 326.880104 
L 645.709091 330.813358 
L 679.527273 334.340995 
L 713.345455 337.689286 
L 747.163636 340.671922 
" style="fill:none;stroke:#d3d3d3;stroke-linecap:square;stroke-width:1.5;"/>
   </g>
   <g id="line2d_44">
    <path clip-path="url(#p8a9cd2d005)" d="M 138.436364 216.543473 
L 172.254545 229.641861 
L 206.072727 241.435655 
L 239.890909 251.87552 
L 273.709091 261.365602 
L 307.527273 270.150609 
L 341.345455 278.098641 
L 375.163636 285.569332 
L 408.981818 292.391312 
L 442.8 298.642452 
L 476.618182 304.56833 
L 510.436364 309.846788 
L 544.254545 314.895928 
L 578.072727 319.518077 
L 611.890909 323.794025 
L 645.709091 327.61131 
L 679.527273 331.123076 
L 713.345455 334.244637 
L 747.163636 337.221848 
" style="fill:none;stroke:#d3d3d3;stroke-linecap:square;stroke-width:1.5;"/>
   </g>
   <g id="line2d_45">
    <path clip-path="url(#p8a9cd2d005)" d="M 138.436364 89.103668 
L 172.254545 217.432962 
L 206.072727 230.531355 
L 239.890909 238.547577 
L 273.709091 246.084812 
L 307.527273 253.689259 
L 341.345455 260.972848 
L 375.163636 268.050771 
L 408.981818 274.338237 
L 442.8 280.549146 
L 476.618182 285.99128 
L 510.436364 291.390722 
L 544.254545 296.221414 
L 578.072727 300.535125 
L 611.890909 304.601954 
L 645.709091 308.409577 
L 679.527273 311.767743 
L 713.345455 315.086181 
L 747.163636 317.76606 
" style="fill:none;stroke:#d3d3d3;stroke-linecap:square;stroke-width:1.5;"/>
   </g>
   <g id="line2d_46">
    <path clip-path="url(#p8a9cd2d005)" d="M 138.436364 222.411361 
L 172.254545 234.666478 
L 206.072727 245.789006 
L 239.890909 255.910787 
L 273.709091 265.332007 
L 307.527273 273.958646 
L 341.345455 282.094849 
L 375.163636 289.741982 
L 408.981818 296.763793 
L 442.8 303.222145 
L 476.618182 309.215068 
L 510.436364 314.928054 
L 544.254545 320.11023 
L 578.072727 325.032053 
L 611.890909 329.262259 
L 645.709091 333.303891 
L 679.527273 336.980889 
L 713.345455 340.321015 
L 747.163636 343.391167 
" style="fill:none;stroke:#d3d3d3;stroke-linecap:square;stroke-width:1.5;"/>
   </g>
   <g id="line2d_47">
    <path clip-path="url(#p8a9cd2d005)" d="M 138.436364 213.812685 
L 172.254545 227.067454 
L 206.072727 239.217391 
L 239.890909 250.436869 
L 273.709091 260.631071 
L 307.527273 270.156272 
L 341.345455 278.887026 
L 375.163636 286.990301 
L 408.981818 294.324953 
L 442.8 301.163123 
L 476.618182 307.412253 
L 510.436364 313.014564 
L 544.254545 318.348899 
L 578.072727 323.12039 
L 611.890909 327.459661 
L 645.709091 331.502781 
L 679.527273 335.111739 
L 713.345455 338.528207 
L 747.163636 341.504445 
" style="fill:none;stroke:#d3d3d3;stroke-linecap:square;stroke-width:1.5;"/>
   </g>
   <g id="line2d_48">
    <path clip-path="url(#p8a9cd2d005)" d="M 138.436364 214.649331 
L 172.254545 234.821043 
L 206.072727 245.634782 
L 239.890909 255.125649 
L 273.709091 263.876301 
L 307.527273 272.102148 
L 341.345455 279.706781 
L 375.163636 286.786896 
L 408.981818 293.359617 
L 442.8 299.392486 
L 476.618182 304.968276 
L 510.436364 310.241591 
L 544.254545 315.042824 
L 578.072727 319.337994 
L 611.890909 323.378982 
L 645.709091 327.173386 
L 679.527273 330.548614 
L 713.345455 333.606595 
L 747.163636 336.490846 
" style="fill:none;stroke:#d3d3d3;stroke-linecap:square;stroke-width:1.5;"/>
   </g>
   <g id="line2d_49">
    <path clip-path="url(#p8a9cd2d005)" d="M 138.436364 178.874996 
L 172.254545 198.86636 
L 206.072727 203.932915 
L 239.890909 208.765343 
L 273.709091 213.897222 
L 307.527273 219.318145 
L 341.345455 225.281279 
L 375.163636 231.397705 
L 408.981818 236.957258 
L 442.8 242.516361 
L 476.618182 248.059436 
L 510.436364 253.076421 
L 544.254545 257.68948 
L 578.072727 261.83258 
L 611.890909 265.803337 
L 645.709091 269.676611 
L 679.527273 273.284655 
L 713.345455 276.250069 
L 747.163636 278.635102 
" style="fill:none;stroke:#d3d3d3;stroke-linecap:square;stroke-width:1.5;"/>
   </g>
   <g id="line2d_50">
    <path clip-path="url(#p8a9cd2d005)" d="M 138.436364 199.393074 
L 172.254545 221.45743 
L 206.072727 238.575169 
L 239.890909 252.33669 
L 273.709091 263.83759 
L 307.527273 274.00821 
L 341.345455 282.992213 
L 375.163636 290.961923 
L 408.981818 298.24458 
L 442.8 305.019611 
L 476.618182 311.140758 
L 510.436364 316.896889 
L 544.254545 321.931873 
L 578.072727 326.826661 
L 611.890909 331.104512 
L 645.709091 335.008117 
L 679.527273 338.589369 
L 713.345455 341.923591 
L 747.163636 344.987082 
" style="fill:none;stroke:#d3d3d3;stroke-linecap:square;stroke-width:1.5;"/>
   </g>
   <g id="line2d_51">
    <path clip-path="url(#p8a9cd2d005)" d="M 138.436364 185.741643 
L 172.254545 223.74372 
L 206.072727 232.012181 
L 239.890909 239.946224 
L 273.709091 247.642455 
L 307.527273 255.21096 
L 341.345455 262.398695 
L 375.163636 269.169559 
L 408.981818 275.82242 
L 442.8 281.776231 
L 476.618182 287.247845 
L 510.436364 292.56347 
L 544.254545 297.233467 
L 578.072727 301.65321 
L 611.890909 305.816923 
L 645.709091 309.400401 
L 679.527273 312.774527 
L 713.345455 316.023638 
L 747.163636 318.736312 
" style="fill:none;stroke:#d3d3d3;stroke-linecap:square;stroke-width:1.5;"/>
   </g>
   <g id="line2d_52">
    <path clip-path="url(#p8a9cd2d005)" d="M 138.436364 204.155086 
L 172.254545 222.57103 
L 206.072727 238.686908 
L 239.890909 252.488253 
L 273.709091 264.232642 
L 307.527273 274.608869 
L 341.345455 283.841176 
L 375.163636 292.096628 
L 408.981818 299.531756 
L 442.8 306.363805 
L 476.618182 312.600193 
L 510.436364 318.462299 
L 544.254545 323.651858 
L 578.072727 328.5722 
L 611.890909 333.111388 
L 645.709091 337.06652 
L 679.527273 340.874167 
L 713.345455 344.387881 
L 747.163636 347.308102 
" style="fill:none;stroke:#9467bd;stroke-linecap:square;stroke-width:1.5;"/>
   </g>
   <g id="line2d_53">
    <path clip-path="url(#p8a9cd2d005)" d="M 138.436364 223.122948 
L 172.254545 237.720091 
L 206.072727 248.305005 
L 239.890909 258.270092 
L 273.709091 267.429777 
L 307.527273 276.097146 
L 341.345455 284.069884 
L 375.163636 291.396578 
L 408.981818 298.040589 
L 442.8 304.383245 
L 476.618182 310.274738 
L 510.436364 315.591839 
L 544.254545 320.682536 
L 578.072727 325.178091 
L 611.890909 329.528313 
L 645.709091 333.240371 
L 679.527273 336.885302 
L 713.345455 340.041814 
L 747.163636 342.922118 
" style="fill:none;stroke:#d3d3d3;stroke-linecap:square;stroke-width:1.5;"/>
   </g>
   <g id="line2d_54">
    <path clip-path="url(#p8a9cd2d005)" d="M 138.436364 211.551333 
L 172.254545 226.262479 
L 206.072727 239.96393 
L 239.890909 252.434724 
L 273.709091 263.62072 
L 307.527273 273.585828 
L 341.345455 282.746074 
L 375.163636 290.882445 
L 408.981818 298.576779 
L 442.8 305.594285 
L 476.618182 311.843683 
L 510.436364 317.587316 
L 544.254545 323.09114 
L 578.072727 327.873811 
L 611.890909 332.520865 
L 645.709091 336.808125 
L 679.527273 340.640965 
L 713.345455 343.946152 
L 747.163636 347.358538 
" style="fill:none;stroke:#8c564b;stroke-linecap:square;stroke-width:1.5;"/>
   </g>
   <g id="line2d_55">
    <path clip-path="url(#p8a9cd2d005)" d="M 138.436364 204.973548 
L 172.254545 222.890443 
L 206.072727 238.592477 
L 239.890909 252.271122 
L 273.709091 263.964232 
L 307.527273 274.283943 
L 341.345455 283.452994 
L 375.163636 291.83245 
L 408.981818 299.439967 
L 442.8 305.99264 
L 476.618182 312.590795 
L 510.436364 318.293231 
L 544.254545 323.714829 
L 578.072727 328.574669 
L 611.890909 332.987649 
L 645.709091 337.167793 
L 679.527273 340.876713 
L 713.345455 344.366513 
L 747.163636 347.415471 
" style="fill:none;stroke:#e377c2;stroke-linecap:square;stroke-width:1.5;"/>
   </g>
   <g id="patch_3">
    <path d="M 108 378 
L 108 51.84 
" style="fill:none;stroke:#000000;stroke-linecap:square;stroke-linejoin:miter;stroke-width:0.8;"/>
   </g>
   <g id="patch_4">
    <path d="M 777.6 378 
L 777.6 51.84 
" style="fill:none;stroke:#000000;stroke-linecap:square;stroke-linejoin:miter;stroke-width:0.8;"/>
   </g>
   <g id="patch_5">
    <path d="M 108 378 
L 777.6 378 
" style="fill:none;stroke:#000000;stroke-linecap:square;stroke-linejoin:miter;stroke-width:0.8;"/>
   </g>
   <g id="patch_6">
    <path d="M 108 51.84 
L 777.6 51.84 
" style="fill:none;stroke:#000000;stroke-linecap:square;stroke-linejoin:miter;stroke-width:0.8;"/>
   </g>
   <g id="text_18">
    <!-- Training Error over 20 epochs -->
    <defs>
     <path d="M 2.984375 54.6875 
L 12.5 54.6875 
L 29.59375 8.796875 
L 46.6875 54.6875 
L 56.203125 54.6875 
L 35.6875 0 
L 23.484375 0 
z
" id="DejaVuSans-76"/>
     <path d="M 44.28125 53.078125 
L 44.28125 44.578125 
Q 40.484375 46.53125 36.375 47.5 
Q 32.28125 48.484375 27.875 48.484375 
Q 21.1875 48.484375 17.84375 46.4375 
Q 14.5 44.390625 14.5 40.28125 
Q 14.5 37.15625 16.890625 35.375 
Q 19.28125 33.59375 26.515625 31.984375 
L 29.59375 31.296875 
Q 39.15625 29.25 43.1875 25.515625 
Q 47.21875 21.78125 47.21875 15.09375 
Q 47.21875 7.46875 41.1875 3.015625 
Q 35.15625 -1.421875 24.609375 -1.421875 
Q 20.21875 -1.421875 15.453125 -0.5625 
Q 10.6875 0.296875 5.421875 2 
L 5.421875 11.28125 
Q 10.40625 8.6875 15.234375 7.390625 
Q 20.0625 6.109375 24.8125 6.109375 
Q 31.15625 6.109375 34.5625 8.28125 
Q 37.984375 10.453125 37.984375 14.40625 
Q 37.984375 18.0625 35.515625 20.015625 
Q 33.0625 21.96875 24.703125 23.78125 
L 21.578125 24.515625 
Q 13.234375 26.265625 9.515625 29.90625 
Q 5.8125 33.546875 5.8125 39.890625 
Q 5.8125 47.609375 11.28125 51.796875 
Q 16.75 56 26.8125 56 
Q 31.78125 56 36.171875 55.265625 
Q 40.578125 54.546875 44.28125 53.078125 
" id="DejaVuSans-73"/>
    </defs>
    <g transform="translate(353.355 45.84)scale(0.12 -0.12)">
     <use xlink:href="#DejaVuSans-54"/>
     <use x="60.865234" xlink:href="#DejaVuSans-72"/>
     <use x="101.978516" xlink:href="#DejaVuSans-61"/>
     <use x="163.257812" xlink:href="#DejaVuSans-69"/>
     <use x="191.041016" xlink:href="#DejaVuSans-6e"/>
     <use x="254.419922" xlink:href="#DejaVuSans-69"/>
     <use x="282.203125" xlink:href="#DejaVuSans-6e"/>
     <use x="345.582031" xlink:href="#DejaVuSans-67"/>
     <use x="409.058594" xlink:href="#DejaVuSans-20"/>
     <use x="440.845703" xlink:href="#DejaVuSans-45"/>
     <use x="504.029297" xlink:href="#DejaVuSans-72"/>
     <use x="545.126953" xlink:href="#DejaVuSans-72"/>
     <use x="586.208984" xlink:href="#DejaVuSans-6f"/>
     <use x="647.390625" xlink:href="#DejaVuSans-72"/>
     <use x="688.503906" xlink:href="#DejaVuSans-20"/>
     <use x="720.291016" xlink:href="#DejaVuSans-6f"/>
     <use x="781.472656" xlink:href="#DejaVuSans-76"/>
     <use x="840.652344" xlink:href="#DejaVuSans-65"/>
     <use x="902.175781" xlink:href="#DejaVuSans-72"/>
     <use x="943.289062" xlink:href="#DejaVuSans-20"/>
     <use x="975.076172" xlink:href="#DejaVuSans-32"/>
     <use x="1038.699219" xlink:href="#DejaVuSans-30"/>
     <use x="1102.322266" xlink:href="#DejaVuSans-20"/>
     <use x="1134.109375" xlink:href="#DejaVuSans-65"/>
     <use x="1195.632812" xlink:href="#DejaVuSans-70"/>
     <use x="1259.109375" xlink:href="#DejaVuSans-6f"/>
     <use x="1320.291016" xlink:href="#DejaVuSans-63"/>
     <use x="1375.271484" xlink:href="#DejaVuSans-68"/>
     <use x="1438.650391" xlink:href="#DejaVuSans-73"/>
    </g>
   </g>
   <g id="legend_1">
    <g id="patch_7">
     <path d="M 127.0875 164.53375 
L 770.6 164.53375 
Q 772.6 164.53375 772.6 162.53375 
L 772.6 58.84 
Q 772.6 56.84 770.6 56.84 
L 127.0875 56.84 
Q 125.0875 56.84 125.0875 58.84 
L 125.0875 162.53375 
Q 125.0875 164.53375 127.0875 164.53375 
z
" style="fill:#ffffff;opacity:0.8;stroke:#cccccc;stroke-linejoin:miter;"/>
    </g>
    <g id="line2d_56">
     <path d="M 129.0875 64.938437 
L 149.0875 64.938437 
" style="fill:none;stroke:#1f77b4;stroke-linecap:square;stroke-width:1.5;"/>
    </g>
    <g id="line2d_57"/>
    <g id="text_19">
     <!-- input_keep_prob: 0.5, hidden_keep_prob: 1.0, hidden_dim: 1048, lamda2: 0.001 -->
     <defs>
      <path d="M 18.3125 70.21875 
L 18.3125 54.6875 
L 36.8125 54.6875 
L 36.8125 47.703125 
L 18.3125 47.703125 
L 18.3125 18.015625 
Q 18.3125 11.328125 20.140625 9.421875 
Q 21.96875 7.515625 27.59375 7.515625 
L 36.8125 7.515625 
L 36.8125 0 
L 27.59375 0 
Q 17.1875 0 13.234375 3.875 
Q 9.28125 7.765625 9.28125 18.015625 
L 9.28125 47.703125 
L 2.6875 47.703125 
L 2.6875 54.6875 
L 9.28125 54.6875 
L 9.28125 70.21875 
z
" id="DejaVuSans-74"/>
      <path d="M 50.984375 -16.609375 
L 50.984375 -23.578125 
L -0.984375 -23.578125 
L -0.984375 -16.609375 
z
" id="DejaVuSans-5f"/>
      <path d="M 9.078125 75.984375 
L 18.109375 75.984375 
L 18.109375 31.109375 
L 44.921875 54.6875 
L 56.390625 54.6875 
L 27.390625 29.109375 
L 57.625 0 
L 45.90625 0 
L 18.109375 26.703125 
L 18.109375 0 
L 9.078125 0 
z
" id="DejaVuSans-6b"/>
      <path d="M 11.71875 12.40625 
L 22.015625 12.40625 
L 22.015625 0 
L 11.71875 0 
z
M 11.71875 51.703125 
L 22.015625 51.703125 
L 22.015625 39.3125 
L 11.71875 39.3125 
z
" id="DejaVuSans-3a"/>
      <path d="M 11.71875 12.40625 
L 22.015625 12.40625 
L 22.015625 4 
L 14.015625 -11.625 
L 7.71875 -11.625 
L 11.71875 4 
z
" id="DejaVuSans-2c"/>
      <path d="M 45.40625 46.390625 
L 45.40625 75.984375 
L 54.390625 75.984375 
L 54.390625 0 
L 45.40625 0 
L 45.40625 8.203125 
Q 42.578125 3.328125 38.25 0.953125 
Q 33.9375 -1.421875 27.875 -1.421875 
Q 17.96875 -1.421875 11.734375 6.484375 
Q 5.515625 14.40625 5.515625 27.296875 
Q 5.515625 40.1875 11.734375 48.09375 
Q 17.96875 56 27.875 56 
Q 33.9375 56 38.25 53.625 
Q 42.578125 51.265625 45.40625 46.390625 
M 14.796875 27.296875 
Q 14.796875 17.390625 18.875 11.75 
Q 22.953125 6.109375 30.078125 6.109375 
Q 37.203125 6.109375 41.296875 11.75 
Q 45.40625 17.390625 45.40625 27.296875 
Q 45.40625 37.203125 41.296875 42.84375 
Q 37.203125 48.484375 30.078125 48.484375 
Q 22.953125 48.484375 18.875 42.84375 
Q 14.796875 37.203125 14.796875 27.296875 
" id="DejaVuSans-64"/>
      <path d="M 9.421875 75.984375 
L 18.40625 75.984375 
L 18.40625 0 
L 9.421875 0 
z
" id="DejaVuSans-6c"/>
     </defs>
     <g transform="translate(157.0875 68.438437)scale(0.1 -0.1)">
      <use xlink:href="#DejaVuSans-69"/>
      <use x="27.783203" xlink:href="#DejaVuSans-6e"/>
      <use x="91.162109" xlink:href="#DejaVuSans-70"/>
      <use x="154.638672" xlink:href="#DejaVuSans-75"/>
      <use x="218.017578" xlink:href="#DejaVuSans-74"/>
      <use x="257.226562" xlink:href="#DejaVuSans-5f"/>
      <use x="307.226562" xlink:href="#DejaVuSans-6b"/>
      <use x="365.089844" xlink:href="#DejaVuSans-65"/>
      <use x="426.613281" xlink:href="#DejaVuSans-65"/>
      <use x="488.136719" xlink:href="#DejaVuSans-70"/>
      <use x="551.613281" xlink:href="#DejaVuSans-5f"/>
      <use x="601.613281" xlink:href="#DejaVuSans-70"/>
      <use x="665.089844" xlink:href="#DejaVuSans-72"/>
      <use x="706.171875" xlink:href="#DejaVuSans-6f"/>
      <use x="767.353516" xlink:href="#DejaVuSans-62"/>
      <use x="830.830078" xlink:href="#DejaVuSans-3a"/>
      <use x="864.521484" xlink:href="#DejaVuSans-20"/>
      <use x="896.308594" xlink:href="#DejaVuSans-30"/>
      <use x="959.931641" xlink:href="#DejaVuSans-2e"/>
      <use x="991.71875" xlink:href="#DejaVuSans-35"/>
      <use x="1055.341797" xlink:href="#DejaVuSans-2c"/>
      <use x="1087.128906" xlink:href="#DejaVuSans-20"/>
      <use x="1118.916016" xlink:href="#DejaVuSans-68"/>
      <use x="1182.294922" xlink:href="#DejaVuSans-69"/>
      <use x="1210.078125" xlink:href="#DejaVuSans-64"/>
      <use x="1273.554688" xlink:href="#DejaVuSans-64"/>
      <use x="1337.03125" xlink:href="#DejaVuSans-65"/>
      <use x="1398.554688" xlink:href="#DejaVuSans-6e"/>
      <use x="1461.933594" xlink:href="#DejaVuSans-5f"/>
      <use x="1511.933594" xlink:href="#DejaVuSans-6b"/>
      <use x="1569.796875" xlink:href="#DejaVuSans-65"/>
      <use x="1631.320312" xlink:href="#DejaVuSans-65"/>
      <use x="1692.84375" xlink:href="#DejaVuSans-70"/>
      <use x="1756.320312" xlink:href="#DejaVuSans-5f"/>
      <use x="1806.320312" xlink:href="#DejaVuSans-70"/>
      <use x="1869.796875" xlink:href="#DejaVuSans-72"/>
      <use x="1910.878906" xlink:href="#DejaVuSans-6f"/>
      <use x="1972.060547" xlink:href="#DejaVuSans-62"/>
      <use x="2035.537109" xlink:href="#DejaVuSans-3a"/>
      <use x="2069.228516" xlink:href="#DejaVuSans-20"/>
      <use x="2101.015625" xlink:href="#DejaVuSans-31"/>
      <use x="2164.638672" xlink:href="#DejaVuSans-2e"/>
      <use x="2196.425781" xlink:href="#DejaVuSans-30"/>
      <use x="2260.048828" xlink:href="#DejaVuSans-2c"/>
      <use x="2291.835938" xlink:href="#DejaVuSans-20"/>
      <use x="2323.623047" xlink:href="#DejaVuSans-68"/>
      <use x="2387.001953" xlink:href="#DejaVuSans-69"/>
      <use x="2414.785156" xlink:href="#DejaVuSans-64"/>
      <use x="2478.261719" xlink:href="#DejaVuSans-64"/>
      <use x="2541.738281" xlink:href="#DejaVuSans-65"/>
      <use x="2603.261719" xlink:href="#DejaVuSans-6e"/>
      <use x="2666.640625" xlink:href="#DejaVuSans-5f"/>
      <use x="2716.640625" xlink:href="#DejaVuSans-64"/>
      <use x="2780.117188" xlink:href="#DejaVuSans-69"/>
      <use x="2807.900391" xlink:href="#DejaVuSans-6d"/>
      <use x="2905.3125" xlink:href="#DejaVuSans-3a"/>
      <use x="2939.003906" xlink:href="#DejaVuSans-20"/>
      <use x="2970.791016" xlink:href="#DejaVuSans-31"/>
      <use x="3034.414062" xlink:href="#DejaVuSans-30"/>
      <use x="3098.037109" xlink:href="#DejaVuSans-34"/>
      <use x="3161.660156" xlink:href="#DejaVuSans-38"/>
      <use x="3225.283203" xlink:href="#DejaVuSans-2c"/>
      <use x="3257.070312" xlink:href="#DejaVuSans-20"/>
      <use x="3288.857422" xlink:href="#DejaVuSans-6c"/>
      <use x="3316.640625" xlink:href="#DejaVuSans-61"/>
      <use x="3377.919922" xlink:href="#DejaVuSans-6d"/>
      <use x="3475.332031" xlink:href="#DejaVuSans-64"/>
      <use x="3538.808594" xlink:href="#DejaVuSans-61"/>
      <use x="3600.087891" xlink:href="#DejaVuSans-32"/>
      <use x="3663.710938" xlink:href="#DejaVuSans-3a"/>
      <use x="3697.402344" xlink:href="#DejaVuSans-20"/>
      <use x="3729.189453" xlink:href="#DejaVuSans-30"/>
      <use x="3792.8125" xlink:href="#DejaVuSans-2e"/>
      <use x="3824.599609" xlink:href="#DejaVuSans-30"/>
      <use x="3888.222656" xlink:href="#DejaVuSans-30"/>
      <use x="3951.845703" xlink:href="#DejaVuSans-31"/>
     </g>
    </g>
    <g id="line2d_58">
     <path d="M 129.0875 79.894687 
L 149.0875 79.894687 
" style="fill:none;stroke:#ff7f0e;stroke-linecap:square;stroke-width:1.5;"/>
    </g>
    <g id="line2d_59"/>
    <g id="text_20">
     <!-- input_keep_prob: 0.861535710844, hidden_keep_prob: 1.0, hidden_dim: 1120, lamda2: 0.001 -->
     <defs>
      <path d="M 40.578125 39.3125 
Q 47.65625 37.796875 51.625 33 
Q 55.609375 28.21875 55.609375 21.1875 
Q 55.609375 10.40625 48.1875 4.484375 
Q 40.765625 -1.421875 27.09375 -1.421875 
Q 22.515625 -1.421875 17.65625 -0.515625 
Q 12.796875 0.390625 7.625 2.203125 
L 7.625 11.71875 
Q 11.71875 9.328125 16.59375 8.109375 
Q 21.484375 6.890625 26.8125 6.890625 
Q 36.078125 6.890625 40.9375 10.546875 
Q 45.796875 14.203125 45.796875 21.1875 
Q 45.796875 27.640625 41.28125 31.265625 
Q 36.765625 34.90625 28.71875 34.90625 
L 20.21875 34.90625 
L 20.21875 43.015625 
L 29.109375 43.015625 
Q 36.375 43.015625 40.234375 45.921875 
Q 44.09375 48.828125 44.09375 54.296875 
Q 44.09375 59.90625 40.109375 62.90625 
Q 36.140625 65.921875 28.71875 65.921875 
Q 24.65625 65.921875 20.015625 65.03125 
Q 15.375 64.15625 9.8125 62.3125 
L 9.8125 71.09375 
Q 15.4375 72.65625 20.34375 73.4375 
Q 25.25 74.21875 29.59375 74.21875 
Q 40.828125 74.21875 47.359375 69.109375 
Q 53.90625 64.015625 53.90625 55.328125 
Q 53.90625 49.265625 50.4375 45.09375 
Q 46.96875 40.921875 40.578125 39.3125 
" id="DejaVuSans-33"/>
     </defs>
     <g transform="translate(157.0875 83.394687)scale(0.1 -0.1)">
      <use xlink:href="#DejaVuSans-69"/>
      <use x="27.783203" xlink:href="#DejaVuSans-6e"/>
      <use x="91.162109" xlink:href="#DejaVuSans-70"/>
      <use x="154.638672" xlink:href="#DejaVuSans-75"/>
      <use x="218.017578" xlink:href="#DejaVuSans-74"/>
      <use x="257.226562" xlink:href="#DejaVuSans-5f"/>
      <use x="307.226562" xlink:href="#DejaVuSans-6b"/>
      <use x="365.089844" xlink:href="#DejaVuSans-65"/>
      <use x="426.613281" xlink:href="#DejaVuSans-65"/>
      <use x="488.136719" xlink:href="#DejaVuSans-70"/>
      <use x="551.613281" xlink:href="#DejaVuSans-5f"/>
      <use x="601.613281" xlink:href="#DejaVuSans-70"/>
      <use x="665.089844" xlink:href="#DejaVuSans-72"/>
      <use x="706.171875" xlink:href="#DejaVuSans-6f"/>
      <use x="767.353516" xlink:href="#DejaVuSans-62"/>
      <use x="830.830078" xlink:href="#DejaVuSans-3a"/>
      <use x="864.521484" xlink:href="#DejaVuSans-20"/>
      <use x="896.308594" xlink:href="#DejaVuSans-30"/>
      <use x="959.931641" xlink:href="#DejaVuSans-2e"/>
      <use x="991.71875" xlink:href="#DejaVuSans-38"/>
      <use x="1055.341797" xlink:href="#DejaVuSans-36"/>
      <use x="1118.964844" xlink:href="#DejaVuSans-31"/>
      <use x="1182.587891" xlink:href="#DejaVuSans-35"/>
      <use x="1246.210938" xlink:href="#DejaVuSans-33"/>
      <use x="1309.833984" xlink:href="#DejaVuSans-35"/>
      <use x="1373.457031" xlink:href="#DejaVuSans-37"/>
      <use x="1437.080078" xlink:href="#DejaVuSans-31"/>
      <use x="1500.703125" xlink:href="#DejaVuSans-30"/>
      <use x="1564.326172" xlink:href="#DejaVuSans-38"/>
      <use x="1627.949219" xlink:href="#DejaVuSans-34"/>
      <use x="1691.572266" xlink:href="#DejaVuSans-34"/>
      <use x="1755.195312" xlink:href="#DejaVuSans-2c"/>
      <use x="1786.982422" xlink:href="#DejaVuSans-20"/>
      <use x="1818.769531" xlink:href="#DejaVuSans-68"/>
      <use x="1882.148438" xlink:href="#DejaVuSans-69"/>
      <use x="1909.931641" xlink:href="#DejaVuSans-64"/>
      <use x="1973.408203" xlink:href="#DejaVuSans-64"/>
      <use x="2036.884766" xlink:href="#DejaVuSans-65"/>
      <use x="2098.408203" xlink:href="#DejaVuSans-6e"/>
      <use x="2161.787109" xlink:href="#DejaVuSans-5f"/>
      <use x="2211.787109" xlink:href="#DejaVuSans-6b"/>
      <use x="2269.650391" xlink:href="#DejaVuSans-65"/>
      <use x="2331.173828" xlink:href="#DejaVuSans-65"/>
      <use x="2392.697266" xlink:href="#DejaVuSans-70"/>
      <use x="2456.173828" xlink:href="#DejaVuSans-5f"/>
      <use x="2506.173828" xlink:href="#DejaVuSans-70"/>
      <use x="2569.650391" xlink:href="#DejaVuSans-72"/>
      <use x="2610.732422" xlink:href="#DejaVuSans-6f"/>
      <use x="2671.914062" xlink:href="#DejaVuSans-62"/>
      <use x="2735.390625" xlink:href="#DejaVuSans-3a"/>
      <use x="2769.082031" xlink:href="#DejaVuSans-20"/>
      <use x="2800.869141" xlink:href="#DejaVuSans-31"/>
      <use x="2864.492188" xlink:href="#DejaVuSans-2e"/>
      <use x="2896.279297" xlink:href="#DejaVuSans-30"/>
      <use x="2959.902344" xlink:href="#DejaVuSans-2c"/>
      <use x="2991.689453" xlink:href="#DejaVuSans-20"/>
      <use x="3023.476562" xlink:href="#DejaVuSans-68"/>
      <use x="3086.855469" xlink:href="#DejaVuSans-69"/>
      <use x="3114.638672" xlink:href="#DejaVuSans-64"/>
      <use x="3178.115234" xlink:href="#DejaVuSans-64"/>
      <use x="3241.591797" xlink:href="#DejaVuSans-65"/>
      <use x="3303.115234" xlink:href="#DejaVuSans-6e"/>
      <use x="3366.494141" xlink:href="#DejaVuSans-5f"/>
      <use x="3416.494141" xlink:href="#DejaVuSans-64"/>
      <use x="3479.970703" xlink:href="#DejaVuSans-69"/>
      <use x="3507.753906" xlink:href="#DejaVuSans-6d"/>
      <use x="3605.166016" xlink:href="#DejaVuSans-3a"/>
      <use x="3638.857422" xlink:href="#DejaVuSans-20"/>
      <use x="3670.644531" xlink:href="#DejaVuSans-31"/>
      <use x="3734.267578" xlink:href="#DejaVuSans-31"/>
      <use x="3797.890625" xlink:href="#DejaVuSans-32"/>
      <use x="3861.513672" xlink:href="#DejaVuSans-30"/>
      <use x="3925.136719" xlink:href="#DejaVuSans-2c"/>
      <use x="3956.923828" xlink:href="#DejaVuSans-20"/>
      <use x="3988.710938" xlink:href="#DejaVuSans-6c"/>
      <use x="4016.494141" xlink:href="#DejaVuSans-61"/>
      <use x="4077.773438" xlink:href="#DejaVuSans-6d"/>
      <use x="4175.185547" xlink:href="#DejaVuSans-64"/>
      <use x="4238.662109" xlink:href="#DejaVuSans-61"/>
      <use x="4299.941406" xlink:href="#DejaVuSans-32"/>
      <use x="4363.564453" xlink:href="#DejaVuSans-3a"/>
      <use x="4397.255859" xlink:href="#DejaVuSans-20"/>
      <use x="4429.042969" xlink:href="#DejaVuSans-30"/>
      <use x="4492.666016" xlink:href="#DejaVuSans-2e"/>
      <use x="4524.453125" xlink:href="#DejaVuSans-30"/>
      <use x="4588.076172" xlink:href="#DejaVuSans-30"/>
      <use x="4651.699219" xlink:href="#DejaVuSans-31"/>
     </g>
    </g>
    <g id="line2d_60">
     <path d="M 129.0875 94.850937 
L 149.0875 94.850937 
" style="fill:none;stroke:#2ca02c;stroke-linecap:square;stroke-width:1.5;"/>
    </g>
    <g id="line2d_61"/>
    <g id="text_21">
     <!-- input_keep_prob: 0.5, hidden_keep_prob: 1.0, hidden_dim: 1784, lamda2: 0.001 -->
     <g transform="translate(157.0875 98.350937)scale(0.1 -0.1)">
      <use xlink:href="#DejaVuSans-69"/>
      <use x="27.783203" xlink:href="#DejaVuSans-6e"/>
      <use x="91.162109" xlink:href="#DejaVuSans-70"/>
      <use x="154.638672" xlink:href="#DejaVuSans-75"/>
      <use x="218.017578" xlink:href="#DejaVuSans-74"/>
      <use x="257.226562" xlink:href="#DejaVuSans-5f"/>
      <use x="307.226562" xlink:href="#DejaVuSans-6b"/>
      <use x="365.089844" xlink:href="#DejaVuSans-65"/>
      <use x="426.613281" xlink:href="#DejaVuSans-65"/>
      <use x="488.136719" xlink:href="#DejaVuSans-70"/>
      <use x="551.613281" xlink:href="#DejaVuSans-5f"/>
      <use x="601.613281" xlink:href="#DejaVuSans-70"/>
      <use x="665.089844" xlink:href="#DejaVuSans-72"/>
      <use x="706.171875" xlink:href="#DejaVuSans-6f"/>
      <use x="767.353516" xlink:href="#DejaVuSans-62"/>
      <use x="830.830078" xlink:href="#DejaVuSans-3a"/>
      <use x="864.521484" xlink:href="#DejaVuSans-20"/>
      <use x="896.308594" xlink:href="#DejaVuSans-30"/>
      <use x="959.931641" xlink:href="#DejaVuSans-2e"/>
      <use x="991.71875" xlink:href="#DejaVuSans-35"/>
      <use x="1055.341797" xlink:href="#DejaVuSans-2c"/>
      <use x="1087.128906" xlink:href="#DejaVuSans-20"/>
      <use x="1118.916016" xlink:href="#DejaVuSans-68"/>
      <use x="1182.294922" xlink:href="#DejaVuSans-69"/>
      <use x="1210.078125" xlink:href="#DejaVuSans-64"/>
      <use x="1273.554688" xlink:href="#DejaVuSans-64"/>
      <use x="1337.03125" xlink:href="#DejaVuSans-65"/>
      <use x="1398.554688" xlink:href="#DejaVuSans-6e"/>
      <use x="1461.933594" xlink:href="#DejaVuSans-5f"/>
      <use x="1511.933594" xlink:href="#DejaVuSans-6b"/>
      <use x="1569.796875" xlink:href="#DejaVuSans-65"/>
      <use x="1631.320312" xlink:href="#DejaVuSans-65"/>
      <use x="1692.84375" xlink:href="#DejaVuSans-70"/>
      <use x="1756.320312" xlink:href="#DejaVuSans-5f"/>
      <use x="1806.320312" xlink:href="#DejaVuSans-70"/>
      <use x="1869.796875" xlink:href="#DejaVuSans-72"/>
      <use x="1910.878906" xlink:href="#DejaVuSans-6f"/>
      <use x="1972.060547" xlink:href="#DejaVuSans-62"/>
      <use x="2035.537109" xlink:href="#DejaVuSans-3a"/>
      <use x="2069.228516" xlink:href="#DejaVuSans-20"/>
      <use x="2101.015625" xlink:href="#DejaVuSans-31"/>
      <use x="2164.638672" xlink:href="#DejaVuSans-2e"/>
      <use x="2196.425781" xlink:href="#DejaVuSans-30"/>
      <use x="2260.048828" xlink:href="#DejaVuSans-2c"/>
      <use x="2291.835938" xlink:href="#DejaVuSans-20"/>
      <use x="2323.623047" xlink:href="#DejaVuSans-68"/>
      <use x="2387.001953" xlink:href="#DejaVuSans-69"/>
      <use x="2414.785156" xlink:href="#DejaVuSans-64"/>
      <use x="2478.261719" xlink:href="#DejaVuSans-64"/>
      <use x="2541.738281" xlink:href="#DejaVuSans-65"/>
      <use x="2603.261719" xlink:href="#DejaVuSans-6e"/>
      <use x="2666.640625" xlink:href="#DejaVuSans-5f"/>
      <use x="2716.640625" xlink:href="#DejaVuSans-64"/>
      <use x="2780.117188" xlink:href="#DejaVuSans-69"/>
      <use x="2807.900391" xlink:href="#DejaVuSans-6d"/>
      <use x="2905.3125" xlink:href="#DejaVuSans-3a"/>
      <use x="2939.003906" xlink:href="#DejaVuSans-20"/>
      <use x="2970.791016" xlink:href="#DejaVuSans-31"/>
      <use x="3034.414062" xlink:href="#DejaVuSans-37"/>
      <use x="3098.037109" xlink:href="#DejaVuSans-38"/>
      <use x="3161.660156" xlink:href="#DejaVuSans-34"/>
      <use x="3225.283203" xlink:href="#DejaVuSans-2c"/>
      <use x="3257.070312" xlink:href="#DejaVuSans-20"/>
      <use x="3288.857422" xlink:href="#DejaVuSans-6c"/>
      <use x="3316.640625" xlink:href="#DejaVuSans-61"/>
      <use x="3377.919922" xlink:href="#DejaVuSans-6d"/>
      <use x="3475.332031" xlink:href="#DejaVuSans-64"/>
      <use x="3538.808594" xlink:href="#DejaVuSans-61"/>
      <use x="3600.087891" xlink:href="#DejaVuSans-32"/>
      <use x="3663.710938" xlink:href="#DejaVuSans-3a"/>
      <use x="3697.402344" xlink:href="#DejaVuSans-20"/>
      <use x="3729.189453" xlink:href="#DejaVuSans-30"/>
      <use x="3792.8125" xlink:href="#DejaVuSans-2e"/>
      <use x="3824.599609" xlink:href="#DejaVuSans-30"/>
      <use x="3888.222656" xlink:href="#DejaVuSans-30"/>
      <use x="3951.845703" xlink:href="#DejaVuSans-31"/>
     </g>
    </g>
    <g id="line2d_62">
     <path d="M 129.0875 109.807187 
L 149.0875 109.807187 
" style="fill:none;stroke:#d62728;stroke-linecap:square;stroke-width:1.5;"/>
    </g>
    <g id="line2d_63"/>
    <g id="text_22">
     <!-- input_keep_prob: 0.503078328506, hidden_keep_prob: 0.960604328616, hidden_dim: 1999, lamda2: 0.00242994269165 -->
     <defs>
      <path d="M 10.984375 1.515625 
L 10.984375 10.5 
Q 14.703125 8.734375 18.5 7.8125 
Q 22.3125 6.890625 25.984375 6.890625 
Q 35.75 6.890625 40.890625 13.453125 
Q 46.046875 20.015625 46.78125 33.40625 
Q 43.953125 29.203125 39.59375 26.953125 
Q 35.25 24.703125 29.984375 24.703125 
Q 19.046875 24.703125 12.671875 31.3125 
Q 6.296875 37.9375 6.296875 49.421875 
Q 6.296875 60.640625 12.9375 67.421875 
Q 19.578125 74.21875 30.609375 74.21875 
Q 43.265625 74.21875 49.921875 64.515625 
Q 56.59375 54.828125 56.59375 36.375 
Q 56.59375 19.140625 48.40625 8.859375 
Q 40.234375 -1.421875 26.421875 -1.421875 
Q 22.703125 -1.421875 18.890625 -0.6875 
Q 15.09375 0.046875 10.984375 1.515625 
M 30.609375 32.421875 
Q 37.25 32.421875 41.125 36.953125 
Q 45.015625 41.5 45.015625 49.421875 
Q 45.015625 57.28125 41.125 61.84375 
Q 37.25 66.40625 30.609375 66.40625 
Q 23.96875 66.40625 20.09375 61.84375 
Q 16.21875 57.28125 16.21875 49.421875 
Q 16.21875 41.5 20.09375 36.953125 
Q 23.96875 32.421875 30.609375 32.421875 
" id="DejaVuSans-39"/>
     </defs>
     <g transform="translate(157.0875 113.307187)scale(0.1 -0.1)">
      <use xlink:href="#DejaVuSans-69"/>
      <use x="27.783203" xlink:href="#DejaVuSans-6e"/>
      <use x="91.162109" xlink:href="#DejaVuSans-70"/>
      <use x="154.638672" xlink:href="#DejaVuSans-75"/>
      <use x="218.017578" xlink:href="#DejaVuSans-74"/>
      <use x="257.226562" xlink:href="#DejaVuSans-5f"/>
      <use x="307.226562" xlink:href="#DejaVuSans-6b"/>
      <use x="365.089844" xlink:href="#DejaVuSans-65"/>
      <use x="426.613281" xlink:href="#DejaVuSans-65"/>
      <use x="488.136719" xlink:href="#DejaVuSans-70"/>
      <use x="551.613281" xlink:href="#DejaVuSans-5f"/>
      <use x="601.613281" xlink:href="#DejaVuSans-70"/>
      <use x="665.089844" xlink:href="#DejaVuSans-72"/>
      <use x="706.171875" xlink:href="#DejaVuSans-6f"/>
      <use x="767.353516" xlink:href="#DejaVuSans-62"/>
      <use x="830.830078" xlink:href="#DejaVuSans-3a"/>
      <use x="864.521484" xlink:href="#DejaVuSans-20"/>
      <use x="896.308594" xlink:href="#DejaVuSans-30"/>
      <use x="959.931641" xlink:href="#DejaVuSans-2e"/>
      <use x="991.71875" xlink:href="#DejaVuSans-35"/>
      <use x="1055.341797" xlink:href="#DejaVuSans-30"/>
      <use x="1118.964844" xlink:href="#DejaVuSans-33"/>
      <use x="1182.587891" xlink:href="#DejaVuSans-30"/>
      <use x="1246.210938" xlink:href="#DejaVuSans-37"/>
      <use x="1309.833984" xlink:href="#DejaVuSans-38"/>
      <use x="1373.457031" xlink:href="#DejaVuSans-33"/>
      <use x="1437.080078" xlink:href="#DejaVuSans-32"/>
      <use x="1500.703125" xlink:href="#DejaVuSans-38"/>
      <use x="1564.326172" xlink:href="#DejaVuSans-35"/>
      <use x="1627.949219" xlink:href="#DejaVuSans-30"/>
      <use x="1691.572266" xlink:href="#DejaVuSans-36"/>
      <use x="1755.195312" xlink:href="#DejaVuSans-2c"/>
      <use x="1786.982422" xlink:href="#DejaVuSans-20"/>
      <use x="1818.769531" xlink:href="#DejaVuSans-68"/>
      <use x="1882.148438" xlink:href="#DejaVuSans-69"/>
      <use x="1909.931641" xlink:href="#DejaVuSans-64"/>
      <use x="1973.408203" xlink:href="#DejaVuSans-64"/>
      <use x="2036.884766" xlink:href="#DejaVuSans-65"/>
      <use x="2098.408203" xlink:href="#DejaVuSans-6e"/>
      <use x="2161.787109" xlink:href="#DejaVuSans-5f"/>
      <use x="2211.787109" xlink:href="#DejaVuSans-6b"/>
      <use x="2269.650391" xlink:href="#DejaVuSans-65"/>
      <use x="2331.173828" xlink:href="#DejaVuSans-65"/>
      <use x="2392.697266" xlink:href="#DejaVuSans-70"/>
      <use x="2456.173828" xlink:href="#DejaVuSans-5f"/>
      <use x="2506.173828" xlink:href="#DejaVuSans-70"/>
      <use x="2569.650391" xlink:href="#DejaVuSans-72"/>
      <use x="2610.732422" xlink:href="#DejaVuSans-6f"/>
      <use x="2671.914062" xlink:href="#DejaVuSans-62"/>
      <use x="2735.390625" xlink:href="#DejaVuSans-3a"/>
      <use x="2769.082031" xlink:href="#DejaVuSans-20"/>
      <use x="2800.869141" xlink:href="#DejaVuSans-30"/>
      <use x="2864.492188" xlink:href="#DejaVuSans-2e"/>
      <use x="2896.279297" xlink:href="#DejaVuSans-39"/>
      <use x="2959.902344" xlink:href="#DejaVuSans-36"/>
      <use x="3023.525391" xlink:href="#DejaVuSans-30"/>
      <use x="3087.148438" xlink:href="#DejaVuSans-36"/>
      <use x="3150.771484" xlink:href="#DejaVuSans-30"/>
      <use x="3214.394531" xlink:href="#DejaVuSans-34"/>
      <use x="3278.017578" xlink:href="#DejaVuSans-33"/>
      <use x="3341.640625" xlink:href="#DejaVuSans-32"/>
      <use x="3405.263672" xlink:href="#DejaVuSans-38"/>
      <use x="3468.886719" xlink:href="#DejaVuSans-36"/>
      <use x="3532.509766" xlink:href="#DejaVuSans-31"/>
      <use x="3596.132812" xlink:href="#DejaVuSans-36"/>
      <use x="3659.755859" xlink:href="#DejaVuSans-2c"/>
      <use x="3691.542969" xlink:href="#DejaVuSans-20"/>
      <use x="3723.330078" xlink:href="#DejaVuSans-68"/>
      <use x="3786.708984" xlink:href="#DejaVuSans-69"/>
      <use x="3814.492188" xlink:href="#DejaVuSans-64"/>
      <use x="3877.96875" xlink:href="#DejaVuSans-64"/>
      <use x="3941.445312" xlink:href="#DejaVuSans-65"/>
      <use x="4002.96875" xlink:href="#DejaVuSans-6e"/>
      <use x="4066.347656" xlink:href="#DejaVuSans-5f"/>
      <use x="4116.347656" xlink:href="#DejaVuSans-64"/>
      <use x="4179.824219" xlink:href="#DejaVuSans-69"/>
      <use x="4207.607422" xlink:href="#DejaVuSans-6d"/>
      <use x="4305.019531" xlink:href="#DejaVuSans-3a"/>
      <use x="4338.710938" xlink:href="#DejaVuSans-20"/>
      <use x="4370.498047" xlink:href="#DejaVuSans-31"/>
      <use x="4434.121094" xlink:href="#DejaVuSans-39"/>
      <use x="4497.744141" xlink:href="#DejaVuSans-39"/>
      <use x="4561.367188" xlink:href="#DejaVuSans-39"/>
      <use x="4624.990234" xlink:href="#DejaVuSans-2c"/>
      <use x="4656.777344" xlink:href="#DejaVuSans-20"/>
      <use x="4688.564453" xlink:href="#DejaVuSans-6c"/>
      <use x="4716.347656" xlink:href="#DejaVuSans-61"/>
      <use x="4777.626953" xlink:href="#DejaVuSans-6d"/>
      <use x="4875.039062" xlink:href="#DejaVuSans-64"/>
      <use x="4938.515625" xlink:href="#DejaVuSans-61"/>
      <use x="4999.794922" xlink:href="#DejaVuSans-32"/>
      <use x="5063.417969" xlink:href="#DejaVuSans-3a"/>
      <use x="5097.109375" xlink:href="#DejaVuSans-20"/>
      <use x="5128.896484" xlink:href="#DejaVuSans-30"/>
      <use x="5192.519531" xlink:href="#DejaVuSans-2e"/>
      <use x="5224.306641" xlink:href="#DejaVuSans-30"/>
      <use x="5287.929688" xlink:href="#DejaVuSans-30"/>
      <use x="5351.552734" xlink:href="#DejaVuSans-32"/>
      <use x="5415.175781" xlink:href="#DejaVuSans-34"/>
      <use x="5478.798828" xlink:href="#DejaVuSans-32"/>
      <use x="5542.421875" xlink:href="#DejaVuSans-39"/>
      <use x="5606.044922" xlink:href="#DejaVuSans-39"/>
      <use x="5669.667969" xlink:href="#DejaVuSans-34"/>
      <use x="5733.291016" xlink:href="#DejaVuSans-32"/>
      <use x="5796.914062" xlink:href="#DejaVuSans-36"/>
      <use x="5860.537109" xlink:href="#DejaVuSans-39"/>
      <use x="5924.160156" xlink:href="#DejaVuSans-31"/>
      <use x="5987.783203" xlink:href="#DejaVuSans-36"/>
      <use x="6051.40625" xlink:href="#DejaVuSans-35"/>
     </g>
    </g>
    <g id="line2d_64">
     <path d="M 129.0875 124.763437 
L 149.0875 124.763437 
" style="fill:none;stroke:#9467bd;stroke-linecap:square;stroke-width:1.5;"/>
    </g>
    <g id="line2d_65"/>
    <g id="text_23">
     <!-- input_keep_prob: 0.5, hidden_keep_prob: 1.0, hidden_dim: 1975, lamda2: 0.001 -->
     <g transform="translate(157.0875 128.263437)scale(0.1 -0.1)">
      <use xlink:href="#DejaVuSans-69"/>
      <use x="27.783203" xlink:href="#DejaVuSans-6e"/>
      <use x="91.162109" xlink:href="#DejaVuSans-70"/>
      <use x="154.638672" xlink:href="#DejaVuSans-75"/>
      <use x="218.017578" xlink:href="#DejaVuSans-74"/>
      <use x="257.226562" xlink:href="#DejaVuSans-5f"/>
      <use x="307.226562" xlink:href="#DejaVuSans-6b"/>
      <use x="365.089844" xlink:href="#DejaVuSans-65"/>
      <use x="426.613281" xlink:href="#DejaVuSans-65"/>
      <use x="488.136719" xlink:href="#DejaVuSans-70"/>
      <use x="551.613281" xlink:href="#DejaVuSans-5f"/>
      <use x="601.613281" xlink:href="#DejaVuSans-70"/>
      <use x="665.089844" xlink:href="#DejaVuSans-72"/>
      <use x="706.171875" xlink:href="#DejaVuSans-6f"/>
      <use x="767.353516" xlink:href="#DejaVuSans-62"/>
      <use x="830.830078" xlink:href="#DejaVuSans-3a"/>
      <use x="864.521484" xlink:href="#DejaVuSans-20"/>
      <use x="896.308594" xlink:href="#DejaVuSans-30"/>
      <use x="959.931641" xlink:href="#DejaVuSans-2e"/>
      <use x="991.71875" xlink:href="#DejaVuSans-35"/>
      <use x="1055.341797" xlink:href="#DejaVuSans-2c"/>
      <use x="1087.128906" xlink:href="#DejaVuSans-20"/>
      <use x="1118.916016" xlink:href="#DejaVuSans-68"/>
      <use x="1182.294922" xlink:href="#DejaVuSans-69"/>
      <use x="1210.078125" xlink:href="#DejaVuSans-64"/>
      <use x="1273.554688" xlink:href="#DejaVuSans-64"/>
      <use x="1337.03125" xlink:href="#DejaVuSans-65"/>
      <use x="1398.554688" xlink:href="#DejaVuSans-6e"/>
      <use x="1461.933594" xlink:href="#DejaVuSans-5f"/>
      <use x="1511.933594" xlink:href="#DejaVuSans-6b"/>
      <use x="1569.796875" xlink:href="#DejaVuSans-65"/>
      <use x="1631.320312" xlink:href="#DejaVuSans-65"/>
      <use x="1692.84375" xlink:href="#DejaVuSans-70"/>
      <use x="1756.320312" xlink:href="#DejaVuSans-5f"/>
      <use x="1806.320312" xlink:href="#DejaVuSans-70"/>
      <use x="1869.796875" xlink:href="#DejaVuSans-72"/>
      <use x="1910.878906" xlink:href="#DejaVuSans-6f"/>
      <use x="1972.060547" xlink:href="#DejaVuSans-62"/>
      <use x="2035.537109" xlink:href="#DejaVuSans-3a"/>
      <use x="2069.228516" xlink:href="#DejaVuSans-20"/>
      <use x="2101.015625" xlink:href="#DejaVuSans-31"/>
      <use x="2164.638672" xlink:href="#DejaVuSans-2e"/>
      <use x="2196.425781" xlink:href="#DejaVuSans-30"/>
      <use x="2260.048828" xlink:href="#DejaVuSans-2c"/>
      <use x="2291.835938" xlink:href="#DejaVuSans-20"/>
      <use x="2323.623047" xlink:href="#DejaVuSans-68"/>
      <use x="2387.001953" xlink:href="#DejaVuSans-69"/>
      <use x="2414.785156" xlink:href="#DejaVuSans-64"/>
      <use x="2478.261719" xlink:href="#DejaVuSans-64"/>
      <use x="2541.738281" xlink:href="#DejaVuSans-65"/>
      <use x="2603.261719" xlink:href="#DejaVuSans-6e"/>
      <use x="2666.640625" xlink:href="#DejaVuSans-5f"/>
      <use x="2716.640625" xlink:href="#DejaVuSans-64"/>
      <use x="2780.117188" xlink:href="#DejaVuSans-69"/>
      <use x="2807.900391" xlink:href="#DejaVuSans-6d"/>
      <use x="2905.3125" xlink:href="#DejaVuSans-3a"/>
      <use x="2939.003906" xlink:href="#DejaVuSans-20"/>
      <use x="2970.791016" xlink:href="#DejaVuSans-31"/>
      <use x="3034.414062" xlink:href="#DejaVuSans-39"/>
      <use x="3098.037109" xlink:href="#DejaVuSans-37"/>
      <use x="3161.660156" xlink:href="#DejaVuSans-35"/>
      <use x="3225.283203" xlink:href="#DejaVuSans-2c"/>
      <use x="3257.070312" xlink:href="#DejaVuSans-20"/>
      <use x="3288.857422" xlink:href="#DejaVuSans-6c"/>
      <use x="3316.640625" xlink:href="#DejaVuSans-61"/>
      <use x="3377.919922" xlink:href="#DejaVuSans-6d"/>
      <use x="3475.332031" xlink:href="#DejaVuSans-64"/>
      <use x="3538.808594" xlink:href="#DejaVuSans-61"/>
      <use x="3600.087891" xlink:href="#DejaVuSans-32"/>
      <use x="3663.710938" xlink:href="#DejaVuSans-3a"/>
      <use x="3697.402344" xlink:href="#DejaVuSans-20"/>
      <use x="3729.189453" xlink:href="#DejaVuSans-30"/>
      <use x="3792.8125" xlink:href="#DejaVuSans-2e"/>
      <use x="3824.599609" xlink:href="#DejaVuSans-30"/>
      <use x="3888.222656" xlink:href="#DejaVuSans-30"/>
      <use x="3951.845703" xlink:href="#DejaVuSans-31"/>
     </g>
    </g>
    <g id="line2d_66">
     <path d="M 129.0875 139.719687 
L 149.0875 139.719687 
" style="fill:none;stroke:#8c564b;stroke-linecap:square;stroke-width:1.5;"/>
    </g>
    <g id="line2d_67"/>
    <g id="text_24">
     <!-- input_keep_prob: 0.5, hidden_keep_prob: 1.0, hidden_dim: 999, lamda2: 0.001 -->
     <g transform="translate(157.0875 143.219687)scale(0.1 -0.1)">
      <use xlink:href="#DejaVuSans-69"/>
      <use x="27.783203" xlink:href="#DejaVuSans-6e"/>
      <use x="91.162109" xlink:href="#DejaVuSans-70"/>
      <use x="154.638672" xlink:href="#DejaVuSans-75"/>
      <use x="218.017578" xlink:href="#DejaVuSans-74"/>
      <use x="257.226562" xlink:href="#DejaVuSans-5f"/>
      <use x="307.226562" xlink:href="#DejaVuSans-6b"/>
      <use x="365.089844" xlink:href="#DejaVuSans-65"/>
      <use x="426.613281" xlink:href="#DejaVuSans-65"/>
      <use x="488.136719" xlink:href="#DejaVuSans-70"/>
      <use x="551.613281" xlink:href="#DejaVuSans-5f"/>
      <use x="601.613281" xlink:href="#DejaVuSans-70"/>
      <use x="665.089844" xlink:href="#DejaVuSans-72"/>
      <use x="706.171875" xlink:href="#DejaVuSans-6f"/>
      <use x="767.353516" xlink:href="#DejaVuSans-62"/>
      <use x="830.830078" xlink:href="#DejaVuSans-3a"/>
      <use x="864.521484" xlink:href="#DejaVuSans-20"/>
      <use x="896.308594" xlink:href="#DejaVuSans-30"/>
      <use x="959.931641" xlink:href="#DejaVuSans-2e"/>
      <use x="991.71875" xlink:href="#DejaVuSans-35"/>
      <use x="1055.341797" xlink:href="#DejaVuSans-2c"/>
      <use x="1087.128906" xlink:href="#DejaVuSans-20"/>
      <use x="1118.916016" xlink:href="#DejaVuSans-68"/>
      <use x="1182.294922" xlink:href="#DejaVuSans-69"/>
      <use x="1210.078125" xlink:href="#DejaVuSans-64"/>
      <use x="1273.554688" xlink:href="#DejaVuSans-64"/>
      <use x="1337.03125" xlink:href="#DejaVuSans-65"/>
      <use x="1398.554688" xlink:href="#DejaVuSans-6e"/>
      <use x="1461.933594" xlink:href="#DejaVuSans-5f"/>
      <use x="1511.933594" xlink:href="#DejaVuSans-6b"/>
      <use x="1569.796875" xlink:href="#DejaVuSans-65"/>
      <use x="1631.320312" xlink:href="#DejaVuSans-65"/>
      <use x="1692.84375" xlink:href="#DejaVuSans-70"/>
      <use x="1756.320312" xlink:href="#DejaVuSans-5f"/>
      <use x="1806.320312" xlink:href="#DejaVuSans-70"/>
      <use x="1869.796875" xlink:href="#DejaVuSans-72"/>
      <use x="1910.878906" xlink:href="#DejaVuSans-6f"/>
      <use x="1972.060547" xlink:href="#DejaVuSans-62"/>
      <use x="2035.537109" xlink:href="#DejaVuSans-3a"/>
      <use x="2069.228516" xlink:href="#DejaVuSans-20"/>
      <use x="2101.015625" xlink:href="#DejaVuSans-31"/>
      <use x="2164.638672" xlink:href="#DejaVuSans-2e"/>
      <use x="2196.425781" xlink:href="#DejaVuSans-30"/>
      <use x="2260.048828" xlink:href="#DejaVuSans-2c"/>
      <use x="2291.835938" xlink:href="#DejaVuSans-20"/>
      <use x="2323.623047" xlink:href="#DejaVuSans-68"/>
      <use x="2387.001953" xlink:href="#DejaVuSans-69"/>
      <use x="2414.785156" xlink:href="#DejaVuSans-64"/>
      <use x="2478.261719" xlink:href="#DejaVuSans-64"/>
      <use x="2541.738281" xlink:href="#DejaVuSans-65"/>
      <use x="2603.261719" xlink:href="#DejaVuSans-6e"/>
      <use x="2666.640625" xlink:href="#DejaVuSans-5f"/>
      <use x="2716.640625" xlink:href="#DejaVuSans-64"/>
      <use x="2780.117188" xlink:href="#DejaVuSans-69"/>
      <use x="2807.900391" xlink:href="#DejaVuSans-6d"/>
      <use x="2905.3125" xlink:href="#DejaVuSans-3a"/>
      <use x="2939.003906" xlink:href="#DejaVuSans-20"/>
      <use x="2970.791016" xlink:href="#DejaVuSans-39"/>
      <use x="3034.414062" xlink:href="#DejaVuSans-39"/>
      <use x="3098.037109" xlink:href="#DejaVuSans-39"/>
      <use x="3161.660156" xlink:href="#DejaVuSans-2c"/>
      <use x="3193.447266" xlink:href="#DejaVuSans-20"/>
      <use x="3225.234375" xlink:href="#DejaVuSans-6c"/>
      <use x="3253.017578" xlink:href="#DejaVuSans-61"/>
      <use x="3314.296875" xlink:href="#DejaVuSans-6d"/>
      <use x="3411.708984" xlink:href="#DejaVuSans-64"/>
      <use x="3475.185547" xlink:href="#DejaVuSans-61"/>
      <use x="3536.464844" xlink:href="#DejaVuSans-32"/>
      <use x="3600.087891" xlink:href="#DejaVuSans-3a"/>
      <use x="3633.779297" xlink:href="#DejaVuSans-20"/>
      <use x="3665.566406" xlink:href="#DejaVuSans-30"/>
      <use x="3729.189453" xlink:href="#DejaVuSans-2e"/>
      <use x="3760.976562" xlink:href="#DejaVuSans-30"/>
      <use x="3824.599609" xlink:href="#DejaVuSans-30"/>
      <use x="3888.222656" xlink:href="#DejaVuSans-31"/>
     </g>
    </g>
    <g id="line2d_68">
     <path d="M 129.0875 154.675937 
L 149.0875 154.675937 
" style="fill:none;stroke:#e377c2;stroke-linecap:square;stroke-width:1.5;"/>
    </g>
    <g id="line2d_69"/>
    <g id="text_25">
     <!-- input_keep_prob: 0.5, hidden_keep_prob: 1.0, hidden_dim: 1828, lamda2: 0.001 -->
     <g transform="translate(157.0875 158.175937)scale(0.1 -0.1)">
      <use xlink:href="#DejaVuSans-69"/>
      <use x="27.783203" xlink:href="#DejaVuSans-6e"/>
      <use x="91.162109" xlink:href="#DejaVuSans-70"/>
      <use x="154.638672" xlink:href="#DejaVuSans-75"/>
      <use x="218.017578" xlink:href="#DejaVuSans-74"/>
      <use x="257.226562" xlink:href="#DejaVuSans-5f"/>
      <use x="307.226562" xlink:href="#DejaVuSans-6b"/>
      <use x="365.089844" xlink:href="#DejaVuSans-65"/>
      <use x="426.613281" xlink:href="#DejaVuSans-65"/>
      <use x="488.136719" xlink:href="#DejaVuSans-70"/>
      <use x="551.613281" xlink:href="#DejaVuSans-5f"/>
      <use x="601.613281" xlink:href="#DejaVuSans-70"/>
      <use x="665.089844" xlink:href="#DejaVuSans-72"/>
      <use x="706.171875" xlink:href="#DejaVuSans-6f"/>
      <use x="767.353516" xlink:href="#DejaVuSans-62"/>
      <use x="830.830078" xlink:href="#DejaVuSans-3a"/>
      <use x="864.521484" xlink:href="#DejaVuSans-20"/>
      <use x="896.308594" xlink:href="#DejaVuSans-30"/>
      <use x="959.931641" xlink:href="#DejaVuSans-2e"/>
      <use x="991.71875" xlink:href="#DejaVuSans-35"/>
      <use x="1055.341797" xlink:href="#DejaVuSans-2c"/>
      <use x="1087.128906" xlink:href="#DejaVuSans-20"/>
      <use x="1118.916016" xlink:href="#DejaVuSans-68"/>
      <use x="1182.294922" xlink:href="#DejaVuSans-69"/>
      <use x="1210.078125" xlink:href="#DejaVuSans-64"/>
      <use x="1273.554688" xlink:href="#DejaVuSans-64"/>
      <use x="1337.03125" xlink:href="#DejaVuSans-65"/>
      <use x="1398.554688" xlink:href="#DejaVuSans-6e"/>
      <use x="1461.933594" xlink:href="#DejaVuSans-5f"/>
      <use x="1511.933594" xlink:href="#DejaVuSans-6b"/>
      <use x="1569.796875" xlink:href="#DejaVuSans-65"/>
      <use x="1631.320312" xlink:href="#DejaVuSans-65"/>
      <use x="1692.84375" xlink:href="#DejaVuSans-70"/>
      <use x="1756.320312" xlink:href="#DejaVuSans-5f"/>
      <use x="1806.320312" xlink:href="#DejaVuSans-70"/>
      <use x="1869.796875" xlink:href="#DejaVuSans-72"/>
      <use x="1910.878906" xlink:href="#DejaVuSans-6f"/>
      <use x="1972.060547" xlink:href="#DejaVuSans-62"/>
      <use x="2035.537109" xlink:href="#DejaVuSans-3a"/>
      <use x="2069.228516" xlink:href="#DejaVuSans-20"/>
      <use x="2101.015625" xlink:href="#DejaVuSans-31"/>
      <use x="2164.638672" xlink:href="#DejaVuSans-2e"/>
      <use x="2196.425781" xlink:href="#DejaVuSans-30"/>
      <use x="2260.048828" xlink:href="#DejaVuSans-2c"/>
      <use x="2291.835938" xlink:href="#DejaVuSans-20"/>
      <use x="2323.623047" xlink:href="#DejaVuSans-68"/>
      <use x="2387.001953" xlink:href="#DejaVuSans-69"/>
      <use x="2414.785156" xlink:href="#DejaVuSans-64"/>
      <use x="2478.261719" xlink:href="#DejaVuSans-64"/>
      <use x="2541.738281" xlink:href="#DejaVuSans-65"/>
      <use x="2603.261719" xlink:href="#DejaVuSans-6e"/>
      <use x="2666.640625" xlink:href="#DejaVuSans-5f"/>
      <use x="2716.640625" xlink:href="#DejaVuSans-64"/>
      <use x="2780.117188" xlink:href="#DejaVuSans-69"/>
      <use x="2807.900391" xlink:href="#DejaVuSans-6d"/>
      <use x="2905.3125" xlink:href="#DejaVuSans-3a"/>
      <use x="2939.003906" xlink:href="#DejaVuSans-20"/>
      <use x="2970.791016" xlink:href="#DejaVuSans-31"/>
      <use x="3034.414062" xlink:href="#DejaVuSans-38"/>
      <use x="3098.037109" xlink:href="#DejaVuSans-32"/>
      <use x="3161.660156" xlink:href="#DejaVuSans-38"/>
      <use x="3225.283203" xlink:href="#DejaVuSans-2c"/>
      <use x="3257.070312" xlink:href="#DejaVuSans-20"/>
      <use x="3288.857422" xlink:href="#DejaVuSans-6c"/>
      <use x="3316.640625" xlink:href="#DejaVuSans-61"/>
      <use x="3377.919922" xlink:href="#DejaVuSans-6d"/>
      <use x="3475.332031" xlink:href="#DejaVuSans-64"/>
      <use x="3538.808594" xlink:href="#DejaVuSans-61"/>
      <use x="3600.087891" xlink:href="#DejaVuSans-32"/>
      <use x="3663.710938" xlink:href="#DejaVuSans-3a"/>
      <use x="3697.402344" xlink:href="#DejaVuSans-20"/>
      <use x="3729.189453" xlink:href="#DejaVuSans-30"/>
      <use x="3792.8125" xlink:href="#DejaVuSans-2e"/>
      <use x="3824.599609" xlink:href="#DejaVuSans-30"/>
      <use x="3888.222656" xlink:href="#DejaVuSans-30"/>
      <use x="3951.845703" xlink:href="#DejaVuSans-31"/>
     </g>
    </g>
   </g>
  </g>
 </g>
 <defs>
  <clipPath id="p8a9cd2d005">
   <rect height="326.16" width="669.6" x="108" y="51.84"/>
  </clipPath>
 </defs>
</svg>
