<?xml version="1.0" encoding="utf-8" standalone="no"?>
<!DOCTYPE svg PUBLIC "-//W3C//DTD SVG 1.1//EN"
  "http://www.w3.org/Graphics/SVG/1.1/DTD/svg11.dtd">
<!-- Created with matplotlib (http://matplotlib.org/) -->
<svg height="432pt" version="1.1" viewBox="0 0 864 432" width="864pt" xmlns="http://www.w3.org/2000/svg" xmlns:xlink="http://www.w3.org/1999/xlink">
 <defs>
  <style type="text/css">
*{stroke-linecap:butt;stroke-linejoin:round;}
  </style>
 </defs>
 <g id="figure_1">
  <g id="patch_1">
   <path d="M 0 432 
L 864 432 
L 864 0 
L 0 0 
z
" style="fill:#ffffff;"/>
  </g>
  <g id="axes_1">
   <g id="patch_2">
    <path d="M 108 378 
L 777.6 378 
L 777.6 51.84 
L 108 51.84 
z
" style="fill:#ffffff;"/>
   </g>
   <g id="matplotlib.axis_1">
    <g id="xtick_1">
     <g id="line2d_1">
      <path clip-path="url(#p10bc561731)" d="M 119.990083 378 
L 119.990083 51.84 
" style="fill:none;stroke:#b0b0b0;stroke-linecap:square;stroke-width:0.8;"/>
     </g>
     <g id="line2d_2">
      <defs>
       <path d="M 0 0 
L 0 3.5 
" id="m8230cb4ddf" style="stroke:#000000;stroke-width:0.8;"/>
      </defs>
      <g>
       <use style="stroke:#000000;stroke-width:0.8;" x="119.990083" xlink:href="#m8230cb4ddf" y="378"/>
      </g>
     </g>
     <g id="text_1">
      <!-- 0 -->
      <defs>
       <path d="M 31.78125 66.40625 
Q 24.171875 66.40625 20.328125 58.90625 
Q 16.5 51.421875 16.5 36.375 
Q 16.5 21.390625 20.328125 13.890625 
Q 24.171875 6.390625 31.78125 6.390625 
Q 39.453125 6.390625 43.28125 13.890625 
Q 47.125 21.390625 47.125 36.375 
Q 47.125 51.421875 43.28125 58.90625 
Q 39.453125 66.40625 31.78125 66.40625 
M 31.78125 74.21875 
Q 44.046875 74.21875 50.515625 64.515625 
Q 56.984375 54.828125 56.984375 36.375 
Q 56.984375 17.96875 50.515625 8.265625 
Q 44.046875 -1.421875 31.78125 -1.421875 
Q 19.53125 -1.421875 13.0625 8.265625 
Q 6.59375 17.96875 6.59375 36.375 
Q 6.59375 54.828125 13.0625 64.515625 
Q 19.53125 74.21875 31.78125 74.21875 
" id="DejaVuSans-30"/>
      </defs>
      <g transform="translate(116.808833 392.598437)scale(0.1 -0.1)">
       <use xlink:href="#DejaVuSans-30"/>
      </g>
     </g>
    </g>
    <g id="xtick_2">
     <g id="line2d_3">
      <path clip-path="url(#p10bc561731)" d="M 212.221488 378 
L 212.221488 51.84 
" style="fill:none;stroke:#b0b0b0;stroke-linecap:square;stroke-width:0.8;"/>
     </g>
     <g id="line2d_4">
      <g>
       <use style="stroke:#000000;stroke-width:0.8;" x="212.221488" xlink:href="#m8230cb4ddf" y="378"/>
      </g>
     </g>
     <g id="text_2">
      <!-- 5 -->
      <defs>
       <path d="M 10.796875 72.90625 
L 49.515625 72.90625 
L 49.515625 64.59375 
L 19.828125 64.59375 
L 19.828125 46.734375 
Q 21.96875 47.46875 24.109375 47.828125 
Q 26.265625 48.1875 28.421875 48.1875 
Q 40.625 48.1875 47.75 41.5 
Q 54.890625 34.8125 54.890625 23.390625 
Q 54.890625 11.625 47.5625 5.09375 
Q 40.234375 -1.421875 26.90625 -1.421875 
Q 22.3125 -1.421875 17.546875 -0.640625 
Q 12.796875 0.140625 7.71875 1.703125 
L 7.71875 11.625 
Q 12.109375 9.234375 16.796875 8.0625 
Q 21.484375 6.890625 26.703125 6.890625 
Q 35.15625 6.890625 40.078125 11.328125 
Q 45.015625 15.765625 45.015625 23.390625 
Q 45.015625 31 40.078125 35.4375 
Q 35.15625 39.890625 26.703125 39.890625 
Q 22.75 39.890625 18.8125 39.015625 
Q 14.890625 38.140625 10.796875 36.28125 
z
" id="DejaVuSans-35"/>
      </defs>
      <g transform="translate(209.040238 392.598437)scale(0.1 -0.1)">
       <use xlink:href="#DejaVuSans-35"/>
      </g>
     </g>
    </g>
    <g id="xtick_3">
     <g id="line2d_5">
      <path clip-path="url(#p10bc561731)" d="M 304.452893 378 
L 304.452893 51.84 
" style="fill:none;stroke:#b0b0b0;stroke-linecap:square;stroke-width:0.8;"/>
     </g>
     <g id="line2d_6">
      <g>
       <use style="stroke:#000000;stroke-width:0.8;" x="304.452893" xlink:href="#m8230cb4ddf" y="378"/>
      </g>
     </g>
     <g id="text_3">
      <!-- 10 -->
      <defs>
       <path d="M 12.40625 8.296875 
L 28.515625 8.296875 
L 28.515625 63.921875 
L 10.984375 60.40625 
L 10.984375 69.390625 
L 28.421875 72.90625 
L 38.28125 72.90625 
L 38.28125 8.296875 
L 54.390625 8.296875 
L 54.390625 0 
L 12.40625 0 
z
" id="DejaVuSans-31"/>
      </defs>
      <g transform="translate(298.090393 392.598437)scale(0.1 -0.1)">
       <use xlink:href="#DejaVuSans-31"/>
       <use x="63.623047" xlink:href="#DejaVuSans-30"/>
      </g>
     </g>
    </g>
    <g id="xtick_4">
     <g id="line2d_7">
      <path clip-path="url(#p10bc561731)" d="M 396.684298 378 
L 396.684298 51.84 
" style="fill:none;stroke:#b0b0b0;stroke-linecap:square;stroke-width:0.8;"/>
     </g>
     <g id="line2d_8">
      <g>
       <use style="stroke:#000000;stroke-width:0.8;" x="396.684298" xlink:href="#m8230cb4ddf" y="378"/>
      </g>
     </g>
     <g id="text_4">
      <!-- 15 -->
      <g transform="translate(390.321798 392.598437)scale(0.1 -0.1)">
       <use xlink:href="#DejaVuSans-31"/>
       <use x="63.623047" xlink:href="#DejaVuSans-35"/>
      </g>
     </g>
    </g>
    <g id="xtick_5">
     <g id="line2d_9">
      <path clip-path="url(#p10bc561731)" d="M 488.915702 378 
L 488.915702 51.84 
" style="fill:none;stroke:#b0b0b0;stroke-linecap:square;stroke-width:0.8;"/>
     </g>
     <g id="line2d_10">
      <g>
       <use style="stroke:#000000;stroke-width:0.8;" x="488.915702" xlink:href="#m8230cb4ddf" y="378"/>
      </g>
     </g>
     <g id="text_5">
      <!-- 20 -->
      <defs>
       <path d="M 19.1875 8.296875 
L 53.609375 8.296875 
L 53.609375 0 
L 7.328125 0 
L 7.328125 8.296875 
Q 12.9375 14.109375 22.625 23.890625 
Q 32.328125 33.6875 34.8125 36.53125 
Q 39.546875 41.84375 41.421875 45.53125 
Q 43.3125 49.21875 43.3125 52.78125 
Q 43.3125 58.59375 39.234375 62.25 
Q 35.15625 65.921875 28.609375 65.921875 
Q 23.96875 65.921875 18.8125 64.3125 
Q 13.671875 62.703125 7.8125 59.421875 
L 7.8125 69.390625 
Q 13.765625 71.78125 18.9375 73 
Q 24.125 74.21875 28.421875 74.21875 
Q 39.75 74.21875 46.484375 68.546875 
Q 53.21875 62.890625 53.21875 53.421875 
Q 53.21875 48.921875 51.53125 44.890625 
Q 49.859375 40.875 45.40625 35.40625 
Q 44.1875 33.984375 37.640625 27.21875 
Q 31.109375 20.453125 19.1875 8.296875 
" id="DejaVuSans-32"/>
      </defs>
      <g transform="translate(482.553202 392.598437)scale(0.1 -0.1)">
       <use xlink:href="#DejaVuSans-32"/>
       <use x="63.623047" xlink:href="#DejaVuSans-30"/>
      </g>
     </g>
    </g>
    <g id="xtick_6">
     <g id="line2d_11">
      <path clip-path="url(#p10bc561731)" d="M 581.147107 378 
L 581.147107 51.84 
" style="fill:none;stroke:#b0b0b0;stroke-linecap:square;stroke-width:0.8;"/>
     </g>
     <g id="line2d_12">
      <g>
       <use style="stroke:#000000;stroke-width:0.8;" x="581.147107" xlink:href="#m8230cb4ddf" y="378"/>
      </g>
     </g>
     <g id="text_6">
      <!-- 25 -->
      <g transform="translate(574.784607 392.598437)scale(0.1 -0.1)">
       <use xlink:href="#DejaVuSans-32"/>
       <use x="63.623047" xlink:href="#DejaVuSans-35"/>
      </g>
     </g>
    </g>
    <g id="xtick_7">
     <g id="line2d_13">
      <path clip-path="url(#p10bc561731)" d="M 673.378512 378 
L 673.378512 51.84 
" style="fill:none;stroke:#b0b0b0;stroke-linecap:square;stroke-width:0.8;"/>
     </g>
     <g id="line2d_14">
      <g>
       <use style="stroke:#000000;stroke-width:0.8;" x="673.378512" xlink:href="#m8230cb4ddf" y="378"/>
      </g>
     </g>
     <g id="text_7">
      <!-- 30 -->
      <defs>
       <path d="M 40.578125 39.3125 
Q 47.65625 37.796875 51.625 33 
Q 55.609375 28.21875 55.609375 21.1875 
Q 55.609375 10.40625 48.1875 4.484375 
Q 40.765625 -1.421875 27.09375 -1.421875 
Q 22.515625 -1.421875 17.65625 -0.515625 
Q 12.796875 0.390625 7.625 2.203125 
L 7.625 11.71875 
Q 11.71875 9.328125 16.59375 8.109375 
Q 21.484375 6.890625 26.8125 6.890625 
Q 36.078125 6.890625 40.9375 10.546875 
Q 45.796875 14.203125 45.796875 21.1875 
Q 45.796875 27.640625 41.28125 31.265625 
Q 36.765625 34.90625 28.71875 34.90625 
L 20.21875 34.90625 
L 20.21875 43.015625 
L 29.109375 43.015625 
Q 36.375 43.015625 40.234375 45.921875 
Q 44.09375 48.828125 44.09375 54.296875 
Q 44.09375 59.90625 40.109375 62.90625 
Q 36.140625 65.921875 28.71875 65.921875 
Q 24.65625 65.921875 20.015625 65.03125 
Q 15.375 64.15625 9.8125 62.3125 
L 9.8125 71.09375 
Q 15.4375 72.65625 20.34375 73.4375 
Q 25.25 74.21875 29.59375 74.21875 
Q 40.828125 74.21875 47.359375 69.109375 
Q 53.90625 64.015625 53.90625 55.328125 
Q 53.90625 49.265625 50.4375 45.09375 
Q 46.96875 40.921875 40.578125 39.3125 
" id="DejaVuSans-33"/>
      </defs>
      <g transform="translate(667.016012 392.598437)scale(0.1 -0.1)">
       <use xlink:href="#DejaVuSans-33"/>
       <use x="63.623047" xlink:href="#DejaVuSans-30"/>
      </g>
     </g>
    </g>
    <g id="xtick_8">
     <g id="line2d_15">
      <path clip-path="url(#p10bc561731)" d="M 765.609917 378 
L 765.609917 51.84 
" style="fill:none;stroke:#b0b0b0;stroke-linecap:square;stroke-width:0.8;"/>
     </g>
     <g id="line2d_16">
      <g>
       <use style="stroke:#000000;stroke-width:0.8;" x="765.609917" xlink:href="#m8230cb4ddf" y="378"/>
      </g>
     </g>
     <g id="text_8">
      <!-- 35 -->
      <g transform="translate(759.247417 392.598437)scale(0.1 -0.1)">
       <use xlink:href="#DejaVuSans-33"/>
       <use x="63.623047" xlink:href="#DejaVuSans-35"/>
      </g>
     </g>
    </g>
    <g id="text_9">
     <!-- Epoch number -->
     <defs>
      <path d="M 9.8125 72.90625 
L 55.90625 72.90625 
L 55.90625 64.59375 
L 19.671875 64.59375 
L 19.671875 43.015625 
L 54.390625 43.015625 
L 54.390625 34.71875 
L 19.671875 34.71875 
L 19.671875 8.296875 
L 56.78125 8.296875 
L 56.78125 0 
L 9.8125 0 
z
" id="DejaVuSans-45"/>
      <path d="M 18.109375 8.203125 
L 18.109375 -20.796875 
L 9.078125 -20.796875 
L 9.078125 54.6875 
L 18.109375 54.6875 
L 18.109375 46.390625 
Q 20.953125 51.265625 25.265625 53.625 
Q 29.59375 56 35.59375 56 
Q 45.5625 56 51.78125 48.09375 
Q 58.015625 40.1875 58.015625 27.296875 
Q 58.015625 14.40625 51.78125 6.484375 
Q 45.5625 -1.421875 35.59375 -1.421875 
Q 29.59375 -1.421875 25.265625 0.953125 
Q 20.953125 3.328125 18.109375 8.203125 
M 48.6875 27.296875 
Q 48.6875 37.203125 44.609375 42.84375 
Q 40.53125 48.484375 33.40625 48.484375 
Q 26.265625 48.484375 22.1875 42.84375 
Q 18.109375 37.203125 18.109375 27.296875 
Q 18.109375 17.390625 22.1875 11.75 
Q 26.265625 6.109375 33.40625 6.109375 
Q 40.53125 6.109375 44.609375 11.75 
Q 48.6875 17.390625 48.6875 27.296875 
" id="DejaVuSans-70"/>
      <path d="M 30.609375 48.390625 
Q 23.390625 48.390625 19.1875 42.75 
Q 14.984375 37.109375 14.984375 27.296875 
Q 14.984375 17.484375 19.15625 11.84375 
Q 23.34375 6.203125 30.609375 6.203125 
Q 37.796875 6.203125 41.984375 11.859375 
Q 46.1875 17.53125 46.1875 27.296875 
Q 46.1875 37.015625 41.984375 42.703125 
Q 37.796875 48.390625 30.609375 48.390625 
M 30.609375 56 
Q 42.328125 56 49.015625 48.375 
Q 55.71875 40.765625 55.71875 27.296875 
Q 55.71875 13.875 49.015625 6.21875 
Q 42.328125 -1.421875 30.609375 -1.421875 
Q 18.84375 -1.421875 12.171875 6.21875 
Q 5.515625 13.875 5.515625 27.296875 
Q 5.515625 40.765625 12.171875 48.375 
Q 18.84375 56 30.609375 56 
" id="DejaVuSans-6f"/>
      <path d="M 48.78125 52.59375 
L 48.78125 44.1875 
Q 44.96875 46.296875 41.140625 47.34375 
Q 37.3125 48.390625 33.40625 48.390625 
Q 24.65625 48.390625 19.8125 42.84375 
Q 14.984375 37.3125 14.984375 27.296875 
Q 14.984375 17.28125 19.8125 11.734375 
Q 24.65625 6.203125 33.40625 6.203125 
Q 37.3125 6.203125 41.140625 7.25 
Q 44.96875 8.296875 48.78125 10.40625 
L 48.78125 2.09375 
Q 45.015625 0.34375 40.984375 -0.53125 
Q 36.96875 -1.421875 32.421875 -1.421875 
Q 20.0625 -1.421875 12.78125 6.34375 
Q 5.515625 14.109375 5.515625 27.296875 
Q 5.515625 40.671875 12.859375 48.328125 
Q 20.21875 56 33.015625 56 
Q 37.15625 56 41.109375 55.140625 
Q 45.0625 54.296875 48.78125 52.59375 
" id="DejaVuSans-63"/>
      <path d="M 54.890625 33.015625 
L 54.890625 0 
L 45.90625 0 
L 45.90625 32.71875 
Q 45.90625 40.484375 42.875 44.328125 
Q 39.84375 48.1875 33.796875 48.1875 
Q 26.515625 48.1875 22.3125 43.546875 
Q 18.109375 38.921875 18.109375 30.90625 
L 18.109375 0 
L 9.078125 0 
L 9.078125 75.984375 
L 18.109375 75.984375 
L 18.109375 46.1875 
Q 21.34375 51.125 25.703125 53.5625 
Q 30.078125 56 35.796875 56 
Q 45.21875 56 50.046875 50.171875 
Q 54.890625 44.34375 54.890625 33.015625 
" id="DejaVuSans-68"/>
      <path id="DejaVuSans-20"/>
      <path d="M 54.890625 33.015625 
L 54.890625 0 
L 45.90625 0 
L 45.90625 32.71875 
Q 45.90625 40.484375 42.875 44.328125 
Q 39.84375 48.1875 33.796875 48.1875 
Q 26.515625 48.1875 22.3125 43.546875 
Q 18.109375 38.921875 18.109375 30.90625 
L 18.109375 0 
L 9.078125 0 
L 9.078125 54.6875 
L 18.109375 54.6875 
L 18.109375 46.1875 
Q 21.34375 51.125 25.703125 53.5625 
Q 30.078125 56 35.796875 56 
Q 45.21875 56 50.046875 50.171875 
Q 54.890625 44.34375 54.890625 33.015625 
" id="DejaVuSans-6e"/>
      <path d="M 8.5 21.578125 
L 8.5 54.6875 
L 17.484375 54.6875 
L 17.484375 21.921875 
Q 17.484375 14.15625 20.5 10.265625 
Q 23.53125 6.390625 29.59375 6.390625 
Q 36.859375 6.390625 41.078125 11.03125 
Q 45.3125 15.671875 45.3125 23.6875 
L 45.3125 54.6875 
L 54.296875 54.6875 
L 54.296875 0 
L 45.3125 0 
L 45.3125 8.40625 
Q 42.046875 3.421875 37.71875 1 
Q 33.40625 -1.421875 27.6875 -1.421875 
Q 18.265625 -1.421875 13.375 4.4375 
Q 8.5 10.296875 8.5 21.578125 
M 31.109375 56 
z
" id="DejaVuSans-75"/>
      <path d="M 52 44.1875 
Q 55.375 50.25 60.0625 53.125 
Q 64.75 56 71.09375 56 
Q 79.640625 56 84.28125 50.015625 
Q 88.921875 44.046875 88.921875 33.015625 
L 88.921875 0 
L 79.890625 0 
L 79.890625 32.71875 
Q 79.890625 40.578125 77.09375 44.375 
Q 74.3125 48.1875 68.609375 48.1875 
Q 61.625 48.1875 57.5625 43.546875 
Q 53.515625 38.921875 53.515625 30.90625 
L 53.515625 0 
L 44.484375 0 
L 44.484375 32.71875 
Q 44.484375 40.625 41.703125 44.40625 
Q 38.921875 48.1875 33.109375 48.1875 
Q 26.21875 48.1875 22.15625 43.53125 
Q 18.109375 38.875 18.109375 30.90625 
L 18.109375 0 
L 9.078125 0 
L 9.078125 54.6875 
L 18.109375 54.6875 
L 18.109375 46.1875 
Q 21.1875 51.21875 25.484375 53.609375 
Q 29.78125 56 35.6875 56 
Q 41.65625 56 45.828125 52.96875 
Q 50 49.953125 52 44.1875 
" id="DejaVuSans-6d"/>
      <path d="M 48.6875 27.296875 
Q 48.6875 37.203125 44.609375 42.84375 
Q 40.53125 48.484375 33.40625 48.484375 
Q 26.265625 48.484375 22.1875 42.84375 
Q 18.109375 37.203125 18.109375 27.296875 
Q 18.109375 17.390625 22.1875 11.75 
Q 26.265625 6.109375 33.40625 6.109375 
Q 40.53125 6.109375 44.609375 11.75 
Q 48.6875 17.390625 48.6875 27.296875 
M 18.109375 46.390625 
Q 20.953125 51.265625 25.265625 53.625 
Q 29.59375 56 35.59375 56 
Q 45.5625 56 51.78125 48.09375 
Q 58.015625 40.1875 58.015625 27.296875 
Q 58.015625 14.40625 51.78125 6.484375 
Q 45.5625 -1.421875 35.59375 -1.421875 
Q 29.59375 -1.421875 25.265625 0.953125 
Q 20.953125 3.328125 18.109375 8.203125 
L 18.109375 0 
L 9.078125 0 
L 9.078125 75.984375 
L 18.109375 75.984375 
z
" id="DejaVuSans-62"/>
      <path d="M 56.203125 29.59375 
L 56.203125 25.203125 
L 14.890625 25.203125 
Q 15.484375 15.921875 20.484375 11.0625 
Q 25.484375 6.203125 34.421875 6.203125 
Q 39.59375 6.203125 44.453125 7.46875 
Q 49.3125 8.734375 54.109375 11.28125 
L 54.109375 2.78125 
Q 49.265625 0.734375 44.1875 -0.34375 
Q 39.109375 -1.421875 33.890625 -1.421875 
Q 20.796875 -1.421875 13.15625 6.1875 
Q 5.515625 13.8125 5.515625 26.8125 
Q 5.515625 40.234375 12.765625 48.109375 
Q 20.015625 56 32.328125 56 
Q 43.359375 56 49.78125 48.890625 
Q 56.203125 41.796875 56.203125 29.59375 
M 47.21875 32.234375 
Q 47.125 39.59375 43.09375 43.984375 
Q 39.0625 48.390625 32.421875 48.390625 
Q 24.90625 48.390625 20.390625 44.140625 
Q 15.875 39.890625 15.1875 32.171875 
z
" id="DejaVuSans-65"/>
      <path d="M 41.109375 46.296875 
Q 39.59375 47.171875 37.8125 47.578125 
Q 36.03125 48 33.890625 48 
Q 26.265625 48 22.1875 43.046875 
Q 18.109375 38.09375 18.109375 28.8125 
L 18.109375 0 
L 9.078125 0 
L 9.078125 54.6875 
L 18.109375 54.6875 
L 18.109375 46.1875 
Q 20.953125 51.171875 25.484375 53.578125 
Q 30.03125 56 36.53125 56 
Q 37.453125 56 38.578125 55.875 
Q 39.703125 55.765625 41.0625 55.515625 
z
" id="DejaVuSans-72"/>
     </defs>
     <g transform="translate(406.385938 406.276563)scale(0.1 -0.1)">
      <use xlink:href="#DejaVuSans-45"/>
      <use x="63.183594" xlink:href="#DejaVuSans-70"/>
      <use x="126.660156" xlink:href="#DejaVuSans-6f"/>
      <use x="187.841797" xlink:href="#DejaVuSans-63"/>
      <use x="242.822266" xlink:href="#DejaVuSans-68"/>
      <use x="306.201172" xlink:href="#DejaVuSans-20"/>
      <use x="337.988281" xlink:href="#DejaVuSans-6e"/>
      <use x="401.367188" xlink:href="#DejaVuSans-75"/>
      <use x="464.746094" xlink:href="#DejaVuSans-6d"/>
      <use x="562.158203" xlink:href="#DejaVuSans-62"/>
      <use x="625.634766" xlink:href="#DejaVuSans-65"/>
      <use x="687.158203" xlink:href="#DejaVuSans-72"/>
     </g>
    </g>
   </g>
   <g id="matplotlib.axis_2">
    <g id="ytick_1">
     <g id="line2d_17">
      <path clip-path="url(#p10bc561731)" d="M 108 362.507163 
L 777.6 362.507163 
" style="fill:none;stroke:#b0b0b0;stroke-linecap:square;stroke-width:0.8;"/>
     </g>
     <g id="line2d_18">
      <defs>
       <path d="M 0 0 
L -3.5 0 
" id="mcf36aba78e" style="stroke:#000000;stroke-width:0.8;"/>
      </defs>
      <g>
       <use style="stroke:#000000;stroke-width:0.8;" x="108" xlink:href="#mcf36aba78e" y="362.507163"/>
      </g>
     </g>
     <g id="text_10">
      <!-- 1.8 -->
      <defs>
       <path d="M 10.6875 12.40625 
L 21 12.40625 
L 21 0 
L 10.6875 0 
z
" id="DejaVuSans-2e"/>
       <path d="M 31.78125 34.625 
Q 24.75 34.625 20.71875 30.859375 
Q 16.703125 27.09375 16.703125 20.515625 
Q 16.703125 13.921875 20.71875 10.15625 
Q 24.75 6.390625 31.78125 6.390625 
Q 38.8125 6.390625 42.859375 10.171875 
Q 46.921875 13.96875 46.921875 20.515625 
Q 46.921875 27.09375 42.890625 30.859375 
Q 38.875 34.625 31.78125 34.625 
M 21.921875 38.8125 
Q 15.578125 40.375 12.03125 44.71875 
Q 8.5 49.078125 8.5 55.328125 
Q 8.5 64.0625 14.71875 69.140625 
Q 20.953125 74.21875 31.78125 74.21875 
Q 42.671875 74.21875 48.875 69.140625 
Q 55.078125 64.0625 55.078125 55.328125 
Q 55.078125 49.078125 51.53125 44.71875 
Q 48 40.375 41.703125 38.8125 
Q 48.828125 37.15625 52.796875 32.3125 
Q 56.78125 27.484375 56.78125 20.515625 
Q 56.78125 9.90625 50.3125 4.234375 
Q 43.84375 -1.421875 31.78125 -1.421875 
Q 19.734375 -1.421875 13.25 4.234375 
Q 6.78125 9.90625 6.78125 20.515625 
Q 6.78125 27.484375 10.78125 32.3125 
Q 14.796875 37.15625 21.921875 38.8125 
M 18.3125 54.390625 
Q 18.3125 48.734375 21.84375 45.5625 
Q 25.390625 42.390625 31.78125 42.390625 
Q 38.140625 42.390625 41.71875 45.5625 
Q 45.3125 48.734375 45.3125 54.390625 
Q 45.3125 60.0625 41.71875 63.234375 
Q 38.140625 66.40625 31.78125 66.40625 
Q 25.390625 66.40625 21.84375 63.234375 
Q 18.3125 60.0625 18.3125 54.390625 
" id="DejaVuSans-38"/>
      </defs>
      <g transform="translate(85.096875 366.306382)scale(0.1 -0.1)">
       <use xlink:href="#DejaVuSans-31"/>
       <use x="63.623047" xlink:href="#DejaVuSans-2e"/>
       <use x="95.410156" xlink:href="#DejaVuSans-38"/>
      </g>
     </g>
    </g>
    <g id="ytick_2">
     <g id="line2d_19">
      <path clip-path="url(#p10bc561731)" d="M 108 292.458773 
L 777.6 292.458773 
" style="fill:none;stroke:#b0b0b0;stroke-linecap:square;stroke-width:0.8;"/>
     </g>
     <g id="line2d_20">
      <g>
       <use style="stroke:#000000;stroke-width:0.8;" x="108" xlink:href="#mcf36aba78e" y="292.458773"/>
      </g>
     </g>
     <g id="text_11">
      <!-- 1.9 -->
      <defs>
       <path d="M 10.984375 1.515625 
L 10.984375 10.5 
Q 14.703125 8.734375 18.5 7.8125 
Q 22.3125 6.890625 25.984375 6.890625 
Q 35.75 6.890625 40.890625 13.453125 
Q 46.046875 20.015625 46.78125 33.40625 
Q 43.953125 29.203125 39.59375 26.953125 
Q 35.25 24.703125 29.984375 24.703125 
Q 19.046875 24.703125 12.671875 31.3125 
Q 6.296875 37.9375 6.296875 49.421875 
Q 6.296875 60.640625 12.9375 67.421875 
Q 19.578125 74.21875 30.609375 74.21875 
Q 43.265625 74.21875 49.921875 64.515625 
Q 56.59375 54.828125 56.59375 36.375 
Q 56.59375 19.140625 48.40625 8.859375 
Q 40.234375 -1.421875 26.421875 -1.421875 
Q 22.703125 -1.421875 18.890625 -0.6875 
Q 15.09375 0.046875 10.984375 1.515625 
M 30.609375 32.421875 
Q 37.25 32.421875 41.125 36.953125 
Q 45.015625 41.5 45.015625 49.421875 
Q 45.015625 57.28125 41.125 61.84375 
Q 37.25 66.40625 30.609375 66.40625 
Q 23.96875 66.40625 20.09375 61.84375 
Q 16.21875 57.28125 16.21875 49.421875 
Q 16.21875 41.5 20.09375 36.953125 
Q 23.96875 32.421875 30.609375 32.421875 
" id="DejaVuSans-39"/>
      </defs>
      <g transform="translate(85.096875 296.257992)scale(0.1 -0.1)">
       <use xlink:href="#DejaVuSans-31"/>
       <use x="63.623047" xlink:href="#DejaVuSans-2e"/>
       <use x="95.410156" xlink:href="#DejaVuSans-39"/>
      </g>
     </g>
    </g>
    <g id="ytick_3">
     <g id="line2d_21">
      <path clip-path="url(#p10bc561731)" d="M 108 222.410383 
L 777.6 222.410383 
" style="fill:none;stroke:#b0b0b0;stroke-linecap:square;stroke-width:0.8;"/>
     </g>
     <g id="line2d_22">
      <g>
       <use style="stroke:#000000;stroke-width:0.8;" x="108" xlink:href="#mcf36aba78e" y="222.410383"/>
      </g>
     </g>
     <g id="text_12">
      <!-- 2.0 -->
      <g transform="translate(85.096875 226.209602)scale(0.1 -0.1)">
       <use xlink:href="#DejaVuSans-32"/>
       <use x="63.623047" xlink:href="#DejaVuSans-2e"/>
       <use x="95.410156" xlink:href="#DejaVuSans-30"/>
      </g>
     </g>
    </g>
    <g id="ytick_4">
     <g id="line2d_23">
      <path clip-path="url(#p10bc561731)" d="M 108 152.361993 
L 777.6 152.361993 
" style="fill:none;stroke:#b0b0b0;stroke-linecap:square;stroke-width:0.8;"/>
     </g>
     <g id="line2d_24">
      <g>
       <use style="stroke:#000000;stroke-width:0.8;" x="108" xlink:href="#mcf36aba78e" y="152.361993"/>
      </g>
     </g>
     <g id="text_13">
      <!-- 2.1 -->
      <g transform="translate(85.096875 156.161212)scale(0.1 -0.1)">
       <use xlink:href="#DejaVuSans-32"/>
       <use x="63.623047" xlink:href="#DejaVuSans-2e"/>
       <use x="95.410156" xlink:href="#DejaVuSans-31"/>
      </g>
     </g>
    </g>
    <g id="ytick_5">
     <g id="line2d_25">
      <path clip-path="url(#p10bc561731)" d="M 108 82.313603 
L 777.6 82.313603 
" style="fill:none;stroke:#b0b0b0;stroke-linecap:square;stroke-width:0.8;"/>
     </g>
     <g id="line2d_26">
      <g>
       <use style="stroke:#000000;stroke-width:0.8;" x="108" xlink:href="#mcf36aba78e" y="82.313603"/>
      </g>
     </g>
     <g id="text_14">
      <!-- 2.2 -->
      <g transform="translate(85.096875 86.112821)scale(0.1 -0.1)">
       <use xlink:href="#DejaVuSans-32"/>
       <use x="63.623047" xlink:href="#DejaVuSans-2e"/>
       <use x="95.410156" xlink:href="#DejaVuSans-32"/>
      </g>
     </g>
    </g>
    <g id="text_15">
     <!-- Training Error -->
     <defs>
      <path d="M -0.296875 72.90625 
L 61.375 72.90625 
L 61.375 64.59375 
L 35.5 64.59375 
L 35.5 0 
L 25.59375 0 
L 25.59375 64.59375 
L -0.296875 64.59375 
z
" id="DejaVuSans-54"/>
      <path d="M 34.28125 27.484375 
Q 23.390625 27.484375 19.1875 25 
Q 14.984375 22.515625 14.984375 16.5 
Q 14.984375 11.71875 18.140625 8.90625 
Q 21.296875 6.109375 26.703125 6.109375 
Q 34.1875 6.109375 38.703125 11.40625 
Q 43.21875 16.703125 43.21875 25.484375 
L 43.21875 27.484375 
z
M 52.203125 31.203125 
L 52.203125 0 
L 43.21875 0 
L 43.21875 8.296875 
Q 40.140625 3.328125 35.546875 0.953125 
Q 30.953125 -1.421875 24.3125 -1.421875 
Q 15.921875 -1.421875 10.953125 3.296875 
Q 6 8.015625 6 15.921875 
Q 6 25.140625 12.171875 29.828125 
Q 18.359375 34.515625 30.609375 34.515625 
L 43.21875 34.515625 
L 43.21875 35.40625 
Q 43.21875 41.609375 39.140625 45 
Q 35.0625 48.390625 27.6875 48.390625 
Q 23 48.390625 18.546875 47.265625 
Q 14.109375 46.140625 10.015625 43.890625 
L 10.015625 52.203125 
Q 14.9375 54.109375 19.578125 55.046875 
Q 24.21875 56 28.609375 56 
Q 40.484375 56 46.34375 49.84375 
Q 52.203125 43.703125 52.203125 31.203125 
" id="DejaVuSans-61"/>
      <path d="M 9.421875 54.6875 
L 18.40625 54.6875 
L 18.40625 0 
L 9.421875 0 
z
M 9.421875 75.984375 
L 18.40625 75.984375 
L 18.40625 64.59375 
L 9.421875 64.59375 
z
" id="DejaVuSans-69"/>
      <path d="M 45.40625 27.984375 
Q 45.40625 37.75 41.375 43.109375 
Q 37.359375 48.484375 30.078125 48.484375 
Q 22.859375 48.484375 18.828125 43.109375 
Q 14.796875 37.75 14.796875 27.984375 
Q 14.796875 18.265625 18.828125 12.890625 
Q 22.859375 7.515625 30.078125 7.515625 
Q 37.359375 7.515625 41.375 12.890625 
Q 45.40625 18.265625 45.40625 27.984375 
M 54.390625 6.78125 
Q 54.390625 -7.171875 48.1875 -13.984375 
Q 42 -20.796875 29.203125 -20.796875 
Q 24.46875 -20.796875 20.265625 -20.09375 
Q 16.0625 -19.390625 12.109375 -17.921875 
L 12.109375 -9.1875 
Q 16.0625 -11.328125 19.921875 -12.34375 
Q 23.78125 -13.375 27.78125 -13.375 
Q 36.625 -13.375 41.015625 -8.765625 
Q 45.40625 -4.15625 45.40625 5.171875 
L 45.40625 9.625 
Q 42.625 4.78125 38.28125 2.390625 
Q 33.9375 0 27.875 0 
Q 17.828125 0 11.671875 7.65625 
Q 5.515625 15.328125 5.515625 27.984375 
Q 5.515625 40.671875 11.671875 48.328125 
Q 17.828125 56 27.875 56 
Q 33.9375 56 38.28125 53.609375 
Q 42.625 51.21875 45.40625 46.390625 
L 45.40625 54.6875 
L 54.390625 54.6875 
z
" id="DejaVuSans-67"/>
     </defs>
     <g transform="translate(79.017187 249.344219)rotate(-90)scale(0.1 -0.1)">
      <use xlink:href="#DejaVuSans-54"/>
      <use x="60.865234" xlink:href="#DejaVuSans-72"/>
      <use x="101.978516" xlink:href="#DejaVuSans-61"/>
      <use x="163.257812" xlink:href="#DejaVuSans-69"/>
      <use x="191.041016" xlink:href="#DejaVuSans-6e"/>
      <use x="254.419922" xlink:href="#DejaVuSans-69"/>
      <use x="282.203125" xlink:href="#DejaVuSans-6e"/>
      <use x="345.582031" xlink:href="#DejaVuSans-67"/>
      <use x="409.058594" xlink:href="#DejaVuSans-20"/>
      <use x="440.845703" xlink:href="#DejaVuSans-45"/>
      <use x="504.029297" xlink:href="#DejaVuSans-72"/>
      <use x="545.126953" xlink:href="#DejaVuSans-72"/>
      <use x="586.208984" xlink:href="#DejaVuSans-6f"/>
      <use x="647.390625" xlink:href="#DejaVuSans-72"/>
     </g>
    </g>
   </g>
   <g id="line2d_27">
    <path clip-path="url(#p10bc561731)" d="M 138.436364 346.708504 
L 156.882645 351.879986 
L 175.328926 355.844074 
L 193.775207 355.851883 
L 212.221488 357.148417 
L 230.667769 357.913679 
L 249.11405 357.593129 
L 267.560331 356.779124 
L 286.006612 359.110772 
L 304.452893 359.992489 
L 322.899174 360.277917 
L 341.345455 361.449255 
L 359.791736 358.827865 
L 378.238017 360.446645 
L 396.684298 359.099422 
L 415.130579 359.870908 
L 433.57686 359.661175 
L 452.02314 359.911044 
L 470.469421 359.142718 
L 488.915702 359.098044 
L 507.361983 359.551988 
L 525.808264 362.280135 
L 544.254545 359.34617 
L 562.700826 360.95262 
L 581.147107 361.436086 
L 599.593388 359.568257 
L 618.039669 360.817156 
L 636.48595 360.518729 
L 654.932231 359.253212 
L 673.378512 360.518503 
L 691.824793 359.429116 
L 710.271074 361.180533 
L 728.717355 360.480089 
L 747.163636 360.42573 
" style="fill:none;stroke:#d3d3d3;stroke-linecap:square;stroke-width:1.5;"/>
   </g>
   <g id="line2d_28">
    <path clip-path="url(#p10bc561731)" d="M 138.436364 329.177251 
L 156.882645 341.531027 
L 175.328926 349.949126 
L 193.775207 353.610739 
L 212.221488 353.889245 
L 230.667769 355.328657 
L 249.11405 356.812473 
L 267.560331 357.783365 
L 286.006612 358.536793 
L 304.452893 358.865963 
L 322.899174 357.549162 
L 341.345455 359.27514 
L 359.791736 358.380426 
L 378.238017 358.896735 
L 396.684298 358.521972 
L 415.130579 358.262203 
L 433.57686 357.989721 
L 452.02314 357.79397 
L 470.469421 358.968852 
L 488.915702 358.440189 
L 507.361983 359.583704 
L 525.808264 359.916308 
L 544.254545 359.3941 
L 562.700826 358.365947 
L 581.147107 359.423231 
L 599.593388 359.922496 
L 618.039669 360.512872 
L 636.48595 359.011392 
L 654.932231 360.647417 
L 673.378512 360.610218 
L 691.824793 360.159355 
L 710.271074 360.180328 
L 728.717355 360.798372 
L 747.163636 360.804092 
" style="fill:none;stroke:#1f77b4;stroke-linecap:square;stroke-width:1.5;"/>
   </g>
   <g id="line2d_29">
    <path clip-path="url(#p10bc561731)" d="M 138.436364 324.242827 
L 156.882645 335.492299 
L 175.328926 342.714574 
L 193.775207 349.469587 
L 212.221488 349.912315 
L 230.667769 353.690266 
L 249.11405 354.583416 
L 267.560331 355.862071 
L 286.006612 355.030301 
L 304.452893 355.982297 
L 322.899174 357.389541 
L 341.345455 356.600654 
L 359.791736 357.780985 
L 378.238017 357.914551 
L 396.684298 358.508383 
L 415.130579 357.729065 
L 433.57686 357.631563 
L 452.02314 356.884042 
L 470.469421 358.56561 
L 488.915702 359.864341 
L 507.361983 358.350875 
L 525.808264 358.310452 
L 544.254545 360.269407 
L 562.700826 359.160012 
L 581.147107 359.047775 
L 599.593388 358.768682 
L 618.039669 358.367519 
L 636.48595 358.145459 
L 654.932231 359.458814 
L 673.378512 359.950541 
L 691.824793 359.151058 
L 710.271074 360.435337 
L 728.717355 360.970073 
L 747.163636 361.069858 
" style="fill:none;stroke:#ff7f0e;stroke-linecap:square;stroke-width:1.5;"/>
   </g>
   <g id="line2d_30">
    <path clip-path="url(#p10bc561731)" d="M 138.436364 307.220181 
L 156.882645 330.758327 
L 175.328926 337.696351 
L 193.775207 342.694676 
L 212.221488 346.477789 
L 230.667769 349.085712 
L 249.11405 352.708664 
L 267.560331 353.108714 
L 286.006612 354.944181 
L 304.452893 356.104305 
L 322.899174 356.875811 
L 341.345455 356.518453 
L 359.791736 356.956521 
L 378.238017 357.670876 
L 396.684298 357.135536 
L 415.130579 359.787633 
L 433.57686 358.933636 
L 452.02314 357.413778 
L 470.469421 358.220095 
L 488.915702 359.075746 
L 507.361983 359.74105 
L 525.808264 359.878047 
L 544.254545 360.184348 
L 562.700826 360.497266 
L 581.147107 358.511761 
L 599.593388 360.030939 
L 618.039669 359.818324 
L 636.48595 360.773293 
L 654.932231 361.263359 
L 673.378512 360.399459 
L 691.824793 360.373398 
L 710.271074 361.33276 
L 728.717355 359.95698 
L 747.163636 360.608016 
" style="fill:none;stroke:#2ca02c;stroke-linecap:square;stroke-width:1.5;"/>
   </g>
   <g id="line2d_31">
    <path clip-path="url(#p10bc561731)" d="M 138.436364 300.641713 
L 156.882645 324.141509 
L 175.328926 335.505337 
L 193.775207 341.08785 
L 212.221488 345.799684 
L 230.667769 348.376131 
L 249.11405 350.824098 
L 267.560331 352.546935 
L 286.006612 353.602092 
L 304.452893 354.171888 
L 322.899174 354.499861 
L 341.345455 354.254656 
L 359.791736 355.373725 
L 378.238017 355.989399 
L 396.684298 355.492593 
L 415.130579 356.5843 
L 433.57686 355.700323 
L 452.02314 357.700475 
L 470.469421 359.02206 
L 488.915702 357.762527 
L 507.361983 357.824506 
L 525.808264 359.203488 
L 544.254545 359.695184 
L 562.700826 360.436391 
L 581.147107 358.59242 
L 599.593388 359.892154 
L 618.039669 360.791542 
L 636.48595 360.553469 
L 654.932231 360.676322 
L 673.378512 360.805977 
L 691.824793 360.979832 
L 710.271074 362.000378 
L 728.717355 360.976789 
L 747.163636 362.611584 
" style="fill:none;stroke:#d62728;stroke-linecap:square;stroke-width:1.5;"/>
   </g>
   <g id="line2d_32">
    <path clip-path="url(#p10bc561731)" d="M 138.436364 281.532715 
L 156.882645 307.932597 
L 175.328926 325.987787 
L 193.775207 334.461012 
L 212.221488 339.487027 
L 230.667769 343.186015 
L 249.11405 346.973183 
L 267.560331 349.05956 
L 286.006612 350.723145 
L 304.452893 349.994603 
L 322.899174 352.561524 
L 341.345455 354.344546 
L 359.791736 355.959583 
L 378.238017 354.547291 
L 396.684298 356.667972 
L 415.130579 356.951599 
L 433.57686 358.062315 
L 452.02314 357.511124 
L 470.469421 357.71999 
L 488.915702 359.484337 
L 507.361983 358.80649 
L 525.808264 360.149747 
L 544.254545 360.718163 
L 562.700826 359.366235 
L 581.147107 360.407509 
L 599.593388 361.222332 
L 618.039669 359.915738 
L 636.48595 361.269215 
L 654.932231 361.146361 
L 673.378512 359.777358 
L 691.824793 360.520342 
L 710.271074 361.687493 
L 728.717355 362.598512 
L 747.163636 362.117087 
" style="fill:none;stroke:#9467bd;stroke-linecap:square;stroke-width:1.5;"/>
   </g>
   <g id="line2d_33">
    <path clip-path="url(#p10bc561731)" d="M 138.436364 266.939476 
L 156.882645 305.040211 
L 175.328926 321.657166 
L 193.775207 329.398978 
L 212.221488 335.126917 
L 230.667769 338.055717 
L 249.11405 341.42971 
L 267.560331 343.968902 
L 286.006612 345.993552 
L 304.452893 348.28268 
L 322.899174 349.59841 
L 341.345455 350.854575 
L 359.791736 351.942356 
L 378.238017 352.453833 
L 396.684298 353.88191 
L 415.130579 354.599118 
L 433.57686 355.37637 
L 452.02314 355.583983 
L 470.469421 356.279027 
L 488.915702 357.129512 
L 507.361983 358.379786 
L 525.808264 358.445648 
L 544.254545 359.549548 
L 562.700826 359.4945 
L 581.147107 359.606509 
L 599.593388 359.735361 
L 618.039669 359.375163 
L 636.48595 360.649353 
L 654.932231 361.726141 
L 673.378512 361.13032 
L 691.824793 360.955269 
L 710.271074 361.305932 
L 728.717355 362.333692 
L 747.163636 363.174545 
" style="fill:none;stroke:#8c564b;stroke-linecap:square;stroke-width:1.5;"/>
   </g>
   <g id="line2d_34">
    <path clip-path="url(#p10bc561731)" d="M 138.436364 253.455818 
L 156.882645 286.25315 
L 175.328926 308.083637 
L 193.775207 319.855178 
L 212.221488 327.067181 
L 230.667769 331.52876 
L 249.11405 334.652184 
L 267.560331 337.741811 
L 286.006612 340.346743 
L 304.452893 341.614943 
L 322.899174 343.614629 
L 341.345455 344.678406 
L 359.791736 347.007172 
L 378.238017 348.343375 
L 396.684298 348.664763 
L 415.130579 350.525831 
L 433.57686 351.429903 
L 452.02314 350.90215 
L 470.469421 353.257791 
L 488.915702 354.433782 
L 507.361983 355.19263 
L 525.808264 356.476864 
L 544.254545 356.371227 
L 562.700826 356.737526 
L 581.147107 357.891336 
L 599.593388 359.060779 
L 618.039669 359.001858 
L 636.48595 359.510418 
L 654.932231 359.083496 
L 673.378512 360.236629 
L 691.824793 360.208542 
L 710.271074 360.755644 
L 728.717355 362.12625 
L 747.163636 362.009347 
" style="fill:none;stroke:#d3d3d3;stroke-linecap:square;stroke-width:1.5;"/>
   </g>
   <g id="line2d_35">
    <path clip-path="url(#p10bc561731)" d="M 138.436364 212.605487 
L 156.882645 263.411332 
L 175.328926 284.615059 
L 193.775207 296.631941 
L 212.221488 309.413635 
L 230.667769 318.840169 
L 249.11405 323.830744 
L 267.560331 326.621096 
L 286.006612 329.12945 
L 304.452893 330.947543 
L 322.899174 333.364852 
L 341.345455 334.041404 
L 359.791736 335.613458 
L 378.238017 337.288299 
L 396.684298 338.197943 
L 415.130579 338.954535 
L 433.57686 341.258973 
L 452.02314 342.001276 
L 470.469421 342.880602 
L 488.915702 346.138594 
L 507.361983 345.628432 
L 525.808264 346.878818 
L 544.254545 349.386986 
L 562.700826 348.047259 
L 581.147107 350.503114 
L 599.593388 352.112929 
L 618.039669 353.306138 
L 636.48595 352.805486 
L 654.932231 353.670295 
L 673.378512 354.837686 
L 691.824793 355.385884 
L 710.271074 355.471441 
L 728.717355 356.006203 
L 747.163636 356.435965 
" style="fill:none;stroke:#e377c2;stroke-linecap:square;stroke-width:1.5;"/>
   </g>
   <g id="line2d_36">
    <path clip-path="url(#p10bc561731)" d="M 138.436364 198.490151 
L 156.882645 238.412813 
L 175.328926 257.195359 
L 193.775207 271.496389 
L 212.221488 284.073328 
L 230.667769 295.040565 
L 249.11405 304.636615 
L 267.560331 311.078771 
L 286.006612 315.256385 
L 304.452893 319.792463 
L 322.899174 322.004828 
L 341.345455 325.682273 
L 359.791736 327.324485 
L 378.238017 328.727098 
L 396.684298 330.736243 
L 415.130579 332.187981 
L 433.57686 332.59138 
L 452.02314 334.683267 
L 470.469421 335.306296 
L 488.915702 335.944379 
L 507.361983 336.84114 
L 525.808264 337.409803 
L 544.254545 338.384952 
L 562.700826 338.071622 
L 581.147107 338.199503 
L 599.593388 338.416331 
L 618.039669 339.794433 
L 636.48595 341.238462 
L 654.932231 341.701178 
L 673.378512 341.494744 
L 691.824793 342.486459 
L 710.271074 342.550445 
L 728.717355 343.745482 
L 747.163636 344.210657 
" style="fill:none;stroke:#d3d3d3;stroke-linecap:square;stroke-width:1.5;"/>
   </g>
   <g id="line2d_37">
    <path clip-path="url(#p10bc561731)" d="M 138.436364 193.716206 
L 156.882645 242.360937 
L 175.328926 261.436327 
L 193.775207 273.137295 
L 212.221488 282.455992 
L 230.667769 290.048219 
L 249.11405 295.475849 
L 267.560331 300.74484 
L 286.006612 304.619939 
L 304.452893 307.973081 
L 322.899174 311.337513 
L 341.345455 315.251011 
L 359.791736 316.986172 
L 378.238017 318.796576 
L 396.684298 320.726523 
L 415.130579 323.237814 
L 433.57686 326.07559 
L 452.02314 327.76777 
L 470.469421 330.179789 
L 488.915702 330.917879 
L 507.361983 333.235374 
L 525.808264 334.300758 
L 544.254545 334.267319 
L 562.700826 335.363111 
L 581.147107 337.099969 
L 599.593388 338.780748 
L 618.039669 339.040781 
L 636.48595 339.340939 
L 654.932231 339.971299 
L 673.378512 341.485349 
L 691.824793 341.719513 
L 710.271074 342.714396 
L 728.717355 343.467374 
L 747.163636 343.200876 
" style="fill:none;stroke:#d3d3d3;stroke-linecap:square;stroke-width:1.5;"/>
   </g>
   <g id="line2d_38">
    <path clip-path="url(#p10bc561731)" d="M 138.436364 144.45593 
L 156.882645 204.085333 
L 175.328926 232.096884 
L 193.775207 251.308007 
L 212.221488 265.845169 
L 230.667769 276.385813 
L 249.11405 283.672185 
L 267.560331 288.975036 
L 286.006612 294.55937 
L 304.452893 299.328332 
L 322.899174 303.180366 
L 341.345455 305.650039 
L 359.791736 308.463359 
L 378.238017 310.627747 
L 396.684298 312.58037 
L 415.130579 313.611787 
L 433.57686 315.585791 
L 452.02314 315.673486 
L 470.469421 317.577247 
L 488.915702 319.01258 
L 507.361983 320.068619 
L 525.808264 321.425397 
L 544.254545 322.394366 
L 562.700826 323.688689 
L 581.147107 324.874542 
L 599.593388 325.530929 
L 618.039669 326.163479 
L 636.48595 327.262106 
L 654.932231 328.126277 
L 673.378512 328.842801 
L 691.824793 328.757491 
L 710.271074 330.688527 
L 728.717355 331.205232 
L 747.163636 331.302697 
" style="fill:none;stroke:#d3d3d3;stroke-linecap:square;stroke-width:1.5;"/>
   </g>
   <g id="line2d_39">
    <path clip-path="url(#p10bc561731)" d="M 138.436364 134.769539 
L 156.882645 189.178248 
L 175.328926 218.302025 
L 193.775207 238.606077 
L 212.221488 251.575321 
L 230.667769 260.827534 
L 249.11405 267.592706 
L 267.560331 272.504865 
L 286.006612 275.845906 
L 304.452893 277.968026 
L 322.899174 280.416041 
L 341.345455 281.65035 
L 359.791736 283.558508 
L 378.238017 285.575644 
L 396.684298 287.149028 
L 415.130579 289.016335 
L 433.57686 290.298054 
L 452.02314 290.478683 
L 470.469421 292.398609 
L 488.915702 293.447533 
L 507.361983 294.149487 
L 525.808264 294.221961 
L 544.254545 295.883305 
L 562.700826 296.5206 
L 581.147107 297.231074 
L 599.593388 298.293544 
L 618.039669 299.072477 
L 636.48595 300.254445 
L 654.932231 302.513537 
L 673.378512 302.728217 
L 691.824793 303.730957 
L 710.271074 304.660995 
L 728.717355 305.07138 
L 747.163636 305.846773 
" style="fill:none;stroke:#d3d3d3;stroke-linecap:square;stroke-width:1.5;"/>
   </g>
   <g id="line2d_40">
    <path clip-path="url(#p10bc561731)" d="M 138.436364 66.665455 
L 156.882645 138.14691 
L 175.328926 182.382977 
L 193.775207 207.842787 
L 212.221488 222.765787 
L 230.667769 232.44214 
L 249.11405 240.015411 
L 267.560331 244.813726 
L 286.006612 247.97898 
L 304.452893 251.457005 
L 322.899174 255.644353 
L 341.345455 258.751527 
L 359.791736 263.030906 
L 378.238017 266.976056 
L 396.684298 269.803935 
L 415.130579 272.88089 
L 433.57686 275.082114 
L 452.02314 276.382034 
L 470.469421 278.897239 
L 488.915702 280.45124 
L 507.361983 282.465271 
L 525.808264 284.513232 
L 544.254545 286.164249 
L 562.700826 287.610067 
L 581.147107 288.429917 
L 599.593388 290.305033 
L 618.039669 291.776106 
L 636.48595 293.564406 
L 654.932231 294.949759 
L 673.378512 296.714654 
L 691.824793 298.313486 
L 710.271074 299.967739 
L 728.717355 301.156726 
L 747.163636 301.752101 
" style="fill:none;stroke:#d3d3d3;stroke-linecap:square;stroke-width:1.5;"/>
   </g>
   <g id="patch_3">
    <path d="M 108 378 
L 108 51.84 
" style="fill:none;stroke:#000000;stroke-linecap:square;stroke-linejoin:miter;stroke-width:0.8;"/>
   </g>
   <g id="patch_4">
    <path d="M 777.6 378 
L 777.6 51.84 
" style="fill:none;stroke:#000000;stroke-linecap:square;stroke-linejoin:miter;stroke-width:0.8;"/>
   </g>
   <g id="patch_5">
    <path d="M 108 378 
L 777.6 378 
" style="fill:none;stroke:#000000;stroke-linecap:square;stroke-linejoin:miter;stroke-width:0.8;"/>
   </g>
   <g id="patch_6">
    <path d="M 108 51.84 
L 777.6 51.84 
" style="fill:none;stroke:#000000;stroke-linecap:square;stroke-linejoin:miter;stroke-width:0.8;"/>
   </g>
   <g id="text_16">
    <!-- Training Error over 35 epochs -->
    <defs>
     <path d="M 2.984375 54.6875 
L 12.5 54.6875 
L 29.59375 8.796875 
L 46.6875 54.6875 
L 56.203125 54.6875 
L 35.6875 0 
L 23.484375 0 
z
" id="DejaVuSans-76"/>
     <path d="M 44.28125 53.078125 
L 44.28125 44.578125 
Q 40.484375 46.53125 36.375 47.5 
Q 32.28125 48.484375 27.875 48.484375 
Q 21.1875 48.484375 17.84375 46.4375 
Q 14.5 44.390625 14.5 40.28125 
Q 14.5 37.15625 16.890625 35.375 
Q 19.28125 33.59375 26.515625 31.984375 
L 29.59375 31.296875 
Q 39.15625 29.25 43.1875 25.515625 
Q 47.21875 21.78125 47.21875 15.09375 
Q 47.21875 7.46875 41.1875 3.015625 
Q 35.15625 -1.421875 24.609375 -1.421875 
Q 20.21875 -1.421875 15.453125 -0.5625 
Q 10.6875 0.296875 5.421875 2 
L 5.421875 11.28125 
Q 10.40625 8.6875 15.234375 7.390625 
Q 20.0625 6.109375 24.8125 6.109375 
Q 31.15625 6.109375 34.5625 8.28125 
Q 37.984375 10.453125 37.984375 14.40625 
Q 37.984375 18.0625 35.515625 20.015625 
Q 33.0625 21.96875 24.703125 23.78125 
L 21.578125 24.515625 
Q 13.234375 26.265625 9.515625 29.90625 
Q 5.8125 33.546875 5.8125 39.890625 
Q 5.8125 47.609375 11.28125 51.796875 
Q 16.75 56 26.8125 56 
Q 31.78125 56 36.171875 55.265625 
Q 40.578125 54.546875 44.28125 53.078125 
" id="DejaVuSans-73"/>
    </defs>
    <g transform="translate(353.355 45.84)scale(0.12 -0.12)">
     <use xlink:href="#DejaVuSans-54"/>
     <use x="60.865234" xlink:href="#DejaVuSans-72"/>
     <use x="101.978516" xlink:href="#DejaVuSans-61"/>
     <use x="163.257812" xlink:href="#DejaVuSans-69"/>
     <use x="191.041016" xlink:href="#DejaVuSans-6e"/>
     <use x="254.419922" xlink:href="#DejaVuSans-69"/>
     <use x="282.203125" xlink:href="#DejaVuSans-6e"/>
     <use x="345.582031" xlink:href="#DejaVuSans-67"/>
     <use x="409.058594" xlink:href="#DejaVuSans-20"/>
     <use x="440.845703" xlink:href="#DejaVuSans-45"/>
     <use x="504.029297" xlink:href="#DejaVuSans-72"/>
     <use x="545.126953" xlink:href="#DejaVuSans-72"/>
     <use x="586.208984" xlink:href="#DejaVuSans-6f"/>
     <use x="647.390625" xlink:href="#DejaVuSans-72"/>
     <use x="688.503906" xlink:href="#DejaVuSans-20"/>
     <use x="720.291016" xlink:href="#DejaVuSans-6f"/>
     <use x="781.472656" xlink:href="#DejaVuSans-76"/>
     <use x="840.652344" xlink:href="#DejaVuSans-65"/>
     <use x="902.175781" xlink:href="#DejaVuSans-72"/>
     <use x="943.289062" xlink:href="#DejaVuSans-20"/>
     <use x="975.076172" xlink:href="#DejaVuSans-33"/>
     <use x="1038.699219" xlink:href="#DejaVuSans-35"/>
     <use x="1102.322266" xlink:href="#DejaVuSans-20"/>
     <use x="1134.109375" xlink:href="#DejaVuSans-65"/>
     <use x="1195.632812" xlink:href="#DejaVuSans-70"/>
     <use x="1259.109375" xlink:href="#DejaVuSans-6f"/>
     <use x="1320.291016" xlink:href="#DejaVuSans-63"/>
     <use x="1375.271484" xlink:href="#DejaVuSans-68"/>
     <use x="1438.650391" xlink:href="#DejaVuSans-73"/>
    </g>
   </g>
   <g id="legend_1">
    <g id="patch_7">
     <path d="M 670.2625 162.586875 
L 770.6 162.586875 
Q 772.6 162.586875 772.6 160.586875 
L 772.6 58.84 
Q 772.6 56.84 770.6 56.84 
L 670.2625 56.84 
Q 668.2625 56.84 668.2625 58.84 
L 668.2625 160.586875 
Q 668.2625 162.586875 670.2625 162.586875 
z
" style="fill:#ffffff;opacity:0.8;stroke:#cccccc;stroke-linejoin:miter;"/>
    </g>
    <g id="line2d_41">
     <path d="M 672.2625 64.938437 
L 692.2625 64.938437 
" style="fill:none;stroke:#1f77b4;stroke-linecap:square;stroke-width:1.5;"/>
    </g>
    <g id="line2d_42"/>
    <g id="text_17">
     <!-- num steps 3 -->
     <defs>
      <path d="M 18.3125 70.21875 
L 18.3125 54.6875 
L 36.8125 54.6875 
L 36.8125 47.703125 
L 18.3125 47.703125 
L 18.3125 18.015625 
Q 18.3125 11.328125 20.140625 9.421875 
Q 21.96875 7.515625 27.59375 7.515625 
L 36.8125 7.515625 
L 36.8125 0 
L 27.59375 0 
Q 17.1875 0 13.234375 3.875 
Q 9.28125 7.765625 9.28125 18.015625 
L 9.28125 47.703125 
L 2.6875 47.703125 
L 2.6875 54.6875 
L 9.28125 54.6875 
L 9.28125 70.21875 
z
" id="DejaVuSans-74"/>
     </defs>
     <g transform="translate(700.2625 68.438437)scale(0.1 -0.1)">
      <use xlink:href="#DejaVuSans-6e"/>
      <use x="63.378906" xlink:href="#DejaVuSans-75"/>
      <use x="126.757812" xlink:href="#DejaVuSans-6d"/>
      <use x="224.169922" xlink:href="#DejaVuSans-20"/>
      <use x="255.957031" xlink:href="#DejaVuSans-73"/>
      <use x="308.056641" xlink:href="#DejaVuSans-74"/>
      <use x="347.265625" xlink:href="#DejaVuSans-65"/>
      <use x="408.789062" xlink:href="#DejaVuSans-70"/>
      <use x="472.265625" xlink:href="#DejaVuSans-73"/>
      <use x="524.365234" xlink:href="#DejaVuSans-20"/>
      <use x="556.152344" xlink:href="#DejaVuSans-33"/>
     </g>
    </g>
    <g id="line2d_43">
     <path d="M 672.2625 79.616562 
L 692.2625 79.616562 
" style="fill:none;stroke:#ff7f0e;stroke-linecap:square;stroke-width:1.5;"/>
    </g>
    <g id="line2d_44"/>
    <g id="text_18">
     <!-- num steps 4 -->
     <defs>
      <path d="M 37.796875 64.3125 
L 12.890625 25.390625 
L 37.796875 25.390625 
z
M 35.203125 72.90625 
L 47.609375 72.90625 
L 47.609375 25.390625 
L 58.015625 25.390625 
L 58.015625 17.1875 
L 47.609375 17.1875 
L 47.609375 0 
L 37.796875 0 
L 37.796875 17.1875 
L 4.890625 17.1875 
L 4.890625 26.703125 
z
" id="DejaVuSans-34"/>
     </defs>
     <g transform="translate(700.2625 83.116562)scale(0.1 -0.1)">
      <use xlink:href="#DejaVuSans-6e"/>
      <use x="63.378906" xlink:href="#DejaVuSans-75"/>
      <use x="126.757812" xlink:href="#DejaVuSans-6d"/>
      <use x="224.169922" xlink:href="#DejaVuSans-20"/>
      <use x="255.957031" xlink:href="#DejaVuSans-73"/>
      <use x="308.056641" xlink:href="#DejaVuSans-74"/>
      <use x="347.265625" xlink:href="#DejaVuSans-65"/>
      <use x="408.789062" xlink:href="#DejaVuSans-70"/>
      <use x="472.265625" xlink:href="#DejaVuSans-73"/>
      <use x="524.365234" xlink:href="#DejaVuSans-20"/>
      <use x="556.152344" xlink:href="#DejaVuSans-34"/>
     </g>
    </g>
    <g id="line2d_45">
     <path d="M 672.2625 94.294687 
L 692.2625 94.294687 
" style="fill:none;stroke:#2ca02c;stroke-linecap:square;stroke-width:1.5;"/>
    </g>
    <g id="line2d_46"/>
    <g id="text_19">
     <!-- num steps 5 -->
     <g transform="translate(700.2625 97.794687)scale(0.1 -0.1)">
      <use xlink:href="#DejaVuSans-6e"/>
      <use x="63.378906" xlink:href="#DejaVuSans-75"/>
      <use x="126.757812" xlink:href="#DejaVuSans-6d"/>
      <use x="224.169922" xlink:href="#DejaVuSans-20"/>
      <use x="255.957031" xlink:href="#DejaVuSans-73"/>
      <use x="308.056641" xlink:href="#DejaVuSans-74"/>
      <use x="347.265625" xlink:href="#DejaVuSans-65"/>
      <use x="408.789062" xlink:href="#DejaVuSans-70"/>
      <use x="472.265625" xlink:href="#DejaVuSans-73"/>
      <use x="524.365234" xlink:href="#DejaVuSans-20"/>
      <use x="556.152344" xlink:href="#DejaVuSans-35"/>
     </g>
    </g>
    <g id="line2d_47">
     <path d="M 672.2625 108.972812 
L 692.2625 108.972812 
" style="fill:none;stroke:#d62728;stroke-linecap:square;stroke-width:1.5;"/>
    </g>
    <g id="line2d_48"/>
    <g id="text_20">
     <!-- num steps 6 -->
     <defs>
      <path d="M 33.015625 40.375 
Q 26.375 40.375 22.484375 35.828125 
Q 18.609375 31.296875 18.609375 23.390625 
Q 18.609375 15.53125 22.484375 10.953125 
Q 26.375 6.390625 33.015625 6.390625 
Q 39.65625 6.390625 43.53125 10.953125 
Q 47.40625 15.53125 47.40625 23.390625 
Q 47.40625 31.296875 43.53125 35.828125 
Q 39.65625 40.375 33.015625 40.375 
M 52.59375 71.296875 
L 52.59375 62.3125 
Q 48.875 64.0625 45.09375 64.984375 
Q 41.3125 65.921875 37.59375 65.921875 
Q 27.828125 65.921875 22.671875 59.328125 
Q 17.53125 52.734375 16.796875 39.40625 
Q 19.671875 43.65625 24.015625 45.921875 
Q 28.375 48.1875 33.59375 48.1875 
Q 44.578125 48.1875 50.953125 41.515625 
Q 57.328125 34.859375 57.328125 23.390625 
Q 57.328125 12.15625 50.6875 5.359375 
Q 44.046875 -1.421875 33.015625 -1.421875 
Q 20.359375 -1.421875 13.671875 8.265625 
Q 6.984375 17.96875 6.984375 36.375 
Q 6.984375 53.65625 15.1875 63.9375 
Q 23.390625 74.21875 37.203125 74.21875 
Q 40.921875 74.21875 44.703125 73.484375 
Q 48.484375 72.75 52.59375 71.296875 
" id="DejaVuSans-36"/>
     </defs>
     <g transform="translate(700.2625 112.472812)scale(0.1 -0.1)">
      <use xlink:href="#DejaVuSans-6e"/>
      <use x="63.378906" xlink:href="#DejaVuSans-75"/>
      <use x="126.757812" xlink:href="#DejaVuSans-6d"/>
      <use x="224.169922" xlink:href="#DejaVuSans-20"/>
      <use x="255.957031" xlink:href="#DejaVuSans-73"/>
      <use x="308.056641" xlink:href="#DejaVuSans-74"/>
      <use x="347.265625" xlink:href="#DejaVuSans-65"/>
      <use x="408.789062" xlink:href="#DejaVuSans-70"/>
      <use x="472.265625" xlink:href="#DejaVuSans-73"/>
      <use x="524.365234" xlink:href="#DejaVuSans-20"/>
      <use x="556.152344" xlink:href="#DejaVuSans-36"/>
     </g>
    </g>
    <g id="line2d_49">
     <path d="M 672.2625 123.650937 
L 692.2625 123.650937 
" style="fill:none;stroke:#9467bd;stroke-linecap:square;stroke-width:1.5;"/>
    </g>
    <g id="line2d_50"/>
    <g id="text_21">
     <!-- num steps 8 -->
     <g transform="translate(700.2625 127.150937)scale(0.1 -0.1)">
      <use xlink:href="#DejaVuSans-6e"/>
      <use x="63.378906" xlink:href="#DejaVuSans-75"/>
      <use x="126.757812" xlink:href="#DejaVuSans-6d"/>
      <use x="224.169922" xlink:href="#DejaVuSans-20"/>
      <use x="255.957031" xlink:href="#DejaVuSans-73"/>
      <use x="308.056641" xlink:href="#DejaVuSans-74"/>
      <use x="347.265625" xlink:href="#DejaVuSans-65"/>
      <use x="408.789062" xlink:href="#DejaVuSans-70"/>
      <use x="472.265625" xlink:href="#DejaVuSans-73"/>
      <use x="524.365234" xlink:href="#DejaVuSans-20"/>
      <use x="556.152344" xlink:href="#DejaVuSans-38"/>
     </g>
    </g>
    <g id="line2d_51">
     <path d="M 672.2625 138.329062 
L 692.2625 138.329062 
" style="fill:none;stroke:#8c564b;stroke-linecap:square;stroke-width:1.5;"/>
    </g>
    <g id="line2d_52"/>
    <g id="text_22">
     <!-- num steps 10 -->
     <g transform="translate(700.2625 141.829062)scale(0.1 -0.1)">
      <use xlink:href="#DejaVuSans-6e"/>
      <use x="63.378906" xlink:href="#DejaVuSans-75"/>
      <use x="126.757812" xlink:href="#DejaVuSans-6d"/>
      <use x="224.169922" xlink:href="#DejaVuSans-20"/>
      <use x="255.957031" xlink:href="#DejaVuSans-73"/>
      <use x="308.056641" xlink:href="#DejaVuSans-74"/>
      <use x="347.265625" xlink:href="#DejaVuSans-65"/>
      <use x="408.789062" xlink:href="#DejaVuSans-70"/>
      <use x="472.265625" xlink:href="#DejaVuSans-73"/>
      <use x="524.365234" xlink:href="#DejaVuSans-20"/>
      <use x="556.152344" xlink:href="#DejaVuSans-31"/>
      <use x="619.775391" xlink:href="#DejaVuSans-30"/>
     </g>
    </g>
    <g id="line2d_53">
     <path d="M 672.2625 153.007187 
L 692.2625 153.007187 
" style="fill:none;stroke:#e377c2;stroke-linecap:square;stroke-width:1.5;"/>
    </g>
    <g id="line2d_54"/>
    <g id="text_23">
     <!-- num steps 15 -->
     <g transform="translate(700.2625 156.507187)scale(0.1 -0.1)">
      <use xlink:href="#DejaVuSans-6e"/>
      <use x="63.378906" xlink:href="#DejaVuSans-75"/>
      <use x="126.757812" xlink:href="#DejaVuSans-6d"/>
      <use x="224.169922" xlink:href="#DejaVuSans-20"/>
      <use x="255.957031" xlink:href="#DejaVuSans-73"/>
      <use x="308.056641" xlink:href="#DejaVuSans-74"/>
      <use x="347.265625" xlink:href="#DejaVuSans-65"/>
      <use x="408.789062" xlink:href="#DejaVuSans-70"/>
      <use x="472.265625" xlink:href="#DejaVuSans-73"/>
      <use x="524.365234" xlink:href="#DejaVuSans-20"/>
      <use x="556.152344" xlink:href="#DejaVuSans-31"/>
      <use x="619.775391" xlink:href="#DejaVuSans-35"/>
     </g>
    </g>
   </g>
  </g>
 </g>
 <defs>
  <clipPath id="p10bc561731">
   <rect height="326.16" width="669.6" x="108" y="51.84"/>
  </clipPath>
 </defs>
</svg>
