<?xml version="1.0" encoding="utf-8" standalone="no"?>
<!DOCTYPE svg PUBLIC "-//W3C//DTD SVG 1.1//EN"
  "http://www.w3.org/Graphics/SVG/1.1/DTD/svg11.dtd">
<!-- Created with matplotlib (http://matplotlib.org/) -->
<svg height="432pt" version="1.1" viewBox="0 0 864 432" width="864pt" xmlns="http://www.w3.org/2000/svg" xmlns:xlink="http://www.w3.org/1999/xlink">
 <defs>
  <style type="text/css">
*{stroke-linecap:butt;stroke-linejoin:round;}
  </style>
 </defs>
 <g id="figure_1">
  <g id="patch_1">
   <path d="M 0 432 
L 864 432 
L 864 0 
L 0 0 
z
" style="fill:#ffffff;"/>
  </g>
  <g id="axes_1">
   <g id="patch_2">
    <path d="M 108 378 
L 777.6 378 
L 777.6 51.84 
L 108 51.84 
z
" style="fill:#ffffff;"/>
   </g>
   <g id="matplotlib.axis_1">
    <g id="xtick_1">
     <g id="line2d_1">
      <path clip-path="url(#pb8c0cbdd3b)" d="M 119.990083 378 
L 119.990083 51.84 
" style="fill:none;stroke:#b0b0b0;stroke-linecap:square;stroke-width:0.8;"/>
     </g>
     <g id="line2d_2">
      <defs>
       <path d="M 0 0 
L 0 3.5 
" id="m4a9d9f2f4e" style="stroke:#000000;stroke-width:0.8;"/>
      </defs>
      <g>
       <use style="stroke:#000000;stroke-width:0.8;" x="119.990083" xlink:href="#m4a9d9f2f4e" y="378"/>
      </g>
     </g>
     <g id="text_1">
      <!-- 0 -->
      <defs>
       <path d="M 31.78125 66.40625 
Q 24.171875 66.40625 20.328125 58.90625 
Q 16.5 51.421875 16.5 36.375 
Q 16.5 21.390625 20.328125 13.890625 
Q 24.171875 6.390625 31.78125 6.390625 
Q 39.453125 6.390625 43.28125 13.890625 
Q 47.125 21.390625 47.125 36.375 
Q 47.125 51.421875 43.28125 58.90625 
Q 39.453125 66.40625 31.78125 66.40625 
M 31.78125 74.21875 
Q 44.046875 74.21875 50.515625 64.515625 
Q 56.984375 54.828125 56.984375 36.375 
Q 56.984375 17.96875 50.515625 8.265625 
Q 44.046875 -1.421875 31.78125 -1.421875 
Q 19.53125 -1.421875 13.0625 8.265625 
Q 6.59375 17.96875 6.59375 36.375 
Q 6.59375 54.828125 13.0625 64.515625 
Q 19.53125 74.21875 31.78125 74.21875 
" id="DejaVuSans-30"/>
      </defs>
      <g transform="translate(116.808833 392.598437)scale(0.1 -0.1)">
       <use xlink:href="#DejaVuSans-30"/>
      </g>
     </g>
    </g>
    <g id="xtick_2">
     <g id="line2d_3">
      <path clip-path="url(#pb8c0cbdd3b)" d="M 212.221488 378 
L 212.221488 51.84 
" style="fill:none;stroke:#b0b0b0;stroke-linecap:square;stroke-width:0.8;"/>
     </g>
     <g id="line2d_4">
      <g>
       <use style="stroke:#000000;stroke-width:0.8;" x="212.221488" xlink:href="#m4a9d9f2f4e" y="378"/>
      </g>
     </g>
     <g id="text_2">
      <!-- 5 -->
      <defs>
       <path d="M 10.796875 72.90625 
L 49.515625 72.90625 
L 49.515625 64.59375 
L 19.828125 64.59375 
L 19.828125 46.734375 
Q 21.96875 47.46875 24.109375 47.828125 
Q 26.265625 48.1875 28.421875 48.1875 
Q 40.625 48.1875 47.75 41.5 
Q 54.890625 34.8125 54.890625 23.390625 
Q 54.890625 11.625 47.5625 5.09375 
Q 40.234375 -1.421875 26.90625 -1.421875 
Q 22.3125 -1.421875 17.546875 -0.640625 
Q 12.796875 0.140625 7.71875 1.703125 
L 7.71875 11.625 
Q 12.109375 9.234375 16.796875 8.0625 
Q 21.484375 6.890625 26.703125 6.890625 
Q 35.15625 6.890625 40.078125 11.328125 
Q 45.015625 15.765625 45.015625 23.390625 
Q 45.015625 31 40.078125 35.4375 
Q 35.15625 39.890625 26.703125 39.890625 
Q 22.75 39.890625 18.8125 39.015625 
Q 14.890625 38.140625 10.796875 36.28125 
z
" id="DejaVuSans-35"/>
      </defs>
      <g transform="translate(209.040238 392.598437)scale(0.1 -0.1)">
       <use xlink:href="#DejaVuSans-35"/>
      </g>
     </g>
    </g>
    <g id="xtick_3">
     <g id="line2d_5">
      <path clip-path="url(#pb8c0cbdd3b)" d="M 304.452893 378 
L 304.452893 51.84 
" style="fill:none;stroke:#b0b0b0;stroke-linecap:square;stroke-width:0.8;"/>
     </g>
     <g id="line2d_6">
      <g>
       <use style="stroke:#000000;stroke-width:0.8;" x="304.452893" xlink:href="#m4a9d9f2f4e" y="378"/>
      </g>
     </g>
     <g id="text_3">
      <!-- 10 -->
      <defs>
       <path d="M 12.40625 8.296875 
L 28.515625 8.296875 
L 28.515625 63.921875 
L 10.984375 60.40625 
L 10.984375 69.390625 
L 28.421875 72.90625 
L 38.28125 72.90625 
L 38.28125 8.296875 
L 54.390625 8.296875 
L 54.390625 0 
L 12.40625 0 
z
" id="DejaVuSans-31"/>
      </defs>
      <g transform="translate(298.090393 392.598437)scale(0.1 -0.1)">
       <use xlink:href="#DejaVuSans-31"/>
       <use x="63.623047" xlink:href="#DejaVuSans-30"/>
      </g>
     </g>
    </g>
    <g id="xtick_4">
     <g id="line2d_7">
      <path clip-path="url(#pb8c0cbdd3b)" d="M 396.684298 378 
L 396.684298 51.84 
" style="fill:none;stroke:#b0b0b0;stroke-linecap:square;stroke-width:0.8;"/>
     </g>
     <g id="line2d_8">
      <g>
       <use style="stroke:#000000;stroke-width:0.8;" x="396.684298" xlink:href="#m4a9d9f2f4e" y="378"/>
      </g>
     </g>
     <g id="text_4">
      <!-- 15 -->
      <g transform="translate(390.321798 392.598437)scale(0.1 -0.1)">
       <use xlink:href="#DejaVuSans-31"/>
       <use x="63.623047" xlink:href="#DejaVuSans-35"/>
      </g>
     </g>
    </g>
    <g id="xtick_5">
     <g id="line2d_9">
      <path clip-path="url(#pb8c0cbdd3b)" d="M 488.915702 378 
L 488.915702 51.84 
" style="fill:none;stroke:#b0b0b0;stroke-linecap:square;stroke-width:0.8;"/>
     </g>
     <g id="line2d_10">
      <g>
       <use style="stroke:#000000;stroke-width:0.8;" x="488.915702" xlink:href="#m4a9d9f2f4e" y="378"/>
      </g>
     </g>
     <g id="text_5">
      <!-- 20 -->
      <defs>
       <path d="M 19.1875 8.296875 
L 53.609375 8.296875 
L 53.609375 0 
L 7.328125 0 
L 7.328125 8.296875 
Q 12.9375 14.109375 22.625 23.890625 
Q 32.328125 33.6875 34.8125 36.53125 
Q 39.546875 41.84375 41.421875 45.53125 
Q 43.3125 49.21875 43.3125 52.78125 
Q 43.3125 58.59375 39.234375 62.25 
Q 35.15625 65.921875 28.609375 65.921875 
Q 23.96875 65.921875 18.8125 64.3125 
Q 13.671875 62.703125 7.8125 59.421875 
L 7.8125 69.390625 
Q 13.765625 71.78125 18.9375 73 
Q 24.125 74.21875 28.421875 74.21875 
Q 39.75 74.21875 46.484375 68.546875 
Q 53.21875 62.890625 53.21875 53.421875 
Q 53.21875 48.921875 51.53125 44.890625 
Q 49.859375 40.875 45.40625 35.40625 
Q 44.1875 33.984375 37.640625 27.21875 
Q 31.109375 20.453125 19.1875 8.296875 
" id="DejaVuSans-32"/>
      </defs>
      <g transform="translate(482.553202 392.598437)scale(0.1 -0.1)">
       <use xlink:href="#DejaVuSans-32"/>
       <use x="63.623047" xlink:href="#DejaVuSans-30"/>
      </g>
     </g>
    </g>
    <g id="xtick_6">
     <g id="line2d_11">
      <path clip-path="url(#pb8c0cbdd3b)" d="M 581.147107 378 
L 581.147107 51.84 
" style="fill:none;stroke:#b0b0b0;stroke-linecap:square;stroke-width:0.8;"/>
     </g>
     <g id="line2d_12">
      <g>
       <use style="stroke:#000000;stroke-width:0.8;" x="581.147107" xlink:href="#m4a9d9f2f4e" y="378"/>
      </g>
     </g>
     <g id="text_6">
      <!-- 25 -->
      <g transform="translate(574.784607 392.598437)scale(0.1 -0.1)">
       <use xlink:href="#DejaVuSans-32"/>
       <use x="63.623047" xlink:href="#DejaVuSans-35"/>
      </g>
     </g>
    </g>
    <g id="xtick_7">
     <g id="line2d_13">
      <path clip-path="url(#pb8c0cbdd3b)" d="M 673.378512 378 
L 673.378512 51.84 
" style="fill:none;stroke:#b0b0b0;stroke-linecap:square;stroke-width:0.8;"/>
     </g>
     <g id="line2d_14">
      <g>
       <use style="stroke:#000000;stroke-width:0.8;" x="673.378512" xlink:href="#m4a9d9f2f4e" y="378"/>
      </g>
     </g>
     <g id="text_7">
      <!-- 30 -->
      <defs>
       <path d="M 40.578125 39.3125 
Q 47.65625 37.796875 51.625 33 
Q 55.609375 28.21875 55.609375 21.1875 
Q 55.609375 10.40625 48.1875 4.484375 
Q 40.765625 -1.421875 27.09375 -1.421875 
Q 22.515625 -1.421875 17.65625 -0.515625 
Q 12.796875 0.390625 7.625 2.203125 
L 7.625 11.71875 
Q 11.71875 9.328125 16.59375 8.109375 
Q 21.484375 6.890625 26.8125 6.890625 
Q 36.078125 6.890625 40.9375 10.546875 
Q 45.796875 14.203125 45.796875 21.1875 
Q 45.796875 27.640625 41.28125 31.265625 
Q 36.765625 34.90625 28.71875 34.90625 
L 20.21875 34.90625 
L 20.21875 43.015625 
L 29.109375 43.015625 
Q 36.375 43.015625 40.234375 45.921875 
Q 44.09375 48.828125 44.09375 54.296875 
Q 44.09375 59.90625 40.109375 62.90625 
Q 36.140625 65.921875 28.71875 65.921875 
Q 24.65625 65.921875 20.015625 65.03125 
Q 15.375 64.15625 9.8125 62.3125 
L 9.8125 71.09375 
Q 15.4375 72.65625 20.34375 73.4375 
Q 25.25 74.21875 29.59375 74.21875 
Q 40.828125 74.21875 47.359375 69.109375 
Q 53.90625 64.015625 53.90625 55.328125 
Q 53.90625 49.265625 50.4375 45.09375 
Q 46.96875 40.921875 40.578125 39.3125 
" id="DejaVuSans-33"/>
      </defs>
      <g transform="translate(667.016012 392.598437)scale(0.1 -0.1)">
       <use xlink:href="#DejaVuSans-33"/>
       <use x="63.623047" xlink:href="#DejaVuSans-30"/>
      </g>
     </g>
    </g>
    <g id="xtick_8">
     <g id="line2d_15">
      <path clip-path="url(#pb8c0cbdd3b)" d="M 765.609917 378 
L 765.609917 51.84 
" style="fill:none;stroke:#b0b0b0;stroke-linecap:square;stroke-width:0.8;"/>
     </g>
     <g id="line2d_16">
      <g>
       <use style="stroke:#000000;stroke-width:0.8;" x="765.609917" xlink:href="#m4a9d9f2f4e" y="378"/>
      </g>
     </g>
     <g id="text_8">
      <!-- 35 -->
      <g transform="translate(759.247417 392.598437)scale(0.1 -0.1)">
       <use xlink:href="#DejaVuSans-33"/>
       <use x="63.623047" xlink:href="#DejaVuSans-35"/>
      </g>
     </g>
    </g>
    <g id="text_9">
     <!-- Epoch number -->
     <defs>
      <path d="M 9.8125 72.90625 
L 55.90625 72.90625 
L 55.90625 64.59375 
L 19.671875 64.59375 
L 19.671875 43.015625 
L 54.390625 43.015625 
L 54.390625 34.71875 
L 19.671875 34.71875 
L 19.671875 8.296875 
L 56.78125 8.296875 
L 56.78125 0 
L 9.8125 0 
z
" id="DejaVuSans-45"/>
      <path d="M 18.109375 8.203125 
L 18.109375 -20.796875 
L 9.078125 -20.796875 
L 9.078125 54.6875 
L 18.109375 54.6875 
L 18.109375 46.390625 
Q 20.953125 51.265625 25.265625 53.625 
Q 29.59375 56 35.59375 56 
Q 45.5625 56 51.78125 48.09375 
Q 58.015625 40.1875 58.015625 27.296875 
Q 58.015625 14.40625 51.78125 6.484375 
Q 45.5625 -1.421875 35.59375 -1.421875 
Q 29.59375 -1.421875 25.265625 0.953125 
Q 20.953125 3.328125 18.109375 8.203125 
M 48.6875 27.296875 
Q 48.6875 37.203125 44.609375 42.84375 
Q 40.53125 48.484375 33.40625 48.484375 
Q 26.265625 48.484375 22.1875 42.84375 
Q 18.109375 37.203125 18.109375 27.296875 
Q 18.109375 17.390625 22.1875 11.75 
Q 26.265625 6.109375 33.40625 6.109375 
Q 40.53125 6.109375 44.609375 11.75 
Q 48.6875 17.390625 48.6875 27.296875 
" id="DejaVuSans-70"/>
      <path d="M 30.609375 48.390625 
Q 23.390625 48.390625 19.1875 42.75 
Q 14.984375 37.109375 14.984375 27.296875 
Q 14.984375 17.484375 19.15625 11.84375 
Q 23.34375 6.203125 30.609375 6.203125 
Q 37.796875 6.203125 41.984375 11.859375 
Q 46.1875 17.53125 46.1875 27.296875 
Q 46.1875 37.015625 41.984375 42.703125 
Q 37.796875 48.390625 30.609375 48.390625 
M 30.609375 56 
Q 42.328125 56 49.015625 48.375 
Q 55.71875 40.765625 55.71875 27.296875 
Q 55.71875 13.875 49.015625 6.21875 
Q 42.328125 -1.421875 30.609375 -1.421875 
Q 18.84375 -1.421875 12.171875 6.21875 
Q 5.515625 13.875 5.515625 27.296875 
Q 5.515625 40.765625 12.171875 48.375 
Q 18.84375 56 30.609375 56 
" id="DejaVuSans-6f"/>
      <path d="M 48.78125 52.59375 
L 48.78125 44.1875 
Q 44.96875 46.296875 41.140625 47.34375 
Q 37.3125 48.390625 33.40625 48.390625 
Q 24.65625 48.390625 19.8125 42.84375 
Q 14.984375 37.3125 14.984375 27.296875 
Q 14.984375 17.28125 19.8125 11.734375 
Q 24.65625 6.203125 33.40625 6.203125 
Q 37.3125 6.203125 41.140625 7.25 
Q 44.96875 8.296875 48.78125 10.40625 
L 48.78125 2.09375 
Q 45.015625 0.34375 40.984375 -0.53125 
Q 36.96875 -1.421875 32.421875 -1.421875 
Q 20.0625 -1.421875 12.78125 6.34375 
Q 5.515625 14.109375 5.515625 27.296875 
Q 5.515625 40.671875 12.859375 48.328125 
Q 20.21875 56 33.015625 56 
Q 37.15625 56 41.109375 55.140625 
Q 45.0625 54.296875 48.78125 52.59375 
" id="DejaVuSans-63"/>
      <path d="M 54.890625 33.015625 
L 54.890625 0 
L 45.90625 0 
L 45.90625 32.71875 
Q 45.90625 40.484375 42.875 44.328125 
Q 39.84375 48.1875 33.796875 48.1875 
Q 26.515625 48.1875 22.3125 43.546875 
Q 18.109375 38.921875 18.109375 30.90625 
L 18.109375 0 
L 9.078125 0 
L 9.078125 75.984375 
L 18.109375 75.984375 
L 18.109375 46.1875 
Q 21.34375 51.125 25.703125 53.5625 
Q 30.078125 56 35.796875 56 
Q 45.21875 56 50.046875 50.171875 
Q 54.890625 44.34375 54.890625 33.015625 
" id="DejaVuSans-68"/>
      <path id="DejaVuSans-20"/>
      <path d="M 54.890625 33.015625 
L 54.890625 0 
L 45.90625 0 
L 45.90625 32.71875 
Q 45.90625 40.484375 42.875 44.328125 
Q 39.84375 48.1875 33.796875 48.1875 
Q 26.515625 48.1875 22.3125 43.546875 
Q 18.109375 38.921875 18.109375 30.90625 
L 18.109375 0 
L 9.078125 0 
L 9.078125 54.6875 
L 18.109375 54.6875 
L 18.109375 46.1875 
Q 21.34375 51.125 25.703125 53.5625 
Q 30.078125 56 35.796875 56 
Q 45.21875 56 50.046875 50.171875 
Q 54.890625 44.34375 54.890625 33.015625 
" id="DejaVuSans-6e"/>
      <path d="M 8.5 21.578125 
L 8.5 54.6875 
L 17.484375 54.6875 
L 17.484375 21.921875 
Q 17.484375 14.15625 20.5 10.265625 
Q 23.53125 6.390625 29.59375 6.390625 
Q 36.859375 6.390625 41.078125 11.03125 
Q 45.3125 15.671875 45.3125 23.6875 
L 45.3125 54.6875 
L 54.296875 54.6875 
L 54.296875 0 
L 45.3125 0 
L 45.3125 8.40625 
Q 42.046875 3.421875 37.71875 1 
Q 33.40625 -1.421875 27.6875 -1.421875 
Q 18.265625 -1.421875 13.375 4.4375 
Q 8.5 10.296875 8.5 21.578125 
M 31.109375 56 
z
" id="DejaVuSans-75"/>
      <path d="M 52 44.1875 
Q 55.375 50.25 60.0625 53.125 
Q 64.75 56 71.09375 56 
Q 79.640625 56 84.28125 50.015625 
Q 88.921875 44.046875 88.921875 33.015625 
L 88.921875 0 
L 79.890625 0 
L 79.890625 32.71875 
Q 79.890625 40.578125 77.09375 44.375 
Q 74.3125 48.1875 68.609375 48.1875 
Q 61.625 48.1875 57.5625 43.546875 
Q 53.515625 38.921875 53.515625 30.90625 
L 53.515625 0 
L 44.484375 0 
L 44.484375 32.71875 
Q 44.484375 40.625 41.703125 44.40625 
Q 38.921875 48.1875 33.109375 48.1875 
Q 26.21875 48.1875 22.15625 43.53125 
Q 18.109375 38.875 18.109375 30.90625 
L 18.109375 0 
L 9.078125 0 
L 9.078125 54.6875 
L 18.109375 54.6875 
L 18.109375 46.1875 
Q 21.1875 51.21875 25.484375 53.609375 
Q 29.78125 56 35.6875 56 
Q 41.65625 56 45.828125 52.96875 
Q 50 49.953125 52 44.1875 
" id="DejaVuSans-6d"/>
      <path d="M 48.6875 27.296875 
Q 48.6875 37.203125 44.609375 42.84375 
Q 40.53125 48.484375 33.40625 48.484375 
Q 26.265625 48.484375 22.1875 42.84375 
Q 18.109375 37.203125 18.109375 27.296875 
Q 18.109375 17.390625 22.1875 11.75 
Q 26.265625 6.109375 33.40625 6.109375 
Q 40.53125 6.109375 44.609375 11.75 
Q 48.6875 17.390625 48.6875 27.296875 
M 18.109375 46.390625 
Q 20.953125 51.265625 25.265625 53.625 
Q 29.59375 56 35.59375 56 
Q 45.5625 56 51.78125 48.09375 
Q 58.015625 40.1875 58.015625 27.296875 
Q 58.015625 14.40625 51.78125 6.484375 
Q 45.5625 -1.421875 35.59375 -1.421875 
Q 29.59375 -1.421875 25.265625 0.953125 
Q 20.953125 3.328125 18.109375 8.203125 
L 18.109375 0 
L 9.078125 0 
L 9.078125 75.984375 
L 18.109375 75.984375 
z
" id="DejaVuSans-62"/>
      <path d="M 56.203125 29.59375 
L 56.203125 25.203125 
L 14.890625 25.203125 
Q 15.484375 15.921875 20.484375 11.0625 
Q 25.484375 6.203125 34.421875 6.203125 
Q 39.59375 6.203125 44.453125 7.46875 
Q 49.3125 8.734375 54.109375 11.28125 
L 54.109375 2.78125 
Q 49.265625 0.734375 44.1875 -0.34375 
Q 39.109375 -1.421875 33.890625 -1.421875 
Q 20.796875 -1.421875 13.15625 6.1875 
Q 5.515625 13.8125 5.515625 26.8125 
Q 5.515625 40.234375 12.765625 48.109375 
Q 20.015625 56 32.328125 56 
Q 43.359375 56 49.78125 48.890625 
Q 56.203125 41.796875 56.203125 29.59375 
M 47.21875 32.234375 
Q 47.125 39.59375 43.09375 43.984375 
Q 39.0625 48.390625 32.421875 48.390625 
Q 24.90625 48.390625 20.390625 44.140625 
Q 15.875 39.890625 15.1875 32.171875 
z
" id="DejaVuSans-65"/>
      <path d="M 41.109375 46.296875 
Q 39.59375 47.171875 37.8125 47.578125 
Q 36.03125 48 33.890625 48 
Q 26.265625 48 22.1875 43.046875 
Q 18.109375 38.09375 18.109375 28.8125 
L 18.109375 0 
L 9.078125 0 
L 9.078125 54.6875 
L 18.109375 54.6875 
L 18.109375 46.1875 
Q 20.953125 51.171875 25.484375 53.578125 
Q 30.03125 56 36.53125 56 
Q 37.453125 56 38.578125 55.875 
Q 39.703125 55.765625 41.0625 55.515625 
z
" id="DejaVuSans-72"/>
     </defs>
     <g transform="translate(406.385938 406.276563)scale(0.1 -0.1)">
      <use xlink:href="#DejaVuSans-45"/>
      <use x="63.183594" xlink:href="#DejaVuSans-70"/>
      <use x="126.660156" xlink:href="#DejaVuSans-6f"/>
      <use x="187.841797" xlink:href="#DejaVuSans-63"/>
      <use x="242.822266" xlink:href="#DejaVuSans-68"/>
      <use x="306.201172" xlink:href="#DejaVuSans-20"/>
      <use x="337.988281" xlink:href="#DejaVuSans-6e"/>
      <use x="401.367188" xlink:href="#DejaVuSans-75"/>
      <use x="464.746094" xlink:href="#DejaVuSans-6d"/>
      <use x="562.158203" xlink:href="#DejaVuSans-62"/>
      <use x="625.634766" xlink:href="#DejaVuSans-65"/>
      <use x="687.158203" xlink:href="#DejaVuSans-72"/>
     </g>
    </g>
   </g>
   <g id="matplotlib.axis_2">
    <g id="ytick_1">
     <g id="line2d_17">
      <path clip-path="url(#pb8c0cbdd3b)" d="M 108 371.265397 
L 777.6 371.265397 
" style="fill:none;stroke:#b0b0b0;stroke-linecap:square;stroke-width:0.8;"/>
     </g>
     <g id="line2d_18">
      <defs>
       <path d="M 0 0 
L -3.5 0 
" id="ma1c3a13399" style="stroke:#000000;stroke-width:0.8;"/>
      </defs>
      <g>
       <use style="stroke:#000000;stroke-width:0.8;" x="108" xlink:href="#ma1c3a13399" y="371.265397"/>
      </g>
     </g>
     <g id="text_10">
      <!-- 1.80 -->
      <defs>
       <path d="M 10.6875 12.40625 
L 21 12.40625 
L 21 0 
L 10.6875 0 
z
" id="DejaVuSans-2e"/>
       <path d="M 31.78125 34.625 
Q 24.75 34.625 20.71875 30.859375 
Q 16.703125 27.09375 16.703125 20.515625 
Q 16.703125 13.921875 20.71875 10.15625 
Q 24.75 6.390625 31.78125 6.390625 
Q 38.8125 6.390625 42.859375 10.171875 
Q 46.921875 13.96875 46.921875 20.515625 
Q 46.921875 27.09375 42.890625 30.859375 
Q 38.875 34.625 31.78125 34.625 
M 21.921875 38.8125 
Q 15.578125 40.375 12.03125 44.71875 
Q 8.5 49.078125 8.5 55.328125 
Q 8.5 64.0625 14.71875 69.140625 
Q 20.953125 74.21875 31.78125 74.21875 
Q 42.671875 74.21875 48.875 69.140625 
Q 55.078125 64.0625 55.078125 55.328125 
Q 55.078125 49.078125 51.53125 44.71875 
Q 48 40.375 41.703125 38.8125 
Q 48.828125 37.15625 52.796875 32.3125 
Q 56.78125 27.484375 56.78125 20.515625 
Q 56.78125 9.90625 50.3125 4.234375 
Q 43.84375 -1.421875 31.78125 -1.421875 
Q 19.734375 -1.421875 13.25 4.234375 
Q 6.78125 9.90625 6.78125 20.515625 
Q 6.78125 27.484375 10.78125 32.3125 
Q 14.796875 37.15625 21.921875 38.8125 
M 18.3125 54.390625 
Q 18.3125 48.734375 21.84375 45.5625 
Q 25.390625 42.390625 31.78125 42.390625 
Q 38.140625 42.390625 41.71875 45.5625 
Q 45.3125 48.734375 45.3125 54.390625 
Q 45.3125 60.0625 41.71875 63.234375 
Q 38.140625 66.40625 31.78125 66.40625 
Q 25.390625 66.40625 21.84375 63.234375 
Q 18.3125 60.0625 18.3125 54.390625 
" id="DejaVuSans-38"/>
      </defs>
      <g transform="translate(78.734375 375.064616)scale(0.1 -0.1)">
       <use xlink:href="#DejaVuSans-31"/>
       <use x="63.623047" xlink:href="#DejaVuSans-2e"/>
       <use x="95.410156" xlink:href="#DejaVuSans-38"/>
       <use x="159.033203" xlink:href="#DejaVuSans-30"/>
      </g>
     </g>
    </g>
    <g id="ytick_2">
     <g id="line2d_19">
      <path clip-path="url(#pb8c0cbdd3b)" d="M 108 330.269774 
L 777.6 330.269774 
" style="fill:none;stroke:#b0b0b0;stroke-linecap:square;stroke-width:0.8;"/>
     </g>
     <g id="line2d_20">
      <g>
       <use style="stroke:#000000;stroke-width:0.8;" x="108" xlink:href="#ma1c3a13399" y="330.269774"/>
      </g>
     </g>
     <g id="text_11">
      <!-- 1.85 -->
      <g transform="translate(78.734375 334.068993)scale(0.1 -0.1)">
       <use xlink:href="#DejaVuSans-31"/>
       <use x="63.623047" xlink:href="#DejaVuSans-2e"/>
       <use x="95.410156" xlink:href="#DejaVuSans-38"/>
       <use x="159.033203" xlink:href="#DejaVuSans-35"/>
      </g>
     </g>
    </g>
    <g id="ytick_3">
     <g id="line2d_21">
      <path clip-path="url(#pb8c0cbdd3b)" d="M 108 289.274151 
L 777.6 289.274151 
" style="fill:none;stroke:#b0b0b0;stroke-linecap:square;stroke-width:0.8;"/>
     </g>
     <g id="line2d_22">
      <g>
       <use style="stroke:#000000;stroke-width:0.8;" x="108" xlink:href="#ma1c3a13399" y="289.274151"/>
      </g>
     </g>
     <g id="text_12">
      <!-- 1.90 -->
      <defs>
       <path d="M 10.984375 1.515625 
L 10.984375 10.5 
Q 14.703125 8.734375 18.5 7.8125 
Q 22.3125 6.890625 25.984375 6.890625 
Q 35.75 6.890625 40.890625 13.453125 
Q 46.046875 20.015625 46.78125 33.40625 
Q 43.953125 29.203125 39.59375 26.953125 
Q 35.25 24.703125 29.984375 24.703125 
Q 19.046875 24.703125 12.671875 31.3125 
Q 6.296875 37.9375 6.296875 49.421875 
Q 6.296875 60.640625 12.9375 67.421875 
Q 19.578125 74.21875 30.609375 74.21875 
Q 43.265625 74.21875 49.921875 64.515625 
Q 56.59375 54.828125 56.59375 36.375 
Q 56.59375 19.140625 48.40625 8.859375 
Q 40.234375 -1.421875 26.421875 -1.421875 
Q 22.703125 -1.421875 18.890625 -0.6875 
Q 15.09375 0.046875 10.984375 1.515625 
M 30.609375 32.421875 
Q 37.25 32.421875 41.125 36.953125 
Q 45.015625 41.5 45.015625 49.421875 
Q 45.015625 57.28125 41.125 61.84375 
Q 37.25 66.40625 30.609375 66.40625 
Q 23.96875 66.40625 20.09375 61.84375 
Q 16.21875 57.28125 16.21875 49.421875 
Q 16.21875 41.5 20.09375 36.953125 
Q 23.96875 32.421875 30.609375 32.421875 
" id="DejaVuSans-39"/>
      </defs>
      <g transform="translate(78.734375 293.073369)scale(0.1 -0.1)">
       <use xlink:href="#DejaVuSans-31"/>
       <use x="63.623047" xlink:href="#DejaVuSans-2e"/>
       <use x="95.410156" xlink:href="#DejaVuSans-39"/>
       <use x="159.033203" xlink:href="#DejaVuSans-30"/>
      </g>
     </g>
    </g>
    <g id="ytick_4">
     <g id="line2d_23">
      <path clip-path="url(#pb8c0cbdd3b)" d="M 108 248.278527 
L 777.6 248.278527 
" style="fill:none;stroke:#b0b0b0;stroke-linecap:square;stroke-width:0.8;"/>
     </g>
     <g id="line2d_24">
      <g>
       <use style="stroke:#000000;stroke-width:0.8;" x="108" xlink:href="#ma1c3a13399" y="248.278527"/>
      </g>
     </g>
     <g id="text_13">
      <!-- 1.95 -->
      <g transform="translate(78.734375 252.077746)scale(0.1 -0.1)">
       <use xlink:href="#DejaVuSans-31"/>
       <use x="63.623047" xlink:href="#DejaVuSans-2e"/>
       <use x="95.410156" xlink:href="#DejaVuSans-39"/>
       <use x="159.033203" xlink:href="#DejaVuSans-35"/>
      </g>
     </g>
    </g>
    <g id="ytick_5">
     <g id="line2d_25">
      <path clip-path="url(#pb8c0cbdd3b)" d="M 108 207.282904 
L 777.6 207.282904 
" style="fill:none;stroke:#b0b0b0;stroke-linecap:square;stroke-width:0.8;"/>
     </g>
     <g id="line2d_26">
      <g>
       <use style="stroke:#000000;stroke-width:0.8;" x="108" xlink:href="#ma1c3a13399" y="207.282904"/>
      </g>
     </g>
     <g id="text_14">
      <!-- 2.00 -->
      <g transform="translate(78.734375 211.082123)scale(0.1 -0.1)">
       <use xlink:href="#DejaVuSans-32"/>
       <use x="63.623047" xlink:href="#DejaVuSans-2e"/>
       <use x="95.410156" xlink:href="#DejaVuSans-30"/>
       <use x="159.033203" xlink:href="#DejaVuSans-30"/>
      </g>
     </g>
    </g>
    <g id="ytick_6">
     <g id="line2d_27">
      <path clip-path="url(#pb8c0cbdd3b)" d="M 108 166.287281 
L 777.6 166.287281 
" style="fill:none;stroke:#b0b0b0;stroke-linecap:square;stroke-width:0.8;"/>
     </g>
     <g id="line2d_28">
      <g>
       <use style="stroke:#000000;stroke-width:0.8;" x="108" xlink:href="#ma1c3a13399" y="166.287281"/>
      </g>
     </g>
     <g id="text_15">
      <!-- 2.05 -->
      <g transform="translate(78.734375 170.086499)scale(0.1 -0.1)">
       <use xlink:href="#DejaVuSans-32"/>
       <use x="63.623047" xlink:href="#DejaVuSans-2e"/>
       <use x="95.410156" xlink:href="#DejaVuSans-30"/>
       <use x="159.033203" xlink:href="#DejaVuSans-35"/>
      </g>
     </g>
    </g>
    <g id="ytick_7">
     <g id="line2d_29">
      <path clip-path="url(#pb8c0cbdd3b)" d="M 108 125.291657 
L 777.6 125.291657 
" style="fill:none;stroke:#b0b0b0;stroke-linecap:square;stroke-width:0.8;"/>
     </g>
     <g id="line2d_30">
      <g>
       <use style="stroke:#000000;stroke-width:0.8;" x="108" xlink:href="#ma1c3a13399" y="125.291657"/>
      </g>
     </g>
     <g id="text_16">
      <!-- 2.10 -->
      <g transform="translate(78.734375 129.090876)scale(0.1 -0.1)">
       <use xlink:href="#DejaVuSans-32"/>
       <use x="63.623047" xlink:href="#DejaVuSans-2e"/>
       <use x="95.410156" xlink:href="#DejaVuSans-31"/>
       <use x="159.033203" xlink:href="#DejaVuSans-30"/>
      </g>
     </g>
    </g>
    <g id="ytick_8">
     <g id="line2d_31">
      <path clip-path="url(#pb8c0cbdd3b)" d="M 108 84.296034 
L 777.6 84.296034 
" style="fill:none;stroke:#b0b0b0;stroke-linecap:square;stroke-width:0.8;"/>
     </g>
     <g id="line2d_32">
      <g>
       <use style="stroke:#000000;stroke-width:0.8;" x="108" xlink:href="#ma1c3a13399" y="84.296034"/>
      </g>
     </g>
     <g id="text_17">
      <!-- 2.15 -->
      <g transform="translate(78.734375 88.095253)scale(0.1 -0.1)">
       <use xlink:href="#DejaVuSans-32"/>
       <use x="63.623047" xlink:href="#DejaVuSans-2e"/>
       <use x="95.410156" xlink:href="#DejaVuSans-31"/>
       <use x="159.033203" xlink:href="#DejaVuSans-35"/>
      </g>
     </g>
    </g>
    <g id="text_18">
     <!-- Validation Error -->
     <defs>
      <path d="M 28.609375 0 
L 0.78125 72.90625 
L 11.078125 72.90625 
L 34.1875 11.53125 
L 57.328125 72.90625 
L 67.578125 72.90625 
L 39.796875 0 
z
" id="DejaVuSans-56"/>
      <path d="M 34.28125 27.484375 
Q 23.390625 27.484375 19.1875 25 
Q 14.984375 22.515625 14.984375 16.5 
Q 14.984375 11.71875 18.140625 8.90625 
Q 21.296875 6.109375 26.703125 6.109375 
Q 34.1875 6.109375 38.703125 11.40625 
Q 43.21875 16.703125 43.21875 25.484375 
L 43.21875 27.484375 
z
M 52.203125 31.203125 
L 52.203125 0 
L 43.21875 0 
L 43.21875 8.296875 
Q 40.140625 3.328125 35.546875 0.953125 
Q 30.953125 -1.421875 24.3125 -1.421875 
Q 15.921875 -1.421875 10.953125 3.296875 
Q 6 8.015625 6 15.921875 
Q 6 25.140625 12.171875 29.828125 
Q 18.359375 34.515625 30.609375 34.515625 
L 43.21875 34.515625 
L 43.21875 35.40625 
Q 43.21875 41.609375 39.140625 45 
Q 35.0625 48.390625 27.6875 48.390625 
Q 23 48.390625 18.546875 47.265625 
Q 14.109375 46.140625 10.015625 43.890625 
L 10.015625 52.203125 
Q 14.9375 54.109375 19.578125 55.046875 
Q 24.21875 56 28.609375 56 
Q 40.484375 56 46.34375 49.84375 
Q 52.203125 43.703125 52.203125 31.203125 
" id="DejaVuSans-61"/>
      <path d="M 9.421875 75.984375 
L 18.40625 75.984375 
L 18.40625 0 
L 9.421875 0 
z
" id="DejaVuSans-6c"/>
      <path d="M 9.421875 54.6875 
L 18.40625 54.6875 
L 18.40625 0 
L 9.421875 0 
z
M 9.421875 75.984375 
L 18.40625 75.984375 
L 18.40625 64.59375 
L 9.421875 64.59375 
z
" id="DejaVuSans-69"/>
      <path d="M 45.40625 46.390625 
L 45.40625 75.984375 
L 54.390625 75.984375 
L 54.390625 0 
L 45.40625 0 
L 45.40625 8.203125 
Q 42.578125 3.328125 38.25 0.953125 
Q 33.9375 -1.421875 27.875 -1.421875 
Q 17.96875 -1.421875 11.734375 6.484375 
Q 5.515625 14.40625 5.515625 27.296875 
Q 5.515625 40.1875 11.734375 48.09375 
Q 17.96875 56 27.875 56 
Q 33.9375 56 38.25 53.625 
Q 42.578125 51.265625 45.40625 46.390625 
M 14.796875 27.296875 
Q 14.796875 17.390625 18.875 11.75 
Q 22.953125 6.109375 30.078125 6.109375 
Q 37.203125 6.109375 41.296875 11.75 
Q 45.40625 17.390625 45.40625 27.296875 
Q 45.40625 37.203125 41.296875 42.84375 
Q 37.203125 48.484375 30.078125 48.484375 
Q 22.953125 48.484375 18.875 42.84375 
Q 14.796875 37.203125 14.796875 27.296875 
" id="DejaVuSans-64"/>
      <path d="M 18.3125 70.21875 
L 18.3125 54.6875 
L 36.8125 54.6875 
L 36.8125 47.703125 
L 18.3125 47.703125 
L 18.3125 18.015625 
Q 18.3125 11.328125 20.140625 9.421875 
Q 21.96875 7.515625 27.59375 7.515625 
L 36.8125 7.515625 
L 36.8125 0 
L 27.59375 0 
Q 17.1875 0 13.234375 3.875 
Q 9.28125 7.765625 9.28125 18.015625 
L 9.28125 47.703125 
L 2.6875 47.703125 
L 2.6875 54.6875 
L 9.28125 54.6875 
L 9.28125 70.21875 
z
" id="DejaVuSans-74"/>
     </defs>
     <g transform="translate(72.654687 253.964531)rotate(-90)scale(0.1 -0.1)">
      <use xlink:href="#DejaVuSans-56"/>
      <use x="68.298828" xlink:href="#DejaVuSans-61"/>
      <use x="129.578125" xlink:href="#DejaVuSans-6c"/>
      <use x="157.361328" xlink:href="#DejaVuSans-69"/>
      <use x="185.144531" xlink:href="#DejaVuSans-64"/>
      <use x="248.621094" xlink:href="#DejaVuSans-61"/>
      <use x="309.900391" xlink:href="#DejaVuSans-74"/>
      <use x="349.109375" xlink:href="#DejaVuSans-69"/>
      <use x="376.892578" xlink:href="#DejaVuSans-6f"/>
      <use x="438.074219" xlink:href="#DejaVuSans-6e"/>
      <use x="501.453125" xlink:href="#DejaVuSans-20"/>
      <use x="533.240234" xlink:href="#DejaVuSans-45"/>
      <use x="596.423828" xlink:href="#DejaVuSans-72"/>
      <use x="637.521484" xlink:href="#DejaVuSans-72"/>
      <use x="678.603516" xlink:href="#DejaVuSans-6f"/>
      <use x="739.785156" xlink:href="#DejaVuSans-72"/>
     </g>
    </g>
   </g>
   <g id="line2d_33">
    <path clip-path="url(#pb8c0cbdd3b)" d="M 138.436364 319.073097 
L 156.882645 329.508061 
L 175.328926 324.184203 
L 193.775207 326.620802 
L 212.221488 333.28216 
L 230.667769 324.110815 
L 249.11405 334.189048 
L 267.560331 335.728674 
L 286.006612 333.975698 
L 304.452893 337.013842 
L 322.899174 328.766173 
L 341.345455 329.223427 
L 359.791736 334.989964 
L 378.238017 337.184445 
L 396.684298 328.183384 
L 415.130579 335.653341 
L 433.57686 334.90207 
L 452.02314 336.284541 
L 470.469421 332.928165 
L 488.915702 334.439151 
L 507.361983 332.623785 
L 525.808264 339.128633 
L 544.254545 337.984706 
L 562.700826 329.947335 
L 581.147107 336.390615 
L 599.593388 328.157323 
L 618.039669 328.592513 
L 636.48595 331.477157 
L 654.932231 337.198252 
L 673.378512 332.980985 
L 691.824793 340.366991 
L 710.271074 333.288588 
L 728.717355 328.326452 
L 747.163636 334.946639 
" style="fill:none;stroke:#d3d3d3;stroke-linecap:square;stroke-width:1.5;"/>
   </g>
   <g id="line2d_34">
    <path clip-path="url(#pb8c0cbdd3b)" d="M 138.436364 322.231867 
L 156.882645 328.808612 
L 175.328926 330.886716 
L 193.775207 335.316067 
L 212.221488 343.017587 
L 230.667769 338.649212 
L 249.11405 336.765628 
L 267.560331 340.44778 
L 286.006612 343.041691 
L 304.452893 346.986452 
L 322.899174 340.169577 
L 341.345455 342.429646 
L 359.791736 340.38607 
L 378.238017 344.838274 
L 396.684298 340.605543 
L 415.130579 340.50677 
L 433.57686 341.112997 
L 452.02314 346.117144 
L 470.469421 343.163709 
L 488.915702 339.76444 
L 507.361983 344.538247 
L 525.808264 336.205393 
L 544.254545 341.219952 
L 562.700826 340.740752 
L 581.147107 342.643072 
L 599.593388 338.37974 
L 618.039669 346.450227 
L 636.48595 347.32593 
L 654.932231 335.986098 
L 673.378512 346.198869 
L 691.824793 345.664451 
L 710.271074 344.199493 
L 728.717355 340.234205 
L 747.163636 344.320803 
" style="fill:none;stroke:#1f77b4;stroke-linecap:square;stroke-width:1.5;"/>
   </g>
   <g id="line2d_35">
    <path clip-path="url(#pb8c0cbdd3b)" d="M 138.436364 317.126228 
L 156.882645 321.533177 
L 175.328926 332.341642 
L 193.775207 340.152046 
L 212.221488 342.10767 
L 230.667769 343.616989 
L 249.11405 341.940198 
L 267.560331 339.830946 
L 286.006612 341.309503 
L 304.452893 343.365479 
L 322.899174 341.838074 
L 341.345455 350.270814 
L 359.791736 350.509874 
L 378.238017 345.2778 
L 396.684298 345.598803 
L 415.130579 346.437752 
L 433.57686 345.395826 
L 452.02314 346.249122 
L 470.469421 347.881713 
L 488.915702 342.752542 
L 507.361983 343.232506 
L 525.808264 348.369859 
L 544.254545 349.249251 
L 562.700826 346.961215 
L 581.147107 346.976426 
L 599.593388 350.097916 
L 618.039669 347.729798 
L 636.48595 350.507619 
L 654.932231 345.288504 
L 673.378512 346.483841 
L 691.824793 351.145428 
L 710.271074 346.175892 
L 728.717355 346.35985 
L 747.163636 348.226507 
" style="fill:none;stroke:#ff7f0e;stroke-linecap:square;stroke-width:1.5;"/>
   </g>
   <g id="line2d_36">
    <path clip-path="url(#pb8c0cbdd3b)" d="M 138.436364 311.157621 
L 156.882645 324.980986 
L 175.328926 329.862874 
L 193.775207 334.767632 
L 212.221488 338.181295 
L 230.667769 340.678739 
L 249.11405 345.447399 
L 267.560331 343.384751 
L 286.006612 349.249798 
L 304.452893 347.497519 
L 322.899174 351.91065 
L 341.345455 346.616535 
L 359.791736 350.968565 
L 378.238017 352.593326 
L 396.684298 352.079929 
L 415.130579 353.708613 
L 433.57686 349.428798 
L 452.02314 354.067312 
L 470.469421 355.106722 
L 488.915702 354.909151 
L 507.361983 350.223103 
L 525.808264 351.088279 
L 544.254545 350.080714 
L 562.700826 349.557013 
L 581.147107 354.014647 
L 599.593388 356.887335 
L 618.039669 349.086611 
L 636.48595 348.700159 
L 654.932231 350.38207 
L 673.378512 353.083236 
L 691.824793 358.207026 
L 710.271074 355.658971 
L 728.717355 355.216484 
L 747.163636 352.239502 
" style="fill:none;stroke:#2ca02c;stroke-linecap:square;stroke-width:1.5;"/>
   </g>
   <g id="line2d_37">
    <path clip-path="url(#pb8c0cbdd3b)" d="M 138.436364 303.587216 
L 156.882645 324.129176 
L 175.328926 325.098981 
L 193.775207 335.18522 
L 212.221488 336.476225 
L 230.667769 341.903092 
L 249.11405 346.889339 
L 267.560331 344.745501 
L 286.006612 341.636411 
L 304.452893 345.832654 
L 322.899174 349.798547 
L 341.345455 351.028261 
L 359.791736 353.584873 
L 378.238017 347.889219 
L 396.684298 353.334748 
L 415.130579 349.937859 
L 433.57686 350.277296 
L 452.02314 349.340687 
L 470.469421 352.138941 
L 488.915702 354.209052 
L 507.361983 359.233696 
L 525.808264 355.195692 
L 544.254545 357.367128 
L 562.700826 357.700738 
L 581.147107 356.715342 
L 599.593388 356.58317 
L 618.039669 355.887024 
L 636.48595 358.449954 
L 654.932231 351.064455 
L 673.378512 352.617923 
L 691.824793 351.553409 
L 710.271074 354.229273 
L 728.717355 355.283576 
L 747.163636 358.607495 
" style="fill:none;stroke:#d62728;stroke-linecap:square;stroke-width:1.5;"/>
   </g>
   <g id="line2d_38">
    <path clip-path="url(#pb8c0cbdd3b)" d="M 138.436364 283.225464 
L 156.882645 305.403623 
L 175.328926 319.198276 
L 193.775207 328.882411 
L 212.221488 336.675457 
L 230.667769 338.641471 
L 249.11405 340.183067 
L 267.560331 346.04286 
L 286.006612 343.96559 
L 304.452893 346.774581 
L 322.899174 346.910431 
L 341.345455 348.752095 
L 359.791736 348.71159 
L 378.238017 351.399936 
L 396.684298 352.381053 
L 415.130579 351.91954 
L 433.57686 355.727904 
L 452.02314 354.239605 
L 470.469421 352.886354 
L 488.915702 356.547367 
L 507.361983 357.90598 
L 525.808264 357.005162 
L 544.254545 355.25159 
L 562.700826 356.898139 
L 581.147107 362.852258 
L 599.593388 355.430028 
L 618.039669 361.126616 
L 636.48595 357.358812 
L 654.932231 358.208062 
L 673.378512 360.125534 
L 691.824793 358.138096 
L 710.271074 363.174545 
L 728.717355 359.509173 
L 747.163636 355.376605 
" style="fill:none;stroke:#9467bd;stroke-linecap:square;stroke-width:1.5;"/>
   </g>
   <g id="line2d_39">
    <path clip-path="url(#pb8c0cbdd3b)" d="M 138.436364 281.448276 
L 156.882645 308.837264 
L 175.328926 317.814511 
L 193.775207 326.057015 
L 212.221488 331.798734 
L 230.667769 337.234663 
L 249.11405 341.326506 
L 267.560331 342.958907 
L 286.006612 348.507571 
L 304.452893 349.027695 
L 322.899174 343.906382 
L 341.345455 348.709488 
L 359.791736 352.399116 
L 378.238017 352.589119 
L 396.684298 355.446037 
L 415.130579 352.783246 
L 433.57686 352.857589 
L 452.02314 353.665859 
L 470.469421 353.018751 
L 488.915702 360.123433 
L 507.361983 357.524136 
L 525.808264 360.109896 
L 544.254545 354.600761 
L 562.700826 360.473926 
L 581.147107 359.610259 
L 599.593388 360.39702 
L 618.039669 360.302043 
L 636.48595 359.462077 
L 654.932231 359.656406 
L 673.378512 359.37124 
L 691.824793 361.832682 
L 710.271074 358.497617 
L 728.717355 360.024027 
L 747.163636 359.950179 
" style="fill:none;stroke:#8c564b;stroke-linecap:square;stroke-width:1.5;"/>
   </g>
   <g id="line2d_40">
    <path clip-path="url(#pb8c0cbdd3b)" d="M 138.436364 255.14646 
L 156.882645 284.660787 
L 175.328926 306.498527 
L 193.775207 314.840481 
L 212.221488 319.053981 
L 230.667769 330.289149 
L 249.11405 327.211058 
L 267.560331 334.198883 
L 286.006612 334.622263 
L 304.452893 335.732629 
L 322.899174 340.202444 
L 341.345455 343.044371 
L 359.791736 347.352371 
L 378.238017 348.629136 
L 396.684298 350.485697 
L 415.130579 345.871588 
L 433.57686 349.595762 
L 452.02314 351.150881 
L 470.469421 352.012569 
L 488.915702 356.059421 
L 507.361983 350.905935 
L 525.808264 355.207014 
L 544.254545 356.144218 
L 562.700826 357.020033 
L 581.147107 357.259747 
L 599.593388 358.753721 
L 618.039669 360.570237 
L 636.48595 358.340457 
L 654.932231 359.849846 
L 673.378512 359.07554 
L 691.824793 360.917906 
L 710.271074 360.301665 
L 728.717355 361.067856 
L 747.163636 360.848773 
" style="fill:none;stroke:#d3d3d3;stroke-linecap:square;stroke-width:1.5;"/>
   </g>
   <g id="line2d_41">
    <path clip-path="url(#pb8c0cbdd3b)" d="M 138.436364 224.516946 
L 156.882645 259.332775 
L 175.328926 277.411079 
L 193.775207 292.71755 
L 212.221488 305.220871 
L 230.667769 315.900632 
L 249.11405 317.581529 
L 267.560331 316.273592 
L 286.006612 320.234803 
L 304.452893 322.576813 
L 322.899174 325.908135 
L 341.345455 329.366735 
L 359.791736 330.472622 
L 378.238017 331.343822 
L 396.684298 334.989733 
L 415.130579 335.245331 
L 433.57686 335.727081 
L 452.02314 340.810257 
L 470.469421 341.700976 
L 488.915702 344.618838 
L 507.361983 344.461396 
L 525.808264 344.66578 
L 544.254545 341.347916 
L 562.700826 345.316493 
L 581.147107 343.907766 
L 599.593388 348.864984 
L 618.039669 350.006826 
L 636.48595 352.514575 
L 654.932231 352.72962 
L 673.378512 350.986946 
L 691.824793 353.714439 
L 710.271074 356.400332 
L 728.717355 353.45342 
L 747.163636 351.938223 
" style="fill:none;stroke:#e377c2;stroke-linecap:square;stroke-width:1.5;"/>
   </g>
   <g id="line2d_42">
    <path clip-path="url(#pb8c0cbdd3b)" d="M 138.436364 204.105623 
L 156.882645 230.64145 
L 175.328926 249.60569 
L 193.775207 263.914242 
L 212.221488 277.646118 
L 230.667769 288.771724 
L 249.11405 297.163491 
L 267.560331 303.644259 
L 286.006612 306.993145 
L 304.452893 311.624812 
L 322.899174 316.281288 
L 341.345455 321.885682 
L 359.791736 323.797878 
L 378.238017 325.782087 
L 396.684298 327.715172 
L 415.130579 326.287114 
L 433.57686 327.29028 
L 452.02314 330.027209 
L 470.469421 330.465742 
L 488.915702 333.158744 
L 507.361983 334.272309 
L 525.808264 333.227829 
L 544.254545 334.54542 
L 562.700826 334.82905 
L 581.147107 335.448842 
L 599.593388 335.655596 
L 618.039669 334.053292 
L 636.48595 339.04288 
L 654.932231 337.931109 
L 673.378512 338.998376 
L 691.824793 338.715077 
L 710.271074 340.162921 
L 728.717355 343.35317 
L 747.163636 342.824026 
" style="fill:none;stroke:#d3d3d3;stroke-linecap:square;stroke-width:1.5;"/>
   </g>
   <g id="line2d_43">
    <path clip-path="url(#pb8c0cbdd3b)" d="M 138.436364 207.901157 
L 156.882645 240.400115 
L 175.328926 254.785894 
L 193.775207 265.613451 
L 212.221488 276.807287 
L 230.667769 282.864019 
L 249.11405 288.807371 
L 267.560331 291.958346 
L 286.006612 298.001625 
L 304.452893 301.689727 
L 322.899174 307.305748 
L 341.345455 308.649513 
L 359.791736 310.055772 
L 378.238017 313.868579 
L 396.684298 318.86535 
L 415.130579 316.992678 
L 433.57686 319.846956 
L 452.02314 323.511945 
L 470.469421 326.637835 
L 488.915702 325.221629 
L 507.361983 329.309121 
L 525.808264 329.197248 
L 544.254545 330.215051 
L 562.700826 330.565481 
L 581.147107 332.437521 
L 599.593388 334.055098 
L 618.039669 334.186152 
L 636.48595 334.209634 
L 654.932231 337.9891 
L 673.378512 340.226835 
L 691.824793 338.989505 
L 710.271074 341.925398 
L 728.717355 341.640227 
L 747.163636 339.533408 
" style="fill:none;stroke:#d3d3d3;stroke-linecap:square;stroke-width:1.5;"/>
   </g>
   <g id="line2d_44">
    <path clip-path="url(#pb8c0cbdd3b)" d="M 138.436364 155.273806 
L 156.882645 199.600547 
L 175.328926 226.6436 
L 193.775207 248.212272 
L 212.221488 261.653387 
L 230.667769 269.8998 
L 249.11405 275.876008 
L 267.560331 282.565894 
L 286.006612 286.300546 
L 304.452893 290.09459 
L 322.899174 293.546055 
L 341.345455 296.306164 
L 359.791736 297.577622 
L 378.238017 301.601347 
L 396.684298 303.245677 
L 415.130579 305.592099 
L 433.57686 305.135194 
L 452.02314 305.988715 
L 470.469421 309.213468 
L 488.915702 309.139303 
L 507.361983 313.541923 
L 525.808264 313.43691 
L 544.254545 314.913691 
L 562.700826 311.643136 
L 581.147107 316.637666 
L 599.593388 316.139625 
L 618.039669 318.766843 
L 636.48595 319.138667 
L 654.932231 322.323286 
L 673.378512 319.48346 
L 691.824793 324.609288 
L 710.271074 322.517458 
L 728.717355 322.963708 
L 747.163636 324.629458 
" style="fill:none;stroke:#d3d3d3;stroke-linecap:square;stroke-width:1.5;"/>
   </g>
   <g id="line2d_45">
    <path clip-path="url(#pb8c0cbdd3b)" d="M 138.436364 138.432217 
L 156.882645 185.249755 
L 175.328926 212.615319 
L 193.775207 231.445322 
L 212.221488 243.799101 
L 230.667769 251.130989 
L 249.11405 257.318793 
L 267.560331 262.824458 
L 286.006612 265.080747 
L 304.452893 269.300164 
L 322.899174 271.602272 
L 341.345455 273.894685 
L 359.791736 273.734954 
L 378.238017 276.079568 
L 396.684298 278.464359 
L 415.130579 279.65853 
L 433.57686 280.56844 
L 452.02314 281.223776 
L 470.469421 285.674608 
L 488.915702 284.105828 
L 507.361983 285.360656 
L 525.808264 284.762238 
L 544.254545 285.621053 
L 562.700826 286.710551 
L 581.147107 286.8271 
L 599.593388 290.228091 
L 618.039669 290.149573 
L 636.48595 293.637912 
L 654.932231 293.866317 
L 673.378512 293.260436 
L 691.824793 294.166021 
L 710.271074 295.689593 
L 728.717355 295.99271 
L 747.163636 298.372348 
" style="fill:none;stroke:#d3d3d3;stroke-linecap:square;stroke-width:1.5;"/>
   </g>
   <g id="line2d_46">
    <path clip-path="url(#pb8c0cbdd3b)" d="M 138.436364 66.665455 
L 156.882645 133.972894 
L 175.328926 173.661463 
L 193.775207 196.067281 
L 212.221488 209.352365 
L 230.667769 219.936818 
L 249.11405 227.973578 
L 267.560331 230.581698 
L 286.006612 234.263066 
L 304.452893 238.227277 
L 322.899174 242.356162 
L 341.345455 245.20199 
L 359.791736 250.551529 
L 378.238017 255.429093 
L 396.684298 257.821515 
L 415.130579 260.753905 
L 433.57686 262.251358 
L 452.02314 265.113806 
L 470.469421 266.926806 
L 488.915702 267.650587 
L 507.361983 269.518013 
L 525.808264 273.589402 
L 544.254545 275.269803 
L 562.700826 278.062942 
L 581.147107 278.485335 
L 599.593388 279.205652 
L 618.039669 282.43266 
L 636.48595 284.161999 
L 654.932231 285.50282 
L 673.378512 285.985113 
L 691.824793 287.146887 
L 710.271074 286.208463 
L 728.717355 289.300031 
L 747.163636 290.2312 
" style="fill:none;stroke:#d3d3d3;stroke-linecap:square;stroke-width:1.5;"/>
   </g>
   <g id="patch_3">
    <path d="M 108 378 
L 108 51.84 
" style="fill:none;stroke:#000000;stroke-linecap:square;stroke-linejoin:miter;stroke-width:0.8;"/>
   </g>
   <g id="patch_4">
    <path d="M 777.6 378 
L 777.6 51.84 
" style="fill:none;stroke:#000000;stroke-linecap:square;stroke-linejoin:miter;stroke-width:0.8;"/>
   </g>
   <g id="patch_5">
    <path d="M 108 378 
L 777.6 378 
" style="fill:none;stroke:#000000;stroke-linecap:square;stroke-linejoin:miter;stroke-width:0.8;"/>
   </g>
   <g id="patch_6">
    <path d="M 108 51.84 
L 777.6 51.84 
" style="fill:none;stroke:#000000;stroke-linecap:square;stroke-linejoin:miter;stroke-width:0.8;"/>
   </g>
   <g id="text_19">
    <!-- Validation Error over 35 epochs -->
    <defs>
     <path d="M 2.984375 54.6875 
L 12.5 54.6875 
L 29.59375 8.796875 
L 46.6875 54.6875 
L 56.203125 54.6875 
L 35.6875 0 
L 23.484375 0 
z
" id="DejaVuSans-76"/>
     <path d="M 44.28125 53.078125 
L 44.28125 44.578125 
Q 40.484375 46.53125 36.375 47.5 
Q 32.28125 48.484375 27.875 48.484375 
Q 21.1875 48.484375 17.84375 46.4375 
Q 14.5 44.390625 14.5 40.28125 
Q 14.5 37.15625 16.890625 35.375 
Q 19.28125 33.59375 26.515625 31.984375 
L 29.59375 31.296875 
Q 39.15625 29.25 43.1875 25.515625 
Q 47.21875 21.78125 47.21875 15.09375 
Q 47.21875 7.46875 41.1875 3.015625 
Q 35.15625 -1.421875 24.609375 -1.421875 
Q 20.21875 -1.421875 15.453125 -0.5625 
Q 10.6875 0.296875 5.421875 2 
L 5.421875 11.28125 
Q 10.40625 8.6875 15.234375 7.390625 
Q 20.0625 6.109375 24.8125 6.109375 
Q 31.15625 6.109375 34.5625 8.28125 
Q 37.984375 10.453125 37.984375 14.40625 
Q 37.984375 18.0625 35.515625 20.015625 
Q 33.0625 21.96875 24.703125 23.78125 
L 21.578125 24.515625 
Q 13.234375 26.265625 9.515625 29.90625 
Q 5.8125 33.546875 5.8125 39.890625 
Q 5.8125 47.609375 11.28125 51.796875 
Q 16.75 56 26.8125 56 
Q 31.78125 56 36.171875 55.265625 
Q 40.578125 54.546875 44.28125 53.078125 
" id="DejaVuSans-73"/>
    </defs>
    <g transform="translate(347.810625 45.84)scale(0.12 -0.12)">
     <use xlink:href="#DejaVuSans-56"/>
     <use x="68.298828" xlink:href="#DejaVuSans-61"/>
     <use x="129.578125" xlink:href="#DejaVuSans-6c"/>
     <use x="157.361328" xlink:href="#DejaVuSans-69"/>
     <use x="185.144531" xlink:href="#DejaVuSans-64"/>
     <use x="248.621094" xlink:href="#DejaVuSans-61"/>
     <use x="309.900391" xlink:href="#DejaVuSans-74"/>
     <use x="349.109375" xlink:href="#DejaVuSans-69"/>
     <use x="376.892578" xlink:href="#DejaVuSans-6f"/>
     <use x="438.074219" xlink:href="#DejaVuSans-6e"/>
     <use x="501.453125" xlink:href="#DejaVuSans-20"/>
     <use x="533.240234" xlink:href="#DejaVuSans-45"/>
     <use x="596.423828" xlink:href="#DejaVuSans-72"/>
     <use x="637.521484" xlink:href="#DejaVuSans-72"/>
     <use x="678.603516" xlink:href="#DejaVuSans-6f"/>
     <use x="739.785156" xlink:href="#DejaVuSans-72"/>
     <use x="780.898438" xlink:href="#DejaVuSans-20"/>
     <use x="812.685547" xlink:href="#DejaVuSans-6f"/>
     <use x="873.867188" xlink:href="#DejaVuSans-76"/>
     <use x="933.046875" xlink:href="#DejaVuSans-65"/>
     <use x="994.570312" xlink:href="#DejaVuSans-72"/>
     <use x="1035.683594" xlink:href="#DejaVuSans-20"/>
     <use x="1067.470703" xlink:href="#DejaVuSans-33"/>
     <use x="1131.09375" xlink:href="#DejaVuSans-35"/>
     <use x="1194.716797" xlink:href="#DejaVuSans-20"/>
     <use x="1226.503906" xlink:href="#DejaVuSans-65"/>
     <use x="1288.027344" xlink:href="#DejaVuSans-70"/>
     <use x="1351.503906" xlink:href="#DejaVuSans-6f"/>
     <use x="1412.685547" xlink:href="#DejaVuSans-63"/>
     <use x="1467.666016" xlink:href="#DejaVuSans-68"/>
     <use x="1531.044922" xlink:href="#DejaVuSans-73"/>
    </g>
   </g>
   <g id="legend_1">
    <g id="patch_7">
     <path d="M 670.2625 162.586875 
L 770.6 162.586875 
Q 772.6 162.586875 772.6 160.586875 
L 772.6 58.84 
Q 772.6 56.84 770.6 56.84 
L 670.2625 56.84 
Q 668.2625 56.84 668.2625 58.84 
L 668.2625 160.586875 
Q 668.2625 162.586875 670.2625 162.586875 
z
" style="fill:#ffffff;opacity:0.8;stroke:#cccccc;stroke-linejoin:miter;"/>
    </g>
    <g id="line2d_47">
     <path d="M 672.2625 64.938437 
L 692.2625 64.938437 
" style="fill:none;stroke:#1f77b4;stroke-linecap:square;stroke-width:1.5;"/>
    </g>
    <g id="line2d_48"/>
    <g id="text_20">
     <!-- num steps 3 -->
     <g transform="translate(700.2625 68.438437)scale(0.1 -0.1)">
      <use xlink:href="#DejaVuSans-6e"/>
      <use x="63.378906" xlink:href="#DejaVuSans-75"/>
      <use x="126.757812" xlink:href="#DejaVuSans-6d"/>
      <use x="224.169922" xlink:href="#DejaVuSans-20"/>
      <use x="255.957031" xlink:href="#DejaVuSans-73"/>
      <use x="308.056641" xlink:href="#DejaVuSans-74"/>
      <use x="347.265625" xlink:href="#DejaVuSans-65"/>
      <use x="408.789062" xlink:href="#DejaVuSans-70"/>
      <use x="472.265625" xlink:href="#DejaVuSans-73"/>
      <use x="524.365234" xlink:href="#DejaVuSans-20"/>
      <use x="556.152344" xlink:href="#DejaVuSans-33"/>
     </g>
    </g>
    <g id="line2d_49">
     <path d="M 672.2625 79.616562 
L 692.2625 79.616562 
" style="fill:none;stroke:#ff7f0e;stroke-linecap:square;stroke-width:1.5;"/>
    </g>
    <g id="line2d_50"/>
    <g id="text_21">
     <!-- num steps 4 -->
     <defs>
      <path d="M 37.796875 64.3125 
L 12.890625 25.390625 
L 37.796875 25.390625 
z
M 35.203125 72.90625 
L 47.609375 72.90625 
L 47.609375 25.390625 
L 58.015625 25.390625 
L 58.015625 17.1875 
L 47.609375 17.1875 
L 47.609375 0 
L 37.796875 0 
L 37.796875 17.1875 
L 4.890625 17.1875 
L 4.890625 26.703125 
z
" id="DejaVuSans-34"/>
     </defs>
     <g transform="translate(700.2625 83.116562)scale(0.1 -0.1)">
      <use xlink:href="#DejaVuSans-6e"/>
      <use x="63.378906" xlink:href="#DejaVuSans-75"/>
      <use x="126.757812" xlink:href="#DejaVuSans-6d"/>
      <use x="224.169922" xlink:href="#DejaVuSans-20"/>
      <use x="255.957031" xlink:href="#DejaVuSans-73"/>
      <use x="308.056641" xlink:href="#DejaVuSans-74"/>
      <use x="347.265625" xlink:href="#DejaVuSans-65"/>
      <use x="408.789062" xlink:href="#DejaVuSans-70"/>
      <use x="472.265625" xlink:href="#DejaVuSans-73"/>
      <use x="524.365234" xlink:href="#DejaVuSans-20"/>
      <use x="556.152344" xlink:href="#DejaVuSans-34"/>
     </g>
    </g>
    <g id="line2d_51">
     <path d="M 672.2625 94.294687 
L 692.2625 94.294687 
" style="fill:none;stroke:#2ca02c;stroke-linecap:square;stroke-width:1.5;"/>
    </g>
    <g id="line2d_52"/>
    <g id="text_22">
     <!-- num steps 5 -->
     <g transform="translate(700.2625 97.794687)scale(0.1 -0.1)">
      <use xlink:href="#DejaVuSans-6e"/>
      <use x="63.378906" xlink:href="#DejaVuSans-75"/>
      <use x="126.757812" xlink:href="#DejaVuSans-6d"/>
      <use x="224.169922" xlink:href="#DejaVuSans-20"/>
      <use x="255.957031" xlink:href="#DejaVuSans-73"/>
      <use x="308.056641" xlink:href="#DejaVuSans-74"/>
      <use x="347.265625" xlink:href="#DejaVuSans-65"/>
      <use x="408.789062" xlink:href="#DejaVuSans-70"/>
      <use x="472.265625" xlink:href="#DejaVuSans-73"/>
      <use x="524.365234" xlink:href="#DejaVuSans-20"/>
      <use x="556.152344" xlink:href="#DejaVuSans-35"/>
     </g>
    </g>
    <g id="line2d_53">
     <path d="M 672.2625 108.972812 
L 692.2625 108.972812 
" style="fill:none;stroke:#d62728;stroke-linecap:square;stroke-width:1.5;"/>
    </g>
    <g id="line2d_54"/>
    <g id="text_23">
     <!-- num steps 6 -->
     <defs>
      <path d="M 33.015625 40.375 
Q 26.375 40.375 22.484375 35.828125 
Q 18.609375 31.296875 18.609375 23.390625 
Q 18.609375 15.53125 22.484375 10.953125 
Q 26.375 6.390625 33.015625 6.390625 
Q 39.65625 6.390625 43.53125 10.953125 
Q 47.40625 15.53125 47.40625 23.390625 
Q 47.40625 31.296875 43.53125 35.828125 
Q 39.65625 40.375 33.015625 40.375 
M 52.59375 71.296875 
L 52.59375 62.3125 
Q 48.875 64.0625 45.09375 64.984375 
Q 41.3125 65.921875 37.59375 65.921875 
Q 27.828125 65.921875 22.671875 59.328125 
Q 17.53125 52.734375 16.796875 39.40625 
Q 19.671875 43.65625 24.015625 45.921875 
Q 28.375 48.1875 33.59375 48.1875 
Q 44.578125 48.1875 50.953125 41.515625 
Q 57.328125 34.859375 57.328125 23.390625 
Q 57.328125 12.15625 50.6875 5.359375 
Q 44.046875 -1.421875 33.015625 -1.421875 
Q 20.359375 -1.421875 13.671875 8.265625 
Q 6.984375 17.96875 6.984375 36.375 
Q 6.984375 53.65625 15.1875 63.9375 
Q 23.390625 74.21875 37.203125 74.21875 
Q 40.921875 74.21875 44.703125 73.484375 
Q 48.484375 72.75 52.59375 71.296875 
" id="DejaVuSans-36"/>
     </defs>
     <g transform="translate(700.2625 112.472812)scale(0.1 -0.1)">
      <use xlink:href="#DejaVuSans-6e"/>
      <use x="63.378906" xlink:href="#DejaVuSans-75"/>
      <use x="126.757812" xlink:href="#DejaVuSans-6d"/>
      <use x="224.169922" xlink:href="#DejaVuSans-20"/>
      <use x="255.957031" xlink:href="#DejaVuSans-73"/>
      <use x="308.056641" xlink:href="#DejaVuSans-74"/>
      <use x="347.265625" xlink:href="#DejaVuSans-65"/>
      <use x="408.789062" xlink:href="#DejaVuSans-70"/>
      <use x="472.265625" xlink:href="#DejaVuSans-73"/>
      <use x="524.365234" xlink:href="#DejaVuSans-20"/>
      <use x="556.152344" xlink:href="#DejaVuSans-36"/>
     </g>
    </g>
    <g id="line2d_55">
     <path d="M 672.2625 123.650937 
L 692.2625 123.650937 
" style="fill:none;stroke:#9467bd;stroke-linecap:square;stroke-width:1.5;"/>
    </g>
    <g id="line2d_56"/>
    <g id="text_24">
     <!-- num steps 8 -->
     <g transform="translate(700.2625 127.150937)scale(0.1 -0.1)">
      <use xlink:href="#DejaVuSans-6e"/>
      <use x="63.378906" xlink:href="#DejaVuSans-75"/>
      <use x="126.757812" xlink:href="#DejaVuSans-6d"/>
      <use x="224.169922" xlink:href="#DejaVuSans-20"/>
      <use x="255.957031" xlink:href="#DejaVuSans-73"/>
      <use x="308.056641" xlink:href="#DejaVuSans-74"/>
      <use x="347.265625" xlink:href="#DejaVuSans-65"/>
      <use x="408.789062" xlink:href="#DejaVuSans-70"/>
      <use x="472.265625" xlink:href="#DejaVuSans-73"/>
      <use x="524.365234" xlink:href="#DejaVuSans-20"/>
      <use x="556.152344" xlink:href="#DejaVuSans-38"/>
     </g>
    </g>
    <g id="line2d_57">
     <path d="M 672.2625 138.329062 
L 692.2625 138.329062 
" style="fill:none;stroke:#8c564b;stroke-linecap:square;stroke-width:1.5;"/>
    </g>
    <g id="line2d_58"/>
    <g id="text_25">
     <!-- num steps 10 -->
     <g transform="translate(700.2625 141.829062)scale(0.1 -0.1)">
      <use xlink:href="#DejaVuSans-6e"/>
      <use x="63.378906" xlink:href="#DejaVuSans-75"/>
      <use x="126.757812" xlink:href="#DejaVuSans-6d"/>
      <use x="224.169922" xlink:href="#DejaVuSans-20"/>
      <use x="255.957031" xlink:href="#DejaVuSans-73"/>
      <use x="308.056641" xlink:href="#DejaVuSans-74"/>
      <use x="347.265625" xlink:href="#DejaVuSans-65"/>
      <use x="408.789062" xlink:href="#DejaVuSans-70"/>
      <use x="472.265625" xlink:href="#DejaVuSans-73"/>
      <use x="524.365234" xlink:href="#DejaVuSans-20"/>
      <use x="556.152344" xlink:href="#DejaVuSans-31"/>
      <use x="619.775391" xlink:href="#DejaVuSans-30"/>
     </g>
    </g>
    <g id="line2d_59">
     <path d="M 672.2625 153.007187 
L 692.2625 153.007187 
" style="fill:none;stroke:#e377c2;stroke-linecap:square;stroke-width:1.5;"/>
    </g>
    <g id="line2d_60"/>
    <g id="text_26">
     <!-- num steps 15 -->
     <g transform="translate(700.2625 156.507187)scale(0.1 -0.1)">
      <use xlink:href="#DejaVuSans-6e"/>
      <use x="63.378906" xlink:href="#DejaVuSans-75"/>
      <use x="126.757812" xlink:href="#DejaVuSans-6d"/>
      <use x="224.169922" xlink:href="#DejaVuSans-20"/>
      <use x="255.957031" xlink:href="#DejaVuSans-73"/>
      <use x="308.056641" xlink:href="#DejaVuSans-74"/>
      <use x="347.265625" xlink:href="#DejaVuSans-65"/>
      <use x="408.789062" xlink:href="#DejaVuSans-70"/>
      <use x="472.265625" xlink:href="#DejaVuSans-73"/>
      <use x="524.365234" xlink:href="#DejaVuSans-20"/>
      <use x="556.152344" xlink:href="#DejaVuSans-31"/>
      <use x="619.775391" xlink:href="#DejaVuSans-35"/>
     </g>
    </g>
   </g>
  </g>
 </g>
 <defs>
  <clipPath id="pb8c0cbdd3b">
   <rect height="326.16" width="669.6" x="108" y="51.84"/>
  </clipPath>
 </defs>
</svg>
