<?xml version="1.0" encoding="utf-8" standalone="no"?>
<!DOCTYPE svg PUBLIC "-//W3C//DTD SVG 1.1//EN"
  "http://www.w3.org/Graphics/SVG/1.1/DTD/svg11.dtd">
<!-- Created with matplotlib (http://matplotlib.org/) -->
<svg height="432pt" version="1.1" viewBox="0 0 864 432" width="864pt" xmlns="http://www.w3.org/2000/svg" xmlns:xlink="http://www.w3.org/1999/xlink">
 <defs>
  <style type="text/css">
*{stroke-linecap:butt;stroke-linejoin:round;}
  </style>
 </defs>
 <g id="figure_1">
  <g id="patch_1">
   <path d="M 0 432 
L 864 432 
L 864 0 
L 0 0 
z
" style="fill:#ffffff;"/>
  </g>
  <g id="axes_1">
   <g id="patch_2">
    <path d="M 108 378 
L 777.6 378 
L 777.6 51.84 
L 108 51.84 
z
" style="fill:#ffffff;"/>
   </g>
   <g id="matplotlib.axis_1">
    <g id="xtick_1">
     <g id="line2d_1">
      <path clip-path="url(#p8a20459e0a)" d="M 111.96996 378 
L 111.96996 51.84 
" style="fill:none;stroke:#b0b0b0;stroke-linecap:square;stroke-width:0.8;"/>
     </g>
     <g id="line2d_2">
      <defs>
       <path d="M 0 0 
L 0 3.5 
" id="m503f2a83b5" style="stroke:#000000;stroke-width:0.8;"/>
      </defs>
      <g>
       <use style="stroke:#000000;stroke-width:0.8;" x="111.96996" xlink:href="#m503f2a83b5" y="378"/>
      </g>
     </g>
     <g id="text_1">
      <!-- 0 -->
      <defs>
       <path d="M 31.78125 66.40625 
Q 24.171875 66.40625 20.328125 58.90625 
Q 16.5 51.421875 16.5 36.375 
Q 16.5 21.390625 20.328125 13.890625 
Q 24.171875 6.390625 31.78125 6.390625 
Q 39.453125 6.390625 43.28125 13.890625 
Q 47.125 21.390625 47.125 36.375 
Q 47.125 51.421875 43.28125 58.90625 
Q 39.453125 66.40625 31.78125 66.40625 
M 31.78125 74.21875 
Q 44.046875 74.21875 50.515625 64.515625 
Q 56.984375 54.828125 56.984375 36.375 
Q 56.984375 17.96875 50.515625 8.265625 
Q 44.046875 -1.421875 31.78125 -1.421875 
Q 19.53125 -1.421875 13.0625 8.265625 
Q 6.59375 17.96875 6.59375 36.375 
Q 6.59375 54.828125 13.0625 64.515625 
Q 19.53125 74.21875 31.78125 74.21875 
" id="DejaVuSans-30"/>
      </defs>
      <g transform="translate(108.78871 392.598437)scale(0.1 -0.1)">
       <use xlink:href="#DejaVuSans-30"/>
      </g>
     </g>
    </g>
    <g id="xtick_2">
     <g id="line2d_3">
      <path clip-path="url(#p8a20459e0a)" d="M 244.301976 378 
L 244.301976 51.84 
" style="fill:none;stroke:#b0b0b0;stroke-linecap:square;stroke-width:0.8;"/>
     </g>
     <g id="line2d_4">
      <g>
       <use style="stroke:#000000;stroke-width:0.8;" x="244.301976" xlink:href="#m503f2a83b5" y="378"/>
      </g>
     </g>
     <g id="text_2">
      <!-- 5 -->
      <defs>
       <path d="M 10.796875 72.90625 
L 49.515625 72.90625 
L 49.515625 64.59375 
L 19.828125 64.59375 
L 19.828125 46.734375 
Q 21.96875 47.46875 24.109375 47.828125 
Q 26.265625 48.1875 28.421875 48.1875 
Q 40.625 48.1875 47.75 41.5 
Q 54.890625 34.8125 54.890625 23.390625 
Q 54.890625 11.625 47.5625 5.09375 
Q 40.234375 -1.421875 26.90625 -1.421875 
Q 22.3125 -1.421875 17.546875 -0.640625 
Q 12.796875 0.140625 7.71875 1.703125 
L 7.71875 11.625 
Q 12.109375 9.234375 16.796875 8.0625 
Q 21.484375 6.890625 26.703125 6.890625 
Q 35.15625 6.890625 40.078125 11.328125 
Q 45.015625 15.765625 45.015625 23.390625 
Q 45.015625 31 40.078125 35.4375 
Q 35.15625 39.890625 26.703125 39.890625 
Q 22.75 39.890625 18.8125 39.015625 
Q 14.890625 38.140625 10.796875 36.28125 
z
" id="DejaVuSans-35"/>
      </defs>
      <g transform="translate(241.120726 392.598437)scale(0.1 -0.1)">
       <use xlink:href="#DejaVuSans-35"/>
      </g>
     </g>
    </g>
    <g id="xtick_3">
     <g id="line2d_5">
      <path clip-path="url(#p8a20459e0a)" d="M 376.633992 378 
L 376.633992 51.84 
" style="fill:none;stroke:#b0b0b0;stroke-linecap:square;stroke-width:0.8;"/>
     </g>
     <g id="line2d_6">
      <g>
       <use style="stroke:#000000;stroke-width:0.8;" x="376.633992" xlink:href="#m503f2a83b5" y="378"/>
      </g>
     </g>
     <g id="text_3">
      <!-- 10 -->
      <defs>
       <path d="M 12.40625 8.296875 
L 28.515625 8.296875 
L 28.515625 63.921875 
L 10.984375 60.40625 
L 10.984375 69.390625 
L 28.421875 72.90625 
L 38.28125 72.90625 
L 38.28125 8.296875 
L 54.390625 8.296875 
L 54.390625 0 
L 12.40625 0 
z
" id="DejaVuSans-31"/>
      </defs>
      <g transform="translate(370.271492 392.598437)scale(0.1 -0.1)">
       <use xlink:href="#DejaVuSans-31"/>
       <use x="63.623047" xlink:href="#DejaVuSans-30"/>
      </g>
     </g>
    </g>
    <g id="xtick_4">
     <g id="line2d_7">
      <path clip-path="url(#p8a20459e0a)" d="M 508.966008 378 
L 508.966008 51.84 
" style="fill:none;stroke:#b0b0b0;stroke-linecap:square;stroke-width:0.8;"/>
     </g>
     <g id="line2d_8">
      <g>
       <use style="stroke:#000000;stroke-width:0.8;" x="508.966008" xlink:href="#m503f2a83b5" y="378"/>
      </g>
     </g>
     <g id="text_4">
      <!-- 15 -->
      <g transform="translate(502.603508 392.598437)scale(0.1 -0.1)">
       <use xlink:href="#DejaVuSans-31"/>
       <use x="63.623047" xlink:href="#DejaVuSans-35"/>
      </g>
     </g>
    </g>
    <g id="xtick_5">
     <g id="line2d_9">
      <path clip-path="url(#p8a20459e0a)" d="M 641.298024 378 
L 641.298024 51.84 
" style="fill:none;stroke:#b0b0b0;stroke-linecap:square;stroke-width:0.8;"/>
     </g>
     <g id="line2d_10">
      <g>
       <use style="stroke:#000000;stroke-width:0.8;" x="641.298024" xlink:href="#m503f2a83b5" y="378"/>
      </g>
     </g>
     <g id="text_5">
      <!-- 20 -->
      <defs>
       <path d="M 19.1875 8.296875 
L 53.609375 8.296875 
L 53.609375 0 
L 7.328125 0 
L 7.328125 8.296875 
Q 12.9375 14.109375 22.625 23.890625 
Q 32.328125 33.6875 34.8125 36.53125 
Q 39.546875 41.84375 41.421875 45.53125 
Q 43.3125 49.21875 43.3125 52.78125 
Q 43.3125 58.59375 39.234375 62.25 
Q 35.15625 65.921875 28.609375 65.921875 
Q 23.96875 65.921875 18.8125 64.3125 
Q 13.671875 62.703125 7.8125 59.421875 
L 7.8125 69.390625 
Q 13.765625 71.78125 18.9375 73 
Q 24.125 74.21875 28.421875 74.21875 
Q 39.75 74.21875 46.484375 68.546875 
Q 53.21875 62.890625 53.21875 53.421875 
Q 53.21875 48.921875 51.53125 44.890625 
Q 49.859375 40.875 45.40625 35.40625 
Q 44.1875 33.984375 37.640625 27.21875 
Q 31.109375 20.453125 19.1875 8.296875 
" id="DejaVuSans-32"/>
      </defs>
      <g transform="translate(634.935524 392.598437)scale(0.1 -0.1)">
       <use xlink:href="#DejaVuSans-32"/>
       <use x="63.623047" xlink:href="#DejaVuSans-30"/>
      </g>
     </g>
    </g>
    <g id="xtick_6">
     <g id="line2d_11">
      <path clip-path="url(#p8a20459e0a)" d="M 773.63004 378 
L 773.63004 51.84 
" style="fill:none;stroke:#b0b0b0;stroke-linecap:square;stroke-width:0.8;"/>
     </g>
     <g id="line2d_12">
      <g>
       <use style="stroke:#000000;stroke-width:0.8;" x="773.63004" xlink:href="#m503f2a83b5" y="378"/>
      </g>
     </g>
     <g id="text_6">
      <!-- 25 -->
      <g transform="translate(767.26754 392.598437)scale(0.1 -0.1)">
       <use xlink:href="#DejaVuSans-32"/>
       <use x="63.623047" xlink:href="#DejaVuSans-35"/>
      </g>
     </g>
    </g>
    <g id="text_7">
     <!-- Epoch number -->
     <defs>
      <path d="M 9.8125 72.90625 
L 55.90625 72.90625 
L 55.90625 64.59375 
L 19.671875 64.59375 
L 19.671875 43.015625 
L 54.390625 43.015625 
L 54.390625 34.71875 
L 19.671875 34.71875 
L 19.671875 8.296875 
L 56.78125 8.296875 
L 56.78125 0 
L 9.8125 0 
z
" id="DejaVuSans-45"/>
      <path d="M 18.109375 8.203125 
L 18.109375 -20.796875 
L 9.078125 -20.796875 
L 9.078125 54.6875 
L 18.109375 54.6875 
L 18.109375 46.390625 
Q 20.953125 51.265625 25.265625 53.625 
Q 29.59375 56 35.59375 56 
Q 45.5625 56 51.78125 48.09375 
Q 58.015625 40.1875 58.015625 27.296875 
Q 58.015625 14.40625 51.78125 6.484375 
Q 45.5625 -1.421875 35.59375 -1.421875 
Q 29.59375 -1.421875 25.265625 0.953125 
Q 20.953125 3.328125 18.109375 8.203125 
M 48.6875 27.296875 
Q 48.6875 37.203125 44.609375 42.84375 
Q 40.53125 48.484375 33.40625 48.484375 
Q 26.265625 48.484375 22.1875 42.84375 
Q 18.109375 37.203125 18.109375 27.296875 
Q 18.109375 17.390625 22.1875 11.75 
Q 26.265625 6.109375 33.40625 6.109375 
Q 40.53125 6.109375 44.609375 11.75 
Q 48.6875 17.390625 48.6875 27.296875 
" id="DejaVuSans-70"/>
      <path d="M 30.609375 48.390625 
Q 23.390625 48.390625 19.1875 42.75 
Q 14.984375 37.109375 14.984375 27.296875 
Q 14.984375 17.484375 19.15625 11.84375 
Q 23.34375 6.203125 30.609375 6.203125 
Q 37.796875 6.203125 41.984375 11.859375 
Q 46.1875 17.53125 46.1875 27.296875 
Q 46.1875 37.015625 41.984375 42.703125 
Q 37.796875 48.390625 30.609375 48.390625 
M 30.609375 56 
Q 42.328125 56 49.015625 48.375 
Q 55.71875 40.765625 55.71875 27.296875 
Q 55.71875 13.875 49.015625 6.21875 
Q 42.328125 -1.421875 30.609375 -1.421875 
Q 18.84375 -1.421875 12.171875 6.21875 
Q 5.515625 13.875 5.515625 27.296875 
Q 5.515625 40.765625 12.171875 48.375 
Q 18.84375 56 30.609375 56 
" id="DejaVuSans-6f"/>
      <path d="M 48.78125 52.59375 
L 48.78125 44.1875 
Q 44.96875 46.296875 41.140625 47.34375 
Q 37.3125 48.390625 33.40625 48.390625 
Q 24.65625 48.390625 19.8125 42.84375 
Q 14.984375 37.3125 14.984375 27.296875 
Q 14.984375 17.28125 19.8125 11.734375 
Q 24.65625 6.203125 33.40625 6.203125 
Q 37.3125 6.203125 41.140625 7.25 
Q 44.96875 8.296875 48.78125 10.40625 
L 48.78125 2.09375 
Q 45.015625 0.34375 40.984375 -0.53125 
Q 36.96875 -1.421875 32.421875 -1.421875 
Q 20.0625 -1.421875 12.78125 6.34375 
Q 5.515625 14.109375 5.515625 27.296875 
Q 5.515625 40.671875 12.859375 48.328125 
Q 20.21875 56 33.015625 56 
Q 37.15625 56 41.109375 55.140625 
Q 45.0625 54.296875 48.78125 52.59375 
" id="DejaVuSans-63"/>
      <path d="M 54.890625 33.015625 
L 54.890625 0 
L 45.90625 0 
L 45.90625 32.71875 
Q 45.90625 40.484375 42.875 44.328125 
Q 39.84375 48.1875 33.796875 48.1875 
Q 26.515625 48.1875 22.3125 43.546875 
Q 18.109375 38.921875 18.109375 30.90625 
L 18.109375 0 
L 9.078125 0 
L 9.078125 75.984375 
L 18.109375 75.984375 
L 18.109375 46.1875 
Q 21.34375 51.125 25.703125 53.5625 
Q 30.078125 56 35.796875 56 
Q 45.21875 56 50.046875 50.171875 
Q 54.890625 44.34375 54.890625 33.015625 
" id="DejaVuSans-68"/>
      <path id="DejaVuSans-20"/>
      <path d="M 54.890625 33.015625 
L 54.890625 0 
L 45.90625 0 
L 45.90625 32.71875 
Q 45.90625 40.484375 42.875 44.328125 
Q 39.84375 48.1875 33.796875 48.1875 
Q 26.515625 48.1875 22.3125 43.546875 
Q 18.109375 38.921875 18.109375 30.90625 
L 18.109375 0 
L 9.078125 0 
L 9.078125 54.6875 
L 18.109375 54.6875 
L 18.109375 46.1875 
Q 21.34375 51.125 25.703125 53.5625 
Q 30.078125 56 35.796875 56 
Q 45.21875 56 50.046875 50.171875 
Q 54.890625 44.34375 54.890625 33.015625 
" id="DejaVuSans-6e"/>
      <path d="M 8.5 21.578125 
L 8.5 54.6875 
L 17.484375 54.6875 
L 17.484375 21.921875 
Q 17.484375 14.15625 20.5 10.265625 
Q 23.53125 6.390625 29.59375 6.390625 
Q 36.859375 6.390625 41.078125 11.03125 
Q 45.3125 15.671875 45.3125 23.6875 
L 45.3125 54.6875 
L 54.296875 54.6875 
L 54.296875 0 
L 45.3125 0 
L 45.3125 8.40625 
Q 42.046875 3.421875 37.71875 1 
Q 33.40625 -1.421875 27.6875 -1.421875 
Q 18.265625 -1.421875 13.375 4.4375 
Q 8.5 10.296875 8.5 21.578125 
M 31.109375 56 
z
" id="DejaVuSans-75"/>
      <path d="M 52 44.1875 
Q 55.375 50.25 60.0625 53.125 
Q 64.75 56 71.09375 56 
Q 79.640625 56 84.28125 50.015625 
Q 88.921875 44.046875 88.921875 33.015625 
L 88.921875 0 
L 79.890625 0 
L 79.890625 32.71875 
Q 79.890625 40.578125 77.09375 44.375 
Q 74.3125 48.1875 68.609375 48.1875 
Q 61.625 48.1875 57.5625 43.546875 
Q 53.515625 38.921875 53.515625 30.90625 
L 53.515625 0 
L 44.484375 0 
L 44.484375 32.71875 
Q 44.484375 40.625 41.703125 44.40625 
Q 38.921875 48.1875 33.109375 48.1875 
Q 26.21875 48.1875 22.15625 43.53125 
Q 18.109375 38.875 18.109375 30.90625 
L 18.109375 0 
L 9.078125 0 
L 9.078125 54.6875 
L 18.109375 54.6875 
L 18.109375 46.1875 
Q 21.1875 51.21875 25.484375 53.609375 
Q 29.78125 56 35.6875 56 
Q 41.65625 56 45.828125 52.96875 
Q 50 49.953125 52 44.1875 
" id="DejaVuSans-6d"/>
      <path d="M 48.6875 27.296875 
Q 48.6875 37.203125 44.609375 42.84375 
Q 40.53125 48.484375 33.40625 48.484375 
Q 26.265625 48.484375 22.1875 42.84375 
Q 18.109375 37.203125 18.109375 27.296875 
Q 18.109375 17.390625 22.1875 11.75 
Q 26.265625 6.109375 33.40625 6.109375 
Q 40.53125 6.109375 44.609375 11.75 
Q 48.6875 17.390625 48.6875 27.296875 
M 18.109375 46.390625 
Q 20.953125 51.265625 25.265625 53.625 
Q 29.59375 56 35.59375 56 
Q 45.5625 56 51.78125 48.09375 
Q 58.015625 40.1875 58.015625 27.296875 
Q 58.015625 14.40625 51.78125 6.484375 
Q 45.5625 -1.421875 35.59375 -1.421875 
Q 29.59375 -1.421875 25.265625 0.953125 
Q 20.953125 3.328125 18.109375 8.203125 
L 18.109375 0 
L 9.078125 0 
L 9.078125 75.984375 
L 18.109375 75.984375 
z
" id="DejaVuSans-62"/>
      <path d="M 56.203125 29.59375 
L 56.203125 25.203125 
L 14.890625 25.203125 
Q 15.484375 15.921875 20.484375 11.0625 
Q 25.484375 6.203125 34.421875 6.203125 
Q 39.59375 6.203125 44.453125 7.46875 
Q 49.3125 8.734375 54.109375 11.28125 
L 54.109375 2.78125 
Q 49.265625 0.734375 44.1875 -0.34375 
Q 39.109375 -1.421875 33.890625 -1.421875 
Q 20.796875 -1.421875 13.15625 6.1875 
Q 5.515625 13.8125 5.515625 26.8125 
Q 5.515625 40.234375 12.765625 48.109375 
Q 20.015625 56 32.328125 56 
Q 43.359375 56 49.78125 48.890625 
Q 56.203125 41.796875 56.203125 29.59375 
M 47.21875 32.234375 
Q 47.125 39.59375 43.09375 43.984375 
Q 39.0625 48.390625 32.421875 48.390625 
Q 24.90625 48.390625 20.390625 44.140625 
Q 15.875 39.890625 15.1875 32.171875 
z
" id="DejaVuSans-65"/>
      <path d="M 41.109375 46.296875 
Q 39.59375 47.171875 37.8125 47.578125 
Q 36.03125 48 33.890625 48 
Q 26.265625 48 22.1875 43.046875 
Q 18.109375 38.09375 18.109375 28.8125 
L 18.109375 0 
L 9.078125 0 
L 9.078125 54.6875 
L 18.109375 54.6875 
L 18.109375 46.1875 
Q 20.953125 51.171875 25.484375 53.578125 
Q 30.03125 56 36.53125 56 
Q 37.453125 56 38.578125 55.875 
Q 39.703125 55.765625 41.0625 55.515625 
z
" id="DejaVuSans-72"/>
     </defs>
     <g transform="translate(406.385938 406.276563)scale(0.1 -0.1)">
      <use xlink:href="#DejaVuSans-45"/>
      <use x="63.183594" xlink:href="#DejaVuSans-70"/>
      <use x="126.660156" xlink:href="#DejaVuSans-6f"/>
      <use x="187.841797" xlink:href="#DejaVuSans-63"/>
      <use x="242.822266" xlink:href="#DejaVuSans-68"/>
      <use x="306.201172" xlink:href="#DejaVuSans-20"/>
      <use x="337.988281" xlink:href="#DejaVuSans-6e"/>
      <use x="401.367188" xlink:href="#DejaVuSans-75"/>
      <use x="464.746094" xlink:href="#DejaVuSans-6d"/>
      <use x="562.158203" xlink:href="#DejaVuSans-62"/>
      <use x="625.634766" xlink:href="#DejaVuSans-65"/>
      <use x="687.158203" xlink:href="#DejaVuSans-72"/>
     </g>
    </g>
   </g>
   <g id="matplotlib.axis_2">
    <g id="ytick_1">
     <g id="line2d_13">
      <path clip-path="url(#p8a20459e0a)" d="M 108 368.598543 
L 777.6 368.598543 
" style="fill:none;stroke:#b0b0b0;stroke-linecap:square;stroke-width:0.8;"/>
     </g>
     <g id="line2d_14">
      <defs>
       <path d="M 0 0 
L -3.5 0 
" id="m7e3d57912a" style="stroke:#000000;stroke-width:0.8;"/>
      </defs>
      <g>
       <use style="stroke:#000000;stroke-width:0.8;" x="108" xlink:href="#m7e3d57912a" y="368.598543"/>
      </g>
     </g>
     <g id="text_8">
      <!-- 1.3 -->
      <defs>
       <path d="M 10.6875 12.40625 
L 21 12.40625 
L 21 0 
L 10.6875 0 
z
" id="DejaVuSans-2e"/>
       <path d="M 40.578125 39.3125 
Q 47.65625 37.796875 51.625 33 
Q 55.609375 28.21875 55.609375 21.1875 
Q 55.609375 10.40625 48.1875 4.484375 
Q 40.765625 -1.421875 27.09375 -1.421875 
Q 22.515625 -1.421875 17.65625 -0.515625 
Q 12.796875 0.390625 7.625 2.203125 
L 7.625 11.71875 
Q 11.71875 9.328125 16.59375 8.109375 
Q 21.484375 6.890625 26.8125 6.890625 
Q 36.078125 6.890625 40.9375 10.546875 
Q 45.796875 14.203125 45.796875 21.1875 
Q 45.796875 27.640625 41.28125 31.265625 
Q 36.765625 34.90625 28.71875 34.90625 
L 20.21875 34.90625 
L 20.21875 43.015625 
L 29.109375 43.015625 
Q 36.375 43.015625 40.234375 45.921875 
Q 44.09375 48.828125 44.09375 54.296875 
Q 44.09375 59.90625 40.109375 62.90625 
Q 36.140625 65.921875 28.71875 65.921875 
Q 24.65625 65.921875 20.015625 65.03125 
Q 15.375 64.15625 9.8125 62.3125 
L 9.8125 71.09375 
Q 15.4375 72.65625 20.34375 73.4375 
Q 25.25 74.21875 29.59375 74.21875 
Q 40.828125 74.21875 47.359375 69.109375 
Q 53.90625 64.015625 53.90625 55.328125 
Q 53.90625 49.265625 50.4375 45.09375 
Q 46.96875 40.921875 40.578125 39.3125 
" id="DejaVuSans-33"/>
      </defs>
      <g transform="translate(85.096875 372.397762)scale(0.1 -0.1)">
       <use xlink:href="#DejaVuSans-31"/>
       <use x="63.623047" xlink:href="#DejaVuSans-2e"/>
       <use x="95.410156" xlink:href="#DejaVuSans-33"/>
      </g>
     </g>
    </g>
    <g id="ytick_2">
     <g id="line2d_15">
      <path clip-path="url(#p8a20459e0a)" d="M 108 324.805633 
L 777.6 324.805633 
" style="fill:none;stroke:#b0b0b0;stroke-linecap:square;stroke-width:0.8;"/>
     </g>
     <g id="line2d_16">
      <g>
       <use style="stroke:#000000;stroke-width:0.8;" x="108" xlink:href="#m7e3d57912a" y="324.805633"/>
      </g>
     </g>
     <g id="text_9">
      <!-- 1.4 -->
      <defs>
       <path d="M 37.796875 64.3125 
L 12.890625 25.390625 
L 37.796875 25.390625 
z
M 35.203125 72.90625 
L 47.609375 72.90625 
L 47.609375 25.390625 
L 58.015625 25.390625 
L 58.015625 17.1875 
L 47.609375 17.1875 
L 47.609375 0 
L 37.796875 0 
L 37.796875 17.1875 
L 4.890625 17.1875 
L 4.890625 26.703125 
z
" id="DejaVuSans-34"/>
      </defs>
      <g transform="translate(85.096875 328.604851)scale(0.1 -0.1)">
       <use xlink:href="#DejaVuSans-31"/>
       <use x="63.623047" xlink:href="#DejaVuSans-2e"/>
       <use x="95.410156" xlink:href="#DejaVuSans-34"/>
      </g>
     </g>
    </g>
    <g id="ytick_3">
     <g id="line2d_17">
      <path clip-path="url(#p8a20459e0a)" d="M 108 281.012722 
L 777.6 281.012722 
" style="fill:none;stroke:#b0b0b0;stroke-linecap:square;stroke-width:0.8;"/>
     </g>
     <g id="line2d_18">
      <g>
       <use style="stroke:#000000;stroke-width:0.8;" x="108" xlink:href="#m7e3d57912a" y="281.012722"/>
      </g>
     </g>
     <g id="text_10">
      <!-- 1.5 -->
      <g transform="translate(85.096875 284.811941)scale(0.1 -0.1)">
       <use xlink:href="#DejaVuSans-31"/>
       <use x="63.623047" xlink:href="#DejaVuSans-2e"/>
       <use x="95.410156" xlink:href="#DejaVuSans-35"/>
      </g>
     </g>
    </g>
    <g id="ytick_4">
     <g id="line2d_19">
      <path clip-path="url(#p8a20459e0a)" d="M 108 237.219812 
L 777.6 237.219812 
" style="fill:none;stroke:#b0b0b0;stroke-linecap:square;stroke-width:0.8;"/>
     </g>
     <g id="line2d_20">
      <g>
       <use style="stroke:#000000;stroke-width:0.8;" x="108" xlink:href="#m7e3d57912a" y="237.219812"/>
      </g>
     </g>
     <g id="text_11">
      <!-- 1.6 -->
      <defs>
       <path d="M 33.015625 40.375 
Q 26.375 40.375 22.484375 35.828125 
Q 18.609375 31.296875 18.609375 23.390625 
Q 18.609375 15.53125 22.484375 10.953125 
Q 26.375 6.390625 33.015625 6.390625 
Q 39.65625 6.390625 43.53125 10.953125 
Q 47.40625 15.53125 47.40625 23.390625 
Q 47.40625 31.296875 43.53125 35.828125 
Q 39.65625 40.375 33.015625 40.375 
M 52.59375 71.296875 
L 52.59375 62.3125 
Q 48.875 64.0625 45.09375 64.984375 
Q 41.3125 65.921875 37.59375 65.921875 
Q 27.828125 65.921875 22.671875 59.328125 
Q 17.53125 52.734375 16.796875 39.40625 
Q 19.671875 43.65625 24.015625 45.921875 
Q 28.375 48.1875 33.59375 48.1875 
Q 44.578125 48.1875 50.953125 41.515625 
Q 57.328125 34.859375 57.328125 23.390625 
Q 57.328125 12.15625 50.6875 5.359375 
Q 44.046875 -1.421875 33.015625 -1.421875 
Q 20.359375 -1.421875 13.671875 8.265625 
Q 6.984375 17.96875 6.984375 36.375 
Q 6.984375 53.65625 15.1875 63.9375 
Q 23.390625 74.21875 37.203125 74.21875 
Q 40.921875 74.21875 44.703125 73.484375 
Q 48.484375 72.75 52.59375 71.296875 
" id="DejaVuSans-36"/>
      </defs>
      <g transform="translate(85.096875 241.01903)scale(0.1 -0.1)">
       <use xlink:href="#DejaVuSans-31"/>
       <use x="63.623047" xlink:href="#DejaVuSans-2e"/>
       <use x="95.410156" xlink:href="#DejaVuSans-36"/>
      </g>
     </g>
    </g>
    <g id="ytick_5">
     <g id="line2d_21">
      <path clip-path="url(#p8a20459e0a)" d="M 108 193.426901 
L 777.6 193.426901 
" style="fill:none;stroke:#b0b0b0;stroke-linecap:square;stroke-width:0.8;"/>
     </g>
     <g id="line2d_22">
      <g>
       <use style="stroke:#000000;stroke-width:0.8;" x="108" xlink:href="#m7e3d57912a" y="193.426901"/>
      </g>
     </g>
     <g id="text_12">
      <!-- 1.7 -->
      <defs>
       <path d="M 8.203125 72.90625 
L 55.078125 72.90625 
L 55.078125 68.703125 
L 28.609375 0 
L 18.3125 0 
L 43.21875 64.59375 
L 8.203125 64.59375 
z
" id="DejaVuSans-37"/>
      </defs>
      <g transform="translate(85.096875 197.22612)scale(0.1 -0.1)">
       <use xlink:href="#DejaVuSans-31"/>
       <use x="63.623047" xlink:href="#DejaVuSans-2e"/>
       <use x="95.410156" xlink:href="#DejaVuSans-37"/>
      </g>
     </g>
    </g>
    <g id="ytick_6">
     <g id="line2d_23">
      <path clip-path="url(#p8a20459e0a)" d="M 108 149.633991 
L 777.6 149.633991 
" style="fill:none;stroke:#b0b0b0;stroke-linecap:square;stroke-width:0.8;"/>
     </g>
     <g id="line2d_24">
      <g>
       <use style="stroke:#000000;stroke-width:0.8;" x="108" xlink:href="#m7e3d57912a" y="149.633991"/>
      </g>
     </g>
     <g id="text_13">
      <!-- 1.8 -->
      <defs>
       <path d="M 31.78125 34.625 
Q 24.75 34.625 20.71875 30.859375 
Q 16.703125 27.09375 16.703125 20.515625 
Q 16.703125 13.921875 20.71875 10.15625 
Q 24.75 6.390625 31.78125 6.390625 
Q 38.8125 6.390625 42.859375 10.171875 
Q 46.921875 13.96875 46.921875 20.515625 
Q 46.921875 27.09375 42.890625 30.859375 
Q 38.875 34.625 31.78125 34.625 
M 21.921875 38.8125 
Q 15.578125 40.375 12.03125 44.71875 
Q 8.5 49.078125 8.5 55.328125 
Q 8.5 64.0625 14.71875 69.140625 
Q 20.953125 74.21875 31.78125 74.21875 
Q 42.671875 74.21875 48.875 69.140625 
Q 55.078125 64.0625 55.078125 55.328125 
Q 55.078125 49.078125 51.53125 44.71875 
Q 48 40.375 41.703125 38.8125 
Q 48.828125 37.15625 52.796875 32.3125 
Q 56.78125 27.484375 56.78125 20.515625 
Q 56.78125 9.90625 50.3125 4.234375 
Q 43.84375 -1.421875 31.78125 -1.421875 
Q 19.734375 -1.421875 13.25 4.234375 
Q 6.78125 9.90625 6.78125 20.515625 
Q 6.78125 27.484375 10.78125 32.3125 
Q 14.796875 37.15625 21.921875 38.8125 
M 18.3125 54.390625 
Q 18.3125 48.734375 21.84375 45.5625 
Q 25.390625 42.390625 31.78125 42.390625 
Q 38.140625 42.390625 41.71875 45.5625 
Q 45.3125 48.734375 45.3125 54.390625 
Q 45.3125 60.0625 41.71875 63.234375 
Q 38.140625 66.40625 31.78125 66.40625 
Q 25.390625 66.40625 21.84375 63.234375 
Q 18.3125 60.0625 18.3125 54.390625 
" id="DejaVuSans-38"/>
      </defs>
      <g transform="translate(85.096875 153.433209)scale(0.1 -0.1)">
       <use xlink:href="#DejaVuSans-31"/>
       <use x="63.623047" xlink:href="#DejaVuSans-2e"/>
       <use x="95.410156" xlink:href="#DejaVuSans-38"/>
      </g>
     </g>
    </g>
    <g id="ytick_7">
     <g id="line2d_25">
      <path clip-path="url(#p8a20459e0a)" d="M 108 105.84108 
L 777.6 105.84108 
" style="fill:none;stroke:#b0b0b0;stroke-linecap:square;stroke-width:0.8;"/>
     </g>
     <g id="line2d_26">
      <g>
       <use style="stroke:#000000;stroke-width:0.8;" x="108" xlink:href="#m7e3d57912a" y="105.84108"/>
      </g>
     </g>
     <g id="text_14">
      <!-- 1.9 -->
      <defs>
       <path d="M 10.984375 1.515625 
L 10.984375 10.5 
Q 14.703125 8.734375 18.5 7.8125 
Q 22.3125 6.890625 25.984375 6.890625 
Q 35.75 6.890625 40.890625 13.453125 
Q 46.046875 20.015625 46.78125 33.40625 
Q 43.953125 29.203125 39.59375 26.953125 
Q 35.25 24.703125 29.984375 24.703125 
Q 19.046875 24.703125 12.671875 31.3125 
Q 6.296875 37.9375 6.296875 49.421875 
Q 6.296875 60.640625 12.9375 67.421875 
Q 19.578125 74.21875 30.609375 74.21875 
Q 43.265625 74.21875 49.921875 64.515625 
Q 56.59375 54.828125 56.59375 36.375 
Q 56.59375 19.140625 48.40625 8.859375 
Q 40.234375 -1.421875 26.421875 -1.421875 
Q 22.703125 -1.421875 18.890625 -0.6875 
Q 15.09375 0.046875 10.984375 1.515625 
M 30.609375 32.421875 
Q 37.25 32.421875 41.125 36.953125 
Q 45.015625 41.5 45.015625 49.421875 
Q 45.015625 57.28125 41.125 61.84375 
Q 37.25 66.40625 30.609375 66.40625 
Q 23.96875 66.40625 20.09375 61.84375 
Q 16.21875 57.28125 16.21875 49.421875 
Q 16.21875 41.5 20.09375 36.953125 
Q 23.96875 32.421875 30.609375 32.421875 
" id="DejaVuSans-39"/>
      </defs>
      <g transform="translate(85.096875 109.640299)scale(0.1 -0.1)">
       <use xlink:href="#DejaVuSans-31"/>
       <use x="63.623047" xlink:href="#DejaVuSans-2e"/>
       <use x="95.410156" xlink:href="#DejaVuSans-39"/>
      </g>
     </g>
    </g>
    <g id="ytick_8">
     <g id="line2d_27">
      <path clip-path="url(#p8a20459e0a)" d="M 108 62.04817 
L 777.6 62.04817 
" style="fill:none;stroke:#b0b0b0;stroke-linecap:square;stroke-width:0.8;"/>
     </g>
     <g id="line2d_28">
      <g>
       <use style="stroke:#000000;stroke-width:0.8;" x="108" xlink:href="#m7e3d57912a" y="62.04817"/>
      </g>
     </g>
     <g id="text_15">
      <!-- 2.0 -->
      <g transform="translate(85.096875 65.847388)scale(0.1 -0.1)">
       <use xlink:href="#DejaVuSans-32"/>
       <use x="63.623047" xlink:href="#DejaVuSans-2e"/>
       <use x="95.410156" xlink:href="#DejaVuSans-30"/>
      </g>
     </g>
    </g>
    <g id="text_16">
     <!-- Validation Error -->
     <defs>
      <path d="M 28.609375 0 
L 0.78125 72.90625 
L 11.078125 72.90625 
L 34.1875 11.53125 
L 57.328125 72.90625 
L 67.578125 72.90625 
L 39.796875 0 
z
" id="DejaVuSans-56"/>
      <path d="M 34.28125 27.484375 
Q 23.390625 27.484375 19.1875 25 
Q 14.984375 22.515625 14.984375 16.5 
Q 14.984375 11.71875 18.140625 8.90625 
Q 21.296875 6.109375 26.703125 6.109375 
Q 34.1875 6.109375 38.703125 11.40625 
Q 43.21875 16.703125 43.21875 25.484375 
L 43.21875 27.484375 
z
M 52.203125 31.203125 
L 52.203125 0 
L 43.21875 0 
L 43.21875 8.296875 
Q 40.140625 3.328125 35.546875 0.953125 
Q 30.953125 -1.421875 24.3125 -1.421875 
Q 15.921875 -1.421875 10.953125 3.296875 
Q 6 8.015625 6 15.921875 
Q 6 25.140625 12.171875 29.828125 
Q 18.359375 34.515625 30.609375 34.515625 
L 43.21875 34.515625 
L 43.21875 35.40625 
Q 43.21875 41.609375 39.140625 45 
Q 35.0625 48.390625 27.6875 48.390625 
Q 23 48.390625 18.546875 47.265625 
Q 14.109375 46.140625 10.015625 43.890625 
L 10.015625 52.203125 
Q 14.9375 54.109375 19.578125 55.046875 
Q 24.21875 56 28.609375 56 
Q 40.484375 56 46.34375 49.84375 
Q 52.203125 43.703125 52.203125 31.203125 
" id="DejaVuSans-61"/>
      <path d="M 9.421875 75.984375 
L 18.40625 75.984375 
L 18.40625 0 
L 9.421875 0 
z
" id="DejaVuSans-6c"/>
      <path d="M 9.421875 54.6875 
L 18.40625 54.6875 
L 18.40625 0 
L 9.421875 0 
z
M 9.421875 75.984375 
L 18.40625 75.984375 
L 18.40625 64.59375 
L 9.421875 64.59375 
z
" id="DejaVuSans-69"/>
      <path d="M 45.40625 46.390625 
L 45.40625 75.984375 
L 54.390625 75.984375 
L 54.390625 0 
L 45.40625 0 
L 45.40625 8.203125 
Q 42.578125 3.328125 38.25 0.953125 
Q 33.9375 -1.421875 27.875 -1.421875 
Q 17.96875 -1.421875 11.734375 6.484375 
Q 5.515625 14.40625 5.515625 27.296875 
Q 5.515625 40.1875 11.734375 48.09375 
Q 17.96875 56 27.875 56 
Q 33.9375 56 38.25 53.625 
Q 42.578125 51.265625 45.40625 46.390625 
M 14.796875 27.296875 
Q 14.796875 17.390625 18.875 11.75 
Q 22.953125 6.109375 30.078125 6.109375 
Q 37.203125 6.109375 41.296875 11.75 
Q 45.40625 17.390625 45.40625 27.296875 
Q 45.40625 37.203125 41.296875 42.84375 
Q 37.203125 48.484375 30.078125 48.484375 
Q 22.953125 48.484375 18.875 42.84375 
Q 14.796875 37.203125 14.796875 27.296875 
" id="DejaVuSans-64"/>
      <path d="M 18.3125 70.21875 
L 18.3125 54.6875 
L 36.8125 54.6875 
L 36.8125 47.703125 
L 18.3125 47.703125 
L 18.3125 18.015625 
Q 18.3125 11.328125 20.140625 9.421875 
Q 21.96875 7.515625 27.59375 7.515625 
L 36.8125 7.515625 
L 36.8125 0 
L 27.59375 0 
Q 17.1875 0 13.234375 3.875 
Q 9.28125 7.765625 9.28125 18.015625 
L 9.28125 47.703125 
L 2.6875 47.703125 
L 2.6875 54.6875 
L 9.28125 54.6875 
L 9.28125 70.21875 
z
" id="DejaVuSans-74"/>
     </defs>
     <g transform="translate(79.017187 253.964531)rotate(-90)scale(0.1 -0.1)">
      <use xlink:href="#DejaVuSans-56"/>
      <use x="68.298828" xlink:href="#DejaVuSans-61"/>
      <use x="129.578125" xlink:href="#DejaVuSans-6c"/>
      <use x="157.361328" xlink:href="#DejaVuSans-69"/>
      <use x="185.144531" xlink:href="#DejaVuSans-64"/>
      <use x="248.621094" xlink:href="#DejaVuSans-61"/>
      <use x="309.900391" xlink:href="#DejaVuSans-74"/>
      <use x="349.109375" xlink:href="#DejaVuSans-69"/>
      <use x="376.892578" xlink:href="#DejaVuSans-6f"/>
      <use x="438.074219" xlink:href="#DejaVuSans-6e"/>
      <use x="501.453125" xlink:href="#DejaVuSans-20"/>
      <use x="533.240234" xlink:href="#DejaVuSans-45"/>
      <use x="596.423828" xlink:href="#DejaVuSans-72"/>
      <use x="637.521484" xlink:href="#DejaVuSans-72"/>
      <use x="678.603516" xlink:href="#DejaVuSans-6f"/>
      <use x="739.785156" xlink:href="#DejaVuSans-72"/>
     </g>
    </g>
   </g>
   <g id="line2d_29">
    <path clip-path="url(#p8a20459e0a)" d="M 138.436364 179.761228 
L 164.902767 216.616139 
L 191.36917 219.55882 
L 217.835573 230.651549 
L 244.301976 280.970844 
L 270.768379 293.055771 
L 297.234783 208.627844 
L 323.701186 285.638571 
L 350.167589 295.018967 
L 376.633992 290.107867 
L 403.100395 312.699549 
L 429.566798 248.729144 
L 456.033202 294.381812 
L 482.499605 308.553244 
L 508.966008 309.57368 
L 535.432411 312.2091 
L 561.898814 325.998312 
L 588.365217 330.315674 
L 614.831621 293.988383 
L 641.298024 316.447259 
L 667.764427 319.312703 
L 694.23083 313.399619 
L 720.697233 322.626444 
L 747.163636 346.089748 
" style="fill:none;stroke:#d3d3d3;stroke-linecap:square;stroke-width:1.5;"/>
   </g>
   <g id="line2d_30">
    <path clip-path="url(#p8a20459e0a)" d="M 138.436364 134.074631 
L 164.902767 179.031672 
L 191.36917 219.333894 
L 217.835573 229.8631 
L 244.301976 191.840943 
L 270.768379 237.217548 
L 297.234783 236.70052 
L 323.701186 223.122443 
L 350.167589 246.126378 
L 376.633992 250.929195 
L 403.100395 230.757007 
L 429.566798 267.999479 
L 456.033202 266.779542 
L 482.499605 195.362348 
L 508.966008 281.542826 
L 535.432411 282.136942 
L 561.898814 191.287938 
L 588.365217 282.01331 
L 614.831621 267.192731 
L 641.298024 279.449477 
L 667.764427 247.93427 
L 694.23083 287.517202 
L 720.697233 241.411518 
L 747.163636 210.697826 
" style="fill:none;stroke:#d3d3d3;stroke-linecap:square;stroke-width:1.5;"/>
   </g>
   <g id="line2d_31">
    <path clip-path="url(#p8a20459e0a)" d="M 138.436364 195.527845 
L 164.902767 191.683656 
L 191.36917 221.209271 
L 217.835573 227.884685 
L 244.301976 241.554458 
L 270.768379 287.950032 
L 297.234783 259.959438 
L 323.701186 236.6336 
L 350.167589 287.296356 
L 376.633992 290.516205 
L 403.100395 315.811002 
L 429.566798 318.73712 
L 456.033202 323.044086 
L 482.499605 286.545848 
L 508.966008 265.558925 
L 535.432411 325.831408 
L 561.898814 303.243093 
L 588.365217 325.699578 
L 614.831621 280.913078 
L 641.298024 334.732246 
L 667.764427 329.928034 
L 694.23083 280.28541 
L 720.697233 182.630303 
L 747.163636 289.741613 
" style="fill:none;stroke:#1f77b4;stroke-linecap:square;stroke-width:1.5;"/>
   </g>
   <g id="line2d_32">
    <path clip-path="url(#p8a20459e0a)" d="M 138.436364 189.041015 
L 164.902767 200.296104 
L 191.36917 190.121721 
L 217.835573 245.18782 
L 244.301976 209.479783 
L 270.768379 237.710045 
L 297.234783 258.844573 
L 323.701186 241.022362 
L 350.167589 289.672128 
L 376.633992 235.498767 
L 403.100395 245.964443 
L 429.566798 227.411604 
L 456.033202 292.748484 
L 482.499605 242.286917 
L 508.966008 318.68878 
L 535.432411 319.608486 
L 561.898814 304.978791 
L 588.365217 280.920233 
L 614.831621 323.832989 
L 641.298024 277.390077 
L 667.764427 319.984525 
L 694.23083 300.414178 
L 720.697233 313.932166 
L 747.163636 286.512446 
" style="fill:none;stroke:#d3d3d3;stroke-linecap:square;stroke-width:1.5;"/>
   </g>
   <g id="line2d_33">
    <path clip-path="url(#p8a20459e0a)" d="M 138.436364 203.824643 
L 164.902767 247.469234 
L 191.36917 221.671719 
L 217.835573 268.076753 
L 244.301976 273.207124 
L 270.768379 272.954812 
L 297.234783 275.604866 
L 323.701186 282.291142 
L 350.167589 301.107988 
L 376.633992 331.610493 
L 403.100395 321.839331 
L 429.566798 323.422271 
L 456.033202 287.286125 
L 482.499605 289.003659 
L 508.966008 341.613522 
L 535.432411 344.823069 
L 561.898814 342.836734 
L 588.365217 319.762358 
L 614.831621 320.868195 
L 641.298024 308.704314 
L 667.764427 343.834299 
L 694.23083 336.940521 
L 720.697233 343.31347 
L 747.163636 337.3801 
" style="fill:none;stroke:#d3d3d3;stroke-linecap:square;stroke-width:1.5;"/>
   </g>
   <g id="line2d_34">
    <path clip-path="url(#p8a20459e0a)" d="M 138.436364 214.570611 
L 164.902767 204.874494 
L 191.36917 227.903262 
L 217.835573 254.881784 
L 244.301976 258.126256 
L 270.768379 248.447991 
L 297.234783 271.863208 
L 323.701186 280.980573 
L 350.167589 294.549347 
L 376.633992 295.91298 
L 403.100395 303.303707 
L 429.566798 321.551397 
L 456.033202 308.150384 
L 482.499605 321.038015 
L 508.966008 313.339214 
L 535.432411 307.77781 
L 561.898814 314.19437 
L 588.365217 325.923722 
L 614.831621 313.456323 
L 641.298024 337.960715 
L 667.764427 312.321428 
L 694.23083 320.735121 
L 720.697233 335.539323 
L 747.163636 326.350741 
" style="fill:none;stroke:#d3d3d3;stroke-linecap:square;stroke-width:1.5;"/>
   </g>
   <g id="line2d_35">
    <path clip-path="url(#p8a20459e0a)" d="M 138.436364 185.494231 
L 164.902767 212.582329 
L 191.36917 234.650074 
L 217.835573 260.066917 
L 244.301976 282.450359 
L 270.768379 229.594116 
L 297.234783 243.503841 
L 323.701186 272.869825 
L 350.167589 275.083812 
L 376.633992 309.732668 
L 403.100395 249.073207 
L 429.566798 180.065734 
L 456.033202 250.611704 
L 482.499605 341.596594 
L 508.966008 323.396621 
L 535.432411 251.665622 
L 561.898814 321.520465 
L 588.365217 326.515275 
L 614.831621 306.469429 
L 641.298024 347.336585 
L 667.764427 332.322093 
L 694.23083 344.884553 
L 720.697233 356.026642 
L 747.163636 344.005368 
" style="fill:none;stroke:#ff7f0e;stroke-linecap:square;stroke-width:1.5;"/>
   </g>
   <g id="line2d_36">
    <path clip-path="url(#p8a20459e0a)" d="M 138.436364 66.665455 
L 164.902767 99.912194 
L 191.36917 116.452343 
L 217.835573 127.076538 
L 244.301976 133.884238 
L 270.768379 139.237397 
L 297.234783 144.086551 
L 323.701186 147.783102 
L 350.167589 151.342875 
L 376.633992 152.383384 
L 403.100395 156.202117 
L 429.566798 156.639383 
L 456.033202 159.178424 
L 482.499605 162.521684 
L 508.966008 161.444126 
L 535.432411 163.358377 
L 561.898814 164.603008 
L 588.365217 166.305681 
L 614.831621 168.380364 
L 641.298024 170.846512 
L 667.764427 172.624484 
L 694.23083 175.245537 
L 720.697233 177.323881 
L 747.163636 178.849023 
" style="fill:none;stroke:#d3d3d3;stroke-linecap:square;stroke-width:1.5;"/>
   </g>
   <g id="line2d_37">
    <path clip-path="url(#p8a20459e0a)" d="M 138.436364 188.118209 
L 164.902767 214.926388 
L 191.36917 224.150976 
L 217.835573 240.784355 
L 244.301976 258.644551 
L 270.768379 261.246941 
L 297.234783 250.274844 
L 323.701186 282.763155 
L 350.167589 288.699012 
L 376.633992 303.006305 
L 403.100395 301.165985 
L 429.566798 298.677182 
L 456.033202 313.912384 
L 482.499605 330.984903 
L 508.966008 319.294416 
L 535.432411 308.21927 
L 561.898814 324.589374 
L 588.365217 334.510653 
L 614.831621 316.972054 
L 641.298024 315.737307 
L 667.764427 324.398657 
L 694.23083 312.838286 
L 720.697233 313.461766 
L 747.163636 305.75533 
" style="fill:none;stroke:#d3d3d3;stroke-linecap:square;stroke-width:1.5;"/>
   </g>
   <g id="line2d_38">
    <path clip-path="url(#p8a20459e0a)" d="M 138.436364 164.302929 
L 164.902767 192.941566 
L 191.36917 221.922939 
L 217.835573 235.510622 
L 244.301976 273.269661 
L 270.768379 258.811127 
L 297.234783 253.774384 
L 323.701186 270.73858 
L 350.167589 277.541667 
L 376.633992 244.684006 
L 403.100395 302.855462 
L 429.566798 285.797459 
L 456.033202 199.440714 
L 482.499605 282.584387 
L 508.966008 199.108697 
L 535.432411 296.359216 
L 561.898814 322.429837 
L 588.365217 311.054895 
L 614.831621 315.65162 
L 641.298024 267.990948 
L 667.764427 333.748087 
L 694.23083 329.519291 
L 720.697233 324.265783 
L 747.163636 317.596727 
" style="fill:none;stroke:#d3d3d3;stroke-linecap:square;stroke-width:1.5;"/>
   </g>
   <g id="line2d_39">
    <path clip-path="url(#p8a20459e0a)" d="M 138.436364 168.264032 
L 164.902767 193.439436 
L 191.36917 149.022742 
L 217.835573 200.707371 
L 244.301976 265.228829 
L 270.768379 228.560349 
L 297.234783 269.004843 
L 323.701186 264.264678 
L 350.167589 243.265018 
L 376.633992 260.224802 
L 403.100395 297.197954 
L 429.566798 330.620025 
L 456.033202 332.527061 
L 482.499605 287.621875 
L 508.966008 328.473037 
L 535.432411 325.120529 
L 561.898814 264.199131 
L 588.365217 331.377427 
L 614.831621 328.676319 
L 641.298024 338.676915 
L 667.764427 344.10015 
L 694.23083 335.100574 
L 720.697233 319.098837 
L 747.163636 306.274145 
" style="fill:none;stroke:#2ca02c;stroke-linecap:square;stroke-width:1.5;"/>
   </g>
   <g id="line2d_40">
    <path clip-path="url(#p8a20459e0a)" d="M 138.436364 139.293261 
L 164.902767 219.277555 
L 191.36917 216.599419 
L 217.835573 242.224259 
L 244.301976 264.605489 
L 270.768379 296.777675 
L 297.234783 287.544036 
L 323.701186 290.554198 
L 350.167589 285.365258 
L 376.633992 260.500264 
L 403.100395 283.575252 
L 429.566798 326.881873 
L 456.033202 263.771475 
L 482.499605 289.417844 
L 508.966008 333.137186 
L 535.432411 347.11733 
L 561.898814 327.181015 
L 588.365217 310.274905 
L 614.831621 293.269278 
L 641.298024 308.298771 
L 667.764427 293.127142 
L 694.23083 320.65472 
L 720.697233 311.567353 
L 747.163636 339.414447 
" style="fill:none;stroke:#d3d3d3;stroke-linecap:square;stroke-width:1.5;"/>
   </g>
   <g id="line2d_41">
    <path clip-path="url(#p8a20459e0a)" d="M 138.436364 191.617681 
L 164.902767 190.212017 
L 191.36917 227.169371 
L 217.835573 177.709124 
L 244.301976 261.750995 
L 270.768379 278.246988 
L 297.234783 288.317468 
L 323.701186 288.463252 
L 350.167589 263.708412 
L 376.633992 286.054256 
L 403.100395 313.942947 
L 429.566798 315.172634 
L 456.033202 305.827932 
L 482.499605 325.160898 
L 508.966008 282.622884 
L 535.432411 248.104666 
L 561.898814 307.607597 
L 588.365217 344.510302 
L 614.831621 324.45217 
L 641.298024 333.248359 
L 667.764427 315.653692 
L 694.23083 314.891306 
L 720.697233 292.952086 
L 747.163636 319.139733 
" style="fill:none;stroke:#d3d3d3;stroke-linecap:square;stroke-width:1.5;"/>
   </g>
   <g id="line2d_42">
    <path clip-path="url(#p8a20459e0a)" d="M 138.436364 200.300958 
L 164.902767 237.016061 
L 191.36917 211.663533 
L 217.835573 233.698423 
L 244.301976 260.520531 
L 270.768379 277.512553 
L 297.234783 263.713903 
L 323.701186 299.060126 
L 350.167589 295.578672 
L 376.633992 313.22678 
L 403.100395 310.844518 
L 429.566798 312.345274 
L 456.033202 334.962149 
L 482.499605 316.526042 
L 508.966008 313.706865 
L 535.432411 317.688214 
L 561.898814 310.407224 
L 588.365217 348.980123 
L 614.831621 290.693532 
L 641.298024 310.374363 
L 667.764427 292.608532 
L 694.23083 334.7812 
L 720.697233 355.244946 
L 747.163636 333.000132 
" style="fill:none;stroke:#d62728;stroke-linecap:square;stroke-width:1.5;"/>
   </g>
   <g id="line2d_43">
    <path clip-path="url(#p8a20459e0a)" d="M 138.436364 208.409889 
L 164.902767 204.339718 
L 191.36917 226.386441 
L 217.835573 236.552654 
L 244.301976 254.563837 
L 270.768379 259.153286 
L 297.234783 258.522235 
L 323.701186 255.598118 
L 350.167589 270.255132 
L 376.633992 271.880219 
L 403.100395 292.238896 
L 429.566798 286.481916 
L 456.033202 270.349849 
L 482.499605 282.773312 
L 508.966008 303.263353 
L 535.432411 295.686988 
L 561.898814 277.598321 
L 588.365217 296.698476 
L 614.831621 314.086036 
L 641.298024 306.258498 
L 667.764427 307.261368 
L 694.23083 295.334987 
L 720.697233 300.221542 
L 747.163636 310.091839 
" style="fill:none;stroke:#d3d3d3;stroke-linecap:square;stroke-width:1.5;"/>
   </g>
   <g id="line2d_44">
    <path clip-path="url(#p8a20459e0a)" d="M 138.436364 201.630801 
L 164.902767 175.159171 
L 191.36917 229.838692 
L 217.835573 241.516754 
L 244.301976 265.996234 
L 270.768379 262.574935 
L 297.234783 274.242661 
L 323.701186 264.344318 
L 350.167589 270.15171 
L 376.633992 272.901307 
L 403.100395 289.466253 
L 429.566798 291.864838 
L 456.033202 283.282727 
L 482.499605 286.196546 
L 508.966008 287.194954 
L 535.432411 288.361911 
L 561.898814 298.918962 
L 588.365217 290.192525 
L 614.831621 299.587619 
L 641.298024 283.335663 
L 667.764427 281.828285 
L 694.23083 284.307838 
L 720.697233 277.542137 
L 747.163636 273.228575 
" style="fill:none;stroke:#d3d3d3;stroke-linecap:square;stroke-width:1.5;"/>
   </g>
   <g id="line2d_45">
    <path clip-path="url(#p8a20459e0a)" d="M 138.436364 174.440809 
L 164.902767 224.637977 
L 191.36917 233.960701 
L 217.835573 237.086324 
L 244.301976 250.549869 
L 270.768379 235.623116 
L 297.234783 245.750386 
L 323.701186 290.570032 
L 350.167589 313.282869 
L 376.633992 299.763177 
L 403.100395 276.553694 
L 429.566798 326.851147 
L 456.033202 323.621489 
L 482.499605 294.029503 
L 508.966008 266.615866 
L 535.432411 326.328194 
L 561.898814 314.991709 
L 588.365217 305.433844 
L 614.831621 301.168523 
L 641.298024 335.247141 
L 667.764427 319.453818 
L 694.23083 352.802535 
L 720.697233 329.959088 
L 747.163636 337.600227 
" style="fill:none;stroke:#d3d3d3;stroke-linecap:square;stroke-width:1.5;"/>
   </g>
   <g id="line2d_46">
    <path clip-path="url(#p8a20459e0a)" d="M 138.436364 148.499415 
L 164.902767 181.620904 
L 191.36917 218.521833 
L 217.835573 205.304515 
L 244.301976 271.388814 
L 270.768379 261.015508 
L 297.234783 245.275212 
L 323.701186 253.315849 
L 350.167589 301.194751 
L 376.633992 291.464626 
L 403.100395 287.63702 
L 429.566798 276.053666 
L 456.033202 304.074133 
L 482.499605 310.85977 
L 508.966008 306.396675 
L 535.432411 300.122551 
L 561.898814 348.685465 
L 588.365217 289.53907 
L 614.831621 246.675485 
L 641.298024 334.006159 
L 667.764427 224.267548 
L 694.23083 357.131968 
L 720.697233 319.342741 
L 747.163636 338.711285 
" style="fill:none;stroke:#9467bd;stroke-linecap:square;stroke-width:1.5;"/>
   </g>
   <g id="line2d_47">
    <path clip-path="url(#p8a20459e0a)" d="M 138.436364 164.461385 
L 164.902767 225.438295 
L 191.36917 201.656152 
L 217.835573 236.352312 
L 244.301976 220.944156 
L 270.768379 269.583813 
L 297.234783 290.246827 
L 323.701186 257.477503 
L 350.167589 213.186212 
L 376.633992 279.826368 
L 403.100395 265.023599 
L 429.566798 272.844987 
L 456.033202 320.736558 
L 482.499605 303.062149 
L 508.966008 265.515252 
L 535.432411 325.791442 
L 561.898814 252.815192 
L 588.365217 305.174281 
L 614.831621 300.459892 
L 641.298024 329.632501 
L 667.764427 332.550128 
L 694.23083 255.274691 
L 720.697233 345.541019 
L 747.163636 316.739263 
" style="fill:none;stroke:#8c564b;stroke-linecap:square;stroke-width:1.5;"/>
   </g>
   <g id="line2d_48">
    <path clip-path="url(#p8a20459e0a)" d="M 138.436364 206.09977 
L 164.902767 220.799409 
L 191.36917 234.62782 
L 217.835573 244.549572 
L 244.301976 257.624915 
L 270.768379 277.557396 
L 297.234783 306.200841 
L 323.701186 298.400757 
L 350.167589 304.902356 
L 376.633992 255.222602 
L 403.100395 312.654453 
L 429.566798 299.158713 
L 456.033202 297.543659 
L 482.499605 338.21528 
L 508.966008 326.347796 
L 535.432411 327.325429 
L 561.898814 340.814428 
L 588.365217 352.174676 
L 614.831621 345.728401 
L 641.298024 316.941589 
L 667.764427 337.446882 
L 694.23083 349.655455 
L 720.697233 339.698738 
L 747.163636 363.174545 
" style="fill:none;stroke:#e377c2;stroke-linecap:square;stroke-width:1.5;"/>
   </g>
   <g id="patch_3">
    <path d="M 108 378 
L 108 51.84 
" style="fill:none;stroke:#000000;stroke-linecap:square;stroke-linejoin:miter;stroke-width:0.8;"/>
   </g>
   <g id="patch_4">
    <path d="M 777.6 378 
L 777.6 51.84 
" style="fill:none;stroke:#000000;stroke-linecap:square;stroke-linejoin:miter;stroke-width:0.8;"/>
   </g>
   <g id="patch_5">
    <path d="M 108 378 
L 777.6 378 
" style="fill:none;stroke:#000000;stroke-linecap:square;stroke-linejoin:miter;stroke-width:0.8;"/>
   </g>
   <g id="patch_6">
    <path d="M 108 51.84 
L 777.6 51.84 
" style="fill:none;stroke:#000000;stroke-linecap:square;stroke-linejoin:miter;stroke-width:0.8;"/>
   </g>
   <g id="text_17">
    <!-- Validation Error over 25 epochs -->
    <defs>
     <path d="M 2.984375 54.6875 
L 12.5 54.6875 
L 29.59375 8.796875 
L 46.6875 54.6875 
L 56.203125 54.6875 
L 35.6875 0 
L 23.484375 0 
z
" id="DejaVuSans-76"/>
     <path d="M 44.28125 53.078125 
L 44.28125 44.578125 
Q 40.484375 46.53125 36.375 47.5 
Q 32.28125 48.484375 27.875 48.484375 
Q 21.1875 48.484375 17.84375 46.4375 
Q 14.5 44.390625 14.5 40.28125 
Q 14.5 37.15625 16.890625 35.375 
Q 19.28125 33.59375 26.515625 31.984375 
L 29.59375 31.296875 
Q 39.15625 29.25 43.1875 25.515625 
Q 47.21875 21.78125 47.21875 15.09375 
Q 47.21875 7.46875 41.1875 3.015625 
Q 35.15625 -1.421875 24.609375 -1.421875 
Q 20.21875 -1.421875 15.453125 -0.5625 
Q 10.6875 0.296875 5.421875 2 
L 5.421875 11.28125 
Q 10.40625 8.6875 15.234375 7.390625 
Q 20.0625 6.109375 24.8125 6.109375 
Q 31.15625 6.109375 34.5625 8.28125 
Q 37.984375 10.453125 37.984375 14.40625 
Q 37.984375 18.0625 35.515625 20.015625 
Q 33.0625 21.96875 24.703125 23.78125 
L 21.578125 24.515625 
Q 13.234375 26.265625 9.515625 29.90625 
Q 5.8125 33.546875 5.8125 39.890625 
Q 5.8125 47.609375 11.28125 51.796875 
Q 16.75 56 26.8125 56 
Q 31.78125 56 36.171875 55.265625 
Q 40.578125 54.546875 44.28125 53.078125 
" id="DejaVuSans-73"/>
    </defs>
    <g transform="translate(347.810625 45.84)scale(0.12 -0.12)">
     <use xlink:href="#DejaVuSans-56"/>
     <use x="68.298828" xlink:href="#DejaVuSans-61"/>
     <use x="129.578125" xlink:href="#DejaVuSans-6c"/>
     <use x="157.361328" xlink:href="#DejaVuSans-69"/>
     <use x="185.144531" xlink:href="#DejaVuSans-64"/>
     <use x="248.621094" xlink:href="#DejaVuSans-61"/>
     <use x="309.900391" xlink:href="#DejaVuSans-74"/>
     <use x="349.109375" xlink:href="#DejaVuSans-69"/>
     <use x="376.892578" xlink:href="#DejaVuSans-6f"/>
     <use x="438.074219" xlink:href="#DejaVuSans-6e"/>
     <use x="501.453125" xlink:href="#DejaVuSans-20"/>
     <use x="533.240234" xlink:href="#DejaVuSans-45"/>
     <use x="596.423828" xlink:href="#DejaVuSans-72"/>
     <use x="637.521484" xlink:href="#DejaVuSans-72"/>
     <use x="678.603516" xlink:href="#DejaVuSans-6f"/>
     <use x="739.785156" xlink:href="#DejaVuSans-72"/>
     <use x="780.898438" xlink:href="#DejaVuSans-20"/>
     <use x="812.685547" xlink:href="#DejaVuSans-6f"/>
     <use x="873.867188" xlink:href="#DejaVuSans-76"/>
     <use x="933.046875" xlink:href="#DejaVuSans-65"/>
     <use x="994.570312" xlink:href="#DejaVuSans-72"/>
     <use x="1035.683594" xlink:href="#DejaVuSans-20"/>
     <use x="1067.470703" xlink:href="#DejaVuSans-32"/>
     <use x="1131.09375" xlink:href="#DejaVuSans-35"/>
     <use x="1194.716797" xlink:href="#DejaVuSans-20"/>
     <use x="1226.503906" xlink:href="#DejaVuSans-65"/>
     <use x="1288.027344" xlink:href="#DejaVuSans-70"/>
     <use x="1351.503906" xlink:href="#DejaVuSans-6f"/>
     <use x="1412.685547" xlink:href="#DejaVuSans-63"/>
     <use x="1467.666016" xlink:href="#DejaVuSans-68"/>
     <use x="1531.044922" xlink:href="#DejaVuSans-73"/>
    </g>
   </g>
   <g id="legend_1">
    <g id="patch_7">
     <path d="M 587.004688 162.586875 
L 770.6 162.586875 
Q 772.6 162.586875 772.6 160.586875 
L 772.6 58.84 
Q 772.6 56.84 770.6 56.84 
L 587.004688 56.84 
Q 585.004688 56.84 585.004688 58.84 
L 585.004688 160.586875 
Q 585.004688 162.586875 587.004688 162.586875 
z
" style="fill:#ffffff;opacity:0.8;stroke:#cccccc;stroke-linejoin:miter;"/>
    </g>
    <g id="line2d_49">
     <path d="M 589.004688 64.938437 
L 609.004688 64.938437 
" style="fill:none;stroke:#1f77b4;stroke-linecap:square;stroke-width:1.5;"/>
    </g>
    <g id="line2d_50"/>
    <g id="text_18">
     <!-- state size: 363, num steps: 4 -->
     <defs>
      <path d="M 5.515625 54.6875 
L 48.1875 54.6875 
L 48.1875 46.484375 
L 14.40625 7.171875 
L 48.1875 7.171875 
L 48.1875 0 
L 4.296875 0 
L 4.296875 8.203125 
L 38.09375 47.515625 
L 5.515625 47.515625 
z
" id="DejaVuSans-7a"/>
      <path d="M 11.71875 12.40625 
L 22.015625 12.40625 
L 22.015625 0 
L 11.71875 0 
z
M 11.71875 51.703125 
L 22.015625 51.703125 
L 22.015625 39.3125 
L 11.71875 39.3125 
z
" id="DejaVuSans-3a"/>
      <path d="M 11.71875 12.40625 
L 22.015625 12.40625 
L 22.015625 4 
L 14.015625 -11.625 
L 7.71875 -11.625 
L 11.71875 4 
z
" id="DejaVuSans-2c"/>
     </defs>
     <g transform="translate(617.004688 68.438437)scale(0.1 -0.1)">
      <use xlink:href="#DejaVuSans-73"/>
      <use x="52.099609" xlink:href="#DejaVuSans-74"/>
      <use x="91.308594" xlink:href="#DejaVuSans-61"/>
      <use x="152.587891" xlink:href="#DejaVuSans-74"/>
      <use x="191.796875" xlink:href="#DejaVuSans-65"/>
      <use x="253.320312" xlink:href="#DejaVuSans-20"/>
      <use x="285.107422" xlink:href="#DejaVuSans-73"/>
      <use x="337.207031" xlink:href="#DejaVuSans-69"/>
      <use x="364.990234" xlink:href="#DejaVuSans-7a"/>
      <use x="417.480469" xlink:href="#DejaVuSans-65"/>
      <use x="479.003906" xlink:href="#DejaVuSans-3a"/>
      <use x="512.695312" xlink:href="#DejaVuSans-20"/>
      <use x="544.482422" xlink:href="#DejaVuSans-33"/>
      <use x="608.105469" xlink:href="#DejaVuSans-36"/>
      <use x="671.728516" xlink:href="#DejaVuSans-33"/>
      <use x="735.351562" xlink:href="#DejaVuSans-2c"/>
      <use x="767.138672" xlink:href="#DejaVuSans-20"/>
      <use x="798.925781" xlink:href="#DejaVuSans-6e"/>
      <use x="862.304688" xlink:href="#DejaVuSans-75"/>
      <use x="925.683594" xlink:href="#DejaVuSans-6d"/>
      <use x="1023.095703" xlink:href="#DejaVuSans-20"/>
      <use x="1054.882812" xlink:href="#DejaVuSans-73"/>
      <use x="1106.982422" xlink:href="#DejaVuSans-74"/>
      <use x="1146.191406" xlink:href="#DejaVuSans-65"/>
      <use x="1207.714844" xlink:href="#DejaVuSans-70"/>
      <use x="1271.191406" xlink:href="#DejaVuSans-73"/>
      <use x="1323.291016" xlink:href="#DejaVuSans-3a"/>
      <use x="1356.982422" xlink:href="#DejaVuSans-20"/>
      <use x="1388.769531" xlink:href="#DejaVuSans-34"/>
     </g>
    </g>
    <g id="line2d_51">
     <path d="M 589.004688 79.616562 
L 609.004688 79.616562 
" style="fill:none;stroke:#ff7f0e;stroke-linecap:square;stroke-width:1.5;"/>
    </g>
    <g id="line2d_52"/>
    <g id="text_19">
     <!-- state size: 325, num steps: 6 -->
     <g transform="translate(617.004688 83.116562)scale(0.1 -0.1)">
      <use xlink:href="#DejaVuSans-73"/>
      <use x="52.099609" xlink:href="#DejaVuSans-74"/>
      <use x="91.308594" xlink:href="#DejaVuSans-61"/>
      <use x="152.587891" xlink:href="#DejaVuSans-74"/>
      <use x="191.796875" xlink:href="#DejaVuSans-65"/>
      <use x="253.320312" xlink:href="#DejaVuSans-20"/>
      <use x="285.107422" xlink:href="#DejaVuSans-73"/>
      <use x="337.207031" xlink:href="#DejaVuSans-69"/>
      <use x="364.990234" xlink:href="#DejaVuSans-7a"/>
      <use x="417.480469" xlink:href="#DejaVuSans-65"/>
      <use x="479.003906" xlink:href="#DejaVuSans-3a"/>
      <use x="512.695312" xlink:href="#DejaVuSans-20"/>
      <use x="544.482422" xlink:href="#DejaVuSans-33"/>
      <use x="608.105469" xlink:href="#DejaVuSans-32"/>
      <use x="671.728516" xlink:href="#DejaVuSans-35"/>
      <use x="735.351562" xlink:href="#DejaVuSans-2c"/>
      <use x="767.138672" xlink:href="#DejaVuSans-20"/>
      <use x="798.925781" xlink:href="#DejaVuSans-6e"/>
      <use x="862.304688" xlink:href="#DejaVuSans-75"/>
      <use x="925.683594" xlink:href="#DejaVuSans-6d"/>
      <use x="1023.095703" xlink:href="#DejaVuSans-20"/>
      <use x="1054.882812" xlink:href="#DejaVuSans-73"/>
      <use x="1106.982422" xlink:href="#DejaVuSans-74"/>
      <use x="1146.191406" xlink:href="#DejaVuSans-65"/>
      <use x="1207.714844" xlink:href="#DejaVuSans-70"/>
      <use x="1271.191406" xlink:href="#DejaVuSans-73"/>
      <use x="1323.291016" xlink:href="#DejaVuSans-3a"/>
      <use x="1356.982422" xlink:href="#DejaVuSans-20"/>
      <use x="1388.769531" xlink:href="#DejaVuSans-36"/>
     </g>
    </g>
    <g id="line2d_53">
     <path d="M 589.004688 94.294687 
L 609.004688 94.294687 
" style="fill:none;stroke:#2ca02c;stroke-linecap:square;stroke-width:1.5;"/>
    </g>
    <g id="line2d_54"/>
    <g id="text_20">
     <!-- state size: 321, num steps: 4 -->
     <g transform="translate(617.004688 97.794687)scale(0.1 -0.1)">
      <use xlink:href="#DejaVuSans-73"/>
      <use x="52.099609" xlink:href="#DejaVuSans-74"/>
      <use x="91.308594" xlink:href="#DejaVuSans-61"/>
      <use x="152.587891" xlink:href="#DejaVuSans-74"/>
      <use x="191.796875" xlink:href="#DejaVuSans-65"/>
      <use x="253.320312" xlink:href="#DejaVuSans-20"/>
      <use x="285.107422" xlink:href="#DejaVuSans-73"/>
      <use x="337.207031" xlink:href="#DejaVuSans-69"/>
      <use x="364.990234" xlink:href="#DejaVuSans-7a"/>
      <use x="417.480469" xlink:href="#DejaVuSans-65"/>
      <use x="479.003906" xlink:href="#DejaVuSans-3a"/>
      <use x="512.695312" xlink:href="#DejaVuSans-20"/>
      <use x="544.482422" xlink:href="#DejaVuSans-33"/>
      <use x="608.105469" xlink:href="#DejaVuSans-32"/>
      <use x="671.728516" xlink:href="#DejaVuSans-31"/>
      <use x="735.351562" xlink:href="#DejaVuSans-2c"/>
      <use x="767.138672" xlink:href="#DejaVuSans-20"/>
      <use x="798.925781" xlink:href="#DejaVuSans-6e"/>
      <use x="862.304688" xlink:href="#DejaVuSans-75"/>
      <use x="925.683594" xlink:href="#DejaVuSans-6d"/>
      <use x="1023.095703" xlink:href="#DejaVuSans-20"/>
      <use x="1054.882812" xlink:href="#DejaVuSans-73"/>
      <use x="1106.982422" xlink:href="#DejaVuSans-74"/>
      <use x="1146.191406" xlink:href="#DejaVuSans-65"/>
      <use x="1207.714844" xlink:href="#DejaVuSans-70"/>
      <use x="1271.191406" xlink:href="#DejaVuSans-73"/>
      <use x="1323.291016" xlink:href="#DejaVuSans-3a"/>
      <use x="1356.982422" xlink:href="#DejaVuSans-20"/>
      <use x="1388.769531" xlink:href="#DejaVuSans-34"/>
     </g>
    </g>
    <g id="line2d_55">
     <path d="M 589.004688 108.972812 
L 609.004688 108.972812 
" style="fill:none;stroke:#d62728;stroke-linecap:square;stroke-width:1.5;"/>
    </g>
    <g id="line2d_56"/>
    <g id="text_21">
     <!-- state size: 500, num steps: 12 -->
     <g transform="translate(617.004688 112.472812)scale(0.1 -0.1)">
      <use xlink:href="#DejaVuSans-73"/>
      <use x="52.099609" xlink:href="#DejaVuSans-74"/>
      <use x="91.308594" xlink:href="#DejaVuSans-61"/>
      <use x="152.587891" xlink:href="#DejaVuSans-74"/>
      <use x="191.796875" xlink:href="#DejaVuSans-65"/>
      <use x="253.320312" xlink:href="#DejaVuSans-20"/>
      <use x="285.107422" xlink:href="#DejaVuSans-73"/>
      <use x="337.207031" xlink:href="#DejaVuSans-69"/>
      <use x="364.990234" xlink:href="#DejaVuSans-7a"/>
      <use x="417.480469" xlink:href="#DejaVuSans-65"/>
      <use x="479.003906" xlink:href="#DejaVuSans-3a"/>
      <use x="512.695312" xlink:href="#DejaVuSans-20"/>
      <use x="544.482422" xlink:href="#DejaVuSans-35"/>
      <use x="608.105469" xlink:href="#DejaVuSans-30"/>
      <use x="671.728516" xlink:href="#DejaVuSans-30"/>
      <use x="735.351562" xlink:href="#DejaVuSans-2c"/>
      <use x="767.138672" xlink:href="#DejaVuSans-20"/>
      <use x="798.925781" xlink:href="#DejaVuSans-6e"/>
      <use x="862.304688" xlink:href="#DejaVuSans-75"/>
      <use x="925.683594" xlink:href="#DejaVuSans-6d"/>
      <use x="1023.095703" xlink:href="#DejaVuSans-20"/>
      <use x="1054.882812" xlink:href="#DejaVuSans-73"/>
      <use x="1106.982422" xlink:href="#DejaVuSans-74"/>
      <use x="1146.191406" xlink:href="#DejaVuSans-65"/>
      <use x="1207.714844" xlink:href="#DejaVuSans-70"/>
      <use x="1271.191406" xlink:href="#DejaVuSans-73"/>
      <use x="1323.291016" xlink:href="#DejaVuSans-3a"/>
      <use x="1356.982422" xlink:href="#DejaVuSans-20"/>
      <use x="1388.769531" xlink:href="#DejaVuSans-31"/>
      <use x="1452.392578" xlink:href="#DejaVuSans-32"/>
     </g>
    </g>
    <g id="line2d_57">
     <path d="M 589.004688 123.650937 
L 609.004688 123.650937 
" style="fill:none;stroke:#9467bd;stroke-linecap:square;stroke-width:1.5;"/>
    </g>
    <g id="line2d_58"/>
    <g id="text_22">
     <!-- state size: 340, num steps: 4 -->
     <g transform="translate(617.004688 127.150937)scale(0.1 -0.1)">
      <use xlink:href="#DejaVuSans-73"/>
      <use x="52.099609" xlink:href="#DejaVuSans-74"/>
      <use x="91.308594" xlink:href="#DejaVuSans-61"/>
      <use x="152.587891" xlink:href="#DejaVuSans-74"/>
      <use x="191.796875" xlink:href="#DejaVuSans-65"/>
      <use x="253.320312" xlink:href="#DejaVuSans-20"/>
      <use x="285.107422" xlink:href="#DejaVuSans-73"/>
      <use x="337.207031" xlink:href="#DejaVuSans-69"/>
      <use x="364.990234" xlink:href="#DejaVuSans-7a"/>
      <use x="417.480469" xlink:href="#DejaVuSans-65"/>
      <use x="479.003906" xlink:href="#DejaVuSans-3a"/>
      <use x="512.695312" xlink:href="#DejaVuSans-20"/>
      <use x="544.482422" xlink:href="#DejaVuSans-33"/>
      <use x="608.105469" xlink:href="#DejaVuSans-34"/>
      <use x="671.728516" xlink:href="#DejaVuSans-30"/>
      <use x="735.351562" xlink:href="#DejaVuSans-2c"/>
      <use x="767.138672" xlink:href="#DejaVuSans-20"/>
      <use x="798.925781" xlink:href="#DejaVuSans-6e"/>
      <use x="862.304688" xlink:href="#DejaVuSans-75"/>
      <use x="925.683594" xlink:href="#DejaVuSans-6d"/>
      <use x="1023.095703" xlink:href="#DejaVuSans-20"/>
      <use x="1054.882812" xlink:href="#DejaVuSans-73"/>
      <use x="1106.982422" xlink:href="#DejaVuSans-74"/>
      <use x="1146.191406" xlink:href="#DejaVuSans-65"/>
      <use x="1207.714844" xlink:href="#DejaVuSans-70"/>
      <use x="1271.191406" xlink:href="#DejaVuSans-73"/>
      <use x="1323.291016" xlink:href="#DejaVuSans-3a"/>
      <use x="1356.982422" xlink:href="#DejaVuSans-20"/>
      <use x="1388.769531" xlink:href="#DejaVuSans-34"/>
     </g>
    </g>
    <g id="line2d_59">
     <path d="M 589.004688 138.329062 
L 609.004688 138.329062 
" style="fill:none;stroke:#8c564b;stroke-linecap:square;stroke-width:1.5;"/>
    </g>
    <g id="line2d_60"/>
    <g id="text_23">
     <!-- state size: 322, num steps: 4 -->
     <g transform="translate(617.004688 141.829062)scale(0.1 -0.1)">
      <use xlink:href="#DejaVuSans-73"/>
      <use x="52.099609" xlink:href="#DejaVuSans-74"/>
      <use x="91.308594" xlink:href="#DejaVuSans-61"/>
      <use x="152.587891" xlink:href="#DejaVuSans-74"/>
      <use x="191.796875" xlink:href="#DejaVuSans-65"/>
      <use x="253.320312" xlink:href="#DejaVuSans-20"/>
      <use x="285.107422" xlink:href="#DejaVuSans-73"/>
      <use x="337.207031" xlink:href="#DejaVuSans-69"/>
      <use x="364.990234" xlink:href="#DejaVuSans-7a"/>
      <use x="417.480469" xlink:href="#DejaVuSans-65"/>
      <use x="479.003906" xlink:href="#DejaVuSans-3a"/>
      <use x="512.695312" xlink:href="#DejaVuSans-20"/>
      <use x="544.482422" xlink:href="#DejaVuSans-33"/>
      <use x="608.105469" xlink:href="#DejaVuSans-32"/>
      <use x="671.728516" xlink:href="#DejaVuSans-32"/>
      <use x="735.351562" xlink:href="#DejaVuSans-2c"/>
      <use x="767.138672" xlink:href="#DejaVuSans-20"/>
      <use x="798.925781" xlink:href="#DejaVuSans-6e"/>
      <use x="862.304688" xlink:href="#DejaVuSans-75"/>
      <use x="925.683594" xlink:href="#DejaVuSans-6d"/>
      <use x="1023.095703" xlink:href="#DejaVuSans-20"/>
      <use x="1054.882812" xlink:href="#DejaVuSans-73"/>
      <use x="1106.982422" xlink:href="#DejaVuSans-74"/>
      <use x="1146.191406" xlink:href="#DejaVuSans-65"/>
      <use x="1207.714844" xlink:href="#DejaVuSans-70"/>
      <use x="1271.191406" xlink:href="#DejaVuSans-73"/>
      <use x="1323.291016" xlink:href="#DejaVuSans-3a"/>
      <use x="1356.982422" xlink:href="#DejaVuSans-20"/>
      <use x="1388.769531" xlink:href="#DejaVuSans-34"/>
     </g>
    </g>
    <g id="line2d_61">
     <path d="M 589.004688 153.007187 
L 609.004688 153.007187 
" style="fill:none;stroke:#e377c2;stroke-linecap:square;stroke-width:1.5;"/>
    </g>
    <g id="line2d_62"/>
    <g id="text_24">
     <!-- state size: 349, num steps: 15 -->
     <g transform="translate(617.004688 156.507187)scale(0.1 -0.1)">
      <use xlink:href="#DejaVuSans-73"/>
      <use x="52.099609" xlink:href="#DejaVuSans-74"/>
      <use x="91.308594" xlink:href="#DejaVuSans-61"/>
      <use x="152.587891" xlink:href="#DejaVuSans-74"/>
      <use x="191.796875" xlink:href="#DejaVuSans-65"/>
      <use x="253.320312" xlink:href="#DejaVuSans-20"/>
      <use x="285.107422" xlink:href="#DejaVuSans-73"/>
      <use x="337.207031" xlink:href="#DejaVuSans-69"/>
      <use x="364.990234" xlink:href="#DejaVuSans-7a"/>
      <use x="417.480469" xlink:href="#DejaVuSans-65"/>
      <use x="479.003906" xlink:href="#DejaVuSans-3a"/>
      <use x="512.695312" xlink:href="#DejaVuSans-20"/>
      <use x="544.482422" xlink:href="#DejaVuSans-33"/>
      <use x="608.105469" xlink:href="#DejaVuSans-34"/>
      <use x="671.728516" xlink:href="#DejaVuSans-39"/>
      <use x="735.351562" xlink:href="#DejaVuSans-2c"/>
      <use x="767.138672" xlink:href="#DejaVuSans-20"/>
      <use x="798.925781" xlink:href="#DejaVuSans-6e"/>
      <use x="862.304688" xlink:href="#DejaVuSans-75"/>
      <use x="925.683594" xlink:href="#DejaVuSans-6d"/>
      <use x="1023.095703" xlink:href="#DejaVuSans-20"/>
      <use x="1054.882812" xlink:href="#DejaVuSans-73"/>
      <use x="1106.982422" xlink:href="#DejaVuSans-74"/>
      <use x="1146.191406" xlink:href="#DejaVuSans-65"/>
      <use x="1207.714844" xlink:href="#DejaVuSans-70"/>
      <use x="1271.191406" xlink:href="#DejaVuSans-73"/>
      <use x="1323.291016" xlink:href="#DejaVuSans-3a"/>
      <use x="1356.982422" xlink:href="#DejaVuSans-20"/>
      <use x="1388.769531" xlink:href="#DejaVuSans-31"/>
      <use x="1452.392578" xlink:href="#DejaVuSans-35"/>
     </g>
    </g>
   </g>
  </g>
 </g>
 <defs>
  <clipPath id="p8a20459e0a">
   <rect height="326.16" width="669.6" x="108" y="51.84"/>
  </clipPath>
 </defs>
</svg>
