<?xml version="1.0" encoding="utf-8" standalone="no"?>
<!DOCTYPE svg PUBLIC "-//W3C//DTD SVG 1.1//EN"
  "http://www.w3.org/Graphics/SVG/1.1/DTD/svg11.dtd">
<!-- Created with matplotlib (http://matplotlib.org/) -->
<svg height="432pt" version="1.1" viewBox="0 0 864 432" width="864pt" xmlns="http://www.w3.org/2000/svg" xmlns:xlink="http://www.w3.org/1999/xlink">
 <defs>
  <style type="text/css">
*{stroke-linecap:butt;stroke-linejoin:round;}
  </style>
 </defs>
 <g id="figure_1">
  <g id="patch_1">
   <path d="M 0 432 
L 864 432 
L 864 0 
L 0 0 
z
" style="fill:#ffffff;"/>
  </g>
  <g id="axes_1">
   <g id="patch_2">
    <path d="M 108 378 
L 777.6 378 
L 777.6 51.84 
L 108 51.84 
z
" style="fill:#ffffff;"/>
   </g>
   <g id="matplotlib.axis_1">
    <g id="xtick_1">
     <g id="line2d_1">
      <path clip-path="url(#p67c37d574c)" d="M 189.163636 378 
L 189.163636 51.84 
" style="fill:none;stroke:#b0b0b0;stroke-linecap:square;stroke-width:0.8;"/>
     </g>
     <g id="line2d_2">
      <defs>
       <path d="M 0 0 
L 0 3.5 
" id="m581dfe3c8c" style="stroke:#000000;stroke-width:0.8;"/>
      </defs>
      <g>
       <use style="stroke:#000000;stroke-width:0.8;" x="189.163636" xlink:href="#m581dfe3c8c" y="378"/>
      </g>
     </g>
     <g id="text_1">
      <!-- 2.5 -->
      <defs>
       <path d="M 19.1875 8.296875 
L 53.609375 8.296875 
L 53.609375 0 
L 7.328125 0 
L 7.328125 8.296875 
Q 12.9375 14.109375 22.625 23.890625 
Q 32.328125 33.6875 34.8125 36.53125 
Q 39.546875 41.84375 41.421875 45.53125 
Q 43.3125 49.21875 43.3125 52.78125 
Q 43.3125 58.59375 39.234375 62.25 
Q 35.15625 65.921875 28.609375 65.921875 
Q 23.96875 65.921875 18.8125 64.3125 
Q 13.671875 62.703125 7.8125 59.421875 
L 7.8125 69.390625 
Q 13.765625 71.78125 18.9375 73 
Q 24.125 74.21875 28.421875 74.21875 
Q 39.75 74.21875 46.484375 68.546875 
Q 53.21875 62.890625 53.21875 53.421875 
Q 53.21875 48.921875 51.53125 44.890625 
Q 49.859375 40.875 45.40625 35.40625 
Q 44.1875 33.984375 37.640625 27.21875 
Q 31.109375 20.453125 19.1875 8.296875 
" id="DejaVuSans-32"/>
       <path d="M 10.6875 12.40625 
L 21 12.40625 
L 21 0 
L 10.6875 0 
z
" id="DejaVuSans-2e"/>
       <path d="M 10.796875 72.90625 
L 49.515625 72.90625 
L 49.515625 64.59375 
L 19.828125 64.59375 
L 19.828125 46.734375 
Q 21.96875 47.46875 24.109375 47.828125 
Q 26.265625 48.1875 28.421875 48.1875 
Q 40.625 48.1875 47.75 41.5 
Q 54.890625 34.8125 54.890625 23.390625 
Q 54.890625 11.625 47.5625 5.09375 
Q 40.234375 -1.421875 26.90625 -1.421875 
Q 22.3125 -1.421875 17.546875 -0.640625 
Q 12.796875 0.140625 7.71875 1.703125 
L 7.71875 11.625 
Q 12.109375 9.234375 16.796875 8.0625 
Q 21.484375 6.890625 26.703125 6.890625 
Q 35.15625 6.890625 40.078125 11.328125 
Q 45.015625 15.765625 45.015625 23.390625 
Q 45.015625 31 40.078125 35.4375 
Q 35.15625 39.890625 26.703125 39.890625 
Q 22.75 39.890625 18.8125 39.015625 
Q 14.890625 38.140625 10.796875 36.28125 
z
" id="DejaVuSans-35"/>
      </defs>
      <g transform="translate(181.212074 392.598437)scale(0.1 -0.1)">
       <use xlink:href="#DejaVuSans-32"/>
       <use x="63.623047" xlink:href="#DejaVuSans-2e"/>
       <use x="95.410156" xlink:href="#DejaVuSans-35"/>
      </g>
     </g>
    </g>
    <g id="xtick_2">
     <g id="line2d_3">
      <path clip-path="url(#p67c37d574c)" d="M 273.709091 378 
L 273.709091 51.84 
" style="fill:none;stroke:#b0b0b0;stroke-linecap:square;stroke-width:0.8;"/>
     </g>
     <g id="line2d_4">
      <g>
       <use style="stroke:#000000;stroke-width:0.8;" x="273.709091" xlink:href="#m581dfe3c8c" y="378"/>
      </g>
     </g>
     <g id="text_2">
      <!-- 5.0 -->
      <defs>
       <path d="M 31.78125 66.40625 
Q 24.171875 66.40625 20.328125 58.90625 
Q 16.5 51.421875 16.5 36.375 
Q 16.5 21.390625 20.328125 13.890625 
Q 24.171875 6.390625 31.78125 6.390625 
Q 39.453125 6.390625 43.28125 13.890625 
Q 47.125 21.390625 47.125 36.375 
Q 47.125 51.421875 43.28125 58.90625 
Q 39.453125 66.40625 31.78125 66.40625 
M 31.78125 74.21875 
Q 44.046875 74.21875 50.515625 64.515625 
Q 56.984375 54.828125 56.984375 36.375 
Q 56.984375 17.96875 50.515625 8.265625 
Q 44.046875 -1.421875 31.78125 -1.421875 
Q 19.53125 -1.421875 13.0625 8.265625 
Q 6.59375 17.96875 6.59375 36.375 
Q 6.59375 54.828125 13.0625 64.515625 
Q 19.53125 74.21875 31.78125 74.21875 
" id="DejaVuSans-30"/>
      </defs>
      <g transform="translate(265.757528 392.598437)scale(0.1 -0.1)">
       <use xlink:href="#DejaVuSans-35"/>
       <use x="63.623047" xlink:href="#DejaVuSans-2e"/>
       <use x="95.410156" xlink:href="#DejaVuSans-30"/>
      </g>
     </g>
    </g>
    <g id="xtick_3">
     <g id="line2d_5">
      <path clip-path="url(#p67c37d574c)" d="M 358.254545 378 
L 358.254545 51.84 
" style="fill:none;stroke:#b0b0b0;stroke-linecap:square;stroke-width:0.8;"/>
     </g>
     <g id="line2d_6">
      <g>
       <use style="stroke:#000000;stroke-width:0.8;" x="358.254545" xlink:href="#m581dfe3c8c" y="378"/>
      </g>
     </g>
     <g id="text_3">
      <!-- 7.5 -->
      <defs>
       <path d="M 8.203125 72.90625 
L 55.078125 72.90625 
L 55.078125 68.703125 
L 28.609375 0 
L 18.3125 0 
L 43.21875 64.59375 
L 8.203125 64.59375 
z
" id="DejaVuSans-37"/>
      </defs>
      <g transform="translate(350.302983 392.598437)scale(0.1 -0.1)">
       <use xlink:href="#DejaVuSans-37"/>
       <use x="63.623047" xlink:href="#DejaVuSans-2e"/>
       <use x="95.410156" xlink:href="#DejaVuSans-35"/>
      </g>
     </g>
    </g>
    <g id="xtick_4">
     <g id="line2d_7">
      <path clip-path="url(#p67c37d574c)" d="M 442.8 378 
L 442.8 51.84 
" style="fill:none;stroke:#b0b0b0;stroke-linecap:square;stroke-width:0.8;"/>
     </g>
     <g id="line2d_8">
      <g>
       <use style="stroke:#000000;stroke-width:0.8;" x="442.8" xlink:href="#m581dfe3c8c" y="378"/>
      </g>
     </g>
     <g id="text_4">
      <!-- 10.0 -->
      <defs>
       <path d="M 12.40625 8.296875 
L 28.515625 8.296875 
L 28.515625 63.921875 
L 10.984375 60.40625 
L 10.984375 69.390625 
L 28.421875 72.90625 
L 38.28125 72.90625 
L 38.28125 8.296875 
L 54.390625 8.296875 
L 54.390625 0 
L 12.40625 0 
z
" id="DejaVuSans-31"/>
      </defs>
      <g transform="translate(431.667188 392.598437)scale(0.1 -0.1)">
       <use xlink:href="#DejaVuSans-31"/>
       <use x="63.623047" xlink:href="#DejaVuSans-30"/>
       <use x="127.246094" xlink:href="#DejaVuSans-2e"/>
       <use x="159.033203" xlink:href="#DejaVuSans-30"/>
      </g>
     </g>
    </g>
    <g id="xtick_5">
     <g id="line2d_9">
      <path clip-path="url(#p67c37d574c)" d="M 527.345455 378 
L 527.345455 51.84 
" style="fill:none;stroke:#b0b0b0;stroke-linecap:square;stroke-width:0.8;"/>
     </g>
     <g id="line2d_10">
      <g>
       <use style="stroke:#000000;stroke-width:0.8;" x="527.345455" xlink:href="#m581dfe3c8c" y="378"/>
      </g>
     </g>
     <g id="text_5">
      <!-- 12.5 -->
      <g transform="translate(516.212642 392.598437)scale(0.1 -0.1)">
       <use xlink:href="#DejaVuSans-31"/>
       <use x="63.623047" xlink:href="#DejaVuSans-32"/>
       <use x="127.246094" xlink:href="#DejaVuSans-2e"/>
       <use x="159.033203" xlink:href="#DejaVuSans-35"/>
      </g>
     </g>
    </g>
    <g id="xtick_6">
     <g id="line2d_11">
      <path clip-path="url(#p67c37d574c)" d="M 611.890909 378 
L 611.890909 51.84 
" style="fill:none;stroke:#b0b0b0;stroke-linecap:square;stroke-width:0.8;"/>
     </g>
     <g id="line2d_12">
      <g>
       <use style="stroke:#000000;stroke-width:0.8;" x="611.890909" xlink:href="#m581dfe3c8c" y="378"/>
      </g>
     </g>
     <g id="text_6">
      <!-- 15.0 -->
      <g transform="translate(600.758097 392.598437)scale(0.1 -0.1)">
       <use xlink:href="#DejaVuSans-31"/>
       <use x="63.623047" xlink:href="#DejaVuSans-35"/>
       <use x="127.246094" xlink:href="#DejaVuSans-2e"/>
       <use x="159.033203" xlink:href="#DejaVuSans-30"/>
      </g>
     </g>
    </g>
    <g id="xtick_7">
     <g id="line2d_13">
      <path clip-path="url(#p67c37d574c)" d="M 696.436364 378 
L 696.436364 51.84 
" style="fill:none;stroke:#b0b0b0;stroke-linecap:square;stroke-width:0.8;"/>
     </g>
     <g id="line2d_14">
      <g>
       <use style="stroke:#000000;stroke-width:0.8;" x="696.436364" xlink:href="#m581dfe3c8c" y="378"/>
      </g>
     </g>
     <g id="text_7">
      <!-- 17.5 -->
      <g transform="translate(685.303551 392.598437)scale(0.1 -0.1)">
       <use xlink:href="#DejaVuSans-31"/>
       <use x="63.623047" xlink:href="#DejaVuSans-37"/>
       <use x="127.246094" xlink:href="#DejaVuSans-2e"/>
       <use x="159.033203" xlink:href="#DejaVuSans-35"/>
      </g>
     </g>
    </g>
    <g id="text_8">
     <!-- Epoch number -->
     <defs>
      <path d="M 9.8125 72.90625 
L 55.90625 72.90625 
L 55.90625 64.59375 
L 19.671875 64.59375 
L 19.671875 43.015625 
L 54.390625 43.015625 
L 54.390625 34.71875 
L 19.671875 34.71875 
L 19.671875 8.296875 
L 56.78125 8.296875 
L 56.78125 0 
L 9.8125 0 
z
" id="DejaVuSans-45"/>
      <path d="M 18.109375 8.203125 
L 18.109375 -20.796875 
L 9.078125 -20.796875 
L 9.078125 54.6875 
L 18.109375 54.6875 
L 18.109375 46.390625 
Q 20.953125 51.265625 25.265625 53.625 
Q 29.59375 56 35.59375 56 
Q 45.5625 56 51.78125 48.09375 
Q 58.015625 40.1875 58.015625 27.296875 
Q 58.015625 14.40625 51.78125 6.484375 
Q 45.5625 -1.421875 35.59375 -1.421875 
Q 29.59375 -1.421875 25.265625 0.953125 
Q 20.953125 3.328125 18.109375 8.203125 
M 48.6875 27.296875 
Q 48.6875 37.203125 44.609375 42.84375 
Q 40.53125 48.484375 33.40625 48.484375 
Q 26.265625 48.484375 22.1875 42.84375 
Q 18.109375 37.203125 18.109375 27.296875 
Q 18.109375 17.390625 22.1875 11.75 
Q 26.265625 6.109375 33.40625 6.109375 
Q 40.53125 6.109375 44.609375 11.75 
Q 48.6875 17.390625 48.6875 27.296875 
" id="DejaVuSans-70"/>
      <path d="M 30.609375 48.390625 
Q 23.390625 48.390625 19.1875 42.75 
Q 14.984375 37.109375 14.984375 27.296875 
Q 14.984375 17.484375 19.15625 11.84375 
Q 23.34375 6.203125 30.609375 6.203125 
Q 37.796875 6.203125 41.984375 11.859375 
Q 46.1875 17.53125 46.1875 27.296875 
Q 46.1875 37.015625 41.984375 42.703125 
Q 37.796875 48.390625 30.609375 48.390625 
M 30.609375 56 
Q 42.328125 56 49.015625 48.375 
Q 55.71875 40.765625 55.71875 27.296875 
Q 55.71875 13.875 49.015625 6.21875 
Q 42.328125 -1.421875 30.609375 -1.421875 
Q 18.84375 -1.421875 12.171875 6.21875 
Q 5.515625 13.875 5.515625 27.296875 
Q 5.515625 40.765625 12.171875 48.375 
Q 18.84375 56 30.609375 56 
" id="DejaVuSans-6f"/>
      <path d="M 48.78125 52.59375 
L 48.78125 44.1875 
Q 44.96875 46.296875 41.140625 47.34375 
Q 37.3125 48.390625 33.40625 48.390625 
Q 24.65625 48.390625 19.8125 42.84375 
Q 14.984375 37.3125 14.984375 27.296875 
Q 14.984375 17.28125 19.8125 11.734375 
Q 24.65625 6.203125 33.40625 6.203125 
Q 37.3125 6.203125 41.140625 7.25 
Q 44.96875 8.296875 48.78125 10.40625 
L 48.78125 2.09375 
Q 45.015625 0.34375 40.984375 -0.53125 
Q 36.96875 -1.421875 32.421875 -1.421875 
Q 20.0625 -1.421875 12.78125 6.34375 
Q 5.515625 14.109375 5.515625 27.296875 
Q 5.515625 40.671875 12.859375 48.328125 
Q 20.21875 56 33.015625 56 
Q 37.15625 56 41.109375 55.140625 
Q 45.0625 54.296875 48.78125 52.59375 
" id="DejaVuSans-63"/>
      <path d="M 54.890625 33.015625 
L 54.890625 0 
L 45.90625 0 
L 45.90625 32.71875 
Q 45.90625 40.484375 42.875 44.328125 
Q 39.84375 48.1875 33.796875 48.1875 
Q 26.515625 48.1875 22.3125 43.546875 
Q 18.109375 38.921875 18.109375 30.90625 
L 18.109375 0 
L 9.078125 0 
L 9.078125 75.984375 
L 18.109375 75.984375 
L 18.109375 46.1875 
Q 21.34375 51.125 25.703125 53.5625 
Q 30.078125 56 35.796875 56 
Q 45.21875 56 50.046875 50.171875 
Q 54.890625 44.34375 54.890625 33.015625 
" id="DejaVuSans-68"/>
      <path id="DejaVuSans-20"/>
      <path d="M 54.890625 33.015625 
L 54.890625 0 
L 45.90625 0 
L 45.90625 32.71875 
Q 45.90625 40.484375 42.875 44.328125 
Q 39.84375 48.1875 33.796875 48.1875 
Q 26.515625 48.1875 22.3125 43.546875 
Q 18.109375 38.921875 18.109375 30.90625 
L 18.109375 0 
L 9.078125 0 
L 9.078125 54.6875 
L 18.109375 54.6875 
L 18.109375 46.1875 
Q 21.34375 51.125 25.703125 53.5625 
Q 30.078125 56 35.796875 56 
Q 45.21875 56 50.046875 50.171875 
Q 54.890625 44.34375 54.890625 33.015625 
" id="DejaVuSans-6e"/>
      <path d="M 8.5 21.578125 
L 8.5 54.6875 
L 17.484375 54.6875 
L 17.484375 21.921875 
Q 17.484375 14.15625 20.5 10.265625 
Q 23.53125 6.390625 29.59375 6.390625 
Q 36.859375 6.390625 41.078125 11.03125 
Q 45.3125 15.671875 45.3125 23.6875 
L 45.3125 54.6875 
L 54.296875 54.6875 
L 54.296875 0 
L 45.3125 0 
L 45.3125 8.40625 
Q 42.046875 3.421875 37.71875 1 
Q 33.40625 -1.421875 27.6875 -1.421875 
Q 18.265625 -1.421875 13.375 4.4375 
Q 8.5 10.296875 8.5 21.578125 
M 31.109375 56 
z
" id="DejaVuSans-75"/>
      <path d="M 52 44.1875 
Q 55.375 50.25 60.0625 53.125 
Q 64.75 56 71.09375 56 
Q 79.640625 56 84.28125 50.015625 
Q 88.921875 44.046875 88.921875 33.015625 
L 88.921875 0 
L 79.890625 0 
L 79.890625 32.71875 
Q 79.890625 40.578125 77.09375 44.375 
Q 74.3125 48.1875 68.609375 48.1875 
Q 61.625 48.1875 57.5625 43.546875 
Q 53.515625 38.921875 53.515625 30.90625 
L 53.515625 0 
L 44.484375 0 
L 44.484375 32.71875 
Q 44.484375 40.625 41.703125 44.40625 
Q 38.921875 48.1875 33.109375 48.1875 
Q 26.21875 48.1875 22.15625 43.53125 
Q 18.109375 38.875 18.109375 30.90625 
L 18.109375 0 
L 9.078125 0 
L 9.078125 54.6875 
L 18.109375 54.6875 
L 18.109375 46.1875 
Q 21.1875 51.21875 25.484375 53.609375 
Q 29.78125 56 35.6875 56 
Q 41.65625 56 45.828125 52.96875 
Q 50 49.953125 52 44.1875 
" id="DejaVuSans-6d"/>
      <path d="M 48.6875 27.296875 
Q 48.6875 37.203125 44.609375 42.84375 
Q 40.53125 48.484375 33.40625 48.484375 
Q 26.265625 48.484375 22.1875 42.84375 
Q 18.109375 37.203125 18.109375 27.296875 
Q 18.109375 17.390625 22.1875 11.75 
Q 26.265625 6.109375 33.40625 6.109375 
Q 40.53125 6.109375 44.609375 11.75 
Q 48.6875 17.390625 48.6875 27.296875 
M 18.109375 46.390625 
Q 20.953125 51.265625 25.265625 53.625 
Q 29.59375 56 35.59375 56 
Q 45.5625 56 51.78125 48.09375 
Q 58.015625 40.1875 58.015625 27.296875 
Q 58.015625 14.40625 51.78125 6.484375 
Q 45.5625 -1.421875 35.59375 -1.421875 
Q 29.59375 -1.421875 25.265625 0.953125 
Q 20.953125 3.328125 18.109375 8.203125 
L 18.109375 0 
L 9.078125 0 
L 9.078125 75.984375 
L 18.109375 75.984375 
z
" id="DejaVuSans-62"/>
      <path d="M 56.203125 29.59375 
L 56.203125 25.203125 
L 14.890625 25.203125 
Q 15.484375 15.921875 20.484375 11.0625 
Q 25.484375 6.203125 34.421875 6.203125 
Q 39.59375 6.203125 44.453125 7.46875 
Q 49.3125 8.734375 54.109375 11.28125 
L 54.109375 2.78125 
Q 49.265625 0.734375 44.1875 -0.34375 
Q 39.109375 -1.421875 33.890625 -1.421875 
Q 20.796875 -1.421875 13.15625 6.1875 
Q 5.515625 13.8125 5.515625 26.8125 
Q 5.515625 40.234375 12.765625 48.109375 
Q 20.015625 56 32.328125 56 
Q 43.359375 56 49.78125 48.890625 
Q 56.203125 41.796875 56.203125 29.59375 
M 47.21875 32.234375 
Q 47.125 39.59375 43.09375 43.984375 
Q 39.0625 48.390625 32.421875 48.390625 
Q 24.90625 48.390625 20.390625 44.140625 
Q 15.875 39.890625 15.1875 32.171875 
z
" id="DejaVuSans-65"/>
      <path d="M 41.109375 46.296875 
Q 39.59375 47.171875 37.8125 47.578125 
Q 36.03125 48 33.890625 48 
Q 26.265625 48 22.1875 43.046875 
Q 18.109375 38.09375 18.109375 28.8125 
L 18.109375 0 
L 9.078125 0 
L 9.078125 54.6875 
L 18.109375 54.6875 
L 18.109375 46.1875 
Q 20.953125 51.171875 25.484375 53.578125 
Q 30.03125 56 36.53125 56 
Q 37.453125 56 38.578125 55.875 
Q 39.703125 55.765625 41.0625 55.515625 
z
" id="DejaVuSans-72"/>
     </defs>
     <g transform="translate(406.385938 406.276563)scale(0.1 -0.1)">
      <use xlink:href="#DejaVuSans-45"/>
      <use x="63.183594" xlink:href="#DejaVuSans-70"/>
      <use x="126.660156" xlink:href="#DejaVuSans-6f"/>
      <use x="187.841797" xlink:href="#DejaVuSans-63"/>
      <use x="242.822266" xlink:href="#DejaVuSans-68"/>
      <use x="306.201172" xlink:href="#DejaVuSans-20"/>
      <use x="337.988281" xlink:href="#DejaVuSans-6e"/>
      <use x="401.367188" xlink:href="#DejaVuSans-75"/>
      <use x="464.746094" xlink:href="#DejaVuSans-6d"/>
      <use x="562.158203" xlink:href="#DejaVuSans-62"/>
      <use x="625.634766" xlink:href="#DejaVuSans-65"/>
      <use x="687.158203" xlink:href="#DejaVuSans-72"/>
     </g>
    </g>
   </g>
   <g id="matplotlib.axis_2">
    <g id="ytick_1">
     <g id="line2d_15">
      <path clip-path="url(#p67c37d574c)" d="M 108 348.155837 
L 777.6 348.155837 
" style="fill:none;stroke:#b0b0b0;stroke-linecap:square;stroke-width:0.8;"/>
     </g>
     <g id="line2d_16">
      <defs>
       <path d="M 0 0 
L -3.5 0 
" id="m8f0d945fe0" style="stroke:#000000;stroke-width:0.8;"/>
      </defs>
      <g>
       <use style="stroke:#000000;stroke-width:0.8;" x="108" xlink:href="#m8f0d945fe0" y="348.155837"/>
      </g>
     </g>
     <g id="text_9">
      <!-- 0.40 -->
      <defs>
       <path d="M 37.796875 64.3125 
L 12.890625 25.390625 
L 37.796875 25.390625 
z
M 35.203125 72.90625 
L 47.609375 72.90625 
L 47.609375 25.390625 
L 58.015625 25.390625 
L 58.015625 17.1875 
L 47.609375 17.1875 
L 47.609375 0 
L 37.796875 0 
L 37.796875 17.1875 
L 4.890625 17.1875 
L 4.890625 26.703125 
z
" id="DejaVuSans-34"/>
      </defs>
      <g transform="translate(78.734375 351.955056)scale(0.1 -0.1)">
       <use xlink:href="#DejaVuSans-30"/>
       <use x="63.623047" xlink:href="#DejaVuSans-2e"/>
       <use x="95.410156" xlink:href="#DejaVuSans-34"/>
       <use x="159.033203" xlink:href="#DejaVuSans-30"/>
      </g>
     </g>
    </g>
    <g id="ytick_2">
     <g id="line2d_17">
      <path clip-path="url(#p67c37d574c)" d="M 108 298.093519 
L 777.6 298.093519 
" style="fill:none;stroke:#b0b0b0;stroke-linecap:square;stroke-width:0.8;"/>
     </g>
     <g id="line2d_18">
      <g>
       <use style="stroke:#000000;stroke-width:0.8;" x="108" xlink:href="#m8f0d945fe0" y="298.093519"/>
      </g>
     </g>
     <g id="text_10">
      <!-- 0.45 -->
      <g transform="translate(78.734375 301.892738)scale(0.1 -0.1)">
       <use xlink:href="#DejaVuSans-30"/>
       <use x="63.623047" xlink:href="#DejaVuSans-2e"/>
       <use x="95.410156" xlink:href="#DejaVuSans-34"/>
       <use x="159.033203" xlink:href="#DejaVuSans-35"/>
      </g>
     </g>
    </g>
    <g id="ytick_3">
     <g id="line2d_19">
      <path clip-path="url(#p67c37d574c)" d="M 108 248.031202 
L 777.6 248.031202 
" style="fill:none;stroke:#b0b0b0;stroke-linecap:square;stroke-width:0.8;"/>
     </g>
     <g id="line2d_20">
      <g>
       <use style="stroke:#000000;stroke-width:0.8;" x="108" xlink:href="#m8f0d945fe0" y="248.031202"/>
      </g>
     </g>
     <g id="text_11">
      <!-- 0.50 -->
      <g transform="translate(78.734375 251.83042)scale(0.1 -0.1)">
       <use xlink:href="#DejaVuSans-30"/>
       <use x="63.623047" xlink:href="#DejaVuSans-2e"/>
       <use x="95.410156" xlink:href="#DejaVuSans-35"/>
       <use x="159.033203" xlink:href="#DejaVuSans-30"/>
      </g>
     </g>
    </g>
    <g id="ytick_4">
     <g id="line2d_21">
      <path clip-path="url(#p67c37d574c)" d="M 108 197.968884 
L 777.6 197.968884 
" style="fill:none;stroke:#b0b0b0;stroke-linecap:square;stroke-width:0.8;"/>
     </g>
     <g id="line2d_22">
      <g>
       <use style="stroke:#000000;stroke-width:0.8;" x="108" xlink:href="#m8f0d945fe0" y="197.968884"/>
      </g>
     </g>
     <g id="text_12">
      <!-- 0.55 -->
      <g transform="translate(78.734375 201.768103)scale(0.1 -0.1)">
       <use xlink:href="#DejaVuSans-30"/>
       <use x="63.623047" xlink:href="#DejaVuSans-2e"/>
       <use x="95.410156" xlink:href="#DejaVuSans-35"/>
       <use x="159.033203" xlink:href="#DejaVuSans-35"/>
      </g>
     </g>
    </g>
    <g id="ytick_5">
     <g id="line2d_23">
      <path clip-path="url(#p67c37d574c)" d="M 108 147.906566 
L 777.6 147.906566 
" style="fill:none;stroke:#b0b0b0;stroke-linecap:square;stroke-width:0.8;"/>
     </g>
     <g id="line2d_24">
      <g>
       <use style="stroke:#000000;stroke-width:0.8;" x="108" xlink:href="#m8f0d945fe0" y="147.906566"/>
      </g>
     </g>
     <g id="text_13">
      <!-- 0.60 -->
      <defs>
       <path d="M 33.015625 40.375 
Q 26.375 40.375 22.484375 35.828125 
Q 18.609375 31.296875 18.609375 23.390625 
Q 18.609375 15.53125 22.484375 10.953125 
Q 26.375 6.390625 33.015625 6.390625 
Q 39.65625 6.390625 43.53125 10.953125 
Q 47.40625 15.53125 47.40625 23.390625 
Q 47.40625 31.296875 43.53125 35.828125 
Q 39.65625 40.375 33.015625 40.375 
M 52.59375 71.296875 
L 52.59375 62.3125 
Q 48.875 64.0625 45.09375 64.984375 
Q 41.3125 65.921875 37.59375 65.921875 
Q 27.828125 65.921875 22.671875 59.328125 
Q 17.53125 52.734375 16.796875 39.40625 
Q 19.671875 43.65625 24.015625 45.921875 
Q 28.375 48.1875 33.59375 48.1875 
Q 44.578125 48.1875 50.953125 41.515625 
Q 57.328125 34.859375 57.328125 23.390625 
Q 57.328125 12.15625 50.6875 5.359375 
Q 44.046875 -1.421875 33.015625 -1.421875 
Q 20.359375 -1.421875 13.671875 8.265625 
Q 6.984375 17.96875 6.984375 36.375 
Q 6.984375 53.65625 15.1875 63.9375 
Q 23.390625 74.21875 37.203125 74.21875 
Q 40.921875 74.21875 44.703125 73.484375 
Q 48.484375 72.75 52.59375 71.296875 
" id="DejaVuSans-36"/>
      </defs>
      <g transform="translate(78.734375 151.705785)scale(0.1 -0.1)">
       <use xlink:href="#DejaVuSans-30"/>
       <use x="63.623047" xlink:href="#DejaVuSans-2e"/>
       <use x="95.410156" xlink:href="#DejaVuSans-36"/>
       <use x="159.033203" xlink:href="#DejaVuSans-30"/>
      </g>
     </g>
    </g>
    <g id="ytick_6">
     <g id="line2d_25">
      <path clip-path="url(#p67c37d574c)" d="M 108 97.844249 
L 777.6 97.844249 
" style="fill:none;stroke:#b0b0b0;stroke-linecap:square;stroke-width:0.8;"/>
     </g>
     <g id="line2d_26">
      <g>
       <use style="stroke:#000000;stroke-width:0.8;" x="108" xlink:href="#m8f0d945fe0" y="97.844249"/>
      </g>
     </g>
     <g id="text_14">
      <!-- 0.65 -->
      <g transform="translate(78.734375 101.643468)scale(0.1 -0.1)">
       <use xlink:href="#DejaVuSans-30"/>
       <use x="63.623047" xlink:href="#DejaVuSans-2e"/>
       <use x="95.410156" xlink:href="#DejaVuSans-36"/>
       <use x="159.033203" xlink:href="#DejaVuSans-35"/>
      </g>
     </g>
    </g>
    <g id="text_15">
     <!-- Training Accuracy -->
     <defs>
      <path d="M -0.296875 72.90625 
L 61.375 72.90625 
L 61.375 64.59375 
L 35.5 64.59375 
L 35.5 0 
L 25.59375 0 
L 25.59375 64.59375 
L -0.296875 64.59375 
z
" id="DejaVuSans-54"/>
      <path d="M 34.28125 27.484375 
Q 23.390625 27.484375 19.1875 25 
Q 14.984375 22.515625 14.984375 16.5 
Q 14.984375 11.71875 18.140625 8.90625 
Q 21.296875 6.109375 26.703125 6.109375 
Q 34.1875 6.109375 38.703125 11.40625 
Q 43.21875 16.703125 43.21875 25.484375 
L 43.21875 27.484375 
z
M 52.203125 31.203125 
L 52.203125 0 
L 43.21875 0 
L 43.21875 8.296875 
Q 40.140625 3.328125 35.546875 0.953125 
Q 30.953125 -1.421875 24.3125 -1.421875 
Q 15.921875 -1.421875 10.953125 3.296875 
Q 6 8.015625 6 15.921875 
Q 6 25.140625 12.171875 29.828125 
Q 18.359375 34.515625 30.609375 34.515625 
L 43.21875 34.515625 
L 43.21875 35.40625 
Q 43.21875 41.609375 39.140625 45 
Q 35.0625 48.390625 27.6875 48.390625 
Q 23 48.390625 18.546875 47.265625 
Q 14.109375 46.140625 10.015625 43.890625 
L 10.015625 52.203125 
Q 14.9375 54.109375 19.578125 55.046875 
Q 24.21875 56 28.609375 56 
Q 40.484375 56 46.34375 49.84375 
Q 52.203125 43.703125 52.203125 31.203125 
" id="DejaVuSans-61"/>
      <path d="M 9.421875 54.6875 
L 18.40625 54.6875 
L 18.40625 0 
L 9.421875 0 
z
M 9.421875 75.984375 
L 18.40625 75.984375 
L 18.40625 64.59375 
L 9.421875 64.59375 
z
" id="DejaVuSans-69"/>
      <path d="M 45.40625 27.984375 
Q 45.40625 37.75 41.375 43.109375 
Q 37.359375 48.484375 30.078125 48.484375 
Q 22.859375 48.484375 18.828125 43.109375 
Q 14.796875 37.75 14.796875 27.984375 
Q 14.796875 18.265625 18.828125 12.890625 
Q 22.859375 7.515625 30.078125 7.515625 
Q 37.359375 7.515625 41.375 12.890625 
Q 45.40625 18.265625 45.40625 27.984375 
M 54.390625 6.78125 
Q 54.390625 -7.171875 48.1875 -13.984375 
Q 42 -20.796875 29.203125 -20.796875 
Q 24.46875 -20.796875 20.265625 -20.09375 
Q 16.0625 -19.390625 12.109375 -17.921875 
L 12.109375 -9.1875 
Q 16.0625 -11.328125 19.921875 -12.34375 
Q 23.78125 -13.375 27.78125 -13.375 
Q 36.625 -13.375 41.015625 -8.765625 
Q 45.40625 -4.15625 45.40625 5.171875 
L 45.40625 9.625 
Q 42.625 4.78125 38.28125 2.390625 
Q 33.9375 0 27.875 0 
Q 17.828125 0 11.671875 7.65625 
Q 5.515625 15.328125 5.515625 27.984375 
Q 5.515625 40.671875 11.671875 48.328125 
Q 17.828125 56 27.875 56 
Q 33.9375 56 38.28125 53.609375 
Q 42.625 51.21875 45.40625 46.390625 
L 45.40625 54.6875 
L 54.390625 54.6875 
z
" id="DejaVuSans-67"/>
      <path d="M 34.1875 63.1875 
L 20.796875 26.90625 
L 47.609375 26.90625 
z
M 28.609375 72.90625 
L 39.796875 72.90625 
L 67.578125 0 
L 57.328125 0 
L 50.6875 18.703125 
L 17.828125 18.703125 
L 11.1875 0 
L 0.78125 0 
z
" id="DejaVuSans-41"/>
      <path d="M 32.171875 -5.078125 
Q 28.375 -14.84375 24.75 -17.8125 
Q 21.140625 -20.796875 15.09375 -20.796875 
L 7.90625 -20.796875 
L 7.90625 -13.28125 
L 13.1875 -13.28125 
Q 16.890625 -13.28125 18.9375 -11.515625 
Q 21 -9.765625 23.484375 -3.21875 
L 25.09375 0.875 
L 2.984375 54.6875 
L 12.5 54.6875 
L 29.59375 11.921875 
L 46.6875 54.6875 
L 56.203125 54.6875 
z
" id="DejaVuSans-79"/>
     </defs>
     <g transform="translate(72.654687 259.87625)rotate(-90)scale(0.1 -0.1)">
      <use xlink:href="#DejaVuSans-54"/>
      <use x="60.865234" xlink:href="#DejaVuSans-72"/>
      <use x="101.978516" xlink:href="#DejaVuSans-61"/>
      <use x="163.257812" xlink:href="#DejaVuSans-69"/>
      <use x="191.041016" xlink:href="#DejaVuSans-6e"/>
      <use x="254.419922" xlink:href="#DejaVuSans-69"/>
      <use x="282.203125" xlink:href="#DejaVuSans-6e"/>
      <use x="345.582031" xlink:href="#DejaVuSans-67"/>
      <use x="409.058594" xlink:href="#DejaVuSans-20"/>
      <use x="440.845703" xlink:href="#DejaVuSans-41"/>
      <use x="509.238281" xlink:href="#DejaVuSans-63"/>
      <use x="564.21875" xlink:href="#DejaVuSans-63"/>
      <use x="619.199219" xlink:href="#DejaVuSans-75"/>
      <use x="682.578125" xlink:href="#DejaVuSans-72"/>
      <use x="723.691406" xlink:href="#DejaVuSans-61"/>
      <use x="784.970703" xlink:href="#DejaVuSans-63"/>
      <use x="839.951172" xlink:href="#DejaVuSans-79"/>
     </g>
    </g>
   </g>
   <g id="line2d_27">
    <path clip-path="url(#p67c37d574c)" d="M 138.436364 299.675504 
L 172.254545 292.206207 
L 206.072727 282.474093 
L 239.890909 274.043599 
L 273.709091 268.837117 
L 307.527273 259.285226 
L 341.345455 253.838448 
L 375.163636 249.473014 
L 408.981818 244.78718 
L 442.8 238.259055 
L 476.618182 234.334169 
L 510.436364 227.665868 
L 544.254545 223.060135 
L 578.072727 218.654652 
L 611.890909 216.772306 
L 645.709091 209.543311 
L 679.527273 203.235457 
L 713.345455 198.7699 
L 747.163636 193.343144 
" style="fill:none;stroke:#1f77b4;stroke-linecap:square;stroke-width:1.5;"/>
   </g>
   <g id="line2d_28">
    <path clip-path="url(#p67c37d574c)" d="M 138.436364 322.604044 
L 172.254545 329.452569 
L 206.072727 330.994489 
L 239.890909 331.094613 
L 273.709091 328.371224 
L 307.527273 328.050824 
L 341.345455 323.264867 
L 375.163636 321.242349 
L 408.981818 318.659134 
L 442.8 316.756765 
L 476.618182 313.232378 
L 510.436364 314.313725 
L 544.254545 311.309986 
L 578.072727 305.622907 
L 611.890909 300.997148 
L 645.709091 300.316301 
L 679.527273 294.128599 
L 713.345455 290.704338 
L 747.163636 287.320125 
" style="fill:none;stroke:#d3d3d3;stroke-linecap:square;stroke-width:1.5;"/>
   </g>
   <g id="line2d_29">
    <path clip-path="url(#p67c37d574c)" d="M 138.436364 334.218502 
L 172.254545 330.654064 
L 206.072727 334.979449 
L 239.890909 338.123361 
L 273.709091 333.998228 
L 307.527273 327.59025 
L 341.345455 331.134664 
L 375.163636 326.809279 
L 408.981818 328.991996 
L 442.8 325.587758 
L 476.618182 323.965739 
L 510.436364 328.110899 
L 544.254545 322.083396 
L 578.072727 323.324941 
L 611.890909 317.277414 
L 645.709091 318.839358 
L 679.527273 315.395071 
L 713.345455 314.774299 
L 747.163636 312.691706 
" style="fill:none;stroke:#d3d3d3;stroke-linecap:square;stroke-width:1.5;"/>
   </g>
   <g id="line2d_30">
    <path clip-path="url(#p67c37d574c)" d="M 138.436364 303.520289 
L 172.254545 293.187427 
L 206.072727 290.123613 
L 239.890909 280.691874 
L 273.709091 275.986016 
L 307.527273 269.898438 
L 341.345455 267.575547 
L 375.163636 261.487969 
L 408.981818 258.784604 
L 442.8 252.797152 
L 476.618182 252.396653 
L 510.436364 246.389174 
L 544.254545 244.887305 
L 578.072727 239.480575 
L 611.890909 234.574467 
L 645.709091 232.892375 
L 679.527273 228.006292 
L 713.345455 226.464373 
L 747.163636 220.917469 
" style="fill:none;stroke:#d3d3d3;stroke-linecap:square;stroke-width:1.5;"/>
   </g>
   <g id="line2d_31">
    <path clip-path="url(#p67c37d574c)" d="M 138.436364 330.814264 
L 172.254545 333.797978 
L 206.072727 338.343637 
L 239.890909 340.586428 
L 273.709091 339.384932 
L 307.527273 344.210939 
L 341.345455 344.230965 
L 375.163636 343.910566 
L 408.981818 343.530093 
L 442.8 342.62897 
L 476.618182 341.868023 
L 510.436364 342.568896 
L 544.254545 339.304833 
L 578.072727 339.364908 
L 611.890909 337.042016 
L 645.709091 334.598976 
L 679.527273 331.93566 
L 713.345455 331.154687 
L 747.163636 325.848082 
" style="fill:none;stroke:#d3d3d3;stroke-linecap:square;stroke-width:1.5;"/>
   </g>
   <g id="line2d_32">
    <path clip-path="url(#p67c37d574c)" d="M 138.436364 297.232463 
L 172.254545 286.939651 
L 206.072727 283.134915 
L 239.890909 270.379037 
L 273.709091 264.611857 
L 307.527273 265.312731 
L 341.345455 264.451659 
L 375.163636 256.501763 
L 408.981818 258.864704 
L 442.8 255.019919 
L 476.618182 257.30276 
L 510.436364 252.917302 
L 544.254545 251.195158 
L 578.072727 249.613188 
L 611.890909 249.05249 
L 645.709091 249.01244 
L 679.527273 243.56566 
L 713.345455 240.862295 
L 747.163636 240.321622 
" style="fill:none;stroke:#d3d3d3;stroke-linecap:square;stroke-width:1.5;"/>
   </g>
   <g id="line2d_33">
    <path clip-path="url(#p67c37d574c)" d="M 138.436364 310.348789 
L 172.254545 297.873261 
L 206.072727 293.107328 
L 239.890909 288.741894 
L 273.709091 282.994741 
L 307.527273 278.429057 
L 341.345455 278.108658 
L 375.163636 275.365244 
L 408.981818 271.660631 
L 442.8 269.578038 
L 476.618182 264.471684 
L 510.436364 263.450411 
L 544.254545 260.286474 
L 578.072727 255.360341 
L 611.890909 256.441688 
L 645.709091 251.595655 
L 679.527273 246.128851 
L 713.345455 244.006208 
L 747.163636 240.301597 
" style="fill:none;stroke:#d3d3d3;stroke-linecap:square;stroke-width:1.5;"/>
   </g>
   <g id="line2d_34">
    <path clip-path="url(#p67c37d574c)" d="M 138.436364 279.029806 
L 172.254545 259.465452 
L 206.072727 247.190172 
L 239.890909 232.852324 
L 273.709091 220.757269 
L 307.527273 210.184107 
L 341.345455 199.270521 
L 375.163636 190.699854 
L 408.981818 176.802553 
L 442.8 168.071685 
L 476.618182 155.856478 
L 510.436364 140.517386 
L 544.254545 131.125695 
L 578.072727 115.806625 
L 611.890909 104.592665 
L 645.709091 97.243519 
L 679.527273 83.286144 
L 713.345455 74.254901 
L 747.163636 66.665455 
" style="fill:none;stroke:#ff7f0e;stroke-linecap:square;stroke-width:1.5;"/>
   </g>
   <g id="line2d_35">
    <path clip-path="url(#p67c37d574c)" d="M 138.436364 297.352613 
L 172.254545 290.844512 
L 206.072727 280.4716 
L 239.890909 272.361504 
L 273.709091 266.874674 
L 307.527273 256.181363 
L 341.345455 251.335333 
L 375.163636 244.546881 
L 408.981818 239.600724 
L 442.8 238.679578 
L 476.618182 232.311652 
L 510.436364 228.306667 
L 544.254545 223.901182 
L 578.072727 219.075175 
L 611.890909 216.852407 
L 645.709091 213.388095 
L 679.527273 204.116554 
L 713.345455 200.291793 
L 747.163636 195.726109 
" style="fill:none;stroke:#2ca02c;stroke-linecap:square;stroke-width:1.5;"/>
   </g>
   <g id="line2d_36">
    <path clip-path="url(#p67c37d574c)" d="M 138.436364 331.134663 
L 172.254545 332.816757 
L 206.072727 334.939399 
L 239.890909 335.920621 
L 273.709091 340.666527 
L 307.527273 339.024484 
L 341.345455 341.427475 
L 375.163636 341.267276 
L 408.981818 341.908073 
L 442.8 340.266029 
L 476.618182 340.386179 
L 510.436364 340.205954 
L 544.254545 338.784184 
L 578.072727 336.040769 
L 611.890909 338.163413 
L 645.709091 332.496358 
L 679.527273 330.293617 
L 713.345455 329.152195 
L 747.163636 324.226064 
" style="fill:none;stroke:#d3d3d3;stroke-linecap:square;stroke-width:1.5;"/>
   </g>
   <g id="line2d_37">
    <path clip-path="url(#p67c37d574c)" d="M 138.436364 336.220994 
L 172.254545 337.582689 
L 206.072727 339.324859 
L 239.890909 342.008198 
L 273.709091 343.630217 
L 307.527273 340.886801 
L 341.345455 341.567649 
L 375.163636 340.886802 
L 408.981818 340.045755 
L 442.8 335.740395 
L 476.618182 333.838028 
L 510.436364 333.177205 
L 544.254545 334.458801 
L 578.072727 331.595236 
L 611.890909 330.173466 
L 645.709091 327.249828 
L 679.527273 326.428806 
L 713.345455 322.684144 
L 747.163636 319.119707 
" style="fill:none;stroke:#d3d3d3;stroke-linecap:square;stroke-width:1.5;"/>
   </g>
   <g id="line2d_38">
    <path clip-path="url(#p67c37d574c)" d="M 138.436364 301.237449 
L 172.254545 290.804461 
L 206.072727 283.475338 
L 239.890909 272.741977 
L 273.709091 264.591833 
L 307.527273 258.904754 
L 341.345455 254.659468 
L 375.163636 250.193911 
L 408.981818 246.3291 
L 442.8 241.843516 
L 476.618182 239.340401 
L 510.436364 238.299104 
L 544.254545 234.574468 
L 578.072727 229.648335 
L 611.890909 228.366741 
L 645.709091 222.899935 
L 679.527273 218.314227 
L 713.345455 215.650911 
L 747.163636 208.181615 
" style="fill:none;stroke:#d62728;stroke-linecap:square;stroke-width:1.5;"/>
   </g>
   <g id="line2d_39">
    <path clip-path="url(#p67c37d574c)" d="M 138.436364 313.512729 
L 172.254545 301.778121 
L 206.072727 298.173634 
L 239.890909 295.209945 
L 273.709091 292.246256 
L 307.527273 290.984686 
L 341.345455 288.020996 
L 375.163636 280.331425 
L 408.981818 277.547959 
L 442.8 279.450329 
L 476.618182 276.186266 
L 510.436364 274.884645 
L 544.254545 273.022327 
L 578.072727 269.177541 
L 611.890909 265.47293 
L 645.709091 262.969814 
L 679.527273 258.72453 
L 713.345455 258.404131 
L 747.163636 251.355357 
" style="fill:none;stroke:#d3d3d3;stroke-linecap:square;stroke-width:1.5;"/>
   </g>
   <g id="line2d_40">
    <path clip-path="url(#p67c37d574c)" d="M 138.436364 344.571389 
L 172.254545 323.545216 
L 206.072727 314.794323 
L 239.890909 309.387593 
L 273.709091 304.461461 
L 307.527273 304.982109 
L 341.345455 306.103505 
L 375.163636 302.198644 
L 408.981818 301.898271 
L 442.8 303.300016 
L 476.618182 299.33508 
L 510.436364 300.796899 
L 544.254545 299.034706 
L 578.072727 296.471515 
L 611.890909 295.370146 
L 645.709091 293.227478 
L 679.527273 289.262543 
L 713.345455 287.560424 
L 747.163636 285.938405 
" style="fill:none;stroke:#d3d3d3;stroke-linecap:square;stroke-width:1.5;"/>
   </g>
   <g id="line2d_41">
    <path clip-path="url(#p67c37d574c)" d="M 138.436364 331.154688 
L 172.254545 329.192244 
L 206.072727 334.058303 
L 239.890909 332.296108 
L 273.709091 329.792993 
L 307.527273 328.951946 
L 341.345455 325.487634 
L 375.163636 324.085888 
L 408.981818 326.348705 
L 442.8 320.581526 
L 476.618182 318.939483 
L 510.436364 321.98327 
L 544.254545 318.959508 
L 578.072727 317.577788 
L 611.890909 317.397564 
L 645.709091 311.149787 
L 679.527273 311.770559 
L 713.345455 307.50525 
L 747.163636 303.740564 
" style="fill:none;stroke:#d3d3d3;stroke-linecap:square;stroke-width:1.5;"/>
   </g>
   <g id="line2d_42">
    <path clip-path="url(#p67c37d574c)" d="M 138.436364 312.631631 
L 172.254545 296.271266 
L 206.072727 287.720622 
L 239.890909 282.994741 
L 273.709091 278.509156 
L 307.527273 276.00604 
L 341.345455 274.684396 
L 375.163636 271.180033 
L 408.981818 270.138737 
L 442.8 270.198812 
L 476.618182 267.695697 
L 510.436364 265.753279 
L 544.254545 262.248917 
L 578.072727 258.624405 
L 611.890909 256.561838 
L 645.709091 255.300268 
L 679.527273 248.471767 
L 713.345455 248.992416 
L 747.163636 241.743392 
" style="fill:none;stroke:#d3d3d3;stroke-linecap:square;stroke-width:1.5;"/>
   </g>
   <g id="line2d_43">
    <path clip-path="url(#p67c37d574c)" d="M 138.436364 311.370061 
L 172.254545 301.878245 
L 206.072727 296.071017 
L 239.890909 291.565408 
L 273.709091 288.061047 
L 307.527273 285.417757 
L 341.345455 282.694366 
L 375.163636 280.3114 
L 408.981818 280.011026 
L 442.8 276.20629 
L 476.618182 273.603049 
L 510.436364 272.641852 
L 544.254545 270.118713 
L 578.072727 265.713229 
L 611.890909 264.892207 
L 645.709091 259.485476 
L 679.527273 258.52428 
L 713.345455 253.658222 
L 747.163636 250.193912 
" style="fill:none;stroke:#d3d3d3;stroke-linecap:square;stroke-width:1.5;"/>
   </g>
   <g id="line2d_44">
    <path clip-path="url(#p67c37d574c)" d="M 138.436364 300.116053 
L 172.254545 292.646754 
L 206.072727 288.621744 
L 239.890909 284.41651 
L 273.709091 285.858305 
L 307.527273 283.415263 
L 341.345455 280.2313 
L 375.163636 278.569232 
L 408.981818 281.052323 
L 442.8 280.051076 
L 476.618182 280.571724 
L 510.436364 277.247587 
L 544.254545 277.207536 
L 578.072727 276.947213 
L 611.890909 274.724446 
L 645.709091 272.541728 
L 679.527273 268.736992 
L 713.345455 266.554276 
L 747.163636 262.449166 
" style="fill:none;stroke:#d3d3d3;stroke-linecap:square;stroke-width:1.5;"/>
   </g>
   <g id="line2d_45">
    <path clip-path="url(#p67c37d574c)" d="M 138.436364 344.911813 
L 172.254545 346.253483 
L 206.072727 349.73782 
L 239.890909 351.299764 
L 273.709091 356.245921 
L 307.527273 357.407367 
L 341.345455 359.389834 
L 375.163636 363.174545 
L 408.981818 361.492451 
L 442.8 358.148289 
L 476.618182 360.791578 
L 510.436364 356.646419 
L 544.254545 356.966818 
L 578.072727 356.52627 
L 611.890909 350.498767 
L 645.709091 349.537571 
L 679.527273 346.293532 
L 713.345455 342.588921 
L 747.163636 344.090791 
" style="fill:none;stroke:#d3d3d3;stroke-linecap:square;stroke-width:1.5;"/>
   </g>
   <g id="line2d_46">
    <path clip-path="url(#p67c37d574c)" d="M 138.436364 293.127352 
L 172.254545 284.056061 
L 206.072727 277.62806 
L 239.890909 269.137491 
L 273.709091 265.012356 
L 307.527273 260.10625 
L 341.345455 254.599395 
L 375.163636 252.316554 
L 408.981818 250.534333 
L 442.8 248.271518 
L 476.618182 242.824738 
L 510.436364 240.241522 
L 544.254545 243.285311 
L 578.072727 236.837285 
L 611.890909 233.753446 
L 645.709091 231.710903 
L 679.527273 227.22532 
L 713.345455 221.978787 
L 747.163636 216.191586 
" style="fill:none;stroke:#d3d3d3;stroke-linecap:square;stroke-width:1.5;"/>
   </g>
   <g id="line2d_47">
    <path clip-path="url(#p67c37d574c)" d="M 138.436364 320.761751 
L 172.254545 320.461377 
L 206.072727 321.983272 
L 239.890909 322.103421 
L 273.709091 322.54397 
L 307.527273 320.161004 
L 341.345455 318.919458 
L 375.163636 319.440105 
L 408.981818 317.998311 
L 442.8 319.900679 
L 476.618182 318.338735 
L 510.436364 314.554024 
L 544.254545 317.05714 
L 578.072727 314.17355 
L 611.890909 308.706745 
L 645.709091 311.950783 
L 679.527273 307.705498 
L 713.345455 305.462707 
L 747.163636 302.639192 
" style="fill:none;stroke:#d3d3d3;stroke-linecap:square;stroke-width:1.5;"/>
   </g>
   <g id="line2d_48">
    <path clip-path="url(#p67c37d574c)" d="M 138.436364 298.774382 
L 172.254545 291.865783 
L 206.072727 281.49287 
L 239.890909 273.803298 
L 273.709091 263.130013 
L 307.527273 256.862212 
L 341.345455 251.155108 
L 375.163636 245.668277 
L 408.981818 240.982444 
L 442.8 237.558182 
L 476.618182 231.49063 
L 510.436364 226.584522 
L 544.254545 223.961257 
L 578.072727 216.892458 
L 611.890909 214.970064 
L 645.709091 211.145304 
L 679.527273 206.078998 
L 713.345455 200.672268 
L 747.163636 197.508327 
" style="fill:none;stroke:#9467bd;stroke-linecap:square;stroke-width:1.5;"/>
   </g>
   <g id="line2d_49">
    <path clip-path="url(#p67c37d574c)" d="M 138.436364 287.079825 
L 172.254545 279.169979 
L 206.072727 272.081155 
L 239.890909 269.37779 
L 273.709091 262.349041 
L 307.527273 257.482984 
L 341.345455 256.722037 
L 375.163636 250.314059 
L 408.981818 247.79092 
L 442.8 247.049997 
L 476.618182 245.147629 
L 510.436364 244.266532 
L 544.254545 237.758431 
L 578.072727 237.658307 
L 611.890909 235.795988 
L 645.709091 233.913645 
L 679.527273 229.087638 
L 713.345455 222.919961 
L 747.163636 218.574551 
" style="fill:none;stroke:#d3d3d3;stroke-linecap:square;stroke-width:1.5;"/>
   </g>
   <g id="line2d_50">
    <path clip-path="url(#p67c37d574c)" d="M 138.436364 299.735579 
L 172.254545 291.665533 
L 206.072727 280.832049 
L 239.890909 272.922202 
L 273.709091 264.992331 
L 307.527273 260.1463 
L 341.345455 253.157599 
L 375.163636 248.93234 
L 408.981818 241.743391 
L 442.8 236.677085 
L 476.618182 232.87235 
L 510.436364 233.673346 
L 544.254545 224.862379 
L 578.072727 221.878664 
L 611.890909 217.132756 
L 645.709091 210.384356 
L 679.527273 206.85997 
L 713.345455 202.634709 
L 747.163636 195.425736 
" style="fill:none;stroke:#8c564b;stroke-linecap:square;stroke-width:1.5;"/>
   </g>
   <g id="line2d_51">
    <path clip-path="url(#p67c37d574c)" d="M 138.436364 297.272513 
L 172.254545 289.122368 
L 206.072727 280.6318 
L 239.890909 272.782027 
L 273.709091 266.8947 
L 307.527273 258.48423 
L 341.345455 255.540566 
L 375.163636 246.228977 
L 408.981818 240.36167 
L 442.8 239.360426 
L 476.618182 232.271601 
L 510.436364 228.947464 
L 544.254545 225.102678 
L 578.072727 218.013853 
L 611.890909 213.808619 
L 645.709091 212.126525 
L 679.527273 203.876255 
L 713.345455 199.751121 
L 747.163636 193.863792 
" style="fill:none;stroke:#e377c2;stroke-linecap:square;stroke-width:1.5;"/>
   </g>
   <g id="patch_3">
    <path d="M 108 378 
L 108 51.84 
" style="fill:none;stroke:#000000;stroke-linecap:square;stroke-linejoin:miter;stroke-width:0.8;"/>
   </g>
   <g id="patch_4">
    <path d="M 777.6 378 
L 777.6 51.84 
" style="fill:none;stroke:#000000;stroke-linecap:square;stroke-linejoin:miter;stroke-width:0.8;"/>
   </g>
   <g id="patch_5">
    <path d="M 108 378 
L 777.6 378 
" style="fill:none;stroke:#000000;stroke-linecap:square;stroke-linejoin:miter;stroke-width:0.8;"/>
   </g>
   <g id="patch_6">
    <path d="M 108 51.84 
L 777.6 51.84 
" style="fill:none;stroke:#000000;stroke-linecap:square;stroke-linejoin:miter;stroke-width:0.8;"/>
   </g>
   <g id="text_16">
    <!-- Training Accuracy over 20 epochs -->
    <defs>
     <path d="M 2.984375 54.6875 
L 12.5 54.6875 
L 29.59375 8.796875 
L 46.6875 54.6875 
L 56.203125 54.6875 
L 35.6875 0 
L 23.484375 0 
z
" id="DejaVuSans-76"/>
     <path d="M 44.28125 53.078125 
L 44.28125 44.578125 
Q 40.484375 46.53125 36.375 47.5 
Q 32.28125 48.484375 27.875 48.484375 
Q 21.1875 48.484375 17.84375 46.4375 
Q 14.5 44.390625 14.5 40.28125 
Q 14.5 37.15625 16.890625 35.375 
Q 19.28125 33.59375 26.515625 31.984375 
L 29.59375 31.296875 
Q 39.15625 29.25 43.1875 25.515625 
Q 47.21875 21.78125 47.21875 15.09375 
Q 47.21875 7.46875 41.1875 3.015625 
Q 35.15625 -1.421875 24.609375 -1.421875 
Q 20.21875 -1.421875 15.453125 -0.5625 
Q 10.6875 0.296875 5.421875 2 
L 5.421875 11.28125 
Q 10.40625 8.6875 15.234375 7.390625 
Q 20.0625 6.109375 24.8125 6.109375 
Q 31.15625 6.109375 34.5625 8.28125 
Q 37.984375 10.453125 37.984375 14.40625 
Q 37.984375 18.0625 35.515625 20.015625 
Q 33.0625 21.96875 24.703125 23.78125 
L 21.578125 24.515625 
Q 13.234375 26.265625 9.515625 29.90625 
Q 5.8125 33.546875 5.8125 39.890625 
Q 5.8125 47.609375 11.28125 51.796875 
Q 16.75 56 26.8125 56 
Q 31.78125 56 36.171875 55.265625 
Q 40.578125 54.546875 44.28125 53.078125 
" id="DejaVuSans-73"/>
    </defs>
    <g transform="translate(340.716563 45.84)scale(0.12 -0.12)">
     <use xlink:href="#DejaVuSans-54"/>
     <use x="60.865234" xlink:href="#DejaVuSans-72"/>
     <use x="101.978516" xlink:href="#DejaVuSans-61"/>
     <use x="163.257812" xlink:href="#DejaVuSans-69"/>
     <use x="191.041016" xlink:href="#DejaVuSans-6e"/>
     <use x="254.419922" xlink:href="#DejaVuSans-69"/>
     <use x="282.203125" xlink:href="#DejaVuSans-6e"/>
     <use x="345.582031" xlink:href="#DejaVuSans-67"/>
     <use x="409.058594" xlink:href="#DejaVuSans-20"/>
     <use x="440.845703" xlink:href="#DejaVuSans-41"/>
     <use x="509.238281" xlink:href="#DejaVuSans-63"/>
     <use x="564.21875" xlink:href="#DejaVuSans-63"/>
     <use x="619.199219" xlink:href="#DejaVuSans-75"/>
     <use x="682.578125" xlink:href="#DejaVuSans-72"/>
     <use x="723.691406" xlink:href="#DejaVuSans-61"/>
     <use x="784.970703" xlink:href="#DejaVuSans-63"/>
     <use x="839.951172" xlink:href="#DejaVuSans-79"/>
     <use x="899.130859" xlink:href="#DejaVuSans-20"/>
     <use x="930.917969" xlink:href="#DejaVuSans-6f"/>
     <use x="992.099609" xlink:href="#DejaVuSans-76"/>
     <use x="1051.279297" xlink:href="#DejaVuSans-65"/>
     <use x="1112.802734" xlink:href="#DejaVuSans-72"/>
     <use x="1153.916016" xlink:href="#DejaVuSans-20"/>
     <use x="1185.703125" xlink:href="#DejaVuSans-32"/>
     <use x="1249.326172" xlink:href="#DejaVuSans-30"/>
     <use x="1312.949219" xlink:href="#DejaVuSans-20"/>
     <use x="1344.736328" xlink:href="#DejaVuSans-65"/>
     <use x="1406.259766" xlink:href="#DejaVuSans-70"/>
     <use x="1469.736328" xlink:href="#DejaVuSans-6f"/>
     <use x="1530.917969" xlink:href="#DejaVuSans-63"/>
     <use x="1585.898438" xlink:href="#DejaVuSans-68"/>
     <use x="1649.277344" xlink:href="#DejaVuSans-73"/>
    </g>
   </g>
   <g id="legend_1">
    <g id="patch_7">
     <path d="M 127.0875 164.53375 
L 770.6 164.53375 
Q 772.6 164.53375 772.6 162.53375 
L 772.6 58.84 
Q 772.6 56.84 770.6 56.84 
L 127.0875 56.84 
Q 125.0875 56.84 125.0875 58.84 
L 125.0875 162.53375 
Q 125.0875 164.53375 127.0875 164.53375 
z
" style="fill:#ffffff;opacity:0.8;stroke:#cccccc;stroke-linejoin:miter;"/>
    </g>
    <g id="line2d_52">
     <path d="M 129.0875 64.938437 
L 149.0875 64.938437 
" style="fill:none;stroke:#1f77b4;stroke-linecap:square;stroke-width:1.5;"/>
    </g>
    <g id="line2d_53"/>
    <g id="text_17">
     <!-- input_keep_prob: 0.5, hidden_keep_prob: 1.0, hidden_dim: 1048, lamda2: 0.001 -->
     <defs>
      <path d="M 18.3125 70.21875 
L 18.3125 54.6875 
L 36.8125 54.6875 
L 36.8125 47.703125 
L 18.3125 47.703125 
L 18.3125 18.015625 
Q 18.3125 11.328125 20.140625 9.421875 
Q 21.96875 7.515625 27.59375 7.515625 
L 36.8125 7.515625 
L 36.8125 0 
L 27.59375 0 
Q 17.1875 0 13.234375 3.875 
Q 9.28125 7.765625 9.28125 18.015625 
L 9.28125 47.703125 
L 2.6875 47.703125 
L 2.6875 54.6875 
L 9.28125 54.6875 
L 9.28125 70.21875 
z
" id="DejaVuSans-74"/>
      <path d="M 50.984375 -16.609375 
L 50.984375 -23.578125 
L -0.984375 -23.578125 
L -0.984375 -16.609375 
z
" id="DejaVuSans-5f"/>
      <path d="M 9.078125 75.984375 
L 18.109375 75.984375 
L 18.109375 31.109375 
L 44.921875 54.6875 
L 56.390625 54.6875 
L 27.390625 29.109375 
L 57.625 0 
L 45.90625 0 
L 18.109375 26.703125 
L 18.109375 0 
L 9.078125 0 
z
" id="DejaVuSans-6b"/>
      <path d="M 11.71875 12.40625 
L 22.015625 12.40625 
L 22.015625 0 
L 11.71875 0 
z
M 11.71875 51.703125 
L 22.015625 51.703125 
L 22.015625 39.3125 
L 11.71875 39.3125 
z
" id="DejaVuSans-3a"/>
      <path d="M 11.71875 12.40625 
L 22.015625 12.40625 
L 22.015625 4 
L 14.015625 -11.625 
L 7.71875 -11.625 
L 11.71875 4 
z
" id="DejaVuSans-2c"/>
      <path d="M 45.40625 46.390625 
L 45.40625 75.984375 
L 54.390625 75.984375 
L 54.390625 0 
L 45.40625 0 
L 45.40625 8.203125 
Q 42.578125 3.328125 38.25 0.953125 
Q 33.9375 -1.421875 27.875 -1.421875 
Q 17.96875 -1.421875 11.734375 6.484375 
Q 5.515625 14.40625 5.515625 27.296875 
Q 5.515625 40.1875 11.734375 48.09375 
Q 17.96875 56 27.875 56 
Q 33.9375 56 38.25 53.625 
Q 42.578125 51.265625 45.40625 46.390625 
M 14.796875 27.296875 
Q 14.796875 17.390625 18.875 11.75 
Q 22.953125 6.109375 30.078125 6.109375 
Q 37.203125 6.109375 41.296875 11.75 
Q 45.40625 17.390625 45.40625 27.296875 
Q 45.40625 37.203125 41.296875 42.84375 
Q 37.203125 48.484375 30.078125 48.484375 
Q 22.953125 48.484375 18.875 42.84375 
Q 14.796875 37.203125 14.796875 27.296875 
" id="DejaVuSans-64"/>
      <path d="M 31.78125 34.625 
Q 24.75 34.625 20.71875 30.859375 
Q 16.703125 27.09375 16.703125 20.515625 
Q 16.703125 13.921875 20.71875 10.15625 
Q 24.75 6.390625 31.78125 6.390625 
Q 38.8125 6.390625 42.859375 10.171875 
Q 46.921875 13.96875 46.921875 20.515625 
Q 46.921875 27.09375 42.890625 30.859375 
Q 38.875 34.625 31.78125 34.625 
M 21.921875 38.8125 
Q 15.578125 40.375 12.03125 44.71875 
Q 8.5 49.078125 8.5 55.328125 
Q 8.5 64.0625 14.71875 69.140625 
Q 20.953125 74.21875 31.78125 74.21875 
Q 42.671875 74.21875 48.875 69.140625 
Q 55.078125 64.0625 55.078125 55.328125 
Q 55.078125 49.078125 51.53125 44.71875 
Q 48 40.375 41.703125 38.8125 
Q 48.828125 37.15625 52.796875 32.3125 
Q 56.78125 27.484375 56.78125 20.515625 
Q 56.78125 9.90625 50.3125 4.234375 
Q 43.84375 -1.421875 31.78125 -1.421875 
Q 19.734375 -1.421875 13.25 4.234375 
Q 6.78125 9.90625 6.78125 20.515625 
Q 6.78125 27.484375 10.78125 32.3125 
Q 14.796875 37.15625 21.921875 38.8125 
M 18.3125 54.390625 
Q 18.3125 48.734375 21.84375 45.5625 
Q 25.390625 42.390625 31.78125 42.390625 
Q 38.140625 42.390625 41.71875 45.5625 
Q 45.3125 48.734375 45.3125 54.390625 
Q 45.3125 60.0625 41.71875 63.234375 
Q 38.140625 66.40625 31.78125 66.40625 
Q 25.390625 66.40625 21.84375 63.234375 
Q 18.3125 60.0625 18.3125 54.390625 
" id="DejaVuSans-38"/>
      <path d="M 9.421875 75.984375 
L 18.40625 75.984375 
L 18.40625 0 
L 9.421875 0 
z
" id="DejaVuSans-6c"/>
     </defs>
     <g transform="translate(157.0875 68.438437)scale(0.1 -0.1)">
      <use xlink:href="#DejaVuSans-69"/>
      <use x="27.783203" xlink:href="#DejaVuSans-6e"/>
      <use x="91.162109" xlink:href="#DejaVuSans-70"/>
      <use x="154.638672" xlink:href="#DejaVuSans-75"/>
      <use x="218.017578" xlink:href="#DejaVuSans-74"/>
      <use x="257.226562" xlink:href="#DejaVuSans-5f"/>
      <use x="307.226562" xlink:href="#DejaVuSans-6b"/>
      <use x="365.089844" xlink:href="#DejaVuSans-65"/>
      <use x="426.613281" xlink:href="#DejaVuSans-65"/>
      <use x="488.136719" xlink:href="#DejaVuSans-70"/>
      <use x="551.613281" xlink:href="#DejaVuSans-5f"/>
      <use x="601.613281" xlink:href="#DejaVuSans-70"/>
      <use x="665.089844" xlink:href="#DejaVuSans-72"/>
      <use x="706.171875" xlink:href="#DejaVuSans-6f"/>
      <use x="767.353516" xlink:href="#DejaVuSans-62"/>
      <use x="830.830078" xlink:href="#DejaVuSans-3a"/>
      <use x="864.521484" xlink:href="#DejaVuSans-20"/>
      <use x="896.308594" xlink:href="#DejaVuSans-30"/>
      <use x="959.931641" xlink:href="#DejaVuSans-2e"/>
      <use x="991.71875" xlink:href="#DejaVuSans-35"/>
      <use x="1055.341797" xlink:href="#DejaVuSans-2c"/>
      <use x="1087.128906" xlink:href="#DejaVuSans-20"/>
      <use x="1118.916016" xlink:href="#DejaVuSans-68"/>
      <use x="1182.294922" xlink:href="#DejaVuSans-69"/>
      <use x="1210.078125" xlink:href="#DejaVuSans-64"/>
      <use x="1273.554688" xlink:href="#DejaVuSans-64"/>
      <use x="1337.03125" xlink:href="#DejaVuSans-65"/>
      <use x="1398.554688" xlink:href="#DejaVuSans-6e"/>
      <use x="1461.933594" xlink:href="#DejaVuSans-5f"/>
      <use x="1511.933594" xlink:href="#DejaVuSans-6b"/>
      <use x="1569.796875" xlink:href="#DejaVuSans-65"/>
      <use x="1631.320312" xlink:href="#DejaVuSans-65"/>
      <use x="1692.84375" xlink:href="#DejaVuSans-70"/>
      <use x="1756.320312" xlink:href="#DejaVuSans-5f"/>
      <use x="1806.320312" xlink:href="#DejaVuSans-70"/>
      <use x="1869.796875" xlink:href="#DejaVuSans-72"/>
      <use x="1910.878906" xlink:href="#DejaVuSans-6f"/>
      <use x="1972.060547" xlink:href="#DejaVuSans-62"/>
      <use x="2035.537109" xlink:href="#DejaVuSans-3a"/>
      <use x="2069.228516" xlink:href="#DejaVuSans-20"/>
      <use x="2101.015625" xlink:href="#DejaVuSans-31"/>
      <use x="2164.638672" xlink:href="#DejaVuSans-2e"/>
      <use x="2196.425781" xlink:href="#DejaVuSans-30"/>
      <use x="2260.048828" xlink:href="#DejaVuSans-2c"/>
      <use x="2291.835938" xlink:href="#DejaVuSans-20"/>
      <use x="2323.623047" xlink:href="#DejaVuSans-68"/>
      <use x="2387.001953" xlink:href="#DejaVuSans-69"/>
      <use x="2414.785156" xlink:href="#DejaVuSans-64"/>
      <use x="2478.261719" xlink:href="#DejaVuSans-64"/>
      <use x="2541.738281" xlink:href="#DejaVuSans-65"/>
      <use x="2603.261719" xlink:href="#DejaVuSans-6e"/>
      <use x="2666.640625" xlink:href="#DejaVuSans-5f"/>
      <use x="2716.640625" xlink:href="#DejaVuSans-64"/>
      <use x="2780.117188" xlink:href="#DejaVuSans-69"/>
      <use x="2807.900391" xlink:href="#DejaVuSans-6d"/>
      <use x="2905.3125" xlink:href="#DejaVuSans-3a"/>
      <use x="2939.003906" xlink:href="#DejaVuSans-20"/>
      <use x="2970.791016" xlink:href="#DejaVuSans-31"/>
      <use x="3034.414062" xlink:href="#DejaVuSans-30"/>
      <use x="3098.037109" xlink:href="#DejaVuSans-34"/>
      <use x="3161.660156" xlink:href="#DejaVuSans-38"/>
      <use x="3225.283203" xlink:href="#DejaVuSans-2c"/>
      <use x="3257.070312" xlink:href="#DejaVuSans-20"/>
      <use x="3288.857422" xlink:href="#DejaVuSans-6c"/>
      <use x="3316.640625" xlink:href="#DejaVuSans-61"/>
      <use x="3377.919922" xlink:href="#DejaVuSans-6d"/>
      <use x="3475.332031" xlink:href="#DejaVuSans-64"/>
      <use x="3538.808594" xlink:href="#DejaVuSans-61"/>
      <use x="3600.087891" xlink:href="#DejaVuSans-32"/>
      <use x="3663.710938" xlink:href="#DejaVuSans-3a"/>
      <use x="3697.402344" xlink:href="#DejaVuSans-20"/>
      <use x="3729.189453" xlink:href="#DejaVuSans-30"/>
      <use x="3792.8125" xlink:href="#DejaVuSans-2e"/>
      <use x="3824.599609" xlink:href="#DejaVuSans-30"/>
      <use x="3888.222656" xlink:href="#DejaVuSans-30"/>
      <use x="3951.845703" xlink:href="#DejaVuSans-31"/>
     </g>
    </g>
    <g id="line2d_54">
     <path d="M 129.0875 79.894687 
L 149.0875 79.894687 
" style="fill:none;stroke:#ff7f0e;stroke-linecap:square;stroke-width:1.5;"/>
    </g>
    <g id="line2d_55"/>
    <g id="text_18">
     <!-- input_keep_prob: 0.861535710844, hidden_keep_prob: 1.0, hidden_dim: 1120, lamda2: 0.001 -->
     <defs>
      <path d="M 40.578125 39.3125 
Q 47.65625 37.796875 51.625 33 
Q 55.609375 28.21875 55.609375 21.1875 
Q 55.609375 10.40625 48.1875 4.484375 
Q 40.765625 -1.421875 27.09375 -1.421875 
Q 22.515625 -1.421875 17.65625 -0.515625 
Q 12.796875 0.390625 7.625 2.203125 
L 7.625 11.71875 
Q 11.71875 9.328125 16.59375 8.109375 
Q 21.484375 6.890625 26.8125 6.890625 
Q 36.078125 6.890625 40.9375 10.546875 
Q 45.796875 14.203125 45.796875 21.1875 
Q 45.796875 27.640625 41.28125 31.265625 
Q 36.765625 34.90625 28.71875 34.90625 
L 20.21875 34.90625 
L 20.21875 43.015625 
L 29.109375 43.015625 
Q 36.375 43.015625 40.234375 45.921875 
Q 44.09375 48.828125 44.09375 54.296875 
Q 44.09375 59.90625 40.109375 62.90625 
Q 36.140625 65.921875 28.71875 65.921875 
Q 24.65625 65.921875 20.015625 65.03125 
Q 15.375 64.15625 9.8125 62.3125 
L 9.8125 71.09375 
Q 15.4375 72.65625 20.34375 73.4375 
Q 25.25 74.21875 29.59375 74.21875 
Q 40.828125 74.21875 47.359375 69.109375 
Q 53.90625 64.015625 53.90625 55.328125 
Q 53.90625 49.265625 50.4375 45.09375 
Q 46.96875 40.921875 40.578125 39.3125 
" id="DejaVuSans-33"/>
     </defs>
     <g transform="translate(157.0875 83.394687)scale(0.1 -0.1)">
      <use xlink:href="#DejaVuSans-69"/>
      <use x="27.783203" xlink:href="#DejaVuSans-6e"/>
      <use x="91.162109" xlink:href="#DejaVuSans-70"/>
      <use x="154.638672" xlink:href="#DejaVuSans-75"/>
      <use x="218.017578" xlink:href="#DejaVuSans-74"/>
      <use x="257.226562" xlink:href="#DejaVuSans-5f"/>
      <use x="307.226562" xlink:href="#DejaVuSans-6b"/>
      <use x="365.089844" xlink:href="#DejaVuSans-65"/>
      <use x="426.613281" xlink:href="#DejaVuSans-65"/>
      <use x="488.136719" xlink:href="#DejaVuSans-70"/>
      <use x="551.613281" xlink:href="#DejaVuSans-5f"/>
      <use x="601.613281" xlink:href="#DejaVuSans-70"/>
      <use x="665.089844" xlink:href="#DejaVuSans-72"/>
      <use x="706.171875" xlink:href="#DejaVuSans-6f"/>
      <use x="767.353516" xlink:href="#DejaVuSans-62"/>
      <use x="830.830078" xlink:href="#DejaVuSans-3a"/>
      <use x="864.521484" xlink:href="#DejaVuSans-20"/>
      <use x="896.308594" xlink:href="#DejaVuSans-30"/>
      <use x="959.931641" xlink:href="#DejaVuSans-2e"/>
      <use x="991.71875" xlink:href="#DejaVuSans-38"/>
      <use x="1055.341797" xlink:href="#DejaVuSans-36"/>
      <use x="1118.964844" xlink:href="#DejaVuSans-31"/>
      <use x="1182.587891" xlink:href="#DejaVuSans-35"/>
      <use x="1246.210938" xlink:href="#DejaVuSans-33"/>
      <use x="1309.833984" xlink:href="#DejaVuSans-35"/>
      <use x="1373.457031" xlink:href="#DejaVuSans-37"/>
      <use x="1437.080078" xlink:href="#DejaVuSans-31"/>
      <use x="1500.703125" xlink:href="#DejaVuSans-30"/>
      <use x="1564.326172" xlink:href="#DejaVuSans-38"/>
      <use x="1627.949219" xlink:href="#DejaVuSans-34"/>
      <use x="1691.572266" xlink:href="#DejaVuSans-34"/>
      <use x="1755.195312" xlink:href="#DejaVuSans-2c"/>
      <use x="1786.982422" xlink:href="#DejaVuSans-20"/>
      <use x="1818.769531" xlink:href="#DejaVuSans-68"/>
      <use x="1882.148438" xlink:href="#DejaVuSans-69"/>
      <use x="1909.931641" xlink:href="#DejaVuSans-64"/>
      <use x="1973.408203" xlink:href="#DejaVuSans-64"/>
      <use x="2036.884766" xlink:href="#DejaVuSans-65"/>
      <use x="2098.408203" xlink:href="#DejaVuSans-6e"/>
      <use x="2161.787109" xlink:href="#DejaVuSans-5f"/>
      <use x="2211.787109" xlink:href="#DejaVuSans-6b"/>
      <use x="2269.650391" xlink:href="#DejaVuSans-65"/>
      <use x="2331.173828" xlink:href="#DejaVuSans-65"/>
      <use x="2392.697266" xlink:href="#DejaVuSans-70"/>
      <use x="2456.173828" xlink:href="#DejaVuSans-5f"/>
      <use x="2506.173828" xlink:href="#DejaVuSans-70"/>
      <use x="2569.650391" xlink:href="#DejaVuSans-72"/>
      <use x="2610.732422" xlink:href="#DejaVuSans-6f"/>
      <use x="2671.914062" xlink:href="#DejaVuSans-62"/>
      <use x="2735.390625" xlink:href="#DejaVuSans-3a"/>
      <use x="2769.082031" xlink:href="#DejaVuSans-20"/>
      <use x="2800.869141" xlink:href="#DejaVuSans-31"/>
      <use x="2864.492188" xlink:href="#DejaVuSans-2e"/>
      <use x="2896.279297" xlink:href="#DejaVuSans-30"/>
      <use x="2959.902344" xlink:href="#DejaVuSans-2c"/>
      <use x="2991.689453" xlink:href="#DejaVuSans-20"/>
      <use x="3023.476562" xlink:href="#DejaVuSans-68"/>
      <use x="3086.855469" xlink:href="#DejaVuSans-69"/>
      <use x="3114.638672" xlink:href="#DejaVuSans-64"/>
      <use x="3178.115234" xlink:href="#DejaVuSans-64"/>
      <use x="3241.591797" xlink:href="#DejaVuSans-65"/>
      <use x="3303.115234" xlink:href="#DejaVuSans-6e"/>
      <use x="3366.494141" xlink:href="#DejaVuSans-5f"/>
      <use x="3416.494141" xlink:href="#DejaVuSans-64"/>
      <use x="3479.970703" xlink:href="#DejaVuSans-69"/>
      <use x="3507.753906" xlink:href="#DejaVuSans-6d"/>
      <use x="3605.166016" xlink:href="#DejaVuSans-3a"/>
      <use x="3638.857422" xlink:href="#DejaVuSans-20"/>
      <use x="3670.644531" xlink:href="#DejaVuSans-31"/>
      <use x="3734.267578" xlink:href="#DejaVuSans-31"/>
      <use x="3797.890625" xlink:href="#DejaVuSans-32"/>
      <use x="3861.513672" xlink:href="#DejaVuSans-30"/>
      <use x="3925.136719" xlink:href="#DejaVuSans-2c"/>
      <use x="3956.923828" xlink:href="#DejaVuSans-20"/>
      <use x="3988.710938" xlink:href="#DejaVuSans-6c"/>
      <use x="4016.494141" xlink:href="#DejaVuSans-61"/>
      <use x="4077.773438" xlink:href="#DejaVuSans-6d"/>
      <use x="4175.185547" xlink:href="#DejaVuSans-64"/>
      <use x="4238.662109" xlink:href="#DejaVuSans-61"/>
      <use x="4299.941406" xlink:href="#DejaVuSans-32"/>
      <use x="4363.564453" xlink:href="#DejaVuSans-3a"/>
      <use x="4397.255859" xlink:href="#DejaVuSans-20"/>
      <use x="4429.042969" xlink:href="#DejaVuSans-30"/>
      <use x="4492.666016" xlink:href="#DejaVuSans-2e"/>
      <use x="4524.453125" xlink:href="#DejaVuSans-30"/>
      <use x="4588.076172" xlink:href="#DejaVuSans-30"/>
      <use x="4651.699219" xlink:href="#DejaVuSans-31"/>
     </g>
    </g>
    <g id="line2d_56">
     <path d="M 129.0875 94.850937 
L 149.0875 94.850937 
" style="fill:none;stroke:#2ca02c;stroke-linecap:square;stroke-width:1.5;"/>
    </g>
    <g id="line2d_57"/>
    <g id="text_19">
     <!-- input_keep_prob: 0.5, hidden_keep_prob: 1.0, hidden_dim: 1784, lamda2: 0.001 -->
     <g transform="translate(157.0875 98.350937)scale(0.1 -0.1)">
      <use xlink:href="#DejaVuSans-69"/>
      <use x="27.783203" xlink:href="#DejaVuSans-6e"/>
      <use x="91.162109" xlink:href="#DejaVuSans-70"/>
      <use x="154.638672" xlink:href="#DejaVuSans-75"/>
      <use x="218.017578" xlink:href="#DejaVuSans-74"/>
      <use x="257.226562" xlink:href="#DejaVuSans-5f"/>
      <use x="307.226562" xlink:href="#DejaVuSans-6b"/>
      <use x="365.089844" xlink:href="#DejaVuSans-65"/>
      <use x="426.613281" xlink:href="#DejaVuSans-65"/>
      <use x="488.136719" xlink:href="#DejaVuSans-70"/>
      <use x="551.613281" xlink:href="#DejaVuSans-5f"/>
      <use x="601.613281" xlink:href="#DejaVuSans-70"/>
      <use x="665.089844" xlink:href="#DejaVuSans-72"/>
      <use x="706.171875" xlink:href="#DejaVuSans-6f"/>
      <use x="767.353516" xlink:href="#DejaVuSans-62"/>
      <use x="830.830078" xlink:href="#DejaVuSans-3a"/>
      <use x="864.521484" xlink:href="#DejaVuSans-20"/>
      <use x="896.308594" xlink:href="#DejaVuSans-30"/>
      <use x="959.931641" xlink:href="#DejaVuSans-2e"/>
      <use x="991.71875" xlink:href="#DejaVuSans-35"/>
      <use x="1055.341797" xlink:href="#DejaVuSans-2c"/>
      <use x="1087.128906" xlink:href="#DejaVuSans-20"/>
      <use x="1118.916016" xlink:href="#DejaVuSans-68"/>
      <use x="1182.294922" xlink:href="#DejaVuSans-69"/>
      <use x="1210.078125" xlink:href="#DejaVuSans-64"/>
      <use x="1273.554688" xlink:href="#DejaVuSans-64"/>
      <use x="1337.03125" xlink:href="#DejaVuSans-65"/>
      <use x="1398.554688" xlink:href="#DejaVuSans-6e"/>
      <use x="1461.933594" xlink:href="#DejaVuSans-5f"/>
      <use x="1511.933594" xlink:href="#DejaVuSans-6b"/>
      <use x="1569.796875" xlink:href="#DejaVuSans-65"/>
      <use x="1631.320312" xlink:href="#DejaVuSans-65"/>
      <use x="1692.84375" xlink:href="#DejaVuSans-70"/>
      <use x="1756.320312" xlink:href="#DejaVuSans-5f"/>
      <use x="1806.320312" xlink:href="#DejaVuSans-70"/>
      <use x="1869.796875" xlink:href="#DejaVuSans-72"/>
      <use x="1910.878906" xlink:href="#DejaVuSans-6f"/>
      <use x="1972.060547" xlink:href="#DejaVuSans-62"/>
      <use x="2035.537109" xlink:href="#DejaVuSans-3a"/>
      <use x="2069.228516" xlink:href="#DejaVuSans-20"/>
      <use x="2101.015625" xlink:href="#DejaVuSans-31"/>
      <use x="2164.638672" xlink:href="#DejaVuSans-2e"/>
      <use x="2196.425781" xlink:href="#DejaVuSans-30"/>
      <use x="2260.048828" xlink:href="#DejaVuSans-2c"/>
      <use x="2291.835938" xlink:href="#DejaVuSans-20"/>
      <use x="2323.623047" xlink:href="#DejaVuSans-68"/>
      <use x="2387.001953" xlink:href="#DejaVuSans-69"/>
      <use x="2414.785156" xlink:href="#DejaVuSans-64"/>
      <use x="2478.261719" xlink:href="#DejaVuSans-64"/>
      <use x="2541.738281" xlink:href="#DejaVuSans-65"/>
      <use x="2603.261719" xlink:href="#DejaVuSans-6e"/>
      <use x="2666.640625" xlink:href="#DejaVuSans-5f"/>
      <use x="2716.640625" xlink:href="#DejaVuSans-64"/>
      <use x="2780.117188" xlink:href="#DejaVuSans-69"/>
      <use x="2807.900391" xlink:href="#DejaVuSans-6d"/>
      <use x="2905.3125" xlink:href="#DejaVuSans-3a"/>
      <use x="2939.003906" xlink:href="#DejaVuSans-20"/>
      <use x="2970.791016" xlink:href="#DejaVuSans-31"/>
      <use x="3034.414062" xlink:href="#DejaVuSans-37"/>
      <use x="3098.037109" xlink:href="#DejaVuSans-38"/>
      <use x="3161.660156" xlink:href="#DejaVuSans-34"/>
      <use x="3225.283203" xlink:href="#DejaVuSans-2c"/>
      <use x="3257.070312" xlink:href="#DejaVuSans-20"/>
      <use x="3288.857422" xlink:href="#DejaVuSans-6c"/>
      <use x="3316.640625" xlink:href="#DejaVuSans-61"/>
      <use x="3377.919922" xlink:href="#DejaVuSans-6d"/>
      <use x="3475.332031" xlink:href="#DejaVuSans-64"/>
      <use x="3538.808594" xlink:href="#DejaVuSans-61"/>
      <use x="3600.087891" xlink:href="#DejaVuSans-32"/>
      <use x="3663.710938" xlink:href="#DejaVuSans-3a"/>
      <use x="3697.402344" xlink:href="#DejaVuSans-20"/>
      <use x="3729.189453" xlink:href="#DejaVuSans-30"/>
      <use x="3792.8125" xlink:href="#DejaVuSans-2e"/>
      <use x="3824.599609" xlink:href="#DejaVuSans-30"/>
      <use x="3888.222656" xlink:href="#DejaVuSans-30"/>
      <use x="3951.845703" xlink:href="#DejaVuSans-31"/>
     </g>
    </g>
    <g id="line2d_58">
     <path d="M 129.0875 109.807187 
L 149.0875 109.807187 
" style="fill:none;stroke:#d62728;stroke-linecap:square;stroke-width:1.5;"/>
    </g>
    <g id="line2d_59"/>
    <g id="text_20">
     <!-- input_keep_prob: 0.503078328506, hidden_keep_prob: 0.960604328616, hidden_dim: 1999, lamda2: 0.00242994269165 -->
     <defs>
      <path d="M 10.984375 1.515625 
L 10.984375 10.5 
Q 14.703125 8.734375 18.5 7.8125 
Q 22.3125 6.890625 25.984375 6.890625 
Q 35.75 6.890625 40.890625 13.453125 
Q 46.046875 20.015625 46.78125 33.40625 
Q 43.953125 29.203125 39.59375 26.953125 
Q 35.25 24.703125 29.984375 24.703125 
Q 19.046875 24.703125 12.671875 31.3125 
Q 6.296875 37.9375 6.296875 49.421875 
Q 6.296875 60.640625 12.9375 67.421875 
Q 19.578125 74.21875 30.609375 74.21875 
Q 43.265625 74.21875 49.921875 64.515625 
Q 56.59375 54.828125 56.59375 36.375 
Q 56.59375 19.140625 48.40625 8.859375 
Q 40.234375 -1.421875 26.421875 -1.421875 
Q 22.703125 -1.421875 18.890625 -0.6875 
Q 15.09375 0.046875 10.984375 1.515625 
M 30.609375 32.421875 
Q 37.25 32.421875 41.125 36.953125 
Q 45.015625 41.5 45.015625 49.421875 
Q 45.015625 57.28125 41.125 61.84375 
Q 37.25 66.40625 30.609375 66.40625 
Q 23.96875 66.40625 20.09375 61.84375 
Q 16.21875 57.28125 16.21875 49.421875 
Q 16.21875 41.5 20.09375 36.953125 
Q 23.96875 32.421875 30.609375 32.421875 
" id="DejaVuSans-39"/>
     </defs>
     <g transform="translate(157.0875 113.307187)scale(0.1 -0.1)">
      <use xlink:href="#DejaVuSans-69"/>
      <use x="27.783203" xlink:href="#DejaVuSans-6e"/>
      <use x="91.162109" xlink:href="#DejaVuSans-70"/>
      <use x="154.638672" xlink:href="#DejaVuSans-75"/>
      <use x="218.017578" xlink:href="#DejaVuSans-74"/>
      <use x="257.226562" xlink:href="#DejaVuSans-5f"/>
      <use x="307.226562" xlink:href="#DejaVuSans-6b"/>
      <use x="365.089844" xlink:href="#DejaVuSans-65"/>
      <use x="426.613281" xlink:href="#DejaVuSans-65"/>
      <use x="488.136719" xlink:href="#DejaVuSans-70"/>
      <use x="551.613281" xlink:href="#DejaVuSans-5f"/>
      <use x="601.613281" xlink:href="#DejaVuSans-70"/>
      <use x="665.089844" xlink:href="#DejaVuSans-72"/>
      <use x="706.171875" xlink:href="#DejaVuSans-6f"/>
      <use x="767.353516" xlink:href="#DejaVuSans-62"/>
      <use x="830.830078" xlink:href="#DejaVuSans-3a"/>
      <use x="864.521484" xlink:href="#DejaVuSans-20"/>
      <use x="896.308594" xlink:href="#DejaVuSans-30"/>
      <use x="959.931641" xlink:href="#DejaVuSans-2e"/>
      <use x="991.71875" xlink:href="#DejaVuSans-35"/>
      <use x="1055.341797" xlink:href="#DejaVuSans-30"/>
      <use x="1118.964844" xlink:href="#DejaVuSans-33"/>
      <use x="1182.587891" xlink:href="#DejaVuSans-30"/>
      <use x="1246.210938" xlink:href="#DejaVuSans-37"/>
      <use x="1309.833984" xlink:href="#DejaVuSans-38"/>
      <use x="1373.457031" xlink:href="#DejaVuSans-33"/>
      <use x="1437.080078" xlink:href="#DejaVuSans-32"/>
      <use x="1500.703125" xlink:href="#DejaVuSans-38"/>
      <use x="1564.326172" xlink:href="#DejaVuSans-35"/>
      <use x="1627.949219" xlink:href="#DejaVuSans-30"/>
      <use x="1691.572266" xlink:href="#DejaVuSans-36"/>
      <use x="1755.195312" xlink:href="#DejaVuSans-2c"/>
      <use x="1786.982422" xlink:href="#DejaVuSans-20"/>
      <use x="1818.769531" xlink:href="#DejaVuSans-68"/>
      <use x="1882.148438" xlink:href="#DejaVuSans-69"/>
      <use x="1909.931641" xlink:href="#DejaVuSans-64"/>
      <use x="1973.408203" xlink:href="#DejaVuSans-64"/>
      <use x="2036.884766" xlink:href="#DejaVuSans-65"/>
      <use x="2098.408203" xlink:href="#DejaVuSans-6e"/>
      <use x="2161.787109" xlink:href="#DejaVuSans-5f"/>
      <use x="2211.787109" xlink:href="#DejaVuSans-6b"/>
      <use x="2269.650391" xlink:href="#DejaVuSans-65"/>
      <use x="2331.173828" xlink:href="#DejaVuSans-65"/>
      <use x="2392.697266" xlink:href="#DejaVuSans-70"/>
      <use x="2456.173828" xlink:href="#DejaVuSans-5f"/>
      <use x="2506.173828" xlink:href="#DejaVuSans-70"/>
      <use x="2569.650391" xlink:href="#DejaVuSans-72"/>
      <use x="2610.732422" xlink:href="#DejaVuSans-6f"/>
      <use x="2671.914062" xlink:href="#DejaVuSans-62"/>
      <use x="2735.390625" xlink:href="#DejaVuSans-3a"/>
      <use x="2769.082031" xlink:href="#DejaVuSans-20"/>
      <use x="2800.869141" xlink:href="#DejaVuSans-30"/>
      <use x="2864.492188" xlink:href="#DejaVuSans-2e"/>
      <use x="2896.279297" xlink:href="#DejaVuSans-39"/>
      <use x="2959.902344" xlink:href="#DejaVuSans-36"/>
      <use x="3023.525391" xlink:href="#DejaVuSans-30"/>
      <use x="3087.148438" xlink:href="#DejaVuSans-36"/>
      <use x="3150.771484" xlink:href="#DejaVuSans-30"/>
      <use x="3214.394531" xlink:href="#DejaVuSans-34"/>
      <use x="3278.017578" xlink:href="#DejaVuSans-33"/>
      <use x="3341.640625" xlink:href="#DejaVuSans-32"/>
      <use x="3405.263672" xlink:href="#DejaVuSans-38"/>
      <use x="3468.886719" xlink:href="#DejaVuSans-36"/>
      <use x="3532.509766" xlink:href="#DejaVuSans-31"/>
      <use x="3596.132812" xlink:href="#DejaVuSans-36"/>
      <use x="3659.755859" xlink:href="#DejaVuSans-2c"/>
      <use x="3691.542969" xlink:href="#DejaVuSans-20"/>
      <use x="3723.330078" xlink:href="#DejaVuSans-68"/>
      <use x="3786.708984" xlink:href="#DejaVuSans-69"/>
      <use x="3814.492188" xlink:href="#DejaVuSans-64"/>
      <use x="3877.96875" xlink:href="#DejaVuSans-64"/>
      <use x="3941.445312" xlink:href="#DejaVuSans-65"/>
      <use x="4002.96875" xlink:href="#DejaVuSans-6e"/>
      <use x="4066.347656" xlink:href="#DejaVuSans-5f"/>
      <use x="4116.347656" xlink:href="#DejaVuSans-64"/>
      <use x="4179.824219" xlink:href="#DejaVuSans-69"/>
      <use x="4207.607422" xlink:href="#DejaVuSans-6d"/>
      <use x="4305.019531" xlink:href="#DejaVuSans-3a"/>
      <use x="4338.710938" xlink:href="#DejaVuSans-20"/>
      <use x="4370.498047" xlink:href="#DejaVuSans-31"/>
      <use x="4434.121094" xlink:href="#DejaVuSans-39"/>
      <use x="4497.744141" xlink:href="#DejaVuSans-39"/>
      <use x="4561.367188" xlink:href="#DejaVuSans-39"/>
      <use x="4624.990234" xlink:href="#DejaVuSans-2c"/>
      <use x="4656.777344" xlink:href="#DejaVuSans-20"/>
      <use x="4688.564453" xlink:href="#DejaVuSans-6c"/>
      <use x="4716.347656" xlink:href="#DejaVuSans-61"/>
      <use x="4777.626953" xlink:href="#DejaVuSans-6d"/>
      <use x="4875.039062" xlink:href="#DejaVuSans-64"/>
      <use x="4938.515625" xlink:href="#DejaVuSans-61"/>
      <use x="4999.794922" xlink:href="#DejaVuSans-32"/>
      <use x="5063.417969" xlink:href="#DejaVuSans-3a"/>
      <use x="5097.109375" xlink:href="#DejaVuSans-20"/>
      <use x="5128.896484" xlink:href="#DejaVuSans-30"/>
      <use x="5192.519531" xlink:href="#DejaVuSans-2e"/>
      <use x="5224.306641" xlink:href="#DejaVuSans-30"/>
      <use x="5287.929688" xlink:href="#DejaVuSans-30"/>
      <use x="5351.552734" xlink:href="#DejaVuSans-32"/>
      <use x="5415.175781" xlink:href="#DejaVuSans-34"/>
      <use x="5478.798828" xlink:href="#DejaVuSans-32"/>
      <use x="5542.421875" xlink:href="#DejaVuSans-39"/>
      <use x="5606.044922" xlink:href="#DejaVuSans-39"/>
      <use x="5669.667969" xlink:href="#DejaVuSans-34"/>
      <use x="5733.291016" xlink:href="#DejaVuSans-32"/>
      <use x="5796.914062" xlink:href="#DejaVuSans-36"/>
      <use x="5860.537109" xlink:href="#DejaVuSans-39"/>
      <use x="5924.160156" xlink:href="#DejaVuSans-31"/>
      <use x="5987.783203" xlink:href="#DejaVuSans-36"/>
      <use x="6051.40625" xlink:href="#DejaVuSans-35"/>
     </g>
    </g>
    <g id="line2d_60">
     <path d="M 129.0875 124.763437 
L 149.0875 124.763437 
" style="fill:none;stroke:#9467bd;stroke-linecap:square;stroke-width:1.5;"/>
    </g>
    <g id="line2d_61"/>
    <g id="text_21">
     <!-- input_keep_prob: 0.5, hidden_keep_prob: 1.0, hidden_dim: 1975, lamda2: 0.001 -->
     <g transform="translate(157.0875 128.263437)scale(0.1 -0.1)">
      <use xlink:href="#DejaVuSans-69"/>
      <use x="27.783203" xlink:href="#DejaVuSans-6e"/>
      <use x="91.162109" xlink:href="#DejaVuSans-70"/>
      <use x="154.638672" xlink:href="#DejaVuSans-75"/>
      <use x="218.017578" xlink:href="#DejaVuSans-74"/>
      <use x="257.226562" xlink:href="#DejaVuSans-5f"/>
      <use x="307.226562" xlink:href="#DejaVuSans-6b"/>
      <use x="365.089844" xlink:href="#DejaVuSans-65"/>
      <use x="426.613281" xlink:href="#DejaVuSans-65"/>
      <use x="488.136719" xlink:href="#DejaVuSans-70"/>
      <use x="551.613281" xlink:href="#DejaVuSans-5f"/>
      <use x="601.613281" xlink:href="#DejaVuSans-70"/>
      <use x="665.089844" xlink:href="#DejaVuSans-72"/>
      <use x="706.171875" xlink:href="#DejaVuSans-6f"/>
      <use x="767.353516" xlink:href="#DejaVuSans-62"/>
      <use x="830.830078" xlink:href="#DejaVuSans-3a"/>
      <use x="864.521484" xlink:href="#DejaVuSans-20"/>
      <use x="896.308594" xlink:href="#DejaVuSans-30"/>
      <use x="959.931641" xlink:href="#DejaVuSans-2e"/>
      <use x="991.71875" xlink:href="#DejaVuSans-35"/>
      <use x="1055.341797" xlink:href="#DejaVuSans-2c"/>
      <use x="1087.128906" xlink:href="#DejaVuSans-20"/>
      <use x="1118.916016" xlink:href="#DejaVuSans-68"/>
      <use x="1182.294922" xlink:href="#DejaVuSans-69"/>
      <use x="1210.078125" xlink:href="#DejaVuSans-64"/>
      <use x="1273.554688" xlink:href="#DejaVuSans-64"/>
      <use x="1337.03125" xlink:href="#DejaVuSans-65"/>
      <use x="1398.554688" xlink:href="#DejaVuSans-6e"/>
      <use x="1461.933594" xlink:href="#DejaVuSans-5f"/>
      <use x="1511.933594" xlink:href="#DejaVuSans-6b"/>
      <use x="1569.796875" xlink:href="#DejaVuSans-65"/>
      <use x="1631.320312" xlink:href="#DejaVuSans-65"/>
      <use x="1692.84375" xlink:href="#DejaVuSans-70"/>
      <use x="1756.320312" xlink:href="#DejaVuSans-5f"/>
      <use x="1806.320312" xlink:href="#DejaVuSans-70"/>
      <use x="1869.796875" xlink:href="#DejaVuSans-72"/>
      <use x="1910.878906" xlink:href="#DejaVuSans-6f"/>
      <use x="1972.060547" xlink:href="#DejaVuSans-62"/>
      <use x="2035.537109" xlink:href="#DejaVuSans-3a"/>
      <use x="2069.228516" xlink:href="#DejaVuSans-20"/>
      <use x="2101.015625" xlink:href="#DejaVuSans-31"/>
      <use x="2164.638672" xlink:href="#DejaVuSans-2e"/>
      <use x="2196.425781" xlink:href="#DejaVuSans-30"/>
      <use x="2260.048828" xlink:href="#DejaVuSans-2c"/>
      <use x="2291.835938" xlink:href="#DejaVuSans-20"/>
      <use x="2323.623047" xlink:href="#DejaVuSans-68"/>
      <use x="2387.001953" xlink:href="#DejaVuSans-69"/>
      <use x="2414.785156" xlink:href="#DejaVuSans-64"/>
      <use x="2478.261719" xlink:href="#DejaVuSans-64"/>
      <use x="2541.738281" xlink:href="#DejaVuSans-65"/>
      <use x="2603.261719" xlink:href="#DejaVuSans-6e"/>
      <use x="2666.640625" xlink:href="#DejaVuSans-5f"/>
      <use x="2716.640625" xlink:href="#DejaVuSans-64"/>
      <use x="2780.117188" xlink:href="#DejaVuSans-69"/>
      <use x="2807.900391" xlink:href="#DejaVuSans-6d"/>
      <use x="2905.3125" xlink:href="#DejaVuSans-3a"/>
      <use x="2939.003906" xlink:href="#DejaVuSans-20"/>
      <use x="2970.791016" xlink:href="#DejaVuSans-31"/>
      <use x="3034.414062" xlink:href="#DejaVuSans-39"/>
      <use x="3098.037109" xlink:href="#DejaVuSans-37"/>
      <use x="3161.660156" xlink:href="#DejaVuSans-35"/>
      <use x="3225.283203" xlink:href="#DejaVuSans-2c"/>
      <use x="3257.070312" xlink:href="#DejaVuSans-20"/>
      <use x="3288.857422" xlink:href="#DejaVuSans-6c"/>
      <use x="3316.640625" xlink:href="#DejaVuSans-61"/>
      <use x="3377.919922" xlink:href="#DejaVuSans-6d"/>
      <use x="3475.332031" xlink:href="#DejaVuSans-64"/>
      <use x="3538.808594" xlink:href="#DejaVuSans-61"/>
      <use x="3600.087891" xlink:href="#DejaVuSans-32"/>
      <use x="3663.710938" xlink:href="#DejaVuSans-3a"/>
      <use x="3697.402344" xlink:href="#DejaVuSans-20"/>
      <use x="3729.189453" xlink:href="#DejaVuSans-30"/>
      <use x="3792.8125" xlink:href="#DejaVuSans-2e"/>
      <use x="3824.599609" xlink:href="#DejaVuSans-30"/>
      <use x="3888.222656" xlink:href="#DejaVuSans-30"/>
      <use x="3951.845703" xlink:href="#DejaVuSans-31"/>
     </g>
    </g>
    <g id="line2d_62">
     <path d="M 129.0875 139.719687 
L 149.0875 139.719687 
" style="fill:none;stroke:#8c564b;stroke-linecap:square;stroke-width:1.5;"/>
    </g>
    <g id="line2d_63"/>
    <g id="text_22">
     <!-- input_keep_prob: 0.5, hidden_keep_prob: 1.0, hidden_dim: 999, lamda2: 0.001 -->
     <g transform="translate(157.0875 143.219687)scale(0.1 -0.1)">
      <use xlink:href="#DejaVuSans-69"/>
      <use x="27.783203" xlink:href="#DejaVuSans-6e"/>
      <use x="91.162109" xlink:href="#DejaVuSans-70"/>
      <use x="154.638672" xlink:href="#DejaVuSans-75"/>
      <use x="218.017578" xlink:href="#DejaVuSans-74"/>
      <use x="257.226562" xlink:href="#DejaVuSans-5f"/>
      <use x="307.226562" xlink:href="#DejaVuSans-6b"/>
      <use x="365.089844" xlink:href="#DejaVuSans-65"/>
      <use x="426.613281" xlink:href="#DejaVuSans-65"/>
      <use x="488.136719" xlink:href="#DejaVuSans-70"/>
      <use x="551.613281" xlink:href="#DejaVuSans-5f"/>
      <use x="601.613281" xlink:href="#DejaVuSans-70"/>
      <use x="665.089844" xlink:href="#DejaVuSans-72"/>
      <use x="706.171875" xlink:href="#DejaVuSans-6f"/>
      <use x="767.353516" xlink:href="#DejaVuSans-62"/>
      <use x="830.830078" xlink:href="#DejaVuSans-3a"/>
      <use x="864.521484" xlink:href="#DejaVuSans-20"/>
      <use x="896.308594" xlink:href="#DejaVuSans-30"/>
      <use x="959.931641" xlink:href="#DejaVuSans-2e"/>
      <use x="991.71875" xlink:href="#DejaVuSans-35"/>
      <use x="1055.341797" xlink:href="#DejaVuSans-2c"/>
      <use x="1087.128906" xlink:href="#DejaVuSans-20"/>
      <use x="1118.916016" xlink:href="#DejaVuSans-68"/>
      <use x="1182.294922" xlink:href="#DejaVuSans-69"/>
      <use x="1210.078125" xlink:href="#DejaVuSans-64"/>
      <use x="1273.554688" xlink:href="#DejaVuSans-64"/>
      <use x="1337.03125" xlink:href="#DejaVuSans-65"/>
      <use x="1398.554688" xlink:href="#DejaVuSans-6e"/>
      <use x="1461.933594" xlink:href="#DejaVuSans-5f"/>
      <use x="1511.933594" xlink:href="#DejaVuSans-6b"/>
      <use x="1569.796875" xlink:href="#DejaVuSans-65"/>
      <use x="1631.320312" xlink:href="#DejaVuSans-65"/>
      <use x="1692.84375" xlink:href="#DejaVuSans-70"/>
      <use x="1756.320312" xlink:href="#DejaVuSans-5f"/>
      <use x="1806.320312" xlink:href="#DejaVuSans-70"/>
      <use x="1869.796875" xlink:href="#DejaVuSans-72"/>
      <use x="1910.878906" xlink:href="#DejaVuSans-6f"/>
      <use x="1972.060547" xlink:href="#DejaVuSans-62"/>
      <use x="2035.537109" xlink:href="#DejaVuSans-3a"/>
      <use x="2069.228516" xlink:href="#DejaVuSans-20"/>
      <use x="2101.015625" xlink:href="#DejaVuSans-31"/>
      <use x="2164.638672" xlink:href="#DejaVuSans-2e"/>
      <use x="2196.425781" xlink:href="#DejaVuSans-30"/>
      <use x="2260.048828" xlink:href="#DejaVuSans-2c"/>
      <use x="2291.835938" xlink:href="#DejaVuSans-20"/>
      <use x="2323.623047" xlink:href="#DejaVuSans-68"/>
      <use x="2387.001953" xlink:href="#DejaVuSans-69"/>
      <use x="2414.785156" xlink:href="#DejaVuSans-64"/>
      <use x="2478.261719" xlink:href="#DejaVuSans-64"/>
      <use x="2541.738281" xlink:href="#DejaVuSans-65"/>
      <use x="2603.261719" xlink:href="#DejaVuSans-6e"/>
      <use x="2666.640625" xlink:href="#DejaVuSans-5f"/>
      <use x="2716.640625" xlink:href="#DejaVuSans-64"/>
      <use x="2780.117188" xlink:href="#DejaVuSans-69"/>
      <use x="2807.900391" xlink:href="#DejaVuSans-6d"/>
      <use x="2905.3125" xlink:href="#DejaVuSans-3a"/>
      <use x="2939.003906" xlink:href="#DejaVuSans-20"/>
      <use x="2970.791016" xlink:href="#DejaVuSans-39"/>
      <use x="3034.414062" xlink:href="#DejaVuSans-39"/>
      <use x="3098.037109" xlink:href="#DejaVuSans-39"/>
      <use x="3161.660156" xlink:href="#DejaVuSans-2c"/>
      <use x="3193.447266" xlink:href="#DejaVuSans-20"/>
      <use x="3225.234375" xlink:href="#DejaVuSans-6c"/>
      <use x="3253.017578" xlink:href="#DejaVuSans-61"/>
      <use x="3314.296875" xlink:href="#DejaVuSans-6d"/>
      <use x="3411.708984" xlink:href="#DejaVuSans-64"/>
      <use x="3475.185547" xlink:href="#DejaVuSans-61"/>
      <use x="3536.464844" xlink:href="#DejaVuSans-32"/>
      <use x="3600.087891" xlink:href="#DejaVuSans-3a"/>
      <use x="3633.779297" xlink:href="#DejaVuSans-20"/>
      <use x="3665.566406" xlink:href="#DejaVuSans-30"/>
      <use x="3729.189453" xlink:href="#DejaVuSans-2e"/>
      <use x="3760.976562" xlink:href="#DejaVuSans-30"/>
      <use x="3824.599609" xlink:href="#DejaVuSans-30"/>
      <use x="3888.222656" xlink:href="#DejaVuSans-31"/>
     </g>
    </g>
    <g id="line2d_64">
     <path d="M 129.0875 154.675937 
L 149.0875 154.675937 
" style="fill:none;stroke:#e377c2;stroke-linecap:square;stroke-width:1.5;"/>
    </g>
    <g id="line2d_65"/>
    <g id="text_23">
     <!-- input_keep_prob: 0.5, hidden_keep_prob: 1.0, hidden_dim: 1828, lamda2: 0.001 -->
     <g transform="translate(157.0875 158.175937)scale(0.1 -0.1)">
      <use xlink:href="#DejaVuSans-69"/>
      <use x="27.783203" xlink:href="#DejaVuSans-6e"/>
      <use x="91.162109" xlink:href="#DejaVuSans-70"/>
      <use x="154.638672" xlink:href="#DejaVuSans-75"/>
      <use x="218.017578" xlink:href="#DejaVuSans-74"/>
      <use x="257.226562" xlink:href="#DejaVuSans-5f"/>
      <use x="307.226562" xlink:href="#DejaVuSans-6b"/>
      <use x="365.089844" xlink:href="#DejaVuSans-65"/>
      <use x="426.613281" xlink:href="#DejaVuSans-65"/>
      <use x="488.136719" xlink:href="#DejaVuSans-70"/>
      <use x="551.613281" xlink:href="#DejaVuSans-5f"/>
      <use x="601.613281" xlink:href="#DejaVuSans-70"/>
      <use x="665.089844" xlink:href="#DejaVuSans-72"/>
      <use x="706.171875" xlink:href="#DejaVuSans-6f"/>
      <use x="767.353516" xlink:href="#DejaVuSans-62"/>
      <use x="830.830078" xlink:href="#DejaVuSans-3a"/>
      <use x="864.521484" xlink:href="#DejaVuSans-20"/>
      <use x="896.308594" xlink:href="#DejaVuSans-30"/>
      <use x="959.931641" xlink:href="#DejaVuSans-2e"/>
      <use x="991.71875" xlink:href="#DejaVuSans-35"/>
      <use x="1055.341797" xlink:href="#DejaVuSans-2c"/>
      <use x="1087.128906" xlink:href="#DejaVuSans-20"/>
      <use x="1118.916016" xlink:href="#DejaVuSans-68"/>
      <use x="1182.294922" xlink:href="#DejaVuSans-69"/>
      <use x="1210.078125" xlink:href="#DejaVuSans-64"/>
      <use x="1273.554688" xlink:href="#DejaVuSans-64"/>
      <use x="1337.03125" xlink:href="#DejaVuSans-65"/>
      <use x="1398.554688" xlink:href="#DejaVuSans-6e"/>
      <use x="1461.933594" xlink:href="#DejaVuSans-5f"/>
      <use x="1511.933594" xlink:href="#DejaVuSans-6b"/>
      <use x="1569.796875" xlink:href="#DejaVuSans-65"/>
      <use x="1631.320312" xlink:href="#DejaVuSans-65"/>
      <use x="1692.84375" xlink:href="#DejaVuSans-70"/>
      <use x="1756.320312" xlink:href="#DejaVuSans-5f"/>
      <use x="1806.320312" xlink:href="#DejaVuSans-70"/>
      <use x="1869.796875" xlink:href="#DejaVuSans-72"/>
      <use x="1910.878906" xlink:href="#DejaVuSans-6f"/>
      <use x="1972.060547" xlink:href="#DejaVuSans-62"/>
      <use x="2035.537109" xlink:href="#DejaVuSans-3a"/>
      <use x="2069.228516" xlink:href="#DejaVuSans-20"/>
      <use x="2101.015625" xlink:href="#DejaVuSans-31"/>
      <use x="2164.638672" xlink:href="#DejaVuSans-2e"/>
      <use x="2196.425781" xlink:href="#DejaVuSans-30"/>
      <use x="2260.048828" xlink:href="#DejaVuSans-2c"/>
      <use x="2291.835938" xlink:href="#DejaVuSans-20"/>
      <use x="2323.623047" xlink:href="#DejaVuSans-68"/>
      <use x="2387.001953" xlink:href="#DejaVuSans-69"/>
      <use x="2414.785156" xlink:href="#DejaVuSans-64"/>
      <use x="2478.261719" xlink:href="#DejaVuSans-64"/>
      <use x="2541.738281" xlink:href="#DejaVuSans-65"/>
      <use x="2603.261719" xlink:href="#DejaVuSans-6e"/>
      <use x="2666.640625" xlink:href="#DejaVuSans-5f"/>
      <use x="2716.640625" xlink:href="#DejaVuSans-64"/>
      <use x="2780.117188" xlink:href="#DejaVuSans-69"/>
      <use x="2807.900391" xlink:href="#DejaVuSans-6d"/>
      <use x="2905.3125" xlink:href="#DejaVuSans-3a"/>
      <use x="2939.003906" xlink:href="#DejaVuSans-20"/>
      <use x="2970.791016" xlink:href="#DejaVuSans-31"/>
      <use x="3034.414062" xlink:href="#DejaVuSans-38"/>
      <use x="3098.037109" xlink:href="#DejaVuSans-32"/>
      <use x="3161.660156" xlink:href="#DejaVuSans-38"/>
      <use x="3225.283203" xlink:href="#DejaVuSans-2c"/>
      <use x="3257.070312" xlink:href="#DejaVuSans-20"/>
      <use x="3288.857422" xlink:href="#DejaVuSans-6c"/>
      <use x="3316.640625" xlink:href="#DejaVuSans-61"/>
      <use x="3377.919922" xlink:href="#DejaVuSans-6d"/>
      <use x="3475.332031" xlink:href="#DejaVuSans-64"/>
      <use x="3538.808594" xlink:href="#DejaVuSans-61"/>
      <use x="3600.087891" xlink:href="#DejaVuSans-32"/>
      <use x="3663.710938" xlink:href="#DejaVuSans-3a"/>
      <use x="3697.402344" xlink:href="#DejaVuSans-20"/>
      <use x="3729.189453" xlink:href="#DejaVuSans-30"/>
      <use x="3792.8125" xlink:href="#DejaVuSans-2e"/>
      <use x="3824.599609" xlink:href="#DejaVuSans-30"/>
      <use x="3888.222656" xlink:href="#DejaVuSans-30"/>
      <use x="3951.845703" xlink:href="#DejaVuSans-31"/>
     </g>
    </g>
   </g>
  </g>
 </g>
 <defs>
  <clipPath id="p67c37d574c">
   <rect height="326.16" width="669.6" x="108" y="51.84"/>
  </clipPath>
 </defs>
</svg>
